<?xml version="1.0" encoding="utf-8" standalone="no"?>
<!DOCTYPE svg PUBLIC "-//W3C//DTD SVG 1.1//EN"
  "http://www.w3.org/Graphics/SVG/1.1/DTD/svg11.dtd">
<svg height="283.464567pt" version="1.1" viewBox="0 0 283.464567 283.464567" width="283.464567pt" xmlns="http://www.w3.org/2000/svg" xmlns:xlink="http://www.w3.org/1999/xlink">
 <metadata>
  <rdf:RDF xmlns:cc="http://creativecommons.org/ns#" xmlns:dc="http://purl.org/dc/elements/1.1/" xmlns:rdf="http://www.w3.org/1999/02/22-rdf-syntax-ns#">
   <cc:Work>
    <dc:type rdf:resource="http://purl.org/dc/dcmitype/StillImage"/>
    <dc:date>2021-10-28T16:55:29.000465</dc:date>
    <dc:format>image/svg+xml</dc:format>
    <dc:creator>
     <cc:Agent>
      <dc:title>Matplotlib v3.4.2, https://matplotlib.org/</dc:title>
     </cc:Agent>
    </dc:creator>
   </cc:Work>
  </rdf:RDF>
 </metadata>
 <defs>
  <style type="text/css">*{stroke-linecap:butt;stroke-linejoin:round;}</style>
 </defs>
 <g id="figure_1">
  <g id="patch_1">
   <path d="M 0 283.464567 
L 283.464567 283.464567 
L 283.464567 0 
L 0 0 
z
" style="fill:#ffffff;"/>
  </g>
  <g id="axes_1">
   <g id="line2d_1">
    <path clip-path="url(#p58c333e260)" d="M 169.368605 22.702935 
L 175.067703 54.742303 
M 183.647664 85.702084 
L 225.220552 93.576494 
M 183.647664 85.702084 
L 195.358998 55.736762 
M 183.647664 85.702084 
L 149.914952 70.96707 
M 183.647664 85.702084 
L 180.113128 111.77857 
M 183.647664 85.702084 
L 156.228582 112.30869 
M 183.647664 85.702084 
L 211.238972 97.631718 
M 234.505072 124.621403 
L 225.220552 93.576494 
M 234.505072 124.621403 
L 225.670686 152.234076 
M 234.505072 124.621403 
L 228.007473 168.040939 
M 248.521879 73.002421 
L 219.580167 86.770063 
M 112.138854 76.868041 
L 85.306904 105.223656 
M 167.665921 141.190555 
L 180.113128 111.77857 
M 167.665921 141.190555 
L 176.050171 180.461998 
M 167.665921 141.190555 
L 156.228582 112.30869 
M 167.665921 141.190555 
L 158.240489 162.612046 
M 167.665921 141.190555 
L 194.994976 154.787939 
M 215.149274 115.667406 
L 186.892549 116.522563 
M 199.425869 176.379687 
L 176.050171 180.461998 
M 199.425869 176.379687 
L 225.670686 152.234076 
M 199.425869 176.379687 
L 158.240489 162.612046 
M 199.425869 176.379687 
L 228.007473 168.040939 
M 145.112209 194.094208 
L 148.024386 229.70821 
M 145.112209 194.094208 
L 174.429686 171.852385 
M 125.756411 103.52108 
L 157.852982 106.02077 
M 260.761632 165.181386 
L 232.36791 156.432472 
M 128.656845 182.690824 
L 161.900281 170.37424 
M 128.656845 182.690824 
L 113.015638 215.759476 
M 85.870551 143.856633 
L 52.967652 145.830072 
M 85.870551 143.856633 
L 93.323218 169.186307 
M 85.870551 143.856633 
L 107.340025 175.207232 
M 85.870551 143.856633 
L 96.705101 119.146077 
M 175.067703 54.742303 
L 183.647664 85.702084 
M 225.220552 93.576494 
L 248.521879 73.002421 
M 195.358998 55.736762 
L 207.164274 25.647616 
M 149.914952 70.96707 
L 112.138854 76.868041 
M 180.113128 111.77857 
L 215.149274 115.667406 
M 186.892549 116.522563 
L 183.647664 85.702084 
M 186.892549 116.522563 
L 167.665921 141.190555 
M 176.050171 180.461998 
L 145.112209 194.094208 
M 148.024386 229.70821 
L 157.731641 260.761632 
M 148.024386 229.70821 
L 122.883377 244.764778 
M 156.228582 112.30869 
L 125.756411 103.52108 
M 211.238972 97.631718 
L 234.505072 124.621403 
M 225.670686 152.234076 
L 260.761632 165.181386 
M 158.240489 162.612046 
L 128.656845 182.690824 
M 228.007473 168.040939 
L 253.735615 190.418193 
M 85.306904 105.223656 
L 85.870551 143.856633 
M 52.967652 145.830072 
L 22.702935 145.191607 
M 219.580167 86.770063 
L 183.647664 85.702084 
M 219.580167 86.770063 
L 234.505072 124.621403 
M 93.323218 169.186307 
L 128.656845 182.690824 
M 161.900281 170.37424 
L 199.425869 176.379687 
M 161.900281 170.37424 
L 167.665921 141.190555 
M 107.340025 175.207232 
L 145.112209 194.094208 
M 174.429686 171.852385 
L 199.425869 176.379687 
M 174.429686 171.852385 
L 167.665921 141.190555 
M 96.705101 119.146077 
L 125.756411 103.52108 
M 194.994976 154.787939 
L 199.425869 176.379687 
M 157.852982 106.02077 
L 183.647664 85.702084 
M 157.852982 106.02077 
L 167.665921 141.190555 
M 232.36791 156.432472 
L 199.425869 176.379687 
M 232.36791 156.432472 
L 234.505072 124.621403 
M 113.015638 215.759476 
L 87.19747 235.872305 
M 113.015638 215.759476 
L 122.883377 244.764778 
L 122.883377 244.764778 
" style="fill:none;stroke:#acb5ad;stroke-linecap:square;stroke-width:0.5;"/>
   </g>
   <g id="patch_2">
    <path clip-path="url(#p58c333e260)" d="M 169.718537 24.670196 
L 174.696253 52.654073 
" style="fill:none;stroke:#000000;stroke-linecap:round;"/>
    <path clip-path="url(#p58c333e260)" d="M 175.330541 50.509853 
L 174.696253 52.654073 
L 173.36145 50.860111 
L 175.330541 50.509853 
z
" style="stroke:#000000;stroke-linecap:round;"/>
   </g>
   <g id="patch_3">
    <path clip-path="url(#p58c333e260)" d="M 185.614155 86.074561 
L 223.140592 93.182524 
" style="fill:none;stroke:#00c32f;stroke-linecap:round;"/>
    <path clip-path="url(#p58c333e260)" d="M 221.361635 91.827788 
L 223.140592 93.182524 
L 220.989429 93.792848 
L 221.361635 91.827788 
z
" style="fill:#00c32f;stroke:#00c32f;stroke-linecap:round;"/>
   </g>
   <g id="patch_4">
    <path clip-path="url(#p58c333e260)" d="M 184.375334 83.840225 
L 194.588665 57.707783 
" style="fill:none;stroke:#c13737;stroke-linecap:round;"/>
    <path clip-path="url(#p58c333e260)" d="M 192.929241 59.206552 
L 194.588665 57.707783 
L 194.792026 59.934584 
L 192.929241 59.206552 
z
" style="fill:#c13737;stroke:#c13737;stroke-linecap:round;"/>
   </g>
   <g id="patch_5">
    <path clip-path="url(#p58c333e260)" d="M 181.81526 84.901659 
L 151.854613 71.814346 
" style="fill:none;stroke:#c13737;stroke-linecap:round;"/>
    <path clip-path="url(#p58c333e260)" d="M 153.287094 73.53132 
L 151.854613 71.814346 
L 154.08768 71.698546 
L 153.287094 73.53132 
z
" style="fill:#c13737;stroke:#c13737;stroke-linecap:round;"/>
   </g>
   <g id="patch_6">
    <path clip-path="url(#p58c333e260)" d="M 183.378864 87.685196 
L 180.397643 109.679521 
" style="fill:none;stroke:#0c2aec;stroke-linecap:round;"/>
    <path clip-path="url(#p58c333e260)" d="M 181.657215 107.831961 
L 180.397643 109.679521 
L 179.675338 107.563327 
L 181.657215 107.831961 
z
" style="fill:#0c2aec;stroke:#0c2aec;stroke-linecap:round;"/>
   </g>
   <g id="patch_7">
    <path clip-path="url(#p58c333e260)" d="M 182.211777 87.095423 
L 157.750943 110.831439 
" style="fill:none;stroke:#0c2aec;stroke-linecap:round;"/>
    <path clip-path="url(#p58c333e260)" d="M 159.882657 110.15631 
L 157.750943 110.831439 
L 158.489868 108.720991 
L 159.882657 110.15631 
z
" style="fill:#0c2aec;stroke:#0c2aec;stroke-linecap:round;"/>
   </g>
   <g id="patch_8">
    <path clip-path="url(#p58c333e260)" d="M 185.483268 86.495742 
L 209.297847 96.792435 
" style="fill:none;stroke:#000000;stroke-linecap:round;"/>
    <path clip-path="url(#p58c333e260)" d="M 207.858953 95.080833 
L 209.297847 96.792435 
L 207.065229 96.916589 
L 207.858953 95.080833 
z
" style="stroke:#000000;stroke-linecap:round;"/>
   </g>
   <g id="patch_9">
    <path clip-path="url(#p58c333e260)" d="M 233.932723 122.707624 
L 225.826981 95.604227 
" style="fill:none;stroke:#00c32f;stroke-linecap:round;"/>
    <path clip-path="url(#p58c333e260)" d="M 225.441965 97.806899 
L 225.826981 95.604227 
L 227.358109 97.233843 
L 225.441965 97.806899 
z
" style="fill:#00c32f;stroke:#00c32f;stroke-linecap:round;"/>
   </g>
   <g id="patch_10">
    <path clip-path="url(#p58c333e260)" d="M 233.895767 126.525842 
L 226.315601 150.218337 
" style="fill:none;stroke:#0c2aec;stroke-linecap:round;"/>
    <path clip-path="url(#p58c333e260)" d="M 227.877489 148.618179 
L 226.315601 150.218337 
L 225.972607 148.008732 
L 227.877489 148.618179 
z
" style="fill:#0c2aec;stroke:#0c2aec;stroke-linecap:round;"/>
   </g>
   <g id="patch_11">
    <path clip-path="url(#p58c333e260)" d="M 234.208825 126.601042 
L 228.320935 165.946264 
" style="fill:none;stroke:#0c2aec;stroke-linecap:round;"/>
    <path clip-path="url(#p58c333e260)" d="M 229.60592 164.116288 
L 228.320935 165.946264 
L 227.627945 163.82029 
L 229.60592 164.116288 
z
" style="fill:#0c2aec;stroke:#0c2aec;stroke-linecap:round;"/>
   </g>
   <g id="patch_12">
    <path clip-path="url(#p58c333e260)" d="M 246.716555 73.861218 
L 221.494112 85.859594 
" style="fill:none;stroke:#6d00ff;stroke-linecap:round;"/>
    <path clip-path="url(#p58c333e260)" d="M 223.729749 85.903478 
L 221.494112 85.859594 
L 222.870601 84.097414 
L 223.729749 85.903478 
z
" style="fill:#6d00ff;stroke:#6d00ff;stroke-linecap:round;"/>
   </g>
   <g id="patch_13">
    <path clip-path="url(#p58c333e260)" d="M 110.766468 78.318358 
L 86.76219 103.68573 
" style="fill:none;stroke:#000000;stroke-linecap:round;"/>
    <path clip-path="url(#p58c333e260)" d="M 88.863188 102.920348 
L 86.76219 103.68573 
L 87.410483 101.545703 
L 88.863188 102.920348 
z
" style="stroke:#000000;stroke-linecap:round;"/>
   </g>
   <g id="patch_14">
    <path clip-path="url(#p58c333e260)" d="M 168.445391 139.348716 
L 179.288558 113.726977 
" style="fill:none;stroke:#0c2aec;stroke-linecap:round;"/>
    <path clip-path="url(#p58c333e260)" d="M 177.588157 115.179091 
L 179.288558 113.726977 
L 179.430009 115.958566 
L 177.588157 115.179091 
z
" style="fill:#0c2aec;stroke:#0c2aec;stroke-linecap:round;"/>
   </g>
   <g id="patch_15">
    <path clip-path="url(#p58c333e260)" d="M 168.084519 143.151251 
L 175.607678 178.38938 
" style="fill:none;stroke:#0c2aec;stroke-linecap:round;"/>
    <path clip-path="url(#p58c333e260)" d="M 176.16806 176.224669 
L 175.607678 178.38938 
L 174.212138 176.642248 
L 176.16806 176.224669 
z
" style="fill:#0c2aec;stroke:#0c2aec;stroke-linecap:round;"/>
   </g>
   <g id="patch_16">
    <path clip-path="url(#p58c333e260)" d="M 166.930145 139.332554 
L 157.007309 114.27515 
" style="fill:none;stroke:#0c2aec;stroke-linecap:round;"/>
    <path clip-path="url(#p58c333e260)" d="M 156.813928 116.502841 
L 157.007309 114.27515 
L 158.673432 115.766469 
L 156.813928 116.502841 
z
" style="fill:#0c2aec;stroke:#0c2aec;stroke-linecap:round;"/>
   </g>
   <g id="patch_17">
    <path clip-path="url(#p58c333e260)" d="M 166.859375 143.02362 
L 159.093722 160.672876 
" style="fill:none;stroke:#0c2aec;stroke-linecap:round;"/>
    <path clip-path="url(#p58c333e260)" d="M 160.814513 159.244983 
L 159.093722 160.672876 
L 158.983882 158.439507 
L 160.814513 159.244983 
z
" style="fill:#0c2aec;stroke:#0c2aec;stroke-linecap:round;"/>
   </g>
   <g id="patch_18">
    <path clip-path="url(#p58c333e260)" d="M 169.457389 142.081887 
L 193.099306 153.844761 
" style="fill:none;stroke:#000000;stroke-linecap:round;"/>
    <path clip-path="url(#p58c333e260)" d="M 191.754149 152.05855 
L 193.099306 153.844761 
L 190.863243 153.849161 
L 191.754149 152.05855 
z
" style="stroke:#000000;stroke-linecap:round;"/>
   </g>
   <g id="patch_19">
    <path clip-path="url(#p58c333e260)" d="M 213.152125 115.727848 
L 189.006987 116.458572 
" style="fill:none;stroke:#6d00ff;stroke-linecap:round;"/>
    <path clip-path="url(#p58c333e260)" d="M 191.036322 117.397615 
L 189.006987 116.458572 
L 190.975822 115.39853 
L 191.036322 117.397615 
z
" style="fill:#6d00ff;stroke:#6d00ff;stroke-linecap:round;"/>
   </g>
   <g id="patch_20">
    <path clip-path="url(#p58c333e260)" d="M 197.454115 176.724033 
L 178.136557 180.097634 
" style="fill:none;stroke:#0c2aec;stroke-linecap:round;"/>
    <path clip-path="url(#p58c333e260)" d="M 180.278774 180.738654 
L 178.136557 180.097634 
L 179.934703 178.768472 
L 180.278774 180.738654 
z
" style="fill:#0c2aec;stroke:#0c2aec;stroke-linecap:round;"/>
   </g>
   <g id="patch_21">
    <path clip-path="url(#p58c333e260)" d="M 200.896373 175.026802 
L 224.113014 153.667158 
" style="fill:none;stroke:#0c2aec;stroke-linecap:round;"/>
    <path clip-path="url(#p58c333e260)" d="M 221.9641 154.285356 
L 224.113014 153.667158 
L 223.318225 155.757208 
L 221.9641 154.285356 
z
" style="fill:#0c2aec;stroke:#0c2aec;stroke-linecap:round;"/>
   </g>
   <g id="patch_22">
    <path clip-path="url(#p58c333e260)" d="M 197.527983 175.745253 
L 160.248024 163.283134 
" style="fill:none;stroke:#0c2aec;stroke-linecap:round;"/>
    <path clip-path="url(#p58c333e260)" d="M 161.827809 164.865625 
L 160.248024 163.283134 
L 162.461888 162.968801 
L 161.827809 164.865625 
z
" style="fill:#0c2aec;stroke:#0c2aec;stroke-linecap:round;"/>
   </g>
   <g id="patch_23">
    <path clip-path="url(#p58c333e260)" d="M 201.348289 175.818817 
L 225.974168 168.63416 
" style="fill:none;stroke:#0c2aec;stroke-linecap:round;"/>
    <path clip-path="url(#p58c333e260)" d="M 223.774137 168.234334 
L 225.974168 168.63416 
L 224.334288 170.154289 
L 223.774137 168.234334 
z
" style="fill:#0c2aec;stroke:#0c2aec;stroke-linecap:round;"/>
   </g>
   <g id="patch_24">
    <path clip-path="url(#p58c333e260)" d="M 145.275379 196.08967 
L 147.851723 227.596665 
" style="fill:none;stroke:#c9bf8b;stroke-linecap:round;"/>
    <path clip-path="url(#p58c333e260)" d="M 148.6854 225.52182 
L 147.851723 227.596665 
L 146.692053 225.684817 
L 148.6854 225.52182 
z
" style="fill:#c9bf8b;stroke:#c9bf8b;stroke-linecap:round;"/>
   </g>
   <g id="patch_25">
    <path clip-path="url(#p58c333e260)" d="M 146.704772 192.886003 
L 172.743641 173.13151 
" style="fill:none;stroke:#6d00ff;stroke-linecap:round;"/>
    <path clip-path="url(#p58c333e260)" d="M 170.545881 173.543638 
L 172.743641 173.13151 
L 171.754687 175.136995 
L 170.545881 173.543638 
z
" style="fill:#6d00ff;stroke:#6d00ff;stroke-linecap:round;"/>
   </g>
   <g id="patch_26">
    <path clip-path="url(#p58c333e260)" d="M 127.750693 103.676396 
L 155.742508 105.856406 
" style="fill:none;stroke:#6d00ff;stroke-linecap:round;"/>
    <path clip-path="url(#p58c333e260)" d="M 153.826191 104.704135 
L 155.742508 105.856406 
L 153.6709 106.698097 
L 153.826191 104.704135 
z
" style="fill:#6d00ff;stroke:#6d00ff;stroke-linecap:round;"/>
   </g>
   <g id="patch_27">
    <path clip-path="url(#p58c333e260)" d="M 258.851849 164.592928 
L 234.390079 157.05556 
" style="fill:none;stroke:#6d00ff;stroke-linecap:round;"/>
    <path clip-path="url(#p58c333e260)" d="M 236.006935 158.600155 
L 234.390079 157.05556 
L 236.595869 156.688831 
L 236.006935 158.600155 
z
" style="fill:#6d00ff;stroke:#6d00ff;stroke-linecap:round;"/>
   </g>
   <g id="patch_28">
    <path clip-path="url(#p58c333e260)" d="M 130.535716 181.994708 
L 159.913862 171.110202 
" style="fill:none;stroke:#6d00ff;stroke-linecap:round;"/>
    <path clip-path="url(#p58c333e260)" d="M 157.691023 170.867329 
L 159.913862 171.110202 
L 158.38586 172.742749 
L 157.691023 170.867329 
z
" style="fill:#6d00ff;stroke:#6d00ff;stroke-linecap:round;"/>
   </g>
   <g id="patch_29">
    <path clip-path="url(#p58c333e260)" d="M 127.803376 184.495229 
L 113.921501 213.8443 
" style="fill:none;stroke:#c9bf8b;stroke-linecap:round;"/>
    <path clip-path="url(#p58c333e260)" d="M 115.680631 212.463916 
L 113.921501 213.8443 
L 113.872672 211.608766 
L 115.680631 212.463916 
z
" style="fill:#c9bf8b;stroke:#c9bf8b;stroke-linecap:round;"/>
   </g>
   <g id="patch_30">
    <path clip-path="url(#p58c333e260)" d="M 83.874367 143.976359 
L 55.083471 145.70317 
" style="fill:none;stroke:#c13737;stroke-linecap:round;"/>
    <path clip-path="url(#p58c333e260)" d="M 57.139753 146.581636 
L 55.083471 145.70317 
L 57.020013 144.585224 
L 57.139753 146.581636 
z
" style="fill:#c13737;stroke:#c13737;stroke-linecap:round;"/>
   </g>
   <g id="patch_31">
    <path clip-path="url(#p58c333e260)" d="M 86.435506 145.776766 
L 92.725976 167.156436 
" style="fill:none;stroke:#000000;stroke-linecap:round;"/>
    <path clip-path="url(#p58c333e260)" d="M 93.120788 164.955499 
L 92.725976 167.156436 
L 91.202114 165.520025 
L 93.120788 164.955499 
z
" style="stroke:#000000;stroke-linecap:round;"/>
   </g>
   <g id="patch_32">
    <path clip-path="url(#p58c333e260)" d="M 87.00011 145.50606 
L 106.144689 173.461754 
" style="fill:none;stroke:#000000;stroke-linecap:round;"/>
    <path clip-path="url(#p58c333e260)" d="M 105.839711 171.246581 
L 106.144689 173.461754 
L 104.189565 172.376633 
L 105.839711 171.246581 
z
" style="stroke:#000000;stroke-linecap:round;"/>
   </g>
   <g id="patch_33">
    <path clip-path="url(#p58c333e260)" d="M 86.673355 142.025663 
L 95.855711 121.083295 
" style="fill:none;stroke:#c13737;stroke-linecap:round;"/>
    <path clip-path="url(#p58c333e260)" d="M 94.136766 122.513409 
L 95.855711 121.083295 
L 95.968435 123.31652 
L 94.136766 122.513409 
z
" style="fill:#c13737;stroke:#c13737;stroke-linecap:round;"/>
   </g>
   <g id="patch_34">
    <path clip-path="url(#p58c333e260)" d="M 175.600809 56.665952 
L 183.082877 83.664113 
" style="fill:none;stroke:#000000;stroke-linecap:round;"/>
    <path clip-path="url(#p58c333e260)" d="M 183.512422 81.46969 
L 183.082877 83.664113 
L 181.585065 82.003824 
L 183.512422 81.46969 
z
" style="stroke:#000000;stroke-linecap:round;"/>
   </g>
   <g id="patch_35">
    <path clip-path="url(#p58c333e260)" d="M 226.719551 92.252942 
L 246.935928 74.402748 
" style="fill:none;stroke:#00c32f;stroke-linecap:round;"/>
    <path clip-path="url(#p58c333e260)" d="M 244.774825 74.976887 
L 246.935928 74.402748 
L 246.098578 76.476114 
L 244.774825 74.976887 
z
" style="fill:#00c32f;stroke:#00c32f;stroke-linecap:round;"/>
   </g>
   <g id="patch_36">
    <path clip-path="url(#p58c333e260)" d="M 196.089623 53.874555 
L 206.389564 27.622187 
" style="fill:none;stroke:#c13737;stroke-linecap:round;"/>
    <path clip-path="url(#p58c333e260)" d="M 204.728174 29.118777 
L 206.389564 27.622187 
L 206.590002 29.849253 
L 204.728174 29.118777 
z
" style="fill:#c13737;stroke:#c13737;stroke-linecap:round;"/>
   </g>
   <g id="patch_37">
    <path clip-path="url(#p58c333e260)" d="M 147.936687 71.276093 
L 114.235449 76.540534 
" style="fill:none;stroke:#c13737;stroke-linecap:round;"/>
    <path clip-path="url(#p58c333e260)" d="M 116.365822 77.219877 
L 114.235449 76.540534 
L 116.057148 75.24384 
L 116.365822 77.219877 
z
" style="fill:#c13737;stroke:#c13737;stroke-linecap:round;"/>
   </g>
   <g id="patch_38">
    <path clip-path="url(#p58c333e260)" d="M 182.101874 111.999311 
L 213.04164 115.433469 
" style="fill:none;stroke:#0c2aec;stroke-linecap:round;"/>
    <path clip-path="url(#p58c333e260)" d="M 211.164165 114.218938 
L 213.04164 115.433469 
L 210.94353 116.206731 
L 211.164165 114.218938 
z
" style="fill:#0c2aec;stroke:#0c2aec;stroke-linecap:round;"/>
   </g>
   <g id="patch_39">
    <path clip-path="url(#p58c333e260)" d="M 186.68301 114.532325 
L 183.869587 87.809939 
" style="fill:none;stroke:#6d00ff;stroke-linecap:round;"/>
    <path clip-path="url(#p58c333e260)" d="M 183.084493 89.90365 
L 183.869587 87.809939 
L 185.073499 89.694241 
L 183.084493 89.90365 
z
" style="fill:#6d00ff;stroke:#6d00ff;stroke-linecap:round;"/>
   </g>
   <g id="patch_40">
    <path clip-path="url(#p58c333e260)" d="M 185.665068 118.097436 
L 168.966235 139.522236 
" style="fill:none;stroke:#6d00ff;stroke-linecap:round;"/>
    <path clip-path="url(#p58c333e260)" d="M 170.984452 138.559531 
L 168.966235 139.522236 
L 169.407 137.33004 
L 170.984452 138.559531 
z
" style="fill:#6d00ff;stroke:#6d00ff;stroke-linecap:round;"/>
   </g>
   <g id="patch_41">
    <path clip-path="url(#p58c333e260)" d="M 174.218517 181.269081 
L 147.048449 193.241041 
" style="fill:none;stroke:#0c2aec;stroke-linecap:round;"/>
    <path clip-path="url(#p58c333e260)" d="M 149.281876 193.349699 
L 147.048449 193.241041 
L 148.475432 191.519495 
L 149.281876 193.349699 
z
" style="fill:#0c2aec;stroke:#0c2aec;stroke-linecap:round;"/>
   </g>
   <g id="patch_42">
    <path clip-path="url(#p58c333e260)" d="M 148.620424 231.614932 
L 157.098879 258.737433 
" style="fill:none;stroke:#c9bf8b;stroke-linecap:round;"/>
    <path clip-path="url(#p58c333e260)" d="M 157.456611 256.530166 
L 157.098879 258.737433 
L 155.547705 257.126888 
L 157.456611 256.530166 
z
" style="fill:#c9bf8b;stroke:#c9bf8b;stroke-linecap:round;"/>
   </g>
   <g id="patch_43">
    <path clip-path="url(#p58c333e260)" d="M 146.308831 230.735629 
L 124.70328 243.674866 
" style="fill:none;stroke:#c9bf8b;stroke-linecap:round;"/>
    <path clip-path="url(#p58c333e260)" d="M 126.932901 243.505196 
L 124.70328 243.674866 
L 125.905317 241.789367 
L 126.932901 243.505196 
z
" style="fill:#c9bf8b;stroke:#c9bf8b;stroke-linecap:round;"/>
   </g>
   <g id="patch_44">
    <path clip-path="url(#p58c333e260)" d="M 154.305473 111.754101 
L 127.789041 104.107253 
" style="fill:none;stroke:#0c2aec;stroke-linecap:round;"/>
    <path clip-path="url(#p58c333e260)" d="M 129.433639 105.622276 
L 127.789041 104.107253 
L 129.987818 103.700588 
L 129.433639 105.622276 
z
" style="fill:#0c2aec;stroke:#0c2aec;stroke-linecap:round;"/>
   </g>
   <g id="patch_45">
    <path clip-path="url(#p58c333e260)" d="M 212.542578 99.143958 
L 233.123603 123.01884 
" style="fill:none;stroke:#000000;stroke-linecap:round;"/>
    <path clip-path="url(#p58c333e260)" d="M 232.575174 120.851071 
L 233.123603 123.01884 
L 231.06033 122.156922 
L 232.575174 120.851071 
z
" style="stroke:#000000;stroke-linecap:round;"/>
   </g>
   <g id="patch_46">
    <path clip-path="url(#p58c333e260)" d="M 227.55117 152.927908 
L 258.776241 164.448848 
" style="fill:none;stroke:#0c2aec;stroke-linecap:round;"/>
    <path clip-path="url(#p58c333e260)" d="M 257.24604 162.818362 
L 258.776241 164.448848 
L 256.553731 164.694717 
L 257.24604 162.818362 
z
" style="fill:#0c2aec;stroke:#0c2aec;stroke-linecap:round;"/>
   </g>
   <g id="patch_47">
    <path clip-path="url(#p58c333e260)" d="M 156.582909 163.737065 
L 130.410304 181.50073 
" style="fill:none;stroke:#0c2aec;stroke-linecap:round;"/>
    <path clip-path="url(#p58c333e260)" d="M 132.626729 181.204989 
L 130.410304 181.50073 
L 131.503566 179.550146 
L 132.626729 181.204989 
z
" style="fill:#0c2aec;stroke:#0c2aec;stroke-linecap:round;"/>
   </g>
   <g id="patch_48">
    <path clip-path="url(#p58c333e260)" d="M 229.518122 169.354837 
L 252.13818 189.028812 
" style="fill:none;stroke:#0c2aec;stroke-linecap:round;"/>
    <path clip-path="url(#p58c333e260)" d="M 251.285374 186.961755 
L 252.13818 189.028812 
L 249.972851 188.470822 
L 251.285374 186.961755 
z
" style="fill:#0c2aec;stroke:#0c2aec;stroke-linecap:round;"/>
   </g>
   <g id="patch_49">
    <path clip-path="url(#p58c333e260)" d="M 85.336146 107.22793 
L 85.839694 141.741623 
" style="fill:none;stroke:#000000;stroke-linecap:round;"/>
    <path clip-path="url(#p58c333e260)" d="M 86.810411 139.727248 
L 85.839694 141.741623 
L 84.810624 139.756424 
L 86.810411 139.727248 
z
" style="stroke:#000000;stroke-linecap:round;"/>
   </g>
   <g id="patch_50">
    <path clip-path="url(#p58c333e260)" d="M 50.968969 145.787908 
L 24.817898 145.236224 
" style="fill:none;stroke:#c13737;stroke-linecap:round;"/>
    <path clip-path="url(#p58c333e260)" d="M 26.796362 146.278184 
L 24.817898 145.236224 
L 26.838545 144.278629 
L 26.796362 146.278184 
z
" style="fill:#c13737;stroke:#c13737;stroke-linecap:round;"/>
   </g>
   <g id="patch_51">
    <path clip-path="url(#p58c333e260)" d="M 217.584404 86.710745 
L 185.763588 85.764973 
" style="fill:none;stroke:#6d00ff;stroke-linecap:round;"/>
    <path clip-path="url(#p58c333e260)" d="M 187.732997 86.823949 
L 185.763588 85.764973 
L 187.792414 84.824832 
L 187.732997 86.823949 
z
" style="fill:#6d00ff;stroke:#6d00ff;stroke-linecap:round;"/>
   </g>
   <g id="patch_52">
    <path clip-path="url(#p58c333e260)" d="M 220.314387 88.632134 
L 233.72945 122.654335 
" style="fill:none;stroke:#6d00ff;stroke-linecap:round;"/>
    <path clip-path="url(#p58c333e260)" d="M 233.926108 120.426931 
L 233.72945 122.654335 
L 232.065522 121.160566 
L 233.926108 120.426931 
z
" style="fill:#6d00ff;stroke:#6d00ff;stroke-linecap:round;"/>
   </g>
   <g id="patch_53">
    <path clip-path="url(#p58c333e260)" d="M 95.190828 169.900108 
L 126.676978 181.934118 
" style="fill:none;stroke:#000000;stroke-linecap:round;"/>
    <path clip-path="url(#p58c333e260)" d="M 125.165792 180.285993 
L 126.676978 181.934118 
L 124.451766 182.154192 
L 125.165792 180.285993 
z
" style="stroke:#000000;stroke-linecap:round;"/>
   </g>
   <g id="patch_54">
    <path clip-path="url(#p58c333e260)" d="M 163.874589 170.690201 
L 197.336758 176.045354 
" style="fill:none;stroke:#6d00ff;stroke-linecap:round;"/>
    <path clip-path="url(#p58c333e260)" d="M 195.519913 174.741869 
L 197.336758 176.045354 
L 195.203863 176.716739 
L 195.519913 174.741869 
z
" style="fill:#6d00ff;stroke:#6d00ff;stroke-linecap:round;"/>
   </g>
   <g id="patch_55">
    <path clip-path="url(#p58c333e260)" d="M 162.288082 168.411324 
L 167.255566 143.267628 
" style="fill:none;stroke:#6d00ff;stroke-linecap:round;"/>
    <path clip-path="url(#p58c333e260)" d="M 165.886894 145.035886 
L 167.255566 143.267628 
L 167.848969 145.423521 
L 165.886894 145.035886 
z
" style="fill:#6d00ff;stroke:#6d00ff;stroke-linecap:round;"/>
   </g>
   <g id="patch_56">
    <path clip-path="url(#p58c333e260)" d="M 109.126735 176.100628 
L 143.220488 193.148303 
" style="fill:none;stroke:#000000;stroke-linecap:round;"/>
    <path clip-path="url(#p58c333e260)" d="M 141.878881 191.359423 
L 143.220488 193.148303 
L 140.98442 193.148261 
L 141.878881 191.359423 
z
" style="stroke:#000000;stroke-linecap:round;"/>
   </g>
   <g id="patch_57">
    <path clip-path="url(#p58c333e260)" d="M 176.397769 172.208844 
L 197.339056 176.001724 
" style="fill:none;stroke:#6d00ff;stroke-linecap:round;"/>
    <path clip-path="url(#p58c333e260)" d="M 195.549295 174.661293 
L 197.339056 176.001724 
L 195.192855 176.629275 
L 195.549295 174.661293 
z
" style="fill:#6d00ff;stroke:#6d00ff;stroke-linecap:round;"/>
   </g>
   <g id="patch_58">
    <path clip-path="url(#p58c333e260)" d="M 173.99952 169.902335 
L 168.122468 143.260196 
" style="fill:none;stroke:#6d00ff;stroke-linecap:round;"/>
    <path clip-path="url(#p58c333e260)" d="M 167.576772 145.428655 
L 168.122468 143.260196 
L 169.529818 144.997828 
L 167.576772 145.428655 
z
" style="fill:#6d00ff;stroke:#6d00ff;stroke-linecap:round;"/>
   </g>
   <g id="patch_59">
    <path clip-path="url(#p58c333e260)" d="M 98.467613 118.198125 
L 123.889005 104.525449 
" style="fill:none;stroke:#c13737;stroke-linecap:round;"/>
    <path clip-path="url(#p58c333e260)" d="M 121.65393 104.592103 
L 123.889005 104.525449 
L 122.601283 106.353501 
L 121.65393 104.592103 
z
" style="fill:#c13737;stroke:#c13737;stroke-linecap:round;"/>
   </g>
   <g id="patch_60">
    <path clip-path="url(#p58c333e260)" d="M 195.396851 156.746273 
L 198.99947 174.301847 
" style="fill:none;stroke:#000000;stroke-linecap:round;"/>
    <path clip-path="url(#p58c333e260)" d="M 199.57701 172.141651 
L 198.99947 174.301847 
L 197.617838 172.543697 
L 199.57701 172.141651 
z
" style="stroke:#000000;stroke-linecap:round;"/>
   </g>
   <g id="patch_61">
    <path clip-path="url(#p58c333e260)" d="M 159.424215 104.783096 
L 181.98579 87.011156 
" style="fill:none;stroke:#6d00ff;stroke-linecap:round;"/>
    <path clip-path="url(#p58c333e260)" d="M 179.795887 87.463179 
L 181.98579 87.011156 
L 181.033466 89.034292 
L 179.795887 87.463179 
z
" style="fill:#6d00ff;stroke:#6d00ff;stroke-linecap:round;"/>
   </g>
   <g id="patch_62">
    <path clip-path="url(#p58c333e260)" d="M 158.390825 107.948411 
L 167.097113 139.151937 
" style="fill:none;stroke:#6d00ff;stroke-linecap:round;"/>
    <path clip-path="url(#p58c333e260)" d="M 167.522821 136.956766 
L 167.097113 139.151937 
L 165.596402 137.494268 
L 167.522821 136.956766 
z
" style="fill:#6d00ff;stroke:#6d00ff;stroke-linecap:round;"/>
   </g>
   <g id="patch_63">
    <path clip-path="url(#p58c333e260)" d="M 230.658881 157.467331 
L 201.240077 175.28114 
" style="fill:none;stroke:#6d00ff;stroke-linecap:round;"/>
    <path clip-path="url(#p58c333e260)" d="M 203.468845 175.100608 
L 201.240077 175.28114 
L 202.432912 173.389806 
L 203.468845 175.100608 
z
" style="fill:#6d00ff;stroke:#6d00ff;stroke-linecap:round;"/>
   </g>
   <g id="patch_64">
    <path clip-path="url(#p58c333e260)" d="M 232.501743 154.440397 
L 234.362877 126.737927 
" style="fill:none;stroke:#6d00ff;stroke-linecap:round;"/>
    <path clip-path="url(#p58c333e260)" d="M 233.231063 128.666396 
L 234.362877 126.737927 
L 235.226565 128.80046 
L 233.231063 128.666396 
z
" style="fill:#6d00ff;stroke:#6d00ff;stroke-linecap:round;"/>
   </g>
   <g id="patch_65">
    <path clip-path="url(#p58c333e260)" d="M 111.436671 216.989521 
L 88.869485 234.569775 
" style="fill:none;stroke:#c9bf8b;stroke-linecap:round;"/>
    <path clip-path="url(#p58c333e260)" d="M 91.061791 234.129552 
L 88.869485 234.569775 
L 89.83269 232.551797 
L 91.061791 234.129552 
z
" style="fill:#c9bf8b;stroke:#c9bf8b;stroke-linecap:round;"/>
   </g>
   <g id="patch_66">
    <path clip-path="url(#p58c333e260)" d="M 113.660077 217.653743 
L 122.200154 242.756507 
" style="fill:none;stroke:#c9bf8b;stroke-linecap:round;"/>
    <path clip-path="url(#p58c333e260)" d="M 122.502715 240.541003 
L 122.200154 242.756507 
L 120.609287 241.185156 
L 122.502715 240.541003 
z
" style="fill:#c9bf8b;stroke:#c9bf8b;stroke-linecap:round;"/>
   </g>
   <g id="PathCollection_1">
    <path clip-path="url(#p58c333e260)" d="M 169.368605 31.507495 
C 171.703602 31.507495 173.943277 30.579791 175.594369 28.928699 
C 177.245461 27.277607 178.173165 25.037932 178.173165 22.702935 
C 178.173165 20.367938 177.245461 18.128263 175.594369 16.477171 
C 173.943277 14.826079 171.703602 13.898375 169.368605 13.898375 
C 167.033608 13.898375 164.793933 14.826079 163.142841 16.477171 
C 161.491749 18.128263 160.564045 20.367938 160.564045 22.702935 
C 160.564045 25.037932 161.491749 27.277607 163.142841 28.928699 
C 164.793933 30.579791 167.033608 31.507495 169.368605 31.507495 
z
" style="fill:#e7a529;"/>
    <path clip-path="url(#p58c333e260)" d="M 183.647664 85.702084 
C 183.647664 85.702084 183.647664 85.702084 183.647664 85.702084 
C 183.647664 85.702084 183.647664 85.702084 183.647664 85.702084 
C 183.647664 85.702084 183.647664 85.702084 183.647664 85.702084 
C 183.647664 85.702084 183.647664 85.702084 183.647664 85.702084 
C 183.647664 85.702084 183.647664 85.702084 183.647664 85.702084 
C 183.647664 85.702084 183.647664 85.702084 183.647664 85.702084 
C 183.647664 85.702084 183.647664 85.702084 183.647664 85.702084 
C 183.647664 85.702084 183.647664 85.702084 183.647664 85.702084 
z
" style="fill:#d0d1df;"/>
    <path clip-path="url(#p58c333e260)" d="M 234.505072 124.621403 
C 234.505072 124.621403 234.505072 124.621403 234.505072 124.621403 
C 234.505072 124.621403 234.505072 124.621403 234.505072 124.621403 
C 234.505072 124.621403 234.505072 124.621403 234.505072 124.621403 
C 234.505072 124.621403 234.505072 124.621403 234.505072 124.621403 
C 234.505072 124.621403 234.505072 124.621403 234.505072 124.621403 
C 234.505072 124.621403 234.505072 124.621403 234.505072 124.621403 
C 234.505072 124.621403 234.505072 124.621403 234.505072 124.621403 
C 234.505072 124.621403 234.505072 124.621403 234.505072 124.621403 
z
" style="fill:#d3b237;"/>
    <path clip-path="url(#p58c333e260)" d="M 248.521879 76.387394 
C 249.419584 76.387394 250.280642 76.030732 250.915416 75.395958 
C 251.550189 74.761185 251.906851 73.900126 251.906851 73.002421 
C 251.906851 72.104716 251.550189 71.243658 250.915416 70.608884 
C 250.280642 69.974111 249.419584 69.617449 248.521879 69.617449 
C 247.624174 69.617449 246.763115 69.974111 246.128342 70.608884 
C 245.493569 71.243658 245.136907 72.104716 245.136907 73.002421 
C 245.136907 73.900126 245.493569 74.761185 246.128342 75.395958 
C 246.763115 76.030732 247.624174 76.387394 248.521879 76.387394 
z
" style="fill:#689285;"/>
    <path clip-path="url(#p58c333e260)" d="M 207.164274 27.553298 
C 207.669666 27.553298 208.154428 27.352503 208.511794 26.995136 
C 208.869161 26.63777 209.069955 26.153009 209.069955 25.647616 
C 209.069955 25.142223 208.869161 24.657462 208.511794 24.300095 
C 208.154428 23.942729 207.669666 23.741934 207.164274 23.741934 
C 206.658881 23.741934 206.17412 23.942729 205.816753 24.300095 
C 205.459386 24.657462 205.258592 25.142223 205.258592 25.647616 
C 205.258592 26.153009 205.459386 26.63777 205.816753 26.995136 
C 206.17412 27.352503 206.658881 27.553298 207.164274 27.553298 
z
" style="fill:#44aaaa;"/>
    <path clip-path="url(#p58c333e260)" d="M 112.138854 78.347088 
C 112.531102 78.347088 112.907337 78.191247 113.184699 77.913885 
C 113.46206 77.636524 113.617902 77.260289 113.617902 76.868041 
C 113.617902 76.475793 113.46206 76.099557 113.184699 75.822196 
C 112.907337 75.544835 112.531102 75.388993 112.138854 75.388993 
C 111.746606 75.388993 111.370371 75.544835 111.09301 75.822196 
C 110.815648 76.099557 110.659807 76.475793 110.659807 76.868041 
C 110.659807 77.260289 110.815648 77.636524 111.09301 77.913885 
C 111.370371 78.191247 111.746606 78.347088 112.138854 78.347088 
z
" style="fill:#117777;"/>
    <path clip-path="url(#p58c333e260)" d="M 167.665921 144.286718 
C 168.487033 144.286718 169.274625 143.960486 169.855239 143.379873 
C 170.435852 142.799259 170.762084 142.011667 170.762084 141.190555 
C 170.762084 140.369443 170.435852 139.581851 169.855239 139.001237 
C 169.274625 138.420624 168.487033 138.094392 167.665921 138.094392 
C 166.844809 138.094392 166.057217 138.420624 165.476603 139.001237 
C 164.89599 139.581851 164.569758 140.369443 164.569758 141.190555 
C 164.569758 142.011667 164.89599 142.799259 165.476603 143.379873 
C 166.057217 143.960486 166.844809 144.286718 167.665921 144.286718 
z
" style="fill:#6d1df1;"/>
    <path clip-path="url(#p58c333e260)" d="M 215.149274 117.698444 
C 215.687912 117.698444 216.204561 117.484441 216.585435 117.103567 
C 216.966309 116.722693 217.180312 116.206044 217.180312 115.667406 
C 217.180312 115.128768 216.966309 114.61212 216.585435 114.231245 
C 216.204561 113.850371 215.687912 113.636368 215.149274 113.636368 
C 214.610636 113.636368 214.093988 113.850371 213.713113 114.231245 
C 213.332239 114.61212 213.118236 115.128768 213.118236 115.667406 
C 213.118236 116.206044 213.332239 116.722693 213.713113 117.103567 
C 214.093988 117.484441 214.610636 117.698444 215.149274 117.698444 
z
" style="fill:#eeb29f;"/>
    <path clip-path="url(#p58c333e260)" d="M 199.425869 176.379687 
C 199.425869 176.379687 199.425869 176.379687 199.425869 176.379687 
C 199.425869 176.379687 199.425869 176.379687 199.425869 176.379687 
C 199.425869 176.379687 199.425869 176.379687 199.425869 176.379687 
C 199.425869 176.379687 199.425869 176.379687 199.425869 176.379687 
C 199.425869 176.379687 199.425869 176.379687 199.425869 176.379687 
C 199.425869 176.379687 199.425869 176.379687 199.425869 176.379687 
C 199.425869 176.379687 199.425869 176.379687 199.425869 176.379687 
C 199.425869 176.379687 199.425869 176.379687 199.425869 176.379687 
z
" style="fill:#d0d1df;"/>
    <path clip-path="url(#p58c333e260)" d="M 145.112209 194.178691 
C 145.134614 194.178691 145.156105 194.169789 145.171948 194.153947 
C 145.187791 194.138104 145.196693 194.116613 145.196693 194.094208 
C 145.196693 194.071802 145.187791 194.050311 145.171948 194.034468 
C 145.156105 194.018626 145.134614 194.009724 145.112209 194.009724 
C 145.089804 194.009724 145.068313 194.018626 145.05247 194.034468 
C 145.036627 194.050311 145.027725 194.071802 145.027725 194.094208 
C 145.027725 194.116613 145.036627 194.138104 145.05247 194.153947 
C 145.068313 194.169789 145.089804 194.178691 145.112209 194.178691 
z
" style="fill:#525fb7;"/>
    <path clip-path="url(#p58c333e260)" d="M 157.731641 262.274998 
C 158.13299 262.274998 158.517956 262.11554 158.801752 261.831744 
C 159.085549 261.547947 159.245007 261.162981 159.245007 260.761632 
C 159.245007 260.360283 159.085549 259.975317 158.801752 259.691521 
C 158.517956 259.407724 158.13299 259.248266 157.731641 259.248266 
C 157.330292 259.248266 156.945326 259.407724 156.661529 259.691521 
C 156.377733 259.975317 156.218275 260.360283 156.218275 260.761632 
C 156.218275 261.162981 156.377733 261.547947 156.661529 261.831744 
C 156.945326 262.11554 157.330292 262.274998 157.731641 262.274998 
z
" style="fill:#e0e3e1;"/>
    <path clip-path="url(#p58c333e260)" d="M 122.883377 244.764778 
C 122.883377 244.764778 122.883377 244.764778 122.883377 244.764778 
C 122.883377 244.764778 122.883377 244.764778 122.883377 244.764778 
C 122.883377 244.764778 122.883377 244.764778 122.883377 244.764778 
C 122.883377 244.764778 122.883377 244.764778 122.883377 244.764778 
C 122.883377 244.764778 122.883377 244.764778 122.883377 244.764778 
C 122.883377 244.764778 122.883377 244.764778 122.883377 244.764778 
C 122.883377 244.764778 122.883377 244.764778 122.883377 244.764778 
C 122.883377 244.764778 122.883377 244.764778 122.883377 244.764778 
z
" style="fill:#040404;"/>
    <path clip-path="url(#p58c333e260)" d="M 125.756411 104.111935 
C 125.913108 104.111935 126.063407 104.049678 126.174208 103.938877 
C 126.285009 103.828076 126.347265 103.677777 126.347265 103.52108 
C 126.347265 103.364384 126.285009 103.214084 126.174208 103.103283 
C 126.063407 102.992482 125.913108 102.930226 125.756411 102.930226 
C 125.599715 102.930226 125.449415 102.992482 125.338614 103.103283 
C 125.227813 103.214084 125.165557 103.364384 125.165557 103.52108 
C 125.165557 103.677777 125.227813 103.828076 125.338614 103.938877 
C 125.449415 104.049678 125.599715 104.111935 125.756411 104.111935 
z
" style="fill:#f53f06;"/>
    <path clip-path="url(#p58c333e260)" d="M 260.761632 165.384247 
C 260.815431 165.384247 260.867034 165.362872 260.905076 165.324831 
C 260.943118 165.286789 260.964493 165.235186 260.964493 165.181386 
C 260.964493 165.127587 260.943118 165.075984 260.905076 165.037942 
C 260.867034 164.9999 260.815431 164.978526 260.761632 164.978526 
C 260.707833 164.978526 260.65623 164.9999 260.618188 165.037942 
C 260.580146 165.075984 260.558771 165.127587 260.558771 165.181386 
C 260.558771 165.235186 260.580146 165.286789 260.618188 165.324831 
C 260.65623 165.362872 260.707833 165.384247 260.761632 165.384247 
z
" style="fill:#771124;"/>
    <path clip-path="url(#p58c333e260)" d="M 128.656845 182.776527 
C 128.679574 182.776527 128.701375 182.767496 128.717446 182.751425 
C 128.733518 182.735353 128.742548 182.713552 128.742548 182.690824 
C 128.742548 182.668095 128.733518 182.646294 128.717446 182.630223 
C 128.701375 182.614151 128.679574 182.605121 128.656845 182.605121 
C 128.634117 182.605121 128.612316 182.614151 128.596244 182.630223 
C 128.580172 182.646294 128.571142 182.668095 128.571142 182.690824 
C 128.571142 182.713552 128.580172 182.735353 128.596244 182.751425 
C 128.612316 182.767496 128.634117 182.776527 128.656845 182.776527 
z
" style="fill:#77aadd;"/>
    <path clip-path="url(#p58c333e260)" d="M 253.735615 190.448013 
C 253.743523 190.448013 253.751109 190.444871 253.756701 190.439279 
C 253.762293 190.433687 253.765435 190.426101 253.765435 190.418193 
C 253.765435 190.410285 253.762293 190.402699 253.756701 190.397107 
C 253.751109 190.391515 253.743523 190.388373 253.735615 190.388373 
C 253.727706 190.388373 253.72012 190.391515 253.714528 190.397107 
C 253.708936 190.402699 253.705794 190.410285 253.705794 190.418193 
C 253.705794 190.426101 253.708936 190.433687 253.714528 190.439279 
C 253.72012 190.444871 253.727706 190.448013 253.735615 190.448013 
z
" style="fill:#cd0d3c;"/>
    <path clip-path="url(#p58c333e260)" d="M 85.870551 143.856633 
C 85.870551 143.856633 85.870551 143.856633 85.870551 143.856633 
C 85.870551 143.856633 85.870551 143.856633 85.870551 143.856633 
C 85.870551 143.856633 85.870551 143.856633 85.870551 143.856633 
C 85.870551 143.856633 85.870551 143.856633 85.870551 143.856633 
C 85.870551 143.856633 85.870551 143.856633 85.870551 143.856633 
C 85.870551 143.856633 85.870551 143.856633 85.870551 143.856633 
C 85.870551 143.856633 85.870551 143.856633 85.870551 143.856633 
C 85.870551 143.856633 85.870551 143.856633 85.870551 143.856633 
z
" style="fill:#d0d1df;"/>
    <path clip-path="url(#p58c333e260)" d="M 22.702935 145.216152 
C 22.709445 145.216152 22.715688 145.213566 22.720291 145.208963 
C 22.724894 145.20436 22.727481 145.198116 22.727481 145.191607 
C 22.727481 145.185097 22.724894 145.178853 22.720291 145.17425 
C 22.715688 145.169647 22.709445 145.167061 22.702935 145.167061 
C 22.696425 145.167061 22.690181 145.169647 22.685578 145.17425 
C 22.680975 145.178853 22.678389 145.185097 22.678389 145.191607 
C 22.678389 145.198116 22.680975 145.20436 22.685578 145.208963 
C 22.690181 145.213566 22.696425 145.216152 22.702935 145.216152 
z
" style="fill:#a3604b;"/>
    <path clip-path="url(#p58c333e260)" d="M 87.19747 236.00194 
C 87.23185 236.00194 87.264826 235.98828 87.289136 235.963971 
C 87.313445 235.939661 87.327104 235.906685 87.327104 235.872305 
C 87.327104 235.837926 87.313445 235.80495 87.289136 235.78064 
C 87.264826 235.75633 87.23185 235.742671 87.19747 235.742671 
C 87.163091 235.742671 87.130115 235.75633 87.105805 235.78064 
C 87.081495 235.80495 87.067836 235.837926 87.067836 235.872305 
C 87.067836 235.906685 87.081495 235.939661 87.105805 235.963971 
C 87.130115 235.98828 87.163091 236.00194 87.19747 236.00194 
z
" style="fill:#e0e3e1;"/>
   </g>
   <g id="PathCollection_2">
    <defs>
     <path d="M 0 2.236068 
L 2.236068 -0 
L 0 -2.236068 
L -2.236068 0 
z
" id="C0_0_ac3f30b297"/>
    </defs>
    <g clip-path="url(#p58c333e260)">
     <use x="175.067703" xlink:href="#C0_0_ac3f30b297" y="54.742303"/>
    </g>
    <g clip-path="url(#p58c333e260)">
     <use x="225.220552" xlink:href="#C0_0_ac3f30b297" y="93.576494"/>
    </g>
    <g clip-path="url(#p58c333e260)">
     <use x="195.358998" xlink:href="#C0_0_ac3f30b297" y="55.736762"/>
    </g>
    <g clip-path="url(#p58c333e260)">
     <use x="149.914952" xlink:href="#C0_0_ac3f30b297" y="70.96707"/>
    </g>
    <g clip-path="url(#p58c333e260)">
     <use x="180.113128" xlink:href="#C0_0_ac3f30b297" y="111.77857"/>
    </g>
    <g clip-path="url(#p58c333e260)">
     <use x="186.892549" xlink:href="#C0_0_ac3f30b297" y="116.522563"/>
    </g>
    <g clip-path="url(#p58c333e260)">
     <use x="176.050171" xlink:href="#C0_0_ac3f30b297" y="180.461998"/>
    </g>
    <g clip-path="url(#p58c333e260)">
     <use x="148.024386" xlink:href="#C0_0_ac3f30b297" y="229.70821"/>
    </g>
    <g clip-path="url(#p58c333e260)">
     <use x="156.228582" xlink:href="#C0_0_ac3f30b297" y="112.30869"/>
    </g>
    <g clip-path="url(#p58c333e260)">
     <use x="211.238972" xlink:href="#C0_0_ac3f30b297" y="97.631718"/>
    </g>
    <g clip-path="url(#p58c333e260)">
     <use x="225.670686" xlink:href="#C0_0_ac3f30b297" y="152.234076"/>
    </g>
    <g clip-path="url(#p58c333e260)">
     <use x="158.240489" xlink:href="#C0_0_ac3f30b297" y="162.612046"/>
    </g>
    <g clip-path="url(#p58c333e260)">
     <use x="228.007473" xlink:href="#C0_0_ac3f30b297" y="168.040939"/>
    </g>
    <g clip-path="url(#p58c333e260)">
     <use x="85.306904" xlink:href="#C0_0_ac3f30b297" y="105.223656"/>
    </g>
    <g clip-path="url(#p58c333e260)">
     <use x="52.967652" xlink:href="#C0_0_ac3f30b297" y="145.830072"/>
    </g>
    <g clip-path="url(#p58c333e260)">
     <use x="219.580167" xlink:href="#C0_0_ac3f30b297" y="86.770063"/>
    </g>
    <g clip-path="url(#p58c333e260)">
     <use x="93.323218" xlink:href="#C0_0_ac3f30b297" y="169.186307"/>
    </g>
    <g clip-path="url(#p58c333e260)">
     <use x="161.900281" xlink:href="#C0_0_ac3f30b297" y="170.37424"/>
    </g>
    <g clip-path="url(#p58c333e260)">
     <use x="107.340025" xlink:href="#C0_0_ac3f30b297" y="175.207232"/>
    </g>
    <g clip-path="url(#p58c333e260)">
     <use x="174.429686" xlink:href="#C0_0_ac3f30b297" y="171.852385"/>
    </g>
    <g clip-path="url(#p58c333e260)">
     <use x="96.705101" xlink:href="#C0_0_ac3f30b297" y="119.146077"/>
    </g>
    <g clip-path="url(#p58c333e260)">
     <use x="194.994976" xlink:href="#C0_0_ac3f30b297" y="154.787939"/>
    </g>
    <g clip-path="url(#p58c333e260)">
     <use x="157.852982" xlink:href="#C0_0_ac3f30b297" y="106.02077"/>
    </g>
    <g clip-path="url(#p58c333e260)">
     <use x="232.36791" xlink:href="#C0_0_ac3f30b297" y="156.432472"/>
    </g>
    <g clip-path="url(#p58c333e260)">
     <use x="113.015638" xlink:href="#C0_0_ac3f30b297" y="215.759476"/>
    </g>
   </g>
  </g>
 </g>
 <defs>
  <clipPath id="p58c333e260">
   <rect height="261.864567" width="261.864567" x="10.8" y="10.8"/>
  </clipPath>
 </defs>
</svg>
