<?xml version="1.0" encoding="utf-8" standalone="no"?>
<!DOCTYPE svg PUBLIC "-//W3C//DTD SVG 1.1//EN"
  "http://www.w3.org/Graphics/SVG/1.1/DTD/svg11.dtd">
<svg height="708.48pt" version="1.1" viewBox="0 0 509.76 708.48" width="509.76pt" xmlns="http://www.w3.org/2000/svg" xmlns:xlink="http://www.w3.org/1999/xlink">
 <metadata>
  <rdf:RDF xmlns:cc="http://creativecommons.org/ns#" xmlns:dc="http://purl.org/dc/elements/1.1/" xmlns:rdf="http://www.w3.org/1999/02/22-rdf-syntax-ns#">
   <cc:Work>
    <dc:type rdf:resource="http://purl.org/dc/dcmitype/StillImage"/>
    <dc:date>2021-07-28T11:10:25.659783</dc:date>
    <dc:format>image/svg+xml</dc:format>
    <dc:creator>
     <cc:Agent>
      <dc:title>Matplotlib v3.4.1, https://matplotlib.org/</dc:title>
     </cc:Agent>
    </dc:creator>
   </cc:Work>
  </rdf:RDF>
 </metadata>
 <defs>
  <style type="text/css">*{stroke-linecap:butt;stroke-linejoin:round;}</style>
 </defs>
 <g id="figure_1">
  <g id="patch_1">
   <path d="M 0 708.48 
L 509.76 708.48 
L 509.76 0 
L 0 0 
z
" style="fill:#ffffff;"/>
  </g>
  <g id="axes_1">
   <g id="patch_2">
    <path d="M 41.33 666.52 
L 498.96 666.52 
L 498.96 10.8 
L 41.33 10.8 
z
" style="fill:#ffffff;"/>
   </g>
   <g id="matplotlib.axis_1">
    <g id="xtick_1">
     <g id="line2d_1">
      <defs>
       <path d="M 0 0 
L 0 3.5 
" id="mba28466bf4" style="stroke:#000000;stroke-width:0.8;"/>
      </defs>
      <g>
       <use style="stroke:#000000;stroke-width:0.8;" x="41.33" xlink:href="#mba28466bf4" y="666.52"/>
      </g>
     </g>
     <g id="text_1">
      <!-- 0.0 -->
      <g transform="translate(33.378438 681.118438)scale(0.1 -0.1)">
       <defs>
        <path d="M 2034 4250 
Q 1547 4250 1301 3770 
Q 1056 3291 1056 2328 
Q 1056 1369 1301 889 
Q 1547 409 2034 409 
Q 2525 409 2770 889 
Q 3016 1369 3016 2328 
Q 3016 3291 2770 3770 
Q 2525 4250 2034 4250 
z
M 2034 4750 
Q 2819 4750 3233 4129 
Q 3647 3509 3647 2328 
Q 3647 1150 3233 529 
Q 2819 -91 2034 -91 
Q 1250 -91 836 529 
Q 422 1150 422 2328 
Q 422 3509 836 4129 
Q 1250 4750 2034 4750 
z
" id="DejaVuSans-30" transform="scale(0.015625)"/>
        <path d="M 684 794 
L 1344 794 
L 1344 0 
L 684 0 
L 684 794 
z
" id="DejaVuSans-2e" transform="scale(0.015625)"/>
       </defs>
       <use xlink:href="#DejaVuSans-30"/>
       <use x="63.623047" xlink:href="#DejaVuSans-2e"/>
       <use x="95.410156" xlink:href="#DejaVuSans-30"/>
      </g>
     </g>
    </g>
    <g id="xtick_2">
     <g id="line2d_2">
      <g>
       <use style="stroke:#000000;stroke-width:0.8;" x="134.707878" xlink:href="#mba28466bf4" y="666.52"/>
      </g>
     </g>
     <g id="text_2">
      <!-- 0.2 -->
      <g transform="translate(126.756315 681.118438)scale(0.1 -0.1)">
       <defs>
        <path d="M 1228 531 
L 3431 531 
L 3431 0 
L 469 0 
L 469 531 
Q 828 903 1448 1529 
Q 2069 2156 2228 2338 
Q 2531 2678 2651 2914 
Q 2772 3150 2772 3378 
Q 2772 3750 2511 3984 
Q 2250 4219 1831 4219 
Q 1534 4219 1204 4116 
Q 875 4013 500 3803 
L 500 4441 
Q 881 4594 1212 4672 
Q 1544 4750 1819 4750 
Q 2544 4750 2975 4387 
Q 3406 4025 3406 3419 
Q 3406 3131 3298 2873 
Q 3191 2616 2906 2266 
Q 2828 2175 2409 1742 
Q 1991 1309 1228 531 
z
" id="DejaVuSans-32" transform="scale(0.015625)"/>
       </defs>
       <use xlink:href="#DejaVuSans-30"/>
       <use x="63.623047" xlink:href="#DejaVuSans-2e"/>
       <use x="95.410156" xlink:href="#DejaVuSans-32"/>
      </g>
     </g>
    </g>
    <g id="xtick_3">
     <g id="line2d_3">
      <g>
       <use style="stroke:#000000;stroke-width:0.8;" x="228.085756" xlink:href="#mba28466bf4" y="666.52"/>
      </g>
     </g>
     <g id="text_3">
      <!-- 0.4 -->
      <g transform="translate(220.134193 681.118438)scale(0.1 -0.1)">
       <defs>
        <path d="M 2419 4116 
L 825 1625 
L 2419 1625 
L 2419 4116 
z
M 2253 4666 
L 3047 4666 
L 3047 1625 
L 3713 1625 
L 3713 1100 
L 3047 1100 
L 3047 0 
L 2419 0 
L 2419 1100 
L 313 1100 
L 313 1709 
L 2253 4666 
z
" id="DejaVuSans-34" transform="scale(0.015625)"/>
       </defs>
       <use xlink:href="#DejaVuSans-30"/>
       <use x="63.623047" xlink:href="#DejaVuSans-2e"/>
       <use x="95.410156" xlink:href="#DejaVuSans-34"/>
      </g>
     </g>
    </g>
    <g id="xtick_4">
     <g id="line2d_4">
      <g>
       <use style="stroke:#000000;stroke-width:0.8;" x="321.463634" xlink:href="#mba28466bf4" y="666.52"/>
      </g>
     </g>
     <g id="text_4">
      <!-- 0.6 -->
      <g transform="translate(313.512071 681.118438)scale(0.1 -0.1)">
       <defs>
        <path d="M 2113 2584 
Q 1688 2584 1439 2293 
Q 1191 2003 1191 1497 
Q 1191 994 1439 701 
Q 1688 409 2113 409 
Q 2538 409 2786 701 
Q 3034 994 3034 1497 
Q 3034 2003 2786 2293 
Q 2538 2584 2113 2584 
z
M 3366 4563 
L 3366 3988 
Q 3128 4100 2886 4159 
Q 2644 4219 2406 4219 
Q 1781 4219 1451 3797 
Q 1122 3375 1075 2522 
Q 1259 2794 1537 2939 
Q 1816 3084 2150 3084 
Q 2853 3084 3261 2657 
Q 3669 2231 3669 1497 
Q 3669 778 3244 343 
Q 2819 -91 2113 -91 
Q 1303 -91 875 529 
Q 447 1150 447 2328 
Q 447 3434 972 4092 
Q 1497 4750 2381 4750 
Q 2619 4750 2861 4703 
Q 3103 4656 3366 4563 
z
" id="DejaVuSans-36" transform="scale(0.015625)"/>
       </defs>
       <use xlink:href="#DejaVuSans-30"/>
       <use x="63.623047" xlink:href="#DejaVuSans-2e"/>
       <use x="95.410156" xlink:href="#DejaVuSans-36"/>
      </g>
     </g>
    </g>
    <g id="xtick_5">
     <g id="line2d_5">
      <g>
       <use style="stroke:#000000;stroke-width:0.8;" x="414.841512" xlink:href="#mba28466bf4" y="666.52"/>
      </g>
     </g>
     <g id="text_5">
      <!-- 0.8 -->
      <g transform="translate(406.889949 681.118438)scale(0.1 -0.1)">
       <defs>
        <path d="M 2034 2216 
Q 1584 2216 1326 1975 
Q 1069 1734 1069 1313 
Q 1069 891 1326 650 
Q 1584 409 2034 409 
Q 2484 409 2743 651 
Q 3003 894 3003 1313 
Q 3003 1734 2745 1975 
Q 2488 2216 2034 2216 
z
M 1403 2484 
Q 997 2584 770 2862 
Q 544 3141 544 3541 
Q 544 4100 942 4425 
Q 1341 4750 2034 4750 
Q 2731 4750 3128 4425 
Q 3525 4100 3525 3541 
Q 3525 3141 3298 2862 
Q 3072 2584 2669 2484 
Q 3125 2378 3379 2068 
Q 3634 1759 3634 1313 
Q 3634 634 3220 271 
Q 2806 -91 2034 -91 
Q 1263 -91 848 271 
Q 434 634 434 1313 
Q 434 1759 690 2068 
Q 947 2378 1403 2484 
z
M 1172 3481 
Q 1172 3119 1398 2916 
Q 1625 2713 2034 2713 
Q 2441 2713 2670 2916 
Q 2900 3119 2900 3481 
Q 2900 3844 2670 4047 
Q 2441 4250 2034 4250 
Q 1625 4250 1398 4047 
Q 1172 3844 1172 3481 
z
" id="DejaVuSans-38" transform="scale(0.015625)"/>
       </defs>
       <use xlink:href="#DejaVuSans-30"/>
       <use x="63.623047" xlink:href="#DejaVuSans-2e"/>
       <use x="95.410156" xlink:href="#DejaVuSans-38"/>
      </g>
     </g>
    </g>
    <g id="text_6">
     <!-- 1-Pearson correlation coefficient -->
     <g transform="translate(189.154375 694.796562)scale(0.1 -0.1)">
      <defs>
       <path d="M 794 531 
L 1825 531 
L 1825 4091 
L 703 3866 
L 703 4441 
L 1819 4666 
L 2450 4666 
L 2450 531 
L 3481 531 
L 3481 0 
L 794 0 
L 794 531 
z
" id="DejaVuSans-31" transform="scale(0.015625)"/>
       <path d="M 313 2009 
L 1997 2009 
L 1997 1497 
L 313 1497 
L 313 2009 
z
" id="DejaVuSans-2d" transform="scale(0.015625)"/>
       <path d="M 1259 4147 
L 1259 2394 
L 2053 2394 
Q 2494 2394 2734 2622 
Q 2975 2850 2975 3272 
Q 2975 3691 2734 3919 
Q 2494 4147 2053 4147 
L 1259 4147 
z
M 628 4666 
L 2053 4666 
Q 2838 4666 3239 4311 
Q 3641 3956 3641 3272 
Q 3641 2581 3239 2228 
Q 2838 1875 2053 1875 
L 1259 1875 
L 1259 0 
L 628 0 
L 628 4666 
z
" id="DejaVuSans-50" transform="scale(0.015625)"/>
       <path d="M 3597 1894 
L 3597 1613 
L 953 1613 
Q 991 1019 1311 708 
Q 1631 397 2203 397 
Q 2534 397 2845 478 
Q 3156 559 3463 722 
L 3463 178 
Q 3153 47 2828 -22 
Q 2503 -91 2169 -91 
Q 1331 -91 842 396 
Q 353 884 353 1716 
Q 353 2575 817 3079 
Q 1281 3584 2069 3584 
Q 2775 3584 3186 3129 
Q 3597 2675 3597 1894 
z
M 3022 2063 
Q 3016 2534 2758 2815 
Q 2500 3097 2075 3097 
Q 1594 3097 1305 2825 
Q 1016 2553 972 2059 
L 3022 2063 
z
" id="DejaVuSans-65" transform="scale(0.015625)"/>
       <path d="M 2194 1759 
Q 1497 1759 1228 1600 
Q 959 1441 959 1056 
Q 959 750 1161 570 
Q 1363 391 1709 391 
Q 2188 391 2477 730 
Q 2766 1069 2766 1631 
L 2766 1759 
L 2194 1759 
z
M 3341 1997 
L 3341 0 
L 2766 0 
L 2766 531 
Q 2569 213 2275 61 
Q 1981 -91 1556 -91 
Q 1019 -91 701 211 
Q 384 513 384 1019 
Q 384 1609 779 1909 
Q 1175 2209 1959 2209 
L 2766 2209 
L 2766 2266 
Q 2766 2663 2505 2880 
Q 2244 3097 1772 3097 
Q 1472 3097 1187 3025 
Q 903 2953 641 2809 
L 641 3341 
Q 956 3463 1253 3523 
Q 1550 3584 1831 3584 
Q 2591 3584 2966 3190 
Q 3341 2797 3341 1997 
z
" id="DejaVuSans-61" transform="scale(0.015625)"/>
       <path d="M 2631 2963 
Q 2534 3019 2420 3045 
Q 2306 3072 2169 3072 
Q 1681 3072 1420 2755 
Q 1159 2438 1159 1844 
L 1159 0 
L 581 0 
L 581 3500 
L 1159 3500 
L 1159 2956 
Q 1341 3275 1631 3429 
Q 1922 3584 2338 3584 
Q 2397 3584 2469 3576 
Q 2541 3569 2628 3553 
L 2631 2963 
z
" id="DejaVuSans-72" transform="scale(0.015625)"/>
       <path d="M 2834 3397 
L 2834 2853 
Q 2591 2978 2328 3040 
Q 2066 3103 1784 3103 
Q 1356 3103 1142 2972 
Q 928 2841 928 2578 
Q 928 2378 1081 2264 
Q 1234 2150 1697 2047 
L 1894 2003 
Q 2506 1872 2764 1633 
Q 3022 1394 3022 966 
Q 3022 478 2636 193 
Q 2250 -91 1575 -91 
Q 1294 -91 989 -36 
Q 684 19 347 128 
L 347 722 
Q 666 556 975 473 
Q 1284 391 1588 391 
Q 1994 391 2212 530 
Q 2431 669 2431 922 
Q 2431 1156 2273 1281 
Q 2116 1406 1581 1522 
L 1381 1569 
Q 847 1681 609 1914 
Q 372 2147 372 2553 
Q 372 3047 722 3315 
Q 1072 3584 1716 3584 
Q 2034 3584 2315 3537 
Q 2597 3491 2834 3397 
z
" id="DejaVuSans-73" transform="scale(0.015625)"/>
       <path d="M 1959 3097 
Q 1497 3097 1228 2736 
Q 959 2375 959 1747 
Q 959 1119 1226 758 
Q 1494 397 1959 397 
Q 2419 397 2687 759 
Q 2956 1122 2956 1747 
Q 2956 2369 2687 2733 
Q 2419 3097 1959 3097 
z
M 1959 3584 
Q 2709 3584 3137 3096 
Q 3566 2609 3566 1747 
Q 3566 888 3137 398 
Q 2709 -91 1959 -91 
Q 1206 -91 779 398 
Q 353 888 353 1747 
Q 353 2609 779 3096 
Q 1206 3584 1959 3584 
z
" id="DejaVuSans-6f" transform="scale(0.015625)"/>
       <path d="M 3513 2113 
L 3513 0 
L 2938 0 
L 2938 2094 
Q 2938 2591 2744 2837 
Q 2550 3084 2163 3084 
Q 1697 3084 1428 2787 
Q 1159 2491 1159 1978 
L 1159 0 
L 581 0 
L 581 3500 
L 1159 3500 
L 1159 2956 
Q 1366 3272 1645 3428 
Q 1925 3584 2291 3584 
Q 2894 3584 3203 3211 
Q 3513 2838 3513 2113 
z
" id="DejaVuSans-6e" transform="scale(0.015625)"/>
       <path id="DejaVuSans-20" transform="scale(0.015625)"/>
       <path d="M 3122 3366 
L 3122 2828 
Q 2878 2963 2633 3030 
Q 2388 3097 2138 3097 
Q 1578 3097 1268 2742 
Q 959 2388 959 1747 
Q 959 1106 1268 751 
Q 1578 397 2138 397 
Q 2388 397 2633 464 
Q 2878 531 3122 666 
L 3122 134 
Q 2881 22 2623 -34 
Q 2366 -91 2075 -91 
Q 1284 -91 818 406 
Q 353 903 353 1747 
Q 353 2603 823 3093 
Q 1294 3584 2113 3584 
Q 2378 3584 2631 3529 
Q 2884 3475 3122 3366 
z
" id="DejaVuSans-63" transform="scale(0.015625)"/>
       <path d="M 603 4863 
L 1178 4863 
L 1178 0 
L 603 0 
L 603 4863 
z
" id="DejaVuSans-6c" transform="scale(0.015625)"/>
       <path d="M 1172 4494 
L 1172 3500 
L 2356 3500 
L 2356 3053 
L 1172 3053 
L 1172 1153 
Q 1172 725 1289 603 
Q 1406 481 1766 481 
L 2356 481 
L 2356 0 
L 1766 0 
Q 1100 0 847 248 
Q 594 497 594 1153 
L 594 3053 
L 172 3053 
L 172 3500 
L 594 3500 
L 594 4494 
L 1172 4494 
z
" id="DejaVuSans-74" transform="scale(0.015625)"/>
       <path d="M 603 3500 
L 1178 3500 
L 1178 0 
L 603 0 
L 603 3500 
z
M 603 4863 
L 1178 4863 
L 1178 4134 
L 603 4134 
L 603 4863 
z
" id="DejaVuSans-69" transform="scale(0.015625)"/>
       <path d="M 2375 4863 
L 2375 4384 
L 1825 4384 
Q 1516 4384 1395 4259 
Q 1275 4134 1275 3809 
L 1275 3500 
L 2222 3500 
L 2222 3053 
L 1275 3053 
L 1275 0 
L 697 0 
L 697 3053 
L 147 3053 
L 147 3500 
L 697 3500 
L 697 3744 
Q 697 4328 969 4595 
Q 1241 4863 1831 4863 
L 2375 4863 
z
" id="DejaVuSans-66" transform="scale(0.015625)"/>
      </defs>
      <use xlink:href="#DejaVuSans-31"/>
      <use x="63.623047" xlink:href="#DejaVuSans-2d"/>
      <use x="99.707031" xlink:href="#DejaVuSans-50"/>
      <use x="156.384766" xlink:href="#DejaVuSans-65"/>
      <use x="217.908203" xlink:href="#DejaVuSans-61"/>
      <use x="279.1875" xlink:href="#DejaVuSans-72"/>
      <use x="320.300781" xlink:href="#DejaVuSans-73"/>
      <use x="372.400391" xlink:href="#DejaVuSans-6f"/>
      <use x="433.582031" xlink:href="#DejaVuSans-6e"/>
      <use x="496.960938" xlink:href="#DejaVuSans-20"/>
      <use x="528.748047" xlink:href="#DejaVuSans-63"/>
      <use x="583.728516" xlink:href="#DejaVuSans-6f"/>
      <use x="644.910156" xlink:href="#DejaVuSans-72"/>
      <use x="684.273438" xlink:href="#DejaVuSans-72"/>
      <use x="723.136719" xlink:href="#DejaVuSans-65"/>
      <use x="784.660156" xlink:href="#DejaVuSans-6c"/>
      <use x="812.443359" xlink:href="#DejaVuSans-61"/>
      <use x="873.722656" xlink:href="#DejaVuSans-74"/>
      <use x="912.931641" xlink:href="#DejaVuSans-69"/>
      <use x="940.714844" xlink:href="#DejaVuSans-6f"/>
      <use x="1001.896484" xlink:href="#DejaVuSans-6e"/>
      <use x="1065.275391" xlink:href="#DejaVuSans-20"/>
      <use x="1097.0625" xlink:href="#DejaVuSans-63"/>
      <use x="1152.042969" xlink:href="#DejaVuSans-6f"/>
      <use x="1213.224609" xlink:href="#DejaVuSans-65"/>
      <use x="1274.748047" xlink:href="#DejaVuSans-66"/>
      <use x="1309.953125" xlink:href="#DejaVuSans-66"/>
      <use x="1345.158203" xlink:href="#DejaVuSans-69"/>
      <use x="1372.941406" xlink:href="#DejaVuSans-63"/>
      <use x="1427.921875" xlink:href="#DejaVuSans-69"/>
      <use x="1455.705078" xlink:href="#DejaVuSans-65"/>
      <use x="1517.228516" xlink:href="#DejaVuSans-6e"/>
      <use x="1580.607422" xlink:href="#DejaVuSans-74"/>
     </g>
    </g>
   </g>
   <g id="matplotlib.axis_2">
    <g id="ytick_1">
     <g id="text_7">
      <!-- 8 -->
      <g transform="translate(31.14875 665.492288)scale(0.05 -0.05)">
       <use xlink:href="#DejaVuSans-38"/>
      </g>
     </g>
    </g>
    <g id="ytick_2">
     <g id="text_8">
      <!-- 9 -->
      <g transform="translate(31.14875 659.637645)scale(0.05 -0.05)">
       <defs>
        <path d="M 703 97 
L 703 672 
Q 941 559 1184 500 
Q 1428 441 1663 441 
Q 2288 441 2617 861 
Q 2947 1281 2994 2138 
Q 2813 1869 2534 1725 
Q 2256 1581 1919 1581 
Q 1219 1581 811 2004 
Q 403 2428 403 3163 
Q 403 3881 828 4315 
Q 1253 4750 1959 4750 
Q 2769 4750 3195 4129 
Q 3622 3509 3622 2328 
Q 3622 1225 3098 567 
Q 2575 -91 1691 -91 
Q 1453 -91 1209 -44 
Q 966 3 703 97 
z
M 1959 2075 
Q 2384 2075 2632 2365 
Q 2881 2656 2881 3163 
Q 2881 3666 2632 3958 
Q 2384 4250 1959 4250 
Q 1534 4250 1286 3958 
Q 1038 3666 1038 3163 
Q 1038 2656 1286 2365 
Q 1534 2075 1959 2075 
z
" id="DejaVuSans-39" transform="scale(0.015625)"/>
       </defs>
       <use xlink:href="#DejaVuSans-39"/>
      </g>
     </g>
    </g>
    <g id="ytick_3">
     <g id="text_9">
      <!-- 55 -->
      <g transform="translate(27.9675 653.783002)scale(0.05 -0.05)">
       <defs>
        <path d="M 691 4666 
L 3169 4666 
L 3169 4134 
L 1269 4134 
L 1269 2991 
Q 1406 3038 1543 3061 
Q 1681 3084 1819 3084 
Q 2600 3084 3056 2656 
Q 3513 2228 3513 1497 
Q 3513 744 3044 326 
Q 2575 -91 1722 -91 
Q 1428 -91 1123 -41 
Q 819 9 494 109 
L 494 744 
Q 775 591 1075 516 
Q 1375 441 1709 441 
Q 2250 441 2565 725 
Q 2881 1009 2881 1497 
Q 2881 1984 2565 2268 
Q 2250 2553 1709 2553 
Q 1456 2553 1204 2497 
Q 953 2441 691 2322 
L 691 4666 
z
" id="DejaVuSans-35" transform="scale(0.015625)"/>
       </defs>
       <use xlink:href="#DejaVuSans-35"/>
       <use x="63.623047" xlink:href="#DejaVuSans-35"/>
      </g>
     </g>
    </g>
    <g id="ytick_4">
     <g id="text_10">
      <!-- 56 -->
      <g transform="translate(27.9675 647.928359)scale(0.05 -0.05)">
       <use xlink:href="#DejaVuSans-35"/>
       <use x="63.623047" xlink:href="#DejaVuSans-36"/>
      </g>
     </g>
    </g>
    <g id="ytick_5">
     <g id="text_11">
      <!-- 62 -->
      <g transform="translate(27.9675 642.073717)scale(0.05 -0.05)">
       <use xlink:href="#DejaVuSans-36"/>
       <use x="63.623047" xlink:href="#DejaVuSans-32"/>
      </g>
     </g>
    </g>
    <g id="ytick_6">
     <g id="text_12">
      <!-- 53 -->
      <g transform="translate(27.9675 636.219074)scale(0.05 -0.05)">
       <defs>
        <path d="M 2597 2516 
Q 3050 2419 3304 2112 
Q 3559 1806 3559 1356 
Q 3559 666 3084 287 
Q 2609 -91 1734 -91 
Q 1441 -91 1130 -33 
Q 819 25 488 141 
L 488 750 
Q 750 597 1062 519 
Q 1375 441 1716 441 
Q 2309 441 2620 675 
Q 2931 909 2931 1356 
Q 2931 1769 2642 2001 
Q 2353 2234 1838 2234 
L 1294 2234 
L 1294 2753 
L 1863 2753 
Q 2328 2753 2575 2939 
Q 2822 3125 2822 3475 
Q 2822 3834 2567 4026 
Q 2313 4219 1838 4219 
Q 1578 4219 1281 4162 
Q 984 4106 628 3988 
L 628 4550 
Q 988 4650 1302 4700 
Q 1616 4750 1894 4750 
Q 2613 4750 3031 4423 
Q 3450 4097 3450 3541 
Q 3450 3153 3228 2886 
Q 3006 2619 2597 2516 
z
" id="DejaVuSans-33" transform="scale(0.015625)"/>
       </defs>
       <use xlink:href="#DejaVuSans-35"/>
       <use x="63.623047" xlink:href="#DejaVuSans-33"/>
      </g>
     </g>
    </g>
    <g id="ytick_7">
     <g id="text_13">
      <!-- 51 -->
      <g transform="translate(27.9675 630.364431)scale(0.05 -0.05)">
       <use xlink:href="#DejaVuSans-35"/>
       <use x="63.623047" xlink:href="#DejaVuSans-31"/>
      </g>
     </g>
    </g>
    <g id="ytick_8">
     <g id="text_14">
      <!-- 52 -->
      <g transform="translate(27.9675 624.509788)scale(0.05 -0.05)">
       <use xlink:href="#DejaVuSans-35"/>
       <use x="63.623047" xlink:href="#DejaVuSans-32"/>
      </g>
     </g>
    </g>
    <g id="ytick_9">
     <g id="text_15">
      <!-- 93 -->
      <g transform="translate(27.9675 618.655145)scale(0.05 -0.05)">
       <use xlink:href="#DejaVuSans-39"/>
       <use x="63.623047" xlink:href="#DejaVuSans-33"/>
      </g>
     </g>
    </g>
    <g id="ytick_10">
     <g id="text_16">
      <!-- 94 -->
      <g transform="translate(27.9675 612.800502)scale(0.05 -0.05)">
       <use xlink:href="#DejaVuSans-39"/>
       <use x="63.623047" xlink:href="#DejaVuSans-34"/>
      </g>
     </g>
    </g>
    <g id="ytick_11">
     <g id="text_17">
      <!-- 60 -->
      <g transform="translate(27.9675 606.945859)scale(0.05 -0.05)">
       <use xlink:href="#DejaVuSans-36"/>
       <use x="63.623047" xlink:href="#DejaVuSans-30"/>
      </g>
     </g>
    </g>
    <g id="ytick_12">
     <g id="text_18">
      <!-- 61 -->
      <g transform="translate(27.9675 601.091217)scale(0.05 -0.05)">
       <use xlink:href="#DejaVuSans-36"/>
       <use x="63.623047" xlink:href="#DejaVuSans-31"/>
      </g>
     </g>
    </g>
    <g id="ytick_13">
     <g id="text_19">
      <!-- 97 -->
      <g transform="translate(27.9675 595.236574)scale(0.05 -0.05)">
       <defs>
        <path d="M 525 4666 
L 3525 4666 
L 3525 4397 
L 1831 0 
L 1172 0 
L 2766 4134 
L 525 4134 
L 525 4666 
z
" id="DejaVuSans-37" transform="scale(0.015625)"/>
       </defs>
       <use xlink:href="#DejaVuSans-39"/>
       <use x="63.623047" xlink:href="#DejaVuSans-37"/>
      </g>
     </g>
    </g>
    <g id="ytick_14">
     <g id="text_20">
      <!-- 58 -->
      <g transform="translate(27.9675 589.381931)scale(0.05 -0.05)">
       <use xlink:href="#DejaVuSans-35"/>
       <use x="63.623047" xlink:href="#DejaVuSans-38"/>
      </g>
     </g>
    </g>
    <g id="ytick_15">
     <g id="text_21">
      <!-- 95 -->
      <g transform="translate(27.9675 583.527288)scale(0.05 -0.05)">
       <use xlink:href="#DejaVuSans-39"/>
       <use x="63.623047" xlink:href="#DejaVuSans-35"/>
      </g>
     </g>
    </g>
    <g id="ytick_16">
     <g id="text_22">
      <!-- 96 -->
      <g transform="translate(27.9675 577.672645)scale(0.05 -0.05)">
       <use xlink:href="#DejaVuSans-39"/>
       <use x="63.623047" xlink:href="#DejaVuSans-36"/>
      </g>
     </g>
    </g>
    <g id="ytick_17">
     <g id="text_23">
      <!-- 50 -->
      <g transform="translate(27.9675 571.818002)scale(0.05 -0.05)">
       <use xlink:href="#DejaVuSans-35"/>
       <use x="63.623047" xlink:href="#DejaVuSans-30"/>
      </g>
     </g>
    </g>
    <g id="ytick_18">
     <g id="text_24">
      <!-- 57 -->
      <g transform="translate(27.9675 565.963359)scale(0.05 -0.05)">
       <use xlink:href="#DejaVuSans-35"/>
       <use x="63.623047" xlink:href="#DejaVuSans-37"/>
      </g>
     </g>
    </g>
    <g id="ytick_19">
     <g id="text_25">
      <!-- 59 -->
      <g transform="translate(27.9675 560.108717)scale(0.05 -0.05)">
       <use xlink:href="#DejaVuSans-35"/>
       <use x="63.623047" xlink:href="#DejaVuSans-39"/>
      </g>
     </g>
    </g>
    <g id="ytick_20">
     <g id="text_26">
      <!-- 92 -->
      <g transform="translate(27.9675 554.254074)scale(0.05 -0.05)">
       <use xlink:href="#DejaVuSans-39"/>
       <use x="63.623047" xlink:href="#DejaVuSans-32"/>
      </g>
     </g>
    </g>
    <g id="ytick_21">
     <g id="text_27">
      <!-- 5 -->
      <g transform="translate(31.14875 548.399431)scale(0.05 -0.05)">
       <use xlink:href="#DejaVuSans-35"/>
      </g>
     </g>
    </g>
    <g id="ytick_22">
     <g id="text_28">
      <!-- 3 -->
      <g transform="translate(31.14875 542.544788)scale(0.05 -0.05)">
       <use xlink:href="#DejaVuSans-33"/>
      </g>
     </g>
    </g>
    <g id="ytick_23">
     <g id="text_29">
      <!-- 4 -->
      <g transform="translate(31.14875 536.690145)scale(0.05 -0.05)">
       <use xlink:href="#DejaVuSans-34"/>
      </g>
     </g>
    </g>
    <g id="ytick_24">
     <g id="text_30">
      <!-- 6 -->
      <g transform="translate(31.14875 530.835502)scale(0.05 -0.05)">
       <use xlink:href="#DejaVuSans-36"/>
      </g>
     </g>
    </g>
    <g id="ytick_25">
     <g id="text_31">
      <!-- 0 -->
      <g transform="translate(31.14875 524.980859)scale(0.05 -0.05)">
       <use xlink:href="#DejaVuSans-30"/>
      </g>
     </g>
    </g>
    <g id="ytick_26">
     <g id="text_32">
      <!-- 1 -->
      <g transform="translate(31.14875 519.126217)scale(0.05 -0.05)">
       <use xlink:href="#DejaVuSans-31"/>
      </g>
     </g>
    </g>
    <g id="ytick_27">
     <g id="text_33">
      <!-- 90 -->
      <g transform="translate(27.9675 513.271574)scale(0.05 -0.05)">
       <use xlink:href="#DejaVuSans-39"/>
       <use x="63.623047" xlink:href="#DejaVuSans-30"/>
      </g>
     </g>
    </g>
    <g id="ytick_28">
     <g id="text_34">
      <!-- 2 -->
      <g transform="translate(31.14875 507.416931)scale(0.05 -0.05)">
       <use xlink:href="#DejaVuSans-32"/>
      </g>
     </g>
    </g>
    <g id="ytick_29">
     <g id="text_35">
      <!-- 7 -->
      <g transform="translate(31.14875 501.562288)scale(0.05 -0.05)">
       <use xlink:href="#DejaVuSans-37"/>
      </g>
     </g>
    </g>
    <g id="ytick_30">
     <g id="text_36">
      <!-- 63 -->
      <g transform="translate(27.9675 495.707645)scale(0.05 -0.05)">
       <use xlink:href="#DejaVuSans-36"/>
       <use x="63.623047" xlink:href="#DejaVuSans-33"/>
      </g>
     </g>
    </g>
    <g id="ytick_31">
     <g id="text_37">
      <!-- 78 -->
      <g transform="translate(27.9675 489.853002)scale(0.05 -0.05)">
       <use xlink:href="#DejaVuSans-37"/>
       <use x="63.623047" xlink:href="#DejaVuSans-38"/>
      </g>
     </g>
    </g>
    <g id="ytick_32">
     <g id="text_38">
      <!-- 83 -->
      <g transform="translate(27.9675 483.998359)scale(0.05 -0.05)">
       <use xlink:href="#DejaVuSans-38"/>
       <use x="63.623047" xlink:href="#DejaVuSans-33"/>
      </g>
     </g>
    </g>
    <g id="ytick_33">
     <g id="text_39">
      <!-- 68 -->
      <g transform="translate(27.9675 478.143717)scale(0.05 -0.05)">
       <use xlink:href="#DejaVuSans-36"/>
       <use x="63.623047" xlink:href="#DejaVuSans-38"/>
      </g>
     </g>
    </g>
    <g id="ytick_34">
     <g id="text_40">
      <!-- 73 -->
      <g transform="translate(27.9675 472.289074)scale(0.05 -0.05)">
       <use xlink:href="#DejaVuSans-37"/>
       <use x="63.623047" xlink:href="#DejaVuSans-33"/>
      </g>
     </g>
    </g>
    <g id="ytick_35">
     <g id="text_41">
      <!-- 99 -->
      <g transform="translate(27.9675 466.434431)scale(0.05 -0.05)">
       <use xlink:href="#DejaVuSans-39"/>
       <use x="63.623047" xlink:href="#DejaVuSans-39"/>
      </g>
     </g>
    </g>
    <g id="ytick_36">
     <g id="text_42">
      <!-- 100 -->
      <g transform="translate(24.78625 460.579788)scale(0.05 -0.05)">
       <use xlink:href="#DejaVuSans-31"/>
       <use x="63.623047" xlink:href="#DejaVuSans-30"/>
       <use x="127.246094" xlink:href="#DejaVuSans-30"/>
      </g>
     </g>
    </g>
    <g id="ytick_37">
     <g id="text_43">
      <!-- 24 -->
      <g transform="translate(27.9675 454.725145)scale(0.05 -0.05)">
       <use xlink:href="#DejaVuSans-32"/>
       <use x="63.623047" xlink:href="#DejaVuSans-34"/>
      </g>
     </g>
    </g>
    <g id="ytick_38">
     <g id="text_44">
      <!-- 25 -->
      <g transform="translate(27.9675 448.870502)scale(0.05 -0.05)">
       <use xlink:href="#DejaVuSans-32"/>
       <use x="63.623047" xlink:href="#DejaVuSans-35"/>
      </g>
     </g>
    </g>
    <g id="ytick_39">
     <g id="text_45">
      <!-- 29 -->
      <g transform="translate(27.9675 443.015859)scale(0.05 -0.05)">
       <use xlink:href="#DejaVuSans-32"/>
       <use x="63.623047" xlink:href="#DejaVuSans-39"/>
      </g>
     </g>
    </g>
    <g id="ytick_40">
     <g id="text_46">
      <!-- 26 -->
      <g transform="translate(27.9675 437.161217)scale(0.05 -0.05)">
       <use xlink:href="#DejaVuSans-32"/>
       <use x="63.623047" xlink:href="#DejaVuSans-36"/>
      </g>
     </g>
    </g>
    <g id="ytick_41">
     <g id="text_47">
      <!-- 22 -->
      <g transform="translate(27.9675 431.306574)scale(0.05 -0.05)">
       <use xlink:href="#DejaVuSans-32"/>
       <use x="63.623047" xlink:href="#DejaVuSans-32"/>
      </g>
     </g>
    </g>
    <g id="ytick_42">
     <g id="text_48">
      <!-- 23 -->
      <g transform="translate(27.9675 425.451931)scale(0.05 -0.05)">
       <use xlink:href="#DejaVuSans-32"/>
       <use x="63.623047" xlink:href="#DejaVuSans-33"/>
      </g>
     </g>
    </g>
    <g id="ytick_43">
     <g id="text_49">
      <!-- 28 -->
      <g transform="translate(27.9675 419.597288)scale(0.05 -0.05)">
       <use xlink:href="#DejaVuSans-32"/>
       <use x="63.623047" xlink:href="#DejaVuSans-38"/>
      </g>
     </g>
    </g>
    <g id="ytick_44">
     <g id="text_50">
      <!-- 18 -->
      <g transform="translate(27.9675 413.742645)scale(0.05 -0.05)">
       <use xlink:href="#DejaVuSans-31"/>
       <use x="63.623047" xlink:href="#DejaVuSans-38"/>
      </g>
     </g>
    </g>
    <g id="ytick_45">
     <g id="text_51">
      <!-- 19 -->
      <g transform="translate(27.9675 407.888002)scale(0.05 -0.05)">
       <use xlink:href="#DejaVuSans-31"/>
       <use x="63.623047" xlink:href="#DejaVuSans-39"/>
      </g>
     </g>
    </g>
    <g id="ytick_46">
     <g id="text_52">
      <!-- 20 -->
      <g transform="translate(27.9675 402.033359)scale(0.05 -0.05)">
       <use xlink:href="#DejaVuSans-32"/>
       <use x="63.623047" xlink:href="#DejaVuSans-30"/>
      </g>
     </g>
    </g>
    <g id="ytick_47">
     <g id="text_53">
      <!-- 21 -->
      <g transform="translate(27.9675 396.178717)scale(0.05 -0.05)">
       <use xlink:href="#DejaVuSans-32"/>
       <use x="63.623047" xlink:href="#DejaVuSans-31"/>
      </g>
     </g>
    </g>
    <g id="ytick_48">
     <g id="text_54">
      <!-- 27 -->
      <g transform="translate(27.9675 390.324074)scale(0.05 -0.05)">
       <use xlink:href="#DejaVuSans-32"/>
       <use x="63.623047" xlink:href="#DejaVuSans-37"/>
      </g>
     </g>
    </g>
    <g id="ytick_49">
     <g id="text_55">
      <!-- 105 -->
      <g transform="translate(24.78625 384.469431)scale(0.05 -0.05)">
       <use xlink:href="#DejaVuSans-31"/>
       <use x="63.623047" xlink:href="#DejaVuSans-30"/>
       <use x="127.246094" xlink:href="#DejaVuSans-35"/>
      </g>
     </g>
    </g>
    <g id="ytick_50">
     <g id="text_56">
      <!-- 102 -->
      <g transform="translate(24.78625 378.614788)scale(0.05 -0.05)">
       <use xlink:href="#DejaVuSans-31"/>
       <use x="63.623047" xlink:href="#DejaVuSans-30"/>
       <use x="127.246094" xlink:href="#DejaVuSans-32"/>
      </g>
     </g>
    </g>
    <g id="ytick_51">
     <g id="text_57">
      <!-- 101 -->
      <g transform="translate(24.78625 372.760145)scale(0.05 -0.05)">
       <use xlink:href="#DejaVuSans-31"/>
       <use x="63.623047" xlink:href="#DejaVuSans-30"/>
       <use x="127.246094" xlink:href="#DejaVuSans-31"/>
      </g>
     </g>
    </g>
    <g id="ytick_52">
     <g id="text_58">
      <!-- 70 -->
      <g transform="translate(27.9675 366.905502)scale(0.05 -0.05)">
       <use xlink:href="#DejaVuSans-37"/>
       <use x="63.623047" xlink:href="#DejaVuSans-30"/>
      </g>
     </g>
    </g>
    <g id="ytick_53">
     <g id="text_59">
      <!-- 75 -->
      <g transform="translate(27.9675 361.050859)scale(0.05 -0.05)">
       <use xlink:href="#DejaVuSans-37"/>
       <use x="63.623047" xlink:href="#DejaVuSans-35"/>
      </g>
     </g>
    </g>
    <g id="ytick_54">
     <g id="text_60">
      <!-- 81 -->
      <g transform="translate(27.9675 355.196217)scale(0.05 -0.05)">
       <use xlink:href="#DejaVuSans-38"/>
       <use x="63.623047" xlink:href="#DejaVuSans-31"/>
      </g>
     </g>
    </g>
    <g id="ytick_55">
     <g id="text_61">
      <!-- 87 -->
      <g transform="translate(27.9675 349.341574)scale(0.05 -0.05)">
       <use xlink:href="#DejaVuSans-38"/>
       <use x="63.623047" xlink:href="#DejaVuSans-37"/>
      </g>
     </g>
    </g>
    <g id="ytick_56">
     <g id="text_62">
      <!-- 65 -->
      <g transform="translate(27.9675 343.486931)scale(0.05 -0.05)">
       <use xlink:href="#DejaVuSans-36"/>
       <use x="63.623047" xlink:href="#DejaVuSans-35"/>
      </g>
     </g>
    </g>
    <g id="ytick_57">
     <g id="text_63">
      <!-- 71 -->
      <g transform="translate(27.9675 337.632288)scale(0.05 -0.05)">
       <use xlink:href="#DejaVuSans-37"/>
       <use x="63.623047" xlink:href="#DejaVuSans-31"/>
      </g>
     </g>
    </g>
    <g id="ytick_58">
     <g id="text_64">
      <!-- 76 -->
      <g transform="translate(27.9675 331.777645)scale(0.05 -0.05)">
       <use xlink:href="#DejaVuSans-37"/>
       <use x="63.623047" xlink:href="#DejaVuSans-36"/>
      </g>
     </g>
    </g>
    <g id="ytick_59">
     <g id="text_65">
      <!-- 98 -->
      <g transform="translate(27.9675 325.923002)scale(0.05 -0.05)">
       <use xlink:href="#DejaVuSans-39"/>
       <use x="63.623047" xlink:href="#DejaVuSans-38"/>
      </g>
     </g>
    </g>
    <g id="ytick_60">
     <g id="text_66">
      <!-- 79 -->
      <g transform="translate(27.9675 320.068359)scale(0.05 -0.05)">
       <use xlink:href="#DejaVuSans-37"/>
       <use x="63.623047" xlink:href="#DejaVuSans-39"/>
      </g>
     </g>
    </g>
    <g id="ytick_61">
     <g id="text_67">
      <!-- 84 -->
      <g transform="translate(27.9675 314.213717)scale(0.05 -0.05)">
       <use xlink:href="#DejaVuSans-38"/>
       <use x="63.623047" xlink:href="#DejaVuSans-34"/>
      </g>
     </g>
    </g>
    <g id="ytick_62">
     <g id="text_68">
      <!-- 85 -->
      <g transform="translate(27.9675 308.359074)scale(0.05 -0.05)">
       <use xlink:href="#DejaVuSans-38"/>
       <use x="63.623047" xlink:href="#DejaVuSans-35"/>
      </g>
     </g>
    </g>
    <g id="ytick_63">
     <g id="text_69">
      <!-- 86 -->
      <g transform="translate(27.9675 302.504431)scale(0.05 -0.05)">
       <use xlink:href="#DejaVuSans-38"/>
       <use x="63.623047" xlink:href="#DejaVuSans-36"/>
      </g>
     </g>
    </g>
    <g id="ytick_64">
     <g id="text_70">
      <!-- 80 -->
      <g transform="translate(27.9675 296.649788)scale(0.05 -0.05)">
       <use xlink:href="#DejaVuSans-38"/>
       <use x="63.623047" xlink:href="#DejaVuSans-30"/>
      </g>
     </g>
    </g>
    <g id="ytick_65">
     <g id="text_71">
      <!-- 64 -->
      <g transform="translate(27.9675 290.795145)scale(0.05 -0.05)">
       <use xlink:href="#DejaVuSans-36"/>
       <use x="63.623047" xlink:href="#DejaVuSans-34"/>
      </g>
     </g>
    </g>
    <g id="ytick_66">
     <g id="text_72">
      <!-- 69 -->
      <g transform="translate(27.9675 284.940502)scale(0.05 -0.05)">
       <use xlink:href="#DejaVuSans-36"/>
       <use x="63.623047" xlink:href="#DejaVuSans-39"/>
      </g>
     </g>
    </g>
    <g id="ytick_67">
     <g id="text_73">
      <!-- 74 -->
      <g transform="translate(27.9675 279.085859)scale(0.05 -0.05)">
       <use xlink:href="#DejaVuSans-37"/>
       <use x="63.623047" xlink:href="#DejaVuSans-34"/>
      </g>
     </g>
    </g>
    <g id="ytick_68">
     <g id="text_74">
      <!-- 106 -->
      <g transform="translate(24.78625 273.231217)scale(0.05 -0.05)">
       <use xlink:href="#DejaVuSans-31"/>
       <use x="63.623047" xlink:href="#DejaVuSans-30"/>
       <use x="127.246094" xlink:href="#DejaVuSans-36"/>
      </g>
     </g>
    </g>
    <g id="ytick_69">
     <g id="text_75">
      <!-- 107 -->
      <g transform="translate(24.78625 267.376574)scale(0.05 -0.05)">
       <use xlink:href="#DejaVuSans-31"/>
       <use x="63.623047" xlink:href="#DejaVuSans-30"/>
       <use x="127.246094" xlink:href="#DejaVuSans-37"/>
      </g>
     </g>
    </g>
    <g id="ytick_70">
     <g id="text_76">
      <!-- 66 -->
      <g transform="translate(27.9675 261.521931)scale(0.05 -0.05)">
       <use xlink:href="#DejaVuSans-36"/>
       <use x="63.623047" xlink:href="#DejaVuSans-36"/>
      </g>
     </g>
    </g>
    <g id="ytick_71">
     <g id="text_77">
      <!-- 67 -->
      <g transform="translate(27.9675 255.667288)scale(0.05 -0.05)">
       <use xlink:href="#DejaVuSans-36"/>
       <use x="63.623047" xlink:href="#DejaVuSans-37"/>
      </g>
     </g>
    </g>
    <g id="ytick_72">
     <g id="text_78">
      <!-- 72 -->
      <g transform="translate(27.9675 249.812645)scale(0.05 -0.05)">
       <use xlink:href="#DejaVuSans-37"/>
       <use x="63.623047" xlink:href="#DejaVuSans-32"/>
      </g>
     </g>
    </g>
    <g id="ytick_73">
     <g id="text_79">
      <!-- 77 -->
      <g transform="translate(27.9675 243.958002)scale(0.05 -0.05)">
       <use xlink:href="#DejaVuSans-37"/>
       <use x="63.623047" xlink:href="#DejaVuSans-37"/>
      </g>
     </g>
    </g>
    <g id="ytick_74">
     <g id="text_80">
      <!-- 82 -->
      <g transform="translate(27.9675 238.103359)scale(0.05 -0.05)">
       <use xlink:href="#DejaVuSans-38"/>
       <use x="63.623047" xlink:href="#DejaVuSans-32"/>
      </g>
     </g>
    </g>
    <g id="ytick_75">
     <g id="text_81">
      <!-- 33 -->
      <g transform="translate(27.9675 232.248717)scale(0.05 -0.05)">
       <use xlink:href="#DejaVuSans-33"/>
       <use x="63.623047" xlink:href="#DejaVuSans-33"/>
      </g>
     </g>
    </g>
    <g id="ytick_76">
     <g id="text_82">
      <!-- 31 -->
      <g transform="translate(27.9675 226.394074)scale(0.05 -0.05)">
       <use xlink:href="#DejaVuSans-33"/>
       <use x="63.623047" xlink:href="#DejaVuSans-31"/>
      </g>
     </g>
    </g>
    <g id="ytick_77">
     <g id="text_83">
      <!-- 30 -->
      <g transform="translate(27.9675 220.539431)scale(0.05 -0.05)">
       <use xlink:href="#DejaVuSans-33"/>
       <use x="63.623047" xlink:href="#DejaVuSans-30"/>
      </g>
     </g>
    </g>
    <g id="ytick_78">
     <g id="text_84">
      <!-- 32 -->
      <g transform="translate(27.9675 214.684788)scale(0.05 -0.05)">
       <use xlink:href="#DejaVuSans-33"/>
       <use x="63.623047" xlink:href="#DejaVuSans-32"/>
      </g>
     </g>
    </g>
    <g id="ytick_79">
     <g id="text_85">
      <!-- 49 -->
      <g transform="translate(27.9675 208.830145)scale(0.05 -0.05)">
       <use xlink:href="#DejaVuSans-34"/>
       <use x="63.623047" xlink:href="#DejaVuSans-39"/>
      </g>
     </g>
    </g>
    <g id="ytick_80">
     <g id="text_86">
      <!-- 46 -->
      <g transform="translate(27.9675 202.975502)scale(0.05 -0.05)">
       <use xlink:href="#DejaVuSans-34"/>
       <use x="63.623047" xlink:href="#DejaVuSans-36"/>
      </g>
     </g>
    </g>
    <g id="ytick_81">
     <g id="text_87">
      <!-- 47 -->
      <g transform="translate(27.9675 197.120859)scale(0.05 -0.05)">
       <use xlink:href="#DejaVuSans-34"/>
       <use x="63.623047" xlink:href="#DejaVuSans-37"/>
      </g>
     </g>
    </g>
    <g id="ytick_82">
     <g id="text_88">
      <!-- 48 -->
      <g transform="translate(27.9675 191.266217)scale(0.05 -0.05)">
       <use xlink:href="#DejaVuSans-34"/>
       <use x="63.623047" xlink:href="#DejaVuSans-38"/>
      </g>
     </g>
    </g>
    <g id="ytick_83">
     <g id="text_89">
      <!-- 45 -->
      <g transform="translate(27.9675 185.411574)scale(0.05 -0.05)">
       <use xlink:href="#DejaVuSans-34"/>
       <use x="63.623047" xlink:href="#DejaVuSans-35"/>
      </g>
     </g>
    </g>
    <g id="ytick_84">
     <g id="text_90">
      <!-- 44 -->
      <g transform="translate(27.9675 179.556931)scale(0.05 -0.05)">
       <use xlink:href="#DejaVuSans-34"/>
       <use x="63.623047" xlink:href="#DejaVuSans-34"/>
      </g>
     </g>
    </g>
    <g id="ytick_85">
     <g id="text_91">
      <!-- 43 -->
      <g transform="translate(27.9675 173.702288)scale(0.05 -0.05)">
       <use xlink:href="#DejaVuSans-34"/>
       <use x="63.623047" xlink:href="#DejaVuSans-33"/>
      </g>
     </g>
    </g>
    <g id="ytick_86">
     <g id="text_92">
      <!-- 108 -->
      <g transform="translate(24.78625 167.847645)scale(0.05 -0.05)">
       <use xlink:href="#DejaVuSans-31"/>
       <use x="63.623047" xlink:href="#DejaVuSans-30"/>
       <use x="127.246094" xlink:href="#DejaVuSans-38"/>
      </g>
     </g>
    </g>
    <g id="ytick_87">
     <g id="text_93">
      <!-- 109 -->
      <g transform="translate(24.78625 161.993002)scale(0.05 -0.05)">
       <use xlink:href="#DejaVuSans-31"/>
       <use x="63.623047" xlink:href="#DejaVuSans-30"/>
       <use x="127.246094" xlink:href="#DejaVuSans-39"/>
      </g>
     </g>
    </g>
    <g id="ytick_88">
     <g id="text_94">
      <!-- 110 -->
      <g transform="translate(24.78625 156.138359)scale(0.05 -0.05)">
       <use xlink:href="#DejaVuSans-31"/>
       <use x="63.623047" xlink:href="#DejaVuSans-31"/>
       <use x="127.246094" xlink:href="#DejaVuSans-30"/>
      </g>
     </g>
    </g>
    <g id="ytick_89">
     <g id="text_95">
      <!-- 111 -->
      <g transform="translate(24.78625 150.283717)scale(0.05 -0.05)">
       <use xlink:href="#DejaVuSans-31"/>
       <use x="63.623047" xlink:href="#DejaVuSans-31"/>
       <use x="127.246094" xlink:href="#DejaVuSans-31"/>
      </g>
     </g>
    </g>
    <g id="ytick_90">
     <g id="text_96">
      <!-- 88 -->
      <g transform="translate(27.9675 144.429074)scale(0.05 -0.05)">
       <use xlink:href="#DejaVuSans-38"/>
       <use x="63.623047" xlink:href="#DejaVuSans-38"/>
      </g>
     </g>
    </g>
    <g id="ytick_91">
     <g id="text_97">
      <!-- 89 -->
      <g transform="translate(27.9675 138.574431)scale(0.05 -0.05)">
       <use xlink:href="#DejaVuSans-38"/>
       <use x="63.623047" xlink:href="#DejaVuSans-39"/>
      </g>
     </g>
    </g>
    <g id="ytick_92">
     <g id="text_98">
      <!-- 38 -->
      <g transform="translate(27.9675 132.719788)scale(0.05 -0.05)">
       <use xlink:href="#DejaVuSans-33"/>
       <use x="63.623047" xlink:href="#DejaVuSans-38"/>
      </g>
     </g>
    </g>
    <g id="ytick_93">
     <g id="text_99">
      <!-- 39 -->
      <g transform="translate(27.9675 126.865145)scale(0.05 -0.05)">
       <use xlink:href="#DejaVuSans-33"/>
       <use x="63.623047" xlink:href="#DejaVuSans-39"/>
      </g>
     </g>
    </g>
    <g id="ytick_94">
     <g id="text_100">
      <!-- 40 -->
      <g transform="translate(27.9675 121.010502)scale(0.05 -0.05)">
       <use xlink:href="#DejaVuSans-34"/>
       <use x="63.623047" xlink:href="#DejaVuSans-30"/>
      </g>
     </g>
    </g>
    <g id="ytick_95">
     <g id="text_101">
      <!-- 41 -->
      <g transform="translate(27.9675 115.155859)scale(0.05 -0.05)">
       <use xlink:href="#DejaVuSans-34"/>
       <use x="63.623047" xlink:href="#DejaVuSans-31"/>
      </g>
     </g>
    </g>
    <g id="ytick_96">
     <g id="text_102">
      <!-- 42 -->
      <g transform="translate(27.9675 109.301217)scale(0.05 -0.05)">
       <use xlink:href="#DejaVuSans-34"/>
       <use x="63.623047" xlink:href="#DejaVuSans-32"/>
      </g>
     </g>
    </g>
    <g id="ytick_97">
     <g id="text_103">
      <!-- 34 -->
      <g transform="translate(27.9675 103.446574)scale(0.05 -0.05)">
       <use xlink:href="#DejaVuSans-33"/>
       <use x="63.623047" xlink:href="#DejaVuSans-34"/>
      </g>
     </g>
    </g>
    <g id="ytick_98">
     <g id="text_104">
      <!-- 37 -->
      <g transform="translate(27.9675 97.591931)scale(0.05 -0.05)">
       <use xlink:href="#DejaVuSans-33"/>
       <use x="63.623047" xlink:href="#DejaVuSans-37"/>
      </g>
     </g>
    </g>
    <g id="ytick_99">
     <g id="text_105">
      <!-- 35 -->
      <g transform="translate(27.9675 91.737288)scale(0.05 -0.05)">
       <use xlink:href="#DejaVuSans-33"/>
       <use x="63.623047" xlink:href="#DejaVuSans-35"/>
      </g>
     </g>
    </g>
    <g id="ytick_100">
     <g id="text_106">
      <!-- 36 -->
      <g transform="translate(27.9675 85.882645)scale(0.05 -0.05)">
       <use xlink:href="#DejaVuSans-33"/>
       <use x="63.623047" xlink:href="#DejaVuSans-36"/>
      </g>
     </g>
    </g>
    <g id="ytick_101">
     <g id="text_107">
      <!-- 103 -->
      <g transform="translate(24.78625 80.028002)scale(0.05 -0.05)">
       <use xlink:href="#DejaVuSans-31"/>
       <use x="63.623047" xlink:href="#DejaVuSans-30"/>
       <use x="127.246094" xlink:href="#DejaVuSans-33"/>
      </g>
     </g>
    </g>
    <g id="ytick_102">
     <g id="text_108">
      <!-- 104 -->
      <g transform="translate(24.78625 74.173359)scale(0.05 -0.05)">
       <use xlink:href="#DejaVuSans-31"/>
       <use x="63.623047" xlink:href="#DejaVuSans-30"/>
       <use x="127.246094" xlink:href="#DejaVuSans-34"/>
      </g>
     </g>
    </g>
    <g id="ytick_103">
     <g id="text_109">
      <!-- 91 -->
      <g transform="translate(27.9675 68.318717)scale(0.05 -0.05)">
       <use xlink:href="#DejaVuSans-39"/>
       <use x="63.623047" xlink:href="#DejaVuSans-31"/>
      </g>
     </g>
    </g>
    <g id="ytick_104">
     <g id="text_110">
      <!-- 54 -->
      <g transform="translate(27.9675 62.464074)scale(0.05 -0.05)">
       <use xlink:href="#DejaVuSans-35"/>
       <use x="63.623047" xlink:href="#DejaVuSans-34"/>
      </g>
     </g>
    </g>
    <g id="ytick_105">
     <g id="text_111">
      <!-- 13 -->
      <g transform="translate(27.9675 56.609431)scale(0.05 -0.05)">
       <use xlink:href="#DejaVuSans-31"/>
       <use x="63.623047" xlink:href="#DejaVuSans-33"/>
      </g>
     </g>
    </g>
    <g id="ytick_106">
     <g id="text_112">
      <!-- 14 -->
      <g transform="translate(27.9675 50.754788)scale(0.05 -0.05)">
       <use xlink:href="#DejaVuSans-31"/>
       <use x="63.623047" xlink:href="#DejaVuSans-34"/>
      </g>
     </g>
    </g>
    <g id="ytick_107">
     <g id="text_113">
      <!-- 15 -->
      <g transform="translate(27.9675 44.900145)scale(0.05 -0.05)">
       <use xlink:href="#DejaVuSans-31"/>
       <use x="63.623047" xlink:href="#DejaVuSans-35"/>
      </g>
     </g>
    </g>
    <g id="ytick_108">
     <g id="text_114">
      <!-- 16 -->
      <g transform="translate(27.9675 39.045502)scale(0.05 -0.05)">
       <use xlink:href="#DejaVuSans-31"/>
       <use x="63.623047" xlink:href="#DejaVuSans-36"/>
      </g>
     </g>
    </g>
    <g id="ytick_109">
     <g id="text_115">
      <!-- 17 -->
      <g transform="translate(27.9675 33.190859)scale(0.05 -0.05)">
       <use xlink:href="#DejaVuSans-31"/>
       <use x="63.623047" xlink:href="#DejaVuSans-37"/>
      </g>
     </g>
    </g>
    <g id="ytick_110">
     <g id="text_116">
      <!-- 12 -->
      <g transform="translate(27.9675 27.336217)scale(0.05 -0.05)">
       <use xlink:href="#DejaVuSans-31"/>
       <use x="63.623047" xlink:href="#DejaVuSans-32"/>
      </g>
     </g>
    </g>
    <g id="ytick_111">
     <g id="text_117">
      <!-- 10 -->
      <g transform="translate(27.9675 21.481574)scale(0.05 -0.05)">
       <use xlink:href="#DejaVuSans-31"/>
       <use x="63.623047" xlink:href="#DejaVuSans-30"/>
      </g>
     </g>
    </g>
    <g id="ytick_112">
     <g id="text_118">
      <!-- 11 -->
      <g transform="translate(27.9675 15.626931)scale(0.05 -0.05)">
       <use xlink:href="#DejaVuSans-31"/>
       <use x="63.623047" xlink:href="#DejaVuSans-31"/>
      </g>
     </g>
    </g>
    <g id="text_119">
     <!-- Experiment entry -->
     <g transform="translate(18.706562 382.359219)rotate(-90)scale(0.1 -0.1)">
      <defs>
       <path d="M 628 4666 
L 3578 4666 
L 3578 4134 
L 1259 4134 
L 1259 2753 
L 3481 2753 
L 3481 2222 
L 1259 2222 
L 1259 531 
L 3634 531 
L 3634 0 
L 628 0 
L 628 4666 
z
" id="DejaVuSans-45" transform="scale(0.015625)"/>
       <path d="M 3513 3500 
L 2247 1797 
L 3578 0 
L 2900 0 
L 1881 1375 
L 863 0 
L 184 0 
L 1544 1831 
L 300 3500 
L 978 3500 
L 1906 2253 
L 2834 3500 
L 3513 3500 
z
" id="DejaVuSans-78" transform="scale(0.015625)"/>
       <path d="M 1159 525 
L 1159 -1331 
L 581 -1331 
L 581 3500 
L 1159 3500 
L 1159 2969 
Q 1341 3281 1617 3432 
Q 1894 3584 2278 3584 
Q 2916 3584 3314 3078 
Q 3713 2572 3713 1747 
Q 3713 922 3314 415 
Q 2916 -91 2278 -91 
Q 1894 -91 1617 61 
Q 1341 213 1159 525 
z
M 3116 1747 
Q 3116 2381 2855 2742 
Q 2594 3103 2138 3103 
Q 1681 3103 1420 2742 
Q 1159 2381 1159 1747 
Q 1159 1113 1420 752 
Q 1681 391 2138 391 
Q 2594 391 2855 752 
Q 3116 1113 3116 1747 
z
" id="DejaVuSans-70" transform="scale(0.015625)"/>
       <path d="M 3328 2828 
Q 3544 3216 3844 3400 
Q 4144 3584 4550 3584 
Q 5097 3584 5394 3201 
Q 5691 2819 5691 2113 
L 5691 0 
L 5113 0 
L 5113 2094 
Q 5113 2597 4934 2840 
Q 4756 3084 4391 3084 
Q 3944 3084 3684 2787 
Q 3425 2491 3425 1978 
L 3425 0 
L 2847 0 
L 2847 2094 
Q 2847 2600 2669 2842 
Q 2491 3084 2119 3084 
Q 1678 3084 1418 2786 
Q 1159 2488 1159 1978 
L 1159 0 
L 581 0 
L 581 3500 
L 1159 3500 
L 1159 2956 
Q 1356 3278 1631 3431 
Q 1906 3584 2284 3584 
Q 2666 3584 2933 3390 
Q 3200 3197 3328 2828 
z
" id="DejaVuSans-6d" transform="scale(0.015625)"/>
       <path d="M 2059 -325 
Q 1816 -950 1584 -1140 
Q 1353 -1331 966 -1331 
L 506 -1331 
L 506 -850 
L 844 -850 
Q 1081 -850 1212 -737 
Q 1344 -625 1503 -206 
L 1606 56 
L 191 3500 
L 800 3500 
L 1894 763 
L 2988 3500 
L 3597 3500 
L 2059 -325 
z
" id="DejaVuSans-79" transform="scale(0.015625)"/>
      </defs>
      <use xlink:href="#DejaVuSans-45"/>
      <use x="63.183594" xlink:href="#DejaVuSans-78"/>
      <use x="122.363281" xlink:href="#DejaVuSans-70"/>
      <use x="185.839844" xlink:href="#DejaVuSans-65"/>
      <use x="247.363281" xlink:href="#DejaVuSans-72"/>
      <use x="288.476562" xlink:href="#DejaVuSans-69"/>
      <use x="316.259766" xlink:href="#DejaVuSans-6d"/>
      <use x="413.671875" xlink:href="#DejaVuSans-65"/>
      <use x="475.195312" xlink:href="#DejaVuSans-6e"/>
      <use x="538.574219" xlink:href="#DejaVuSans-74"/>
      <use x="577.783203" xlink:href="#DejaVuSans-20"/>
      <use x="609.570312" xlink:href="#DejaVuSans-65"/>
      <use x="671.09375" xlink:href="#DejaVuSans-6e"/>
      <use x="734.472656" xlink:href="#DejaVuSans-74"/>
      <use x="773.681641" xlink:href="#DejaVuSans-72"/>
      <use x="814.794922" xlink:href="#DejaVuSans-79"/>
     </g>
    </g>
   </g>
   <g id="LineCollection_1">
    <path clip-path="url(#pc028af5a0d)" d="M 41.33 663.592679 
L 47.824288 663.592679 
L 47.824288 657.738036 
L 41.33 657.738036 
" style="fill:none;stroke:#000000;stroke-width:1.5;"/>
    <path clip-path="url(#pc028af5a0d)" d="M 41.33 651.883393 
L 50.027246 651.883393 
L 50.027246 646.02875 
L 41.33 646.02875 
" style="fill:none;stroke:#000000;stroke-width:1.5;"/>
    <path clip-path="url(#pc028af5a0d)" d="M 47.824288 660.665357 
L 205.410684 660.665357 
L 205.410684 648.956071 
L 50.027246 648.956071 
" style="fill:none;stroke:#000000;stroke-width:1.5;"/>
    <path clip-path="url(#pc028af5a0d)" d="M 41.33 628.464821 
L 44.088067 628.464821 
L 44.088067 622.610179 
L 41.33 622.610179 
" style="fill:none;stroke:#000000;stroke-width:1.5;"/>
    <path clip-path="url(#pc028af5a0d)" d="M 41.33 634.319464 
L 49.344816 634.319464 
L 49.344816 625.5375 
L 44.088067 625.5375 
" style="fill:none;stroke:#000000;stroke-width:1.5;"/>
    <path clip-path="url(#pc028af5a0d)" d="M 41.33 616.755536 
L 45.603232 616.755536 
L 45.603232 610.900893 
L 41.33 610.900893 
" style="fill:none;stroke:#000000;stroke-width:1.5;"/>
    <path clip-path="url(#pc028af5a0d)" d="M 41.33 605.04625 
L 43.588269 605.04625 
L 43.588269 599.191607 
L 41.33 599.191607 
" style="fill:none;stroke:#000000;stroke-width:1.5;"/>
    <path clip-path="url(#pc028af5a0d)" d="M 41.33 581.627679 
L 41.770867 581.627679 
L 41.770867 575.773036 
L 41.33 575.773036 
" style="fill:none;stroke:#000000;stroke-width:1.5;"/>
    <path clip-path="url(#pc028af5a0d)" d="M 41.33 569.918393 
L 43.229745 569.918393 
L 43.229745 564.06375 
L 41.33 564.06375 
" style="fill:none;stroke:#000000;stroke-width:1.5;"/>
    <path clip-path="url(#pc028af5a0d)" d="M 41.770867 578.700357 
L 46.84188 578.700357 
L 46.84188 566.991071 
L 43.229745 566.991071 
" style="fill:none;stroke:#000000;stroke-width:1.5;"/>
    <path clip-path="url(#pc028af5a0d)" d="M 41.33 587.482321 
L 48.628773 587.482321 
L 48.628773 572.845714 
L 46.84188 572.845714 
" style="fill:none;stroke:#000000;stroke-width:1.5;"/>
    <path clip-path="url(#pc028af5a0d)" d="M 41.33 593.336964 
L 52.895394 593.336964 
L 52.895394 580.164018 
L 48.628773 580.164018 
" style="fill:none;stroke:#000000;stroke-width:1.5;"/>
    <path clip-path="url(#pc028af5a0d)" d="M 43.588269 602.118929 
L 55.038469 602.118929 
L 55.038469 586.750491 
L 52.895394 586.750491 
" style="fill:none;stroke:#000000;stroke-width:1.5;"/>
    <path clip-path="url(#pc028af5a0d)" d="M 45.603232 613.828214 
L 74.049562 613.828214 
L 74.049562 594.43471 
L 55.038469 594.43471 
" style="fill:none;stroke:#000000;stroke-width:1.5;"/>
    <path clip-path="url(#pc028af5a0d)" d="M 49.344816 629.928482 
L 83.605691 629.928482 
L 83.605691 604.131462 
L 74.049562 604.131462 
" style="fill:none;stroke:#000000;stroke-width:1.5;"/>
    <path clip-path="url(#pc028af5a0d)" d="M 41.33 640.174107 
L 103.35659 640.174107 
L 103.35659 617.029972 
L 83.605691 617.029972 
" style="fill:none;stroke:#000000;stroke-width:1.5;"/>
    <path clip-path="url(#pc028af5a0d)" d="M 41.33 558.209107 
L 66.340455 558.209107 
L 66.340455 552.354464 
L 41.33 552.354464 
" style="fill:none;stroke:#000000;stroke-width:1.5;"/>
    <path clip-path="url(#pc028af5a0d)" d="M 41.33 540.645179 
L 44.379308 540.645179 
L 44.379308 534.790536 
L 41.33 534.790536 
" style="fill:none;stroke:#000000;stroke-width:1.5;"/>
    <path clip-path="url(#pc028af5a0d)" d="M 41.33 546.499821 
L 51.475891 546.499821 
L 51.475891 537.717857 
L 44.379308 537.717857 
" style="fill:none;stroke:#000000;stroke-width:1.5;"/>
    <path clip-path="url(#pc028af5a0d)" d="M 41.33 523.08125 
L 44.459772 523.08125 
L 44.459772 517.226607 
L 41.33 517.226607 
" style="fill:none;stroke:#000000;stroke-width:1.5;"/>
    <path clip-path="url(#pc028af5a0d)" d="M 41.33 528.935893 
L 72.859426 528.935893 
L 72.859426 520.153929 
L 44.459772 520.153929 
" style="fill:none;stroke:#000000;stroke-width:1.5;"/>
    <path clip-path="url(#pc028af5a0d)" d="M 51.475891 542.108839 
L 75.327052 542.108839 
L 75.327052 524.544911 
L 72.859426 524.544911 
" style="fill:none;stroke:#000000;stroke-width:1.5;"/>
    <path clip-path="url(#pc028af5a0d)" d="M 41.33 505.517321 
L 42.532045 505.517321 
L 42.532045 499.662679 
L 41.33 499.662679 
" style="fill:none;stroke:#000000;stroke-width:1.5;"/>
    <path clip-path="url(#pc028af5a0d)" d="M 41.33 487.953393 
L 41.381445 487.953393 
L 41.381445 482.09875 
L 41.33 482.09875 
" style="fill:none;stroke:#000000;stroke-width:1.5;"/>
    <path clip-path="url(#pc028af5a0d)" d="M 41.33 476.244107 
L 41.421623 476.244107 
L 41.421623 470.389464 
L 41.33 470.389464 
" style="fill:none;stroke:#000000;stroke-width:1.5;"/>
    <path clip-path="url(#pc028af5a0d)" d="M 41.381445 485.026071 
L 41.433117 485.026071 
L 41.433117 473.316786 
L 41.421623 473.316786 
" style="fill:none;stroke:#000000;stroke-width:1.5;"/>
    <path clip-path="url(#pc028af5a0d)" d="M 41.33 464.534821 
L 41.37183 464.534821 
L 41.37183 458.680179 
L 41.33 458.680179 
" style="fill:none;stroke:#000000;stroke-width:1.5;"/>
    <path clip-path="url(#pc028af5a0d)" d="M 41.33 452.825536 
L 41.411404 452.825536 
L 41.411404 446.970893 
L 41.33 446.970893 
" style="fill:none;stroke:#000000;stroke-width:1.5;"/>
    <path clip-path="url(#pc028af5a0d)" d="M 41.37183 461.6075 
L 41.484896 461.6075 
L 41.484896 449.898214 
L 41.411404 449.898214 
" style="fill:none;stroke:#000000;stroke-width:1.5;"/>
    <path clip-path="url(#pc028af5a0d)" d="M 41.433117 479.171429 
L 41.539435 479.171429 
L 41.539435 455.752857 
L 41.484896 455.752857 
" style="fill:none;stroke:#000000;stroke-width:1.5;"/>
    <path clip-path="url(#pc028af5a0d)" d="M 41.33 493.808036 
L 41.810344 493.808036 
L 41.810344 467.462143 
L 41.539435 467.462143 
" style="fill:none;stroke:#000000;stroke-width:1.5;"/>
    <path clip-path="url(#pc028af5a0d)" d="M 41.33 429.406964 
L 41.375451 429.406964 
L 41.375451 423.552321 
L 41.33 423.552321 
" style="fill:none;stroke:#000000;stroke-width:1.5;"/>
    <path clip-path="url(#pc028af5a0d)" d="M 41.33 405.988393 
L 41.334456 405.988393 
L 41.334456 400.13375 
L 41.33 400.13375 
" style="fill:none;stroke:#000000;stroke-width:1.5;"/>
    <path clip-path="url(#pc028af5a0d)" d="M 41.33 411.843036 
L 41.35593 411.843036 
L 41.35593 403.061071 
L 41.334456 403.061071 
" style="fill:none;stroke:#000000;stroke-width:1.5;"/>
    <path clip-path="url(#pc028af5a0d)" d="M 41.33 394.279107 
L 41.358737 394.279107 
L 41.358737 388.424464 
L 41.33 388.424464 
" style="fill:none;stroke:#000000;stroke-width:1.5;"/>
    <path clip-path="url(#pc028af5a0d)" d="M 41.35593 407.452054 
L 41.427163 407.452054 
L 41.427163 391.351786 
L 41.358737 391.351786 
" style="fill:none;stroke:#000000;stroke-width:1.5;"/>
    <path clip-path="url(#pc028af5a0d)" d="M 41.33 417.697679 
L 41.513209 417.697679 
L 41.513209 399.40192 
L 41.427163 399.40192 
" style="fill:none;stroke:#000000;stroke-width:1.5;"/>
    <path clip-path="url(#pc028af5a0d)" d="M 41.375451 426.479643 
L 41.540837 426.479643 
L 41.540837 408.549799 
L 41.513209 408.549799 
" style="fill:none;stroke:#000000;stroke-width:1.5;"/>
    <path clip-path="url(#pc028af5a0d)" d="M 41.33 435.261607 
L 41.704445 435.261607 
L 41.704445 417.514721 
L 41.540837 417.514721 
" style="fill:none;stroke:#000000;stroke-width:1.5;"/>
    <path clip-path="url(#pc028af5a0d)" d="M 41.33 441.11625 
L 42.00475 441.11625 
L 42.00475 426.388164 
L 41.704445 426.388164 
" style="fill:none;stroke:#000000;stroke-width:1.5;"/>
    <path clip-path="url(#pc028af5a0d)" d="M 41.810344 480.635089 
L 42.459997 480.635089 
L 42.459997 433.752207 
L 42.00475 433.752207 
" style="fill:none;stroke:#000000;stroke-width:1.5;"/>
    <path clip-path="url(#pc028af5a0d)" d="M 41.33 365.005893 
L 41.339585 365.005893 
L 41.339585 359.15125 
L 41.33 359.15125 
" style="fill:none;stroke:#000000;stroke-width:1.5;"/>
    <path clip-path="url(#pc028af5a0d)" d="M 41.33 353.296607 
L 41.364283 353.296607 
L 41.364283 347.441964 
L 41.33 347.441964 
" style="fill:none;stroke:#000000;stroke-width:1.5;"/>
    <path clip-path="url(#pc028af5a0d)" d="M 41.339585 362.078571 
L 41.425519 362.078571 
L 41.425519 350.369286 
L 41.364283 350.369286 
" style="fill:none;stroke:#000000;stroke-width:1.5;"/>
    <path clip-path="url(#pc028af5a0d)" d="M 41.33 335.732679 
L 41.3371 335.732679 
L 41.3371 329.878036 
L 41.33 329.878036 
" style="fill:none;stroke:#000000;stroke-width:1.5;"/>
    <path clip-path="url(#pc028af5a0d)" d="M 41.33 341.587321 
L 41.45501 341.587321 
L 41.45501 332.805357 
L 41.3371 332.805357 
" style="fill:none;stroke:#000000;stroke-width:1.5;"/>
    <path clip-path="url(#pc028af5a0d)" d="M 41.425519 356.223929 
L 41.489857 356.223929 
L 41.489857 337.196339 
L 41.45501 337.196339 
" style="fill:none;stroke:#000000;stroke-width:1.5;"/>
    <path clip-path="url(#pc028af5a0d)" d="M 41.33 318.16875 
L 41.346469 318.16875 
L 41.346469 312.314107 
L 41.33 312.314107 
" style="fill:none;stroke:#000000;stroke-width:1.5;"/>
    <path clip-path="url(#pc028af5a0d)" d="M 41.33 306.459464 
L 41.346892 306.459464 
L 41.346892 300.604821 
L 41.33 300.604821 
" style="fill:none;stroke:#000000;stroke-width:1.5;"/>
    <path clip-path="url(#pc028af5a0d)" d="M 41.346469 315.241429 
L 41.377668 315.241429 
L 41.377668 303.532143 
L 41.346892 303.532143 
" style="fill:none;stroke:#000000;stroke-width:1.5;"/>
    <path clip-path="url(#pc028af5a0d)" d="M 41.33 283.040893 
L 41.337092 283.040893 
L 41.337092 277.18625 
L 41.33 277.18625 
" style="fill:none;stroke:#000000;stroke-width:1.5;"/>
    <path clip-path="url(#pc028af5a0d)" d="M 41.33 288.895536 
L 41.384525 288.895536 
L 41.384525 280.113571 
L 41.337092 280.113571 
" style="fill:none;stroke:#000000;stroke-width:1.5;"/>
    <path clip-path="url(#pc028af5a0d)" d="M 41.33 294.750179 
L 41.403934 294.750179 
L 41.403934 284.504554 
L 41.384525 284.504554 
" style="fill:none;stroke:#000000;stroke-width:1.5;"/>
    <path clip-path="url(#pc028af5a0d)" d="M 41.377668 309.386786 
L 41.483393 309.386786 
L 41.483393 289.627366 
L 41.403934 289.627366 
" style="fill:none;stroke:#000000;stroke-width:1.5;"/>
    <path clip-path="url(#pc028af5a0d)" d="M 41.33 324.023393 
L 41.560675 324.023393 
L 41.560675 299.507076 
L 41.483393 299.507076 
" style="fill:none;stroke:#000000;stroke-width:1.5;"/>
    <path clip-path="url(#pc028af5a0d)" d="M 41.489857 346.710134 
L 41.851443 346.710134 
L 41.851443 311.765234 
L 41.560675 311.765234 
" style="fill:none;stroke:#000000;stroke-width:1.5;"/>
    <path clip-path="url(#pc028af5a0d)" d="M 41.33 370.860536 
L 42.615003 370.860536 
L 42.615003 329.237684 
L 41.851443 329.237684 
" style="fill:none;stroke:#000000;stroke-width:1.5;"/>
    <path clip-path="url(#pc028af5a0d)" d="M 41.33 271.331607 
L 41.416678 271.331607 
L 41.416678 265.476964 
L 41.33 265.476964 
" style="fill:none;stroke:#000000;stroke-width:1.5;"/>
    <path clip-path="url(#pc028af5a0d)" d="M 41.33 253.767679 
L 41.401332 253.767679 
L 41.401332 247.913036 
L 41.33 247.913036 
" style="fill:none;stroke:#000000;stroke-width:1.5;"/>
    <path clip-path="url(#pc028af5a0d)" d="M 41.33 242.058393 
L 41.462652 242.058393 
L 41.462652 236.20375 
L 41.33 236.20375 
" style="fill:none;stroke:#000000;stroke-width:1.5;"/>
    <path clip-path="url(#pc028af5a0d)" d="M 41.401332 250.840357 
L 41.663379 250.840357 
L 41.663379 239.131071 
L 41.462652 239.131071 
" style="fill:none;stroke:#000000;stroke-width:1.5;"/>
    <path clip-path="url(#pc028af5a0d)" d="M 41.33 259.622321 
L 42.380224 259.622321 
L 42.380224 244.985714 
L 41.663379 244.985714 
" style="fill:none;stroke:#000000;stroke-width:1.5;"/>
    <path clip-path="url(#pc028af5a0d)" d="M 41.416678 268.404286 
L 42.677491 268.404286 
L 42.677491 252.304018 
L 42.380224 252.304018 
" style="fill:none;stroke:#000000;stroke-width:1.5;"/>
    <path clip-path="url(#pc028af5a0d)" d="M 42.615003 350.04911 
L 42.845718 350.04911 
L 42.845718 260.354152 
L 42.677491 260.354152 
" style="fill:none;stroke:#000000;stroke-width:1.5;"/>
    <path clip-path="url(#pc028af5a0d)" d="M 41.33 376.715179 
L 43.579805 376.715179 
L 43.579805 305.201631 
L 42.845718 305.201631 
" style="fill:none;stroke:#000000;stroke-width:1.5;"/>
    <path clip-path="url(#pc028af5a0d)" d="M 41.33 382.569821 
L 44.515602 382.569821 
L 44.515602 340.958405 
L 43.579805 340.958405 
" style="fill:none;stroke:#000000;stroke-width:1.5;"/>
    <path clip-path="url(#pc028af5a0d)" d="M 42.459997 457.193648 
L 44.818286 457.193648 
L 44.818286 361.764113 
L 44.515602 361.764113 
" style="fill:none;stroke:#000000;stroke-width:1.5;"/>
    <path clip-path="url(#pc028af5a0d)" d="M 42.532045 502.59 
L 46.109335 502.59 
L 46.109335 409.478881 
L 44.818286 409.478881 
" style="fill:none;stroke:#000000;stroke-width:1.5;"/>
    <path clip-path="url(#pc028af5a0d)" d="M 41.33 511.371964 
L 48.511584 511.371964 
L 48.511584 456.03444 
L 46.109335 456.03444 
" style="fill:none;stroke:#000000;stroke-width:1.5;"/>
    <path clip-path="url(#pc028af5a0d)" d="M 41.33 218.639821 
L 41.341728 218.639821 
L 41.341728 212.785179 
L 41.33 212.785179 
" style="fill:none;stroke:#000000;stroke-width:1.5;"/>
    <path clip-path="url(#pc028af5a0d)" d="M 41.33 224.494464 
L 41.356229 224.494464 
L 41.356229 215.7125 
L 41.341728 215.7125 
" style="fill:none;stroke:#000000;stroke-width:1.5;"/>
    <path clip-path="url(#pc028af5a0d)" d="M 41.33 230.349107 
L 41.43467 230.349107 
L 41.43467 220.103482 
L 41.356229 220.103482 
" style="fill:none;stroke:#000000;stroke-width:1.5;"/>
    <path clip-path="url(#pc028af5a0d)" d="M 41.33 195.22125 
L 41.456204 195.22125 
L 41.456204 189.366607 
L 41.33 189.366607 
" style="fill:none;stroke:#000000;stroke-width:1.5;"/>
    <path clip-path="url(#pc028af5a0d)" d="M 41.33 201.075893 
L 41.776511 201.075893 
L 41.776511 192.293929 
L 41.456204 192.293929 
" style="fill:none;stroke:#000000;stroke-width:1.5;"/>
    <path clip-path="url(#pc028af5a0d)" d="M 41.33 206.930536 
L 42.395481 206.930536 
L 42.395481 196.684911 
L 41.776511 196.684911 
" style="fill:none;stroke:#000000;stroke-width:1.5;"/>
    <path clip-path="url(#pc028af5a0d)" d="M 41.33 154.23875 
L 41.370265 154.23875 
L 41.370265 148.384107 
L 41.33 148.384107 
" style="fill:none;stroke:#000000;stroke-width:1.5;"/>
    <path clip-path="url(#pc028af5a0d)" d="M 41.33 160.093393 
L 41.431747 160.093393 
L 41.431747 151.311429 
L 41.370265 151.311429 
" style="fill:none;stroke:#000000;stroke-width:1.5;"/>
    <path clip-path="url(#pc028af5a0d)" d="M 41.33 165.948036 
L 41.526602 165.948036 
L 41.526602 155.702411 
L 41.431747 155.702411 
" style="fill:none;stroke:#000000;stroke-width:1.5;"/>
    <path clip-path="url(#pc028af5a0d)" d="M 41.33 171.802679 
L 41.649286 171.802679 
L 41.649286 160.825223 
L 41.526602 160.825223 
" style="fill:none;stroke:#000000;stroke-width:1.5;"/>
    <path clip-path="url(#pc028af5a0d)" d="M 41.33 177.657321 
L 41.908867 177.657321 
L 41.908867 166.313951 
L 41.649286 166.313951 
" style="fill:none;stroke:#000000;stroke-width:1.5;"/>
    <path clip-path="url(#pc028af5a0d)" d="M 41.33 183.511964 
L 42.59843 183.511964 
L 42.59843 171.985636 
L 41.908867 171.985636 
" style="fill:none;stroke:#000000;stroke-width:1.5;"/>
    <path clip-path="url(#pc028af5a0d)" d="M 42.395481 201.807723 
L 43.691928 201.807723 
L 43.691928 177.7488 
L 42.59843 177.7488 
" style="fill:none;stroke:#000000;stroke-width:1.5;"/>
    <path clip-path="url(#pc028af5a0d)" d="M 41.33 142.529464 
L 41.485151 142.529464 
L 41.485151 136.674821 
L 41.33 136.674821 
" style="fill:none;stroke:#000000;stroke-width:1.5;"/>
    <path clip-path="url(#pc028af5a0d)" d="M 41.33 130.820179 
L 41.342396 130.820179 
L 41.342396 124.965536 
L 41.33 124.965536 
" style="fill:none;stroke:#000000;stroke-width:1.5;"/>
    <path clip-path="url(#pc028af5a0d)" d="M 41.33 113.25625 
L 41.337536 113.25625 
L 41.337536 107.401607 
L 41.33 107.401607 
" style="fill:none;stroke:#000000;stroke-width:1.5;"/>
    <path clip-path="url(#pc028af5a0d)" d="M 41.33 119.110893 
L 41.388187 119.110893 
L 41.388187 110.328929 
L 41.337536 110.328929 
" style="fill:none;stroke:#000000;stroke-width:1.5;"/>
    <path clip-path="url(#pc028af5a0d)" d="M 41.342396 127.892857 
L 41.444544 127.892857 
L 41.444544 114.719911 
L 41.388187 114.719911 
" style="fill:none;stroke:#000000;stroke-width:1.5;"/>
    <path clip-path="url(#pc028af5a0d)" d="M 41.33 101.546964 
L 41.340932 101.546964 
L 41.340932 95.692321 
L 41.33 95.692321 
" style="fill:none;stroke:#000000;stroke-width:1.5;"/>
    <path clip-path="url(#pc028af5a0d)" d="M 41.33 89.837679 
L 41.342345 89.837679 
L 41.342345 83.983036 
L 41.33 83.983036 
" style="fill:none;stroke:#000000;stroke-width:1.5;"/>
    <path clip-path="url(#pc028af5a0d)" d="M 41.340932 98.619643 
L 41.382959 98.619643 
L 41.382959 86.910357 
L 41.342345 86.910357 
" style="fill:none;stroke:#000000;stroke-width:1.5;"/>
    <path clip-path="url(#pc028af5a0d)" d="M 41.33 78.128393 
L 41.654021 78.128393 
L 41.654021 72.27375 
L 41.33 72.27375 
" style="fill:none;stroke:#000000;stroke-width:1.5;"/>
    <path clip-path="url(#pc028af5a0d)" d="M 41.382959 92.765 
L 42.175573 92.765 
L 42.175573 75.201071 
L 41.654021 75.201071 
" style="fill:none;stroke:#000000;stroke-width:1.5;"/>
    <path clip-path="url(#pc028af5a0d)" d="M 41.444544 121.306384 
L 43.58253 121.306384 
L 43.58253 83.983036 
L 42.175573 83.983036 
" style="fill:none;stroke:#000000;stroke-width:1.5;"/>
    <path clip-path="url(#pc028af5a0d)" d="M 41.485151 139.602143 
L 44.722875 139.602143 
L 44.722875 102.64471 
L 43.58253 102.64471 
" style="fill:none;stroke:#000000;stroke-width:1.5;"/>
    <path clip-path="url(#pc028af5a0d)" d="M 43.691928 189.778262 
L 45.893784 189.778262 
L 45.893784 121.123426 
L 44.722875 121.123426 
" style="fill:none;stroke:#000000;stroke-width:1.5;"/>
    <path clip-path="url(#pc028af5a0d)" d="M 41.43467 225.226295 
L 49.807181 225.226295 
L 49.807181 155.450844 
L 45.893784 155.450844 
" style="fill:none;stroke:#000000;stroke-width:1.5;"/>
    <path clip-path="url(#pc028af5a0d)" d="M 48.511584 483.703202 
L 51.959999 483.703202 
L 51.959999 190.338569 
L 49.807181 190.338569 
" style="fill:none;stroke:#000000;stroke-width:1.5;"/>
    <path clip-path="url(#pc028af5a0d)" d="M 41.33 54.709821 
L 42.721456 54.709821 
L 42.721456 48.855179 
L 41.33 48.855179 
" style="fill:none;stroke:#000000;stroke-width:1.5;"/>
    <path clip-path="url(#pc028af5a0d)" d="M 41.33 37.145893 
L 41.723763 37.145893 
L 41.723763 31.29125 
L 41.33 31.29125 
" style="fill:none;stroke:#000000;stroke-width:1.5;"/>
    <path clip-path="url(#pc028af5a0d)" d="M 41.33 19.581964 
L 41.883522 19.581964 
L 41.883522 13.727321 
L 41.33 13.727321 
" style="fill:none;stroke:#000000;stroke-width:1.5;"/>
    <path clip-path="url(#pc028af5a0d)" d="M 41.33 25.436607 
L 42.271884 25.436607 
L 42.271884 16.654643 
L 41.883522 16.654643 
" style="fill:none;stroke:#000000;stroke-width:1.5;"/>
    <path clip-path="url(#pc028af5a0d)" d="M 41.723763 34.218571 
L 42.969016 34.218571 
L 42.969016 21.045625 
L 42.271884 21.045625 
" style="fill:none;stroke:#000000;stroke-width:1.5;"/>
    <path clip-path="url(#pc028af5a0d)" d="M 41.33 43.000536 
L 43.44965 43.000536 
L 43.44965 27.632098 
L 42.969016 27.632098 
" style="fill:none;stroke:#000000;stroke-width:1.5;"/>
    <path clip-path="url(#pc028af5a0d)" d="M 42.721456 51.7825 
L 46.095804 51.7825 
L 46.095804 35.316317 
L 43.44965 35.316317 
" style="fill:none;stroke:#000000;stroke-width:1.5;"/>
    <path clip-path="url(#pc028af5a0d)" d="M 41.33 60.564464 
L 63.949257 60.564464 
L 63.949257 43.549408 
L 46.095804 43.549408 
" style="fill:none;stroke:#000000;stroke-width:1.5;"/>
    <path clip-path="url(#pc028af5a0d)" d="M 41.33 66.419107 
L 82.96189 66.419107 
L 82.96189 52.056936 
L 63.949257 52.056936 
" style="fill:none;stroke:#000000;stroke-width:1.5;"/>
    <path clip-path="url(#pc028af5a0d)" d="M 51.959999 337.020886 
L 85.818144 337.020886 
L 85.818144 59.238022 
L 82.96189 59.238022 
" style="fill:none;stroke:#000000;stroke-width:1.5;"/>
    <path clip-path="url(#pc028af5a0d)" d="M 75.327052 533.326875 
L 136.678382 533.326875 
L 136.678382 198.129454 
L 85.818144 198.129454 
" style="fill:none;stroke:#000000;stroke-width:1.5;"/>
    <path clip-path="url(#pc028af5a0d)" d="M 66.340455 555.281786 
L 168.956002 555.281786 
L 168.956002 365.728164 
L 136.678382 365.728164 
" style="fill:none;stroke:#000000;stroke-width:1.5;"/>
    <path clip-path="url(#pc028af5a0d)" d="M 103.35659 628.60204 
L 417.457827 628.60204 
L 417.457827 460.504975 
L 168.956002 460.504975 
" style="fill:none;stroke:#000000;stroke-width:1.5;"/>
    <path clip-path="url(#pc028af5a0d)" d="M 205.410684 654.810714 
L 477.168095 654.810714 
L 477.168095 544.553507 
L 417.457827 544.553507 
" style="fill:none;stroke:#000000;stroke-width:1.5;"/>
   </g>
   <g id="patch_3">
    <path d="M 41.33 666.52 
L 41.33 10.8 
" style="fill:none;stroke:#000000;stroke-linecap:square;stroke-linejoin:miter;stroke-width:0.8;"/>
   </g>
   <g id="patch_4">
    <path d="M 498.96 666.52 
L 498.96 10.8 
" style="fill:none;stroke:#000000;stroke-linecap:square;stroke-linejoin:miter;stroke-width:0.8;"/>
   </g>
   <g id="patch_5">
    <path d="M 41.33 666.52 
L 498.96 666.52 
" style="fill:none;stroke:#000000;stroke-linecap:square;stroke-linejoin:miter;stroke-width:0.8;"/>
   </g>
   <g id="patch_6">
    <path d="M 41.33 10.8 
L 498.96 10.8 
" style="fill:none;stroke:#000000;stroke-linecap:square;stroke-linejoin:miter;stroke-width:0.8;"/>
   </g>
  </g>
 </g>
 <defs>
  <clipPath id="pc028af5a0d">
   <rect height="655.72" width="457.63" x="41.33" y="10.8"/>
  </clipPath>
 </defs>
</svg>
