<?xml version="1.0" encoding="utf-8" standalone="no"?>
<!DOCTYPE svg PUBLIC "-//W3C//DTD SVG 1.1//EN"
  "http://www.w3.org/Graphics/SVG/1.1/DTD/svg11.dtd">
<svg height="70.56pt" version="1.1" viewBox="0 0 104.4 70.56" width="104.4pt" xmlns="http://www.w3.org/2000/svg" xmlns:xlink="http://www.w3.org/1999/xlink">
 <metadata>
  <rdf:RDF xmlns:cc="http://creativecommons.org/ns#" xmlns:dc="http://purl.org/dc/elements/1.1/" xmlns:rdf="http://www.w3.org/1999/02/22-rdf-syntax-ns#">
   <cc:Work>
    <dc:type rdf:resource="http://purl.org/dc/dcmitype/StillImage"/>
    <dc:date>2021-11-12T10:04:39.901358</dc:date>
    <dc:format>image/svg+xml</dc:format>
    <dc:creator>
     <cc:Agent>
      <dc:title>Matplotlib v3.4.1, https://matplotlib.org/</dc:title>
     </cc:Agent>
    </dc:creator>
   </cc:Work>
  </rdf:RDF>
 </metadata>
 <defs>
  <style type="text/css">*{stroke-linecap:butt;stroke-linejoin:round;}</style>
 </defs>
 <g id="figure_1">
  <g id="patch_1">
   <path d="M 0 70.56 
L 104.4 70.56 
L 104.4 0 
L 0 0 
z
" style="fill:#ffffff;"/>
  </g>
  <g id="axes_1">
   <g id="patch_2">
    <path d="M 10.44 49.392 
L 93.96 49.392 
L 93.96 0 
L 10.44 0 
z
" style="fill:#ffffff;"/>
   </g>
   <g id="matplotlib.axis_1">
    <g id="xtick_1">
     <g id="line2d_1">
      <defs>
       <path d="M 0 0 
L 0 0.5 
" id="ma3e2866c49" style="stroke:#000000;stroke-width:0.8;"/>
      </defs>
      <g>
       <use style="stroke:#000000;stroke-width:0.8;" x="39.802661" xlink:href="#ma3e2866c49" y="49.392"/>
      </g>
     </g>
     <g id="text_1">
      <!-- 1.25 -->
      <g transform="translate(33.122973 57.951063)scale(0.06 -0.06)">
       <defs>
        <path d="M 794 531 
L 1825 531 
L 1825 4091 
L 703 3866 
L 703 4441 
L 1819 4666 
L 2450 4666 
L 2450 531 
L 3481 531 
L 3481 0 
L 794 0 
L 794 531 
z
" id="DejaVuSans-31" transform="scale(0.015625)"/>
        <path d="M 684 794 
L 1344 794 
L 1344 0 
L 684 0 
L 684 794 
z
" id="DejaVuSans-2e" transform="scale(0.015625)"/>
        <path d="M 1228 531 
L 3431 531 
L 3431 0 
L 469 0 
L 469 531 
Q 828 903 1448 1529 
Q 2069 2156 2228 2338 
Q 2531 2678 2651 2914 
Q 2772 3150 2772 3378 
Q 2772 3750 2511 3984 
Q 2250 4219 1831 4219 
Q 1534 4219 1204 4116 
Q 875 4013 500 3803 
L 500 4441 
Q 881 4594 1212 4672 
Q 1544 4750 1819 4750 
Q 2544 4750 2975 4387 
Q 3406 4025 3406 3419 
Q 3406 3131 3298 2873 
Q 3191 2616 2906 2266 
Q 2828 2175 2409 1742 
Q 1991 1309 1228 531 
z
" id="DejaVuSans-32" transform="scale(0.015625)"/>
        <path d="M 691 4666 
L 3169 4666 
L 3169 4134 
L 1269 4134 
L 1269 2991 
Q 1406 3038 1543 3061 
Q 1681 3084 1819 3084 
Q 2600 3084 3056 2656 
Q 3513 2228 3513 1497 
Q 3513 744 3044 326 
Q 2575 -91 1722 -91 
Q 1428 -91 1123 -41 
Q 819 9 494 109 
L 494 744 
Q 775 591 1075 516 
Q 1375 441 1709 441 
Q 2250 441 2565 725 
Q 2881 1009 2881 1497 
Q 2881 1984 2565 2268 
Q 2250 2553 1709 2553 
Q 1456 2553 1204 2497 
Q 953 2441 691 2322 
L 691 4666 
z
" id="DejaVuSans-35" transform="scale(0.015625)"/>
       </defs>
       <use xlink:href="#DejaVuSans-31"/>
       <use x="63.623047" xlink:href="#DejaVuSans-2e"/>
       <use x="95.410156" xlink:href="#DejaVuSans-32"/>
       <use x="159.033203" xlink:href="#DejaVuSans-35"/>
      </g>
     </g>
    </g>
    <g id="xtick_2">
     <g id="line2d_2">
      <g>
       <use style="stroke:#000000;stroke-width:0.8;" x="74.096822" xlink:href="#ma3e2866c49" y="49.392"/>
      </g>
     </g>
     <g id="text_2">
      <!-- 1.30 -->
      <g transform="translate(67.417134 57.951063)scale(0.06 -0.06)">
       <defs>
        <path d="M 2597 2516 
Q 3050 2419 3304 2112 
Q 3559 1806 3559 1356 
Q 3559 666 3084 287 
Q 2609 -91 1734 -91 
Q 1441 -91 1130 -33 
Q 819 25 488 141 
L 488 750 
Q 750 597 1062 519 
Q 1375 441 1716 441 
Q 2309 441 2620 675 
Q 2931 909 2931 1356 
Q 2931 1769 2642 2001 
Q 2353 2234 1838 2234 
L 1294 2234 
L 1294 2753 
L 1863 2753 
Q 2328 2753 2575 2939 
Q 2822 3125 2822 3475 
Q 2822 3834 2567 4026 
Q 2313 4219 1838 4219 
Q 1578 4219 1281 4162 
Q 984 4106 628 3988 
L 628 4550 
Q 988 4650 1302 4700 
Q 1616 4750 1894 4750 
Q 2613 4750 3031 4423 
Q 3450 4097 3450 3541 
Q 3450 3153 3228 2886 
Q 3006 2619 2597 2516 
z
" id="DejaVuSans-33" transform="scale(0.015625)"/>
        <path d="M 2034 4250 
Q 1547 4250 1301 3770 
Q 1056 3291 1056 2328 
Q 1056 1369 1301 889 
Q 1547 409 2034 409 
Q 2525 409 2770 889 
Q 3016 1369 3016 2328 
Q 3016 3291 2770 3770 
Q 2525 4250 2034 4250 
z
M 2034 4750 
Q 2819 4750 3233 4129 
Q 3647 3509 3647 2328 
Q 3647 1150 3233 529 
Q 2819 -91 2034 -91 
Q 1250 -91 836 529 
Q 422 1150 422 2328 
Q 422 3509 836 4129 
Q 1250 4750 2034 4750 
z
" id="DejaVuSans-30" transform="scale(0.015625)"/>
       </defs>
       <use xlink:href="#DejaVuSans-31"/>
       <use x="63.623047" xlink:href="#DejaVuSans-2e"/>
       <use x="95.410156" xlink:href="#DejaVuSans-33"/>
       <use x="159.033203" xlink:href="#DejaVuSans-30"/>
      </g>
     </g>
    </g>
   </g>
   <g id="matplotlib.axis_2">
    <g id="ytick_1">
     <g id="line2d_3">
      <defs>
       <path d="M 0 0 
L -0.5 0 
" id="m60a25fd097" style="stroke:#000000;stroke-width:0.8;"/>
      </defs>
      <g>
       <use style="stroke:#000000;stroke-width:0.8;" x="10.44" xlink:href="#m60a25fd097" y="37.353886"/>
      </g>
     </g>
     <g id="text_3">
      <!-- 1 -->
      <g transform="translate(2.6225 39.633417)scale(0.06 -0.06)">
       <use xlink:href="#DejaVuSans-31"/>
      </g>
     </g>
    </g>
    <g id="ytick_2">
     <g id="line2d_4">
      <g>
       <use style="stroke:#000000;stroke-width:0.8;" x="10.44" xlink:href="#m60a25fd097" y="14.097299"/>
      </g>
     </g>
     <g id="text_4">
      <!-- 2 -->
      <g transform="translate(2.6225 16.37683)scale(0.06 -0.06)">
       <use xlink:href="#DejaVuSans-32"/>
      </g>
     </g>
    </g>
   </g>
   <g id="line2d_5">
    <path clip-path="url(#pe435425ee8)" d="M 14.236364 40.132583 
L 18.454545 44.563102 
L 22.672727 23.039038 
L 26.890909 3.333081 
L 31.109091 5.05451 
L 35.327273 28.210605 
L 39.545455 44.720828 
L 43.763636 41.856222 
L 47.981818 22.214545 
L 52.2 2.245091 
L 56.418182 9.095714 
L 60.636364 43.230965 
L 64.854545 47.146909 
L 69.072727 38.040234 
L 73.290909 18.412652 
L 77.509091 6.682448 
L 81.727273 8.181823 
L 85.945455 32.895761 
L 90.163636 45.806376 
" style="fill:none;stroke:#771124;stroke-linecap:square;stroke-width:0.5;"/>
    <defs>
     <path d="M 0 1 
C 0.265203 1 0.51958 0.894634 0.707107 0.707107 
C 0.894634 0.51958 1 0.265203 1 0 
C 1 -0.265203 0.894634 -0.51958 0.707107 -0.707107 
C 0.51958 -0.894634 0.265203 -1 0 -1 
C -0.265203 -1 -0.51958 -0.894634 -0.707107 -0.707107 
C -0.894634 -0.51958 -1 -0.265203 -1 0 
C -1 0.265203 -0.894634 0.51958 -0.707107 0.707107 
C -0.51958 0.894634 -0.265203 1 0 1 
z
" id="m5cde5c1197" style="stroke:#771124;"/>
    </defs>
    <g clip-path="url(#pe435425ee8)">
     <use style="fill:#771124;stroke:#771124;" x="14.236364" xlink:href="#m5cde5c1197" y="40.132583"/>
     <use style="fill:#771124;stroke:#771124;" x="18.454545" xlink:href="#m5cde5c1197" y="44.563102"/>
     <use style="fill:#771124;stroke:#771124;" x="22.672727" xlink:href="#m5cde5c1197" y="23.039038"/>
     <use style="fill:#771124;stroke:#771124;" x="26.890909" xlink:href="#m5cde5c1197" y="3.333081"/>
     <use style="fill:#771124;stroke:#771124;" x="31.109091" xlink:href="#m5cde5c1197" y="5.05451"/>
     <use style="fill:#771124;stroke:#771124;" x="35.327273" xlink:href="#m5cde5c1197" y="28.210605"/>
     <use style="fill:#771124;stroke:#771124;" x="39.545455" xlink:href="#m5cde5c1197" y="44.720828"/>
     <use style="fill:#771124;stroke:#771124;" x="43.763636" xlink:href="#m5cde5c1197" y="41.856222"/>
     <use style="fill:#771124;stroke:#771124;" x="47.981818" xlink:href="#m5cde5c1197" y="22.214545"/>
     <use style="fill:#771124;stroke:#771124;" x="52.2" xlink:href="#m5cde5c1197" y="2.245091"/>
     <use style="fill:#771124;stroke:#771124;" x="56.418182" xlink:href="#m5cde5c1197" y="9.095714"/>
     <use style="fill:#771124;stroke:#771124;" x="60.636364" xlink:href="#m5cde5c1197" y="43.230965"/>
     <use style="fill:#771124;stroke:#771124;" x="64.854545" xlink:href="#m5cde5c1197" y="47.146909"/>
     <use style="fill:#771124;stroke:#771124;" x="69.072727" xlink:href="#m5cde5c1197" y="38.040234"/>
     <use style="fill:#771124;stroke:#771124;" x="73.290909" xlink:href="#m5cde5c1197" y="18.412652"/>
     <use style="fill:#771124;stroke:#771124;" x="77.509091" xlink:href="#m5cde5c1197" y="6.682448"/>
     <use style="fill:#771124;stroke:#771124;" x="81.727273" xlink:href="#m5cde5c1197" y="8.181823"/>
     <use style="fill:#771124;stroke:#771124;" x="85.945455" xlink:href="#m5cde5c1197" y="32.895761"/>
     <use style="fill:#771124;stroke:#771124;" x="90.163636" xlink:href="#m5cde5c1197" y="45.806376"/>
    </g>
   </g>
   <g id="patch_3">
    <path d="M 10.44 49.392 
L 10.44 -0 
" style="fill:none;stroke:#000000;stroke-linecap:square;stroke-linejoin:miter;stroke-width:0.5;"/>
   </g>
   <g id="patch_4">
    <path d="M 93.96 49.392 
L 93.96 -0 
" style="fill:none;stroke:#000000;stroke-linecap:square;stroke-linejoin:miter;stroke-width:0.5;"/>
   </g>
   <g id="patch_5">
    <path d="M 10.44 49.392 
L 93.96 49.392 
" style="fill:none;stroke:#000000;stroke-linecap:square;stroke-linejoin:miter;stroke-width:0.5;"/>
   </g>
   <g id="patch_6">
    <path d="M 10.44 0 
L 93.96 0 
" style="fill:none;stroke:#000000;stroke-linecap:square;stroke-linejoin:miter;stroke-width:0.5;"/>
   </g>
  </g>
 </g>
 <defs>
  <clipPath id="pe435425ee8">
   <rect height="49.392" width="83.52" x="10.44" y="0"/>
  </clipPath>
 </defs>
</svg>
