<?xml version="1.0" encoding="utf-8" standalone="no"?>
<!DOCTYPE svg PUBLIC "-//W3C//DTD SVG 1.1//EN"
  "http://www.w3.org/Graphics/SVG/1.1/DTD/svg11.dtd">
<svg height="177.12pt" version="1.1" viewBox="0 0 253.44 177.12" width="253.44pt" xmlns="http://www.w3.org/2000/svg" xmlns:xlink="http://www.w3.org/1999/xlink">
 <metadata>
  <rdf:RDF xmlns:cc="http://creativecommons.org/ns#" xmlns:dc="http://purl.org/dc/elements/1.1/" xmlns:rdf="http://www.w3.org/1999/02/22-rdf-syntax-ns#">
   <cc:Work>
    <dc:type rdf:resource="http://purl.org/dc/dcmitype/StillImage"/>
    <dc:date>2021-11-14T21:11:46.995998</dc:date>
    <dc:format>image/svg+xml</dc:format>
    <dc:creator>
     <cc:Agent>
      <dc:title>Matplotlib v3.4.1, https://matplotlib.org/</dc:title>
     </cc:Agent>
    </dc:creator>
   </cc:Work>
  </rdf:RDF>
 </metadata>
 <defs>
  <style type="text/css">*{stroke-linecap:butt;stroke-linejoin:round;}</style>
 </defs>
 <g id="figure_1">
  <g id="patch_1">
   <path d="M 0 177.12 
L 253.44 177.12 
L 253.44 0 
L 0 0 
z
" style="fill:#ffffff;"/>
  </g>
  <g id="axes_1">
   <g id="patch_2">
    <path d="M 50.688 141.696 
L 228.096 141.696 
L 228.096 17.712 
L 50.688 17.712 
z
" style="fill:#ffffff;"/>
   </g>
   <g id="PathCollection_1">
    <defs>
     <path d="M 0 3 
C 0.795609 3 1.55874 2.683901 2.12132 2.12132 
C 2.683901 1.55874 3 0.795609 3 0 
C 3 -0.795609 2.683901 -1.55874 2.12132 -2.12132 
C 1.55874 -2.683901 0.795609 -3 0 -3 
C -0.795609 -3 -1.55874 -2.683901 -2.12132 -2.12132 
C -2.683901 -1.55874 -3 -0.795609 -3 0 
C -3 0.795609 -2.683901 1.55874 -2.12132 2.12132 
C -1.55874 2.683901 -0.795609 3 0 3 
z
" id="mf079bebd67" style="stroke:#1f77b4;stroke-opacity:0;"/>
    </defs>
    <g clip-path="url(#p6e98dff557)">
     <use style="fill:#1f77b4;fill-opacity:0;stroke:#1f77b4;stroke-opacity:0;" x="110.403765" xlink:href="#mf079bebd67" y="62.332343"/>
     <use style="fill:#1f77b4;fill-opacity:0;stroke:#1f77b4;stroke-opacity:0;" x="75.617882" xlink:href="#mf079bebd67" y="94.097659"/>
     <use style="fill:#1f77b4;fill-opacity:0;stroke:#1f77b4;stroke-opacity:0;" x="75.617882" xlink:href="#mf079bebd67" y="30.567026"/>
     <use style="fill:#1f77b4;fill-opacity:0;stroke:#1f77b4;stroke-opacity:0;" x="156.784941" xlink:href="#mf079bebd67" y="94.097659"/>
     <use style="fill:#1f77b4;fill-opacity:0;stroke:#1f77b4;stroke-opacity:0;" x="156.784941" xlink:href="#mf079bebd67" y="30.567026"/>
     <use style="fill:#1f77b4;fill-opacity:0;stroke:#1f77b4;stroke-opacity:0;" x="87.213176" xlink:href="#mf079bebd67" y="128.840974"/>
     <use style="fill:#1f77b4;fill-opacity:0;stroke:#1f77b4;stroke-opacity:0;" x="203.166118" xlink:href="#mf079bebd67" y="104.02432"/>
     <use style="fill:#1f77b4;fill-opacity:0;stroke:#1f77b4;stroke-opacity:0;" x="203.166118" xlink:href="#mf079bebd67" y="104.02432"/>
    </g>
   </g>
   <g id="matplotlib.axis_1">
    <g id="xtick_1">
     <g id="line2d_1">
      <defs>
       <path d="M 0 0 
L 0 2 
" id="m30346a92a5" style="stroke:#000000;stroke-width:0.8;"/>
      </defs>
      <g>
       <use style="stroke:#000000;stroke-width:0.8;" x="64.022588" xlink:href="#m30346a92a5" y="141.696"/>
      </g>
     </g>
     <g id="text_1">
      <!-- 0 -->
      <g transform="translate(60.841338 154.794438)scale(0.1 -0.1)">
       <defs>
        <path d="M 2034 4250 
Q 1547 4250 1301 3770 
Q 1056 3291 1056 2328 
Q 1056 1369 1301 889 
Q 1547 409 2034 409 
Q 2525 409 2770 889 
Q 3016 1369 3016 2328 
Q 3016 3291 2770 3770 
Q 2525 4250 2034 4250 
z
M 2034 4750 
Q 2819 4750 3233 4129 
Q 3647 3509 3647 2328 
Q 3647 1150 3233 529 
Q 2819 -91 2034 -91 
Q 1250 -91 836 529 
Q 422 1150 422 2328 
Q 422 3509 836 4129 
Q 1250 4750 2034 4750 
z
" id="DejaVuSans-30" transform="scale(0.015625)"/>
       </defs>
       <use xlink:href="#DejaVuSans-30"/>
      </g>
     </g>
    </g>
    <g id="xtick_2">
     <g id="line2d_2">
      <g>
       <use style="stroke:#000000;stroke-width:0.8;" x="110.403765" xlink:href="#m30346a92a5" y="141.696"/>
      </g>
     </g>
     <g id="text_2">
      <!-- 10 -->
      <g transform="translate(104.041265 154.794438)scale(0.1 -0.1)">
       <defs>
        <path d="M 794 531 
L 1825 531 
L 1825 4091 
L 703 3866 
L 703 4441 
L 1819 4666 
L 2450 4666 
L 2450 531 
L 3481 531 
L 3481 0 
L 794 0 
L 794 531 
z
" id="DejaVuSans-31" transform="scale(0.015625)"/>
       </defs>
       <use xlink:href="#DejaVuSans-31"/>
       <use x="63.623047" xlink:href="#DejaVuSans-30"/>
      </g>
     </g>
    </g>
    <g id="xtick_3">
     <g id="line2d_3">
      <g>
       <use style="stroke:#000000;stroke-width:0.8;" x="156.784941" xlink:href="#m30346a92a5" y="141.696"/>
      </g>
     </g>
     <g id="text_3">
      <!-- 20 -->
      <g transform="translate(150.422441 154.794438)scale(0.1 -0.1)">
       <defs>
        <path d="M 1228 531 
L 3431 531 
L 3431 0 
L 469 0 
L 469 531 
Q 828 903 1448 1529 
Q 2069 2156 2228 2338 
Q 2531 2678 2651 2914 
Q 2772 3150 2772 3378 
Q 2772 3750 2511 3984 
Q 2250 4219 1831 4219 
Q 1534 4219 1204 4116 
Q 875 4013 500 3803 
L 500 4441 
Q 881 4594 1212 4672 
Q 1544 4750 1819 4750 
Q 2544 4750 2975 4387 
Q 3406 4025 3406 3419 
Q 3406 3131 3298 2873 
Q 3191 2616 2906 2266 
Q 2828 2175 2409 1742 
Q 1991 1309 1228 531 
z
" id="DejaVuSans-32" transform="scale(0.015625)"/>
       </defs>
       <use xlink:href="#DejaVuSans-32"/>
       <use x="63.623047" xlink:href="#DejaVuSans-30"/>
      </g>
     </g>
    </g>
    <g id="xtick_4">
     <g id="line2d_4">
      <g>
       <use style="stroke:#000000;stroke-width:0.8;" x="203.166118" xlink:href="#m30346a92a5" y="141.696"/>
      </g>
     </g>
     <g id="text_4">
      <!-- 30 -->
      <g transform="translate(196.803618 154.794438)scale(0.1 -0.1)">
       <defs>
        <path d="M 2597 2516 
Q 3050 2419 3304 2112 
Q 3559 1806 3559 1356 
Q 3559 666 3084 287 
Q 2609 -91 1734 -91 
Q 1441 -91 1130 -33 
Q 819 25 488 141 
L 488 750 
Q 750 597 1062 519 
Q 1375 441 1716 441 
Q 2309 441 2620 675 
Q 2931 909 2931 1356 
Q 2931 1769 2642 2001 
Q 2353 2234 1838 2234 
L 1294 2234 
L 1294 2753 
L 1863 2753 
Q 2328 2753 2575 2939 
Q 2822 3125 2822 3475 
Q 2822 3834 2567 4026 
Q 2313 4219 1838 4219 
Q 1578 4219 1281 4162 
Q 984 4106 628 3988 
L 628 4550 
Q 988 4650 1302 4700 
Q 1616 4750 1894 4750 
Q 2613 4750 3031 4423 
Q 3450 4097 3450 3541 
Q 3450 3153 3228 2886 
Q 3006 2619 2597 2516 
z
" id="DejaVuSans-33" transform="scale(0.015625)"/>
       </defs>
       <use xlink:href="#DejaVuSans-33"/>
       <use x="63.623047" xlink:href="#DejaVuSans-30"/>
      </g>
     </g>
    </g>
    <g id="text_5">
     <!-- [NaOH]/ mM -->
     <g transform="translate(108.531844 168.472563)scale(0.1 -0.1)">
      <defs>
       <path d="M 550 4863 
L 1875 4863 
L 1875 4416 
L 1125 4416 
L 1125 -397 
L 1875 -397 
L 1875 -844 
L 550 -844 
L 550 4863 
z
" id="DejaVuSans-5b" transform="scale(0.015625)"/>
       <path d="M 628 4666 
L 1478 4666 
L 3547 763 
L 3547 4666 
L 4159 4666 
L 4159 0 
L 3309 0 
L 1241 3903 
L 1241 0 
L 628 0 
L 628 4666 
z
" id="DejaVuSans-4e" transform="scale(0.015625)"/>
       <path d="M 2194 1759 
Q 1497 1759 1228 1600 
Q 959 1441 959 1056 
Q 959 750 1161 570 
Q 1363 391 1709 391 
Q 2188 391 2477 730 
Q 2766 1069 2766 1631 
L 2766 1759 
L 2194 1759 
z
M 3341 1997 
L 3341 0 
L 2766 0 
L 2766 531 
Q 2569 213 2275 61 
Q 1981 -91 1556 -91 
Q 1019 -91 701 211 
Q 384 513 384 1019 
Q 384 1609 779 1909 
Q 1175 2209 1959 2209 
L 2766 2209 
L 2766 2266 
Q 2766 2663 2505 2880 
Q 2244 3097 1772 3097 
Q 1472 3097 1187 3025 
Q 903 2953 641 2809 
L 641 3341 
Q 956 3463 1253 3523 
Q 1550 3584 1831 3584 
Q 2591 3584 2966 3190 
Q 3341 2797 3341 1997 
z
" id="DejaVuSans-61" transform="scale(0.015625)"/>
       <path d="M 2522 4238 
Q 1834 4238 1429 3725 
Q 1025 3213 1025 2328 
Q 1025 1447 1429 934 
Q 1834 422 2522 422 
Q 3209 422 3611 934 
Q 4013 1447 4013 2328 
Q 4013 3213 3611 3725 
Q 3209 4238 2522 4238 
z
M 2522 4750 
Q 3503 4750 4090 4092 
Q 4678 3434 4678 2328 
Q 4678 1225 4090 567 
Q 3503 -91 2522 -91 
Q 1538 -91 948 565 
Q 359 1222 359 2328 
Q 359 3434 948 4092 
Q 1538 4750 2522 4750 
z
" id="DejaVuSans-4f" transform="scale(0.015625)"/>
       <path d="M 628 4666 
L 1259 4666 
L 1259 2753 
L 3553 2753 
L 3553 4666 
L 4184 4666 
L 4184 0 
L 3553 0 
L 3553 2222 
L 1259 2222 
L 1259 0 
L 628 0 
L 628 4666 
z
" id="DejaVuSans-48" transform="scale(0.015625)"/>
       <path d="M 1947 4863 
L 1947 -844 
L 622 -844 
L 622 -397 
L 1369 -397 
L 1369 4416 
L 622 4416 
L 622 4863 
L 1947 4863 
z
" id="DejaVuSans-5d" transform="scale(0.015625)"/>
       <path d="M 1625 4666 
L 2156 4666 
L 531 -594 
L 0 -594 
L 1625 4666 
z
" id="DejaVuSans-2f" transform="scale(0.015625)"/>
       <path id="DejaVuSans-20" transform="scale(0.015625)"/>
       <path d="M 3328 2828 
Q 3544 3216 3844 3400 
Q 4144 3584 4550 3584 
Q 5097 3584 5394 3201 
Q 5691 2819 5691 2113 
L 5691 0 
L 5113 0 
L 5113 2094 
Q 5113 2597 4934 2840 
Q 4756 3084 4391 3084 
Q 3944 3084 3684 2787 
Q 3425 2491 3425 1978 
L 3425 0 
L 2847 0 
L 2847 2094 
Q 2847 2600 2669 2842 
Q 2491 3084 2119 3084 
Q 1678 3084 1418 2786 
Q 1159 2488 1159 1978 
L 1159 0 
L 581 0 
L 581 3500 
L 1159 3500 
L 1159 2956 
Q 1356 3278 1631 3431 
Q 1906 3584 2284 3584 
Q 2666 3584 2933 3390 
Q 3200 3197 3328 2828 
z
" id="DejaVuSans-6d" transform="scale(0.015625)"/>
       <path d="M 628 4666 
L 1569 4666 
L 2759 1491 
L 3956 4666 
L 4897 4666 
L 4897 0 
L 4281 0 
L 4281 4097 
L 3078 897 
L 2444 897 
L 1241 4097 
L 1241 0 
L 628 0 
L 628 4666 
z
" id="DejaVuSans-4d" transform="scale(0.015625)"/>
      </defs>
      <use xlink:href="#DejaVuSans-5b"/>
      <use x="39.013672" xlink:href="#DejaVuSans-4e"/>
      <use x="113.818359" xlink:href="#DejaVuSans-61"/>
      <use x="175.097656" xlink:href="#DejaVuSans-4f"/>
      <use x="253.808594" xlink:href="#DejaVuSans-48"/>
      <use x="329.003906" xlink:href="#DejaVuSans-5d"/>
      <use x="368.017578" xlink:href="#DejaVuSans-2f"/>
      <use x="401.708984" xlink:href="#DejaVuSans-20"/>
      <use x="433.496094" xlink:href="#DejaVuSans-6d"/>
      <use x="530.908203" xlink:href="#DejaVuSans-4d"/>
     </g>
    </g>
   </g>
   <g id="matplotlib.axis_2">
    <g id="ytick_1">
     <g id="line2d_5">
      <defs>
       <path d="M 0 0 
L -2 0 
" id="mc6e493390e" style="stroke:#000000;stroke-width:0.8;"/>
      </defs>
      <g>
       <use style="stroke:#000000;stroke-width:0.8;" x="50.688" xlink:href="#mc6e493390e" y="133.804304"/>
      </g>
     </g>
     <g id="text_6">
      <!-- 0 -->
      <g transform="translate(38.8255 137.603523)scale(0.1 -0.1)">
       <use xlink:href="#DejaVuSans-30"/>
      </g>
     </g>
    </g>
    <g id="ytick_2">
     <g id="line2d_6">
      <g>
       <use style="stroke:#000000;stroke-width:0.8;" x="50.688" xlink:href="#mc6e493390e" y="94.097659"/>
      </g>
     </g>
     <g id="text_7">
      <!-- 20 -->
      <g transform="translate(32.463 97.896878)scale(0.1 -0.1)">
       <use xlink:href="#DejaVuSans-32"/>
       <use x="63.623047" xlink:href="#DejaVuSans-30"/>
      </g>
     </g>
    </g>
    <g id="ytick_3">
     <g id="line2d_7">
      <g>
       <use style="stroke:#000000;stroke-width:0.8;" x="50.688" xlink:href="#mc6e493390e" y="54.391014"/>
      </g>
     </g>
     <g id="text_8">
      <!-- 40 -->
      <g transform="translate(32.463 58.190232)scale(0.1 -0.1)">
       <defs>
        <path d="M 2419 4116 
L 825 1625 
L 2419 1625 
L 2419 4116 
z
M 2253 4666 
L 3047 4666 
L 3047 1625 
L 3713 1625 
L 3713 1100 
L 3047 1100 
L 3047 0 
L 2419 0 
L 2419 1100 
L 313 1100 
L 313 1709 
L 2253 4666 
z
" id="DejaVuSans-34" transform="scale(0.015625)"/>
       </defs>
       <use xlink:href="#DejaVuSans-34"/>
       <use x="63.623047" xlink:href="#DejaVuSans-30"/>
      </g>
     </g>
    </g>
    <g id="text_9">
     <!-- [CaCl$_2$]/ mM -->
     <g transform="translate(26.383312 109.954)rotate(-90)scale(0.1 -0.1)">
      <defs>
       <path d="M 4122 4306 
L 4122 3641 
Q 3803 3938 3442 4084 
Q 3081 4231 2675 4231 
Q 1875 4231 1450 3742 
Q 1025 3253 1025 2328 
Q 1025 1406 1450 917 
Q 1875 428 2675 428 
Q 3081 428 3442 575 
Q 3803 722 4122 1019 
L 4122 359 
Q 3791 134 3420 21 
Q 3050 -91 2638 -91 
Q 1578 -91 968 557 
Q 359 1206 359 2328 
Q 359 3453 968 4101 
Q 1578 4750 2638 4750 
Q 3056 4750 3426 4639 
Q 3797 4528 4122 4306 
z
" id="DejaVuSans-43" transform="scale(0.015625)"/>
       <path d="M 603 4863 
L 1178 4863 
L 1178 0 
L 603 0 
L 603 4863 
z
" id="DejaVuSans-6c" transform="scale(0.015625)"/>
      </defs>
      <use transform="translate(0 0.015625)" xlink:href="#DejaVuSans-5b"/>
      <use transform="translate(39.013672 0.015625)" xlink:href="#DejaVuSans-43"/>
      <use transform="translate(108.837891 0.015625)" xlink:href="#DejaVuSans-61"/>
      <use transform="translate(170.117188 0.015625)" xlink:href="#DejaVuSans-43"/>
      <use transform="translate(239.941406 0.015625)" xlink:href="#DejaVuSans-6c"/>
      <use transform="translate(268.681641 -16.390625)scale(0.7)" xlink:href="#DejaVuSans-32"/>
      <use transform="translate(315.952148 0.015625)" xlink:href="#DejaVuSans-5d"/>
      <use transform="translate(354.96582 0.015625)" xlink:href="#DejaVuSans-2f"/>
      <use transform="translate(388.657227 0.015625)" xlink:href="#DejaVuSans-20"/>
      <use transform="translate(420.444336 0.015625)" xlink:href="#DejaVuSans-6d"/>
      <use transform="translate(517.856445 0.015625)" xlink:href="#DejaVuSans-4d"/>
     </g>
    </g>
   </g>
   <g id="line2d_8">
    <path clip-path="url(#p6e98dff557)" d="M 64.950212 113.950982 
L 70.321163 -1 
" style="fill:none;stroke:#000000;stroke-dasharray:1.85,0.8;stroke-dashoffset:0;stroke-opacity:0.5;stroke-width:0.5;"/>
   </g>
   <g id="line2d_9">
    <path clip-path="url(#p6e98dff557)" d="M 64.950212 131.818972 
L 75.617882 108.987651 
L 127.00834 -1 
" style="fill:none;stroke:#000000;stroke-dasharray:1.85,0.8;stroke-dashoffset:0;stroke-opacity:0.5;stroke-width:0.5;"/>
   </g>
   <g id="line2d_10">
    <path clip-path="url(#p6e98dff557)" d="M 64.950212 133.010171 
L 75.617882 123.877643 
L 203.166118 14.684368 
" style="fill:none;stroke:#000000;stroke-dasharray:1.85,0.8;stroke-dashoffset:0;stroke-opacity:0.5;stroke-width:0.5;"/>
   </g>
   <g id="line2d_11">
    <path clip-path="url(#p6e98dff557)" d="M 64.950212 133.605771 
L 75.617882 131.322639 
L 203.166118 104.02432 
" style="fill:none;stroke:#000000;stroke-dasharray:1.85,0.8;stroke-dashoffset:0;stroke-opacity:0.5;stroke-width:0.5;"/>
   </g>
   <g id="patch_3">
    <path d="M 50.688 141.696 
L 50.688 17.712 
" style="fill:none;stroke:#000000;stroke-linecap:square;stroke-linejoin:miter;stroke-width:0.8;"/>
   </g>
   <g id="patch_4">
    <path d="M 228.096 141.696 
L 228.096 17.712 
" style="fill:none;stroke:#000000;stroke-linecap:square;stroke-linejoin:miter;stroke-width:0.8;"/>
   </g>
   <g id="patch_5">
    <path d="M 50.688 141.696 
L 228.096 141.696 
" style="fill:none;stroke:#000000;stroke-linecap:square;stroke-linejoin:miter;stroke-width:0.8;"/>
   </g>
   <g id="patch_6">
    <path d="M 50.688 17.712 
L 228.096 17.712 
" style="fill:none;stroke:#000000;stroke-linecap:square;stroke-linejoin:miter;stroke-width:0.8;"/>
   </g>
   <g id="axes_2">
    <g id="patch_7">
     <path d="M 122.474585 62.332343 
C 122.474585 62.27919 122.474234 62.226037 122.473532 62.172889 
C 122.47283 62.119741 122.471776 62.066598 122.470372 62.013463 
L 110.403765 62.332343 
L 122.474585 62.332343 
z
" style="fill:#e0e3e1;stroke:#000000;stroke-linejoin:miter;stroke-width:0.1;"/>
    </g>
    <g id="patch_8">
     <path d="M 122.470372 62.013463 
C 122.463651 61.759135 122.448891 61.505082 122.426114 61.251687 
C 122.403337 60.998291 122.372554 60.745679 122.333812 60.494229 
L 110.403765 62.332343 
L 122.470372 62.013463 
z
" style="fill:#e0e3e1;stroke:#000000;stroke-linejoin:miter;stroke-width:0.1;"/>
    </g>
    <g id="patch_9">
     <path d="M 122.333812 60.494229 
C 122.046216 58.627623 121.324514 56.854308 120.22693 55.31735 
C 119.129347 53.780393 117.686216 52.52227 116.013966 51.644483 
C 114.341717 50.766697 112.486563 50.293507 110.598177 50.263088 
C 108.709791 50.23267 106.84036 50.645864 105.140707 51.469336 
L 110.403765 62.332343 
L 122.333812 60.494229 
z
" style="fill:#44aaaa;stroke:#000000;stroke-linejoin:miter;stroke-width:0.1;"/>
    </g>
    <g id="patch_10">
     <path d="M 105.140707 51.469336 
C 105.140707 51.469336 105.140707 51.469336 105.140707 51.469336 
L 110.403765 62.332343 
L 105.140707 51.469336 
z
" style="fill:#77aadd;stroke:#000000;stroke-linejoin:miter;stroke-width:0.1;"/>
    </g>
    <g id="patch_11">
     <path d="M 105.140707 51.469336 
C 102.541155 52.728802 100.478117 54.880488 99.329068 57.530697 
C 98.180019 60.180907 98.019592 63.157506 98.87714 65.915863 
L 110.403765 62.332343 
L 105.140707 51.469336 
z
" style="fill:#117777;stroke:#000000;stroke-linejoin:miter;stroke-width:0.1;"/>
    </g>
    <g id="patch_12">
     <path d="M 98.87714 65.915863 
C 98.87714 65.915863 98.87714 65.915863 98.87714 65.915863 
L 110.403765 62.332343 
L 98.87714 65.915863 
z
" style="fill:#525fb7;stroke:#000000;stroke-linejoin:miter;stroke-width:0.1;"/>
    </g>
    <g id="patch_13">
     <path d="M 98.87714 65.915863 
C 98.87714 65.915863 98.87714 65.915863 98.87714 65.915863 
L 110.403765 62.332343 
L 98.87714 65.915863 
z
" style="fill:#a3604b;stroke:#000000;stroke-linejoin:miter;stroke-width:0.1;"/>
    </g>
    <g id="patch_14">
     <path d="M 98.87714 65.915863 
C 99.106095 66.652313 99.405104 67.365129 99.770062 68.044529 
C 100.135021 68.723929 100.564252 69.366791 101.051867 69.964295 
L 110.403765 62.332343 
L 98.87714 65.915863 
z
" style="fill:#a3604b;stroke:#000000;stroke-linejoin:miter;stroke-width:0.1;"/>
    </g>
    <g id="patch_15">
     <path d="M 101.051867 69.964295 
C 101.062269 69.977042 101.072697 69.989767 101.083151 70.00247 
C 101.093605 70.015174 101.104085 70.027856 101.114591 70.040517 
L 110.403765 62.332343 
L 101.051867 69.964295 
z
" style="fill:#f53f06;stroke:#000000;stroke-linejoin:miter;stroke-width:0.1;"/>
    </g>
    <g id="patch_16">
     <path d="M 101.114591 70.040517 
C 101.114591 70.040517 101.114591 70.040517 101.114591 70.040517 
L 110.403765 62.332343 
L 101.114591 70.040517 
z
" style="fill:#f53f06;stroke:#000000;stroke-linejoin:miter;stroke-width:0.1;"/>
    </g>
    <g id="patch_17">
     <path d="M 101.114591 70.040517 
C 101.114591 70.040517 101.114591 70.040517 101.114591 70.040517 
L 110.403765 62.332343 
L 101.114591 70.040517 
z
" style="fill:#dd7790;stroke:#000000;stroke-linejoin:miter;stroke-width:0.1;"/>
    </g>
    <g id="patch_18">
     <path d="M 101.114591 70.040517 
C 102.631499 71.868553 104.654795 73.208775 106.929731 73.892437 
C 109.204667 74.5761 111.631581 74.573253 113.904907 73.884256 
L 110.403765 62.332343 
L 101.114591 70.040517 
z
" style="fill:#771124;stroke:#000000;stroke-linejoin:miter;stroke-width:0.1;"/>
    </g>
    <g id="patch_19">
     <path d="M 113.904907 73.884256 
C 113.904907 73.884256 113.904907 73.884256 113.904907 73.884256 
L 110.403765 62.332343 
L 113.904907 73.884256 
z
" style="fill:#eeb29f;stroke:#000000;stroke-linejoin:miter;stroke-width:0.1;"/>
    </g>
    <g id="patch_20">
     <path d="M 113.904907 73.884256 
C 114.439878 73.722118 114.962941 73.523013 115.470317 73.28838 
C 115.977693 73.053747 116.468158 72.784152 116.938169 72.481543 
L 110.403765 62.332343 
L 113.904907 73.884256 
z
" style="fill:#eeb29f;stroke:#000000;stroke-linejoin:miter;stroke-width:0.1;"/>
    </g>
    <g id="patch_21">
     <path d="M 116.938169 72.481543 
C 116.938169 72.481543 116.938169 72.481543 116.938169 72.481543 
L 110.403765 62.332343 
L 116.938169 72.481543 
z
" style="fill:#ff0240;stroke:#000000;stroke-linejoin:miter;stroke-width:0.1;"/>
    </g>
    <g id="patch_22">
     <path d="M 116.938169 72.481543 
C 116.938169 72.481543 116.938169 72.481543 116.938169 72.481543 
L 110.403765 62.332343 
L 116.938169 72.481543 
z
" style="fill:#d0d1df;stroke:#000000;stroke-linejoin:miter;stroke-width:0.1;"/>
    </g>
    <g id="patch_23">
     <path d="M 116.938169 72.481543 
C 116.938265 72.481481 116.938361 72.481419 116.938457 72.481357 
C 116.938554 72.481295 116.93865 72.481233 116.938746 72.481171 
L 110.403765 62.332343 
L 116.938169 72.481543 
z
" style="fill:#6ef1c9;stroke:#000000;stroke-linejoin:miter;stroke-width:0.1;"/>
    </g>
    <g id="patch_24">
     <path d="M 116.938746 72.481171 
C 117.276406 72.263747 117.603006 72.029606 117.917325 71.779623 
C 118.231645 71.52964 118.533293 71.264127 118.821143 70.984073 
L 110.403765 62.332343 
L 116.938746 72.481171 
z
" style="fill:#6ef1c9;stroke:#000000;stroke-linejoin:miter;stroke-width:0.1;"/>
    </g>
    <g id="patch_25">
     <path d="M 118.821143 70.984073 
C 119.056157 70.755425 119.281757 70.517296 119.497382 70.270279 
C 119.713006 70.023262 119.918476 69.767561 120.113281 69.503814 
L 110.403765 62.332343 
L 118.821143 70.984073 
z
" style="fill:#6ef1c9;stroke:#000000;stroke-linejoin:miter;stroke-width:0.1;"/>
    </g>
    <g id="patch_26">
     <path d="M 120.113281 69.503814 
C 120.402165 69.112691 120.667153 68.70447 120.906794 68.281382 
C 121.146436 67.858294 121.360295 67.421112 121.547201 66.972227 
L 110.403765 62.332343 
L 120.113281 69.503814 
z
" style="fill:#428317;stroke:#000000;stroke-linejoin:miter;stroke-width:0.1;"/>
    </g>
    <g id="patch_27">
     <path d="M 121.547201 66.972227 
C 121.547201 66.972227 121.547201 66.972227 121.547201 66.972227 
L 110.403765 62.332343 
L 121.547201 66.972227 
z
" style="fill:#428317;stroke:#000000;stroke-linejoin:miter;stroke-width:0.1;"/>
    </g>
    <g id="patch_28">
     <path d="M 121.547201 66.972227 
C 121.852555 66.238869 122.084771 65.477154 122.240468 64.698171 
C 122.396166 63.919188 122.474585 63.126734 122.474585 62.332343 
L 110.403765 62.332343 
L 121.547201 66.972227 
z
" style="fill:#428317;stroke:#000000;stroke-linejoin:miter;stroke-width:0.1;"/>
    </g>
    <g id="patch_29">
     <path d="M 122.474585 62.332343 
C 122.474585 62.332343 122.474585 62.332343 122.474585 62.332343 
L 110.403765 62.332343 
L 122.474585 62.332343 
z
" style="fill:#106832;stroke:#000000;stroke-linejoin:miter;stroke-width:0.1;"/>
    </g>
    <g id="patch_30">
     <path d="M 122.474585 62.332343 
C 122.474585 62.332343 122.474585 62.332343 122.474585 62.332343 
L 110.403765 62.332343 
L 122.474585 62.332343 
z
" style="fill:#56a45e;stroke:#000000;stroke-linejoin:miter;stroke-width:0.1;"/>
    </g>
    <g id="patch_31">
     <path d="M 122.474585 62.332343 
C 122.474585 62.332343 122.474585 62.332343 122.474585 62.332343 
L 110.403765 62.332343 
L 122.474585 62.332343 
z
" style="fill:#7ac890;stroke:#000000;stroke-linejoin:miter;stroke-width:0.1;"/>
    </g>
    <g id="patch_32">
     <path d="M 122.474585 62.332343 
C 122.474585 62.332343 122.474585 62.332343 122.474585 62.332343 
L 110.403765 62.332343 
L 122.474585 62.332343 
z
" style="fill:#51a778;stroke:#000000;stroke-linejoin:miter;stroke-width:0.1;"/>
    </g>
    <g id="patch_33">
     <path d="M 122.474585 62.332343 
C 122.474585 62.332343 122.474585 62.332343 122.474585 62.332343 
L 110.403765 62.332343 
L 122.474585 62.332343 
z
" style="fill:#34be72;stroke:#000000;stroke-linejoin:miter;stroke-width:0.1;"/>
    </g>
    <g id="patch_34">
     <path d="M 122.474585 62.332343 
C 122.474585 62.332343 122.474585 62.332343 122.474585 62.332343 
L 110.403765 62.332343 
L 122.474585 62.332343 
z
" style="fill:#0ec460;stroke:#000000;stroke-linejoin:miter;stroke-width:0.1;"/>
    </g>
    <g id="patch_35">
     <path d="M 122.474585 62.332343 
C 122.474585 62.332343 122.474585 62.332343 122.474585 62.332343 
L 110.403765 62.332343 
L 122.474585 62.332343 
z
" style="fill:#069848;stroke:#000000;stroke-linejoin:miter;stroke-width:0.1;"/>
    </g>
    <g id="matplotlib.axis_3"/>
    <g id="matplotlib.axis_4"/>
   </g>
   <g id="axes_3">
    <g id="patch_36">
     <path d="M 87.688703 94.097659 
C 87.688703 94.09579 87.688702 94.093921 87.688701 94.092052 
C 87.6887 94.090183 87.688699 94.088314 87.688697 94.086445 
L 75.617882 94.097659 
L 87.688703 94.097659 
z
" style="fill:#e0e3e1;stroke:#000000;stroke-linejoin:miter;stroke-width:0.1;"/>
    </g>
    <g id="patch_37">
     <path d="M 87.688697 94.086445 
C 87.688573 93.952874 87.686232 93.819314 87.681675 93.68582 
C 87.677118 93.552326 87.670345 93.418918 87.661359 93.285649 
L 75.617882 94.097659 
L 87.688697 94.086445 
z
" style="fill:#e0e3e1;stroke:#000000;stroke-linejoin:miter;stroke-width:0.1;"/>
    </g>
    <g id="patch_38">
     <path d="M 87.661359 93.285649 
C 87.527858 91.305592 86.908084 89.388679 85.857115 87.705256 
C 84.806146 86.021833 83.356063 84.623287 81.635725 83.633899 
L 75.617882 94.097659 
L 87.661359 93.285649 
z
" style="fill:#44aaaa;stroke:#000000;stroke-linejoin:miter;stroke-width:0.1;"/>
    </g>
    <g id="patch_39">
     <path d="M 81.635725 83.633899 
C 81.635071 83.633523 81.634417 83.633147 81.633762 83.632771 
C 81.633108 83.632394 81.632454 83.632018 81.631799 83.631642 
L 75.617882 94.097659 
L 81.635725 83.633899 
z
" style="fill:#77aadd;stroke:#000000;stroke-linejoin:miter;stroke-width:0.1;"/>
    </g>
    <g id="patch_40">
     <path d="M 81.631799 83.631642 
C 80.131001 82.769263 78.462119 82.239703 76.738674 82.078985 
C 75.01523 81.918266 73.277207 82.130118 71.642833 82.700129 
C 70.008459 83.27014 68.515651 84.185086 67.265954 85.38273 
C 66.016257 86.580373 65.038665 88.032928 64.399677 89.641588 
C 63.760689 91.250247 63.475129 92.97769 63.562422 94.706409 
C 63.649715 96.435129 64.107836 98.125019 64.905622 99.661127 
C 65.703408 101.197236 66.82235 102.543925 68.186334 103.609588 
C 69.550319 104.675251 71.1277 105.435166 72.811181 105.837639 
L 75.617882 94.097659 
L 81.631799 83.631642 
z
" style="fill:#117777;stroke:#000000;stroke-linejoin:miter;stroke-width:0.1;"/>
    </g>
    <g id="patch_41">
     <path d="M 72.811181 105.837639 
C 72.81226 105.837897 72.813339 105.838155 72.814418 105.838412 
C 72.815497 105.83867 72.816577 105.838927 72.817656 105.839185 
L 75.617882 94.097659 
L 72.811181 105.837639 
z
" style="fill:#525fb7;stroke:#000000;stroke-linejoin:miter;stroke-width:0.1;"/>
    </g>
    <g id="patch_42">
     <path d="M 72.817656 105.839185 
C 72.820766 105.839927 72.823876 105.840667 72.826987 105.841406 
C 72.830097 105.842145 72.833208 105.842883 72.836319 105.84362 
L 75.617882 94.097659 
L 72.817656 105.839185 
z
" style="fill:#a3604b;stroke:#000000;stroke-linejoin:miter;stroke-width:0.1;"/>
    </g>
    <g id="patch_43">
     <path d="M 72.836319 105.84362 
C 73.12579 105.91217 73.417696 105.969995 73.711439 106.016978 
C 74.005183 106.063961 74.300562 106.10007 74.596973 106.125229 
L 75.617882 94.097659 
L 72.836319 105.84362 
z
" style="fill:#a3604b;stroke:#000000;stroke-linejoin:miter;stroke-width:0.1;"/>
    </g>
    <g id="patch_44">
     <path d="M 74.596973 106.125229 
C 74.596973 106.125229 74.596973 106.125229 74.596973 106.125229 
L 75.617882 94.097659 
L 74.596973 106.125229 
z
" style="fill:#f53f06;stroke:#000000;stroke-linejoin:miter;stroke-width:0.1;"/>
    </g>
    <g id="patch_45">
     <path d="M 74.596973 106.125229 
C 76.14836 106.256912 77.710672 106.087199 79.197596 105.625467 
C 80.684521 105.163734 82.068161 104.418644 83.272077 103.431361 
L 75.617882 94.097659 
L 74.596973 106.125229 
z
" style="fill:#f53f06;stroke:#000000;stroke-linejoin:miter;stroke-width:0.1;"/>
    </g>
    <g id="patch_46">
     <path d="M 83.272077 103.431361 
C 83.272077 103.431361 83.272077 103.431361 83.272077 103.431361 
L 75.617882 94.097659 
L 83.272077 103.431361 
z
" style="fill:#dd7790;stroke:#000000;stroke-linejoin:miter;stroke-width:0.1;"/>
    </g>
    <g id="patch_47">
     <path d="M 83.272077 103.431361 
C 84.216527 102.656856 85.037975 101.743469 85.708317 100.722447 
C 86.37866 99.701426 86.890165 98.584549 87.225334 97.410025 
L 75.617882 94.097659 
L 83.272077 103.431361 
z
" style="fill:#771124;stroke:#000000;stroke-linejoin:miter;stroke-width:0.1;"/>
    </g>
    <g id="patch_48">
     <path d="M 87.225334 97.410025 
C 87.225334 97.410025 87.225334 97.410025 87.225334 97.410025 
L 75.617882 94.097659 
L 87.225334 97.410025 
z
" style="fill:#eeb29f;stroke:#000000;stroke-linejoin:miter;stroke-width:0.1;"/>
    </g>
    <g id="patch_49">
     <path d="M 87.225334 97.410025 
C 87.225334 97.410025 87.225334 97.410025 87.225334 97.410025 
L 75.617882 94.097659 
L 87.225334 97.410025 
z
" style="fill:#eeb29f;stroke:#000000;stroke-linejoin:miter;stroke-width:0.1;"/>
    </g>
    <g id="patch_50">
     <path d="M 87.225334 97.410025 
C 87.225334 97.410025 87.225334 97.410025 87.225334 97.410025 
L 75.617882 94.097659 
L 87.225334 97.410025 
z
" style="fill:#ff0240;stroke:#000000;stroke-linejoin:miter;stroke-width:0.1;"/>
    </g>
    <g id="patch_51">
     <path d="M 87.225334 97.410025 
C 87.225334 97.410025 87.225334 97.410025 87.225334 97.410025 
L 75.617882 94.097659 
L 87.225334 97.410025 
z
" style="fill:#d0d1df;stroke:#000000;stroke-linejoin:miter;stroke-width:0.1;"/>
    </g>
    <g id="patch_52">
     <path d="M 87.225334 97.410025 
C 87.225711 97.408705 87.226087 97.407384 87.226464 97.406064 
C 87.22684 97.404743 87.227216 97.403422 87.227592 97.402102 
L 75.617882 94.097659 
L 87.225334 97.410025 
z
" style="fill:#6ef1c9;stroke:#000000;stroke-linejoin:miter;stroke-width:0.1;"/>
    </g>
    <g id="patch_53">
     <path d="M 87.227592 97.402102 
C 87.245542 97.339038 87.262977 97.275829 87.279897 97.212481 
C 87.296817 97.149133 87.31322 97.085648 87.329105 97.022033 
L 75.617882 94.097659 
L 87.227592 97.402102 
z
" style="fill:#6ef1c9;stroke:#000000;stroke-linejoin:miter;stroke-width:0.1;"/>
    </g>
    <g id="patch_54">
     <path d="M 87.329105 97.022033 
C 87.332459 97.008601 87.33579 96.995163 87.339098 96.98172 
C 87.342406 96.968277 87.34569 96.954828 87.348952 96.941374 
L 75.617882 94.097659 
L 87.329105 97.022033 
z
" style="fill:#6ef1c9;stroke:#000000;stroke-linejoin:miter;stroke-width:0.1;"/>
    </g>
    <g id="patch_55">
     <path d="M 87.348952 96.941374 
C 87.359376 96.898371 87.369563 96.855312 87.379514 96.812198 
C 87.389464 96.769084 87.399178 96.725915 87.408654 96.682694 
L 75.617882 94.097659 
L 87.348952 96.941374 
z
" style="fill:#428317;stroke:#000000;stroke-linejoin:miter;stroke-width:0.1;"/>
    </g>
    <g id="patch_56">
     <path d="M 87.408654 96.682694 
C 87.408654 96.682694 87.408654 96.682694 87.408654 96.682694 
L 75.617882 94.097659 
L 87.408654 96.682694 
z
" style="fill:#428317;stroke:#000000;stroke-linejoin:miter;stroke-width:0.1;"/>
    </g>
    <g id="patch_57">
     <path d="M 87.408654 96.682694 
C 87.501018 96.261405 87.570737 95.835467 87.61751 95.406715 
C 87.664284 94.977963 87.688044 94.547011 87.688689 94.115716 
L 75.617882 94.097659 
L 87.408654 96.682694 
z
" style="fill:#428317;stroke:#000000;stroke-linejoin:miter;stroke-width:0.1;"/>
    </g>
    <g id="patch_58">
     <path d="M 87.688689 94.115716 
C 87.688689 94.115716 87.688689 94.115716 87.688689 94.115716 
L 75.617882 94.097659 
L 87.688689 94.115716 
z
" style="fill:#106832;stroke:#000000;stroke-linejoin:miter;stroke-width:0.1;"/>
    </g>
    <g id="patch_59">
     <path d="M 87.688689 94.115716 
C 87.688689 94.115716 87.688689 94.115716 87.688689 94.115716 
L 75.617882 94.097659 
L 87.688689 94.115716 
z
" style="fill:#56a45e;stroke:#000000;stroke-linejoin:miter;stroke-width:0.1;"/>
    </g>
    <g id="patch_60">
     <path d="M 87.688689 94.115716 
C 87.688689 94.115716 87.688689 94.115716 87.688689 94.115716 
L 75.617882 94.097659 
L 87.688689 94.115716 
z
" style="fill:#7ac890;stroke:#000000;stroke-linejoin:miter;stroke-width:0.1;"/>
    </g>
    <g id="patch_61">
     <path d="M 87.688689 94.115716 
C 87.688691 94.114614 87.688692 94.113512 87.688694 94.11241 
C 87.688695 94.111308 87.688696 94.110206 87.688697 94.109105 
L 75.617882 94.097659 
L 87.688689 94.115716 
z
" style="fill:#51a778;stroke:#000000;stroke-linejoin:miter;stroke-width:0.1;"/>
    </g>
    <g id="patch_62">
     <path d="M 87.688697 94.109105 
C 87.688698 94.108316 87.688699 94.107528 87.688699 94.10674 
C 87.6887 94.105951 87.6887 94.105163 87.688701 94.104375 
L 75.617882 94.097659 
L 87.688697 94.109105 
z
" style="fill:#34be72;stroke:#000000;stroke-linejoin:miter;stroke-width:0.1;"/>
    </g>
    <g id="patch_63">
     <path d="M 87.688701 94.104375 
C 87.688701 94.103256 87.688702 94.102137 87.688702 94.101018 
C 87.688702 94.0999 87.688703 94.098781 87.688703 94.097662 
L 75.617882 94.097659 
L 87.688701 94.104375 
z
" style="fill:#0ec460;stroke:#000000;stroke-linejoin:miter;stroke-width:0.1;"/>
    </g>
    <g id="patch_64">
     <path d="M 87.688703 94.097662 
C 87.688703 94.097662 87.688703 94.097662 87.688703 94.097662 
L 75.617882 94.097659 
L 87.688703 94.097662 
z
" style="fill:#069848;stroke:#000000;stroke-linejoin:miter;stroke-width:0.1;"/>
    </g>
    <g id="matplotlib.axis_5"/>
    <g id="matplotlib.axis_6"/>
   </g>
   <g id="axes_4">
    <g id="patch_65">
     <path d="M 87.688703 30.567026 
C 87.688703 30.565711 87.688702 30.564395 87.688702 30.563079 
C 87.688701 30.561764 87.688701 30.560448 87.6887 30.559132 
L 75.617882 30.567026 
L 87.688703 30.567026 
z
" style="fill:#e0e3e1;stroke:#000000;stroke-linejoin:miter;stroke-width:0.1;"/>
    </g>
    <g id="patch_66">
     <path d="M 87.6887 30.559132 
C 87.6887 30.559132 87.6887 30.559132 87.6887 30.559132 
L 75.617882 30.567026 
L 87.6887 30.559132 
z
" style="fill:#e0e3e1;stroke:#000000;stroke-linejoin:miter;stroke-width:0.1;"/>
    </g>
    <g id="patch_67">
     <path d="M 87.6887 30.559132 
C 87.687953 29.416357 87.524925 28.279457 87.204505 27.182522 
C 86.884086 26.085587 86.409509 25.039692 85.795006 24.076198 
L 75.617882 30.567026 
L 87.6887 30.559132 
z
" style="fill:#44aaaa;stroke:#000000;stroke-linejoin:miter;stroke-width:0.1;"/>
    </g>
    <g id="patch_68">
     <path d="M 85.795006 24.076198 
C 85.795006 24.076198 85.795006 24.076198 85.795006 24.076198 
L 75.617882 30.567026 
L 85.795006 24.076198 
z
" style="fill:#77aadd;stroke:#000000;stroke-linejoin:miter;stroke-width:0.1;"/>
    </g>
    <g id="patch_69">
     <path d="M 85.795006 24.076198 
C 84.587937 22.183605 82.876529 20.66472 80.853963 19.69099 
C 78.831397 18.717261 76.576749 18.326757 74.344519 18.563558 
C 72.11229 18.80036 69.989753 19.655208 68.216495 21.03161 
C 66.443238 22.408012 65.08859 24.252153 64.305461 26.355872 
C 63.522332 28.459591 63.34134 30.740637 63.782916 32.941531 
C 64.224492 35.142425 65.27137 37.177118 66.805382 38.815938 
C 68.339394 40.454758 70.300564 41.633631 72.467519 42.21949 
C 74.634473 42.805349 76.922491 42.775287 79.073306 42.132698 
L 75.617882 30.567026 
L 85.795006 24.076198 
z
" style="fill:#117777;stroke:#000000;stroke-linejoin:miter;stroke-width:0.1;"/>
    </g>
    <g id="patch_70">
     <path d="M 79.073306 42.132698 
C 79.078587 42.13112 79.083867 42.129538 79.089146 42.127953 
C 79.094425 42.126368 79.099703 42.124779 79.10498 42.123187 
L 75.617882 30.567026 
L 79.073306 42.132698 
z
" style="fill:#525fb7;stroke:#000000;stroke-linejoin:miter;stroke-width:0.1;"/>
    </g>
    <g id="patch_71">
     <path d="M 79.10498 42.123187 
C 79.10498 42.123187 79.10498 42.123187 79.10498 42.123187 
L 75.617882 30.567026 
L 79.10498 42.123187 
z
" style="fill:#a3604b;stroke:#000000;stroke-linejoin:miter;stroke-width:0.1;"/>
    </g>
    <g id="patch_72">
     <path d="M 79.10498 42.123187 
C 79.168838 42.103918 79.232535 42.08412 79.296065 42.063794 
C 79.359594 42.043469 79.422955 42.022618 79.486139 42.001242 
L 75.617882 30.567026 
L 79.10498 42.123187 
z
" style="fill:#a3604b;stroke:#000000;stroke-linejoin:miter;stroke-width:0.1;"/>
    </g>
    <g id="patch_73">
     <path d="M 79.486139 42.001242 
C 79.486139 42.001242 79.486139 42.001242 79.486139 42.001242 
L 75.617882 30.567026 
L 79.486139 42.001242 
z
" style="fill:#f53f06;stroke:#000000;stroke-linejoin:miter;stroke-width:0.1;"/>
    </g>
    <g id="patch_74">
     <path d="M 79.486139 42.001242 
C 81.213324 41.416926 82.785874 40.448787 84.08535 39.169741 
C 85.384825 37.890695 86.37776 36.333683 86.98937 34.615973 
L 75.617882 30.567026 
L 79.486139 42.001242 
z
" style="fill:#f53f06;stroke:#000000;stroke-linejoin:miter;stroke-width:0.1;"/>
    </g>
    <g id="patch_75">
     <path d="M 86.98937 34.615973 
C 86.98937 34.615973 86.98937 34.615973 86.98937 34.615973 
L 75.617882 30.567026 
L 86.98937 34.615973 
z
" style="fill:#dd7790;stroke:#000000;stroke-linejoin:miter;stroke-width:0.1;"/>
    </g>
    <g id="patch_76">
     <path d="M 86.98937 34.615973 
C 87.220344 33.967281 87.395388 33.300013 87.512585 32.621475 
C 87.629782 31.942936 87.688703 31.255612 87.688703 30.567026 
L 75.617882 30.567026 
L 86.98937 34.615973 
z
" style="fill:#771124;stroke:#000000;stroke-linejoin:miter;stroke-width:0.1;"/>
    </g>
    <g id="patch_77">
     <path d="M 87.688703 30.567026 
C 87.688703 30.567026 87.688703 30.567026 87.688703 30.567026 
L 75.617882 30.567026 
L 87.688703 30.567026 
z
" style="fill:#eeb29f;stroke:#000000;stroke-linejoin:miter;stroke-width:0.1;"/>
    </g>
    <g id="patch_78">
     <path d="M 87.688703 30.567026 
C 87.688703 30.567026 87.688703 30.567026 87.688703 30.567026 
L 75.617882 30.567026 
L 87.688703 30.567026 
z
" style="fill:#eeb29f;stroke:#000000;stroke-linejoin:miter;stroke-width:0.1;"/>
    </g>
    <g id="patch_79">
     <path d="M 87.688703 30.567026 
C 87.688703 30.567026 87.688703 30.567026 87.688703 30.567026 
L 75.617882 30.567026 
L 87.688703 30.567026 
z
" style="fill:#ff0240;stroke:#000000;stroke-linejoin:miter;stroke-width:0.1;"/>
    </g>
    <g id="patch_80">
     <path d="M 87.688703 30.567026 
C 87.688703 30.567026 87.688703 30.567026 87.688703 30.567026 
L 75.617882 30.567026 
L 87.688703 30.567026 
z
" style="fill:#d0d1df;stroke:#000000;stroke-linejoin:miter;stroke-width:0.1;"/>
    </g>
    <g id="patch_81">
     <path d="M 87.688703 30.567026 
C 87.688703 30.567026 87.688703 30.567026 87.688703 30.567026 
L 75.617882 30.567026 
L 87.688703 30.567026 
z
" style="fill:#6ef1c9;stroke:#000000;stroke-linejoin:miter;stroke-width:0.1;"/>
    </g>
    <g id="patch_82">
     <path d="M 87.688703 30.567026 
C 87.688703 30.567026 87.688703 30.567026 87.688703 30.567026 
L 75.617882 30.567026 
L 87.688703 30.567026 
z
" style="fill:#6ef1c9;stroke:#000000;stroke-linejoin:miter;stroke-width:0.1;"/>
    </g>
    <g id="patch_83">
     <path d="M 87.688703 30.567026 
C 87.688703 30.567026 87.688703 30.567026 87.688703 30.567026 
L 75.617882 30.567026 
L 87.688703 30.567026 
z
" style="fill:#6ef1c9;stroke:#000000;stroke-linejoin:miter;stroke-width:0.1;"/>
    </g>
    <g id="patch_84">
     <path d="M 87.688703 30.567026 
C 87.688703 30.567026 87.688703 30.567026 87.688703 30.567026 
L 75.617882 30.567026 
L 87.688703 30.567026 
z
" style="fill:#428317;stroke:#000000;stroke-linejoin:miter;stroke-width:0.1;"/>
    </g>
    <g id="patch_85">
     <path d="M 87.688703 30.567026 
C 87.688703 30.567026 87.688703 30.567026 87.688703 30.567026 
L 75.617882 30.567026 
L 87.688703 30.567026 
z
" style="fill:#428317;stroke:#000000;stroke-linejoin:miter;stroke-width:0.1;"/>
    </g>
    <g id="patch_86">
     <path d="M 87.688703 30.567026 
C 87.688703 30.567026 87.688703 30.567026 87.688703 30.567026 
L 75.617882 30.567026 
L 87.688703 30.567026 
z
" style="fill:#428317;stroke:#000000;stroke-linejoin:miter;stroke-width:0.1;"/>
    </g>
    <g id="patch_87">
     <path d="M 87.688703 30.567026 
C 87.688703 30.567026 87.688703 30.567026 87.688703 30.567026 
L 75.617882 30.567026 
L 87.688703 30.567026 
z
" style="fill:#106832;stroke:#000000;stroke-linejoin:miter;stroke-width:0.1;"/>
    </g>
    <g id="patch_88">
     <path d="M 87.688703 30.567026 
C 87.688703 30.567026 87.688703 30.567026 87.688703 30.567026 
L 75.617882 30.567026 
L 87.688703 30.567026 
z
" style="fill:#56a45e;stroke:#000000;stroke-linejoin:miter;stroke-width:0.1;"/>
    </g>
    <g id="patch_89">
     <path d="M 87.688703 30.567026 
C 87.688703 30.567026 87.688703 30.567026 87.688703 30.567026 
L 75.617882 30.567026 
L 87.688703 30.567026 
z
" style="fill:#7ac890;stroke:#000000;stroke-linejoin:miter;stroke-width:0.1;"/>
    </g>
    <g id="patch_90">
     <path d="M 87.688703 30.567026 
C 87.688703 30.567026 87.688703 30.567026 87.688703 30.567026 
L 75.617882 30.567026 
L 87.688703 30.567026 
z
" style="fill:#51a778;stroke:#000000;stroke-linejoin:miter;stroke-width:0.1;"/>
    </g>
    <g id="patch_91">
     <path d="M 87.688703 30.567026 
C 87.688703 30.567026 87.688703 30.567026 87.688703 30.567026 
L 75.617882 30.567026 
L 87.688703 30.567026 
z
" style="fill:#34be72;stroke:#000000;stroke-linejoin:miter;stroke-width:0.1;"/>
    </g>
    <g id="patch_92">
     <path d="M 87.688703 30.567026 
C 87.688703 30.567026 87.688703 30.567026 87.688703 30.567026 
L 75.617882 30.567026 
L 87.688703 30.567026 
z
" style="fill:#0ec460;stroke:#000000;stroke-linejoin:miter;stroke-width:0.1;"/>
    </g>
    <g id="patch_93">
     <path d="M 87.688703 30.567026 
C 87.688703 30.567026 87.688703 30.567026 87.688703 30.567026 
L 75.617882 30.567026 
L 87.688703 30.567026 
z
" style="fill:#069848;stroke:#000000;stroke-linejoin:miter;stroke-width:0.1;"/>
    </g>
    <g id="matplotlib.axis_7"/>
    <g id="matplotlib.axis_8"/>
   </g>
   <g id="axes_5">
    <g id="patch_94">
     <path d="M 168.855761 94.097659 
C 168.855761 94.03885 168.855332 93.980043 168.854472 93.92124 
C 168.853613 93.862438 168.852323 93.803643 168.850605 93.74486 
L 156.784941 94.097659 
L 168.855761 94.097659 
z
" style="fill:#e0e3e1;stroke:#000000;stroke-linejoin:miter;stroke-width:0.1;"/>
    </g>
    <g id="patch_95">
     <path d="M 168.850605 93.74486 
C 168.848717 93.680302 168.846311 93.61576 168.843387 93.55124 
C 168.840464 93.486721 168.837022 93.422226 168.833064 93.357762 
L 156.784941 94.097659 
L 168.850605 93.74486 
z
" style="fill:#e0e3e1;stroke:#000000;stroke-linejoin:miter;stroke-width:0.1;"/>
    </g>
    <g id="patch_96">
     <path d="M 168.833064 93.357762 
C 168.720697 91.528047 168.192983 89.747744 167.290087 88.152357 
C 166.38719 86.556969 165.132615 85.188028 163.62185 84.149725 
C 162.111085 83.111423 160.383457 82.430789 158.570461 82.159627 
C 156.757465 81.888465 154.906296 82.033834 153.15785 82.58467 
L 156.784941 94.097659 
L 168.833064 93.357762 
z
" style="fill:#44aaaa;stroke:#000000;stroke-linejoin:miter;stroke-width:0.1;"/>
    </g>
    <g id="patch_97">
     <path d="M 153.15785 82.58467 
C 153.156583 82.585069 153.155316 82.585469 153.154049 82.585868 
C 153.152782 82.586268 153.151515 82.586668 153.150248 82.587068 
L 156.784941 94.097659 
L 153.15785 82.58467 
z
" style="fill:#77aadd;stroke:#000000;stroke-linejoin:miter;stroke-width:0.1;"/>
    </g>
    <g id="patch_98">
     <path d="M 153.150248 82.587068 
C 151.147224 83.219562 149.343561 84.364072 147.91826 85.907014 
C 146.492959 87.449956 145.494784 89.33854 145.022798 91.385338 
L 156.784941 94.097659 
L 153.150248 82.587068 
z
" style="fill:#117777;stroke:#000000;stroke-linejoin:miter;stroke-width:0.1;"/>
    </g>
    <g id="patch_99">
     <path d="M 145.022798 91.385338 
C 145.022526 91.386517 145.022254 91.387696 145.021983 91.388875 
C 145.021711 91.390055 145.02144 91.391234 145.021169 91.392413 
L 156.784941 94.097659 
L 145.022798 91.385338 
z
" style="fill:#525fb7;stroke:#000000;stroke-linejoin:miter;stroke-width:0.1;"/>
    </g>
    <g id="patch_100">
     <path d="M 145.021169 91.392413 
C 145.021169 91.392413 145.021169 91.392413 145.021169 91.392413 
L 156.784941 94.097659 
L 145.021169 91.392413 
z
" style="fill:#a3604b;stroke:#000000;stroke-linejoin:miter;stroke-width:0.1;"/>
    </g>
    <g id="patch_101">
     <path d="M 145.021169 91.392413 
C 144.787844 92.407025 144.686761 93.447574 144.720438 94.488124 
C 144.754115 95.528674 144.922271 96.560509 145.220714 97.55791 
L 156.784941 94.097659 
L 145.021169 91.392413 
z
" style="fill:#a3604b;stroke:#000000;stroke-linejoin:miter;stroke-width:0.1;"/>
    </g>
    <g id="patch_102">
     <path d="M 145.220714 97.55791 
C 145.270457 97.724153 145.323779 97.889304 145.380643 98.053248 
C 145.437507 98.217192 145.4979 98.379891 145.561779 98.541231 
L 156.784941 94.097659 
L 145.220714 97.55791 
z
" style="fill:#f53f06;stroke:#000000;stroke-linejoin:miter;stroke-width:0.1;"/>
    </g>
    <g id="patch_103">
     <path d="M 145.561779 98.541231 
C 146.221225 100.206798 147.243242 101.704871 148.553476 102.926457 
C 149.863709 104.148043 151.429593 105.062782 153.137204 105.604123 
L 156.784941 94.097659 
L 145.561779 98.541231 
z
" style="fill:#f53f06;stroke:#000000;stroke-linejoin:miter;stroke-width:0.1;"/>
    </g>
    <g id="patch_104">
     <path d="M 153.137204 105.604123 
C 153.137204 105.604123 153.137204 105.604123 153.137204 105.604123 
L 156.784941 94.097659 
L 153.137204 105.604123 
z
" style="fill:#dd7790;stroke:#000000;stroke-linejoin:miter;stroke-width:0.1;"/>
    </g>
    <g id="patch_105">
     <path d="M 153.137204 105.604123 
C 155.776005 106.440666 158.623924 106.344533 161.200307 105.331948 
C 163.77669 104.319363 165.927954 102.450687 167.291023 100.041306 
L 156.784941 94.097659 
L 153.137204 105.604123 
z
" style="fill:#771124;stroke:#000000;stroke-linejoin:miter;stroke-width:0.1;"/>
    </g>
    <g id="patch_106">
     <path d="M 167.291023 100.041306 
C 167.291023 100.041306 167.291023 100.041306 167.291023 100.041306 
L 156.784941 94.097659 
L 167.291023 100.041306 
z
" style="fill:#eeb29f;stroke:#000000;stroke-linejoin:miter;stroke-width:0.1;"/>
    </g>
    <g id="patch_107">
     <path d="M 167.291023 100.041306 
C 167.291023 100.041306 167.291023 100.041306 167.291023 100.041306 
L 156.784941 94.097659 
L 167.291023 100.041306 
z
" style="fill:#eeb29f;stroke:#000000;stroke-linejoin:miter;stroke-width:0.1;"/>
    </g>
    <g id="patch_108">
     <path d="M 167.291023 100.041306 
C 167.291268 100.040872 167.291514 100.040439 167.291759 100.040006 
C 167.292004 100.039572 167.292249 100.039139 167.292494 100.038705 
L 156.784941 94.097659 
L 167.291023 100.041306 
z
" style="fill:#ff0240;stroke:#000000;stroke-linejoin:miter;stroke-width:0.1;"/>
    </g>
    <g id="patch_109">
     <path d="M 167.292494 100.038705 
C 167.292494 100.038705 167.292494 100.038705 167.292494 100.038705 
L 156.784941 94.097659 
L 167.292494 100.038705 
z
" style="fill:#d0d1df;stroke:#000000;stroke-linejoin:miter;stroke-width:0.1;"/>
    </g>
    <g id="patch_110">
     <path d="M 167.292494 100.038705 
C 167.292583 100.038548 167.292672 100.03839 167.292761 100.038232 
C 167.292851 100.038075 167.29294 100.037917 167.293029 100.037759 
L 156.784941 94.097659 
L 167.292494 100.038705 
z
" style="fill:#6ef1c9;stroke:#000000;stroke-linejoin:miter;stroke-width:0.1;"/>
    </g>
    <g id="patch_111">
     <path d="M 167.293029 100.037759 
C 167.63967 99.424549 167.931969 98.78217 168.16658 98.117983 
C 168.40119 97.453795 168.577212 96.770344 168.692628 96.075458 
L 156.784941 94.097659 
L 167.293029 100.037759 
z
" style="fill:#6ef1c9;stroke:#000000;stroke-linejoin:miter;stroke-width:0.1;"/>
    </g>
    <g id="patch_112">
     <path d="M 168.692628 96.075458 
C 168.721956 95.898884 168.747353 95.721679 168.7688 95.543974 
C 168.790247 95.36627 168.807738 95.188111 168.821262 95.009629 
L 156.784941 94.097659 
L 168.692628 96.075458 
z
" style="fill:#6ef1c9;stroke:#000000;stroke-linejoin:miter;stroke-width:0.1;"/>
    </g>
    <g id="patch_113">
     <path d="M 168.821262 95.009629 
C 168.823273 94.983079 168.825197 94.956523 168.827033 94.92996 
C 168.828869 94.903397 168.830617 94.876829 168.832277 94.850255 
L 156.784941 94.097659 
L 168.821262 95.009629 
z
" style="fill:#428317;stroke:#000000;stroke-linejoin:miter;stroke-width:0.1;"/>
    </g>
    <g id="patch_114">
     <path d="M 168.832277 94.850255 
C 168.832277 94.850255 168.832277 94.850255 168.832277 94.850255 
L 156.784941 94.097659 
L 168.832277 94.850255 
z
" style="fill:#428317;stroke:#000000;stroke-linejoin:miter;stroke-width:0.1;"/>
    </g>
    <g id="patch_115">
     <path d="M 168.832277 94.850255 
C 168.840103 94.724982 168.845974 94.599594 168.849889 94.474138 
C 168.853804 94.348682 168.855761 94.223172 168.855761 94.097655 
L 156.784941 94.097659 
L 168.832277 94.850255 
z
" style="fill:#428317;stroke:#000000;stroke-linejoin:miter;stroke-width:0.1;"/>
    </g>
    <g id="patch_116">
     <path d="M 168.855761 94.097655 
C 168.855761 94.097655 168.855761 94.097655 168.855761 94.097655 
L 156.784941 94.097659 
L 168.855761 94.097655 
z
" style="fill:#106832;stroke:#000000;stroke-linejoin:miter;stroke-width:0.1;"/>
    </g>
    <g id="patch_117">
     <path d="M 168.855761 94.097655 
C 168.855761 94.097655 168.855761 94.097655 168.855761 94.097655 
L 156.784941 94.097659 
L 168.855761 94.097655 
z
" style="fill:#56a45e;stroke:#000000;stroke-linejoin:miter;stroke-width:0.1;"/>
    </g>
    <g id="patch_118">
     <path d="M 168.855761 94.097655 
C 168.855761 94.097655 168.855761 94.097655 168.855761 94.097655 
L 156.784941 94.097659 
L 168.855761 94.097655 
z
" style="fill:#7ac890;stroke:#000000;stroke-linejoin:miter;stroke-width:0.1;"/>
    </g>
    <g id="patch_119">
     <path d="M 168.855761 94.097655 
C 168.855761 94.097655 168.855761 94.097655 168.855761 94.097655 
L 156.784941 94.097659 
L 168.855761 94.097655 
z
" style="fill:#51a778;stroke:#000000;stroke-linejoin:miter;stroke-width:0.1;"/>
    </g>
    <g id="patch_120">
     <path d="M 168.855761 94.097655 
C 168.855761 94.097655 168.855761 94.097655 168.855761 94.097655 
L 156.784941 94.097659 
L 168.855761 94.097655 
z
" style="fill:#34be72;stroke:#000000;stroke-linejoin:miter;stroke-width:0.1;"/>
    </g>
    <g id="patch_121">
     <path d="M 168.855761 94.097655 
C 168.855761 94.097655 168.855761 94.097655 168.855761 94.097655 
L 156.784941 94.097659 
L 168.855761 94.097655 
z
" style="fill:#0ec460;stroke:#000000;stroke-linejoin:miter;stroke-width:0.1;"/>
    </g>
    <g id="patch_122">
     <path d="M 168.855761 94.097655 
C 168.855761 94.097655 168.855761 94.097655 168.855761 94.097655 
L 156.784941 94.097659 
L 168.855761 94.097655 
z
" style="fill:#069848;stroke:#000000;stroke-linejoin:miter;stroke-width:0.1;"/>
    </g>
    <g id="matplotlib.axis_9"/>
    <g id="matplotlib.axis_10"/>
   </g>
   <g id="axes_6">
    <g id="patch_123">
     <path d="M 168.855761 30.567026 
C 168.855761 30.567026 168.855761 30.567026 168.855761 30.567026 
L 156.784941 30.567026 
L 168.855761 30.567026 
z
" style="fill:#e0e3e1;stroke:#000000;stroke-linejoin:miter;stroke-width:0.1;"/>
    </g>
    <g id="patch_124">
     <path d="M 168.855761 30.567026 
C 168.855761 30.567026 168.855761 30.567026 168.855761 30.567026 
L 156.784941 30.567026 
L 168.855761 30.567026 
z
" style="fill:#e0e3e1;stroke:#000000;stroke-linejoin:miter;stroke-width:0.1;"/>
    </g>
    <g id="patch_125">
     <path d="M 168.855761 30.567026 
C 168.855761 28.941334 168.52734 27.33227 167.89025 25.836612 
C 167.253159 24.340954 166.320434 22.989299 165.148172 21.862943 
C 163.97591 20.736586 162.588093 19.858571 161.068191 19.281705 
C 159.548288 18.704839 157.927395 18.440923 156.302999 18.505831 
L 156.784941 30.567026 
L 168.855761 30.567026 
z
" style="fill:#44aaaa;stroke:#000000;stroke-linejoin:miter;stroke-width:0.1;"/>
    </g>
    <g id="patch_126">
     <path d="M 156.302999 18.505831 
C 154.226731 18.588795 152.20664 19.206497 150.439041 20.298908 
C 148.671442 21.39132 147.215509 22.921869 146.212731 24.741816 
L 156.784941 30.567026 
L 156.302999 18.505831 
z
" style="fill:#77aadd;stroke:#000000;stroke-linejoin:miter;stroke-width:0.1;"/>
    </g>
    <g id="patch_127">
     <path d="M 146.212731 24.741816 
C 145.429393 26.163502 144.940812 27.728697 144.776286 29.343548 
C 144.61176 30.958398 144.774645 32.589967 145.255173 34.140419 
L 156.784941 30.567026 
L 146.212731 24.741816 
z
" style="fill:#117777;stroke:#000000;stroke-linejoin:miter;stroke-width:0.1;"/>
    </g>
    <g id="patch_128">
     <path d="M 145.255173 34.140419 
C 145.255173 34.140419 145.255173 34.140419 145.255173 34.140419 
L 156.784941 30.567026 
L 145.255173 34.140419 
z
" style="fill:#525fb7;stroke:#000000;stroke-linejoin:miter;stroke-width:0.1;"/>
    </g>
    <g id="patch_129">
     <path d="M 145.255173 34.140419 
C 145.255173 34.140419 145.255173 34.140419 145.255173 34.140419 
L 156.784941 30.567026 
L 145.255173 34.140419 
z
" style="fill:#a3604b;stroke:#000000;stroke-linejoin:miter;stroke-width:0.1;"/>
    </g>
    <g id="patch_130">
     <path d="M 145.255173 34.140419 
C 145.385379 34.560538 145.538451 34.973227 145.713702 35.376638 
C 145.888954 35.780049 146.086123 36.173581 146.304329 36.555471 
L 156.784941 30.567026 
L 145.255173 34.140419 
z
" style="fill:#a3604b;stroke:#000000;stroke-linejoin:miter;stroke-width:0.1;"/>
    </g>
    <g id="patch_131">
     <path d="M 146.304329 36.555471 
C 146.304329 36.555471 146.304329 36.555471 146.304329 36.555471 
L 156.784941 30.567026 
L 146.304329 36.555471 
z
" style="fill:#f53f06;stroke:#000000;stroke-linejoin:miter;stroke-width:0.1;"/>
    </g>
    <g id="patch_132">
     <path d="M 146.304329 36.555471 
C 146.304329 36.555471 146.304329 36.555471 146.304329 36.555471 
L 156.784941 30.567026 
L 146.304329 36.555471 
z
" style="fill:#f53f06;stroke:#000000;stroke-linejoin:miter;stroke-width:0.1;"/>
    </g>
    <g id="patch_133">
     <path d="M 146.304329 36.555471 
C 146.453006 36.815676 146.611321 37.070254 146.778946 37.318675 
C 146.946571 37.567097 147.12339 37.80919 147.309034 38.044451 
L 156.784941 30.567026 
L 146.304329 36.555471 
z
" style="fill:#dd7790;stroke:#000000;stroke-linejoin:miter;stroke-width:0.1;"/>
    </g>
    <g id="patch_134">
     <path d="M 147.309034 38.044451 
C 148.332098 39.340949 149.610442 40.413794 151.064762 41.196431 
C 152.519082 41.979069 154.118669 42.454972 155.764289 42.594618 
L 156.784941 30.567026 
L 147.309034 38.044451 
z
" style="fill:#771124;stroke:#000000;stroke-linejoin:miter;stroke-width:0.1;"/>
    </g>
    <g id="patch_135">
     <path d="M 155.764289 42.594618 
C 157.864392 42.772832 159.974999 42.397936 161.885263 41.507384 
C 163.795527 40.616831 165.439644 39.241299 166.653369 37.518202 
L 156.784941 30.567026 
L 155.764289 42.594618 
z
" style="fill:#eeb29f;stroke:#000000;stroke-linejoin:miter;stroke-width:0.1;"/>
    </g>
    <g id="patch_136">
     <path d="M 166.653369 37.518202 
C 166.653369 37.518202 166.653369 37.518202 166.653369 37.518202 
L 156.784941 30.567026 
L 166.653369 37.518202 
z
" style="fill:#eeb29f;stroke:#000000;stroke-linejoin:miter;stroke-width:0.1;"/>
    </g>
    <g id="patch_137">
     <path d="M 166.653369 37.518202 
C 166.653369 37.518202 166.653369 37.518202 166.653369 37.518202 
L 156.784941 30.567026 
L 166.653369 37.518202 
z
" style="fill:#ff0240;stroke:#000000;stroke-linejoin:miter;stroke-width:0.1;"/>
    </g>
    <g id="patch_138">
     <path d="M 166.653369 37.518202 
C 166.653369 37.518202 166.653369 37.518202 166.653369 37.518202 
L 156.784941 30.567026 
L 166.653369 37.518202 
z
" style="fill:#d0d1df;stroke:#000000;stroke-linejoin:miter;stroke-width:0.1;"/>
    </g>
    <g id="patch_139">
     <path d="M 166.653369 37.518202 
C 166.653369 37.518202 166.653369 37.518202 166.653369 37.518202 
L 156.784941 30.567026 
L 166.653369 37.518202 
z
" style="fill:#6ef1c9;stroke:#000000;stroke-linejoin:miter;stroke-width:0.1;"/>
    </g>
    <g id="patch_140">
     <path d="M 166.653369 37.518202 
C 167.055651 36.94709 167.407598 36.342134 167.705244 35.710147 
C 168.002889 35.078161 168.245112 34.421528 168.429183 33.747646 
L 156.784941 30.567026 
L 166.653369 37.518202 
z
" style="fill:#6ef1c9;stroke:#000000;stroke-linejoin:miter;stroke-width:0.1;"/>
    </g>
    <g id="patch_141">
     <path d="M 168.429183 33.747646 
C 168.460145 33.634294 168.48945 33.520496 168.517089 33.406288 
C 168.544728 33.292081 168.570698 33.177475 168.59499 33.062509 
L 156.784941 30.567026 
L 168.429183 33.747646 
z
" style="fill:#6ef1c9;stroke:#000000;stroke-linejoin:miter;stroke-width:0.1;"/>
    </g>
    <g id="patch_142">
     <path d="M 168.59499 33.062509 
C 168.614839 32.968576 168.633566 32.874409 168.651167 32.780029 
C 168.668769 32.685649 168.685244 32.591062 168.700588 32.496288 
L 156.784941 30.567026 
L 168.59499 33.062509 
z
" style="fill:#428317;stroke:#000000;stroke-linejoin:miter;stroke-width:0.1;"/>
    </g>
    <g id="patch_143">
     <path d="M 168.700588 32.496288 
C 168.700588 32.496288 168.700588 32.496288 168.700588 32.496288 
L 156.784941 30.567026 
L 168.700588 32.496288 
z
" style="fill:#428317;stroke:#000000;stroke-linejoin:miter;stroke-width:0.1;"/>
    </g>
    <g id="patch_144">
     <path d="M 168.700588 32.496288 
C 168.752209 32.177468 168.791012 31.856704 168.816906 31.534771 
C 168.842799 31.212838 168.855761 30.889996 168.855761 30.567024 
L 156.784941 30.567026 
L 168.700588 32.496288 
z
" style="fill:#428317;stroke:#000000;stroke-linejoin:miter;stroke-width:0.1;"/>
    </g>
    <g id="patch_145">
     <path d="M 168.855761 30.567024 
C 168.855761 30.567024 168.855761 30.567024 168.855761 30.567024 
L 156.784941 30.567026 
L 168.855761 30.567024 
z
" style="fill:#106832;stroke:#000000;stroke-linejoin:miter;stroke-width:0.1;"/>
    </g>
    <g id="patch_146">
     <path d="M 168.855761 30.567024 
C 168.855761 30.567024 168.855761 30.567024 168.855761 30.567024 
L 156.784941 30.567026 
L 168.855761 30.567024 
z
" style="fill:#56a45e;stroke:#000000;stroke-linejoin:miter;stroke-width:0.1;"/>
    </g>
    <g id="patch_147">
     <path d="M 168.855761 30.567024 
C 168.855761 30.567024 168.855761 30.567024 168.855761 30.567024 
L 156.784941 30.567026 
L 168.855761 30.567024 
z
" style="fill:#7ac890;stroke:#000000;stroke-linejoin:miter;stroke-width:0.1;"/>
    </g>
    <g id="patch_148">
     <path d="M 168.855761 30.567024 
C 168.855761 30.567024 168.855761 30.567024 168.855761 30.567024 
L 156.784941 30.567026 
L 168.855761 30.567024 
z
" style="fill:#51a778;stroke:#000000;stroke-linejoin:miter;stroke-width:0.1;"/>
    </g>
    <g id="patch_149">
     <path d="M 168.855761 30.567024 
C 168.855761 30.567024 168.855761 30.567024 168.855761 30.567024 
L 156.784941 30.567026 
L 168.855761 30.567024 
z
" style="fill:#34be72;stroke:#000000;stroke-linejoin:miter;stroke-width:0.1;"/>
    </g>
    <g id="patch_150">
     <path d="M 168.855761 30.567024 
C 168.855761 30.567024 168.855761 30.567024 168.855761 30.567024 
L 156.784941 30.567026 
L 168.855761 30.567024 
z
" style="fill:#0ec460;stroke:#000000;stroke-linejoin:miter;stroke-width:0.1;"/>
    </g>
    <g id="patch_151">
     <path d="M 168.855761 30.567024 
C 168.855761 30.567024 168.855761 30.567024 168.855761 30.567024 
L 156.784941 30.567026 
L 168.855761 30.567024 
z
" style="fill:#069848;stroke:#000000;stroke-linejoin:miter;stroke-width:0.1;"/>
    </g>
    <g id="matplotlib.axis_11"/>
    <g id="matplotlib.axis_12"/>
   </g>
   <g id="axes_7">
    <g id="patch_152">
     <path d="M 99.283997 128.840974 
C 99.283997 128.834729 99.283992 128.828485 99.283982 128.822241 
C 99.283972 128.815997 99.283958 128.809753 99.283939 128.803508 
L 87.213176 128.840974 
L 99.283997 128.840974 
z
" style="fill:#e0e3e1;stroke:#000000;stroke-linejoin:miter;stroke-width:0.1;"/>
    </g>
    <g id="patch_153">
     <path d="M 99.283939 128.803508 
C 99.282819 128.44279 99.265531 128.082303 99.232125 127.723133 
C 99.19872 127.363963 99.149232 127.006471 99.083809 126.651734 
L 87.213176 128.840974 
L 99.283939 128.803508 
z
" style="fill:#e0e3e1;stroke:#000000;stroke-linejoin:miter;stroke-width:0.1;"/>
    </g>
    <g id="patch_154">
     <path d="M 99.083809 126.651734 
C 98.79029 125.060194 98.179671 123.543819 97.288353 122.193003 
C 96.397035 120.842187 95.24309 119.684318 93.895307 118.78842 
C 92.547524 117.892522 91.03323 117.27676 89.442696 116.97784 
C 87.852162 116.67892 86.217636 116.702903 84.636557 117.04836 
C 83.055478 117.393817 81.559902 118.053743 80.238985 118.988799 
C 78.918068 119.923854 77.79859 121.115081 76.947288 122.491466 
C 76.095987 123.867851 75.53012 125.40149 75.283422 127.000956 
C 75.036724 128.600421 75.114197 130.233287 75.511221 131.802211 
L 87.213176 128.840974 
L 99.083809 126.651734 
z
" style="fill:#44aaaa;stroke:#000000;stroke-linejoin:miter;stroke-width:0.1;"/>
    </g>
    <g id="patch_155">
     <path d="M 75.511221 131.802211 
C 75.513377 131.810734 75.515543 131.819254 75.517719 131.827772 
C 75.519894 131.83629 75.522079 131.844805 75.524272 131.853319 
L 87.213176 128.840974 
L 75.511221 131.802211 
z
" style="fill:#77aadd;stroke:#000000;stroke-linejoin:miter;stroke-width:0.1;"/>
    </g>
    <g id="patch_156">
     <path d="M 75.524272 131.853319 
C 75.645241 132.322718 75.794375 132.784404 75.970864 133.235869 
C 76.147353 133.687334 76.350876 134.127759 76.580328 134.554749 
L 87.213176 128.840974 
L 75.524272 131.853319 
z
" style="fill:#117777;stroke:#000000;stroke-linejoin:miter;stroke-width:0.1;"/>
    </g>
    <g id="patch_157">
     <path d="M 76.580328 134.554749 
C 76.613426 134.616341 76.647058 134.677644 76.681221 134.738652 
C 76.715383 134.799659 76.750076 134.860368 76.785294 134.920773 
L 87.213176 128.840974 
L 76.580328 134.554749 
z
" style="fill:#525fb7;stroke:#000000;stroke-linejoin:miter;stroke-width:0.1;"/>
    </g>
    <g id="patch_158">
     <path d="M 76.785294 134.920773 
C 76.980126 135.254943 77.190909 135.579555 77.416913 135.893485 
C 77.642916 136.207414 77.88388 136.510299 78.138968 136.80109 
L 87.213176 128.840974 
L 76.785294 134.920773 
z
" style="fill:#a3604b;stroke:#000000;stroke-linejoin:miter;stroke-width:0.1;"/>
    </g>
    <g id="patch_159">
     <path d="M 78.138968 136.80109 
C 78.227227 136.901701 78.317153 137.000837 78.408709 137.098458 
C 78.500264 137.196078 78.593437 137.292169 78.688189 137.386691 
L 87.213176 128.840974 
L 78.138968 136.80109 
z
" style="fill:#a3604b;stroke:#000000;stroke-linejoin:miter;stroke-width:0.1;"/>
    </g>
    <g id="patch_160">
     <path d="M 78.688189 137.386691 
C 78.977756 137.675556 79.281819 137.949517 79.599199 138.207512 
C 79.91658 138.465508 80.246868 138.707206 80.588786 138.93167 
L 87.213176 128.840974 
L 78.688189 137.386691 
z
" style="fill:#f53f06;stroke:#000000;stroke-linejoin:miter;stroke-width:0.1;"/>
    </g>
    <g id="patch_161">
     <path d="M 80.588786 138.93167 
C 80.588786 138.93167 80.588786 138.93167 80.588786 138.93167 
L 87.213176 128.840974 
L 80.588786 138.93167 
z
" style="fill:#f53f06;stroke:#000000;stroke-linejoin:miter;stroke-width:0.1;"/>
    </g>
    <g id="patch_162">
     <path d="M 80.588786 138.93167 
C 80.588786 138.93167 80.588786 138.93167 80.588786 138.93167 
L 87.213176 128.840974 
L 80.588786 138.93167 
z
" style="fill:#dd7790;stroke:#000000;stroke-linejoin:miter;stroke-width:0.1;"/>
    </g>
    <g id="patch_163">
     <path d="M 80.588786 138.93167 
C 82.139013 139.94937 83.903112 140.596274 85.743751 140.822021 
C 87.584391 141.047767 89.452534 140.846343 91.202749 140.233428 
L 87.213176 128.840974 
L 80.588786 138.93167 
z
" style="fill:#771124;stroke:#000000;stroke-linejoin:miter;stroke-width:0.1;"/>
    </g>
    <g id="patch_164">
     <path d="M 91.202749 140.233428 
C 92.219758 139.877277 93.184514 139.386541 94.071268 138.774316 
C 94.958022 138.16209 95.758816 137.433871 96.45228 136.609092 
L 87.213176 128.840974 
L 91.202749 140.233428 
z
" style="fill:#eeb29f;stroke:#000000;stroke-linejoin:miter;stroke-width:0.1;"/>
    </g>
    <g id="patch_165">
     <path d="M 96.45228 136.609092 
C 96.45228 136.609092 96.45228 136.609092 96.45228 136.609092 
L 87.213176 128.840974 
L 96.45228 136.609092 
z
" style="fill:#eeb29f;stroke:#000000;stroke-linejoin:miter;stroke-width:0.1;"/>
    </g>
    <g id="patch_166">
     <path d="M 96.45228 136.609092 
C 96.453271 136.607913 96.454262 136.606734 96.455253 136.605555 
C 96.456244 136.604376 96.457234 136.603196 96.458224 136.602017 
L 87.213176 128.840974 
L 96.45228 136.609092 
z
" style="fill:#ff0240;stroke:#000000;stroke-linejoin:miter;stroke-width:0.1;"/>
    </g>
    <g id="patch_167">
     <path d="M 96.458224 136.602017 
C 96.458224 136.602017 96.458224 136.602017 96.458224 136.602017 
L 87.213176 128.840974 
L 96.458224 136.602017 
z
" style="fill:#d0d1df;stroke:#000000;stroke-linejoin:miter;stroke-width:0.1;"/>
    </g>
    <g id="patch_168">
     <path d="M 96.458224 136.602017 
C 96.461101 136.59859 96.463975 136.595163 96.466847 136.591733 
C 96.46972 136.588304 96.47259 136.584873 96.475459 136.58144 
L 87.213176 128.840974 
L 96.458224 136.602017 
z
" style="fill:#6ef1c9;stroke:#000000;stroke-linejoin:miter;stroke-width:0.1;"/>
    </g>
    <g id="patch_169">
     <path d="M 96.475459 136.58144 
C 96.475862 136.580958 96.476264 136.580476 96.476667 136.579995 
C 96.477069 136.579513 96.477472 136.579031 96.477875 136.578549 
L 87.213176 128.840974 
L 96.475459 136.58144 
z
" style="fill:#6ef1c9;stroke:#000000;stroke-linejoin:miter;stroke-width:0.1;"/>
    </g>
    <g id="patch_170">
     <path d="M 96.477875 136.578549 
C 96.477875 136.578549 96.477875 136.578549 96.477875 136.578549 
L 87.213176 128.840974 
L 96.477875 136.578549 
z
" style="fill:#6ef1c9;stroke:#000000;stroke-linejoin:miter;stroke-width:0.1;"/>
    </g>
    <g id="patch_171">
     <path d="M 96.477875 136.578549 
C 96.583219 136.452413 96.685977 136.324139 96.786083 136.193807 
C 96.88619 136.063475 96.983624 135.931112 97.078325 135.796801 
L 87.213176 128.840974 
L 96.477875 136.578549 
z
" style="fill:#428317;stroke:#000000;stroke-linejoin:miter;stroke-width:0.1;"/>
    </g>
    <g id="patch_172">
     <path d="M 97.078325 135.796801 
C 97.111469 135.749795 97.144277 135.702552 97.176745 135.655077 
C 97.209214 135.607601 97.241342 135.559894 97.273129 135.511959 
L 87.213176 128.840974 
L 97.078325 135.796801 
z
" style="fill:#428317;stroke:#000000;stroke-linejoin:miter;stroke-width:0.1;"/>
    </g>
    <g id="patch_173">
     <path d="M 97.273129 135.511959 
C 97.464014 135.224102 97.642455 134.928185 97.807961 134.625024 
C 97.973467 134.321863 98.125884 134.011738 98.264793 133.695505 
L 87.213176 128.840974 
L 97.273129 135.511959 
z
" style="fill:#428317;stroke:#000000;stroke-linejoin:miter;stroke-width:0.1;"/>
    </g>
    <g id="patch_174">
     <path d="M 98.264793 133.695505 
C 98.267141 133.69016 98.269485 133.684813 98.271825 133.679464 
C 98.274165 133.674115 98.276502 133.668765 98.278834 133.663412 
L 87.213176 128.840974 
L 98.264793 133.695505 
z
" style="fill:#106832;stroke:#000000;stroke-linejoin:miter;stroke-width:0.1;"/>
    </g>
    <g id="patch_175">
     <path d="M 98.278834 133.663412 
C 98.278834 133.663412 98.278834 133.663412 98.278834 133.663412 
L 87.213176 128.840974 
L 98.278834 133.663412 
z
" style="fill:#56a45e;stroke:#000000;stroke-linejoin:miter;stroke-width:0.1;"/>
    </g>
    <g id="patch_176">
     <path d="M 98.278834 133.663412 
C 98.278834 133.663412 98.278834 133.663412 98.278834 133.663412 
L 87.213176 128.840974 
L 98.278834 133.663412 
z
" style="fill:#7ac890;stroke:#000000;stroke-linejoin:miter;stroke-width:0.1;"/>
    </g>
    <g id="patch_177">
     <path d="M 98.278834 133.663412 
C 98.607738 132.908704 98.858571 132.122324 99.027412 131.316561 
C 99.196254 130.510797 99.282221 129.68987 99.283969 128.866609 
L 87.213176 128.840974 
L 98.278834 133.663412 
z
" style="fill:#51a778;stroke:#000000;stroke-linejoin:miter;stroke-width:0.1;"/>
    </g>
    <g id="patch_178">
     <path d="M 99.283969 128.866609 
C 99.283978 128.862585 99.283985 128.858561 99.283989 128.854537 
C 99.283994 128.850512 99.283996 128.846488 99.283997 128.842464 
L 87.213176 128.840974 
L 99.283969 128.866609 
z
" style="fill:#34be72;stroke:#000000;stroke-linejoin:miter;stroke-width:0.1;"/>
    </g>
    <g id="patch_179">
     <path d="M 99.283997 128.842464 
C 99.283997 128.842464 99.283997 128.842464 99.283997 128.842464 
L 87.213176 128.840974 
L 99.283997 128.842464 
z
" style="fill:#0ec460;stroke:#000000;stroke-linejoin:miter;stroke-width:0.1;"/>
    </g>
    <g id="patch_180">
     <path d="M 99.283997 128.842464 
C 99.283997 128.842216 99.283997 128.841969 99.283997 128.841722 
C 99.283997 128.841475 99.283997 128.841227 99.283997 128.84098 
L 87.213176 128.840974 
L 99.283997 128.842464 
z
" style="fill:#069848;stroke:#000000;stroke-linejoin:miter;stroke-width:0.1;"/>
    </g>
    <g id="matplotlib.axis_13"/>
    <g id="matplotlib.axis_14"/>
   </g>
   <g id="axes_8">
    <g id="patch_181">
     <path d="M 215.236938 104.02432 
C 215.236938 103.947086 215.236197 103.869854 215.234714 103.792635 
C 215.233232 103.715415 215.231008 103.638212 215.228044 103.561035 
L 203.166118 104.02432 
L 215.236938 104.02432 
z
" style="fill:#e0e3e1;stroke:#000000;stroke-linejoin:miter;stroke-width:0.1;"/>
    </g>
    <g id="patch_182">
     <path d="M 215.228044 103.561035 
C 215.194514 102.688049 215.066308 101.821278 214.845683 100.975967 
C 214.625057 100.130655 214.313313 99.311788 213.915933 98.533767 
L 203.166118 104.02432 
L 215.228044 103.561035 
z
" style="fill:#e0e3e1;stroke:#000000;stroke-linejoin:miter;stroke-width:0.1;"/>
    </g>
    <g id="patch_183">
     <path d="M 213.915933 98.533767 
C 212.593995 95.945579 210.380798 93.919899 207.68599 92.831668 
C 204.991182 91.743438 201.991958 91.664212 199.243456 92.608654 
C 196.494954 93.553097 194.177899 95.459108 192.721164 97.973896 
C 191.264428 100.488684 190.763799 103.446891 191.311939 106.300972 
L 203.166118 104.02432 
L 213.915933 98.533767 
z
" style="fill:#44aaaa;stroke:#000000;stroke-linejoin:miter;stroke-width:0.1;"/>
    </g>
    <g id="patch_184">
     <path d="M 191.311939 106.300972 
C 191.318652 106.335928 191.32552 106.370854 191.332543 106.405749 
C 191.339565 106.440644 191.346742 106.475508 191.354073 106.510339 
L 203.166118 104.02432 
L 191.311939 106.300972 
z
" style="fill:#77aadd;stroke:#000000;stroke-linejoin:miter;stroke-width:0.1;"/>
    </g>
    <g id="patch_185">
     <path d="M 191.354073 106.510339 
C 191.382725 106.646478 191.413729 106.782111 191.44707 106.917178 
C 191.480411 107.052245 191.516085 107.186725 191.554076 107.320558 
L 203.166118 104.02432 
L 191.354073 106.510339 
z
" style="fill:#117777;stroke:#000000;stroke-linejoin:miter;stroke-width:0.1;"/>
    </g>
    <g id="patch_186">
     <path d="M 191.554076 107.320558 
C 191.554469 107.321943 191.554862 107.323328 191.555256 107.324713 
C 191.55565 107.326098 191.556044 107.327483 191.556438 107.328868 
L 203.166118 104.02432 
L 191.554076 107.320558 
z
" style="fill:#525fb7;stroke:#000000;stroke-linejoin:miter;stroke-width:0.1;"/>
    </g>
    <g id="patch_187">
     <path d="M 191.556438 107.328868 
C 191.634206 107.602087 191.721595 107.872476 191.818441 108.139529 
C 191.915287 108.406582 192.021531 108.670133 192.136972 108.92969 
L 203.166118 104.02432 
L 191.556438 107.328868 
z
" style="fill:#a3604b;stroke:#000000;stroke-linejoin:miter;stroke-width:0.1;"/>
    </g>
    <g id="patch_188">
     <path d="M 192.136972 108.92969 
C 192.210407 109.0948 192.287541 109.25824 192.368314 109.419887 
C 192.449088 109.581534 192.533481 109.741346 192.62143 109.899204 
L 203.166118 104.02432 
L 192.136972 108.92969 
z
" style="fill:#a3604b;stroke:#000000;stroke-linejoin:miter;stroke-width:0.1;"/>
    </g>
    <g id="patch_189">
     <path d="M 192.62143 109.899204 
C 193.246471 111.021076 194.046564 112.036044 194.99148 112.905761 
C 195.936395 113.775479 197.014082 114.488852 198.183822 115.018929 
L 203.166118 104.02432 
L 192.62143 109.899204 
z
" style="fill:#f53f06;stroke:#000000;stroke-linejoin:miter;stroke-width:0.1;"/>
    </g>
    <g id="patch_190">
     <path d="M 198.183822 115.018929 
C 198.183822 115.018929 198.183822 115.018929 198.183822 115.018929 
L 203.166118 104.02432 
L 198.183822 115.018929 
z
" style="fill:#f53f06;stroke:#000000;stroke-linejoin:miter;stroke-width:0.1;"/>
    </g>
    <g id="patch_191">
     <path d="M 198.183822 115.018929 
C 198.183822 115.018929 198.183822 115.018929 198.183822 115.018929 
L 203.166118 104.02432 
L 198.183822 115.018929 
z
" style="fill:#dd7790;stroke:#000000;stroke-linejoin:miter;stroke-width:0.1;"/>
    </g>
    <g id="patch_192">
     <path d="M 198.183822 115.018929 
C 198.720372 115.262071 199.274001 115.465611 199.840271 115.627916 
C 200.40654 115.790222 200.983932 115.910858 201.567815 115.988857 
L 203.166118 104.02432 
L 198.183822 115.018929 
z
" style="fill:#771124;stroke:#000000;stroke-linejoin:miter;stroke-width:0.1;"/>
    </g>
    <g id="patch_193">
     <path d="M 201.567815 115.988857 
C 203.084971 116.191528 204.626924 116.10379 206.111297 115.730328 
C 207.595671 115.356866 208.995553 114.704452 210.236159 113.80794 
L 203.166118 104.02432 
L 201.567815 115.988857 
z
" style="fill:#eeb29f;stroke:#000000;stroke-linejoin:miter;stroke-width:0.1;"/>
    </g>
    <g id="patch_194">
     <path d="M 210.236159 113.80794 
C 210.236159 113.80794 210.236159 113.80794 210.236159 113.80794 
L 203.166118 104.02432 
L 210.236159 113.80794 
z
" style="fill:#eeb29f;stroke:#000000;stroke-linejoin:miter;stroke-width:0.1;"/>
    </g>
    <g id="patch_195">
     <path d="M 210.236159 113.80794 
C 210.24457 113.801862 210.252972 113.795774 210.261367 113.789674 
C 210.269761 113.783575 210.278148 113.777465 210.286527 113.771344 
L 203.166118 104.02432 
L 210.236159 113.80794 
z
" style="fill:#ff0240;stroke:#000000;stroke-linejoin:miter;stroke-width:0.1;"/>
    </g>
    <g id="patch_196">
     <path d="M 210.286527 113.771344 
C 210.286527 113.771344 210.286527 113.771344 210.286527 113.771344 
L 203.166118 104.02432 
L 210.286527 113.771344 
z
" style="fill:#d0d1df;stroke:#000000;stroke-linejoin:miter;stroke-width:0.1;"/>
    </g>
    <g id="patch_197">
     <path d="M 210.286527 113.771344 
C 210.353995 113.722057 210.42095 113.672071 210.48738 113.621393 
C 210.553811 113.570716 210.619713 113.51935 210.685077 113.467305 
L 203.166118 104.02432 
L 210.286527 113.771344 
z
" style="fill:#6ef1c9;stroke:#000000;stroke-linejoin:miter;stroke-width:0.1;"/>
    </g>
    <g id="patch_198">
     <path d="M 210.685077 113.467305 
C 211.001622 113.215256 211.305294 112.94745 211.594941 112.664901 
C 211.884588 112.382352 212.159845 112.085418 212.419669 111.775223 
L 203.166118 104.02432 
L 210.685077 113.467305 
z
" style="fill:#6ef1c9;stroke:#000000;stroke-linejoin:miter;stroke-width:0.1;"/>
    </g>
    <g id="patch_199">
     <path d="M 212.419669 111.775223 
C 212.419669 111.775223 212.419669 111.775223 212.419669 111.775223 
L 203.166118 104.02432 
L 212.419669 111.775223 
z
" style="fill:#6ef1c9;stroke:#000000;stroke-linejoin:miter;stroke-width:0.1;"/>
    </g>
    <g id="patch_200">
     <path d="M 212.419669 111.775223 
C 212.419888 111.774961 212.420107 111.7747 212.420326 111.774438 
C 212.420545 111.774176 212.420764 111.773915 212.420983 111.773653 
L 203.166118 104.02432 
L 212.419669 111.775223 
z
" style="fill:#428317;stroke:#000000;stroke-linejoin:miter;stroke-width:0.1;"/>
    </g>
    <g id="patch_201">
     <path d="M 212.420983 111.773653 
C 212.497546 111.682216 212.572749 111.58965 212.646568 111.495984 
C 212.720387 111.402319 212.792814 111.307564 212.863825 111.211752 
L 203.166118 104.02432 
L 212.420983 111.773653 
z
" style="fill:#428317;stroke:#000000;stroke-linejoin:miter;stroke-width:0.1;"/>
    </g>
    <g id="patch_202">
     <path d="M 212.863825 111.211752 
C 212.994924 111.034866 213.121158 110.854426 213.242387 110.670634 
C 213.363616 110.486843 213.479794 110.299769 213.59079 110.109623 
L 203.166118 104.02432 
L 212.863825 111.211752 
z
" style="fill:#428317;stroke:#000000;stroke-linejoin:miter;stroke-width:0.1;"/>
    </g>
    <g id="patch_203">
     <path d="M 213.59079 110.109623 
C 213.650754 110.006899 213.709196 109.903295 213.766098 109.798844 
C 213.822999 109.694393 213.878354 109.589106 213.932143 109.483019 
L 203.166118 104.02432 
L 213.59079 110.109623 
z
" style="fill:#106832;stroke:#000000;stroke-linejoin:miter;stroke-width:0.1;"/>
    </g>
    <g id="patch_204">
     <path d="M 213.932143 109.483019 
C 213.932322 109.482667 213.9325 109.482315 213.932679 109.481963 
C 213.932857 109.481611 213.933035 109.481259 213.933214 109.480907 
L 203.166118 104.02432 
L 213.932143 109.483019 
z
" style="fill:#56a45e;stroke:#000000;stroke-linejoin:miter;stroke-width:0.1;"/>
    </g>
    <g id="patch_205">
     <path d="M 213.933214 109.480907 
C 213.938788 109.469907 213.944346 109.458899 213.949887 109.447883 
C 213.955427 109.436866 213.960951 109.425841 213.966458 109.414807 
L 203.166118 104.02432 
L 213.933214 109.480907 
z
" style="fill:#7ac890;stroke:#000000;stroke-linejoin:miter;stroke-width:0.1;"/>
    </g>
    <g id="patch_206">
     <path d="M 213.966458 109.414807 
C 214.365141 108.616008 214.673977 107.775439 214.887295 106.908534 
C 215.100613 106.04163 215.217099 105.153729 215.234615 104.261137 
L 203.166118 104.02432 
L 213.966458 109.414807 
z
" style="fill:#51a778;stroke:#000000;stroke-linejoin:miter;stroke-width:0.1;"/>
    </g>
    <g id="patch_207">
     <path d="M 215.234615 104.261137 
C 215.234687 104.257461 215.234757 104.253785 215.234826 104.250109 
C 215.234895 104.246433 215.234962 104.242757 215.235027 104.239081 
L 203.166118 104.02432 
L 215.234615 104.261137 
z
" style="fill:#34be72;stroke:#000000;stroke-linejoin:miter;stroke-width:0.1;"/>
    </g>
    <g id="patch_208">
     <path d="M 215.235027 104.239081 
C 215.235647 104.20426 215.236116 104.169437 215.236434 104.134613 
C 215.236752 104.099788 215.23692 104.064962 215.236936 104.030136 
L 203.166118 104.02432 
L 215.235027 104.239081 
z
" style="fill:#0ec460;stroke:#000000;stroke-linejoin:miter;stroke-width:0.1;"/>
    </g>
    <g id="patch_209">
     <path d="M 215.236936 104.030136 
C 215.236937 104.029167 215.236937 104.028199 215.236937 104.02723 
C 215.236938 104.026261 215.236938 104.025292 215.236938 104.024323 
L 203.166118 104.02432 
L 215.236936 104.030136 
z
" style="fill:#069848;stroke:#000000;stroke-linejoin:miter;stroke-width:0.1;"/>
    </g>
    <g id="matplotlib.axis_15"/>
    <g id="matplotlib.axis_16"/>
   </g>
   <g id="axes_9">
    <g id="patch_210">
     <path d="M 215.236938 104.02432 
C 215.236938 103.864548 215.233766 103.704791 215.227423 103.545145 
C 215.221081 103.385498 215.211569 103.225993 215.198894 103.066725 
L 203.166118 104.02432 
L 215.236938 104.02432 
z
" style="fill:#e0e3e1;stroke:#000000;stroke-linejoin:miter;stroke-width:0.1;"/>
    </g>
    <g id="patch_211">
     <path d="M 215.198894 103.066725 
C 215.183962 102.879088 215.164642 102.691826 215.140952 102.505093 
C 215.117261 102.31836 215.089206 102.132206 215.056809 101.946785 
L 203.166118 104.02432 
L 215.198894 103.066725 
z
" style="fill:#e0e3e1;stroke:#000000;stroke-linejoin:miter;stroke-width:0.1;"/>
    </g>
    <g id="patch_212">
     <path d="M 215.056809 101.946785 
C 214.718223 100.008901 213.910975 98.18285 212.705586 96.628157 
C 211.500197 95.073463 209.932821 93.836757 208.140384 93.026076 
C 206.347946 92.215396 204.384209 91.855056 202.420723 91.976537 
C 200.457237 92.098017 198.552894 92.697675 196.874057 93.723122 
L 203.166118 104.02432 
L 215.056809 101.946785 
z
" style="fill:#44aaaa;stroke:#000000;stroke-linejoin:miter;stroke-width:0.1;"/>
    </g>
    <g id="patch_213">
     <path d="M 196.874057 93.723122 
C 196.869991 93.725606 196.865927 93.728092 196.861863 93.73058 
C 196.8578 93.733069 196.853739 93.73556 196.849678 93.738053 
L 203.166118 104.02432 
L 196.874057 93.723122 
z
" style="fill:#77aadd;stroke:#000000;stroke-linejoin:miter;stroke-width:0.1;"/>
    </g>
    <g id="patch_214">
     <path d="M 196.849678 93.738053 
C 196.528867 93.935052 196.217448 94.146951 195.916441 94.373057 
C 195.615435 94.599162 195.325171 94.839225 195.046601 95.092459 
L 203.166118 104.02432 
L 196.849678 93.738053 
z
" style="fill:#117777;stroke:#000000;stroke-linejoin:miter;stroke-width:0.1;"/>
    </g>
    <g id="patch_215">
     <path d="M 195.046601 95.092459 
C 194.592601 95.505168 194.170727 95.951893 193.784649 96.428747 
C 193.398571 96.905601 193.049411 97.411197 192.740207 97.941139 
L 203.166118 104.02432 
L 195.046601 95.092459 
z
" style="fill:#525fb7;stroke:#000000;stroke-linejoin:miter;stroke-width:0.1;"/>
    </g>
    <g id="patch_216">
     <path d="M 192.740207 97.941139 
C 192.672042 98.057968 192.605845 98.175933 192.541644 98.294986 
C 192.477444 98.414039 192.415249 98.534163 192.355086 98.655307 
L 203.166118 104.02432 
L 192.740207 97.941139 
z
" style="fill:#a3604b;stroke:#000000;stroke-linejoin:miter;stroke-width:0.1;"/>
    </g>
    <g id="patch_217">
     <path d="M 192.355086 98.655307 
C 192.293969 98.778374 192.234956 98.902475 192.178076 99.027557 
C 192.121196 99.152639 192.066455 99.278683 192.013878 99.405634 
L 203.166118 104.02432 
L 192.355086 98.655307 
z
" style="fill:#a3604b;stroke:#000000;stroke-linejoin:miter;stroke-width:0.1;"/>
    </g>
    <g id="patch_218">
     <path d="M 192.013878 99.405634 
C 191.736829 100.074595 191.520532 100.767129 191.367604 101.474856 
C 191.214676 102.182583 191.125736 102.902636 191.101861 103.626304 
L 203.166118 104.02432 
L 192.013878 99.405634 
z
" style="fill:#f53f06;stroke:#000000;stroke-linejoin:miter;stroke-width:0.1;"/>
    </g>
    <g id="patch_219">
     <path d="M 191.101861 103.626304 
C 191.101861 103.626304 191.101861 103.626304 191.101861 103.626304 
L 203.166118 104.02432 
L 191.101861 103.626304 
z
" style="fill:#f53f06;stroke:#000000;stroke-linejoin:miter;stroke-width:0.1;"/>
    </g>
    <g id="patch_220">
     <path d="M 191.101861 103.626304 
C 191.101861 103.626304 191.101861 103.626304 191.101861 103.626304 
L 203.166118 104.02432 
L 191.101861 103.626304 
z
" style="fill:#dd7790;stroke:#000000;stroke-linejoin:miter;stroke-width:0.1;"/>
    </g>
    <g id="patch_221">
     <path d="M 191.101861 103.626304 
C 191.059591 104.907542 191.221694 106.187373 191.582065 107.417613 
C 191.942437 108.647853 192.496498 109.812868 193.22339 110.868797 
L 203.166118 104.02432 
L 191.101861 103.626304 
z
" style="fill:#771124;stroke:#000000;stroke-linejoin:miter;stroke-width:0.1;"/>
    </g>
    <g id="patch_222">
     <path d="M 193.22339 110.868797 
C 193.891624 111.839517 194.698429 112.707164 195.618091 113.444086 
C 196.537753 114.181008 197.560397 114.779293 198.653431 115.219871 
L 203.166118 104.02432 
L 193.22339 110.868797 
z
" style="fill:#eeb29f;stroke:#000000;stroke-linejoin:miter;stroke-width:0.1;"/>
    </g>
    <g id="patch_223">
     <path d="M 198.653431 115.219871 
C 198.653431 115.219871 198.653431 115.219871 198.653431 115.219871 
L 203.166118 104.02432 
L 198.653431 115.219871 
z
" style="fill:#eeb29f;stroke:#000000;stroke-linejoin:miter;stroke-width:0.1;"/>
    </g>
    <g id="patch_224">
     <path d="M 198.653431 115.219871 
C 198.653431 115.219871 198.653431 115.219871 198.653431 115.219871 
L 203.166118 104.02432 
L 198.653431 115.219871 
z
" style="fill:#ff0240;stroke:#000000;stroke-linejoin:miter;stroke-width:0.1;"/>
    </g>
    <g id="patch_225">
     <path d="M 198.653431 115.219871 
C 198.655276 115.220615 198.65712 115.221358 198.658965 115.2221 
C 198.66081 115.222843 198.662654 115.223585 198.664499 115.224326 
L 203.166118 104.02432 
L 198.653431 115.219871 
z
" style="fill:#d0d1df;stroke:#000000;stroke-linejoin:miter;stroke-width:0.1;"/>
    </g>
    <g id="patch_226">
     <path d="M 198.664499 115.224326 
C 198.668635 115.225989 198.672772 115.227649 198.67691 115.229306 
C 198.681048 115.230964 198.685186 115.23262 198.689326 115.234273 
L 203.166118 104.02432 
L 198.664499 115.224326 
z
" style="fill:#6ef1c9;stroke:#000000;stroke-linejoin:miter;stroke-width:0.1;"/>
    </g>
    <g id="patch_227">
     <path d="M 198.689326 115.234273 
C 199.57194 115.586752 200.493102 115.833763 201.433657 115.970168 
C 202.374212 116.106573 203.327593 116.13142 204.273976 116.044193 
L 203.166118 104.02432 
L 198.689326 115.234273 
z
" style="fill:#6ef1c9;stroke:#000000;stroke-linejoin:miter;stroke-width:0.1;"/>
    </g>
    <g id="patch_228">
     <path d="M 204.273976 116.044193 
C 205.377289 115.942502 206.461364 115.689383 207.49563 115.291974 
C 208.529895 114.894565 209.504536 114.356638 210.392063 113.693364 
L 203.166118 104.02432 
L 204.273976 116.044193 
z
" style="fill:#6ef1c9;stroke:#000000;stroke-linejoin:miter;stroke-width:0.1;"/>
    </g>
    <g id="patch_229">
     <path d="M 210.392063 113.693364 
C 210.483946 113.624698 210.574844 113.554726 210.664732 113.483468 
C 210.75462 113.412211 210.843487 113.339676 210.931307 113.265886 
L 203.166118 104.02432 
L 210.392063 113.693364 
z
" style="fill:#428317;stroke:#000000;stroke-linejoin:miter;stroke-width:0.1;"/>
    </g>
    <g id="patch_230">
     <path d="M 210.931307 113.265886 
C 211.985095 112.380445 212.879716 111.321251 213.576406 110.134196 
C 214.273097 108.947142 214.761649 107.649623 215.020894 106.297859 
L 203.166118 104.02432 
L 210.931307 113.265886 
z
" style="fill:#428317;stroke:#000000;stroke-linejoin:miter;stroke-width:0.1;"/>
    </g>
    <g id="patch_231">
     <path d="M 215.020894 106.297859 
C 215.066408 106.060538 215.104785 105.821905 215.135974 105.582281 
C 215.167163 105.342656 215.191149 105.10215 215.2079 104.861086 
L 203.166118 104.02432 
L 215.020894 106.297859 
z
" style="fill:#428317;stroke:#000000;stroke-linejoin:miter;stroke-width:0.1;"/>
    </g>
    <g id="patch_232">
     <path d="M 215.2079 104.861086 
C 215.209185 104.84259 215.210428 104.824092 215.211628 104.805591 
C 215.212828 104.78709 215.213985 104.768586 215.2151 104.75008 
L 203.166118 104.02432 
L 215.2079 104.861086 
z
" style="fill:#106832;stroke:#000000;stroke-linejoin:miter;stroke-width:0.1;"/>
    </g>
    <g id="patch_233">
     <path d="M 215.2151 104.75008 
C 215.2151 104.75008 215.2151 104.75008 215.2151 104.75008 
L 203.166118 104.02432 
L 215.2151 104.75008 
z
" style="fill:#56a45e;stroke:#000000;stroke-linejoin:miter;stroke-width:0.1;"/>
    </g>
    <g id="patch_234">
     <path d="M 215.2151 104.75008 
C 215.2151 104.75008 215.2151 104.75008 215.2151 104.75008 
L 203.166118 104.02432 
L 215.2151 104.75008 
z
" style="fill:#7ac890;stroke:#000000;stroke-linejoin:miter;stroke-width:0.1;"/>
    </g>
    <g id="patch_235">
     <path d="M 215.2151 104.75008 
C 215.222377 104.629263 215.227837 104.508344 215.231477 104.387363 
C 215.235117 104.266383 215.236938 104.145354 215.236938 104.024319 
L 203.166118 104.02432 
L 215.2151 104.75008 
z
" style="fill:#51a778;stroke:#000000;stroke-linejoin:miter;stroke-width:0.1;"/>
    </g>
    <g id="patch_236">
     <path d="M 215.236938 104.024319 
C 215.236938 104.024319 215.236938 104.024319 215.236938 104.024319 
L 203.166118 104.02432 
L 215.236938 104.024319 
z
" style="fill:#34be72;stroke:#000000;stroke-linejoin:miter;stroke-width:0.1;"/>
    </g>
    <g id="patch_237">
     <path d="M 215.236938 104.024319 
C 215.236938 104.024319 215.236938 104.024319 215.236938 104.024319 
L 203.166118 104.02432 
L 215.236938 104.024319 
z
" style="fill:#0ec460;stroke:#000000;stroke-linejoin:miter;stroke-width:0.1;"/>
    </g>
    <g id="patch_238">
     <path d="M 215.236938 104.024319 
C 215.236938 104.024319 215.236938 104.024319 215.236938 104.024319 
L 203.166118 104.02432 
L 215.236938 104.024319 
z
" style="fill:#069848;stroke:#000000;stroke-linejoin:miter;stroke-width:0.1;"/>
    </g>
    <g id="matplotlib.axis_17"/>
    <g id="matplotlib.axis_18"/>
   </g>
  </g>
 </g>
 <defs>
  <clipPath id="p6e98dff557">
   <rect height="123.984" width="177.408" x="50.688" y="17.712"/>
  </clipPath>
 </defs>
</svg>
