<?xml version="1.0" encoding="utf-8" standalone="no"?>
<!DOCTYPE svg PUBLIC "-//W3C//DTD SVG 1.1//EN"
  "http://www.w3.org/Graphics/SVG/1.1/DTD/svg11.dtd">
<!-- Created with matplotlib (https://matplotlib.org/) -->
<svg height="172.8pt" version="1.1" viewBox="0 0 256.32 172.8" width="256.32pt" xmlns="http://www.w3.org/2000/svg" xmlns:xlink="http://www.w3.org/1999/xlink">
 <metadata>
  <rdf:RDF xmlns:cc="http://creativecommons.org/ns#" xmlns:dc="http://purl.org/dc/elements/1.1/" xmlns:rdf="http://www.w3.org/1999/02/22-rdf-syntax-ns#">
   <cc:Work>
    <dc:type rdf:resource="http://purl.org/dc/dcmitype/StillImage"/>
    <dc:date>2021-08-06T15:53:04.601694</dc:date>
    <dc:format>image/svg+xml</dc:format>
    <dc:creator>
     <cc:Agent>
      <dc:title>Matplotlib v3.3.4, https://matplotlib.org/</dc:title>
     </cc:Agent>
    </dc:creator>
   </cc:Work>
  </rdf:RDF>
 </metadata>
 <defs>
  <style type="text/css">*{stroke-linecap:butt;stroke-linejoin:round;}</style>
 </defs>
 <g id="figure_1">
  <g id="patch_1">
   <path d="M 0 172.8 
L 256.32 172.8 
L 256.32 0 
L 0 0 
z
" style="fill:#ffffff;"/>
  </g>
  <g id="axes_1">
   <g id="patch_2">
    <path d="M 25.632 146.88 
L 248.6304 146.88 
L 248.6304 8.64 
L 25.632 8.64 
z
" style="fill:#ffffff;"/>
   </g>
   <g id="patch_3">
    <path clip-path="url(#p8b48539f08)" d="M 50.19962 140.596364 
L 57.758888 140.596364 
L 57.758888 14.923636 
L 50.19962 14.923636 
z
" style="opacity:0.5;"/>
   </g>
   <g id="patch_4">
    <path clip-path="url(#p8b48539f08)" d="M 25.632 140.596364 
L 50.19962 140.596364 
L 50.19962 14.923636 
L 25.632 14.923636 
z
" style="fill:#f09c08;opacity:0.5;"/>
   </g>
   <g id="patch_5">
    <path clip-path="url(#p8b48539f08)" d="M 69.09779 140.596364 
L 93.66541 140.596364 
L 93.66541 14.923636 
L 69.09779 14.923636 
z
" style="fill:#2738e7;opacity:0.5;"/>
   </g>
   <g id="patch_6">
    <path clip-path="url(#p8b48539f08)" d="M 103.114495 140.596364 
L 154.139553 140.596364 
L 154.139553 14.923636 
L 103.114495 14.923636 
z
" style="fill:#cb340b;opacity:0.5;"/>
   </g>
   <g id="patch_7">
    <path clip-path="url(#p8b48539f08)" d="M 154.139553 140.596364 
L 267.528569 140.596364 
L 267.528569 14.923636 
L 154.139553 14.923636 
z
" style="fill:#30bd37;opacity:0.5;"/>
   </g>
   <g id="matplotlib.axis_1">
    <g id="xtick_1">
     <g id="line2d_1">
      <defs>
       <path d="M 0 0 
L 0 1.75 
" id="me65e3bd1dc" style="stroke:#000000;stroke-width:0.8;"/>
      </defs>
      <g>
       <use style="stroke:#000000;stroke-width:0.8;" x="40.750536" xlink:href="#me65e3bd1dc" y="146.88"/>
      </g>
     </g>
     <g id="text_1">
      <!-- 6 -->
      <g transform="translate(38.523661 157.448906)scale(0.07 -0.07)">
       <defs>
        <path d="M 33.015625 40.375 
Q 26.375 40.375 22.484375 35.828125 
Q 18.609375 31.296875 18.609375 23.390625 
Q 18.609375 15.53125 22.484375 10.953125 
Q 26.375 6.390625 33.015625 6.390625 
Q 39.65625 6.390625 43.53125 10.953125 
Q 47.40625 15.53125 47.40625 23.390625 
Q 47.40625 31.296875 43.53125 35.828125 
Q 39.65625 40.375 33.015625 40.375 
z
M 52.59375 71.296875 
L 52.59375 62.3125 
Q 48.875 64.0625 45.09375 64.984375 
Q 41.3125 65.921875 37.59375 65.921875 
Q 27.828125 65.921875 22.671875 59.328125 
Q 17.53125 52.734375 16.796875 39.40625 
Q 19.671875 43.65625 24.015625 45.921875 
Q 28.375 48.1875 33.59375 48.1875 
Q 44.578125 48.1875 50.953125 41.515625 
Q 57.328125 34.859375 57.328125 23.390625 
Q 57.328125 12.15625 50.6875 5.359375 
Q 44.046875 -1.421875 33.015625 -1.421875 
Q 20.359375 -1.421875 13.671875 8.265625 
Q 6.984375 17.96875 6.984375 36.375 
Q 6.984375 53.65625 15.1875 63.9375 
Q 23.390625 74.21875 37.203125 74.21875 
Q 40.921875 74.21875 44.703125 73.484375 
Q 48.484375 72.75 52.59375 71.296875 
z
" id="DejaVuSans-54"/>
       </defs>
       <use xlink:href="#DejaVuSans-54"/>
      </g>
     </g>
    </g>
    <g id="xtick_2">
     <g id="line2d_2">
      <g>
       <use style="stroke:#000000;stroke-width:0.8;" x="78.546875" xlink:href="#me65e3bd1dc" y="146.88"/>
      </g>
     </g>
     <g id="text_2">
      <!-- 8 -->
      <g transform="translate(76.32 157.448906)scale(0.07 -0.07)">
       <defs>
        <path d="M 31.78125 34.625 
Q 24.75 34.625 20.71875 30.859375 
Q 16.703125 27.09375 16.703125 20.515625 
Q 16.703125 13.921875 20.71875 10.15625 
Q 24.75 6.390625 31.78125 6.390625 
Q 38.8125 6.390625 42.859375 10.171875 
Q 46.921875 13.96875 46.921875 20.515625 
Q 46.921875 27.09375 42.890625 30.859375 
Q 38.875 34.625 31.78125 34.625 
z
M 21.921875 38.8125 
Q 15.578125 40.375 12.03125 44.71875 
Q 8.5 49.078125 8.5 55.328125 
Q 8.5 64.0625 14.71875 69.140625 
Q 20.953125 74.21875 31.78125 74.21875 
Q 42.671875 74.21875 48.875 69.140625 
Q 55.078125 64.0625 55.078125 55.328125 
Q 55.078125 49.078125 51.53125 44.71875 
Q 48 40.375 41.703125 38.8125 
Q 48.828125 37.15625 52.796875 32.3125 
Q 56.78125 27.484375 56.78125 20.515625 
Q 56.78125 9.90625 50.3125 4.234375 
Q 43.84375 -1.421875 31.78125 -1.421875 
Q 19.734375 -1.421875 13.25 4.234375 
Q 6.78125 9.90625 6.78125 20.515625 
Q 6.78125 27.484375 10.78125 32.3125 
Q 14.796875 37.15625 21.921875 38.8125 
z
M 18.3125 54.390625 
Q 18.3125 48.734375 21.84375 45.5625 
Q 25.390625 42.390625 31.78125 42.390625 
Q 38.140625 42.390625 41.71875 45.5625 
Q 45.3125 48.734375 45.3125 54.390625 
Q 45.3125 60.0625 41.71875 63.234375 
Q 38.140625 66.40625 31.78125 66.40625 
Q 25.390625 66.40625 21.84375 63.234375 
Q 18.3125 60.0625 18.3125 54.390625 
z
" id="DejaVuSans-56"/>
       </defs>
       <use xlink:href="#DejaVuSans-56"/>
      </g>
     </g>
    </g>
    <g id="xtick_3">
     <g id="line2d_3">
      <g>
       <use style="stroke:#000000;stroke-width:0.8;" x="116.343214" xlink:href="#me65e3bd1dc" y="146.88"/>
      </g>
     </g>
     <g id="text_3">
      <!-- 10 -->
      <g transform="translate(111.889464 157.448906)scale(0.07 -0.07)">
       <defs>
        <path d="M 12.40625 8.296875 
L 28.515625 8.296875 
L 28.515625 63.921875 
L 10.984375 60.40625 
L 10.984375 69.390625 
L 28.421875 72.90625 
L 38.28125 72.90625 
L 38.28125 8.296875 
L 54.390625 8.296875 
L 54.390625 0 
L 12.40625 0 
z
" id="DejaVuSans-49"/>
        <path d="M 31.78125 66.40625 
Q 24.171875 66.40625 20.328125 58.90625 
Q 16.5 51.421875 16.5 36.375 
Q 16.5 21.390625 20.328125 13.890625 
Q 24.171875 6.390625 31.78125 6.390625 
Q 39.453125 6.390625 43.28125 13.890625 
Q 47.125 21.390625 47.125 36.375 
Q 47.125 51.421875 43.28125 58.90625 
Q 39.453125 66.40625 31.78125 66.40625 
z
M 31.78125 74.21875 
Q 44.046875 74.21875 50.515625 64.515625 
Q 56.984375 54.828125 56.984375 36.375 
Q 56.984375 17.96875 50.515625 8.265625 
Q 44.046875 -1.421875 31.78125 -1.421875 
Q 19.53125 -1.421875 13.0625 8.265625 
Q 6.59375 17.96875 6.59375 36.375 
Q 6.59375 54.828125 13.0625 64.515625 
Q 19.53125 74.21875 31.78125 74.21875 
z
" id="DejaVuSans-48"/>
       </defs>
       <use xlink:href="#DejaVuSans-49"/>
       <use x="63.623047" xlink:href="#DejaVuSans-48"/>
      </g>
     </g>
    </g>
    <g id="xtick_4">
     <g id="line2d_4">
      <g>
       <use style="stroke:#000000;stroke-width:0.8;" x="154.139553" xlink:href="#me65e3bd1dc" y="146.88"/>
      </g>
     </g>
     <g id="text_4">
      <!-- 12 -->
      <g transform="translate(149.685803 157.448906)scale(0.07 -0.07)">
       <defs>
        <path d="M 19.1875 8.296875 
L 53.609375 8.296875 
L 53.609375 0 
L 7.328125 0 
L 7.328125 8.296875 
Q 12.9375 14.109375 22.625 23.890625 
Q 32.328125 33.6875 34.8125 36.53125 
Q 39.546875 41.84375 41.421875 45.53125 
Q 43.3125 49.21875 43.3125 52.78125 
Q 43.3125 58.59375 39.234375 62.25 
Q 35.15625 65.921875 28.609375 65.921875 
Q 23.96875 65.921875 18.8125 64.3125 
Q 13.671875 62.703125 7.8125 59.421875 
L 7.8125 69.390625 
Q 13.765625 71.78125 18.9375 73 
Q 24.125 74.21875 28.421875 74.21875 
Q 39.75 74.21875 46.484375 68.546875 
Q 53.21875 62.890625 53.21875 53.421875 
Q 53.21875 48.921875 51.53125 44.890625 
Q 49.859375 40.875 45.40625 35.40625 
Q 44.1875 33.984375 37.640625 27.21875 
Q 31.109375 20.453125 19.1875 8.296875 
z
" id="DejaVuSans-50"/>
       </defs>
       <use xlink:href="#DejaVuSans-49"/>
       <use x="63.623047" xlink:href="#DejaVuSans-50"/>
      </g>
     </g>
    </g>
    <g id="xtick_5">
     <g id="line2d_5">
      <g>
       <use style="stroke:#000000;stroke-width:0.8;" x="191.935892" xlink:href="#me65e3bd1dc" y="146.88"/>
      </g>
     </g>
     <g id="text_5">
      <!-- 14 -->
      <g transform="translate(187.482142 157.448906)scale(0.07 -0.07)">
       <defs>
        <path d="M 37.796875 64.3125 
L 12.890625 25.390625 
L 37.796875 25.390625 
z
M 35.203125 72.90625 
L 47.609375 72.90625 
L 47.609375 25.390625 
L 58.015625 25.390625 
L 58.015625 17.1875 
L 47.609375 17.1875 
L 47.609375 0 
L 37.796875 0 
L 37.796875 17.1875 
L 4.890625 17.1875 
L 4.890625 26.703125 
z
" id="DejaVuSans-52"/>
       </defs>
       <use xlink:href="#DejaVuSans-49"/>
       <use x="63.623047" xlink:href="#DejaVuSans-52"/>
      </g>
     </g>
    </g>
    <g id="xtick_6">
     <g id="line2d_6">
      <g>
       <use style="stroke:#000000;stroke-width:0.8;" x="229.732231" xlink:href="#me65e3bd1dc" y="146.88"/>
      </g>
     </g>
     <g id="text_6">
      <!-- 16 -->
      <g transform="translate(225.278481 157.448906)scale(0.07 -0.07)">
       <use xlink:href="#DejaVuSans-49"/>
       <use x="63.623047" xlink:href="#DejaVuSans-54"/>
      </g>
     </g>
    </g>
    <g id="text_7">
     <!-- Retention time/ min. -->
     <g transform="translate(90.975262 169.743281)scale(0.09 -0.09)">
      <defs>
       <path d="M 44.390625 34.1875 
Q 47.5625 33.109375 50.5625 29.59375 
Q 53.5625 26.078125 56.59375 19.921875 
L 66.609375 0 
L 56 0 
L 46.6875 18.703125 
Q 43.0625 26.03125 39.671875 28.421875 
Q 36.28125 30.8125 30.421875 30.8125 
L 19.671875 30.8125 
L 19.671875 0 
L 9.8125 0 
L 9.8125 72.90625 
L 32.078125 72.90625 
Q 44.578125 72.90625 50.734375 67.671875 
Q 56.890625 62.453125 56.890625 51.90625 
Q 56.890625 45.015625 53.6875 40.46875 
Q 50.484375 35.9375 44.390625 34.1875 
z
M 19.671875 64.796875 
L 19.671875 38.921875 
L 32.078125 38.921875 
Q 39.203125 38.921875 42.84375 42.21875 
Q 46.484375 45.515625 46.484375 51.90625 
Q 46.484375 58.296875 42.84375 61.546875 
Q 39.203125 64.796875 32.078125 64.796875 
z
" id="DejaVuSans-82"/>
       <path d="M 56.203125 29.59375 
L 56.203125 25.203125 
L 14.890625 25.203125 
Q 15.484375 15.921875 20.484375 11.0625 
Q 25.484375 6.203125 34.421875 6.203125 
Q 39.59375 6.203125 44.453125 7.46875 
Q 49.3125 8.734375 54.109375 11.28125 
L 54.109375 2.78125 
Q 49.265625 0.734375 44.1875 -0.34375 
Q 39.109375 -1.421875 33.890625 -1.421875 
Q 20.796875 -1.421875 13.15625 6.1875 
Q 5.515625 13.8125 5.515625 26.8125 
Q 5.515625 40.234375 12.765625 48.109375 
Q 20.015625 56 32.328125 56 
Q 43.359375 56 49.78125 48.890625 
Q 56.203125 41.796875 56.203125 29.59375 
z
M 47.21875 32.234375 
Q 47.125 39.59375 43.09375 43.984375 
Q 39.0625 48.390625 32.421875 48.390625 
Q 24.90625 48.390625 20.390625 44.140625 
Q 15.875 39.890625 15.1875 32.171875 
z
" id="DejaVuSans-101"/>
       <path d="M 18.3125 70.21875 
L 18.3125 54.6875 
L 36.8125 54.6875 
L 36.8125 47.703125 
L 18.3125 47.703125 
L 18.3125 18.015625 
Q 18.3125 11.328125 20.140625 9.421875 
Q 21.96875 7.515625 27.59375 7.515625 
L 36.8125 7.515625 
L 36.8125 0 
L 27.59375 0 
Q 17.1875 0 13.234375 3.875 
Q 9.28125 7.765625 9.28125 18.015625 
L 9.28125 47.703125 
L 2.6875 47.703125 
L 2.6875 54.6875 
L 9.28125 54.6875 
L 9.28125 70.21875 
z
" id="DejaVuSans-116"/>
       <path d="M 54.890625 33.015625 
L 54.890625 0 
L 45.90625 0 
L 45.90625 32.71875 
Q 45.90625 40.484375 42.875 44.328125 
Q 39.84375 48.1875 33.796875 48.1875 
Q 26.515625 48.1875 22.3125 43.546875 
Q 18.109375 38.921875 18.109375 30.90625 
L 18.109375 0 
L 9.078125 0 
L 9.078125 54.6875 
L 18.109375 54.6875 
L 18.109375 46.1875 
Q 21.34375 51.125 25.703125 53.5625 
Q 30.078125 56 35.796875 56 
Q 45.21875 56 50.046875 50.171875 
Q 54.890625 44.34375 54.890625 33.015625 
z
" id="DejaVuSans-110"/>
       <path d="M 9.421875 54.6875 
L 18.40625 54.6875 
L 18.40625 0 
L 9.421875 0 
z
M 9.421875 75.984375 
L 18.40625 75.984375 
L 18.40625 64.59375 
L 9.421875 64.59375 
z
" id="DejaVuSans-105"/>
       <path d="M 30.609375 48.390625 
Q 23.390625 48.390625 19.1875 42.75 
Q 14.984375 37.109375 14.984375 27.296875 
Q 14.984375 17.484375 19.15625 11.84375 
Q 23.34375 6.203125 30.609375 6.203125 
Q 37.796875 6.203125 41.984375 11.859375 
Q 46.1875 17.53125 46.1875 27.296875 
Q 46.1875 37.015625 41.984375 42.703125 
Q 37.796875 48.390625 30.609375 48.390625 
z
M 30.609375 56 
Q 42.328125 56 49.015625 48.375 
Q 55.71875 40.765625 55.71875 27.296875 
Q 55.71875 13.875 49.015625 6.21875 
Q 42.328125 -1.421875 30.609375 -1.421875 
Q 18.84375 -1.421875 12.171875 6.21875 
Q 5.515625 13.875 5.515625 27.296875 
Q 5.515625 40.765625 12.171875 48.375 
Q 18.84375 56 30.609375 56 
z
" id="DejaVuSans-111"/>
       <path id="DejaVuSans-32"/>
       <path d="M 52 44.1875 
Q 55.375 50.25 60.0625 53.125 
Q 64.75 56 71.09375 56 
Q 79.640625 56 84.28125 50.015625 
Q 88.921875 44.046875 88.921875 33.015625 
L 88.921875 0 
L 79.890625 0 
L 79.890625 32.71875 
Q 79.890625 40.578125 77.09375 44.375 
Q 74.3125 48.1875 68.609375 48.1875 
Q 61.625 48.1875 57.5625 43.546875 
Q 53.515625 38.921875 53.515625 30.90625 
L 53.515625 0 
L 44.484375 0 
L 44.484375 32.71875 
Q 44.484375 40.625 41.703125 44.40625 
Q 38.921875 48.1875 33.109375 48.1875 
Q 26.21875 48.1875 22.15625 43.53125 
Q 18.109375 38.875 18.109375 30.90625 
L 18.109375 0 
L 9.078125 0 
L 9.078125 54.6875 
L 18.109375 54.6875 
L 18.109375 46.1875 
Q 21.1875 51.21875 25.484375 53.609375 
Q 29.78125 56 35.6875 56 
Q 41.65625 56 45.828125 52.96875 
Q 50 49.953125 52 44.1875 
z
" id="DejaVuSans-109"/>
       <path d="M 25.390625 72.90625 
L 33.6875 72.90625 
L 8.296875 -9.28125 
L 0 -9.28125 
z
" id="DejaVuSans-47"/>
       <path d="M 10.6875 12.40625 
L 21 12.40625 
L 21 0 
L 10.6875 0 
z
" id="DejaVuSans-46"/>
      </defs>
      <use xlink:href="#DejaVuSans-82"/>
      <use x="64.982422" xlink:href="#DejaVuSans-101"/>
      <use x="126.505859" xlink:href="#DejaVuSans-116"/>
      <use x="165.714844" xlink:href="#DejaVuSans-101"/>
      <use x="227.238281" xlink:href="#DejaVuSans-110"/>
      <use x="290.617188" xlink:href="#DejaVuSans-116"/>
      <use x="329.826172" xlink:href="#DejaVuSans-105"/>
      <use x="357.609375" xlink:href="#DejaVuSans-111"/>
      <use x="418.791016" xlink:href="#DejaVuSans-110"/>
      <use x="482.169922" xlink:href="#DejaVuSans-32"/>
      <use x="513.957031" xlink:href="#DejaVuSans-116"/>
      <use x="553.166016" xlink:href="#DejaVuSans-105"/>
      <use x="580.949219" xlink:href="#DejaVuSans-109"/>
      <use x="678.361328" xlink:href="#DejaVuSans-101"/>
      <use x="739.884766" xlink:href="#DejaVuSans-47"/>
      <use x="773.576172" xlink:href="#DejaVuSans-32"/>
      <use x="805.363281" xlink:href="#DejaVuSans-109"/>
      <use x="902.775391" xlink:href="#DejaVuSans-105"/>
      <use x="930.558594" xlink:href="#DejaVuSans-110"/>
      <use x="993.9375" xlink:href="#DejaVuSans-46"/>
     </g>
    </g>
   </g>
   <g id="matplotlib.axis_2">
    <g id="ytick_1">
     <g id="line2d_7">
      <defs>
       <path d="M 0 0 
L -1.75 0 
" id="macc4b937c6" style="stroke:#000000;stroke-width:0.8;"/>
      </defs>
      <g>
       <use style="stroke:#000000;stroke-width:0.8;" x="25.632" xlink:href="#macc4b937c6" y="140.596364"/>
      </g>
     </g>
    </g>
    <g id="ytick_2">
     <g id="line2d_8">
      <g>
       <use style="stroke:#000000;stroke-width:0.8;" x="25.632" xlink:href="#macc4b937c6" y="117.954552"/>
      </g>
     </g>
    </g>
    <g id="ytick_3">
     <g id="line2d_9">
      <g>
       <use style="stroke:#000000;stroke-width:0.8;" x="25.632" xlink:href="#macc4b937c6" y="95.31274"/>
      </g>
     </g>
    </g>
    <g id="ytick_4">
     <g id="line2d_10">
      <g>
       <use style="stroke:#000000;stroke-width:0.8;" x="25.632" xlink:href="#macc4b937c6" y="72.670928"/>
      </g>
     </g>
    </g>
    <g id="ytick_5">
     <g id="line2d_11">
      <g>
       <use style="stroke:#000000;stroke-width:0.8;" x="25.632" xlink:href="#macc4b937c6" y="50.029116"/>
      </g>
     </g>
    </g>
    <g id="ytick_6">
     <g id="line2d_12">
      <g>
       <use style="stroke:#000000;stroke-width:0.8;" x="25.632" xlink:href="#macc4b937c6" y="27.387304"/>
      </g>
     </g>
    </g>
    <g id="text_8">
     <!-- Total ion count -->
     <g transform="translate(14.510281 110.680312)rotate(-90)scale(0.09 -0.09)">
      <defs>
       <path d="M -0.296875 72.90625 
L 61.375 72.90625 
L 61.375 64.59375 
L 35.5 64.59375 
L 35.5 0 
L 25.59375 0 
L 25.59375 64.59375 
L -0.296875 64.59375 
z
" id="DejaVuSans-84"/>
       <path d="M 34.28125 27.484375 
Q 23.390625 27.484375 19.1875 25 
Q 14.984375 22.515625 14.984375 16.5 
Q 14.984375 11.71875 18.140625 8.90625 
Q 21.296875 6.109375 26.703125 6.109375 
Q 34.1875 6.109375 38.703125 11.40625 
Q 43.21875 16.703125 43.21875 25.484375 
L 43.21875 27.484375 
z
M 52.203125 31.203125 
L 52.203125 0 
L 43.21875 0 
L 43.21875 8.296875 
Q 40.140625 3.328125 35.546875 0.953125 
Q 30.953125 -1.421875 24.3125 -1.421875 
Q 15.921875 -1.421875 10.953125 3.296875 
Q 6 8.015625 6 15.921875 
Q 6 25.140625 12.171875 29.828125 
Q 18.359375 34.515625 30.609375 34.515625 
L 43.21875 34.515625 
L 43.21875 35.40625 
Q 43.21875 41.609375 39.140625 45 
Q 35.0625 48.390625 27.6875 48.390625 
Q 23 48.390625 18.546875 47.265625 
Q 14.109375 46.140625 10.015625 43.890625 
L 10.015625 52.203125 
Q 14.9375 54.109375 19.578125 55.046875 
Q 24.21875 56 28.609375 56 
Q 40.484375 56 46.34375 49.84375 
Q 52.203125 43.703125 52.203125 31.203125 
z
" id="DejaVuSans-97"/>
       <path d="M 9.421875 75.984375 
L 18.40625 75.984375 
L 18.40625 0 
L 9.421875 0 
z
" id="DejaVuSans-108"/>
       <path d="M 48.78125 52.59375 
L 48.78125 44.1875 
Q 44.96875 46.296875 41.140625 47.34375 
Q 37.3125 48.390625 33.40625 48.390625 
Q 24.65625 48.390625 19.8125 42.84375 
Q 14.984375 37.3125 14.984375 27.296875 
Q 14.984375 17.28125 19.8125 11.734375 
Q 24.65625 6.203125 33.40625 6.203125 
Q 37.3125 6.203125 41.140625 7.25 
Q 44.96875 8.296875 48.78125 10.40625 
L 48.78125 2.09375 
Q 45.015625 0.34375 40.984375 -0.53125 
Q 36.96875 -1.421875 32.421875 -1.421875 
Q 20.0625 -1.421875 12.78125 6.34375 
Q 5.515625 14.109375 5.515625 27.296875 
Q 5.515625 40.671875 12.859375 48.328125 
Q 20.21875 56 33.015625 56 
Q 37.15625 56 41.109375 55.140625 
Q 45.0625 54.296875 48.78125 52.59375 
z
" id="DejaVuSans-99"/>
       <path d="M 8.5 21.578125 
L 8.5 54.6875 
L 17.484375 54.6875 
L 17.484375 21.921875 
Q 17.484375 14.15625 20.5 10.265625 
Q 23.53125 6.390625 29.59375 6.390625 
Q 36.859375 6.390625 41.078125 11.03125 
Q 45.3125 15.671875 45.3125 23.6875 
L 45.3125 54.6875 
L 54.296875 54.6875 
L 54.296875 0 
L 45.3125 0 
L 45.3125 8.40625 
Q 42.046875 3.421875 37.71875 1 
Q 33.40625 -1.421875 27.6875 -1.421875 
Q 18.265625 -1.421875 13.375 4.4375 
Q 8.5 10.296875 8.5 21.578125 
z
M 31.109375 56 
z
" id="DejaVuSans-117"/>
      </defs>
      <use xlink:href="#DejaVuSans-84"/>
      <use x="44.083984" xlink:href="#DejaVuSans-111"/>
      <use x="105.265625" xlink:href="#DejaVuSans-116"/>
      <use x="144.474609" xlink:href="#DejaVuSans-97"/>
      <use x="205.753906" xlink:href="#DejaVuSans-108"/>
      <use x="233.537109" xlink:href="#DejaVuSans-32"/>
      <use x="265.324219" xlink:href="#DejaVuSans-105"/>
      <use x="293.107422" xlink:href="#DejaVuSans-111"/>
      <use x="354.289062" xlink:href="#DejaVuSans-110"/>
      <use x="417.667969" xlink:href="#DejaVuSans-32"/>
      <use x="449.455078" xlink:href="#DejaVuSans-99"/>
      <use x="504.435547" xlink:href="#DejaVuSans-111"/>
      <use x="565.617188" xlink:href="#DejaVuSans-117"/>
      <use x="628.996094" xlink:href="#DejaVuSans-110"/>
      <use x="692.375" xlink:href="#DejaVuSans-116"/>
     </g>
    </g>
   </g>
   <g id="line2d_13">
    <path clip-path="url(#p8b48539f08)" d="M 25.625701 140.596364 
L 27.854897 140.509879 
L 27.980885 140.313177 
L 28.169079 138.72099 
L 28.295067 139.120852 
L 28.640746 140.504789 
L 29.048632 140.596364 
L 29.457304 140.596364 
L 29.488014 140.468345 
L 29.551008 140.596364 
L 29.896687 140.529809 
L 30.021887 140.472691 
L 30.116378 140.341291 
L 30.304572 140.32569 
L 30.43056 140.428137 
L 30.555761 140.596364 
L 30.806949 140.596364 
L 30.838446 140.466366 
L 30.932937 140.495948 
L 31.152628 140.298205 
L 31.309325 139.926822 
L 31.529804 140.596364 
L 31.59201 140.509316 
L 31.655004 140.323729 
L 31.874695 139.241786 
L 31.906192 139.402043 
L 32.345575 140.596364 
L 32.722751 140.596364 
L 32.848738 140.342873 
L 33.005436 140.345464 
L 33.162133 140.596364 
L 33.853491 140.5016 
L 33.978692 140.131167 
L 34.073182 140.023292 
L 34.104679 140.046652 
L 34.418861 140.596364 
L 34.763753 139.982327 
L 34.79525 140.009262 
L 35.077935 140.529271 
L 35.455111 140.596364 
L 38.155974 140.492667 
L 38.218181 140.326931 
L 38.375666 137.683995 
L 38.500866 136.148674 
L 38.532363 136.322174 
L 38.846545 139.936987 
L 38.878042 139.794468 
L 39.003242 139.604741 
L 39.066236 139.750196 
L 39.474909 140.596364 
L 40.259971 140.596364 
L 40.448165 140.031846 
L 40.573365 140.19916 
L 40.762347 140.596364 
L 43.117531 140.596364 
L 43.242732 139.648365 
L 43.431713 134.798884 
L 43.525417 136.006021 
L 43.808102 140.479173 
L 44.05929 140.534992 
L 44.561666 140.596364 
L 53.19813 140.596364 
L 53.229627 140.454585 
L 53.291833 140.596364 
L 53.983191 140.596364 
L 54.076895 139.173833 
L 54.171386 132.450469 
L 54.35958 95.358559 
L 54.454071 77.008981 
L 54.517065 83.192918 
L 54.861956 139.767065 
L 55.050938 140.596364 
L 55.113932 140.407493 
L 55.144641 140.596364 
L 56.150181 140.537856 
L 56.243885 140.081284 
L 56.432867 137.972651 
L 56.52657 138.484233 
L 56.840752 140.596364 
L 59.039239 140.521663 
L 59.132943 140.373042 
L 59.290427 140.596364 
L 63.49842 140.490231 
L 63.592911 140.448159 
L 63.62362 140.49665 
L 63.874808 140.596364 
L 70.12459 140.501003 
L 70.375779 140.206267 
L 70.59547 140.596364 
L 70.972646 140.503637 
L 71.034852 140.092554 
L 71.28604 135.912239 
L 71.380531 136.432631 
L 71.663216 140.302115 
L 71.72621 140.239601 
L 71.788417 140.14923 
L 71.851411 140.226048 
L 71.882908 140.175044 
L 71.914405 140.23425 
L 72.071102 140.35653 
L 72.165593 140.337716 
L 72.29158 140.596364 
L 72.479775 140.488764 
L 72.76246 140.477504 
L 73.013648 140.596364 
L 73.642012 140.501261 
L 73.735716 139.906104 
L 73.955407 136.348051 
L 74.049898 136.957332 
L 74.175098 139.221816 
L 74.36408 140.460133 
L 74.457783 140.428544 
L 74.520777 140.174503 
L 74.583771 138.75739 
L 74.678262 131.67531 
L 74.834959 92.804324 
L 75.023153 21.984372 
L 75.086147 23.03126 
L 75.149141 22.832244 
L 75.368832 14.923636 
L 75.400329 15.142348 
L 75.431826 21.151925 
L 75.651518 139.813782 
L 75.808215 140.475966 
L 76.216888 140.596364 
L 76.373585 140.497903 
L 77.064943 140.472897 
L 77.253137 140.410407 
L 77.441332 140.13152 
L 77.472829 140.205235 
L 77.567319 140.177277 
L 77.69252 139.226719 
L 77.912211 134.89265 
L 77.975205 135.295636 
L 78.226393 139.649297 
L 78.289387 139.512319 
L 78.446084 134.675637 
L 78.603569 129.001117 
L 78.635066 129.059612 
L 79.042952 140.447082 
L 79.105945 140.427692 
L 79.357134 139.580619 
L 79.420127 139.668422 
L 79.828013 140.596364 
L 79.85951 140.596364 
L 79.891007 140.45903 
L 79.985498 140.512693 
L 80.079201 140.175203 
L 80.173692 137.967145 
L 80.42488 126.903093 
L 80.487874 128.527774 
L 80.801269 139.766159 
L 81.053244 140.596364 
L 81.429633 140.494997 
L 81.617827 139.994398 
L 81.649324 140.006542 
L 81.680821 139.98224 
L 81.869015 140.476569 
L 82.1517 140.596364 
L 82.309185 140.503119 
L 82.654077 140.596364 
L 84.695866 140.503964 
L 84.915558 140.412503 
L 85.22974 140.596364 
L 87.427439 140.49028 
L 87.741621 139.888069 
L 88.118797 140.596364 
L 88.432979 140.496512 
L 88.621174 140.240857 
L 88.777871 139.962227 
L 88.935356 139.451892 
L 89.218041 140.449208 
L 89.437732 140.596364 
L 92.295293 140.491407 
L 92.609475 140.292428 
L 93.080354 140.596364 
L 98.826973 140.488853 
L 99.015954 140.2557 
L 99.047451 140.235619 
L 99.204149 140.49402 
L 99.675028 140.596364 
L 105.013761 140.596364 
L 105.045258 140.468641 
L 105.108252 140.596364 
L 113.335255 140.488009 
L 113.49274 140.330758 
L 113.587231 140.199671 
L 113.61794 140.236283 
L 113.838419 140.427674 
L 114.089607 140.596364 
L 116.507785 140.500094 
L 116.632985 140.127309 
L 116.82118 137.578966 
L 117.010161 135.725055 
L 117.449544 140.372942 
L 117.795223 140.596364 
L 118.391303 140.490386 
L 118.736982 140.268602 
L 118.893679 140.467873 
L 118.925176 140.415063 
L 118.956673 140.511438 
L 119.051164 140.596364 
L 119.082661 140.5339 
L 119.207861 140.596364 
L 120.338602 140.534725 
L 120.370099 140.434252 
L 120.464589 140.464426 
L 120.777984 140.515359 
L 120.903972 140.596364 
L 121.752027 140.49804 
L 121.845731 140.372295 
L 122.034712 138.080763 
L 122.19141 131.481713 
L 122.505592 116.300611 
L 122.537089 117.166704 
L 122.600083 118.940964 
L 123.070962 139.525142 
L 123.196162 139.496832 
L 123.415853 137.46141 
L 123.541841 134.0377 
L 123.856023 119.201971 
L 123.919017 119.826729 
L 124.012721 124.018914 
L 124.389897 139.899766 
L 124.546594 140.464718 
L 124.704079 140.476112 
L 125.143461 140.345024 
L 125.268662 140.506483 
L 125.300158 140.492037 
L 125.865529 140.596364 
L 125.991517 140.508652 
L 126.211208 140.220683 
L 126.399402 139.688346 
L 126.430899 139.707783 
L 126.462396 139.644178 
L 126.493893 139.774047 
L 126.52539 139.747402 
L 126.745081 140.332259 
L 126.901778 140.520096 
L 127.12147 140.372615 
L 127.372658 138.290723 
L 127.530142 135.189599 
L 128.032519 118.672581 
L 128.064016 119.131105 
L 128.503398 132.240273 
L 128.566392 131.944371 
L 128.69238 130.353506 
L 128.943568 124.215847 
L 128.974278 123.904595 
L 129.037271 124.200234 
L 129.163259 127.050215 
L 129.445944 138.724121 
L 129.697133 140.423425 
L 129.979818 140.48786 
L 130.105018 140.519932 
L 130.450697 140.596364 
L 130.513691 140.535564 
L 130.575897 140.596364 
L 131.801129 140.509825 
L 131.957826 140.154414 
L 132.083814 139.117937 
L 132.428705 133.953894 
L 132.491699 134.260851 
L 132.648397 136.543614 
L 132.931082 140.223902 
L 133.213767 140.490089 
L 133.873628 140.596364 
L 136.887886 140.497898 
L 137.296559 140.403876 
L 137.735941 140.596364 
L 141.253363 140.596364 
L 141.28486 140.466528 
L 141.347854 140.596364 
L 141.975431 140.596364 
L 142.006928 140.463554 
L 142.069922 140.596364 
L 153.249764 140.491982 
L 153.374964 140.346441 
L 153.532449 140.203818 
L 153.940334 140.51391 
L 154.945087 140.596364 
L 156.4845 140.48792 
L 156.609701 140.405989 
L 156.860889 139.943026 
L 156.892386 140.06459 
L 156.986877 139.99179 
L 157.08058 139.899751 
L 157.112077 139.942723 
L 157.489253 140.475123 
L 157.928636 140.596364 
L 161.226366 140.493369 
L 161.41456 140.332411 
L 161.853943 140.024494 
L 162.105131 140.41558 
L 162.136628 140.355956 
L 162.199622 140.436784 
L 162.356319 140.535647 
L 162.482307 140.596364 
L 164.05243 140.486586 
L 164.209127 140.377727 
L 164.491812 139.760753 
L 164.554806 139.725911 
L 164.6178 139.947728 
L 164.680007 139.941003 
L 164.931982 140.445795 
L 165.968232 140.596364 
L 166.313123 140.500225 
L 166.78479 140.333911 
L 166.8155 140.405228 
L 166.878494 140.276921 
L 166.909991 140.348055 
L 167.066688 140.369878 
L 167.192676 140.287665 
L 167.443864 140.023051 
L 167.475361 140.142022 
L 167.538355 140.098309 
L 167.758046 139.349848 
L 167.914743 138.8826 
L 167.94624 138.934016 
L 168.165931 139.444913 
L 168.228925 139.502883 
L 168.448617 140.160881 
L 168.480113 140.090772 
L 168.574604 140.137898 
L 168.668308 140.101079 
L 168.699805 140.194843 
L 168.762799 140.04405 
L 168.919496 139.962537 
L 169.139975 139.577178 
L 169.453369 139.258998 
L 170.018739 140.451327 
L 170.364418 140.596364 
L 173.158985 140.500486 
L 173.536161 140.157619 
L 174.101531 140.596364 
L 175.169278 140.491347 
L 175.357472 140.255681 
L 176.017333 135.369001 
L 176.04883 135.481382 
L 176.07954 135.497383 
L 176.488213 137.619071 
L 176.739401 138.035995 
L 176.770898 137.898297 
L 176.959092 136.813262 
L 177.08508 134.30457 
L 177.336268 120.827984 
L 177.649663 88.017733 
L 177.870141 70.852174 
L 177.901638 72.072894 
L 178.026839 78.187239 
L 178.623706 139.432966 
L 178.8119 140.456171 
L 178.969385 140.38116 
L 179.126082 139.671962 
L 179.408767 134.966763 
L 179.785156 128.461223 
L 179.974138 131.532566 
L 180.41352 139.925987 
L 180.601714 140.531245 
L 181.041884 140.596364 
L 181.418273 140.596364 
L 181.44977 140.461227 
L 181.512764 140.596364 
L 182.737208 140.522016 
L 182.956899 140.092794 
L 183.114383 138.438256 
L 183.271081 133.05258 
L 183.490772 115.447509 
L 183.930942 71.755116 
L 183.962439 72.285994 
L 184.150633 75.873293 
L 184.653009 136.578083 
L 184.716003 136.887305 
L 184.809707 136.826895 
L 184.872701 136.403299 
L 184.935695 136.665465 
L 185.406574 139.557376 
L 185.594768 140.201568 
L 185.689259 140.33952 
L 185.720756 140.327254 
L 185.815247 140.31876 
L 185.877453 140.420235 
L 185.90895 140.2983 
L 186.254629 140.22492 
L 186.442824 139.995114 
L 186.568811 139.790331 
L 186.757006 139.427667 
L 186.913703 139.645884 
L 187.134182 140.059326 
L 187.196388 140.178974 
L 187.353873 140.4738 
L 188.012947 140.596364 
L 188.201928 140.392328 
L 188.295632 140.42112 
L 188.327129 140.318903 
L 188.390122 140.254487 
L 188.98699 137.89869 
L 189.049196 137.953052 
L 189.300384 138.922154 
L 189.489366 139.659796 
L 189.520863 139.64329 
L 189.67756 139.877909 
L 189.709057 139.869361 
L 189.928748 140.27388 
L 189.960245 140.238351 
L 190.116943 140.473965 
L 190.431125 140.596364 
L 193.822559 140.492557 
L 194.387929 139.035871 
L 194.419426 139.089883 
L 194.48242 139.168568 
L 194.513917 139.049131 
L 194.890305 140.154338 
L 195.141494 140.481572 
L 195.298978 140.506905 
L 195.330475 140.310983 
L 195.392682 140.497106 
L 195.518669 140.496372 
L 195.550166 140.412045 
L 195.61316 140.484449 
L 196.052543 140.535741 
L 196.20924 140.596364 
L 199.255783 140.520634 
L 199.41248 140.3726 
L 199.538468 140.328804 
L 199.569965 140.185727 
L 199.663668 140.207033 
L 199.821153 140.317268 
L 199.883359 140.318748 
L 199.914856 140.375717 
L 200.072341 140.492363 
L 200.355026 140.52498 
L 200.386523 140.380329 
L 200.448729 140.525537 
L 200.54322 140.596364 
L 200.669208 140.527607 
L 200.825905 140.53775 
L 200.982603 140.596364 
L 201.893652 140.501098 
L 202.270041 140.358879 
L 202.835411 140.596364 
L 203.620472 140.596364 
L 203.651969 140.466961 
L 203.714963 140.596364 
L 221.58397 140.52778 
L 221.865867 140.129234 
L 222.148553 140.220061 
L 222.337534 140.376875 
L 222.462735 140.527347 
L 222.965111 140.596364 
L 226.325835 140.49118 
L 226.482533 139.646557 
L 226.702224 136.309897 
L 227.047903 123.167431 
L 227.393582 108.285478 
L 227.424292 108.431404 
L 227.67548 116.217475 
L 228.084153 137.200806 
L 228.303844 139.756919 
L 228.586529 140.506813 
L 229.559785 140.596364 
L 230.28264 140.596364 
L 230.314137 140.449953 
L 230.376343 140.596364 
L 242.906617 140.497197 
L 243.252296 140.233746 
L 243.408993 139.928448 
L 243.660181 140.09104 
L 243.691678 139.96368 
L 243.754672 140.04631 
L 243.91137 140.301998 
L 243.974363 140.365897 
L 244.162558 140.4874 
L 245.669687 140.596364 
L 245.701184 140.53179 
L 245.764178 140.596364 
L 248.653235 140.596364 
L 248.653235 140.596364 
" style="fill:none;stroke:#000000;stroke-linecap:square;"/>
   </g>
   <g id="patch_8">
    <path d="M 25.632 146.88 
L 25.632 8.64 
" style="fill:none;stroke:#000000;stroke-linecap:square;stroke-linejoin:miter;stroke-width:0.8;"/>
   </g>
   <g id="patch_9">
    <path d="M 248.6304 146.88 
L 248.6304 8.64 
" style="fill:none;stroke:#000000;stroke-linecap:square;stroke-linejoin:miter;stroke-width:0.8;"/>
   </g>
   <g id="patch_10">
    <path d="M 25.632 146.88 
L 248.6304 146.88 
" style="fill:none;stroke:#000000;stroke-linecap:square;stroke-linejoin:miter;stroke-width:0.8;"/>
   </g>
   <g id="patch_11">
    <path d="M 25.632 8.64 
L 248.6304 8.64 
" style="fill:none;stroke:#000000;stroke-linecap:square;stroke-linejoin:miter;stroke-width:0.8;"/>
   </g>
  </g>
 </g>
 <defs>
  <clipPath id="p8b48539f08">
   <rect height="138.24" width="222.9984" x="25.632" y="8.64"/>
  </clipPath>
 </defs>
</svg>
