<?xml version="1.0" encoding="utf-8" standalone="no"?>
<!DOCTYPE svg PUBLIC "-//W3C//DTD SVG 1.1//EN"
  "http://www.w3.org/Graphics/SVG/1.1/DTD/svg11.dtd">
<svg height="185.04pt" version="1.1" viewBox="0 0 253.44 185.04" width="253.44pt" xmlns="http://www.w3.org/2000/svg" xmlns:xlink="http://www.w3.org/1999/xlink">
 <metadata>
  <rdf:RDF xmlns:cc="http://creativecommons.org/ns#" xmlns:dc="http://purl.org/dc/elements/1.1/" xmlns:rdf="http://www.w3.org/1999/02/22-rdf-syntax-ns#">
   <cc:Work>
    <dc:type rdf:resource="http://purl.org/dc/dcmitype/StillImage"/>
    <dc:date>2021-07-12T17:42:26.697904</dc:date>
    <dc:format>image/svg+xml</dc:format>
    <dc:creator>
     <cc:Agent>
      <dc:title>Matplotlib v3.4.1, https://matplotlib.org/</dc:title>
     </cc:Agent>
    </dc:creator>
   </cc:Work>
  </rdf:RDF>
 </metadata>
 <defs>
  <style type="text/css">*{stroke-linecap:butt;stroke-linejoin:round;}</style>
 </defs>
 <g id="figure_1">
  <g id="patch_1">
   <path d="M 0 185.04 
L 253.44 185.04 
L 253.44 0 
L 0 0 
z
" style="fill:#ffffff;"/>
  </g>
  <g id="axes_1">
   <g id="line2d_1">
    <path clip-path="url(#p4c6b7427d3)" d="M 123.278064 25.258185 
L 118.353167 20.708914 
M 123.278064 25.258185 
L 125.685588 18.229091 
M 123.278064 25.258185 
L 127.141088 31.48409 
M 223.9913 65.289847 
L 227.506468 59.584497 
M 223.9913 65.289847 
L 232.101818 64.786856 
M 223.9913 65.289847 
L 218.215072 70.500989 
M 210.058783 99.298397 
L 215.935705 104.783389 
M 210.058783 99.298397 
L 217.638365 99.945099 
M 210.058783 99.298397 
L 201.902494 96.935139 
M 108.73314 148.918816 
L 108.56562 156.176251 
M 108.73314 148.918816 
L 102.78207 153.294035 
M 108.73314 148.918816 
L 114.297908 142.132435 
M 205.54582 107.290358 
L 210.598874 113.222453 
M 205.54582 107.290358 
L 213.537335 109.462 
M 205.54582 107.290358 
L 197.966238 103.80136 
M 126.903082 153.166292 
L 127.708641 160.16824 
M 126.903082 153.166292 
L 121.92326 159.122339 
M 126.903082 153.166292 
L 131.168885 145.661353 
M 144.240917 109.42208 
L 151.225484 112.216472 
M 144.240917 109.42208 
L 148.744727 106.172601 
M 144.240917 109.42208 
L 137.210581 108.567794 
M 135.681849 151.377881 
L 140.277199 156.61537 
M 135.681849 151.377881 
L 134.986138 158.739108 
M 135.681849 151.377881 
L 131.168885 145.661353 
M 110.791893 136.735266 
L 106.23499 142.539618 
M 110.791893 136.735266 
L 103.67917 138.906908 
M 110.791893 136.735266 
L 117.831384 135.41791 
M 223.039275 83.696907 
L 229.68514 80.168787 
M 223.039275 83.696907 
L 230.8294 85.419849 
M 223.039275 83.696907 
L 215.798394 86.0921 
M 222.078096 90.787477 
L 227.826861 95.757503 
M 222.078096 90.787477 
L 230.115382 91.339968 
M 222.078096 90.787477 
L 215.798394 86.0921 
M 127.141088 31.48409 
L 129.905621 25.708481 
M 127.141088 31.48409 
L 132.12091 37.156706 
M 137.210581 108.567794 
L 139.819495 112.911078 
M 137.210581 108.567794 
L 131.827979 107.929076 
M 137.906291 31.409839 
L 143.655056 26.17235 
M 137.906291 31.409839 
L 138.492152 24.618828 
M 137.906291 31.409839 
L 132.12091 37.156706 
M 199.568203 110.396125 
L 201.536331 116.751371 
M 199.568203 110.396125 
L 206.19576 115.266351 
M 199.568203 110.396125 
L 197.966238 103.80136 
M 163.913044 159.721137 
L 170.137822 162.906744 
M 163.913044 159.721137 
L 163.171564 166.810909 
M 163.913044 159.721137 
L 158.90576 154.459696 
M 165.505855 57.703472 
L 169.670963 50.889945 
M 165.505855 57.703472 
L 172.133412 54.971355 
M 165.505855 57.703472 
L 158.759295 59.962937 
M 136.194477 49.320295 
L 131.855441 43.983007 
M 136.194477 49.320295 
L 139.938498 43.497581 
M 136.194477 49.320295 
L 134.208041 53.885534 
M 215.798394 86.0921 
L 208.218812 83.148407 
M 154.044942 50.267195 
L 154.099866 42.541899 
M 154.044942 50.267195 
L 158.823374 43.900772 
M 154.044942 50.267195 
L 150.310075 56.887509 
M 131.168885 145.661353 
L 128.42266 138.044639 
M 218.215072 70.500989 
L 225.565802 71.286612 
M 218.215072 70.500989 
L 211.953679 76.438673 
M 114.297908 142.132435 
L 114.599992 147.944771 
M 114.297908 142.132435 
L 117.831384 135.41791 
M 194.89962 62.136974 
L 198.84503 55.686719 
M 194.89962 62.136974 
L 201.966573 60.000462 
M 194.89962 62.136974 
L 187.915053 65.016795 
M 211.953679 76.438673 
L 217.162353 75.677001 
M 211.953679 76.438673 
L 208.218812 83.148407 
M 161.102741 52.882746 
L 166.933892 47.099951 
M 161.102741 52.882746 
L 162.457545 45.362638 
M 161.102741 52.882746 
L 158.759295 59.962937 
M 177.543476 75.154849 
L 177.406165 69.167665 
M 177.543476 75.154849 
L 182.248675 70.949688 
M 177.543476 75.154849 
L 178.641966 79.261009 
M 146.75829 51.056012 
L 148.717265 43.469637 
M 146.75829 51.056012 
L 143.453666 45.090384 
M 146.75829 51.056012 
L 150.310075 56.887509 
M 197.966238 103.80136 
L 195.247475 96.767476 
M 132.12091 37.156706 
L 130.830184 45.955049 
M 158.90576 154.459696 
L 155.948991 160.934702 
M 158.90576 154.459696 
L 153.962555 148.455745 
M 150.310075 56.887509 
L 152.323974 63.461516 
M 131.827979 107.929076 
L 126.555226 110.691532 
M 131.827979 107.929076 
L 128.193808 108.288355 
M 117.831384 135.41791 
L 125.026494 131.601569 
M 201.902494 96.935139 
L 203.815698 101.549878 
M 201.902494 96.935139 
L 195.247475 96.767476 
M 159.729628 128.016763 
L 166.686732 130.164453 
M 159.729628 128.016763 
L 163.546881 134.523705 
M 159.729628 128.016763 
L 152.040197 124.727365 
M 188.867078 57.658761 
L 189.672638 50.608111 
M 188.867078 57.658761 
L 194.460224 52.217681 
M 188.867078 57.658761 
L 187.915053 65.016795 
M 208.218812 83.148407 
L 199.586511 86.462556 
M 158.759295 59.962937 
L 152.323974 63.461516 
M 123.177369 123.130569 
L 120.751537 127.553693 
M 123.177369 123.130569 
L 116.906822 124.272278 
M 123.177369 123.130569 
L 127.800182 123.769287 
M 195.247475 96.767476 
L 192.006929 90.145565 
M 130.830184 45.955049 
L 124.349092 44.00137 
M 130.830184 45.955049 
L 134.208041 53.885534 
M 153.962555 148.455745 
L 151.079018 153.828962 
M 153.962555 148.455745 
L 150.218534 141.66138 
M 152.323974 63.461516 
L 149.083428 70.022749 
M 134.208041 53.885534 
L 137.823904 61.567717 
M 199.586511 86.462556 
L 200.318838 82.248613 
M 199.586511 86.462556 
L 192.006929 90.145565 
M 150.218534 141.66138 
L 157.56011 142.324051 
M 150.218534 141.66138 
L 144.982398 134.875 
M 125.264501 142.40389 
L 120.495223 147.984691 
M 125.264501 142.40389 
L 127.379094 148.463729 
M 125.264501 142.40389 
L 128.42266 138.044639 
M 187.915053 65.016795 
L 183.960489 72.749277 
M 137.823904 61.567717 
L 132.294837 61.013629 
M 137.823904 61.567717 
L 141.494692 69.444709 
M 78.589656 125.030756 
L 72.29073 129.13452 
M 78.589656 125.030756 
L 70.809599 124.479861 
M 78.589656 125.030756 
L 86.522585 125.493826 
M 28.474706 89.273715 
L 21.338182 88.57831 
M 28.474706 89.273715 
L 23.600705 94.580665 
M 28.474706 89.273715 
L 34.717791 84.613467 
M 152.040197 124.727365 
L 154.319564 129.669447 
M 152.040197 124.727365 
L 144.158531 121.773293 
M 149.083428 70.022749 
L 153.504851 71.55168 
M 149.083428 70.022749 
L 145.705571 75.432692 
M 192.006929 90.145565 
L 183.273933 87.988294 
M 79.518795 139.186348 
L 71.714023 141.789124 
M 79.518795 139.186348 
L 77.492081 145.517642 
M 79.518795 139.186348 
L 83.665595 132.543678 
M 144.982398 134.875 
L 150.850166 135.673397 
M 144.982398 134.875 
L 139.947652 127.785228 
M 141.494692 69.444709 
L 137.659131 68.26787 
M 141.494692 69.444709 
L 145.705571 75.432692 
M 128.42266 138.044639 
L 125.026494 131.601569 
M 83.665595 132.543678 
L 76.99776 134.21233 
M 83.665595 132.543678 
L 86.522585 125.493826 
M 183.960489 72.749277 
L 189.416323 73.625119 
M 183.960489 72.749277 
L 178.641966 79.261009 
M 144.158531 121.773293 
L 149.220739 119.825202 
M 144.158531 121.773293 
L 137.292967 121.134575 
M 145.705571 75.432692 
L 147.518079 83.043817 
M 140.679979 87.289696 
L 136.844417 84.045806 
M 140.679979 87.289696 
L 145.897807 91.264919 
M 140.679979 87.289696 
L 140.560975 89.666527 
M 139.947652 127.785228 
L 144.433153 128.743305 
M 139.947652 127.785228 
L 137.292967 121.134575 
M 183.273933 87.988294 
L 182.660609 92.449741 
M 183.273933 87.988294 
L 175.135952 84.860971 
M 178.641966 79.261009 
L 175.135952 84.860971 
M 94.194623 113.214469 
L 88.341502 116.392092 
M 94.194623 113.214469 
L 87.04986 111.713482 
M 94.194623 113.214469 
L 100.32969 114.723441 
M 175.135952 84.860971 
L 165.899481 84.903286 
M 86.522585 125.493826 
L 94.114983 120.559728 
M 30.338477 78.750034 
L 27.000532 72.652671 
M 30.338477 78.750034 
L 23.165245 77.804731 
M 30.338477 78.750034 
L 34.717791 84.613467 
M 94.114983 120.559728 
L 95.221711 125.525762 
M 94.114983 120.559728 
L 100.32969 114.723441 
M 165.899481 84.903286 
L 166.988817 89.292876 
M 165.899481 84.903286 
L 156.232768 85.173144 
M 125.026494 131.601569 
L 127.800182 123.769287 
M 54.725873 78.490555 
L 52.510585 71.17324 
M 54.725873 78.490555 
L 49.075057 74.713335 
M 54.725873 78.490555 
L 58.250196 84.982327 
M 137.292967 121.134575 
L 130.692873 116.974923 
M 64.670871 101.366247 
L 60.113052 106.819303 
M 64.670871 101.366247 
L 57.230431 102.93909 
M 64.670871 101.366247 
L 70.246623 95.834947 
M 102.795801 80.020285 
L 96.806283 76.143266 
M 102.795801 80.020285 
L 101.327486 73.021531 
M 102.795801 80.020285 
L 106.282591 86.359563 
M 109.204575 77.473396 
L 104.666896 71.498188 
M 109.204575 77.473396 
L 109.641225 70.923341 
M 109.204575 77.473396 
L 111.515066 84.570354 
M 156.232768 85.173144 
L 158.438902 83.064576 
M 156.232768 85.173144 
L 147.518079 83.043817 
M 127.800182 123.769287 
L 130.692873 116.974923 
M 147.518079 83.043817 
L 140.560975 89.666527 
M 65.696128 79.509311 
L 60.865518 75.060638 
M 65.696128 79.509311 
L 64.112471 72.326925 
M 65.696128 79.509311 
L 66.779972 85.802281 
M 130.692873 116.974923 
L 128.193808 108.288355 
M 100.32969 114.723441 
L 107.473538 109.717487 
M 140.560975 89.666527 
L 132.523689 94.329169 
M 34.717791 84.613467 
L 42.361452 86.617446 
M 87.075492 67.368875 
L 82.247628 61.328996 
M 87.075492 67.368875 
L 87.069999 60.406846 
M 87.075492 67.368875 
L 87.033383 74.752457 
M 132.523689 94.329169 
L 135.745927 95.835746 
M 132.523689 94.329169 
L 126.31722 100.40817 
M 42.361452 86.617446 
L 38.699818 92.406628 
M 42.361452 86.617446 
L 50.510418 87.178719 
M 70.246623 95.834947 
L 64.660801 95.989038 
M 70.246623 95.834947 
L 74.012614 90.08329 
M 128.193808 108.288355 
L 126.31722 100.40817 
M 81.118014 70.853881 
L 78.195115 63.875885 
M 81.118014 70.853881 
L 74.731209 67.479852 
M 81.118014 70.853881 
L 87.033383 74.752457 
M 106.282591 86.359563 
L 100.54115 86.993491 
M 106.282591 86.359563 
L 110.590504 90.189477 
M 126.31722 100.40817 
L 117.547608 99.00299 
M 50.510418 87.178719 
L 47.580195 92.616606 
M 50.510418 87.178719 
L 58.250196 84.982327 
M 58.250196 84.982327 
L 66.779972 85.802281 
M 107.473538 109.717487 
L 103.466795 108.13666 
M 107.473538 109.717487 
L 113.611351 104.46403 
M 97.915758 96.18225 
L 91.960111 96.783444 
M 97.915758 96.18225 
L 93.766212 100.607769 
M 97.915758 96.18225 
L 100.876189 92.634969 
M 111.515066 84.570354 
L 114.920385 81.086146 
M 111.515066 84.570354 
L 110.590504 90.189477 
M 66.779972 85.802281 
L 74.012614 90.08329 
M 110.590504 90.189477 
L 109.939648 95.095631 
M 113.611351 104.46403 
L 110.82851 102.452068 
M 113.611351 104.46403 
L 117.547608 99.00299 
M 74.012614 90.08329 
L 83.055018 90.634185 
M 117.547608 99.00299 
L 109.939648 95.095631 
M 83.055018 90.634185 
L 81.020065 86.946385 
M 83.055018 90.634185 
L 91.757806 88.930404 
M 109.939648 95.095631 
L 100.876189 92.634969 
M 100.876189 92.634969 
L 91.757806 88.930404 
M 87.033383 74.752457 
L 89.838194 81.98115 
M 91.757806 88.930404 
L 89.838194 81.98115 
L 89.838194 81.98115 
" style="fill:none;stroke:#000000;stroke-linecap:square;stroke-width:1.5;"/>
    <defs>
     <path d="M 0 1 
C 0.265203 1 0.51958 0.894634 0.707107 0.707107 
C 0.894634 0.51958 1 0.265203 1 0 
C 1 -0.265203 0.894634 -0.51958 0.707107 -0.707107 
C 0.51958 -0.894634 0.265203 -1 0 -1 
C -0.265203 -1 -0.51958 -0.894634 -0.707107 -0.707107 
C -0.894634 -0.51958 -1 -0.265203 -1 0 
C -1 0.265203 -0.894634 0.51958 -0.707107 0.707107 
C -0.51958 0.894634 -0.265203 1 0 1 
z
" id="m09262b2ebb" style="stroke:#000000;"/>
    </defs>
    <g clip-path="url(#p4c6b7427d3)">
     <use style="stroke:#000000;" x="123.278064" xlink:href="#m09262b2ebb" y="25.258185"/>
     <use style="stroke:#000000;" x="118.353167" xlink:href="#m09262b2ebb" y="20.708914"/>
     <use style="stroke:#000000;" x="123.278064" xlink:href="#m09262b2ebb" y="25.258185"/>
     <use style="stroke:#000000;" x="125.685588" xlink:href="#m09262b2ebb" y="18.229091"/>
     <use style="stroke:#000000;" x="123.278064" xlink:href="#m09262b2ebb" y="25.258185"/>
     <use style="stroke:#000000;" x="127.141088" xlink:href="#m09262b2ebb" y="31.48409"/>
     <use style="stroke:#000000;" x="223.9913" xlink:href="#m09262b2ebb" y="65.289847"/>
     <use style="stroke:#000000;" x="227.506468" xlink:href="#m09262b2ebb" y="59.584497"/>
     <use style="stroke:#000000;" x="223.9913" xlink:href="#m09262b2ebb" y="65.289847"/>
     <use style="stroke:#000000;" x="232.101818" xlink:href="#m09262b2ebb" y="64.786856"/>
     <use style="stroke:#000000;" x="223.9913" xlink:href="#m09262b2ebb" y="65.289847"/>
     <use style="stroke:#000000;" x="218.215072" xlink:href="#m09262b2ebb" y="70.500989"/>
     <use style="stroke:#000000;" x="210.058783" xlink:href="#m09262b2ebb" y="99.298397"/>
     <use style="stroke:#000000;" x="215.935705" xlink:href="#m09262b2ebb" y="104.783389"/>
     <use style="stroke:#000000;" x="210.058783" xlink:href="#m09262b2ebb" y="99.298397"/>
     <use style="stroke:#000000;" x="217.638365" xlink:href="#m09262b2ebb" y="99.945099"/>
     <use style="stroke:#000000;" x="210.058783" xlink:href="#m09262b2ebb" y="99.298397"/>
     <use style="stroke:#000000;" x="201.902494" xlink:href="#m09262b2ebb" y="96.935139"/>
     <use style="stroke:#000000;" x="108.73314" xlink:href="#m09262b2ebb" y="148.918816"/>
     <use style="stroke:#000000;" x="108.56562" xlink:href="#m09262b2ebb" y="156.176251"/>
     <use style="stroke:#000000;" x="108.73314" xlink:href="#m09262b2ebb" y="148.918816"/>
     <use style="stroke:#000000;" x="102.78207" xlink:href="#m09262b2ebb" y="153.294035"/>
     <use style="stroke:#000000;" x="108.73314" xlink:href="#m09262b2ebb" y="148.918816"/>
     <use style="stroke:#000000;" x="114.297908" xlink:href="#m09262b2ebb" y="142.132435"/>
     <use style="stroke:#000000;" x="205.54582" xlink:href="#m09262b2ebb" y="107.290358"/>
     <use style="stroke:#000000;" x="210.598874" xlink:href="#m09262b2ebb" y="113.222453"/>
     <use style="stroke:#000000;" x="205.54582" xlink:href="#m09262b2ebb" y="107.290358"/>
     <use style="stroke:#000000;" x="213.537335" xlink:href="#m09262b2ebb" y="109.462"/>
     <use style="stroke:#000000;" x="205.54582" xlink:href="#m09262b2ebb" y="107.290358"/>
     <use style="stroke:#000000;" x="197.966238" xlink:href="#m09262b2ebb" y="103.80136"/>
     <use style="stroke:#000000;" x="126.903082" xlink:href="#m09262b2ebb" y="153.166292"/>
     <use style="stroke:#000000;" x="127.708641" xlink:href="#m09262b2ebb" y="160.16824"/>
     <use style="stroke:#000000;" x="126.903082" xlink:href="#m09262b2ebb" y="153.166292"/>
     <use style="stroke:#000000;" x="121.92326" xlink:href="#m09262b2ebb" y="159.122339"/>
     <use style="stroke:#000000;" x="126.903082" xlink:href="#m09262b2ebb" y="153.166292"/>
     <use style="stroke:#000000;" x="131.168885" xlink:href="#m09262b2ebb" y="145.661353"/>
     <use style="stroke:#000000;" x="144.240917" xlink:href="#m09262b2ebb" y="109.42208"/>
     <use style="stroke:#000000;" x="151.225484" xlink:href="#m09262b2ebb" y="112.216472"/>
     <use style="stroke:#000000;" x="144.240917" xlink:href="#m09262b2ebb" y="109.42208"/>
     <use style="stroke:#000000;" x="148.744727" xlink:href="#m09262b2ebb" y="106.172601"/>
     <use style="stroke:#000000;" x="144.240917" xlink:href="#m09262b2ebb" y="109.42208"/>
     <use style="stroke:#000000;" x="137.210581" xlink:href="#m09262b2ebb" y="108.567794"/>
     <use style="stroke:#000000;" x="135.681849" xlink:href="#m09262b2ebb" y="151.377881"/>
     <use style="stroke:#000000;" x="140.277199" xlink:href="#m09262b2ebb" y="156.61537"/>
     <use style="stroke:#000000;" x="135.681849" xlink:href="#m09262b2ebb" y="151.377881"/>
     <use style="stroke:#000000;" x="134.986138" xlink:href="#m09262b2ebb" y="158.739108"/>
     <use style="stroke:#000000;" x="135.681849" xlink:href="#m09262b2ebb" y="151.377881"/>
     <use style="stroke:#000000;" x="131.168885" xlink:href="#m09262b2ebb" y="145.661353"/>
     <use style="stroke:#000000;" x="110.791893" xlink:href="#m09262b2ebb" y="136.735266"/>
     <use style="stroke:#000000;" x="106.23499" xlink:href="#m09262b2ebb" y="142.539618"/>
     <use style="stroke:#000000;" x="110.791893" xlink:href="#m09262b2ebb" y="136.735266"/>
     <use style="stroke:#000000;" x="103.67917" xlink:href="#m09262b2ebb" y="138.906908"/>
     <use style="stroke:#000000;" x="110.791893" xlink:href="#m09262b2ebb" y="136.735266"/>
     <use style="stroke:#000000;" x="117.831384" xlink:href="#m09262b2ebb" y="135.41791"/>
     <use style="stroke:#000000;" x="223.039275" xlink:href="#m09262b2ebb" y="83.696907"/>
     <use style="stroke:#000000;" x="229.68514" xlink:href="#m09262b2ebb" y="80.168787"/>
     <use style="stroke:#000000;" x="223.039275" xlink:href="#m09262b2ebb" y="83.696907"/>
     <use style="stroke:#000000;" x="230.8294" xlink:href="#m09262b2ebb" y="85.419849"/>
     <use style="stroke:#000000;" x="223.039275" xlink:href="#m09262b2ebb" y="83.696907"/>
     <use style="stroke:#000000;" x="215.798394" xlink:href="#m09262b2ebb" y="86.0921"/>
     <use style="stroke:#000000;" x="222.078096" xlink:href="#m09262b2ebb" y="90.787477"/>
     <use style="stroke:#000000;" x="227.826861" xlink:href="#m09262b2ebb" y="95.757503"/>
     <use style="stroke:#000000;" x="222.078096" xlink:href="#m09262b2ebb" y="90.787477"/>
     <use style="stroke:#000000;" x="230.115382" xlink:href="#m09262b2ebb" y="91.339968"/>
     <use style="stroke:#000000;" x="222.078096" xlink:href="#m09262b2ebb" y="90.787477"/>
     <use style="stroke:#000000;" x="215.798394" xlink:href="#m09262b2ebb" y="86.0921"/>
     <use style="stroke:#000000;" x="127.141088" xlink:href="#m09262b2ebb" y="31.48409"/>
     <use style="stroke:#000000;" x="129.905621" xlink:href="#m09262b2ebb" y="25.708481"/>
     <use style="stroke:#000000;" x="127.141088" xlink:href="#m09262b2ebb" y="31.48409"/>
     <use style="stroke:#000000;" x="132.12091" xlink:href="#m09262b2ebb" y="37.156706"/>
     <use style="stroke:#000000;" x="137.210581" xlink:href="#m09262b2ebb" y="108.567794"/>
     <use style="stroke:#000000;" x="139.819495" xlink:href="#m09262b2ebb" y="112.911078"/>
     <use style="stroke:#000000;" x="137.210581" xlink:href="#m09262b2ebb" y="108.567794"/>
     <use style="stroke:#000000;" x="131.827979" xlink:href="#m09262b2ebb" y="107.929076"/>
     <use style="stroke:#000000;" x="137.906291" xlink:href="#m09262b2ebb" y="31.409839"/>
     <use style="stroke:#000000;" x="143.655056" xlink:href="#m09262b2ebb" y="26.17235"/>
     <use style="stroke:#000000;" x="137.906291" xlink:href="#m09262b2ebb" y="31.409839"/>
     <use style="stroke:#000000;" x="138.492152" xlink:href="#m09262b2ebb" y="24.618828"/>
     <use style="stroke:#000000;" x="137.906291" xlink:href="#m09262b2ebb" y="31.409839"/>
     <use style="stroke:#000000;" x="132.12091" xlink:href="#m09262b2ebb" y="37.156706"/>
     <use style="stroke:#000000;" x="199.568203" xlink:href="#m09262b2ebb" y="110.396125"/>
     <use style="stroke:#000000;" x="201.536331" xlink:href="#m09262b2ebb" y="116.751371"/>
     <use style="stroke:#000000;" x="199.568203" xlink:href="#m09262b2ebb" y="110.396125"/>
     <use style="stroke:#000000;" x="206.19576" xlink:href="#m09262b2ebb" y="115.266351"/>
     <use style="stroke:#000000;" x="199.568203" xlink:href="#m09262b2ebb" y="110.396125"/>
     <use style="stroke:#000000;" x="197.966238" xlink:href="#m09262b2ebb" y="103.80136"/>
     <use style="stroke:#000000;" x="163.913044" xlink:href="#m09262b2ebb" y="159.721137"/>
     <use style="stroke:#000000;" x="170.137822" xlink:href="#m09262b2ebb" y="162.906744"/>
     <use style="stroke:#000000;" x="163.913044" xlink:href="#m09262b2ebb" y="159.721137"/>
     <use style="stroke:#000000;" x="163.171564" xlink:href="#m09262b2ebb" y="166.810909"/>
     <use style="stroke:#000000;" x="163.913044" xlink:href="#m09262b2ebb" y="159.721137"/>
     <use style="stroke:#000000;" x="158.90576" xlink:href="#m09262b2ebb" y="154.459696"/>
     <use style="stroke:#000000;" x="165.505855" xlink:href="#m09262b2ebb" y="57.703472"/>
     <use style="stroke:#000000;" x="169.670963" xlink:href="#m09262b2ebb" y="50.889945"/>
     <use style="stroke:#000000;" x="165.505855" xlink:href="#m09262b2ebb" y="57.703472"/>
     <use style="stroke:#000000;" x="172.133412" xlink:href="#m09262b2ebb" y="54.971355"/>
     <use style="stroke:#000000;" x="165.505855" xlink:href="#m09262b2ebb" y="57.703472"/>
     <use style="stroke:#000000;" x="158.759295" xlink:href="#m09262b2ebb" y="59.962937"/>
     <use style="stroke:#000000;" x="136.194477" xlink:href="#m09262b2ebb" y="49.320295"/>
     <use style="stroke:#000000;" x="131.855441" xlink:href="#m09262b2ebb" y="43.983007"/>
     <use style="stroke:#000000;" x="136.194477" xlink:href="#m09262b2ebb" y="49.320295"/>
     <use style="stroke:#000000;" x="139.938498" xlink:href="#m09262b2ebb" y="43.497581"/>
     <use style="stroke:#000000;" x="136.194477" xlink:href="#m09262b2ebb" y="49.320295"/>
     <use style="stroke:#000000;" x="134.208041" xlink:href="#m09262b2ebb" y="53.885534"/>
     <use style="stroke:#000000;" x="215.798394" xlink:href="#m09262b2ebb" y="86.0921"/>
     <use style="stroke:#000000;" x="208.218812" xlink:href="#m09262b2ebb" y="83.148407"/>
     <use style="stroke:#000000;" x="154.044942" xlink:href="#m09262b2ebb" y="50.267195"/>
     <use style="stroke:#000000;" x="154.099866" xlink:href="#m09262b2ebb" y="42.541899"/>
     <use style="stroke:#000000;" x="154.044942" xlink:href="#m09262b2ebb" y="50.267195"/>
     <use style="stroke:#000000;" x="158.823374" xlink:href="#m09262b2ebb" y="43.900772"/>
     <use style="stroke:#000000;" x="154.044942" xlink:href="#m09262b2ebb" y="50.267195"/>
     <use style="stroke:#000000;" x="150.310075" xlink:href="#m09262b2ebb" y="56.887509"/>
     <use style="stroke:#000000;" x="131.168885" xlink:href="#m09262b2ebb" y="145.661353"/>
     <use style="stroke:#000000;" x="128.42266" xlink:href="#m09262b2ebb" y="138.044639"/>
     <use style="stroke:#000000;" x="218.215072" xlink:href="#m09262b2ebb" y="70.500989"/>
     <use style="stroke:#000000;" x="225.565802" xlink:href="#m09262b2ebb" y="71.286612"/>
     <use style="stroke:#000000;" x="218.215072" xlink:href="#m09262b2ebb" y="70.500989"/>
     <use style="stroke:#000000;" x="211.953679" xlink:href="#m09262b2ebb" y="76.438673"/>
     <use style="stroke:#000000;" x="114.297908" xlink:href="#m09262b2ebb" y="142.132435"/>
     <use style="stroke:#000000;" x="114.599992" xlink:href="#m09262b2ebb" y="147.944771"/>
     <use style="stroke:#000000;" x="114.297908" xlink:href="#m09262b2ebb" y="142.132435"/>
     <use style="stroke:#000000;" x="117.831384" xlink:href="#m09262b2ebb" y="135.41791"/>
     <use style="stroke:#000000;" x="194.89962" xlink:href="#m09262b2ebb" y="62.136974"/>
     <use style="stroke:#000000;" x="198.84503" xlink:href="#m09262b2ebb" y="55.686719"/>
     <use style="stroke:#000000;" x="194.89962" xlink:href="#m09262b2ebb" y="62.136974"/>
     <use style="stroke:#000000;" x="201.966573" xlink:href="#m09262b2ebb" y="60.000462"/>
     <use style="stroke:#000000;" x="194.89962" xlink:href="#m09262b2ebb" y="62.136974"/>
     <use style="stroke:#000000;" x="187.915053" xlink:href="#m09262b2ebb" y="65.016795"/>
     <use style="stroke:#000000;" x="211.953679" xlink:href="#m09262b2ebb" y="76.438673"/>
     <use style="stroke:#000000;" x="217.162353" xlink:href="#m09262b2ebb" y="75.677001"/>
     <use style="stroke:#000000;" x="211.953679" xlink:href="#m09262b2ebb" y="76.438673"/>
     <use style="stroke:#000000;" x="208.218812" xlink:href="#m09262b2ebb" y="83.148407"/>
     <use style="stroke:#000000;" x="161.102741" xlink:href="#m09262b2ebb" y="52.882746"/>
     <use style="stroke:#000000;" x="166.933892" xlink:href="#m09262b2ebb" y="47.099951"/>
     <use style="stroke:#000000;" x="161.102741" xlink:href="#m09262b2ebb" y="52.882746"/>
     <use style="stroke:#000000;" x="162.457545" xlink:href="#m09262b2ebb" y="45.362638"/>
     <use style="stroke:#000000;" x="161.102741" xlink:href="#m09262b2ebb" y="52.882746"/>
     <use style="stroke:#000000;" x="158.759295" xlink:href="#m09262b2ebb" y="59.962937"/>
     <use style="stroke:#000000;" x="177.543476" xlink:href="#m09262b2ebb" y="75.154849"/>
     <use style="stroke:#000000;" x="177.406165" xlink:href="#m09262b2ebb" y="69.167665"/>
     <use style="stroke:#000000;" x="177.543476" xlink:href="#m09262b2ebb" y="75.154849"/>
     <use style="stroke:#000000;" x="182.248675" xlink:href="#m09262b2ebb" y="70.949688"/>
     <use style="stroke:#000000;" x="177.543476" xlink:href="#m09262b2ebb" y="75.154849"/>
     <use style="stroke:#000000;" x="178.641966" xlink:href="#m09262b2ebb" y="79.261009"/>
     <use style="stroke:#000000;" x="146.75829" xlink:href="#m09262b2ebb" y="51.056012"/>
     <use style="stroke:#000000;" x="148.717265" xlink:href="#m09262b2ebb" y="43.469637"/>
     <use style="stroke:#000000;" x="146.75829" xlink:href="#m09262b2ebb" y="51.056012"/>
     <use style="stroke:#000000;" x="143.453666" xlink:href="#m09262b2ebb" y="45.090384"/>
     <use style="stroke:#000000;" x="146.75829" xlink:href="#m09262b2ebb" y="51.056012"/>
     <use style="stroke:#000000;" x="150.310075" xlink:href="#m09262b2ebb" y="56.887509"/>
     <use style="stroke:#000000;" x="197.966238" xlink:href="#m09262b2ebb" y="103.80136"/>
     <use style="stroke:#000000;" x="195.247475" xlink:href="#m09262b2ebb" y="96.767476"/>
     <use style="stroke:#000000;" x="132.12091" xlink:href="#m09262b2ebb" y="37.156706"/>
     <use style="stroke:#000000;" x="130.830184" xlink:href="#m09262b2ebb" y="45.955049"/>
     <use style="stroke:#000000;" x="158.90576" xlink:href="#m09262b2ebb" y="154.459696"/>
     <use style="stroke:#000000;" x="155.948991" xlink:href="#m09262b2ebb" y="160.934702"/>
     <use style="stroke:#000000;" x="158.90576" xlink:href="#m09262b2ebb" y="154.459696"/>
     <use style="stroke:#000000;" x="153.962555" xlink:href="#m09262b2ebb" y="148.455745"/>
     <use style="stroke:#000000;" x="150.310075" xlink:href="#m09262b2ebb" y="56.887509"/>
     <use style="stroke:#000000;" x="152.323974" xlink:href="#m09262b2ebb" y="63.461516"/>
     <use style="stroke:#000000;" x="131.827979" xlink:href="#m09262b2ebb" y="107.929076"/>
     <use style="stroke:#000000;" x="126.555226" xlink:href="#m09262b2ebb" y="110.691532"/>
     <use style="stroke:#000000;" x="131.827979" xlink:href="#m09262b2ebb" y="107.929076"/>
     <use style="stroke:#000000;" x="128.193808" xlink:href="#m09262b2ebb" y="108.288355"/>
     <use style="stroke:#000000;" x="117.831384" xlink:href="#m09262b2ebb" y="135.41791"/>
     <use style="stroke:#000000;" x="125.026494" xlink:href="#m09262b2ebb" y="131.601569"/>
     <use style="stroke:#000000;" x="201.902494" xlink:href="#m09262b2ebb" y="96.935139"/>
     <use style="stroke:#000000;" x="203.815698" xlink:href="#m09262b2ebb" y="101.549878"/>
     <use style="stroke:#000000;" x="201.902494" xlink:href="#m09262b2ebb" y="96.935139"/>
     <use style="stroke:#000000;" x="195.247475" xlink:href="#m09262b2ebb" y="96.767476"/>
     <use style="stroke:#000000;" x="159.729628" xlink:href="#m09262b2ebb" y="128.016763"/>
     <use style="stroke:#000000;" x="166.686732" xlink:href="#m09262b2ebb" y="130.164453"/>
     <use style="stroke:#000000;" x="159.729628" xlink:href="#m09262b2ebb" y="128.016763"/>
     <use style="stroke:#000000;" x="163.546881" xlink:href="#m09262b2ebb" y="134.523705"/>
     <use style="stroke:#000000;" x="159.729628" xlink:href="#m09262b2ebb" y="128.016763"/>
     <use style="stroke:#000000;" x="152.040197" xlink:href="#m09262b2ebb" y="124.727365"/>
     <use style="stroke:#000000;" x="188.867078" xlink:href="#m09262b2ebb" y="57.658761"/>
     <use style="stroke:#000000;" x="189.672638" xlink:href="#m09262b2ebb" y="50.608111"/>
     <use style="stroke:#000000;" x="188.867078" xlink:href="#m09262b2ebb" y="57.658761"/>
     <use style="stroke:#000000;" x="194.460224" xlink:href="#m09262b2ebb" y="52.217681"/>
     <use style="stroke:#000000;" x="188.867078" xlink:href="#m09262b2ebb" y="57.658761"/>
     <use style="stroke:#000000;" x="187.915053" xlink:href="#m09262b2ebb" y="65.016795"/>
     <use style="stroke:#000000;" x="208.218812" xlink:href="#m09262b2ebb" y="83.148407"/>
     <use style="stroke:#000000;" x="199.586511" xlink:href="#m09262b2ebb" y="86.462556"/>
     <use style="stroke:#000000;" x="158.759295" xlink:href="#m09262b2ebb" y="59.962937"/>
     <use style="stroke:#000000;" x="152.323974" xlink:href="#m09262b2ebb" y="63.461516"/>
     <use style="stroke:#000000;" x="123.177369" xlink:href="#m09262b2ebb" y="123.130569"/>
     <use style="stroke:#000000;" x="120.751537" xlink:href="#m09262b2ebb" y="127.553693"/>
     <use style="stroke:#000000;" x="123.177369" xlink:href="#m09262b2ebb" y="123.130569"/>
     <use style="stroke:#000000;" x="116.906822" xlink:href="#m09262b2ebb" y="124.272278"/>
     <use style="stroke:#000000;" x="123.177369" xlink:href="#m09262b2ebb" y="123.130569"/>
     <use style="stroke:#000000;" x="127.800182" xlink:href="#m09262b2ebb" y="123.769287"/>
     <use style="stroke:#000000;" x="195.247475" xlink:href="#m09262b2ebb" y="96.767476"/>
     <use style="stroke:#000000;" x="192.006929" xlink:href="#m09262b2ebb" y="90.145565"/>
     <use style="stroke:#000000;" x="130.830184" xlink:href="#m09262b2ebb" y="45.955049"/>
     <use style="stroke:#000000;" x="124.349092" xlink:href="#m09262b2ebb" y="44.00137"/>
     <use style="stroke:#000000;" x="130.830184" xlink:href="#m09262b2ebb" y="45.955049"/>
     <use style="stroke:#000000;" x="134.208041" xlink:href="#m09262b2ebb" y="53.885534"/>
     <use style="stroke:#000000;" x="153.962555" xlink:href="#m09262b2ebb" y="148.455745"/>
     <use style="stroke:#000000;" x="151.079018" xlink:href="#m09262b2ebb" y="153.828962"/>
     <use style="stroke:#000000;" x="153.962555" xlink:href="#m09262b2ebb" y="148.455745"/>
     <use style="stroke:#000000;" x="150.218534" xlink:href="#m09262b2ebb" y="141.66138"/>
     <use style="stroke:#000000;" x="152.323974" xlink:href="#m09262b2ebb" y="63.461516"/>
     <use style="stroke:#000000;" x="149.083428" xlink:href="#m09262b2ebb" y="70.022749"/>
     <use style="stroke:#000000;" x="134.208041" xlink:href="#m09262b2ebb" y="53.885534"/>
     <use style="stroke:#000000;" x="137.823904" xlink:href="#m09262b2ebb" y="61.567717"/>
     <use style="stroke:#000000;" x="199.586511" xlink:href="#m09262b2ebb" y="86.462556"/>
     <use style="stroke:#000000;" x="200.318838" xlink:href="#m09262b2ebb" y="82.248613"/>
     <use style="stroke:#000000;" x="199.586511" xlink:href="#m09262b2ebb" y="86.462556"/>
     <use style="stroke:#000000;" x="192.006929" xlink:href="#m09262b2ebb" y="90.145565"/>
     <use style="stroke:#000000;" x="150.218534" xlink:href="#m09262b2ebb" y="141.66138"/>
     <use style="stroke:#000000;" x="157.56011" xlink:href="#m09262b2ebb" y="142.324051"/>
     <use style="stroke:#000000;" x="150.218534" xlink:href="#m09262b2ebb" y="141.66138"/>
     <use style="stroke:#000000;" x="144.982398" xlink:href="#m09262b2ebb" y="134.875"/>
     <use style="stroke:#000000;" x="125.264501" xlink:href="#m09262b2ebb" y="142.40389"/>
     <use style="stroke:#000000;" x="120.495223" xlink:href="#m09262b2ebb" y="147.984691"/>
     <use style="stroke:#000000;" x="125.264501" xlink:href="#m09262b2ebb" y="142.40389"/>
     <use style="stroke:#000000;" x="127.379094" xlink:href="#m09262b2ebb" y="148.463729"/>
     <use style="stroke:#000000;" x="125.264501" xlink:href="#m09262b2ebb" y="142.40389"/>
     <use style="stroke:#000000;" x="128.42266" xlink:href="#m09262b2ebb" y="138.044639"/>
     <use style="stroke:#000000;" x="187.915053" xlink:href="#m09262b2ebb" y="65.016795"/>
     <use style="stroke:#000000;" x="183.960489" xlink:href="#m09262b2ebb" y="72.749277"/>
     <use style="stroke:#000000;" x="137.823904" xlink:href="#m09262b2ebb" y="61.567717"/>
     <use style="stroke:#000000;" x="132.294837" xlink:href="#m09262b2ebb" y="61.013629"/>
     <use style="stroke:#000000;" x="137.823904" xlink:href="#m09262b2ebb" y="61.567717"/>
     <use style="stroke:#000000;" x="141.494692" xlink:href="#m09262b2ebb" y="69.444709"/>
     <use style="stroke:#000000;" x="78.589656" xlink:href="#m09262b2ebb" y="125.030756"/>
     <use style="stroke:#000000;" x="72.29073" xlink:href="#m09262b2ebb" y="129.13452"/>
     <use style="stroke:#000000;" x="78.589656" xlink:href="#m09262b2ebb" y="125.030756"/>
     <use style="stroke:#000000;" x="70.809599" xlink:href="#m09262b2ebb" y="124.479861"/>
     <use style="stroke:#000000;" x="78.589656" xlink:href="#m09262b2ebb" y="125.030756"/>
     <use style="stroke:#000000;" x="86.522585" xlink:href="#m09262b2ebb" y="125.493826"/>
     <use style="stroke:#000000;" x="28.474706" xlink:href="#m09262b2ebb" y="89.273715"/>
     <use style="stroke:#000000;" x="21.338182" xlink:href="#m09262b2ebb" y="88.57831"/>
     <use style="stroke:#000000;" x="28.474706" xlink:href="#m09262b2ebb" y="89.273715"/>
     <use style="stroke:#000000;" x="23.600705" xlink:href="#m09262b2ebb" y="94.580665"/>
     <use style="stroke:#000000;" x="28.474706" xlink:href="#m09262b2ebb" y="89.273715"/>
     <use style="stroke:#000000;" x="34.717791" xlink:href="#m09262b2ebb" y="84.613467"/>
     <use style="stroke:#000000;" x="152.040197" xlink:href="#m09262b2ebb" y="124.727365"/>
     <use style="stroke:#000000;" x="154.319564" xlink:href="#m09262b2ebb" y="129.669447"/>
     <use style="stroke:#000000;" x="152.040197" xlink:href="#m09262b2ebb" y="124.727365"/>
     <use style="stroke:#000000;" x="144.158531" xlink:href="#m09262b2ebb" y="121.773293"/>
     <use style="stroke:#000000;" x="149.083428" xlink:href="#m09262b2ebb" y="70.022749"/>
     <use style="stroke:#000000;" x="153.504851" xlink:href="#m09262b2ebb" y="71.55168"/>
     <use style="stroke:#000000;" x="149.083428" xlink:href="#m09262b2ebb" y="70.022749"/>
     <use style="stroke:#000000;" x="145.705571" xlink:href="#m09262b2ebb" y="75.432692"/>
     <use style="stroke:#000000;" x="192.006929" xlink:href="#m09262b2ebb" y="90.145565"/>
     <use style="stroke:#000000;" x="183.273933" xlink:href="#m09262b2ebb" y="87.988294"/>
     <use style="stroke:#000000;" x="79.518795" xlink:href="#m09262b2ebb" y="139.186348"/>
     <use style="stroke:#000000;" x="71.714023" xlink:href="#m09262b2ebb" y="141.789124"/>
     <use style="stroke:#000000;" x="79.518795" xlink:href="#m09262b2ebb" y="139.186348"/>
     <use style="stroke:#000000;" x="77.492081" xlink:href="#m09262b2ebb" y="145.517642"/>
     <use style="stroke:#000000;" x="79.518795" xlink:href="#m09262b2ebb" y="139.186348"/>
     <use style="stroke:#000000;" x="83.665595" xlink:href="#m09262b2ebb" y="132.543678"/>
     <use style="stroke:#000000;" x="144.982398" xlink:href="#m09262b2ebb" y="134.875"/>
     <use style="stroke:#000000;" x="150.850166" xlink:href="#m09262b2ebb" y="135.673397"/>
     <use style="stroke:#000000;" x="144.982398" xlink:href="#m09262b2ebb" y="134.875"/>
     <use style="stroke:#000000;" x="139.947652" xlink:href="#m09262b2ebb" y="127.785228"/>
     <use style="stroke:#000000;" x="141.494692" xlink:href="#m09262b2ebb" y="69.444709"/>
     <use style="stroke:#000000;" x="137.659131" xlink:href="#m09262b2ebb" y="68.26787"/>
     <use style="stroke:#000000;" x="141.494692" xlink:href="#m09262b2ebb" y="69.444709"/>
     <use style="stroke:#000000;" x="145.705571" xlink:href="#m09262b2ebb" y="75.432692"/>
     <use style="stroke:#000000;" x="128.42266" xlink:href="#m09262b2ebb" y="138.044639"/>
     <use style="stroke:#000000;" x="125.026494" xlink:href="#m09262b2ebb" y="131.601569"/>
     <use style="stroke:#000000;" x="83.665595" xlink:href="#m09262b2ebb" y="132.543678"/>
     <use style="stroke:#000000;" x="76.99776" xlink:href="#m09262b2ebb" y="134.21233"/>
     <use style="stroke:#000000;" x="83.665595" xlink:href="#m09262b2ebb" y="132.543678"/>
     <use style="stroke:#000000;" x="86.522585" xlink:href="#m09262b2ebb" y="125.493826"/>
     <use style="stroke:#000000;" x="183.960489" xlink:href="#m09262b2ebb" y="72.749277"/>
     <use style="stroke:#000000;" x="189.416323" xlink:href="#m09262b2ebb" y="73.625119"/>
     <use style="stroke:#000000;" x="183.960489" xlink:href="#m09262b2ebb" y="72.749277"/>
     <use style="stroke:#000000;" x="178.641966" xlink:href="#m09262b2ebb" y="79.261009"/>
     <use style="stroke:#000000;" x="144.158531" xlink:href="#m09262b2ebb" y="121.773293"/>
     <use style="stroke:#000000;" x="149.220739" xlink:href="#m09262b2ebb" y="119.825202"/>
     <use style="stroke:#000000;" x="144.158531" xlink:href="#m09262b2ebb" y="121.773293"/>
     <use style="stroke:#000000;" x="137.292967" xlink:href="#m09262b2ebb" y="121.134575"/>
     <use style="stroke:#000000;" x="145.705571" xlink:href="#m09262b2ebb" y="75.432692"/>
     <use style="stroke:#000000;" x="147.518079" xlink:href="#m09262b2ebb" y="83.043817"/>
     <use style="stroke:#000000;" x="140.679979" xlink:href="#m09262b2ebb" y="87.289696"/>
     <use style="stroke:#000000;" x="136.844417" xlink:href="#m09262b2ebb" y="84.045806"/>
     <use style="stroke:#000000;" x="140.679979" xlink:href="#m09262b2ebb" y="87.289696"/>
     <use style="stroke:#000000;" x="145.897807" xlink:href="#m09262b2ebb" y="91.264919"/>
     <use style="stroke:#000000;" x="140.679979" xlink:href="#m09262b2ebb" y="87.289696"/>
     <use style="stroke:#000000;" x="140.560975" xlink:href="#m09262b2ebb" y="89.666527"/>
     <use style="stroke:#000000;" x="139.947652" xlink:href="#m09262b2ebb" y="127.785228"/>
     <use style="stroke:#000000;" x="144.433153" xlink:href="#m09262b2ebb" y="128.743305"/>
     <use style="stroke:#000000;" x="139.947652" xlink:href="#m09262b2ebb" y="127.785228"/>
     <use style="stroke:#000000;" x="137.292967" xlink:href="#m09262b2ebb" y="121.134575"/>
     <use style="stroke:#000000;" x="183.273933" xlink:href="#m09262b2ebb" y="87.988294"/>
     <use style="stroke:#000000;" x="182.660609" xlink:href="#m09262b2ebb" y="92.449741"/>
     <use style="stroke:#000000;" x="183.273933" xlink:href="#m09262b2ebb" y="87.988294"/>
     <use style="stroke:#000000;" x="175.135952" xlink:href="#m09262b2ebb" y="84.860971"/>
     <use style="stroke:#000000;" x="178.641966" xlink:href="#m09262b2ebb" y="79.261009"/>
     <use style="stroke:#000000;" x="175.135952" xlink:href="#m09262b2ebb" y="84.860971"/>
     <use style="stroke:#000000;" x="94.194623" xlink:href="#m09262b2ebb" y="113.214469"/>
     <use style="stroke:#000000;" x="88.341502" xlink:href="#m09262b2ebb" y="116.392092"/>
     <use style="stroke:#000000;" x="94.194623" xlink:href="#m09262b2ebb" y="113.214469"/>
     <use style="stroke:#000000;" x="87.04986" xlink:href="#m09262b2ebb" y="111.713482"/>
     <use style="stroke:#000000;" x="94.194623" xlink:href="#m09262b2ebb" y="113.214469"/>
     <use style="stroke:#000000;" x="100.32969" xlink:href="#m09262b2ebb" y="114.723441"/>
     <use style="stroke:#000000;" x="175.135952" xlink:href="#m09262b2ebb" y="84.860971"/>
     <use style="stroke:#000000;" x="165.899481" xlink:href="#m09262b2ebb" y="84.903286"/>
     <use style="stroke:#000000;" x="86.522585" xlink:href="#m09262b2ebb" y="125.493826"/>
     <use style="stroke:#000000;" x="94.114983" xlink:href="#m09262b2ebb" y="120.559728"/>
     <use style="stroke:#000000;" x="30.338477" xlink:href="#m09262b2ebb" y="78.750034"/>
     <use style="stroke:#000000;" x="27.000532" xlink:href="#m09262b2ebb" y="72.652671"/>
     <use style="stroke:#000000;" x="30.338477" xlink:href="#m09262b2ebb" y="78.750034"/>
     <use style="stroke:#000000;" x="23.165245" xlink:href="#m09262b2ebb" y="77.804731"/>
     <use style="stroke:#000000;" x="30.338477" xlink:href="#m09262b2ebb" y="78.750034"/>
     <use style="stroke:#000000;" x="34.717791" xlink:href="#m09262b2ebb" y="84.613467"/>
     <use style="stroke:#000000;" x="94.114983" xlink:href="#m09262b2ebb" y="120.559728"/>
     <use style="stroke:#000000;" x="95.221711" xlink:href="#m09262b2ebb" y="125.525762"/>
     <use style="stroke:#000000;" x="94.114983" xlink:href="#m09262b2ebb" y="120.559728"/>
     <use style="stroke:#000000;" x="100.32969" xlink:href="#m09262b2ebb" y="114.723441"/>
     <use style="stroke:#000000;" x="165.899481" xlink:href="#m09262b2ebb" y="84.903286"/>
     <use style="stroke:#000000;" x="166.988817" xlink:href="#m09262b2ebb" y="89.292876"/>
     <use style="stroke:#000000;" x="165.899481" xlink:href="#m09262b2ebb" y="84.903286"/>
     <use style="stroke:#000000;" x="156.232768" xlink:href="#m09262b2ebb" y="85.173144"/>
     <use style="stroke:#000000;" x="125.026494" xlink:href="#m09262b2ebb" y="131.601569"/>
     <use style="stroke:#000000;" x="127.800182" xlink:href="#m09262b2ebb" y="123.769287"/>
     <use style="stroke:#000000;" x="54.725873" xlink:href="#m09262b2ebb" y="78.490555"/>
     <use style="stroke:#000000;" x="52.510585" xlink:href="#m09262b2ebb" y="71.17324"/>
     <use style="stroke:#000000;" x="54.725873" xlink:href="#m09262b2ebb" y="78.490555"/>
     <use style="stroke:#000000;" x="49.075057" xlink:href="#m09262b2ebb" y="74.713335"/>
     <use style="stroke:#000000;" x="54.725873" xlink:href="#m09262b2ebb" y="78.490555"/>
     <use style="stroke:#000000;" x="58.250196" xlink:href="#m09262b2ebb" y="84.982327"/>
     <use style="stroke:#000000;" x="137.292967" xlink:href="#m09262b2ebb" y="121.134575"/>
     <use style="stroke:#000000;" x="130.692873" xlink:href="#m09262b2ebb" y="116.974923"/>
     <use style="stroke:#000000;" x="64.670871" xlink:href="#m09262b2ebb" y="101.366247"/>
     <use style="stroke:#000000;" x="60.113052" xlink:href="#m09262b2ebb" y="106.819303"/>
     <use style="stroke:#000000;" x="64.670871" xlink:href="#m09262b2ebb" y="101.366247"/>
     <use style="stroke:#000000;" x="57.230431" xlink:href="#m09262b2ebb" y="102.93909"/>
     <use style="stroke:#000000;" x="64.670871" xlink:href="#m09262b2ebb" y="101.366247"/>
     <use style="stroke:#000000;" x="70.246623" xlink:href="#m09262b2ebb" y="95.834947"/>
     <use style="stroke:#000000;" x="102.795801" xlink:href="#m09262b2ebb" y="80.020285"/>
     <use style="stroke:#000000;" x="96.806283" xlink:href="#m09262b2ebb" y="76.143266"/>
     <use style="stroke:#000000;" x="102.795801" xlink:href="#m09262b2ebb" y="80.020285"/>
     <use style="stroke:#000000;" x="101.327486" xlink:href="#m09262b2ebb" y="73.021531"/>
     <use style="stroke:#000000;" x="102.795801" xlink:href="#m09262b2ebb" y="80.020285"/>
     <use style="stroke:#000000;" x="106.282591" xlink:href="#m09262b2ebb" y="86.359563"/>
     <use style="stroke:#000000;" x="109.204575" xlink:href="#m09262b2ebb" y="77.473396"/>
     <use style="stroke:#000000;" x="104.666896" xlink:href="#m09262b2ebb" y="71.498188"/>
     <use style="stroke:#000000;" x="109.204575" xlink:href="#m09262b2ebb" y="77.473396"/>
     <use style="stroke:#000000;" x="109.641225" xlink:href="#m09262b2ebb" y="70.923341"/>
     <use style="stroke:#000000;" x="109.204575" xlink:href="#m09262b2ebb" y="77.473396"/>
     <use style="stroke:#000000;" x="111.515066" xlink:href="#m09262b2ebb" y="84.570354"/>
     <use style="stroke:#000000;" x="156.232768" xlink:href="#m09262b2ebb" y="85.173144"/>
     <use style="stroke:#000000;" x="158.438902" xlink:href="#m09262b2ebb" y="83.064576"/>
     <use style="stroke:#000000;" x="156.232768" xlink:href="#m09262b2ebb" y="85.173144"/>
     <use style="stroke:#000000;" x="147.518079" xlink:href="#m09262b2ebb" y="83.043817"/>
     <use style="stroke:#000000;" x="127.800182" xlink:href="#m09262b2ebb" y="123.769287"/>
     <use style="stroke:#000000;" x="130.692873" xlink:href="#m09262b2ebb" y="116.974923"/>
     <use style="stroke:#000000;" x="147.518079" xlink:href="#m09262b2ebb" y="83.043817"/>
     <use style="stroke:#000000;" x="140.560975" xlink:href="#m09262b2ebb" y="89.666527"/>
     <use style="stroke:#000000;" x="65.696128" xlink:href="#m09262b2ebb" y="79.509311"/>
     <use style="stroke:#000000;" x="60.865518" xlink:href="#m09262b2ebb" y="75.060638"/>
     <use style="stroke:#000000;" x="65.696128" xlink:href="#m09262b2ebb" y="79.509311"/>
     <use style="stroke:#000000;" x="64.112471" xlink:href="#m09262b2ebb" y="72.326925"/>
     <use style="stroke:#000000;" x="65.696128" xlink:href="#m09262b2ebb" y="79.509311"/>
     <use style="stroke:#000000;" x="66.779972" xlink:href="#m09262b2ebb" y="85.802281"/>
     <use style="stroke:#000000;" x="130.692873" xlink:href="#m09262b2ebb" y="116.974923"/>
     <use style="stroke:#000000;" x="128.193808" xlink:href="#m09262b2ebb" y="108.288355"/>
     <use style="stroke:#000000;" x="100.32969" xlink:href="#m09262b2ebb" y="114.723441"/>
     <use style="stroke:#000000;" x="107.473538" xlink:href="#m09262b2ebb" y="109.717487"/>
     <use style="stroke:#000000;" x="140.560975" xlink:href="#m09262b2ebb" y="89.666527"/>
     <use style="stroke:#000000;" x="132.523689" xlink:href="#m09262b2ebb" y="94.329169"/>
     <use style="stroke:#000000;" x="34.717791" xlink:href="#m09262b2ebb" y="84.613467"/>
     <use style="stroke:#000000;" x="42.361452" xlink:href="#m09262b2ebb" y="86.617446"/>
     <use style="stroke:#000000;" x="87.075492" xlink:href="#m09262b2ebb" y="67.368875"/>
     <use style="stroke:#000000;" x="82.247628" xlink:href="#m09262b2ebb" y="61.328996"/>
     <use style="stroke:#000000;" x="87.075492" xlink:href="#m09262b2ebb" y="67.368875"/>
     <use style="stroke:#000000;" x="87.069999" xlink:href="#m09262b2ebb" y="60.406846"/>
     <use style="stroke:#000000;" x="87.075492" xlink:href="#m09262b2ebb" y="67.368875"/>
     <use style="stroke:#000000;" x="87.033383" xlink:href="#m09262b2ebb" y="74.752457"/>
     <use style="stroke:#000000;" x="132.523689" xlink:href="#m09262b2ebb" y="94.329169"/>
     <use style="stroke:#000000;" x="135.745927" xlink:href="#m09262b2ebb" y="95.835746"/>
     <use style="stroke:#000000;" x="132.523689" xlink:href="#m09262b2ebb" y="94.329169"/>
     <use style="stroke:#000000;" x="126.31722" xlink:href="#m09262b2ebb" y="100.40817"/>
     <use style="stroke:#000000;" x="42.361452" xlink:href="#m09262b2ebb" y="86.617446"/>
     <use style="stroke:#000000;" x="38.699818" xlink:href="#m09262b2ebb" y="92.406628"/>
     <use style="stroke:#000000;" x="42.361452" xlink:href="#m09262b2ebb" y="86.617446"/>
     <use style="stroke:#000000;" x="50.510418" xlink:href="#m09262b2ebb" y="87.178719"/>
     <use style="stroke:#000000;" x="70.246623" xlink:href="#m09262b2ebb" y="95.834947"/>
     <use style="stroke:#000000;" x="64.660801" xlink:href="#m09262b2ebb" y="95.989038"/>
     <use style="stroke:#000000;" x="70.246623" xlink:href="#m09262b2ebb" y="95.834947"/>
     <use style="stroke:#000000;" x="74.012614" xlink:href="#m09262b2ebb" y="90.08329"/>
     <use style="stroke:#000000;" x="128.193808" xlink:href="#m09262b2ebb" y="108.288355"/>
     <use style="stroke:#000000;" x="126.31722" xlink:href="#m09262b2ebb" y="100.40817"/>
     <use style="stroke:#000000;" x="81.118014" xlink:href="#m09262b2ebb" y="70.853881"/>
     <use style="stroke:#000000;" x="78.195115" xlink:href="#m09262b2ebb" y="63.875885"/>
     <use style="stroke:#000000;" x="81.118014" xlink:href="#m09262b2ebb" y="70.853881"/>
     <use style="stroke:#000000;" x="74.731209" xlink:href="#m09262b2ebb" y="67.479852"/>
     <use style="stroke:#000000;" x="81.118014" xlink:href="#m09262b2ebb" y="70.853881"/>
     <use style="stroke:#000000;" x="87.033383" xlink:href="#m09262b2ebb" y="74.752457"/>
     <use style="stroke:#000000;" x="106.282591" xlink:href="#m09262b2ebb" y="86.359563"/>
     <use style="stroke:#000000;" x="100.54115" xlink:href="#m09262b2ebb" y="86.993491"/>
     <use style="stroke:#000000;" x="106.282591" xlink:href="#m09262b2ebb" y="86.359563"/>
     <use style="stroke:#000000;" x="110.590504" xlink:href="#m09262b2ebb" y="90.189477"/>
     <use style="stroke:#000000;" x="126.31722" xlink:href="#m09262b2ebb" y="100.40817"/>
     <use style="stroke:#000000;" x="117.547608" xlink:href="#m09262b2ebb" y="99.00299"/>
     <use style="stroke:#000000;" x="50.510418" xlink:href="#m09262b2ebb" y="87.178719"/>
     <use style="stroke:#000000;" x="47.580195" xlink:href="#m09262b2ebb" y="92.616606"/>
     <use style="stroke:#000000;" x="50.510418" xlink:href="#m09262b2ebb" y="87.178719"/>
     <use style="stroke:#000000;" x="58.250196" xlink:href="#m09262b2ebb" y="84.982327"/>
     <use style="stroke:#000000;" x="58.250196" xlink:href="#m09262b2ebb" y="84.982327"/>
     <use style="stroke:#000000;" x="66.779972" xlink:href="#m09262b2ebb" y="85.802281"/>
     <use style="stroke:#000000;" x="107.473538" xlink:href="#m09262b2ebb" y="109.717487"/>
     <use style="stroke:#000000;" x="103.466795" xlink:href="#m09262b2ebb" y="108.13666"/>
     <use style="stroke:#000000;" x="107.473538" xlink:href="#m09262b2ebb" y="109.717487"/>
     <use style="stroke:#000000;" x="113.611351" xlink:href="#m09262b2ebb" y="104.46403"/>
     <use style="stroke:#000000;" x="97.915758" xlink:href="#m09262b2ebb" y="96.18225"/>
     <use style="stroke:#000000;" x="91.960111" xlink:href="#m09262b2ebb" y="96.783444"/>
     <use style="stroke:#000000;" x="97.915758" xlink:href="#m09262b2ebb" y="96.18225"/>
     <use style="stroke:#000000;" x="93.766212" xlink:href="#m09262b2ebb" y="100.607769"/>
     <use style="stroke:#000000;" x="97.915758" xlink:href="#m09262b2ebb" y="96.18225"/>
     <use style="stroke:#000000;" x="100.876189" xlink:href="#m09262b2ebb" y="92.634969"/>
     <use style="stroke:#000000;" x="111.515066" xlink:href="#m09262b2ebb" y="84.570354"/>
     <use style="stroke:#000000;" x="114.920385" xlink:href="#m09262b2ebb" y="81.086146"/>
     <use style="stroke:#000000;" x="111.515066" xlink:href="#m09262b2ebb" y="84.570354"/>
     <use style="stroke:#000000;" x="110.590504" xlink:href="#m09262b2ebb" y="90.189477"/>
     <use style="stroke:#000000;" x="66.779972" xlink:href="#m09262b2ebb" y="85.802281"/>
     <use style="stroke:#000000;" x="74.012614" xlink:href="#m09262b2ebb" y="90.08329"/>
     <use style="stroke:#000000;" x="110.590504" xlink:href="#m09262b2ebb" y="90.189477"/>
     <use style="stroke:#000000;" x="109.939648" xlink:href="#m09262b2ebb" y="95.095631"/>
     <use style="stroke:#000000;" x="113.611351" xlink:href="#m09262b2ebb" y="104.46403"/>
     <use style="stroke:#000000;" x="110.82851" xlink:href="#m09262b2ebb" y="102.452068"/>
     <use style="stroke:#000000;" x="113.611351" xlink:href="#m09262b2ebb" y="104.46403"/>
     <use style="stroke:#000000;" x="117.547608" xlink:href="#m09262b2ebb" y="99.00299"/>
     <use style="stroke:#000000;" x="74.012614" xlink:href="#m09262b2ebb" y="90.08329"/>
     <use style="stroke:#000000;" x="83.055018" xlink:href="#m09262b2ebb" y="90.634185"/>
     <use style="stroke:#000000;" x="117.547608" xlink:href="#m09262b2ebb" y="99.00299"/>
     <use style="stroke:#000000;" x="109.939648" xlink:href="#m09262b2ebb" y="95.095631"/>
     <use style="stroke:#000000;" x="83.055018" xlink:href="#m09262b2ebb" y="90.634185"/>
     <use style="stroke:#000000;" x="81.020065" xlink:href="#m09262b2ebb" y="86.946385"/>
     <use style="stroke:#000000;" x="83.055018" xlink:href="#m09262b2ebb" y="90.634185"/>
     <use style="stroke:#000000;" x="91.757806" xlink:href="#m09262b2ebb" y="88.930404"/>
     <use style="stroke:#000000;" x="109.939648" xlink:href="#m09262b2ebb" y="95.095631"/>
     <use style="stroke:#000000;" x="100.876189" xlink:href="#m09262b2ebb" y="92.634969"/>
     <use style="stroke:#000000;" x="100.876189" xlink:href="#m09262b2ebb" y="92.634969"/>
     <use style="stroke:#000000;" x="91.757806" xlink:href="#m09262b2ebb" y="88.930404"/>
     <use style="stroke:#000000;" x="87.033383" xlink:href="#m09262b2ebb" y="74.752457"/>
     <use style="stroke:#000000;" x="89.838194" xlink:href="#m09262b2ebb" y="81.98115"/>
     <use style="stroke:#000000;" x="91.757806" xlink:href="#m09262b2ebb" y="88.930404"/>
     <use style="stroke:#000000;" x="89.838194" xlink:href="#m09262b2ebb" y="81.98115"/>
    </g>
   </g>
   <g id="PathCollection_1">
    <path clip-path="url(#p4c6b7427d3)" d="M 60.113052 109.819303 
C 60.908661 109.819303 61.671792 109.503204 62.234372 108.940624 
C 62.796953 108.378043 63.113052 107.614913 63.113052 106.819303 
C 63.113052 106.023694 62.796953 105.260564 62.234372 104.697983 
C 61.671792 104.135402 60.908661 103.819303 60.113052 103.819303 
C 59.317443 103.819303 58.554312 104.135402 57.991732 104.697983 
C 57.429151 105.260564 57.113052 106.023694 57.113052 106.819303 
C 57.113052 107.614913 57.429151 108.378043 57.991732 108.940624 
C 58.554312 109.503204 59.317443 109.819303 60.113052 109.819303 
z
" style="fill:none;stroke:#0000ff;stroke-opacity:0.5;"/>
   </g>
   <g id="PathCollection_2">
    <path clip-path="url(#p4c6b7427d3)" d="M 23.165245 80.804731 
C 23.960855 80.804731 24.723985 80.488632 25.286566 79.926052 
C 25.849147 79.363471 26.165245 78.600341 26.165245 77.804731 
C 26.165245 77.009122 25.849147 76.245992 25.286566 75.683411 
C 24.723985 75.12083 23.960855 74.804731 23.165245 74.804731 
C 22.369636 74.804731 21.606506 75.12083 21.043925 75.683411 
C 20.481344 76.245992 20.165245 77.009122 20.165245 77.804731 
C 20.165245 78.600341 20.481344 79.363471 21.043925 79.926052 
C 21.606506 80.488632 22.369636 80.804731 23.165245 80.804731 
z
" style="fill:none;stroke:#0000ff;stroke-opacity:0.5;"/>
   </g>
   <g id="PathCollection_3">
    <path clip-path="url(#p4c6b7427d3)" d="M 38.699818 95.406628 
C 39.495427 95.406628 40.258558 95.090529 40.821138 94.527948 
C 41.383719 93.965367 41.699818 93.202237 41.699818 92.406628 
C 41.699818 91.611018 41.383719 90.847888 40.821138 90.285307 
C 40.258558 89.722726 39.495427 89.406628 38.699818 89.406628 
C 37.904209 89.406628 37.141078 89.722726 36.578498 90.285307 
C 36.015917 90.847888 35.699818 91.611018 35.699818 92.406628 
C 35.699818 93.202237 36.015917 93.965367 36.578498 94.527948 
C 37.141078 95.090529 37.904209 95.406628 38.699818 95.406628 
z
" style="fill:none;stroke:#0000ff;stroke-opacity:0.5;"/>
   </g>
   <g id="PathCollection_4">
    <path clip-path="url(#p4c6b7427d3)" d="M 91.960111 99.783444 
C 92.75572 99.783444 93.518851 99.467345 94.081432 98.904764 
C 94.644012 98.342184 94.960111 97.579053 94.960111 96.783444 
C 94.960111 95.987835 94.644012 95.224704 94.081432 94.662124 
C 93.518851 94.099543 92.75572 93.783444 91.960111 93.783444 
C 91.164502 93.783444 90.401372 94.099543 89.838791 94.662124 
C 89.27621 95.224704 88.960111 95.987835 88.960111 96.783444 
C 88.960111 97.579053 89.27621 98.342184 89.838791 98.904764 
C 90.401372 99.467345 91.164502 99.783444 91.960111 99.783444 
z
" style="fill:none;stroke:#0000ff;stroke-opacity:0.5;"/>
   </g>
   <g id="PathCollection_5">
    <path clip-path="url(#p4c6b7427d3)" d="M 154.319564 132.669447 
C 155.115173 132.669447 155.878304 132.353348 156.440884 131.790767 
C 157.003465 131.228186 157.319564 130.465056 157.319564 129.669447 
C 157.319564 128.873837 157.003465 128.110707 156.440884 127.548126 
C 155.878304 126.985545 155.115173 126.669447 154.319564 126.669447 
C 153.523955 126.669447 152.760824 126.985545 152.198244 127.548126 
C 151.635663 128.110707 151.319564 128.873837 151.319564 129.669447 
C 151.319564 130.465056 151.635663 131.228186 152.198244 131.790767 
C 152.760824 132.353348 153.523955 132.669447 154.319564 132.669447 
z
" style="fill:none;stroke:#0000ff;stroke-opacity:0.5;"/>
   </g>
   <g id="PathCollection_6">
    <path clip-path="url(#p4c6b7427d3)" d="M 166.686732 133.164453 
C 167.482341 133.164453 168.245472 132.848354 168.808052 132.285773 
C 169.370633 131.723193 169.686732 130.960062 169.686732 130.164453 
C 169.686732 129.368844 169.370633 128.605714 168.808052 128.043133 
C 168.245472 127.480552 167.482341 127.164453 166.686732 127.164453 
C 165.891123 127.164453 165.127992 127.480552 164.565412 128.043133 
C 164.002831 128.605714 163.686732 129.368844 163.686732 130.164453 
C 163.686732 130.960062 164.002831 131.723193 164.565412 132.285773 
C 165.127992 132.848354 165.891123 133.164453 166.686732 133.164453 
z
" style="fill:none;stroke:#0000ff;stroke-opacity:0.5;"/>
   </g>
   <g id="PathCollection_7">
    <path clip-path="url(#p4c6b7427d3)" d="M 163.546881 137.523705 
C 164.34249 137.523705 165.105621 137.207606 165.668201 136.645025 
C 166.230782 136.082444 166.546881 135.319314 166.546881 134.523705 
C 166.546881 133.728095 166.230782 132.964965 165.668201 132.402384 
C 165.105621 131.839804 164.34249 131.523705 163.546881 131.523705 
C 162.751272 131.523705 161.988141 131.839804 161.425561 132.402384 
C 160.86298 132.964965 160.546881 133.728095 160.546881 134.523705 
C 160.546881 135.319314 160.86298 136.082444 161.425561 136.645025 
C 161.988141 137.207606 162.751272 137.523705 163.546881 137.523705 
z
" style="fill:none;stroke:#0000ff;stroke-opacity:0.5;"/>
   </g>
   <g id="PathCollection_8">
    <path clip-path="url(#p4c6b7427d3)" d="M 149.220739 122.825202 
C 150.016348 122.825202 150.779479 122.509104 151.342059 121.946523 
C 151.90464 121.383942 152.220739 120.620812 152.220739 119.825202 
C 152.220739 119.029593 151.90464 118.266463 151.342059 117.703882 
C 150.779479 117.141301 150.016348 116.825202 149.220739 116.825202 
C 148.42513 116.825202 147.662 117.141301 147.099419 117.703882 
C 146.536838 118.266463 146.220739 119.029593 146.220739 119.825202 
C 146.220739 120.620812 146.536838 121.383942 147.099419 121.946523 
C 147.662 122.509104 148.42513 122.825202 149.220739 122.825202 
z
" style="fill:none;stroke:#0000ff;stroke-opacity:0.5;"/>
   </g>
   <g id="patch_2">
    <path clip-path="url(#p4c6b7427d3)" d="M 60.009111 103.823087 
Q 58.234569 78.943352 28.398887 77.930431 
" style="fill:none;stroke:#2e2efe;stroke-linecap:round;stroke-width:2;"/>
    <path clip-path="url(#p4c6b7427d3)" d="M 32.328723 80.065001 
L 28.398887 77.930431 
L 32.464445 76.067304 
L 32.328723 80.065001 
z
" style="fill:#2e2efe;stroke:#2e2efe;stroke-linecap:round;stroke-width:2;"/>
   </g>
   <g id="patch_3">
    <path clip-path="url(#p4c6b7427d3)" d="M 23.348192 80.80198 
Q 24.679901 91.084956 33.481888 92.019912 
" style="fill:none;stroke:#2e2efe;stroke-linecap:round;stroke-width:2;"/>
    <path clip-path="url(#p4c6b7427d3)" d="M 29.715518 89.608593 
L 33.481888 92.019912 
L 29.293011 93.586216 
L 29.715518 89.608593 
z
" style="fill:#2e2efe;stroke:#2e2efe;stroke-linecap:round;stroke-width:2;"/>
   </g>
   <g id="patch_4">
    <path clip-path="url(#p4c6b7427d3)" d="M 41.183405 94.092812 
Q 49.872391 96.685403 86.724284 96.774467 
" style="fill:none;stroke:#2e2efe;stroke-linecap:round;stroke-width:2;"/>
    <path clip-path="url(#p4c6b7427d3)" d="M 82.729129 94.764806 
L 86.724284 96.774467 
L 82.719462 98.764794 
L 82.729129 94.764806 
z
" style="fill:#2e2efe;stroke:#2e2efe;stroke-linecap:round;stroke-width:2;"/>
   </g>
   <g id="patch_5">
    <path clip-path="url(#p4c6b7427d3)" d="M 92.096063 99.782768 
Q 94.800891 128.906045 149.083692 129.620518 
" style="fill:none;stroke:#2e2efe;stroke-linecap:round;stroke-width:2;"/>
    <path clip-path="url(#p4c6b7427d3)" d="M 145.11036 127.568048 
L 149.083692 129.620518 
L 145.057716 131.567701 
L 145.11036 127.568048 
z
" style="fill:#2e2efe;stroke:#2e2efe;stroke-linecap:round;stroke-width:2;"/>
   </g>
   <g id="patch_6">
    <path clip-path="url(#p4c6b7427d3)" d="M 157.294723 130.035943 
Q 159.59839 130.13173 161.449758 130.142777 
" style="fill:none;stroke:#2e2efe;stroke-linecap:round;stroke-width:2;"/>
    <path clip-path="url(#p4c6b7427d3)" d="M 157.461763 128.118944 
L 161.449758 130.142777 
L 157.437894 132.118873 
L 157.461763 128.118944 
z
" style="fill:#2e2efe;stroke:#2e2efe;stroke-linecap:round;stroke-width:2;"/>
   </g>
   <g id="patch_7">
    <path clip-path="url(#p4c6b7427d3)" d="M 166.105699 133.108257 
Q 165.336044 134.523705 165.782949 134.523705 
" style="fill:none;stroke:#2e2efe;stroke-linecap:round;stroke-width:2;"/>
    <path clip-path="url(#p4c6b7427d3)" d="M 169.782949 136.523705 
L 165.782949 134.523705 
L 169.782949 132.523705 
L 169.782949 136.523705 
z
" style="fill:#2e2efe;stroke:#2e2efe;stroke-linecap:round;stroke-width:2;"/>
   </g>
   <g id="patch_8">
    <path clip-path="url(#p4c6b7427d3)" d="M 163.380436 131.525829 
Q 162.173398 121.274926 154.431177 120.287669 
" style="fill:none;stroke:#2e2efe;stroke-linecap:round;stroke-width:2;"/>
    <path clip-path="url(#p4c6b7427d3)" d="M 158.146064 122.777572 
L 154.431177 120.287669 
L 158.652031 118.809701 
L 158.146064 122.777572 
z
" style="fill:#2e2efe;stroke:#2e2efe;stroke-linecap:round;stroke-width:2;"/>
   </g>
  </g>
 </g>
 <defs>
  <clipPath id="p4c6b7427d3">
   <rect height="163.44" width="231.84" x="10.8" y="10.8"/>
  </clipPath>
 </defs>
</svg>
