<?xml version="1.0" encoding="utf-8" standalone="no"?>
<!DOCTYPE svg PUBLIC "-//W3C//DTD SVG 1.1//EN"
  "http://www.w3.org/Graphics/SVG/1.1/DTD/svg11.dtd">
<svg height="185.04pt" version="1.1" viewBox="0 0 253.44 185.04" width="253.44pt" xmlns="http://www.w3.org/2000/svg" xmlns:xlink="http://www.w3.org/1999/xlink">
 <metadata>
  <rdf:RDF xmlns:cc="http://creativecommons.org/ns#" xmlns:dc="http://purl.org/dc/elements/1.1/" xmlns:rdf="http://www.w3.org/1999/02/22-rdf-syntax-ns#">
   <cc:Work>
    <dc:type rdf:resource="http://purl.org/dc/dcmitype/StillImage"/>
    <dc:date>2021-07-27T16:05:55.210606</dc:date>
    <dc:format>image/svg+xml</dc:format>
    <dc:creator>
     <cc:Agent>
      <dc:title>Matplotlib v3.4.1, https://matplotlib.org/</dc:title>
     </cc:Agent>
    </dc:creator>
   </cc:Work>
  </rdf:RDF>
 </metadata>
 <defs>
  <style type="text/css">*{stroke-linecap:butt;stroke-linejoin:round;}</style>
 </defs>
 <g id="figure_1">
  <g id="patch_1">
   <path d="M 0 185.04 
L 253.44 185.04 
L 253.44 0 
L 0 0 
z
" style="fill:#ffffff;"/>
  </g>
  <g id="axes_1">
   <g id="patch_2">
    <path d="M 50.688 148.032 
L 228.096 148.032 
L 228.096 18.504 
L 50.688 18.504 
z
" style="fill:#ffffff;"/>
   </g>
   <g id="matplotlib.axis_1">
    <g id="xtick_1">
     <g id="line2d_1">
      <defs>
       <path d="M 0 0 
L 0 3.5 
" id="m0d5cae5162" style="stroke:#000000;stroke-width:0.8;"/>
      </defs>
      <g>
       <use style="stroke:#000000;stroke-width:0.8;" x="58.752" xlink:href="#m0d5cae5162" y="148.032"/>
      </g>
     </g>
     <g id="text_1">
      <!-- 0 -->
      <g transform="translate(55.57075 162.630437)scale(0.1 -0.1)">
       <defs>
        <path d="M 2034 4250 
Q 1547 4250 1301 3770 
Q 1056 3291 1056 2328 
Q 1056 1369 1301 889 
Q 1547 409 2034 409 
Q 2525 409 2770 889 
Q 3016 1369 3016 2328 
Q 3016 3291 2770 3770 
Q 2525 4250 2034 4250 
z
M 2034 4750 
Q 2819 4750 3233 4129 
Q 3647 3509 3647 2328 
Q 3647 1150 3233 529 
Q 2819 -91 2034 -91 
Q 1250 -91 836 529 
Q 422 1150 422 2328 
Q 422 3509 836 4129 
Q 1250 4750 2034 4750 
z
" id="DejaVuSans-30" transform="scale(0.015625)"/>
       </defs>
       <use xlink:href="#DejaVuSans-30"/>
      </g>
     </g>
    </g>
    <g id="xtick_2">
     <g id="line2d_2">
      <g>
       <use style="stroke:#000000;stroke-width:0.8;" x="99.072" xlink:href="#m0d5cae5162" y="148.032"/>
      </g>
     </g>
     <g id="text_2">
      <!-- 100 -->
      <g transform="translate(89.52825 162.630437)scale(0.1 -0.1)">
       <defs>
        <path d="M 794 531 
L 1825 531 
L 1825 4091 
L 703 3866 
L 703 4441 
L 1819 4666 
L 2450 4666 
L 2450 531 
L 3481 531 
L 3481 0 
L 794 0 
L 794 531 
z
" id="DejaVuSans-31" transform="scale(0.015625)"/>
       </defs>
       <use xlink:href="#DejaVuSans-31"/>
       <use x="63.623047" xlink:href="#DejaVuSans-30"/>
       <use x="127.246094" xlink:href="#DejaVuSans-30"/>
      </g>
     </g>
    </g>
    <g id="xtick_3">
     <g id="line2d_3">
      <g>
       <use style="stroke:#000000;stroke-width:0.8;" x="139.392" xlink:href="#m0d5cae5162" y="148.032"/>
      </g>
     </g>
     <g id="text_3">
      <!-- 200 -->
      <g transform="translate(129.84825 162.630437)scale(0.1 -0.1)">
       <defs>
        <path d="M 1228 531 
L 3431 531 
L 3431 0 
L 469 0 
L 469 531 
Q 828 903 1448 1529 
Q 2069 2156 2228 2338 
Q 2531 2678 2651 2914 
Q 2772 3150 2772 3378 
Q 2772 3750 2511 3984 
Q 2250 4219 1831 4219 
Q 1534 4219 1204 4116 
Q 875 4013 500 3803 
L 500 4441 
Q 881 4594 1212 4672 
Q 1544 4750 1819 4750 
Q 2544 4750 2975 4387 
Q 3406 4025 3406 3419 
Q 3406 3131 3298 2873 
Q 3191 2616 2906 2266 
Q 2828 2175 2409 1742 
Q 1991 1309 1228 531 
z
" id="DejaVuSans-32" transform="scale(0.015625)"/>
       </defs>
       <use xlink:href="#DejaVuSans-32"/>
       <use x="63.623047" xlink:href="#DejaVuSans-30"/>
       <use x="127.246094" xlink:href="#DejaVuSans-30"/>
      </g>
     </g>
    </g>
    <g id="xtick_4">
     <g id="line2d_4">
      <g>
       <use style="stroke:#000000;stroke-width:0.8;" x="179.712" xlink:href="#m0d5cae5162" y="148.032"/>
      </g>
     </g>
     <g id="text_4">
      <!-- 300 -->
      <g transform="translate(170.16825 162.630437)scale(0.1 -0.1)">
       <defs>
        <path d="M 2597 2516 
Q 3050 2419 3304 2112 
Q 3559 1806 3559 1356 
Q 3559 666 3084 287 
Q 2609 -91 1734 -91 
Q 1441 -91 1130 -33 
Q 819 25 488 141 
L 488 750 
Q 750 597 1062 519 
Q 1375 441 1716 441 
Q 2309 441 2620 675 
Q 2931 909 2931 1356 
Q 2931 1769 2642 2001 
Q 2353 2234 1838 2234 
L 1294 2234 
L 1294 2753 
L 1863 2753 
Q 2328 2753 2575 2939 
Q 2822 3125 2822 3475 
Q 2822 3834 2567 4026 
Q 2313 4219 1838 4219 
Q 1578 4219 1281 4162 
Q 984 4106 628 3988 
L 628 4550 
Q 988 4650 1302 4700 
Q 1616 4750 1894 4750 
Q 2613 4750 3031 4423 
Q 3450 4097 3450 3541 
Q 3450 3153 3228 2886 
Q 3006 2619 2597 2516 
z
" id="DejaVuSans-33" transform="scale(0.015625)"/>
       </defs>
       <use xlink:href="#DejaVuSans-33"/>
       <use x="63.623047" xlink:href="#DejaVuSans-30"/>
       <use x="127.246094" xlink:href="#DejaVuSans-30"/>
      </g>
     </g>
    </g>
    <g id="xtick_5">
     <g id="line2d_5">
      <g>
       <use style="stroke:#000000;stroke-width:0.8;" x="220.032" xlink:href="#m0d5cae5162" y="148.032"/>
      </g>
     </g>
     <g id="text_5">
      <!-- 400 -->
      <g transform="translate(210.48825 162.630437)scale(0.1 -0.1)">
       <defs>
        <path d="M 2419 4116 
L 825 1625 
L 2419 1625 
L 2419 4116 
z
M 2253 4666 
L 3047 4666 
L 3047 1625 
L 3713 1625 
L 3713 1100 
L 3047 1100 
L 3047 0 
L 2419 0 
L 2419 1100 
L 313 1100 
L 313 1709 
L 2253 4666 
z
" id="DejaVuSans-34" transform="scale(0.015625)"/>
       </defs>
       <use xlink:href="#DejaVuSans-34"/>
       <use x="63.623047" xlink:href="#DejaVuSans-30"/>
       <use x="127.246094" xlink:href="#DejaVuSans-30"/>
      </g>
     </g>
    </g>
    <g id="text_6">
     <!-- [formaldehyde]/ mM -->
     <g transform="translate(88.292 176.308562)scale(0.1 -0.1)">
      <defs>
       <path d="M 550 4863 
L 1875 4863 
L 1875 4416 
L 1125 4416 
L 1125 -397 
L 1875 -397 
L 1875 -844 
L 550 -844 
L 550 4863 
z
" id="DejaVuSans-5b" transform="scale(0.015625)"/>
       <path d="M 2375 4863 
L 2375 4384 
L 1825 4384 
Q 1516 4384 1395 4259 
Q 1275 4134 1275 3809 
L 1275 3500 
L 2222 3500 
L 2222 3053 
L 1275 3053 
L 1275 0 
L 697 0 
L 697 3053 
L 147 3053 
L 147 3500 
L 697 3500 
L 697 3744 
Q 697 4328 969 4595 
Q 1241 4863 1831 4863 
L 2375 4863 
z
" id="DejaVuSans-66" transform="scale(0.015625)"/>
       <path d="M 1959 3097 
Q 1497 3097 1228 2736 
Q 959 2375 959 1747 
Q 959 1119 1226 758 
Q 1494 397 1959 397 
Q 2419 397 2687 759 
Q 2956 1122 2956 1747 
Q 2956 2369 2687 2733 
Q 2419 3097 1959 3097 
z
M 1959 3584 
Q 2709 3584 3137 3096 
Q 3566 2609 3566 1747 
Q 3566 888 3137 398 
Q 2709 -91 1959 -91 
Q 1206 -91 779 398 
Q 353 888 353 1747 
Q 353 2609 779 3096 
Q 1206 3584 1959 3584 
z
" id="DejaVuSans-6f" transform="scale(0.015625)"/>
       <path d="M 2631 2963 
Q 2534 3019 2420 3045 
Q 2306 3072 2169 3072 
Q 1681 3072 1420 2755 
Q 1159 2438 1159 1844 
L 1159 0 
L 581 0 
L 581 3500 
L 1159 3500 
L 1159 2956 
Q 1341 3275 1631 3429 
Q 1922 3584 2338 3584 
Q 2397 3584 2469 3576 
Q 2541 3569 2628 3553 
L 2631 2963 
z
" id="DejaVuSans-72" transform="scale(0.015625)"/>
       <path d="M 3328 2828 
Q 3544 3216 3844 3400 
Q 4144 3584 4550 3584 
Q 5097 3584 5394 3201 
Q 5691 2819 5691 2113 
L 5691 0 
L 5113 0 
L 5113 2094 
Q 5113 2597 4934 2840 
Q 4756 3084 4391 3084 
Q 3944 3084 3684 2787 
Q 3425 2491 3425 1978 
L 3425 0 
L 2847 0 
L 2847 2094 
Q 2847 2600 2669 2842 
Q 2491 3084 2119 3084 
Q 1678 3084 1418 2786 
Q 1159 2488 1159 1978 
L 1159 0 
L 581 0 
L 581 3500 
L 1159 3500 
L 1159 2956 
Q 1356 3278 1631 3431 
Q 1906 3584 2284 3584 
Q 2666 3584 2933 3390 
Q 3200 3197 3328 2828 
z
" id="DejaVuSans-6d" transform="scale(0.015625)"/>
       <path d="M 2194 1759 
Q 1497 1759 1228 1600 
Q 959 1441 959 1056 
Q 959 750 1161 570 
Q 1363 391 1709 391 
Q 2188 391 2477 730 
Q 2766 1069 2766 1631 
L 2766 1759 
L 2194 1759 
z
M 3341 1997 
L 3341 0 
L 2766 0 
L 2766 531 
Q 2569 213 2275 61 
Q 1981 -91 1556 -91 
Q 1019 -91 701 211 
Q 384 513 384 1019 
Q 384 1609 779 1909 
Q 1175 2209 1959 2209 
L 2766 2209 
L 2766 2266 
Q 2766 2663 2505 2880 
Q 2244 3097 1772 3097 
Q 1472 3097 1187 3025 
Q 903 2953 641 2809 
L 641 3341 
Q 956 3463 1253 3523 
Q 1550 3584 1831 3584 
Q 2591 3584 2966 3190 
Q 3341 2797 3341 1997 
z
" id="DejaVuSans-61" transform="scale(0.015625)"/>
       <path d="M 603 4863 
L 1178 4863 
L 1178 0 
L 603 0 
L 603 4863 
z
" id="DejaVuSans-6c" transform="scale(0.015625)"/>
       <path d="M 2906 2969 
L 2906 4863 
L 3481 4863 
L 3481 0 
L 2906 0 
L 2906 525 
Q 2725 213 2448 61 
Q 2172 -91 1784 -91 
Q 1150 -91 751 415 
Q 353 922 353 1747 
Q 353 2572 751 3078 
Q 1150 3584 1784 3584 
Q 2172 3584 2448 3432 
Q 2725 3281 2906 2969 
z
M 947 1747 
Q 947 1113 1208 752 
Q 1469 391 1925 391 
Q 2381 391 2643 752 
Q 2906 1113 2906 1747 
Q 2906 2381 2643 2742 
Q 2381 3103 1925 3103 
Q 1469 3103 1208 2742 
Q 947 2381 947 1747 
z
" id="DejaVuSans-64" transform="scale(0.015625)"/>
       <path d="M 3597 1894 
L 3597 1613 
L 953 1613 
Q 991 1019 1311 708 
Q 1631 397 2203 397 
Q 2534 397 2845 478 
Q 3156 559 3463 722 
L 3463 178 
Q 3153 47 2828 -22 
Q 2503 -91 2169 -91 
Q 1331 -91 842 396 
Q 353 884 353 1716 
Q 353 2575 817 3079 
Q 1281 3584 2069 3584 
Q 2775 3584 3186 3129 
Q 3597 2675 3597 1894 
z
M 3022 2063 
Q 3016 2534 2758 2815 
Q 2500 3097 2075 3097 
Q 1594 3097 1305 2825 
Q 1016 2553 972 2059 
L 3022 2063 
z
" id="DejaVuSans-65" transform="scale(0.015625)"/>
       <path d="M 3513 2113 
L 3513 0 
L 2938 0 
L 2938 2094 
Q 2938 2591 2744 2837 
Q 2550 3084 2163 3084 
Q 1697 3084 1428 2787 
Q 1159 2491 1159 1978 
L 1159 0 
L 581 0 
L 581 4863 
L 1159 4863 
L 1159 2956 
Q 1366 3272 1645 3428 
Q 1925 3584 2291 3584 
Q 2894 3584 3203 3211 
Q 3513 2838 3513 2113 
z
" id="DejaVuSans-68" transform="scale(0.015625)"/>
       <path d="M 2059 -325 
Q 1816 -950 1584 -1140 
Q 1353 -1331 966 -1331 
L 506 -1331 
L 506 -850 
L 844 -850 
Q 1081 -850 1212 -737 
Q 1344 -625 1503 -206 
L 1606 56 
L 191 3500 
L 800 3500 
L 1894 763 
L 2988 3500 
L 3597 3500 
L 2059 -325 
z
" id="DejaVuSans-79" transform="scale(0.015625)"/>
       <path d="M 1947 4863 
L 1947 -844 
L 622 -844 
L 622 -397 
L 1369 -397 
L 1369 4416 
L 622 4416 
L 622 4863 
L 1947 4863 
z
" id="DejaVuSans-5d" transform="scale(0.015625)"/>
       <path d="M 1625 4666 
L 2156 4666 
L 531 -594 
L 0 -594 
L 1625 4666 
z
" id="DejaVuSans-2f" transform="scale(0.015625)"/>
       <path id="DejaVuSans-20" transform="scale(0.015625)"/>
       <path d="M 628 4666 
L 1569 4666 
L 2759 1491 
L 3956 4666 
L 4897 4666 
L 4897 0 
L 4281 0 
L 4281 4097 
L 3078 897 
L 2444 897 
L 1241 4097 
L 1241 0 
L 628 0 
L 628 4666 
z
" id="DejaVuSans-4d" transform="scale(0.015625)"/>
      </defs>
      <use xlink:href="#DejaVuSans-5b"/>
      <use x="39.013672" xlink:href="#DejaVuSans-66"/>
      <use x="74.21875" xlink:href="#DejaVuSans-6f"/>
      <use x="135.400391" xlink:href="#DejaVuSans-72"/>
      <use x="174.763672" xlink:href="#DejaVuSans-6d"/>
      <use x="272.175781" xlink:href="#DejaVuSans-61"/>
      <use x="333.455078" xlink:href="#DejaVuSans-6c"/>
      <use x="361.238281" xlink:href="#DejaVuSans-64"/>
      <use x="424.714844" xlink:href="#DejaVuSans-65"/>
      <use x="486.238281" xlink:href="#DejaVuSans-68"/>
      <use x="549.617188" xlink:href="#DejaVuSans-79"/>
      <use x="608.796875" xlink:href="#DejaVuSans-64"/>
      <use x="672.273438" xlink:href="#DejaVuSans-65"/>
      <use x="733.796875" xlink:href="#DejaVuSans-5d"/>
      <use x="772.810547" xlink:href="#DejaVuSans-2f"/>
      <use x="806.501953" xlink:href="#DejaVuSans-20"/>
      <use x="838.289062" xlink:href="#DejaVuSans-6d"/>
      <use x="935.701172" xlink:href="#DejaVuSans-4d"/>
     </g>
    </g>
   </g>
   <g id="matplotlib.axis_2">
    <g id="ytick_1">
     <g id="line2d_6">
      <defs>
       <path d="M 0 0 
L -3.5 0 
" id="m6b9fd8c5b9" style="stroke:#000000;stroke-width:0.8;"/>
      </defs>
      <g>
       <use style="stroke:#000000;stroke-width:0.8;" x="50.688" xlink:href="#m6b9fd8c5b9" y="142.144364"/>
      </g>
     </g>
     <g id="text_7">
      <!-- 0 -->
      <g transform="translate(37.3255 145.943582)scale(0.1 -0.1)">
       <use xlink:href="#DejaVuSans-30"/>
      </g>
     </g>
    </g>
    <g id="ytick_2">
     <g id="line2d_7">
      <g>
       <use style="stroke:#000000;stroke-width:0.8;" x="50.688" xlink:href="#m6b9fd8c5b9" y="101.635882"/>
      </g>
     </g>
     <g id="text_8">
      <!-- 10 -->
      <g transform="translate(30.963 105.435101)scale(0.1 -0.1)">
       <use xlink:href="#DejaVuSans-31"/>
       <use x="63.623047" xlink:href="#DejaVuSans-30"/>
      </g>
     </g>
    </g>
    <g id="ytick_3">
     <g id="line2d_8">
      <g>
       <use style="stroke:#000000;stroke-width:0.8;" x="50.688" xlink:href="#m6b9fd8c5b9" y="61.127401"/>
      </g>
     </g>
     <g id="text_9">
      <!-- 20 -->
      <g transform="translate(30.963 64.926619)scale(0.1 -0.1)">
       <use xlink:href="#DejaVuSans-32"/>
       <use x="63.623047" xlink:href="#DejaVuSans-30"/>
      </g>
     </g>
    </g>
    <g id="ytick_4">
     <g id="line2d_9">
      <g>
       <use style="stroke:#000000;stroke-width:0.8;" x="50.688" xlink:href="#m6b9fd8c5b9" y="20.618919"/>
      </g>
     </g>
     <g id="text_10">
      <!-- 30 -->
      <g transform="translate(30.963 24.418138)scale(0.1 -0.1)">
       <use xlink:href="#DejaVuSans-33"/>
       <use x="63.623047" xlink:href="#DejaVuSans-30"/>
      </g>
     </g>
    </g>
    <g id="text_11">
     <!-- Concentration/ mM -->
     <g transform="translate(24.883312 131.096906)rotate(-90)scale(0.1 -0.1)">
      <defs>
       <path d="M 4122 4306 
L 4122 3641 
Q 3803 3938 3442 4084 
Q 3081 4231 2675 4231 
Q 1875 4231 1450 3742 
Q 1025 3253 1025 2328 
Q 1025 1406 1450 917 
Q 1875 428 2675 428 
Q 3081 428 3442 575 
Q 3803 722 4122 1019 
L 4122 359 
Q 3791 134 3420 21 
Q 3050 -91 2638 -91 
Q 1578 -91 968 557 
Q 359 1206 359 2328 
Q 359 3453 968 4101 
Q 1578 4750 2638 4750 
Q 3056 4750 3426 4639 
Q 3797 4528 4122 4306 
z
" id="DejaVuSans-43" transform="scale(0.015625)"/>
       <path d="M 3513 2113 
L 3513 0 
L 2938 0 
L 2938 2094 
Q 2938 2591 2744 2837 
Q 2550 3084 2163 3084 
Q 1697 3084 1428 2787 
Q 1159 2491 1159 1978 
L 1159 0 
L 581 0 
L 581 3500 
L 1159 3500 
L 1159 2956 
Q 1366 3272 1645 3428 
Q 1925 3584 2291 3584 
Q 2894 3584 3203 3211 
Q 3513 2838 3513 2113 
z
" id="DejaVuSans-6e" transform="scale(0.015625)"/>
       <path d="M 3122 3366 
L 3122 2828 
Q 2878 2963 2633 3030 
Q 2388 3097 2138 3097 
Q 1578 3097 1268 2742 
Q 959 2388 959 1747 
Q 959 1106 1268 751 
Q 1578 397 2138 397 
Q 2388 397 2633 464 
Q 2878 531 3122 666 
L 3122 134 
Q 2881 22 2623 -34 
Q 2366 -91 2075 -91 
Q 1284 -91 818 406 
Q 353 903 353 1747 
Q 353 2603 823 3093 
Q 1294 3584 2113 3584 
Q 2378 3584 2631 3529 
Q 2884 3475 3122 3366 
z
" id="DejaVuSans-63" transform="scale(0.015625)"/>
       <path d="M 1172 4494 
L 1172 3500 
L 2356 3500 
L 2356 3053 
L 1172 3053 
L 1172 1153 
Q 1172 725 1289 603 
Q 1406 481 1766 481 
L 2356 481 
L 2356 0 
L 1766 0 
Q 1100 0 847 248 
Q 594 497 594 1153 
L 594 3053 
L 172 3053 
L 172 3500 
L 594 3500 
L 594 4494 
L 1172 4494 
z
" id="DejaVuSans-74" transform="scale(0.015625)"/>
       <path d="M 603 3500 
L 1178 3500 
L 1178 0 
L 603 0 
L 603 3500 
z
M 603 4863 
L 1178 4863 
L 1178 4134 
L 603 4134 
L 603 4863 
z
" id="DejaVuSans-69" transform="scale(0.015625)"/>
      </defs>
      <use xlink:href="#DejaVuSans-43"/>
      <use x="69.824219" xlink:href="#DejaVuSans-6f"/>
      <use x="131.005859" xlink:href="#DejaVuSans-6e"/>
      <use x="194.384766" xlink:href="#DejaVuSans-63"/>
      <use x="249.365234" xlink:href="#DejaVuSans-65"/>
      <use x="310.888672" xlink:href="#DejaVuSans-6e"/>
      <use x="374.267578" xlink:href="#DejaVuSans-74"/>
      <use x="413.476562" xlink:href="#DejaVuSans-72"/>
      <use x="454.589844" xlink:href="#DejaVuSans-61"/>
      <use x="515.869141" xlink:href="#DejaVuSans-74"/>
      <use x="555.078125" xlink:href="#DejaVuSans-69"/>
      <use x="582.861328" xlink:href="#DejaVuSans-6f"/>
      <use x="644.042969" xlink:href="#DejaVuSans-6e"/>
      <use x="707.421875" xlink:href="#DejaVuSans-2f"/>
      <use x="741.113281" xlink:href="#DejaVuSans-20"/>
      <use x="772.900391" xlink:href="#DejaVuSans-6d"/>
      <use x="870.3125" xlink:href="#DejaVuSans-4d"/>
     </g>
    </g>
   </g>
   <g id="patch_3">
    <path d="M 50.688 148.032 
L 50.688 18.504 
" style="fill:none;stroke:#000000;stroke-linecap:square;stroke-linejoin:miter;stroke-width:0.8;"/>
   </g>
   <g id="patch_4">
    <path d="M 228.096 148.032 
L 228.096 18.504 
" style="fill:none;stroke:#000000;stroke-linecap:square;stroke-linejoin:miter;stroke-width:0.8;"/>
   </g>
   <g id="patch_5">
    <path d="M 50.688 148.032 
L 228.096 148.032 
" style="fill:none;stroke:#000000;stroke-linecap:square;stroke-linejoin:miter;stroke-width:0.8;"/>
   </g>
   <g id="patch_6">
    <path d="M 50.688 18.504 
L 228.096 18.504 
" style="fill:none;stroke:#000000;stroke-linecap:square;stroke-linejoin:miter;stroke-width:0.8;"/>
   </g>
   <g id="line2d_10">
    <path clip-path="url(#pdc82ba5ffd)" d="M 58.752 142.144364 
L 60.768 142.144364 
L 62.784 142.144364 
L 78.912 142.001771 
L 99.072 141.914066 
L 139.392 142.063369 
L 179.712 142.144364 
L 220.032 142.125494 
" style="fill:none;stroke:#6ef1c9;stroke-linecap:square;stroke-width:1.5;"/>
    <defs>
     <path d="M 0 2.5 
C 0.663008 2.5 1.29895 2.236584 1.767767 1.767767 
C 2.236584 1.29895 2.5 0.663008 2.5 0 
C 2.5 -0.663008 2.236584 -1.29895 1.767767 -1.767767 
C 1.29895 -2.236584 0.663008 -2.5 0 -2.5 
C -0.663008 -2.5 -1.29895 -2.236584 -1.767767 -1.767767 
C -2.236584 -1.29895 -2.5 -0.663008 -2.5 0 
C -2.5 0.663008 -2.236584 1.29895 -1.767767 1.767767 
C -1.29895 2.236584 -0.663008 2.5 0 2.5 
z
" id="m04a81fb19a" style="stroke:#6ef1c9;"/>
    </defs>
    <g clip-path="url(#pdc82ba5ffd)">
     <use style="fill:#6ef1c9;stroke:#6ef1c9;" x="58.752" xlink:href="#m04a81fb19a" y="142.144364"/>
     <use style="fill:#6ef1c9;stroke:#6ef1c9;" x="60.768" xlink:href="#m04a81fb19a" y="142.144364"/>
     <use style="fill:#6ef1c9;stroke:#6ef1c9;" x="62.784" xlink:href="#m04a81fb19a" y="142.144364"/>
     <use style="fill:#6ef1c9;stroke:#6ef1c9;" x="78.912" xlink:href="#m04a81fb19a" y="142.001771"/>
     <use style="fill:#6ef1c9;stroke:#6ef1c9;" x="99.072" xlink:href="#m04a81fb19a" y="141.914066"/>
     <use style="fill:#6ef1c9;stroke:#6ef1c9;" x="139.392" xlink:href="#m04a81fb19a" y="142.063369"/>
     <use style="fill:#6ef1c9;stroke:#6ef1c9;" x="179.712" xlink:href="#m04a81fb19a" y="142.144364"/>
     <use style="fill:#6ef1c9;stroke:#6ef1c9;" x="220.032" xlink:href="#m04a81fb19a" y="142.125494"/>
    </g>
   </g>
   <g id="line2d_11">
    <path clip-path="url(#pdc82ba5ffd)" d="M 58.752 142.144364 
L 60.768 142.144364 
L 62.784 142.144364 
L 78.912 142.025495 
L 99.072 132.029252 
L 139.392 124.89518 
L 179.712 118.658218 
L 220.032 115.103679 
" style="fill:none;stroke:#6ef1c9;stroke-linecap:square;stroke-width:1.5;"/>
    <g clip-path="url(#pdc82ba5ffd)">
     <use style="fill:#6ef1c9;stroke:#6ef1c9;" x="58.752" xlink:href="#m04a81fb19a" y="142.144364"/>
     <use style="fill:#6ef1c9;stroke:#6ef1c9;" x="60.768" xlink:href="#m04a81fb19a" y="142.144364"/>
     <use style="fill:#6ef1c9;stroke:#6ef1c9;" x="62.784" xlink:href="#m04a81fb19a" y="142.144364"/>
     <use style="fill:#6ef1c9;stroke:#6ef1c9;" x="78.912" xlink:href="#m04a81fb19a" y="142.025495"/>
     <use style="fill:#6ef1c9;stroke:#6ef1c9;" x="99.072" xlink:href="#m04a81fb19a" y="132.029252"/>
     <use style="fill:#6ef1c9;stroke:#6ef1c9;" x="139.392" xlink:href="#m04a81fb19a" y="124.89518"/>
     <use style="fill:#6ef1c9;stroke:#6ef1c9;" x="179.712" xlink:href="#m04a81fb19a" y="118.658218"/>
     <use style="fill:#6ef1c9;stroke:#6ef1c9;" x="220.032" xlink:href="#m04a81fb19a" y="115.103679"/>
    </g>
   </g>
   <g id="line2d_12">
    <path clip-path="url(#pdc82ba5ffd)" d="M 58.752 142.012882 
L 60.768 142.144364 
L 62.784 142.144364 
L 78.912 141.584216 
L 99.072 126.976095 
L 139.392 122.043233 
L 179.712 118.635588 
L 220.032 118.390335 
" style="fill:none;stroke:#6ef1c9;stroke-linecap:square;stroke-width:1.5;"/>
    <g clip-path="url(#pdc82ba5ffd)">
     <use style="fill:#6ef1c9;stroke:#6ef1c9;" x="58.752" xlink:href="#m04a81fb19a" y="142.012882"/>
     <use style="fill:#6ef1c9;stroke:#6ef1c9;" x="60.768" xlink:href="#m04a81fb19a" y="142.144364"/>
     <use style="fill:#6ef1c9;stroke:#6ef1c9;" x="62.784" xlink:href="#m04a81fb19a" y="142.144364"/>
     <use style="fill:#6ef1c9;stroke:#6ef1c9;" x="78.912" xlink:href="#m04a81fb19a" y="141.584216"/>
     <use style="fill:#6ef1c9;stroke:#6ef1c9;" x="99.072" xlink:href="#m04a81fb19a" y="126.976095"/>
     <use style="fill:#6ef1c9;stroke:#6ef1c9;" x="139.392" xlink:href="#m04a81fb19a" y="122.043233"/>
     <use style="fill:#6ef1c9;stroke:#6ef1c9;" x="179.712" xlink:href="#m04a81fb19a" y="118.635588"/>
     <use style="fill:#6ef1c9;stroke:#6ef1c9;" x="220.032" xlink:href="#m04a81fb19a" y="118.390335"/>
    </g>
   </g>
   <g id="line2d_13">
    <path clip-path="url(#pdc82ba5ffd)" d="M 58.752 124.952225 
L 60.768 120.096784 
L 62.784 123.578455 
L 78.912 131.024713 
L 99.072 140.971589 
L 139.392 140.060139 
L 179.712 139.844852 
L 220.032 139.543629 
" style="fill:none;stroke:#689285;stroke-linecap:square;stroke-width:1.5;"/>
    <defs>
     <path d="M 0 2.5 
C 0.663008 2.5 1.29895 2.236584 1.767767 1.767767 
C 2.236584 1.29895 2.5 0.663008 2.5 0 
C 2.5 -0.663008 2.236584 -1.29895 1.767767 -1.767767 
C 1.29895 -2.236584 0.663008 -2.5 0 -2.5 
C -0.663008 -2.5 -1.29895 -2.236584 -1.767767 -1.767767 
C -2.236584 -1.29895 -2.5 -0.663008 -2.5 0 
C -2.5 0.663008 -2.236584 1.29895 -1.767767 1.767767 
C -1.29895 2.236584 -0.663008 2.5 0 2.5 
z
" id="mea7a523f74" style="stroke:#689285;"/>
    </defs>
    <g clip-path="url(#pdc82ba5ffd)">
     <use style="fill:#689285;stroke:#689285;" x="58.752" xlink:href="#mea7a523f74" y="124.952225"/>
     <use style="fill:#689285;stroke:#689285;" x="60.768" xlink:href="#mea7a523f74" y="120.096784"/>
     <use style="fill:#689285;stroke:#689285;" x="62.784" xlink:href="#mea7a523f74" y="123.578455"/>
     <use style="fill:#689285;stroke:#689285;" x="78.912" xlink:href="#mea7a523f74" y="131.024713"/>
     <use style="fill:#689285;stroke:#689285;" x="99.072" xlink:href="#mea7a523f74" y="140.971589"/>
     <use style="fill:#689285;stroke:#689285;" x="139.392" xlink:href="#mea7a523f74" y="140.060139"/>
     <use style="fill:#689285;stroke:#689285;" x="179.712" xlink:href="#mea7a523f74" y="139.844852"/>
     <use style="fill:#689285;stroke:#689285;" x="220.032" xlink:href="#mea7a523f74" y="139.543629"/>
    </g>
   </g>
   <g id="line2d_14">
    <path clip-path="url(#pdc82ba5ffd)" d="M 58.752 142.144364 
L 60.768 142.144364 
L 62.784 142.144364 
L 78.912 142.144364 
L 99.072 124.258525 
L 139.392 117.19484 
L 179.712 112.130391 
L 220.032 110.439643 
" style="fill:none;stroke:#428317;stroke-linecap:square;stroke-width:1.5;"/>
    <defs>
     <path d="M 0 2.5 
C 0.663008 2.5 1.29895 2.236584 1.767767 1.767767 
C 2.236584 1.29895 2.5 0.663008 2.5 0 
C 2.5 -0.663008 2.236584 -1.29895 1.767767 -1.767767 
C 1.29895 -2.236584 0.663008 -2.5 0 -2.5 
C -0.663008 -2.5 -1.29895 -2.236584 -1.767767 -1.767767 
C -2.236584 -1.29895 -2.5 -0.663008 -2.5 0 
C -2.5 0.663008 -2.236584 1.29895 -1.767767 1.767767 
C -1.29895 2.236584 -0.663008 2.5 0 2.5 
z
" id="m203c6ddebc" style="stroke:#428317;"/>
    </defs>
    <g clip-path="url(#pdc82ba5ffd)">
     <use style="fill:#428317;stroke:#428317;" x="58.752" xlink:href="#m203c6ddebc" y="142.144364"/>
     <use style="fill:#428317;stroke:#428317;" x="60.768" xlink:href="#m203c6ddebc" y="142.144364"/>
     <use style="fill:#428317;stroke:#428317;" x="62.784" xlink:href="#m203c6ddebc" y="142.144364"/>
     <use style="fill:#428317;stroke:#428317;" x="78.912" xlink:href="#m203c6ddebc" y="142.144364"/>
     <use style="fill:#428317;stroke:#428317;" x="99.072" xlink:href="#m203c6ddebc" y="124.258525"/>
     <use style="fill:#428317;stroke:#428317;" x="139.392" xlink:href="#m203c6ddebc" y="117.19484"/>
     <use style="fill:#428317;stroke:#428317;" x="179.712" xlink:href="#m203c6ddebc" y="112.130391"/>
     <use style="fill:#428317;stroke:#428317;" x="220.032" xlink:href="#m203c6ddebc" y="110.439643"/>
    </g>
   </g>
   <g id="line2d_15">
    <path clip-path="url(#pdc82ba5ffd)" d="M 58.752 119.205761 
L 60.768 110.860097 
L 62.784 115.795485 
L 78.912 126.350591 
L 99.072 138.882327 
L 139.392 137.753872 
L 179.712 137.964277 
L 220.032 137.395132 
" style="fill:none;stroke:#428317;stroke-linecap:square;stroke-width:1.5;"/>
    <g clip-path="url(#pdc82ba5ffd)">
     <use style="fill:#428317;stroke:#428317;" x="58.752" xlink:href="#m203c6ddebc" y="119.205761"/>
     <use style="fill:#428317;stroke:#428317;" x="60.768" xlink:href="#m203c6ddebc" y="110.860097"/>
     <use style="fill:#428317;stroke:#428317;" x="62.784" xlink:href="#m203c6ddebc" y="115.795485"/>
     <use style="fill:#428317;stroke:#428317;" x="78.912" xlink:href="#m203c6ddebc" y="126.350591"/>
     <use style="fill:#428317;stroke:#428317;" x="99.072" xlink:href="#m203c6ddebc" y="138.882327"/>
     <use style="fill:#428317;stroke:#428317;" x="139.392" xlink:href="#m203c6ddebc" y="137.753872"/>
     <use style="fill:#428317;stroke:#428317;" x="179.712" xlink:href="#m203c6ddebc" y="137.964277"/>
     <use style="fill:#428317;stroke:#428317;" x="220.032" xlink:href="#m203c6ddebc" y="137.395132"/>
    </g>
   </g>
   <g id="line2d_16">
    <path clip-path="url(#pdc82ba5ffd)" d="M 58.752 142.144364 
L 60.768 142.144364 
L 62.784 142.144364 
L 78.912 142.144364 
L 99.072 142.001872 
L 139.392 141.807483 
L 179.712 141.555987 
L 220.032 141.338601 
" style="fill:none;stroke:#106832;stroke-linecap:square;stroke-width:1.5;"/>
    <defs>
     <path d="M 0 2.5 
C 0.663008 2.5 1.29895 2.236584 1.767767 1.767767 
C 2.236584 1.29895 2.5 0.663008 2.5 0 
C 2.5 -0.663008 2.236584 -1.29895 1.767767 -1.767767 
C 1.29895 -2.236584 0.663008 -2.5 0 -2.5 
C -0.663008 -2.5 -1.29895 -2.236584 -1.767767 -1.767767 
C -2.236584 -1.29895 -2.5 -0.663008 -2.5 0 
C -2.5 0.663008 -2.236584 1.29895 -1.767767 1.767767 
C -1.29895 2.236584 -0.663008 2.5 0 2.5 
z
" id="m06fd21f823" style="stroke:#106832;"/>
    </defs>
    <g clip-path="url(#pdc82ba5ffd)">
     <use style="fill:#106832;stroke:#106832;" x="58.752" xlink:href="#m06fd21f823" y="142.144364"/>
     <use style="fill:#106832;stroke:#106832;" x="60.768" xlink:href="#m06fd21f823" y="142.144364"/>
     <use style="fill:#106832;stroke:#106832;" x="62.784" xlink:href="#m06fd21f823" y="142.144364"/>
     <use style="fill:#106832;stroke:#106832;" x="78.912" xlink:href="#m06fd21f823" y="142.144364"/>
     <use style="fill:#106832;stroke:#106832;" x="99.072" xlink:href="#m06fd21f823" y="142.001872"/>
     <use style="fill:#106832;stroke:#106832;" x="139.392" xlink:href="#m06fd21f823" y="141.807483"/>
     <use style="fill:#106832;stroke:#106832;" x="179.712" xlink:href="#m06fd21f823" y="141.555987"/>
     <use style="fill:#106832;stroke:#106832;" x="220.032" xlink:href="#m06fd21f823" y="141.338601"/>
    </g>
   </g>
   <g id="line2d_17">
    <path clip-path="url(#pdc82ba5ffd)" d="M 58.752 142.086087 
L 60.768 142.144364 
L 62.784 142.144364 
L 78.912 142.144364 
L 99.072 140.971042 
L 139.392 139.945128 
L 179.712 138.51366 
L 220.032 136.723012 
" style="fill:none;stroke:#51a778;stroke-linecap:square;stroke-width:1.5;"/>
    <defs>
     <path d="M 0 2.5 
C 0.663008 2.5 1.29895 2.236584 1.767767 1.767767 
C 2.236584 1.29895 2.5 0.663008 2.5 0 
C 2.5 -0.663008 2.236584 -1.29895 1.767767 -1.767767 
C 1.29895 -2.236584 0.663008 -2.5 0 -2.5 
C -0.663008 -2.5 -1.29895 -2.236584 -1.767767 -1.767767 
C -2.236584 -1.29895 -2.5 -0.663008 -2.5 0 
C -2.5 0.663008 -2.236584 1.29895 -1.767767 1.767767 
C -1.29895 2.236584 -0.663008 2.5 0 2.5 
z
" id="m58d88face3" style="stroke:#51a778;"/>
    </defs>
    <g clip-path="url(#pdc82ba5ffd)">
     <use style="fill:#51a778;stroke:#51a778;" x="58.752" xlink:href="#m58d88face3" y="142.086087"/>
     <use style="fill:#51a778;stroke:#51a778;" x="60.768" xlink:href="#m58d88face3" y="142.144364"/>
     <use style="fill:#51a778;stroke:#51a778;" x="62.784" xlink:href="#m58d88face3" y="142.144364"/>
     <use style="fill:#51a778;stroke:#51a778;" x="78.912" xlink:href="#m58d88face3" y="142.144364"/>
     <use style="fill:#51a778;stroke:#51a778;" x="99.072" xlink:href="#m58d88face3" y="140.971042"/>
     <use style="fill:#51a778;stroke:#51a778;" x="139.392" xlink:href="#m58d88face3" y="139.945128"/>
     <use style="fill:#51a778;stroke:#51a778;" x="179.712" xlink:href="#m58d88face3" y="138.51366"/>
     <use style="fill:#51a778;stroke:#51a778;" x="220.032" xlink:href="#m58d88face3" y="136.723012"/>
    </g>
   </g>
   <g id="line2d_18">
    <path clip-path="url(#pdc82ba5ffd)" d="M 58.752 142.144364 
L 60.768 142.144364 
L 62.784 142.144364 
L 78.912 142.138166 
L 99.072 142.144364 
L 139.392 142.144364 
L 179.712 142.144364 
L 220.032 142.144364 
" style="fill:none;stroke:#0ec460;stroke-linecap:square;stroke-width:1.5;"/>
    <defs>
     <path d="M 0 2.5 
C 0.663008 2.5 1.29895 2.236584 1.767767 1.767767 
C 2.236584 1.29895 2.5 0.663008 2.5 0 
C 2.5 -0.663008 2.236584 -1.29895 1.767767 -1.767767 
C 1.29895 -2.236584 0.663008 -2.5 0 -2.5 
C -0.663008 -2.5 -1.29895 -2.236584 -1.767767 -1.767767 
C -2.236584 -1.29895 -2.5 -0.663008 -2.5 0 
C -2.5 0.663008 -2.236584 1.29895 -1.767767 1.767767 
C -1.29895 2.236584 -0.663008 2.5 0 2.5 
z
" id="mf7a35654d7" style="stroke:#0ec460;"/>
    </defs>
    <g clip-path="url(#pdc82ba5ffd)">
     <use style="fill:#0ec460;stroke:#0ec460;" x="58.752" xlink:href="#mf7a35654d7" y="142.144364"/>
     <use style="fill:#0ec460;stroke:#0ec460;" x="60.768" xlink:href="#mf7a35654d7" y="142.144364"/>
     <use style="fill:#0ec460;stroke:#0ec460;" x="62.784" xlink:href="#mf7a35654d7" y="142.144364"/>
     <use style="fill:#0ec460;stroke:#0ec460;" x="78.912" xlink:href="#mf7a35654d7" y="142.138166"/>
     <use style="fill:#0ec460;stroke:#0ec460;" x="99.072" xlink:href="#mf7a35654d7" y="142.144364"/>
     <use style="fill:#0ec460;stroke:#0ec460;" x="139.392" xlink:href="#mf7a35654d7" y="142.144364"/>
     <use style="fill:#0ec460;stroke:#0ec460;" x="179.712" xlink:href="#mf7a35654d7" y="142.144364"/>
     <use style="fill:#0ec460;stroke:#0ec460;" x="220.032" xlink:href="#mf7a35654d7" y="142.144364"/>
    </g>
   </g>
   <g id="line2d_19">
    <path clip-path="url(#pdc82ba5ffd)" d="M 58.752 142.144364 
L 60.768 142.144364 
L 62.784 142.144364 
L 78.912 142.144364 
L 99.072 142.143772 
L 139.392 142.144364 
L 179.712 142.144364 
L 220.032 142.144364 
" style="fill:none;stroke:#a3604b;stroke-linecap:square;stroke-width:1.5;"/>
    <defs>
     <path d="M 0 2.5 
C 0.663008 2.5 1.29895 2.236584 1.767767 1.767767 
C 2.236584 1.29895 2.5 0.663008 2.5 0 
C 2.5 -0.663008 2.236584 -1.29895 1.767767 -1.767767 
C 1.29895 -2.236584 0.663008 -2.5 0 -2.5 
C -0.663008 -2.5 -1.29895 -2.236584 -1.767767 -1.767767 
C -2.236584 -1.29895 -2.5 -0.663008 -2.5 0 
C -2.5 0.663008 -2.236584 1.29895 -1.767767 1.767767 
C -1.29895 2.236584 -0.663008 2.5 0 2.5 
z
" id="m797505ef91" style="stroke:#a3604b;"/>
    </defs>
    <g clip-path="url(#pdc82ba5ffd)">
     <use style="fill:#a3604b;stroke:#a3604b;" x="58.752" xlink:href="#m797505ef91" y="142.144364"/>
     <use style="fill:#a3604b;stroke:#a3604b;" x="60.768" xlink:href="#m797505ef91" y="142.144364"/>
     <use style="fill:#a3604b;stroke:#a3604b;" x="62.784" xlink:href="#m797505ef91" y="142.144364"/>
     <use style="fill:#a3604b;stroke:#a3604b;" x="78.912" xlink:href="#m797505ef91" y="142.144364"/>
     <use style="fill:#a3604b;stroke:#a3604b;" x="99.072" xlink:href="#m797505ef91" y="142.143772"/>
     <use style="fill:#a3604b;stroke:#a3604b;" x="139.392" xlink:href="#m797505ef91" y="142.144364"/>
     <use style="fill:#a3604b;stroke:#a3604b;" x="179.712" xlink:href="#m797505ef91" y="142.144364"/>
     <use style="fill:#a3604b;stroke:#a3604b;" x="220.032" xlink:href="#m797505ef91" y="142.144364"/>
    </g>
   </g>
   <g id="line2d_20">
    <path clip-path="url(#pdc82ba5ffd)" d="M 58.752 142.144364 
L 60.768 142.144364 
L 62.784 142.144364 
L 78.912 142.144364 
L 99.072 139.834197 
L 139.392 139.686672 
L 179.712 140.117493 
L 220.032 140.121529 
" style="fill:none;stroke:#a3604b;stroke-linecap:square;stroke-width:1.5;"/>
    <g clip-path="url(#pdc82ba5ffd)">
     <use style="fill:#a3604b;stroke:#a3604b;" x="58.752" xlink:href="#m797505ef91" y="142.144364"/>
     <use style="fill:#a3604b;stroke:#a3604b;" x="60.768" xlink:href="#m797505ef91" y="142.144364"/>
     <use style="fill:#a3604b;stroke:#a3604b;" x="62.784" xlink:href="#m797505ef91" y="142.144364"/>
     <use style="fill:#a3604b;stroke:#a3604b;" x="78.912" xlink:href="#m797505ef91" y="142.144364"/>
     <use style="fill:#a3604b;stroke:#a3604b;" x="99.072" xlink:href="#m797505ef91" y="139.834197"/>
     <use style="fill:#a3604b;stroke:#a3604b;" x="139.392" xlink:href="#m797505ef91" y="139.686672"/>
     <use style="fill:#a3604b;stroke:#a3604b;" x="179.712" xlink:href="#m797505ef91" y="140.117493"/>
     <use style="fill:#a3604b;stroke:#a3604b;" x="220.032" xlink:href="#m797505ef91" y="140.121529"/>
    </g>
   </g>
   <g id="line2d_21">
    <path clip-path="url(#pdc82ba5ffd)" d="M 58.752 142.144364 
L 60.768 142.144364 
L 62.784 142.143387 
L 78.912 142.144364 
L 99.072 138.952902 
L 139.392 139.647655 
L 179.712 139.021347 
L 220.032 138.223967 
" style="fill:none;stroke:#a3604b;stroke-linecap:square;stroke-width:1.5;"/>
    <g clip-path="url(#pdc82ba5ffd)">
     <use style="fill:#a3604b;stroke:#a3604b;" x="58.752" xlink:href="#m797505ef91" y="142.144364"/>
     <use style="fill:#a3604b;stroke:#a3604b;" x="60.768" xlink:href="#m797505ef91" y="142.144364"/>
     <use style="fill:#a3604b;stroke:#a3604b;" x="62.784" xlink:href="#m797505ef91" y="142.143387"/>
     <use style="fill:#a3604b;stroke:#a3604b;" x="78.912" xlink:href="#m797505ef91" y="142.144364"/>
     <use style="fill:#a3604b;stroke:#a3604b;" x="99.072" xlink:href="#m797505ef91" y="138.952902"/>
     <use style="fill:#a3604b;stroke:#a3604b;" x="139.392" xlink:href="#m797505ef91" y="139.647655"/>
     <use style="fill:#a3604b;stroke:#a3604b;" x="179.712" xlink:href="#m797505ef91" y="139.021347"/>
     <use style="fill:#a3604b;stroke:#a3604b;" x="220.032" xlink:href="#m797505ef91" y="138.223967"/>
    </g>
   </g>
   <g id="line2d_22">
    <path clip-path="url(#pdc82ba5ffd)" d="M 58.752 142.144364 
L 60.768 142.14143 
L 62.784 141.578689 
L 78.912 132.939924 
L 99.072 130.79212 
L 139.392 128.996648 
L 179.712 127.595018 
L 220.032 126.228542 
" style="fill:none;stroke:#f53f06;stroke-linecap:square;stroke-width:1.5;"/>
    <defs>
     <path d="M 0 2.5 
C 0.663008 2.5 1.29895 2.236584 1.767767 1.767767 
C 2.236584 1.29895 2.5 0.663008 2.5 0 
C 2.5 -0.663008 2.236584 -1.29895 1.767767 -1.767767 
C 1.29895 -2.236584 0.663008 -2.5 0 -2.5 
C -0.663008 -2.5 -1.29895 -2.236584 -1.767767 -1.767767 
C -2.236584 -1.29895 -2.5 -0.663008 -2.5 0 
C -2.5 0.663008 -2.236584 1.29895 -1.767767 1.767767 
C -1.29895 2.236584 -0.663008 2.5 0 2.5 
z
" id="m117840df30" style="stroke:#f53f06;"/>
    </defs>
    <g clip-path="url(#pdc82ba5ffd)">
     <use style="fill:#f53f06;stroke:#f53f06;" x="58.752" xlink:href="#m117840df30" y="142.144364"/>
     <use style="fill:#f53f06;stroke:#f53f06;" x="60.768" xlink:href="#m117840df30" y="142.14143"/>
     <use style="fill:#f53f06;stroke:#f53f06;" x="62.784" xlink:href="#m117840df30" y="141.578689"/>
     <use style="fill:#f53f06;stroke:#f53f06;" x="78.912" xlink:href="#m117840df30" y="132.939924"/>
     <use style="fill:#f53f06;stroke:#f53f06;" x="99.072" xlink:href="#m117840df30" y="130.79212"/>
     <use style="fill:#f53f06;stroke:#f53f06;" x="139.392" xlink:href="#m117840df30" y="128.996648"/>
     <use style="fill:#f53f06;stroke:#f53f06;" x="179.712" xlink:href="#m117840df30" y="127.595018"/>
     <use style="fill:#f53f06;stroke:#f53f06;" x="220.032" xlink:href="#m117840df30" y="126.228542"/>
    </g>
   </g>
   <g id="line2d_23">
    <path clip-path="url(#pdc82ba5ffd)" d="M 58.752 142.144364 
L 60.768 142.144364 
L 62.784 142.077683 
L 78.912 137.709779 
L 99.072 118.418115 
L 139.392 118.899768 
L 179.712 119.418415 
L 220.032 119.148857 
" style="fill:none;stroke:#771124;stroke-linecap:square;stroke-width:1.5;"/>
    <defs>
     <path d="M 0 2.5 
C 0.663008 2.5 1.29895 2.236584 1.767767 1.767767 
C 2.236584 1.29895 2.5 0.663008 2.5 0 
C 2.5 -0.663008 2.236584 -1.29895 1.767767 -1.767767 
C 1.29895 -2.236584 0.663008 -2.5 0 -2.5 
C -0.663008 -2.5 -1.29895 -2.236584 -1.767767 -1.767767 
C -2.236584 -1.29895 -2.5 -0.663008 -2.5 0 
C -2.5 0.663008 -2.236584 1.29895 -1.767767 1.767767 
C -1.29895 2.236584 -0.663008 2.5 0 2.5 
z
" id="me51f1d1b58" style="stroke:#771124;"/>
    </defs>
    <g clip-path="url(#pdc82ba5ffd)">
     <use style="fill:#771124;stroke:#771124;" x="58.752" xlink:href="#me51f1d1b58" y="142.144364"/>
     <use style="fill:#771124;stroke:#771124;" x="60.768" xlink:href="#me51f1d1b58" y="142.144364"/>
     <use style="fill:#771124;stroke:#771124;" x="62.784" xlink:href="#me51f1d1b58" y="142.077683"/>
     <use style="fill:#771124;stroke:#771124;" x="78.912" xlink:href="#me51f1d1b58" y="137.709779"/>
     <use style="fill:#771124;stroke:#771124;" x="99.072" xlink:href="#me51f1d1b58" y="118.418115"/>
     <use style="fill:#771124;stroke:#771124;" x="139.392" xlink:href="#me51f1d1b58" y="118.899768"/>
     <use style="fill:#771124;stroke:#771124;" x="179.712" xlink:href="#me51f1d1b58" y="119.418415"/>
     <use style="fill:#771124;stroke:#771124;" x="220.032" xlink:href="#me51f1d1b58" y="119.148857"/>
    </g>
   </g>
   <g id="line2d_24">
    <path clip-path="url(#pdc82ba5ffd)" d="M 58.752 142.144364 
L 60.768 142.144364 
L 62.784 142.144364 
L 78.912 141.562248 
L 99.072 142.144364 
L 139.392 142.144364 
L 179.712 142.144364 
L 220.032 142.144364 
" style="fill:none;stroke:#aa4457;stroke-linecap:square;stroke-width:1.5;"/>
    <defs>
     <path d="M 0 2.5 
C 0.663008 2.5 1.29895 2.236584 1.767767 1.767767 
C 2.236584 1.29895 2.5 0.663008 2.5 0 
C 2.5 -0.663008 2.236584 -1.29895 1.767767 -1.767767 
C 1.29895 -2.236584 0.663008 -2.5 0 -2.5 
C -0.663008 -2.5 -1.29895 -2.236584 -1.767767 -1.767767 
C -2.236584 -1.29895 -2.5 -0.663008 -2.5 0 
C -2.5 0.663008 -2.236584 1.29895 -1.767767 1.767767 
C -1.29895 2.236584 -0.663008 2.5 0 2.5 
z
" id="ma779390a58" style="stroke:#aa4457;"/>
    </defs>
    <g clip-path="url(#pdc82ba5ffd)">
     <use style="fill:#aa4457;stroke:#aa4457;" x="58.752" xlink:href="#ma779390a58" y="142.144364"/>
     <use style="fill:#aa4457;stroke:#aa4457;" x="60.768" xlink:href="#ma779390a58" y="142.144364"/>
     <use style="fill:#aa4457;stroke:#aa4457;" x="62.784" xlink:href="#ma779390a58" y="142.144364"/>
     <use style="fill:#aa4457;stroke:#aa4457;" x="78.912" xlink:href="#ma779390a58" y="141.562248"/>
     <use style="fill:#aa4457;stroke:#aa4457;" x="99.072" xlink:href="#ma779390a58" y="142.144364"/>
     <use style="fill:#aa4457;stroke:#aa4457;" x="139.392" xlink:href="#ma779390a58" y="142.144364"/>
     <use style="fill:#aa4457;stroke:#aa4457;" x="179.712" xlink:href="#ma779390a58" y="142.144364"/>
     <use style="fill:#aa4457;stroke:#aa4457;" x="220.032" xlink:href="#ma779390a58" y="142.144364"/>
    </g>
   </g>
   <g id="line2d_25">
    <path clip-path="url(#pdc82ba5ffd)" d="M 58.752 142.144364 
L 60.768 139.51782 
L 62.784 135.460276 
L 78.912 118.532162 
L 99.072 122.735675 
L 139.392 120.768626 
L 179.712 120.012231 
L 220.032 118.981368 
" style="fill:none;stroke:#eeb29f;stroke-linecap:square;stroke-width:1.5;"/>
    <defs>
     <path d="M 0 2.5 
C 0.663008 2.5 1.29895 2.236584 1.767767 1.767767 
C 2.236584 1.29895 2.5 0.663008 2.5 0 
C 2.5 -0.663008 2.236584 -1.29895 1.767767 -1.767767 
C 1.29895 -2.236584 0.663008 -2.5 0 -2.5 
C -0.663008 -2.5 -1.29895 -2.236584 -1.767767 -1.767767 
C -2.236584 -1.29895 -2.5 -0.663008 -2.5 0 
C -2.5 0.663008 -2.236584 1.29895 -1.767767 1.767767 
C -1.29895 2.236584 -0.663008 2.5 0 2.5 
z
" id="mbf91784111" style="stroke:#eeb29f;"/>
    </defs>
    <g clip-path="url(#pdc82ba5ffd)">
     <use style="fill:#eeb29f;stroke:#eeb29f;" x="58.752" xlink:href="#mbf91784111" y="142.144364"/>
     <use style="fill:#eeb29f;stroke:#eeb29f;" x="60.768" xlink:href="#mbf91784111" y="139.51782"/>
     <use style="fill:#eeb29f;stroke:#eeb29f;" x="62.784" xlink:href="#mbf91784111" y="135.460276"/>
     <use style="fill:#eeb29f;stroke:#eeb29f;" x="78.912" xlink:href="#mbf91784111" y="118.532162"/>
     <use style="fill:#eeb29f;stroke:#eeb29f;" x="99.072" xlink:href="#mbf91784111" y="122.735675"/>
     <use style="fill:#eeb29f;stroke:#eeb29f;" x="139.392" xlink:href="#mbf91784111" y="120.768626"/>
     <use style="fill:#eeb29f;stroke:#eeb29f;" x="179.712" xlink:href="#mbf91784111" y="120.012231"/>
     <use style="fill:#eeb29f;stroke:#eeb29f;" x="220.032" xlink:href="#mbf91784111" y="118.981368"/>
    </g>
   </g>
   <g id="line2d_26">
    <path clip-path="url(#pdc82ba5ffd)" d="M 58.752 142.144364 
L 60.768 142.144364 
L 62.784 142.142923 
L 78.912 139.719731 
L 99.072 142.144364 
L 139.392 142.144364 
L 179.712 142.144364 
L 220.032 142.144364 
" style="fill:none;stroke:#cd0d3c;stroke-linecap:square;stroke-width:1.5;"/>
    <defs>
     <path d="M 0 2.5 
C 0.663008 2.5 1.29895 2.236584 1.767767 1.767767 
C 2.236584 1.29895 2.5 0.663008 2.5 0 
C 2.5 -0.663008 2.236584 -1.29895 1.767767 -1.767767 
C 1.29895 -2.236584 0.663008 -2.5 0 -2.5 
C -0.663008 -2.5 -1.29895 -2.236584 -1.767767 -1.767767 
C -2.236584 -1.29895 -2.5 -0.663008 -2.5 0 
C -2.5 0.663008 -2.236584 1.29895 -1.767767 1.767767 
C -1.29895 2.236584 -0.663008 2.5 0 2.5 
z
" id="mc7dad65649" style="stroke:#cd0d3c;"/>
    </defs>
    <g clip-path="url(#pdc82ba5ffd)">
     <use style="fill:#cd0d3c;stroke:#cd0d3c;" x="58.752" xlink:href="#mc7dad65649" y="142.144364"/>
     <use style="fill:#cd0d3c;stroke:#cd0d3c;" x="60.768" xlink:href="#mc7dad65649" y="142.144364"/>
     <use style="fill:#cd0d3c;stroke:#cd0d3c;" x="62.784" xlink:href="#mc7dad65649" y="142.142923"/>
     <use style="fill:#cd0d3c;stroke:#cd0d3c;" x="78.912" xlink:href="#mc7dad65649" y="139.719731"/>
     <use style="fill:#cd0d3c;stroke:#cd0d3c;" x="99.072" xlink:href="#mc7dad65649" y="142.144364"/>
     <use style="fill:#cd0d3c;stroke:#cd0d3c;" x="139.392" xlink:href="#mc7dad65649" y="142.144364"/>
     <use style="fill:#cd0d3c;stroke:#cd0d3c;" x="179.712" xlink:href="#mc7dad65649" y="142.144364"/>
     <use style="fill:#cd0d3c;stroke:#cd0d3c;" x="220.032" xlink:href="#mc7dad65649" y="142.144364"/>
    </g>
   </g>
   <g id="line2d_27">
    <path clip-path="url(#pdc82ba5ffd)" d="M 58.752 142.144364 
L 60.768 142.144364 
L 62.784 142.144364 
L 78.912 142.144364 
L 99.072 142.133015 
L 139.392 142.108232 
L 179.712 142.113831 
L 220.032 142.112226 
" style="fill:none;stroke:#d0d1df;stroke-linecap:square;stroke-width:1.5;"/>
    <defs>
     <path d="M 0 2.5 
C 0.663008 2.5 1.29895 2.236584 1.767767 1.767767 
C 2.236584 1.29895 2.5 0.663008 2.5 0 
C 2.5 -0.663008 2.236584 -1.29895 1.767767 -1.767767 
C 1.29895 -2.236584 0.663008 -2.5 0 -2.5 
C -0.663008 -2.5 -1.29895 -2.236584 -1.767767 -1.767767 
C -2.236584 -1.29895 -2.5 -0.663008 -2.5 0 
C -2.5 0.663008 -2.236584 1.29895 -1.767767 1.767767 
C -1.29895 2.236584 -0.663008 2.5 0 2.5 
z
" id="m38c94773a1" style="stroke:#d0d1df;"/>
    </defs>
    <g clip-path="url(#pdc82ba5ffd)">
     <use style="fill:#d0d1df;stroke:#d0d1df;" x="58.752" xlink:href="#m38c94773a1" y="142.144364"/>
     <use style="fill:#d0d1df;stroke:#d0d1df;" x="60.768" xlink:href="#m38c94773a1" y="142.144364"/>
     <use style="fill:#d0d1df;stroke:#d0d1df;" x="62.784" xlink:href="#m38c94773a1" y="142.144364"/>
     <use style="fill:#d0d1df;stroke:#d0d1df;" x="78.912" xlink:href="#m38c94773a1" y="142.144364"/>
     <use style="fill:#d0d1df;stroke:#d0d1df;" x="99.072" xlink:href="#m38c94773a1" y="142.133015"/>
     <use style="fill:#d0d1df;stroke:#d0d1df;" x="139.392" xlink:href="#m38c94773a1" y="142.108232"/>
     <use style="fill:#d0d1df;stroke:#d0d1df;" x="179.712" xlink:href="#m38c94773a1" y="142.113831"/>
     <use style="fill:#d0d1df;stroke:#d0d1df;" x="220.032" xlink:href="#m38c94773a1" y="142.112226"/>
    </g>
   </g>
   <g id="line2d_28">
    <path clip-path="url(#pdc82ba5ffd)" d="M 58.752 142.144364 
L 60.768 142.035675 
L 62.784 142.117134 
L 78.912 141.482359 
L 99.072 139.2796 
L 139.392 139.241311 
L 179.712 139.06588 
L 220.032 138.858886 
" style="fill:none;stroke:#e0e3e1;stroke-linecap:square;stroke-width:1.5;"/>
    <defs>
     <path d="M 0 2.5 
C 0.663008 2.5 1.29895 2.236584 1.767767 1.767767 
C 2.236584 1.29895 2.5 0.663008 2.5 0 
C 2.5 -0.663008 2.236584 -1.29895 1.767767 -1.767767 
C 1.29895 -2.236584 0.663008 -2.5 0 -2.5 
C -0.663008 -2.5 -1.29895 -2.236584 -1.767767 -1.767767 
C -2.236584 -1.29895 -2.5 -0.663008 -2.5 0 
C -2.5 0.663008 -2.236584 1.29895 -1.767767 1.767767 
C -1.29895 2.236584 -0.663008 2.5 0 2.5 
z
" id="md7c13dd316" style="stroke:#e0e3e1;"/>
    </defs>
    <g clip-path="url(#pdc82ba5ffd)">
     <use style="fill:#e0e3e1;stroke:#e0e3e1;" x="58.752" xlink:href="#md7c13dd316" y="142.144364"/>
     <use style="fill:#e0e3e1;stroke:#e0e3e1;" x="60.768" xlink:href="#md7c13dd316" y="142.035675"/>
     <use style="fill:#e0e3e1;stroke:#e0e3e1;" x="62.784" xlink:href="#md7c13dd316" y="142.117134"/>
     <use style="fill:#e0e3e1;stroke:#e0e3e1;" x="78.912" xlink:href="#md7c13dd316" y="141.482359"/>
     <use style="fill:#e0e3e1;stroke:#e0e3e1;" x="99.072" xlink:href="#md7c13dd316" y="139.2796"/>
     <use style="fill:#e0e3e1;stroke:#e0e3e1;" x="139.392" xlink:href="#md7c13dd316" y="139.241311"/>
     <use style="fill:#e0e3e1;stroke:#e0e3e1;" x="179.712" xlink:href="#md7c13dd316" y="139.06588"/>
     <use style="fill:#e0e3e1;stroke:#e0e3e1;" x="220.032" xlink:href="#md7c13dd316" y="138.858886"/>
    </g>
   </g>
   <g id="line2d_29">
    <path clip-path="url(#pdc82ba5ffd)" d="M 58.752 142.144364 
L 60.768 139.184096 
L 62.784 138.433337 
L 78.912 135.818635 
L 99.072 139.01134 
L 139.392 138.724282 
L 179.712 138.876176 
L 220.032 138.358858 
" style="fill:none;stroke:#e0e3e1;stroke-linecap:square;stroke-width:1.5;"/>
    <g clip-path="url(#pdc82ba5ffd)">
     <use style="fill:#e0e3e1;stroke:#e0e3e1;" x="58.752" xlink:href="#md7c13dd316" y="142.144364"/>
     <use style="fill:#e0e3e1;stroke:#e0e3e1;" x="60.768" xlink:href="#md7c13dd316" y="139.184096"/>
     <use style="fill:#e0e3e1;stroke:#e0e3e1;" x="62.784" xlink:href="#md7c13dd316" y="138.433337"/>
     <use style="fill:#e0e3e1;stroke:#e0e3e1;" x="78.912" xlink:href="#md7c13dd316" y="135.818635"/>
     <use style="fill:#e0e3e1;stroke:#e0e3e1;" x="99.072" xlink:href="#md7c13dd316" y="139.01134"/>
     <use style="fill:#e0e3e1;stroke:#e0e3e1;" x="139.392" xlink:href="#md7c13dd316" y="138.724282"/>
     <use style="fill:#e0e3e1;stroke:#e0e3e1;" x="179.712" xlink:href="#md7c13dd316" y="138.876176"/>
     <use style="fill:#e0e3e1;stroke:#e0e3e1;" x="220.032" xlink:href="#md7c13dd316" y="138.358858"/>
    </g>
   </g>
   <g id="line2d_30">
    <path clip-path="url(#pdc82ba5ffd)" d="M 58.752 142.144364 
L 60.768 140.864144 
L 62.784 136.259902 
L 78.912 71.366277 
L 99.072 73.417723 
L 139.392 71.001772 
L 179.712 58.008675 
L 220.032 24.391636 
" style="fill:none;stroke:#44aaaa;stroke-linecap:square;stroke-width:1.5;"/>
    <defs>
     <path d="M 0 2.5 
C 0.663008 2.5 1.29895 2.236584 1.767767 1.767767 
C 2.236584 1.29895 2.5 0.663008 2.5 0 
C 2.5 -0.663008 2.236584 -1.29895 1.767767 -1.767767 
C 1.29895 -2.236584 0.663008 -2.5 0 -2.5 
C -0.663008 -2.5 -1.29895 -2.236584 -1.767767 -1.767767 
C -2.236584 -1.29895 -2.5 -0.663008 -2.5 0 
C -2.5 0.663008 -2.236584 1.29895 -1.767767 1.767767 
C -1.29895 2.236584 -0.663008 2.5 0 2.5 
z
" id="mcb4166f261" style="stroke:#44aaaa;"/>
    </defs>
    <g clip-path="url(#pdc82ba5ffd)">
     <use style="fill:#44aaaa;stroke:#44aaaa;" x="58.752" xlink:href="#mcb4166f261" y="142.144364"/>
     <use style="fill:#44aaaa;stroke:#44aaaa;" x="60.768" xlink:href="#mcb4166f261" y="140.864144"/>
     <use style="fill:#44aaaa;stroke:#44aaaa;" x="62.784" xlink:href="#mcb4166f261" y="136.259902"/>
     <use style="fill:#44aaaa;stroke:#44aaaa;" x="78.912" xlink:href="#mcb4166f261" y="71.366277"/>
     <use style="fill:#44aaaa;stroke:#44aaaa;" x="99.072" xlink:href="#mcb4166f261" y="73.417723"/>
     <use style="fill:#44aaaa;stroke:#44aaaa;" x="139.392" xlink:href="#mcb4166f261" y="71.001772"/>
     <use style="fill:#44aaaa;stroke:#44aaaa;" x="179.712" xlink:href="#mcb4166f261" y="58.008675"/>
     <use style="fill:#44aaaa;stroke:#44aaaa;" x="220.032" xlink:href="#mcb4166f261" y="24.391636"/>
    </g>
   </g>
   <g id="line2d_31">
    <path clip-path="url(#pdc82ba5ffd)" d="M 58.752 142.144364 
L 60.768 142.142803 
L 62.784 142.132462 
L 78.912 142.133754 
L 99.072 142.074851 
L 139.392 142.057788 
L 179.712 142.050406 
L 220.032 142.047002 
" style="fill:none;stroke:#77aadd;stroke-linecap:square;stroke-width:1.5;"/>
    <defs>
     <path d="M 0 2.5 
C 0.663008 2.5 1.29895 2.236584 1.767767 1.767767 
C 2.236584 1.29895 2.5 0.663008 2.5 0 
C 2.5 -0.663008 2.236584 -1.29895 1.767767 -1.767767 
C 1.29895 -2.236584 0.663008 -2.5 0 -2.5 
C -0.663008 -2.5 -1.29895 -2.236584 -1.767767 -1.767767 
C -2.236584 -1.29895 -2.5 -0.663008 -2.5 0 
C -2.5 0.663008 -2.236584 1.29895 -1.767767 1.767767 
C -1.29895 2.236584 -0.663008 2.5 0 2.5 
z
" id="m4391e11b43" style="stroke:#77aadd;"/>
    </defs>
    <g clip-path="url(#pdc82ba5ffd)">
     <use style="fill:#77aadd;stroke:#77aadd;" x="58.752" xlink:href="#m4391e11b43" y="142.144364"/>
     <use style="fill:#77aadd;stroke:#77aadd;" x="60.768" xlink:href="#m4391e11b43" y="142.142803"/>
     <use style="fill:#77aadd;stroke:#77aadd;" x="62.784" xlink:href="#m4391e11b43" y="142.132462"/>
     <use style="fill:#77aadd;stroke:#77aadd;" x="78.912" xlink:href="#m4391e11b43" y="142.133754"/>
     <use style="fill:#77aadd;stroke:#77aadd;" x="99.072" xlink:href="#m4391e11b43" y="142.074851"/>
     <use style="fill:#77aadd;stroke:#77aadd;" x="139.392" xlink:href="#m4391e11b43" y="142.057788"/>
     <use style="fill:#77aadd;stroke:#77aadd;" x="179.712" xlink:href="#m4391e11b43" y="142.050406"/>
     <use style="fill:#77aadd;stroke:#77aadd;" x="220.032" xlink:href="#m4391e11b43" y="142.047002"/>
    </g>
   </g>
   <g id="line2d_32">
    <path clip-path="url(#pdc82ba5ffd)" d="M 58.752 142.144364 
L 60.768 139.249174 
L 62.784 138.599739 
L 78.912 138.839706 
L 99.072 141.074076 
L 139.392 135.304984 
L 179.712 134.340343 
L 220.032 132.140157 
" style="fill:none;stroke:#117777;stroke-linecap:square;stroke-width:1.5;"/>
    <defs>
     <path d="M 0 2.5 
C 0.663008 2.5 1.29895 2.236584 1.767767 1.767767 
C 2.236584 1.29895 2.5 0.663008 2.5 0 
C 2.5 -0.663008 2.236584 -1.29895 1.767767 -1.767767 
C 1.29895 -2.236584 0.663008 -2.5 0 -2.5 
C -0.663008 -2.5 -1.29895 -2.236584 -1.767767 -1.767767 
C -2.236584 -1.29895 -2.5 -0.663008 -2.5 0 
C -2.5 0.663008 -2.236584 1.29895 -1.767767 1.767767 
C -1.29895 2.236584 -0.663008 2.5 0 2.5 
z
" id="m53813395c9" style="stroke:#117777;"/>
    </defs>
    <g clip-path="url(#pdc82ba5ffd)">
     <use style="fill:#117777;stroke:#117777;" x="58.752" xlink:href="#m53813395c9" y="142.144364"/>
     <use style="fill:#117777;stroke:#117777;" x="60.768" xlink:href="#m53813395c9" y="139.249174"/>
     <use style="fill:#117777;stroke:#117777;" x="62.784" xlink:href="#m53813395c9" y="138.599739"/>
     <use style="fill:#117777;stroke:#117777;" x="78.912" xlink:href="#m53813395c9" y="138.839706"/>
     <use style="fill:#117777;stroke:#117777;" x="99.072" xlink:href="#m53813395c9" y="141.074076"/>
     <use style="fill:#117777;stroke:#117777;" x="139.392" xlink:href="#m53813395c9" y="135.304984"/>
     <use style="fill:#117777;stroke:#117777;" x="179.712" xlink:href="#m53813395c9" y="134.340343"/>
     <use style="fill:#117777;stroke:#117777;" x="220.032" xlink:href="#m53813395c9" y="132.140157"/>
    </g>
   </g>
   <g id="line2d_33">
    <path clip-path="url(#pdc82ba5ffd)" d="M 58.752 142.144364 
L 60.768 142.144364 
L 62.784 142.132798 
L 78.912 142.144364 
L 99.072 123.855931 
L 139.392 131.001197 
L 179.712 133.998316 
L 220.032 136.767806 
" style="fill:none;stroke:#525fb7;stroke-linecap:square;stroke-width:1.5;"/>
    <defs>
     <path d="M 0 2.5 
C 0.663008 2.5 1.29895 2.236584 1.767767 1.767767 
C 2.236584 1.29895 2.5 0.663008 2.5 0 
C 2.5 -0.663008 2.236584 -1.29895 1.767767 -1.767767 
C 1.29895 -2.236584 0.663008 -2.5 0 -2.5 
C -0.663008 -2.5 -1.29895 -2.236584 -1.767767 -1.767767 
C -2.236584 -1.29895 -2.5 -0.663008 -2.5 0 
C -2.5 0.663008 -2.236584 1.29895 -1.767767 1.767767 
C -1.29895 2.236584 -0.663008 2.5 0 2.5 
z
" id="m42eb753b16" style="stroke:#525fb7;"/>
    </defs>
    <g clip-path="url(#pdc82ba5ffd)">
     <use style="fill:#525fb7;stroke:#525fb7;" x="58.752" xlink:href="#m42eb753b16" y="142.144364"/>
     <use style="fill:#525fb7;stroke:#525fb7;" x="60.768" xlink:href="#m42eb753b16" y="142.144364"/>
     <use style="fill:#525fb7;stroke:#525fb7;" x="62.784" xlink:href="#m42eb753b16" y="142.132798"/>
     <use style="fill:#525fb7;stroke:#525fb7;" x="78.912" xlink:href="#m42eb753b16" y="142.144364"/>
     <use style="fill:#525fb7;stroke:#525fb7;" x="99.072" xlink:href="#m42eb753b16" y="123.855931"/>
     <use style="fill:#525fb7;stroke:#525fb7;" x="139.392" xlink:href="#m42eb753b16" y="131.001197"/>
     <use style="fill:#525fb7;stroke:#525fb7;" x="179.712" xlink:href="#m42eb753b16" y="133.998316"/>
     <use style="fill:#525fb7;stroke:#525fb7;" x="220.032" xlink:href="#m42eb753b16" y="136.767806"/>
    </g>
   </g>
   <g id="text_12">
    <!-- 5 -->
    <g style="fill:#e0e3e1;" transform="translate(56.664656 26.047261)scale(0.06 -0.06)">
     <defs>
      <path d="M 678 4666 
L 3669 4666 
L 3669 3781 
L 1638 3781 
L 1638 3059 
Q 1775 3097 1914 3117 
Q 2053 3138 2203 3138 
Q 3056 3138 3531 2711 
Q 4006 2284 4006 1522 
Q 4006 766 3489 337 
Q 2972 -91 2053 -91 
Q 1656 -91 1267 -14 
Q 878 63 494 219 
L 494 1166 
Q 875 947 1217 837 
Q 1559 728 1863 728 
Q 2300 728 2551 942 
Q 2803 1156 2803 1522 
Q 2803 1891 2551 2103 
Q 2300 2316 1863 2316 
Q 1603 2316 1309 2248 
Q 1016 2181 678 2041 
L 678 4666 
z
" id="DejaVuSans-Bold-35" transform="scale(0.015625)"/>
     </defs>
     <use xlink:href="#DejaVuSans-Bold-35"/>
    </g>
   </g>
   <g id="text_13">
    <!-- 6 -->
    <g style="fill:#e0e3e1;" transform="translate(67.182917 26.047261)scale(0.06 -0.06)">
     <defs>
      <path d="M 2316 2303 
Q 2000 2303 1842 2098 
Q 1684 1894 1684 1484 
Q 1684 1075 1842 870 
Q 2000 666 2316 666 
Q 2634 666 2792 870 
Q 2950 1075 2950 1484 
Q 2950 1894 2792 2098 
Q 2634 2303 2316 2303 
z
M 3803 4544 
L 3803 3681 
Q 3506 3822 3243 3889 
Q 2981 3956 2731 3956 
Q 2194 3956 1894 3657 
Q 1594 3359 1544 2772 
Q 1750 2925 1990 3001 
Q 2231 3078 2516 3078 
Q 3231 3078 3670 2659 
Q 4109 2241 4109 1563 
Q 4109 813 3618 361 
Q 3128 -91 2303 -91 
Q 1394 -91 895 523 
Q 397 1138 397 2266 
Q 397 3422 980 4083 
Q 1563 4744 2578 4744 
Q 2900 4744 3203 4694 
Q 3506 4644 3803 4544 
z
" id="DejaVuSans-Bold-36" transform="scale(0.015625)"/>
     </defs>
     <use xlink:href="#DejaVuSans-Bold-36"/>
    </g>
   </g>
   <g id="text_14">
    <!-- 7 -->
    <g style="fill:#44aaaa;" transform="translate(77.701178 26.047261)scale(0.06 -0.06)">
     <defs>
      <path d="M 428 4666 
L 3944 4666 
L 3944 3988 
L 2125 0 
L 953 0 
L 2675 3781 
L 428 3781 
L 428 4666 
z
" id="DejaVuSans-Bold-37" transform="scale(0.015625)"/>
     </defs>
     <use xlink:href="#DejaVuSans-Bold-37"/>
    </g>
   </g>
   <g id="text_15">
    <!-- 8 -->
    <g style="fill:#77aadd;" transform="translate(88.219439 26.047261)scale(0.06 -0.06)">
     <defs>
      <path d="M 2228 2088 
Q 1891 2088 1709 1903 
Q 1528 1719 1528 1375 
Q 1528 1031 1709 848 
Q 1891 666 2228 666 
Q 2563 666 2741 848 
Q 2919 1031 2919 1375 
Q 2919 1722 2741 1905 
Q 2563 2088 2228 2088 
z
M 1350 2484 
Q 925 2613 709 2878 
Q 494 3144 494 3541 
Q 494 4131 934 4440 
Q 1375 4750 2228 4750 
Q 3075 4750 3515 4442 
Q 3956 4134 3956 3541 
Q 3956 3144 3739 2878 
Q 3522 2613 3097 2484 
Q 3572 2353 3814 2058 
Q 4056 1763 4056 1313 
Q 4056 619 3595 264 
Q 3134 -91 2228 -91 
Q 1319 -91 855 264 
Q 391 619 391 1313 
Q 391 1763 633 2058 
Q 875 2353 1350 2484 
z
M 1631 3419 
Q 1631 3141 1786 2991 
Q 1941 2841 2228 2841 
Q 2509 2841 2662 2991 
Q 2816 3141 2816 3419 
Q 2816 3697 2662 3845 
Q 2509 3994 2228 3994 
Q 1941 3994 1786 3844 
Q 1631 3694 1631 3419 
z
" id="DejaVuSans-Bold-38" transform="scale(0.015625)"/>
     </defs>
     <use xlink:href="#DejaVuSans-Bold-38"/>
    </g>
   </g>
   <g id="text_16">
    <!-- 9 -->
    <g style="fill:#117777;" transform="translate(98.7377 26.047261)scale(0.06 -0.06)">
     <defs>
      <path d="M 641 103 
L 641 966 
Q 928 831 1190 764 
Q 1453 697 1709 697 
Q 2247 697 2547 995 
Q 2847 1294 2900 1881 
Q 2688 1725 2447 1647 
Q 2206 1569 1925 1569 
Q 1209 1569 770 1986 
Q 331 2403 331 3084 
Q 331 3838 820 4291 
Q 1309 4744 2131 4744 
Q 3044 4744 3544 4128 
Q 4044 3513 4044 2388 
Q 4044 1231 3459 570 
Q 2875 -91 1856 -91 
Q 1528 -91 1228 -42 
Q 928 6 641 103 
z
M 2125 2350 
Q 2441 2350 2600 2554 
Q 2759 2759 2759 3169 
Q 2759 3575 2600 3781 
Q 2441 3988 2125 3988 
Q 1809 3988 1650 3781 
Q 1491 3575 1491 3169 
Q 1491 2759 1650 2554 
Q 1809 2350 2125 2350 
z
" id="DejaVuSans-Bold-39" transform="scale(0.015625)"/>
     </defs>
     <use xlink:href="#DejaVuSans-Bold-39"/>
    </g>
   </g>
   <g id="text_17">
    <!-- 10 -->
    <g style="fill:#525fb7;" transform="translate(107.168617 26.047261)scale(0.06 -0.06)">
     <defs>
      <path d="M 750 831 
L 1813 831 
L 1813 3847 
L 722 3622 
L 722 4441 
L 1806 4666 
L 2950 4666 
L 2950 831 
L 4013 831 
L 4013 0 
L 750 0 
L 750 831 
z
" id="DejaVuSans-Bold-31" transform="scale(0.015625)"/>
      <path d="M 2944 2338 
Q 2944 3213 2780 3570 
Q 2616 3928 2228 3928 
Q 1841 3928 1675 3570 
Q 1509 3213 1509 2338 
Q 1509 1453 1675 1090 
Q 1841 728 2228 728 
Q 2613 728 2778 1090 
Q 2944 1453 2944 2338 
z
M 4147 2328 
Q 4147 1169 3647 539 
Q 3147 -91 2228 -91 
Q 1306 -91 806 539 
Q 306 1169 306 2328 
Q 306 3491 806 4120 
Q 1306 4750 2228 4750 
Q 3147 4750 3647 4120 
Q 4147 3491 4147 2328 
z
" id="DejaVuSans-Bold-30" transform="scale(0.015625)"/>
     </defs>
     <use xlink:href="#DejaVuSans-Bold-31"/>
     <use x="69.580078" xlink:href="#DejaVuSans-Bold-30"/>
    </g>
   </g>
   <g id="text_18">
    <!-- 11 -->
    <g style="fill:#a3604b;" transform="translate(117.686878 26.047261)scale(0.06 -0.06)">
     <use xlink:href="#DejaVuSans-Bold-31"/>
     <use x="69.580078" xlink:href="#DejaVuSans-Bold-31"/>
    </g>
   </g>
   <g id="text_19">
    <!-- 12 -->
    <g style="fill:#a3604b;" transform="translate(128.205139 26.047261)scale(0.06 -0.06)">
     <defs>
      <path d="M 1844 884 
L 3897 884 
L 3897 0 
L 506 0 
L 506 884 
L 2209 2388 
Q 2438 2594 2547 2791 
Q 2656 2988 2656 3200 
Q 2656 3528 2436 3728 
Q 2216 3928 1850 3928 
Q 1569 3928 1234 3808 
Q 900 3688 519 3450 
L 519 4475 
Q 925 4609 1322 4679 
Q 1719 4750 2100 4750 
Q 2938 4750 3402 4381 
Q 3866 4013 3866 3353 
Q 3866 2972 3669 2642 
Q 3472 2313 2841 1759 
L 1844 884 
z
" id="DejaVuSans-Bold-32" transform="scale(0.015625)"/>
     </defs>
     <use xlink:href="#DejaVuSans-Bold-31"/>
     <use x="69.580078" xlink:href="#DejaVuSans-Bold-32"/>
    </g>
   </g>
   <g id="text_20">
    <!-- 13 -->
    <g style="fill:#a3604b;" transform="translate(138.723399 26.047261)scale(0.06 -0.06)">
     <defs>
      <path d="M 2981 2516 
Q 3453 2394 3698 2092 
Q 3944 1791 3944 1325 
Q 3944 631 3412 270 
Q 2881 -91 1863 -91 
Q 1503 -91 1142 -33 
Q 781 25 428 141 
L 428 1069 
Q 766 900 1098 814 
Q 1431 728 1753 728 
Q 2231 728 2486 893 
Q 2741 1059 2741 1369 
Q 2741 1688 2480 1852 
Q 2219 2016 1709 2016 
L 1228 2016 
L 1228 2791 
L 1734 2791 
Q 2188 2791 2409 2933 
Q 2631 3075 2631 3366 
Q 2631 3634 2415 3781 
Q 2200 3928 1806 3928 
Q 1516 3928 1219 3862 
Q 922 3797 628 3669 
L 628 4550 
Q 984 4650 1334 4700 
Q 1684 4750 2022 4750 
Q 2931 4750 3382 4451 
Q 3834 4153 3834 3553 
Q 3834 3144 3618 2883 
Q 3403 2622 2981 2516 
z
" id="DejaVuSans-Bold-33" transform="scale(0.015625)"/>
     </defs>
     <use xlink:href="#DejaVuSans-Bold-31"/>
     <use x="69.580078" xlink:href="#DejaVuSans-Bold-33"/>
    </g>
   </g>
   <g id="text_21">
    <!-- 14 -->
    <g style="fill:#f53f06;" transform="translate(149.24166 26.047261)scale(0.06 -0.06)">
     <defs>
      <path d="M 2356 3675 
L 1038 1722 
L 2356 1722 
L 2356 3675 
z
M 2156 4666 
L 3494 4666 
L 3494 1722 
L 4159 1722 
L 4159 850 
L 3494 850 
L 3494 0 
L 2356 0 
L 2356 850 
L 288 850 
L 288 1881 
L 2156 4666 
z
" id="DejaVuSans-Bold-34" transform="scale(0.015625)"/>
     </defs>
     <use xlink:href="#DejaVuSans-Bold-31"/>
     <use x="69.580078" xlink:href="#DejaVuSans-Bold-34"/>
    </g>
   </g>
   <g id="text_22">
    <!-- 18 -->
    <g style="fill:#771124;" transform="translate(159.759921 26.047261)scale(0.06 -0.06)">
     <use xlink:href="#DejaVuSans-Bold-31"/>
     <use x="69.580078" xlink:href="#DejaVuSans-Bold-38"/>
    </g>
   </g>
   <g id="text_23">
    <!-- 19 -->
    <g style="fill:#aa4457;" transform="translate(170.278182 26.047261)scale(0.06 -0.06)">
     <use xlink:href="#DejaVuSans-Bold-31"/>
     <use x="69.580078" xlink:href="#DejaVuSans-Bold-39"/>
    </g>
   </g>
   <g id="text_24">
    <!-- 20 -->
    <g style="fill:#eeb29f;" transform="translate(180.796443 26.047261)scale(0.06 -0.06)">
     <use xlink:href="#DejaVuSans-Bold-32"/>
     <use x="69.580078" xlink:href="#DejaVuSans-Bold-30"/>
    </g>
   </g>
   <g id="text_25">
    <!-- 21 -->
    <g style="fill:#cd0d3c;" transform="translate(54.577313 37.822534)scale(0.06 -0.06)">
     <use xlink:href="#DejaVuSans-Bold-32"/>
     <use x="69.580078" xlink:href="#DejaVuSans-Bold-31"/>
    </g>
   </g>
   <g id="text_26">
    <!-- 25 -->
    <g style="fill:#d0d1df;" transform="translate(65.095573 37.822534)scale(0.06 -0.06)">
     <use xlink:href="#DejaVuSans-Bold-32"/>
     <use x="69.580078" xlink:href="#DejaVuSans-Bold-35"/>
    </g>
   </g>
   <g id="text_27">
    <!-- 26 -->
    <g style="fill:#6ef1c9;" transform="translate(75.613834 37.822534)scale(0.06 -0.06)">
     <use xlink:href="#DejaVuSans-Bold-32"/>
     <use x="69.580078" xlink:href="#DejaVuSans-Bold-36"/>
    </g>
   </g>
   <g id="text_28">
    <!-- 29 -->
    <g style="fill:#6ef1c9;" transform="translate(86.132095 37.822534)scale(0.06 -0.06)">
     <use xlink:href="#DejaVuSans-Bold-32"/>
     <use x="69.580078" xlink:href="#DejaVuSans-Bold-39"/>
    </g>
   </g>
   <g id="text_29">
    <!-- 30 -->
    <g style="fill:#6ef1c9;" transform="translate(96.650356 37.822534)scale(0.06 -0.06)">
     <use xlink:href="#DejaVuSans-Bold-33"/>
     <use x="69.580078" xlink:href="#DejaVuSans-Bold-30"/>
    </g>
   </g>
   <g id="text_30">
    <!-- 32 -->
    <g style="fill:#689285;" transform="translate(107.168617 37.822534)scale(0.06 -0.06)">
     <use xlink:href="#DejaVuSans-Bold-33"/>
     <use x="69.580078" xlink:href="#DejaVuSans-Bold-32"/>
    </g>
   </g>
   <g id="text_31">
    <!-- 34 -->
    <g style="fill:#428317;" transform="translate(117.686878 37.822534)scale(0.06 -0.06)">
     <use xlink:href="#DejaVuSans-Bold-33"/>
     <use x="69.580078" xlink:href="#DejaVuSans-Bold-34"/>
    </g>
   </g>
   <g id="text_32">
    <!-- 37 -->
    <g style="fill:#428317;" transform="translate(128.205139 37.822534)scale(0.06 -0.06)">
     <use xlink:href="#DejaVuSans-Bold-33"/>
     <use x="69.580078" xlink:href="#DejaVuSans-Bold-37"/>
    </g>
   </g>
   <g id="text_33">
    <!-- 38 -->
    <g style="fill:#106832;" transform="translate(138.723399 37.822534)scale(0.06 -0.06)">
     <use xlink:href="#DejaVuSans-Bold-33"/>
     <use x="69.580078" xlink:href="#DejaVuSans-Bold-38"/>
    </g>
   </g>
   <g id="text_34">
    <!-- 46 -->
    <g style="fill:#51a778;" transform="translate(149.24166 37.822534)scale(0.06 -0.06)">
     <use xlink:href="#DejaVuSans-Bold-34"/>
     <use x="69.580078" xlink:href="#DejaVuSans-Bold-36"/>
    </g>
   </g>
   <g id="text_35">
    <!-- 48 -->
    <g style="fill:#0ec460;" transform="translate(159.759921 37.822534)scale(0.06 -0.06)">
     <use xlink:href="#DejaVuSans-Bold-34"/>
     <use x="69.580078" xlink:href="#DejaVuSans-Bold-38"/>
    </g>
   </g>
  </g>
 </g>
 <defs>
  <clipPath id="pdc82ba5ffd">
   <rect height="129.528" width="177.408" x="50.688" y="18.504"/>
  </clipPath>
 </defs>
</svg>
