<?xml version="1.0" encoding="utf-8" standalone="no"?>
<!DOCTYPE svg PUBLIC "-//W3C//DTD SVG 1.1//EN"
  "http://www.w3.org/Graphics/SVG/1.1/DTD/svg11.dtd">
<svg height="14.173228pt" version="1.1" viewBox="0 0 42.519685 14.173228" width="42.519685pt" xmlns="http://www.w3.org/2000/svg" xmlns:xlink="http://www.w3.org/1999/xlink">
 <metadata>
  <rdf:RDF xmlns:cc="http://creativecommons.org/ns#" xmlns:dc="http://purl.org/dc/elements/1.1/" xmlns:rdf="http://www.w3.org/1999/02/22-rdf-syntax-ns#">
   <cc:Work>
    <dc:type rdf:resource="http://purl.org/dc/dcmitype/StillImage"/>
    <dc:date>2021-11-16T18:42:32.923317</dc:date>
    <dc:format>image/svg+xml</dc:format>
    <dc:creator>
     <cc:Agent>
      <dc:title>Matplotlib v3.4.2, https://matplotlib.org/</dc:title>
     </cc:Agent>
    </dc:creator>
   </cc:Work>
  </rdf:RDF>
 </metadata>
 <defs>
  <style type="text/css">*{stroke-linecap:butt;stroke-linejoin:round;}</style>
 </defs>
 <g id="figure_1">
  <g id="patch_1">
   <path d="M 0 14.173228 
L 42.519685 14.173228 
L 42.519685 0 
L 0 0 
z
" style="fill:#ffffff;"/>
  </g>
  <g id="axes_1">
   <g id="patch_2">
    <path d="M 5.314961 12.614173 
L 38.267717 12.614173 
L 38.267717 1.700787 
L 5.314961 1.700787 
z
" style="fill:#ffffff;"/>
   </g>
   <g id="matplotlib.axis_1">
    <g id="xtick_1">
     <g id="line2d_1">
      <defs>
       <path d="M 0 0 
L 0 2 
" id="mf07d4d9a03" style="stroke:#000000;stroke-width:0.8;"/>
      </defs>
      <g>
       <use style="stroke:#000000;stroke-width:0.8;" x="16.554944" xlink:href="#mf07d4d9a03" y="12.614173"/>
      </g>
     </g>
     <g id="text_1">
      <!-- 9500 -->
      <g transform="translate(12.737444 18.893704)scale(0.03 -0.03)">
       <defs>
        <path d="M 703 97 
L 703 672 
Q 941 559 1184 500 
Q 1428 441 1663 441 
Q 2288 441 2617 861 
Q 2947 1281 2994 2138 
Q 2813 1869 2534 1725 
Q 2256 1581 1919 1581 
Q 1219 1581 811 2004 
Q 403 2428 403 3163 
Q 403 3881 828 4315 
Q 1253 4750 1959 4750 
Q 2769 4750 3195 4129 
Q 3622 3509 3622 2328 
Q 3622 1225 3098 567 
Q 2575 -91 1691 -91 
Q 1453 -91 1209 -44 
Q 966 3 703 97 
z
M 1959 2075 
Q 2384 2075 2632 2365 
Q 2881 2656 2881 3163 
Q 2881 3666 2632 3958 
Q 2384 4250 1959 4250 
Q 1534 4250 1286 3958 
Q 1038 3666 1038 3163 
Q 1038 2656 1286 2365 
Q 1534 2075 1959 2075 
z
" id="DejaVuSans-39" transform="scale(0.015625)"/>
        <path d="M 691 4666 
L 3169 4666 
L 3169 4134 
L 1269 4134 
L 1269 2991 
Q 1406 3038 1543 3061 
Q 1681 3084 1819 3084 
Q 2600 3084 3056 2656 
Q 3513 2228 3513 1497 
Q 3513 744 3044 326 
Q 2575 -91 1722 -91 
Q 1428 -91 1123 -41 
Q 819 9 494 109 
L 494 744 
Q 775 591 1075 516 
Q 1375 441 1709 441 
Q 2250 441 2565 725 
Q 2881 1009 2881 1497 
Q 2881 1984 2565 2268 
Q 2250 2553 1709 2553 
Q 1456 2553 1204 2497 
Q 953 2441 691 2322 
L 691 4666 
z
" id="DejaVuSans-35" transform="scale(0.015625)"/>
        <path d="M 2034 4250 
Q 1547 4250 1301 3770 
Q 1056 3291 1056 2328 
Q 1056 1369 1301 889 
Q 1547 409 2034 409 
Q 2525 409 2770 889 
Q 3016 1369 3016 2328 
Q 3016 3291 2770 3770 
Q 2525 4250 2034 4250 
z
M 2034 4750 
Q 2819 4750 3233 4129 
Q 3647 3509 3647 2328 
Q 3647 1150 3233 529 
Q 2819 -91 2034 -91 
Q 1250 -91 836 529 
Q 422 1150 422 2328 
Q 422 3509 836 4129 
Q 1250 4750 2034 4750 
z
" id="DejaVuSans-30" transform="scale(0.015625)"/>
       </defs>
       <use xlink:href="#DejaVuSans-39"/>
       <use x="63.623047" xlink:href="#DejaVuSans-35"/>
       <use x="127.246094" xlink:href="#DejaVuSans-30"/>
       <use x="190.869141" xlink:href="#DejaVuSans-30"/>
      </g>
     </g>
    </g>
    <g id="xtick_2">
     <g id="line2d_2">
      <g>
       <use style="stroke:#000000;stroke-width:0.8;" x="29.373536" xlink:href="#mf07d4d9a03" y="12.614173"/>
      </g>
     </g>
     <g id="text_2">
      <!-- 10000 -->
      <g transform="translate(24.601661 18.893704)scale(0.03 -0.03)">
       <defs>
        <path d="M 794 531 
L 1825 531 
L 1825 4091 
L 703 3866 
L 703 4441 
L 1819 4666 
L 2450 4666 
L 2450 531 
L 3481 531 
L 3481 0 
L 794 0 
L 794 531 
z
" id="DejaVuSans-31" transform="scale(0.015625)"/>
       </defs>
       <use xlink:href="#DejaVuSans-31"/>
       <use x="63.623047" xlink:href="#DejaVuSans-30"/>
       <use x="127.246094" xlink:href="#DejaVuSans-30"/>
       <use x="190.869141" xlink:href="#DejaVuSans-30"/>
       <use x="254.492188" xlink:href="#DejaVuSans-30"/>
      </g>
     </g>
    </g>
   </g>
   <g id="matplotlib.axis_2">
    <g id="ytick_1">
     <g id="line2d_3">
      <defs>
       <path d="M 0 0 
L -2 0 
" id="mef9f7bdd2a" style="stroke:#000000;stroke-width:0.8;"/>
      </defs>
      <g>
       <use style="stroke:#000000;stroke-width:0.8;" x="5.314961" xlink:href="#mef9f7bdd2a" y="9.89718"/>
      </g>
     </g>
     <g id="text_3">
      <!-- 15 -->
      <g transform="translate(-2.502539 11.036946)scale(0.03 -0.03)">
       <use xlink:href="#DejaVuSans-31"/>
       <use x="63.623047" xlink:href="#DejaVuSans-35"/>
      </g>
     </g>
    </g>
    <g id="ytick_2">
     <g id="line2d_4">
      <g>
       <use style="stroke:#000000;stroke-width:0.8;" x="5.314961" xlink:href="#mef9f7bdd2a" y="6.532804"/>
      </g>
     </g>
     <g id="text_4">
      <!-- 18 -->
      <g transform="translate(-2.502539 7.67257)scale(0.03 -0.03)">
       <defs>
        <path d="M 2034 2216 
Q 1584 2216 1326 1975 
Q 1069 1734 1069 1313 
Q 1069 891 1326 650 
Q 1584 409 2034 409 
Q 2484 409 2743 651 
Q 3003 894 3003 1313 
Q 3003 1734 2745 1975 
Q 2488 2216 2034 2216 
z
M 1403 2484 
Q 997 2584 770 2862 
Q 544 3141 544 3541 
Q 544 4100 942 4425 
Q 1341 4750 2034 4750 
Q 2731 4750 3128 4425 
Q 3525 4100 3525 3541 
Q 3525 3141 3298 2862 
Q 3072 2584 2669 2484 
Q 3125 2378 3379 2068 
Q 3634 1759 3634 1313 
Q 3634 634 3220 271 
Q 2806 -91 2034 -91 
Q 1263 -91 848 271 
Q 434 634 434 1313 
Q 434 1759 690 2068 
Q 947 2378 1403 2484 
z
M 1172 3481 
Q 1172 3119 1398 2916 
Q 1625 2713 2034 2713 
Q 2441 2713 2670 2916 
Q 2900 3119 2900 3481 
Q 2900 3844 2670 4047 
Q 2441 4250 2034 4250 
Q 1625 4250 1398 4047 
Q 1172 3844 1172 3481 
z
" id="DejaVuSans-38" transform="scale(0.015625)"/>
       </defs>
       <use xlink:href="#DejaVuSans-31"/>
       <use x="63.623047" xlink:href="#DejaVuSans-38"/>
      </g>
     </g>
    </g>
    <g id="ytick_3">
     <g id="line2d_5">
      <g>
       <use style="stroke:#000000;stroke-width:0.8;" x="5.314961" xlink:href="#mef9f7bdd2a" y="3.168428"/>
      </g>
     </g>
     <g id="text_5">
      <!-- 21 -->
      <g transform="translate(-2.502539 4.308194)scale(0.03 -0.03)">
       <defs>
        <path d="M 1228 531 
L 3431 531 
L 3431 0 
L 469 0 
L 469 531 
Q 828 903 1448 1529 
Q 2069 2156 2228 2338 
Q 2531 2678 2651 2914 
Q 2772 3150 2772 3378 
Q 2772 3750 2511 3984 
Q 2250 4219 1831 4219 
Q 1534 4219 1204 4116 
Q 875 4013 500 3803 
L 500 4441 
Q 881 4594 1212 4672 
Q 1544 4750 1819 4750 
Q 2544 4750 2975 4387 
Q 3406 4025 3406 3419 
Q 3406 3131 3298 2873 
Q 3191 2616 2906 2266 
Q 2828 2175 2409 1742 
Q 1991 1309 1228 531 
z
" id="DejaVuSans-32" transform="scale(0.015625)"/>
       </defs>
       <use xlink:href="#DejaVuSans-32"/>
       <use x="63.623047" xlink:href="#DejaVuSans-31"/>
      </g>
     </g>
    </g>
   </g>
   <g id="line2d_6">
    <path clip-path="url(#p88c8d3995b)" d="M 6.812813 11.873581 
L 8.3895 8.640863 
L 9.966187 5.026933 
L 11.542874 4.8634 
L 13.119561 7.076246 
L 14.696248 10.910795 
L 16.272934 11.440021 
L 17.849621 8.005035 
L 19.426308 4.379334 
L 21.002995 4.367857 
L 22.579682 7.438196 
L 24.156369 12.221492 
L 25.733056 11.255961 
L 27.309743 7.838017 
L 28.88643 4.722161 
L 30.463116 4.504111 
L 32.039803 6.933046 
L 33.61649 10.948829 
L 35.193177 11.388386 
L 36.769864 9.507247 
" style="fill:none;stroke:#e7a529;stroke-linecap:square;stroke-width:0.5;"/>
    <defs>
     <path d="M 0 0.4 
C 0.106081 0.4 0.207832 0.357853 0.282843 0.282843 
C 0.357853 0.207832 0.4 0.106081 0.4 0 
C 0.4 -0.106081 0.357853 -0.207832 0.282843 -0.282843 
C 0.207832 -0.357853 0.106081 -0.4 0 -0.4 
C -0.106081 -0.4 -0.207832 -0.357853 -0.282843 -0.282843 
C -0.357853 -0.207832 -0.4 -0.106081 -0.4 0 
C -0.4 0.106081 -0.357853 0.207832 -0.282843 0.282843 
C -0.207832 0.357853 -0.106081 0.4 0 0.4 
z
" id="m3689006b3e" style="stroke:#e7a529;"/>
    </defs>
    <g clip-path="url(#p88c8d3995b)">
     <use style="fill:#e7a529;stroke:#e7a529;" x="6.812813" xlink:href="#m3689006b3e" y="11.873581"/>
     <use style="fill:#e7a529;stroke:#e7a529;" x="8.3895" xlink:href="#m3689006b3e" y="8.640863"/>
     <use style="fill:#e7a529;stroke:#e7a529;" x="9.966187" xlink:href="#m3689006b3e" y="5.026933"/>
     <use style="fill:#e7a529;stroke:#e7a529;" x="11.542874" xlink:href="#m3689006b3e" y="4.8634"/>
     <use style="fill:#e7a529;stroke:#e7a529;" x="13.119561" xlink:href="#m3689006b3e" y="7.076246"/>
     <use style="fill:#e7a529;stroke:#e7a529;" x="14.696248" xlink:href="#m3689006b3e" y="10.910795"/>
     <use style="fill:#e7a529;stroke:#e7a529;" x="16.272934" xlink:href="#m3689006b3e" y="11.440021"/>
     <use style="fill:#e7a529;stroke:#e7a529;" x="17.849621" xlink:href="#m3689006b3e" y="8.005035"/>
     <use style="fill:#e7a529;stroke:#e7a529;" x="19.426308" xlink:href="#m3689006b3e" y="4.379334"/>
     <use style="fill:#e7a529;stroke:#e7a529;" x="21.002995" xlink:href="#m3689006b3e" y="4.367857"/>
     <use style="fill:#e7a529;stroke:#e7a529;" x="22.579682" xlink:href="#m3689006b3e" y="7.438196"/>
     <use style="fill:#e7a529;stroke:#e7a529;" x="24.156369" xlink:href="#m3689006b3e" y="12.221492"/>
     <use style="fill:#e7a529;stroke:#e7a529;" x="25.733056" xlink:href="#m3689006b3e" y="11.255961"/>
     <use style="fill:#e7a529;stroke:#e7a529;" x="27.309743" xlink:href="#m3689006b3e" y="7.838017"/>
     <use style="fill:#e7a529;stroke:#e7a529;" x="28.88643" xlink:href="#m3689006b3e" y="4.722161"/>
     <use style="fill:#e7a529;stroke:#e7a529;" x="30.463116" xlink:href="#m3689006b3e" y="4.504111"/>
     <use style="fill:#e7a529;stroke:#e7a529;" x="32.039803" xlink:href="#m3689006b3e" y="6.933046"/>
     <use style="fill:#e7a529;stroke:#e7a529;" x="33.61649" xlink:href="#m3689006b3e" y="10.948829"/>
     <use style="fill:#e7a529;stroke:#e7a529;" x="35.193177" xlink:href="#m3689006b3e" y="11.388386"/>
     <use style="fill:#e7a529;stroke:#e7a529;" x="36.769864" xlink:href="#m3689006b3e" y="9.507247"/>
    </g>
   </g>
   <g id="patch_3">
    <path d="M 5.314961 12.614173 
L 5.314961 1.700787 
" style="fill:none;stroke:#000000;stroke-linecap:square;stroke-linejoin:miter;stroke-width:0.8;"/>
   </g>
   <g id="patch_4">
    <path d="M 38.267717 12.614173 
L 38.267717 1.700787 
" style="fill:none;stroke:#000000;stroke-linecap:square;stroke-linejoin:miter;stroke-width:0.8;"/>
   </g>
   <g id="patch_5">
    <path d="M 5.314961 12.614173 
L 38.267717 12.614173 
" style="fill:none;stroke:#000000;stroke-linecap:square;stroke-linejoin:miter;stroke-width:0.8;"/>
   </g>
   <g id="patch_6">
    <path d="M 5.314961 1.700787 
L 38.267717 1.700787 
" style="fill:none;stroke:#000000;stroke-linecap:square;stroke-linejoin:miter;stroke-width:0.8;"/>
   </g>
  </g>
 </g>
 <defs>
  <clipPath id="p88c8d3995b">
   <rect height="10.913386" width="32.952756" x="5.314961" y="1.700787"/>
  </clipPath>
 </defs>
</svg>
