<?xml version="1.0" encoding="utf-8" standalone="no"?>
<!DOCTYPE svg PUBLIC "-//W3C//DTD SVG 1.1//EN"
  "http://www.w3.org/Graphics/SVG/1.1/DTD/svg11.dtd">
<svg height="185.04pt" version="1.1" viewBox="0 0 253.44 185.04" width="253.44pt" xmlns="http://www.w3.org/2000/svg" xmlns:xlink="http://www.w3.org/1999/xlink">
 <metadata>
  <rdf:RDF xmlns:cc="http://creativecommons.org/ns#" xmlns:dc="http://purl.org/dc/elements/1.1/" xmlns:rdf="http://www.w3.org/1999/02/22-rdf-syntax-ns#">
   <cc:Work>
    <dc:type rdf:resource="http://purl.org/dc/dcmitype/StillImage"/>
    <dc:date>2021-07-12T10:01:59.450409</dc:date>
    <dc:format>image/svg+xml</dc:format>
    <dc:creator>
     <cc:Agent>
      <dc:title>Matplotlib v3.4.1, https://matplotlib.org/</dc:title>
     </cc:Agent>
    </dc:creator>
   </cc:Work>
  </rdf:RDF>
 </metadata>
 <defs>
  <style type="text/css">*{stroke-linecap:butt;stroke-linejoin:round;}</style>
 </defs>
 <g id="figure_1">
  <g id="patch_1">
   <path d="M 0 185.04 
L 253.44 185.04 
L 253.44 0 
L 0 0 
z
" style="fill:#ffffff;"/>
  </g>
  <g id="axes_1">
   <g id="patch_2">
    <path d="M 50.688 148.032 
L 228.096 148.032 
L 228.096 18.504 
L 50.688 18.504 
z
" style="fill:#ffffff;"/>
   </g>
   <g id="PathCollection_1">
    <defs>
     <path d="M 0 3 
C 0.795609 3 1.55874 2.683901 2.12132 2.12132 
C 2.683901 1.55874 3 0.795609 3 0 
C 3 -0.795609 2.683901 -1.55874 2.12132 -2.12132 
C 1.55874 -2.683901 0.795609 -3 0 -3 
C -0.795609 -3 -1.55874 -2.683901 -2.12132 -2.12132 
C -2.683901 -1.55874 -3 -0.795609 -3 0 
C -3 0.795609 -2.683901 1.55874 -2.12132 2.12132 
C -1.55874 2.683901 -0.795609 3 0 3 
z
" id="mfa68353bda" style="stroke:#1f77b4;stroke-opacity:0;"/>
    </defs>
    <g clip-path="url(#p7330d8ac14)">
     <use style="fill:#1f77b4;fill-opacity:0;stroke:#1f77b4;stroke-opacity:0;" x="110.403765" xlink:href="#mfa68353bda" y="65.119561"/>
     <use style="fill:#1f77b4;fill-opacity:0;stroke:#1f77b4;stroke-opacity:0;" x="75.617882" xlink:href="#mfa68353bda" y="98.305278"/>
     <use style="fill:#1f77b4;fill-opacity:0;stroke:#1f77b4;stroke-opacity:0;" x="75.617882" xlink:href="#mfa68353bda" y="31.933845"/>
     <use style="fill:#1f77b4;fill-opacity:0;stroke:#1f77b4;stroke-opacity:0;" x="156.784941" xlink:href="#mfa68353bda" y="98.305278"/>
     <use style="fill:#1f77b4;fill-opacity:0;stroke:#1f77b4;stroke-opacity:0;" x="156.784941" xlink:href="#mfa68353bda" y="31.933845"/>
     <use style="fill:#1f77b4;fill-opacity:0;stroke:#1f77b4;stroke-opacity:0;" x="87.213176" xlink:href="#mfa68353bda" y="134.602155"/>
     <use style="fill:#1f77b4;fill-opacity:0;stroke:#1f77b4;stroke-opacity:0;" x="203.166118" xlink:href="#mfa68353bda" y="108.675814"/>
     <use style="fill:#1f77b4;fill-opacity:0;stroke:#1f77b4;stroke-opacity:0;" x="203.166118" xlink:href="#mfa68353bda" y="108.675814"/>
    </g>
   </g>
   <g id="matplotlib.axis_1">
    <g id="xtick_1">
     <g id="line2d_1">
      <defs>
       <path d="M 0 0 
L 0 3.5 
" id="mf553eea16b" style="stroke:#000000;stroke-width:0.8;"/>
      </defs>
      <g>
       <use style="stroke:#000000;stroke-width:0.8;" x="64.022588" xlink:href="#mf553eea16b" y="148.032"/>
      </g>
     </g>
     <g id="text_1">
      <!-- 0 -->
      <g transform="translate(60.841338 162.630437)scale(0.1 -0.1)">
       <defs>
        <path d="M 2034 4250 
Q 1547 4250 1301 3770 
Q 1056 3291 1056 2328 
Q 1056 1369 1301 889 
Q 1547 409 2034 409 
Q 2525 409 2770 889 
Q 3016 1369 3016 2328 
Q 3016 3291 2770 3770 
Q 2525 4250 2034 4250 
z
M 2034 4750 
Q 2819 4750 3233 4129 
Q 3647 3509 3647 2328 
Q 3647 1150 3233 529 
Q 2819 -91 2034 -91 
Q 1250 -91 836 529 
Q 422 1150 422 2328 
Q 422 3509 836 4129 
Q 1250 4750 2034 4750 
z
" id="DejaVuSans-30" transform="scale(0.015625)"/>
       </defs>
       <use xlink:href="#DejaVuSans-30"/>
      </g>
     </g>
    </g>
    <g id="xtick_2">
     <g id="line2d_2">
      <g>
       <use style="stroke:#000000;stroke-width:0.8;" x="110.403765" xlink:href="#mf553eea16b" y="148.032"/>
      </g>
     </g>
     <g id="text_2">
      <!-- 10 -->
      <g transform="translate(104.041265 162.630437)scale(0.1 -0.1)">
       <defs>
        <path d="M 794 531 
L 1825 531 
L 1825 4091 
L 703 3866 
L 703 4441 
L 1819 4666 
L 2450 4666 
L 2450 531 
L 3481 531 
L 3481 0 
L 794 0 
L 794 531 
z
" id="DejaVuSans-31" transform="scale(0.015625)"/>
       </defs>
       <use xlink:href="#DejaVuSans-31"/>
       <use x="63.623047" xlink:href="#DejaVuSans-30"/>
      </g>
     </g>
    </g>
    <g id="xtick_3">
     <g id="line2d_3">
      <g>
       <use style="stroke:#000000;stroke-width:0.8;" x="156.784941" xlink:href="#mf553eea16b" y="148.032"/>
      </g>
     </g>
     <g id="text_3">
      <!-- 20 -->
      <g transform="translate(150.422441 162.630437)scale(0.1 -0.1)">
       <defs>
        <path d="M 1228 531 
L 3431 531 
L 3431 0 
L 469 0 
L 469 531 
Q 828 903 1448 1529 
Q 2069 2156 2228 2338 
Q 2531 2678 2651 2914 
Q 2772 3150 2772 3378 
Q 2772 3750 2511 3984 
Q 2250 4219 1831 4219 
Q 1534 4219 1204 4116 
Q 875 4013 500 3803 
L 500 4441 
Q 881 4594 1212 4672 
Q 1544 4750 1819 4750 
Q 2544 4750 2975 4387 
Q 3406 4025 3406 3419 
Q 3406 3131 3298 2873 
Q 3191 2616 2906 2266 
Q 2828 2175 2409 1742 
Q 1991 1309 1228 531 
z
" id="DejaVuSans-32" transform="scale(0.015625)"/>
       </defs>
       <use xlink:href="#DejaVuSans-32"/>
       <use x="63.623047" xlink:href="#DejaVuSans-30"/>
      </g>
     </g>
    </g>
    <g id="xtick_4">
     <g id="line2d_4">
      <g>
       <use style="stroke:#000000;stroke-width:0.8;" x="203.166118" xlink:href="#mf553eea16b" y="148.032"/>
      </g>
     </g>
     <g id="text_4">
      <!-- 30 -->
      <g transform="translate(196.803618 162.630437)scale(0.1 -0.1)">
       <defs>
        <path d="M 2597 2516 
Q 3050 2419 3304 2112 
Q 3559 1806 3559 1356 
Q 3559 666 3084 287 
Q 2609 -91 1734 -91 
Q 1441 -91 1130 -33 
Q 819 25 488 141 
L 488 750 
Q 750 597 1062 519 
Q 1375 441 1716 441 
Q 2309 441 2620 675 
Q 2931 909 2931 1356 
Q 2931 1769 2642 2001 
Q 2353 2234 1838 2234 
L 1294 2234 
L 1294 2753 
L 1863 2753 
Q 2328 2753 2575 2939 
Q 2822 3125 2822 3475 
Q 2822 3834 2567 4026 
Q 2313 4219 1838 4219 
Q 1578 4219 1281 4162 
Q 984 4106 628 3988 
L 628 4550 
Q 988 4650 1302 4700 
Q 1616 4750 1894 4750 
Q 2613 4750 3031 4423 
Q 3450 4097 3450 3541 
Q 3450 3153 3228 2886 
Q 3006 2619 2597 2516 
z
" id="DejaVuSans-33" transform="scale(0.015625)"/>
       </defs>
       <use xlink:href="#DejaVuSans-33"/>
       <use x="63.623047" xlink:href="#DejaVuSans-30"/>
      </g>
     </g>
    </g>
    <g id="text_5">
     <!-- [NaOH]/ mM -->
     <g transform="translate(108.531844 176.308562)scale(0.1 -0.1)">
      <defs>
       <path d="M 550 4863 
L 1875 4863 
L 1875 4416 
L 1125 4416 
L 1125 -397 
L 1875 -397 
L 1875 -844 
L 550 -844 
L 550 4863 
z
" id="DejaVuSans-5b" transform="scale(0.015625)"/>
       <path d="M 628 4666 
L 1478 4666 
L 3547 763 
L 3547 4666 
L 4159 4666 
L 4159 0 
L 3309 0 
L 1241 3903 
L 1241 0 
L 628 0 
L 628 4666 
z
" id="DejaVuSans-4e" transform="scale(0.015625)"/>
       <path d="M 2194 1759 
Q 1497 1759 1228 1600 
Q 959 1441 959 1056 
Q 959 750 1161 570 
Q 1363 391 1709 391 
Q 2188 391 2477 730 
Q 2766 1069 2766 1631 
L 2766 1759 
L 2194 1759 
z
M 3341 1997 
L 3341 0 
L 2766 0 
L 2766 531 
Q 2569 213 2275 61 
Q 1981 -91 1556 -91 
Q 1019 -91 701 211 
Q 384 513 384 1019 
Q 384 1609 779 1909 
Q 1175 2209 1959 2209 
L 2766 2209 
L 2766 2266 
Q 2766 2663 2505 2880 
Q 2244 3097 1772 3097 
Q 1472 3097 1187 3025 
Q 903 2953 641 2809 
L 641 3341 
Q 956 3463 1253 3523 
Q 1550 3584 1831 3584 
Q 2591 3584 2966 3190 
Q 3341 2797 3341 1997 
z
" id="DejaVuSans-61" transform="scale(0.015625)"/>
       <path d="M 2522 4238 
Q 1834 4238 1429 3725 
Q 1025 3213 1025 2328 
Q 1025 1447 1429 934 
Q 1834 422 2522 422 
Q 3209 422 3611 934 
Q 4013 1447 4013 2328 
Q 4013 3213 3611 3725 
Q 3209 4238 2522 4238 
z
M 2522 4750 
Q 3503 4750 4090 4092 
Q 4678 3434 4678 2328 
Q 4678 1225 4090 567 
Q 3503 -91 2522 -91 
Q 1538 -91 948 565 
Q 359 1222 359 2328 
Q 359 3434 948 4092 
Q 1538 4750 2522 4750 
z
" id="DejaVuSans-4f" transform="scale(0.015625)"/>
       <path d="M 628 4666 
L 1259 4666 
L 1259 2753 
L 3553 2753 
L 3553 4666 
L 4184 4666 
L 4184 0 
L 3553 0 
L 3553 2222 
L 1259 2222 
L 1259 0 
L 628 0 
L 628 4666 
z
" id="DejaVuSans-48" transform="scale(0.015625)"/>
       <path d="M 1947 4863 
L 1947 -844 
L 622 -844 
L 622 -397 
L 1369 -397 
L 1369 4416 
L 622 4416 
L 622 4863 
L 1947 4863 
z
" id="DejaVuSans-5d" transform="scale(0.015625)"/>
       <path d="M 1625 4666 
L 2156 4666 
L 531 -594 
L 0 -594 
L 1625 4666 
z
" id="DejaVuSans-2f" transform="scale(0.015625)"/>
       <path id="DejaVuSans-20" transform="scale(0.015625)"/>
       <path d="M 3328 2828 
Q 3544 3216 3844 3400 
Q 4144 3584 4550 3584 
Q 5097 3584 5394 3201 
Q 5691 2819 5691 2113 
L 5691 0 
L 5113 0 
L 5113 2094 
Q 5113 2597 4934 2840 
Q 4756 3084 4391 3084 
Q 3944 3084 3684 2787 
Q 3425 2491 3425 1978 
L 3425 0 
L 2847 0 
L 2847 2094 
Q 2847 2600 2669 2842 
Q 2491 3084 2119 3084 
Q 1678 3084 1418 2786 
Q 1159 2488 1159 1978 
L 1159 0 
L 581 0 
L 581 3500 
L 1159 3500 
L 1159 2956 
Q 1356 3278 1631 3431 
Q 1906 3584 2284 3584 
Q 2666 3584 2933 3390 
Q 3200 3197 3328 2828 
z
" id="DejaVuSans-6d" transform="scale(0.015625)"/>
       <path d="M 628 4666 
L 1569 4666 
L 2759 1491 
L 3956 4666 
L 4897 4666 
L 4897 0 
L 4281 0 
L 4281 4097 
L 3078 897 
L 2444 897 
L 1241 4097 
L 1241 0 
L 628 0 
L 628 4666 
z
" id="DejaVuSans-4d" transform="scale(0.015625)"/>
      </defs>
      <use xlink:href="#DejaVuSans-5b"/>
      <use x="39.013672" xlink:href="#DejaVuSans-4e"/>
      <use x="113.818359" xlink:href="#DejaVuSans-61"/>
      <use x="175.097656" xlink:href="#DejaVuSans-4f"/>
      <use x="253.808594" xlink:href="#DejaVuSans-48"/>
      <use x="329.003906" xlink:href="#DejaVuSans-5d"/>
      <use x="368.017578" xlink:href="#DejaVuSans-2f"/>
      <use x="401.708984" xlink:href="#DejaVuSans-20"/>
      <use x="433.496094" xlink:href="#DejaVuSans-6d"/>
      <use x="530.908203" xlink:href="#DejaVuSans-4d"/>
     </g>
    </g>
   </g>
   <g id="matplotlib.axis_2">
    <g id="ytick_1">
     <g id="line2d_5">
      <defs>
       <path d="M 0 0 
L -3.5 0 
" id="ma915e08bf2" style="stroke:#000000;stroke-width:0.8;"/>
      </defs>
      <g>
       <use style="stroke:#000000;stroke-width:0.8;" x="50.688" xlink:href="#ma915e08bf2" y="139.787424"/>
      </g>
     </g>
     <g id="text_6">
      <!-- 0 -->
      <g transform="translate(37.3255 143.586642)scale(0.1 -0.1)">
       <use xlink:href="#DejaVuSans-30"/>
      </g>
     </g>
    </g>
    <g id="ytick_2">
     <g id="line2d_6">
      <g>
       <use style="stroke:#000000;stroke-width:0.8;" x="50.688" xlink:href="#ma915e08bf2" y="98.305278"/>
      </g>
     </g>
     <g id="text_7">
      <!-- 20 -->
      <g transform="translate(30.963 102.104497)scale(0.1 -0.1)">
       <use xlink:href="#DejaVuSans-32"/>
       <use x="63.623047" xlink:href="#DejaVuSans-30"/>
      </g>
     </g>
    </g>
    <g id="ytick_3">
     <g id="line2d_7">
      <g>
       <use style="stroke:#000000;stroke-width:0.8;" x="50.688" xlink:href="#ma915e08bf2" y="56.823132"/>
      </g>
     </g>
     <g id="text_8">
      <!-- 40 -->
      <g transform="translate(30.963 60.622351)scale(0.1 -0.1)">
       <defs>
        <path d="M 2419 4116 
L 825 1625 
L 2419 1625 
L 2419 4116 
z
M 2253 4666 
L 3047 4666 
L 3047 1625 
L 3713 1625 
L 3713 1100 
L 3047 1100 
L 3047 0 
L 2419 0 
L 2419 1100 
L 313 1100 
L 313 1709 
L 2253 4666 
z
" id="DejaVuSans-34" transform="scale(0.015625)"/>
       </defs>
       <use xlink:href="#DejaVuSans-34"/>
       <use x="63.623047" xlink:href="#DejaVuSans-30"/>
      </g>
     </g>
    </g>
    <g id="text_9">
     <!-- [CaCl$_2$]/ mM -->
     <g transform="translate(24.883312 113.518)rotate(-90)scale(0.1 -0.1)">
      <defs>
       <path d="M 4122 4306 
L 4122 3641 
Q 3803 3938 3442 4084 
Q 3081 4231 2675 4231 
Q 1875 4231 1450 3742 
Q 1025 3253 1025 2328 
Q 1025 1406 1450 917 
Q 1875 428 2675 428 
Q 3081 428 3442 575 
Q 3803 722 4122 1019 
L 4122 359 
Q 3791 134 3420 21 
Q 3050 -91 2638 -91 
Q 1578 -91 968 557 
Q 359 1206 359 2328 
Q 359 3453 968 4101 
Q 1578 4750 2638 4750 
Q 3056 4750 3426 4639 
Q 3797 4528 4122 4306 
z
" id="DejaVuSans-43" transform="scale(0.015625)"/>
       <path d="M 603 4863 
L 1178 4863 
L 1178 0 
L 603 0 
L 603 4863 
z
" id="DejaVuSans-6c" transform="scale(0.015625)"/>
      </defs>
      <use transform="translate(0 0.015625)" xlink:href="#DejaVuSans-5b"/>
      <use transform="translate(39.013672 0.015625)" xlink:href="#DejaVuSans-43"/>
      <use transform="translate(108.837891 0.015625)" xlink:href="#DejaVuSans-61"/>
      <use transform="translate(170.117188 0.015625)" xlink:href="#DejaVuSans-43"/>
      <use transform="translate(239.941406 0.015625)" xlink:href="#DejaVuSans-6c"/>
      <use transform="translate(268.681641 -16.390625)scale(0.7)" xlink:href="#DejaVuSans-32"/>
      <use transform="translate(315.952148 0.015625)" xlink:href="#DejaVuSans-5d"/>
      <use transform="translate(354.96582 0.015625)" xlink:href="#DejaVuSans-2f"/>
      <use transform="translate(388.657227 0.015625)" xlink:href="#DejaVuSans-20"/>
      <use transform="translate(420.444336 0.015625)" xlink:href="#DejaVuSans-6d"/>
      <use transform="translate(517.856445 0.015625)" xlink:href="#DejaVuSans-4d"/>
     </g>
    </g>
   </g>
   <g id="line2d_8">
    <path clip-path="url(#p7330d8ac14)" d="M 64.950212 119.046351 
L 70.319164 -1 
" style="fill:none;stroke:#000000;stroke-dasharray:1.85,0.8;stroke-dashoffset:0;stroke-opacity:0.5;stroke-width:0.5;"/>
   </g>
   <g id="line2d_9">
    <path clip-path="url(#p7330d8ac14)" d="M 64.950212 137.713316 
L 75.617882 113.861082 
L 126.988341 -1 
" style="fill:none;stroke:#000000;stroke-dasharray:1.85,0.8;stroke-dashoffset:0;stroke-opacity:0.5;stroke-width:0.5;"/>
   </g>
   <g id="line2d_10">
    <path clip-path="url(#p7330d8ac14)" d="M 64.950212 138.957781 
L 75.617882 129.416887 
L 203.166118 15.340986 
" style="fill:none;stroke:#000000;stroke-dasharray:1.85,0.8;stroke-dashoffset:0;stroke-opacity:0.5;stroke-width:0.5;"/>
   </g>
   <g id="line2d_11">
    <path clip-path="url(#p7330d8ac14)" d="M 64.950212 139.580013 
L 75.617882 137.194789 
L 203.166118 108.675814 
" style="fill:none;stroke:#000000;stroke-dasharray:1.85,0.8;stroke-dashoffset:0;stroke-opacity:0.5;stroke-width:0.5;"/>
   </g>
   <g id="patch_3">
    <path d="M 50.688 148.032 
L 50.688 18.504 
" style="fill:none;stroke:#000000;stroke-linecap:square;stroke-linejoin:miter;stroke-width:0.8;"/>
   </g>
   <g id="patch_4">
    <path d="M 228.096 148.032 
L 228.096 18.504 
" style="fill:none;stroke:#000000;stroke-linecap:square;stroke-linejoin:miter;stroke-width:0.8;"/>
   </g>
   <g id="patch_5">
    <path d="M 50.688 148.032 
L 228.096 148.032 
" style="fill:none;stroke:#000000;stroke-linecap:square;stroke-linejoin:miter;stroke-width:0.8;"/>
   </g>
   <g id="patch_6">
    <path d="M 50.688 18.504 
L 228.096 18.504 
" style="fill:none;stroke:#000000;stroke-linecap:square;stroke-linejoin:miter;stroke-width:0.8;"/>
   </g>
   <g id="axes_2">
    <g id="patch_7">
     <path d="M 123.014337 65.119561 
C 123.014337 65.064032 123.01397 65.008502 123.013237 64.952978 
C 123.012503 64.897453 123.011403 64.841933 123.009936 64.786423 
L 110.403765 65.119561 
L 123.014337 65.119561 
z
" style="fill:#e0e3e1;stroke:#000000;stroke-linejoin:miter;stroke-width:0.1;"/>
    </g>
    <g id="patch_8">
     <path d="M 123.009936 64.786423 
C 123.002914 64.520722 122.987494 64.25531 122.963699 63.990583 
C 122.939903 63.725857 122.907744 63.461949 122.86727 63.199255 
L 110.403765 65.119561 
L 123.009936 64.786423 
z
" style="fill:#e0e3e1;stroke:#000000;stroke-linejoin:miter;stroke-width:0.1;"/>
    </g>
    <g id="patch_9">
     <path d="M 122.86727 63.199255 
C 122.566814 61.249184 121.81284 59.396573 120.666178 57.79089 
C 119.519515 56.185207 118.011854 54.870826 116.264829 53.953789 
C 114.517804 53.036753 112.579697 52.542403 110.606871 52.510625 
C 108.634045 52.478846 106.681021 52.910517 104.905367 53.77081 
L 110.403765 65.119561 
L 122.86727 63.199255 
z
" style="fill:#44aaaa;stroke:#000000;stroke-linejoin:miter;stroke-width:0.1;"/>
    </g>
    <g id="patch_10">
     <path d="M 104.905367 53.77081 
C 104.905367 53.77081 104.905367 53.77081 104.905367 53.77081 
L 110.403765 65.119561 
L 104.905367 53.77081 
z
" style="fill:#77aadd;stroke:#000000;stroke-linejoin:miter;stroke-width:0.1;"/>
    </g>
    <g id="patch_11">
     <path d="M 104.905367 53.77081 
C 102.189575 55.086594 100.034287 57.334493 98.833858 60.103208 
C 97.633429 62.871923 97.465828 65.981622 98.361722 68.863321 
L 110.403765 65.119561 
L 104.905367 53.77081 
z
" style="fill:#117777;stroke:#000000;stroke-linejoin:miter;stroke-width:0.1;"/>
    </g>
    <g id="patch_12">
     <path d="M 98.361722 68.863321 
C 98.361722 68.863321 98.361722 68.863321 98.361722 68.863321 
L 110.403765 65.119561 
L 98.361722 68.863321 
z
" style="fill:#525fb7;stroke:#000000;stroke-linejoin:miter;stroke-width:0.1;"/>
    </g>
    <g id="patch_13">
     <path d="M 98.361722 68.863321 
C 98.361722 68.863321 98.361722 68.863321 98.361722 68.863321 
L 110.403765 65.119561 
L 98.361722 68.863321 
z
" style="fill:#a3604b;stroke:#000000;stroke-linejoin:miter;stroke-width:0.1;"/>
    </g>
    <g id="patch_14">
     <path d="M 98.361722 68.863321 
C 98.600915 69.632701 98.913294 70.377391 99.294571 71.08717 
C 99.675849 71.79695 100.124274 72.468558 100.633692 73.09278 
L 110.403765 65.119561 
L 98.361722 68.863321 
z
" style="fill:#a3604b;stroke:#000000;stroke-linejoin:miter;stroke-width:0.1;"/>
    </g>
    <g id="patch_15">
     <path d="M 100.633692 73.09278 
C 100.644559 73.106096 100.655454 73.11939 100.666375 73.132662 
C 100.677297 73.145934 100.688245 73.159183 100.699221 73.17241 
L 110.403765 65.119561 
L 100.633692 73.09278 
z
" style="fill:#f53f06;stroke:#000000;stroke-linejoin:miter;stroke-width:0.1;"/>
    </g>
    <g id="patch_16">
     <path d="M 100.699221 73.17241 
C 100.699221 73.17241 100.699221 73.17241 100.699221 73.17241 
L 110.403765 65.119561 
L 100.699221 73.17241 
z
" style="fill:#f53f06;stroke:#000000;stroke-linejoin:miter;stroke-width:0.1;"/>
    </g>
    <g id="patch_17">
     <path d="M 100.699221 73.17241 
C 100.699221 73.17241 100.699221 73.17241 100.699221 73.17241 
L 110.403765 65.119561 
L 100.699221 73.17241 
z
" style="fill:#dd7790;stroke:#000000;stroke-linejoin:miter;stroke-width:0.1;"/>
    </g>
    <g id="patch_18">
     <path d="M 100.699221 73.17241 
C 102.283958 75.082188 104.397727 76.482338 106.774388 77.196571 
C 109.151048 77.910804 111.686484 77.90783 114.061462 77.188024 
L 110.403765 65.119561 
L 100.699221 73.17241 
z
" style="fill:#771124;stroke:#000000;stroke-linejoin:miter;stroke-width:0.1;"/>
    </g>
    <g id="patch_19">
     <path d="M 114.061462 77.188024 
C 114.061462 77.188024 114.061462 77.188024 114.061462 77.188024 
L 110.403765 65.119561 
L 114.061462 77.188024 
z
" style="fill:#eeb29f;stroke:#000000;stroke-linejoin:miter;stroke-width:0.1;"/>
    </g>
    <g id="patch_20">
     <path d="M 114.061462 77.188024 
C 114.620355 77.018635 115.166806 76.810627 115.69687 76.565502 
C 116.226934 76.320378 116.73933 76.038728 117.230358 75.722587 
L 110.403765 65.119561 
L 114.061462 77.188024 
z
" style="fill:#eeb29f;stroke:#000000;stroke-linejoin:miter;stroke-width:0.1;"/>
    </g>
    <g id="patch_21">
     <path d="M 117.230358 75.722587 
C 117.230358 75.722587 117.230358 75.722587 117.230358 75.722587 
L 110.403765 65.119561 
L 117.230358 75.722587 
z
" style="fill:#ff0240;stroke:#000000;stroke-linejoin:miter;stroke-width:0.1;"/>
    </g>
    <g id="patch_22">
     <path d="M 117.230358 75.722587 
C 117.230358 75.722587 117.230358 75.722587 117.230358 75.722587 
L 110.403765 65.119561 
L 117.230358 75.722587 
z
" style="fill:#d0d1df;stroke:#000000;stroke-linejoin:miter;stroke-width:0.1;"/>
    </g>
    <g id="patch_23">
     <path d="M 117.230358 75.722587 
C 117.230458 75.722523 117.230559 75.722458 117.230659 75.722393 
C 117.23076 75.722329 117.23086 75.722264 117.230961 75.722199 
L 110.403765 65.119561 
L 117.230358 75.722587 
z
" style="fill:#6ef1c9;stroke:#000000;stroke-linejoin:miter;stroke-width:0.1;"/>
    </g>
    <g id="patch_24">
     <path d="M 117.230961 75.722199 
C 117.58372 75.495052 117.924923 75.250442 118.253297 74.989281 
C 118.581672 74.72812 118.896808 74.450734 119.19753 74.158158 
L 110.403765 65.119561 
L 117.230961 75.722199 
z
" style="fill:#6ef1c9;stroke:#000000;stroke-linejoin:miter;stroke-width:0.1;"/>
    </g>
    <g id="patch_25">
     <path d="M 119.19753 74.158158 
C 119.443053 73.919285 119.67874 73.670509 119.904007 73.412446 
C 120.129273 73.154383 120.343931 72.887249 120.547446 72.611708 
L 110.403765 65.119561 
L 119.19753 74.158158 
z
" style="fill:#6ef1c9;stroke:#000000;stroke-linejoin:miter;stroke-width:0.1;"/>
    </g>
    <g id="patch_26">
     <path d="M 120.547446 72.611708 
C 120.849248 72.203096 121.126085 71.776621 121.376442 71.334614 
C 121.6268 70.892608 121.850221 70.435878 122.045485 69.966921 
L 110.403765 65.119561 
L 120.547446 72.611708 
z
" style="fill:#689285;stroke:#000000;stroke-linejoin:miter;stroke-width:0.1;"/>
    </g>
    <g id="patch_27">
     <path d="M 122.045485 69.966921 
C 122.045485 69.966921 122.045485 69.966921 122.045485 69.966921 
L 110.403765 65.119561 
L 122.045485 69.966921 
z
" style="fill:#428317;stroke:#000000;stroke-linejoin:miter;stroke-width:0.1;"/>
    </g>
    <g id="patch_28">
     <path d="M 122.045485 69.966921 
C 122.364493 69.200769 122.607093 68.404994 122.769752 67.591179 
C 122.932411 66.777363 123.014337 65.949474 123.014337 65.119561 
L 110.403765 65.119561 
L 122.045485 69.966921 
z
" style="fill:#428317;stroke:#000000;stroke-linejoin:miter;stroke-width:0.1;"/>
    </g>
    <g id="patch_29">
     <path d="M 123.014337 65.119561 
C 123.014337 65.119561 123.014337 65.119561 123.014337 65.119561 
L 110.403765 65.119561 
L 123.014337 65.119561 
z
" style="fill:#106832;stroke:#000000;stroke-linejoin:miter;stroke-width:0.1;"/>
    </g>
    <g id="patch_30">
     <path d="M 123.014337 65.119561 
C 123.014337 65.119561 123.014337 65.119561 123.014337 65.119561 
L 110.403765 65.119561 
L 123.014337 65.119561 
z
" style="fill:#56a45e;stroke:#000000;stroke-linejoin:miter;stroke-width:0.1;"/>
    </g>
    <g id="patch_31">
     <path d="M 123.014337 65.119561 
C 123.014337 65.119561 123.014337 65.119561 123.014337 65.119561 
L 110.403765 65.119561 
L 123.014337 65.119561 
z
" style="fill:#7ac890;stroke:#000000;stroke-linejoin:miter;stroke-width:0.1;"/>
    </g>
    <g id="patch_32">
     <path d="M 123.014337 65.119561 
C 123.014337 65.119561 123.014337 65.119561 123.014337 65.119561 
L 110.403765 65.119561 
L 123.014337 65.119561 
z
" style="fill:#51a778;stroke:#000000;stroke-linejoin:miter;stroke-width:0.1;"/>
    </g>
    <g id="patch_33">
     <path d="M 123.014337 65.119561 
C 123.014337 65.119561 123.014337 65.119561 123.014337 65.119561 
L 110.403765 65.119561 
L 123.014337 65.119561 
z
" style="fill:#34be72;stroke:#000000;stroke-linejoin:miter;stroke-width:0.1;"/>
    </g>
    <g id="patch_34">
     <path d="M 123.014337 65.119561 
C 123.014337 65.119561 123.014337 65.119561 123.014337 65.119561 
L 110.403765 65.119561 
L 123.014337 65.119561 
z
" style="fill:#0ec460;stroke:#000000;stroke-linejoin:miter;stroke-width:0.1;"/>
    </g>
    <g id="patch_35">
     <path d="M 123.014337 65.119561 
C 123.014337 65.119561 123.014337 65.119561 123.014337 65.119561 
L 110.403765 65.119561 
L 123.014337 65.119561 
z
" style="fill:#069848;stroke:#000000;stroke-linejoin:miter;stroke-width:0.1;"/>
    </g>
    <g id="matplotlib.axis_3"/>
    <g id="matplotlib.axis_4"/>
   </g>
   <g id="axes_3">
    <g id="patch_36">
     <path d="M 88.228455 98.305278 
C 88.228455 98.303325 88.228454 98.301373 88.228453 98.29942 
C 88.228452 98.297468 88.228451 98.295515 88.228449 98.293563 
L 75.617882 98.305278 
L 88.228455 98.305278 
z
" style="fill:#e0e3e1;stroke:#000000;stroke-linejoin:miter;stroke-width:0.1;"/>
    </g>
    <g id="patch_37">
     <path d="M 88.228449 98.293563 
C 88.22832 98.154018 88.225874 98.014486 88.221113 97.875023 
C 88.216352 97.73556 88.209276 97.596186 88.199889 97.456958 
L 75.617882 98.305278 
L 88.228449 98.293563 
z
" style="fill:#e0e3e1;stroke:#000000;stroke-linejoin:miter;stroke-width:0.1;"/>
    </g>
    <g id="patch_38">
     <path d="M 88.199889 97.456958 
C 88.060417 95.388362 87.412931 93.385734 86.314967 91.627036 
C 85.217003 89.868338 83.702079 88.407256 81.904816 87.373626 
L 75.617882 98.305278 
L 88.199889 97.456958 
z
" style="fill:#44aaaa;stroke:#000000;stroke-linejoin:miter;stroke-width:0.1;"/>
    </g>
    <g id="patch_39">
     <path d="M 81.904816 87.373626 
C 81.904132 87.373233 81.903449 87.37284 81.902765 87.372447 
C 81.902081 87.372054 81.901398 87.371661 81.900714 87.371269 
L 75.617882 98.305278 
L 81.904816 87.373626 
z
" style="fill:#77aadd;stroke:#000000;stroke-linejoin:miter;stroke-width:0.1;"/>
    </g>
    <g id="patch_40">
     <path d="M 81.900714 87.371269 
C 80.332807 86.470328 78.5893 85.917088 76.788791 85.749183 
C 74.988282 85.581278 73.172543 85.802603 71.465087 86.398102 
C 69.757631 86.993602 68.198071 87.94946 66.892494 89.200656 
C 65.586916 90.451853 64.565611 91.96936 63.89805 93.649951 
C 63.230489 95.330543 62.93216 97.135229 63.023357 98.941249 
C 63.114553 100.747269 63.593159 102.512723 64.426619 104.117519 
C 65.260078 105.722315 66.429054 107.129222 67.854029 108.242537 
C 69.279005 109.355852 70.92692 110.149746 72.685678 110.570216 
L 75.617882 98.305278 
L 81.900714 87.371269 
z
" style="fill:#117777;stroke:#000000;stroke-linejoin:miter;stroke-width:0.1;"/>
    </g>
    <g id="patch_41">
     <path d="M 72.685678 110.570216 
C 72.686805 110.570486 72.687933 110.570755 72.68906 110.571024 
C 72.690188 110.571293 72.691315 110.571562 72.692443 110.571831 
L 75.617882 98.305278 
L 72.685678 110.570216 
z
" style="fill:#525fb7;stroke:#000000;stroke-linejoin:miter;stroke-width:0.1;"/>
    </g>
    <g id="patch_42">
     <path d="M 72.692443 110.571831 
C 72.695692 110.572606 72.698941 110.57338 72.70219 110.574152 
C 72.70544 110.574924 72.70869 110.575695 72.71194 110.576465 
L 75.617882 98.305278 
L 72.692443 110.571831 
z
" style="fill:#a3604b;stroke:#000000;stroke-linejoin:miter;stroke-width:0.1;"/>
    </g>
    <g id="patch_43">
     <path d="M 72.71194 110.576465 
C 73.014355 110.64808 73.319314 110.708491 73.626192 110.757575 
C 73.93307 110.806659 74.241658 110.844382 74.551323 110.870666 
L 75.617882 98.305278 
L 72.71194 110.576465 
z
" style="fill:#a3604b;stroke:#000000;stroke-linejoin:miter;stroke-width:0.1;"/>
    </g>
    <g id="patch_44">
     <path d="M 74.551323 110.870666 
C 74.551323 110.870666 74.551323 110.870666 74.551323 110.870666 
L 75.617882 98.305278 
L 74.551323 110.870666 
z
" style="fill:#f53f06;stroke:#000000;stroke-linejoin:miter;stroke-width:0.1;"/>
    </g>
    <g id="patch_45">
     <path d="M 74.551323 110.870666 
C 76.17208 111.008237 77.804252 110.830936 79.357665 110.348557 
C 80.911078 109.866177 82.356589 109.087771 83.614338 108.056341 
L 75.617882 98.305278 
L 74.551323 110.870666 
z
" style="fill:#f53f06;stroke:#000000;stroke-linejoin:miter;stroke-width:0.1;"/>
    </g>
    <g id="patch_46">
     <path d="M 83.614338 108.056341 
C 83.614338 108.056341 83.614338 108.056341 83.614338 108.056341 
L 75.617882 98.305278 
L 83.614338 108.056341 
z
" style="fill:#dd7790;stroke:#000000;stroke-linejoin:miter;stroke-width:0.1;"/>
    </g>
    <g id="patch_47">
     <path d="M 83.614338 108.056341 
C 84.601019 107.247203 85.459198 106.292973 86.159516 105.226297 
C 86.859833 104.15962 87.394211 102.992801 87.744366 101.765758 
L 75.617882 98.305278 
L 83.614338 108.056341 
z
" style="fill:#771124;stroke:#000000;stroke-linejoin:miter;stroke-width:0.1;"/>
    </g>
    <g id="patch_48">
     <path d="M 87.744366 101.765758 
C 87.744366 101.765758 87.744366 101.765758 87.744366 101.765758 
L 75.617882 98.305278 
L 87.744366 101.765758 
z
" style="fill:#eeb29f;stroke:#000000;stroke-linejoin:miter;stroke-width:0.1;"/>
    </g>
    <g id="patch_49">
     <path d="M 87.744366 101.765758 
C 87.744366 101.765758 87.744366 101.765758 87.744366 101.765758 
L 75.617882 98.305278 
L 87.744366 101.765758 
z
" style="fill:#eeb29f;stroke:#000000;stroke-linejoin:miter;stroke-width:0.1;"/>
    </g>
    <g id="patch_50">
     <path d="M 87.744366 101.765758 
C 87.744366 101.765758 87.744366 101.765758 87.744366 101.765758 
L 75.617882 98.305278 
L 87.744366 101.765758 
z
" style="fill:#ff0240;stroke:#000000;stroke-linejoin:miter;stroke-width:0.1;"/>
    </g>
    <g id="patch_51">
     <path d="M 87.744366 101.765758 
C 87.744366 101.765758 87.744366 101.765758 87.744366 101.765758 
L 75.617882 98.305278 
L 87.744366 101.765758 
z
" style="fill:#d0d1df;stroke:#000000;stroke-linejoin:miter;stroke-width:0.1;"/>
    </g>
    <g id="patch_52">
     <path d="M 87.744366 101.765758 
C 87.74476 101.764378 87.745153 101.762999 87.745547 101.761619 
C 87.74594 101.76024 87.746333 101.75886 87.746725 101.75748 
L 75.617882 98.305278 
L 87.744366 101.765758 
z
" style="fill:#6ef1c9;stroke:#000000;stroke-linejoin:miter;stroke-width:0.1;"/>
    </g>
    <g id="patch_53">
     <path d="M 87.746725 101.75748 
C 87.765478 101.691596 87.783693 101.625561 87.801369 101.55938 
C 87.819045 101.4932 87.836182 101.426876 87.852778 101.360416 
L 75.617882 98.305278 
L 87.746725 101.75748 
z
" style="fill:#6ef1c9;stroke:#000000;stroke-linejoin:miter;stroke-width:0.1;"/>
    </g>
    <g id="patch_54">
     <path d="M 87.852778 101.360416 
C 87.856282 101.346384 87.859761 101.332346 87.863217 101.318301 
C 87.866673 101.304257 87.870104 101.290207 87.873512 101.27615 
L 75.617882 98.305278 
L 87.852778 101.360416 
z
" style="fill:#6ef1c9;stroke:#000000;stroke-linejoin:miter;stroke-width:0.1;"/>
    </g>
    <g id="patch_55">
     <path d="M 87.873512 101.27615 
C 87.884402 101.231225 87.895045 101.186241 87.905441 101.141199 
C 87.915836 101.096157 87.925984 101.051058 87.935883 101.005904 
L 75.617882 98.305278 
L 87.873512 101.27615 
z
" style="fill:#689285;stroke:#000000;stroke-linejoin:miter;stroke-width:0.1;"/>
    </g>
    <g id="patch_56">
     <path d="M 87.935883 101.005904 
C 87.935883 101.005904 87.935883 101.005904 87.935883 101.005904 
L 75.617882 98.305278 
L 87.935883 101.005904 
z
" style="fill:#428317;stroke:#000000;stroke-linejoin:miter;stroke-width:0.1;"/>
    </g>
    <g id="patch_57">
     <path d="M 87.935883 101.005904 
C 88.032378 100.565776 88.105214 100.120793 88.154079 99.672869 
C 88.202944 99.224945 88.227767 98.774723 88.228441 98.324142 
L 75.617882 98.305278 
L 87.935883 101.005904 
z
" style="fill:#428317;stroke:#000000;stroke-linejoin:miter;stroke-width:0.1;"/>
    </g>
    <g id="patch_58">
     <path d="M 88.228441 98.324142 
C 88.228441 98.324142 88.228441 98.324142 88.228441 98.324142 
L 75.617882 98.305278 
L 88.228441 98.324142 
z
" style="fill:#106832;stroke:#000000;stroke-linejoin:miter;stroke-width:0.1;"/>
    </g>
    <g id="patch_59">
     <path d="M 88.228441 98.324142 
C 88.228441 98.324142 88.228441 98.324142 88.228441 98.324142 
L 75.617882 98.305278 
L 88.228441 98.324142 
z
" style="fill:#56a45e;stroke:#000000;stroke-linejoin:miter;stroke-width:0.1;"/>
    </g>
    <g id="patch_60">
     <path d="M 88.228441 98.324142 
C 88.228441 98.324142 88.228441 98.324142 88.228441 98.324142 
L 75.617882 98.305278 
L 88.228441 98.324142 
z
" style="fill:#7ac890;stroke:#000000;stroke-linejoin:miter;stroke-width:0.1;"/>
    </g>
    <g id="patch_61">
     <path d="M 88.228441 98.324142 
C 88.228442 98.322991 88.228444 98.32184 88.228445 98.320689 
C 88.228447 98.319538 88.228448 98.318386 88.228449 98.317235 
L 75.617882 98.305278 
L 88.228441 98.324142 
z
" style="fill:#51a778;stroke:#000000;stroke-linejoin:miter;stroke-width:0.1;"/>
    </g>
    <g id="patch_62">
     <path d="M 88.228449 98.317235 
C 88.22845 98.316412 88.22845 98.315588 88.228451 98.314765 
C 88.228452 98.313941 88.228452 98.313118 88.228453 98.312294 
L 75.617882 98.305278 
L 88.228449 98.317235 
z
" style="fill:#34be72;stroke:#000000;stroke-linejoin:miter;stroke-width:0.1;"/>
    </g>
    <g id="patch_63">
     <path d="M 88.228453 98.312294 
C 88.228453 98.311125 88.228454 98.309956 88.228454 98.308788 
C 88.228454 98.307619 88.228455 98.30645 88.228455 98.305281 
L 75.617882 98.305278 
L 88.228453 98.312294 
z
" style="fill:#0ec460;stroke:#000000;stroke-linejoin:miter;stroke-width:0.1;"/>
    </g>
    <g id="patch_64">
     <path d="M 88.228455 98.305281 
C 88.228455 98.305281 88.228455 98.305281 88.228455 98.305281 
L 75.617882 98.305278 
L 88.228455 98.305281 
z
" style="fill:#069848;stroke:#000000;stroke-linejoin:miter;stroke-width:0.1;"/>
    </g>
    <g id="matplotlib.axis_5"/>
    <g id="matplotlib.axis_6"/>
   </g>
   <g id="axes_4">
    <g id="patch_65">
     <path d="M 88.228455 31.933845 
C 88.228455 31.93247 88.228454 31.931096 88.228454 31.929721 
C 88.228454 31.928347 88.228453 31.926972 88.228452 31.925598 
L 75.617882 31.933845 
L 88.228455 31.933845 
z
" style="fill:#e0e3e1;stroke:#000000;stroke-linejoin:miter;stroke-width:0.1;"/>
    </g>
    <g id="patch_66">
     <path d="M 88.228452 31.925598 
C 88.228452 31.925598 88.228452 31.925598 88.228452 31.925598 
L 75.617882 31.933845 
L 88.228452 31.925598 
z
" style="fill:#e0e3e1;stroke:#000000;stroke-linejoin:miter;stroke-width:0.1;"/>
    </g>
    <g id="patch_67">
     <path d="M 88.228452 31.925598 
C 88.227671 30.731723 88.057354 29.543986 87.722606 28.398001 
C 87.387859 27.252016 86.892062 26.159353 86.250081 25.152776 
L 75.617882 31.933845 
L 88.228452 31.925598 
z
" style="fill:#44aaaa;stroke:#000000;stroke-linejoin:miter;stroke-width:0.1;"/>
    </g>
    <g id="patch_68">
     <path d="M 86.250081 25.152776 
C 86.250081 25.152776 86.250081 25.152776 86.250081 25.152776 
L 75.617882 31.933845 
L 86.250081 25.152776 
z
" style="fill:#77aadd;stroke:#000000;stroke-linejoin:miter;stroke-width:0.1;"/>
    </g>
    <g id="patch_69">
     <path d="M 86.250081 25.152776 
C 84.989037 23.175555 83.201102 21.588752 81.088096 20.571482 
C 78.97509 19.554211 76.619625 19.146246 74.28758 19.393636 
C 71.955536 19.641026 69.738088 20.5341 67.885539 21.972048 
C 66.03299 23.409996 64.617768 25.336599 63.799621 27.534387 
C 62.981474 29.732174 62.792389 32.115218 63.25371 34.414526 
C 63.715031 36.713834 64.808721 38.839509 66.411327 40.55161 
C 68.013933 42.26371 70.062798 43.495298 72.326649 44.107353 
C 74.5905 44.719409 76.980828 44.688003 79.227817 44.01668 
L 75.617882 31.933845 
L 86.250081 25.152776 
z
" style="fill:#117777;stroke:#000000;stroke-linejoin:miter;stroke-width:0.1;"/>
    </g>
    <g id="patch_70">
     <path d="M 79.227817 44.01668 
C 79.233334 44.015032 79.23885 44.013379 79.244365 44.011723 
C 79.24988 44.010068 79.255394 44.008408 79.260907 44.006744 
L 75.617882 31.933845 
L 79.227817 44.01668 
z
" style="fill:#525fb7;stroke:#000000;stroke-linejoin:miter;stroke-width:0.1;"/>
    </g>
    <g id="patch_71">
     <path d="M 79.260907 44.006744 
C 79.260907 44.006744 79.260907 44.006744 79.260907 44.006744 
L 75.617882 31.933845 
L 79.260907 44.006744 
z
" style="fill:#a3604b;stroke:#000000;stroke-linejoin:miter;stroke-width:0.1;"/>
    </g>
    <g id="patch_72">
     <path d="M 79.260907 44.006744 
C 79.32762 43.986613 79.394166 43.96593 79.460536 43.944696 
C 79.526907 43.923462 79.5931 43.901678 79.65911 43.879347 
L 75.617882 31.933845 
L 79.260907 44.006744 
z
" style="fill:#a3604b;stroke:#000000;stroke-linejoin:miter;stroke-width:0.1;"/>
    </g>
    <g id="patch_73">
     <path d="M 79.65911 43.879347 
C 79.65911 43.879347 79.65911 43.879347 79.65911 43.879347 
L 75.617882 31.933845 
L 79.65911 43.879347 
z
" style="fill:#f53f06;stroke:#000000;stroke-linejoin:miter;stroke-width:0.1;"/>
    </g>
    <g id="patch_74">
     <path d="M 79.65911 43.879347 
C 81.463527 43.268903 83.106394 42.257472 84.463976 40.921233 
C 85.821558 39.584995 86.858893 37.958359 87.497851 36.163842 
L 75.617882 31.933845 
L 79.65911 43.879347 
z
" style="fill:#f53f06;stroke:#000000;stroke-linejoin:miter;stroke-width:0.1;"/>
    </g>
    <g id="patch_75">
     <path d="M 87.497851 36.163842 
C 87.497851 36.163842 87.497851 36.163842 87.497851 36.163842 
L 75.617882 31.933845 
L 87.497851 36.163842 
z
" style="fill:#dd7790;stroke:#000000;stroke-linejoin:miter;stroke-width:0.1;"/>
    </g>
    <g id="patch_76">
     <path d="M 87.497851 36.163842 
C 87.739153 35.486143 87.922024 34.789038 88.044462 34.080159 
C 88.166899 33.371279 88.228455 32.65322 88.228455 31.933845 
L 75.617882 31.933845 
L 87.497851 36.163842 
z
" style="fill:#771124;stroke:#000000;stroke-linejoin:miter;stroke-width:0.1;"/>
    </g>
    <g id="patch_77">
     <path d="M 88.228455 31.933845 
C 88.228455 31.933845 88.228455 31.933845 88.228455 31.933845 
L 75.617882 31.933845 
L 88.228455 31.933845 
z
" style="fill:#eeb29f;stroke:#000000;stroke-linejoin:miter;stroke-width:0.1;"/>
    </g>
    <g id="patch_78">
     <path d="M 88.228455 31.933845 
C 88.228455 31.933845 88.228455 31.933845 88.228455 31.933845 
L 75.617882 31.933845 
L 88.228455 31.933845 
z
" style="fill:#eeb29f;stroke:#000000;stroke-linejoin:miter;stroke-width:0.1;"/>
    </g>
    <g id="patch_79">
     <path d="M 88.228455 31.933845 
C 88.228455 31.933845 88.228455 31.933845 88.228455 31.933845 
L 75.617882 31.933845 
L 88.228455 31.933845 
z
" style="fill:#ff0240;stroke:#000000;stroke-linejoin:miter;stroke-width:0.1;"/>
    </g>
    <g id="patch_80">
     <path d="M 88.228455 31.933845 
C 88.228455 31.933845 88.228455 31.933845 88.228455 31.933845 
L 75.617882 31.933845 
L 88.228455 31.933845 
z
" style="fill:#d0d1df;stroke:#000000;stroke-linejoin:miter;stroke-width:0.1;"/>
    </g>
    <g id="patch_81">
     <path d="M 88.228455 31.933845 
C 88.228455 31.933845 88.228455 31.933845 88.228455 31.933845 
L 75.617882 31.933845 
L 88.228455 31.933845 
z
" style="fill:#6ef1c9;stroke:#000000;stroke-linejoin:miter;stroke-width:0.1;"/>
    </g>
    <g id="patch_82">
     <path d="M 88.228455 31.933845 
C 88.228455 31.933845 88.228455 31.933845 88.228455 31.933845 
L 75.617882 31.933845 
L 88.228455 31.933845 
z
" style="fill:#6ef1c9;stroke:#000000;stroke-linejoin:miter;stroke-width:0.1;"/>
    </g>
    <g id="patch_83">
     <path d="M 88.228455 31.933845 
C 88.228455 31.933845 88.228455 31.933845 88.228455 31.933845 
L 75.617882 31.933845 
L 88.228455 31.933845 
z
" style="fill:#6ef1c9;stroke:#000000;stroke-linejoin:miter;stroke-width:0.1;"/>
    </g>
    <g id="patch_84">
     <path d="M 88.228455 31.933845 
C 88.228455 31.933845 88.228455 31.933845 88.228455 31.933845 
L 75.617882 31.933845 
L 88.228455 31.933845 
z
" style="fill:#689285;stroke:#000000;stroke-linejoin:miter;stroke-width:0.1;"/>
    </g>
    <g id="patch_85">
     <path d="M 88.228455 31.933845 
C 88.228455 31.933845 88.228455 31.933845 88.228455 31.933845 
L 75.617882 31.933845 
L 88.228455 31.933845 
z
" style="fill:#428317;stroke:#000000;stroke-linejoin:miter;stroke-width:0.1;"/>
    </g>
    <g id="patch_86">
     <path d="M 88.228455 31.933845 
C 88.228455 31.933845 88.228455 31.933845 88.228455 31.933845 
L 75.617882 31.933845 
L 88.228455 31.933845 
z
" style="fill:#428317;stroke:#000000;stroke-linejoin:miter;stroke-width:0.1;"/>
    </g>
    <g id="patch_87">
     <path d="M 88.228455 31.933845 
C 88.228455 31.933845 88.228455 31.933845 88.228455 31.933845 
L 75.617882 31.933845 
L 88.228455 31.933845 
z
" style="fill:#106832;stroke:#000000;stroke-linejoin:miter;stroke-width:0.1;"/>
    </g>
    <g id="patch_88">
     <path d="M 88.228455 31.933845 
C 88.228455 31.933845 88.228455 31.933845 88.228455 31.933845 
L 75.617882 31.933845 
L 88.228455 31.933845 
z
" style="fill:#56a45e;stroke:#000000;stroke-linejoin:miter;stroke-width:0.1;"/>
    </g>
    <g id="patch_89">
     <path d="M 88.228455 31.933845 
C 88.228455 31.933845 88.228455 31.933845 88.228455 31.933845 
L 75.617882 31.933845 
L 88.228455 31.933845 
z
" style="fill:#7ac890;stroke:#000000;stroke-linejoin:miter;stroke-width:0.1;"/>
    </g>
    <g id="patch_90">
     <path d="M 88.228455 31.933845 
C 88.228455 31.933845 88.228455 31.933845 88.228455 31.933845 
L 75.617882 31.933845 
L 88.228455 31.933845 
z
" style="fill:#51a778;stroke:#000000;stroke-linejoin:miter;stroke-width:0.1;"/>
    </g>
    <g id="patch_91">
     <path d="M 88.228455 31.933845 
C 88.228455 31.933845 88.228455 31.933845 88.228455 31.933845 
L 75.617882 31.933845 
L 88.228455 31.933845 
z
" style="fill:#34be72;stroke:#000000;stroke-linejoin:miter;stroke-width:0.1;"/>
    </g>
    <g id="patch_92">
     <path d="M 88.228455 31.933845 
C 88.228455 31.933845 88.228455 31.933845 88.228455 31.933845 
L 75.617882 31.933845 
L 88.228455 31.933845 
z
" style="fill:#0ec460;stroke:#000000;stroke-linejoin:miter;stroke-width:0.1;"/>
    </g>
    <g id="patch_93">
     <path d="M 88.228455 31.933845 
C 88.228455 31.933845 88.228455 31.933845 88.228455 31.933845 
L 75.617882 31.933845 
L 88.228455 31.933845 
z
" style="fill:#069848;stroke:#000000;stroke-linejoin:miter;stroke-width:0.1;"/>
    </g>
    <g id="matplotlib.axis_7"/>
    <g id="matplotlib.axis_8"/>
   </g>
   <g id="axes_5">
    <g id="patch_94">
     <path d="M 169.395513 98.305278 
C 169.395513 98.24384 169.395064 98.182402 169.394167 98.120971 
C 169.393269 98.059539 169.391922 97.998115 169.390126 97.936703 
L 156.784941 98.305278 
L 169.395513 98.305278 
z
" style="fill:#e0e3e1;stroke:#000000;stroke-linejoin:miter;stroke-width:0.1;"/>
    </g>
    <g id="patch_95">
     <path d="M 169.390126 97.936703 
C 169.388154 97.869258 169.385641 97.80183 169.382586 97.734426 
C 169.379532 97.667021 169.375937 97.599643 169.371801 97.532296 
L 156.784941 98.305278 
L 169.390126 97.936703 
z
" style="fill:#e0e3e1;stroke:#000000;stroke-linejoin:miter;stroke-width:0.1;"/>
    </g>
    <g id="patch_96">
     <path d="M 169.371801 97.532296 
C 169.25441 95.620764 168.703099 93.760855 167.759829 92.094129 
C 166.816559 90.427403 165.505885 88.997249 163.927565 87.912518 
C 162.349246 86.827788 160.544366 86.116718 158.650302 85.833431 
C 156.756237 85.550144 154.822292 85.702013 152.995663 86.277481 
L 156.784941 98.305278 
L 169.371801 97.532296 
z
" style="fill:#44aaaa;stroke:#000000;stroke-linejoin:miter;stroke-width:0.1;"/>
    </g>
    <g id="patch_97">
     <path d="M 152.995663 86.277481 
C 152.994339 86.277898 152.993016 86.278315 152.991692 86.278732 
C 152.990368 86.27915 152.989045 86.279568 152.987721 86.279986 
L 156.784941 98.305278 
L 152.995663 86.277481 
z
" style="fill:#77aadd;stroke:#000000;stroke-linejoin:miter;stroke-width:0.1;"/>
    </g>
    <g id="patch_98">
     <path d="M 152.987721 86.279986 
C 150.895131 86.940762 149.010816 88.136449 147.521783 89.748384 
C 146.032749 91.360319 144.98994 93.333353 144.496848 95.471674 
L 156.784941 98.305278 
L 152.987721 86.279986 
z
" style="fill:#117777;stroke:#000000;stroke-linejoin:miter;stroke-width:0.1;"/>
    </g>
    <g id="patch_99">
     <path d="M 144.496848 95.471674 
C 144.496564 95.472906 144.49628 95.474138 144.495997 95.47537 
C 144.495713 95.476602 144.49543 95.477834 144.495146 95.479066 
L 156.784941 98.305278 
L 144.496848 95.471674 
z
" style="fill:#525fb7;stroke:#000000;stroke-linejoin:miter;stroke-width:0.1;"/>
    </g>
    <g id="patch_100">
     <path d="M 144.495146 95.479066 
C 144.495146 95.479066 144.495146 95.479066 144.495146 95.479066 
L 156.784941 98.305278 
L 144.495146 95.479066 
z
" style="fill:#a3604b;stroke:#000000;stroke-linejoin:miter;stroke-width:0.1;"/>
    </g>
    <g id="patch_101">
     <path d="M 144.495146 95.479066 
C 144.251389 96.539047 144.145785 97.626124 144.180968 98.713203 
C 144.216151 99.800281 144.391826 100.878255 144.703614 101.920256 
L 156.784941 98.305278 
L 144.495146 95.479066 
z
" style="fill:#a3604b;stroke:#000000;stroke-linejoin:miter;stroke-width:0.1;"/>
    </g>
    <g id="patch_102">
     <path d="M 144.703614 101.920256 
C 144.755582 102.093933 144.811288 102.266468 144.870695 102.437743 
C 144.930102 102.609018 144.993195 102.778991 145.05993 102.947546 
L 156.784941 98.305278 
L 144.703614 101.920256 
z
" style="fill:#f53f06;stroke:#000000;stroke-linejoin:miter;stroke-width:0.1;"/>
    </g>
    <g id="patch_103">
     <path d="M 145.05993 102.947546 
C 145.748864 104.68759 146.816581 106.252649 148.185402 107.52886 
C 149.554223 108.80507 151.190126 109.760712 152.974094 110.326258 
L 156.784941 98.305278 
L 145.05993 102.947546 
z
" style="fill:#f53f06;stroke:#000000;stroke-linejoin:miter;stroke-width:0.1;"/>
    </g>
    <g id="patch_104">
     <path d="M 152.974094 110.326258 
C 152.974094 110.326258 152.974094 110.326258 152.974094 110.326258 
L 156.784941 98.305278 
L 152.974094 110.326258 
z
" style="fill:#dd7790;stroke:#000000;stroke-linejoin:miter;stroke-width:0.1;"/>
    </g>
    <g id="patch_105">
     <path d="M 152.974094 110.326258 
C 155.73089 111.200208 158.706155 111.099776 161.397742 110.041913 
C 164.089329 108.984049 166.336788 107.031816 167.760807 104.514698 
L 156.784941 98.305278 
L 152.974094 110.326258 
z
" style="fill:#771124;stroke:#000000;stroke-linejoin:miter;stroke-width:0.1;"/>
    </g>
    <g id="patch_106">
     <path d="M 167.760807 104.514698 
C 167.760807 104.514698 167.760807 104.514698 167.760807 104.514698 
L 156.784941 98.305278 
L 167.760807 104.514698 
z
" style="fill:#eeb29f;stroke:#000000;stroke-linejoin:miter;stroke-width:0.1;"/>
    </g>
    <g id="patch_107">
     <path d="M 167.760807 104.514698 
C 167.760807 104.514698 167.760807 104.514698 167.760807 104.514698 
L 156.784941 98.305278 
L 167.760807 104.514698 
z
" style="fill:#eeb29f;stroke:#000000;stroke-linejoin:miter;stroke-width:0.1;"/>
    </g>
    <g id="patch_108">
     <path d="M 167.760807 104.514698 
C 167.761064 104.514245 167.76132 104.513792 167.761576 104.513339 
C 167.761832 104.512886 167.762088 104.512433 167.762344 104.511981 
L 156.784941 98.305278 
L 167.760807 104.514698 
z
" style="fill:#ff0240;stroke:#000000;stroke-linejoin:miter;stroke-width:0.1;"/>
    </g>
    <g id="patch_109">
     <path d="M 167.762344 104.511981 
C 167.762344 104.511981 167.762344 104.511981 167.762344 104.511981 
L 156.784941 98.305278 
L 167.762344 104.511981 
z
" style="fill:#d0d1df;stroke:#000000;stroke-linejoin:miter;stroke-width:0.1;"/>
    </g>
    <g id="patch_110">
     <path d="M 167.762344 104.511981 
C 167.762437 104.511816 167.76253 104.511651 167.762623 104.511487 
C 167.762716 104.511322 167.76281 104.511157 167.762903 104.510993 
L 156.784941 98.305278 
L 167.762344 104.511981 
z
" style="fill:#6ef1c9;stroke:#000000;stroke-linejoin:miter;stroke-width:0.1;"/>
    </g>
    <g id="patch_111">
     <path d="M 167.762903 104.510993 
C 168.125044 103.870362 168.430414 103.199259 168.675515 102.505372 
C 168.920616 101.811485 169.104508 101.097473 169.225086 100.371515 
L 156.784941 98.305278 
L 167.762903 104.510993 
z
" style="fill:#6ef1c9;stroke:#000000;stroke-linejoin:miter;stroke-width:0.1;"/>
    </g>
    <g id="patch_112">
     <path d="M 169.225086 100.371515 
C 169.255725 100.187045 169.282258 100.001916 169.304664 99.816266 
C 169.327069 99.630616 169.345343 99.44449 169.359471 99.258027 
L 156.784941 98.305278 
L 169.225086 100.371515 
z
" style="fill:#6ef1c9;stroke:#000000;stroke-linejoin:miter;stroke-width:0.1;"/>
    </g>
    <g id="patch_113">
     <path d="M 169.359471 99.258027 
C 169.361573 99.23029 169.363582 99.202546 169.3655 99.174796 
C 169.367418 99.147045 169.369245 99.119289 169.370979 99.091526 
L 156.784941 98.305278 
L 169.359471 99.258027 
z
" style="fill:#689285;stroke:#000000;stroke-linejoin:miter;stroke-width:0.1;"/>
    </g>
    <g id="patch_114">
     <path d="M 169.370979 99.091526 
C 169.370979 99.091526 169.370979 99.091526 169.370979 99.091526 
L 156.784941 98.305278 
L 169.370979 99.091526 
z
" style="fill:#428317;stroke:#000000;stroke-linejoin:miter;stroke-width:0.1;"/>
    </g>
    <g id="patch_115">
     <path d="M 169.370979 99.091526 
C 169.379155 98.960652 169.385289 98.829657 169.389378 98.698591 
C 169.393468 98.567526 169.395514 98.436404 169.395513 98.305274 
L 156.784941 98.305278 
L 169.370979 99.091526 
z
" style="fill:#428317;stroke:#000000;stroke-linejoin:miter;stroke-width:0.1;"/>
    </g>
    <g id="patch_116">
     <path d="M 169.395513 98.305274 
C 169.395513 98.305274 169.395513 98.305274 169.395513 98.305274 
L 156.784941 98.305278 
L 169.395513 98.305274 
z
" style="fill:#106832;stroke:#000000;stroke-linejoin:miter;stroke-width:0.1;"/>
    </g>
    <g id="patch_117">
     <path d="M 169.395513 98.305274 
C 169.395513 98.305274 169.395513 98.305274 169.395513 98.305274 
L 156.784941 98.305278 
L 169.395513 98.305274 
z
" style="fill:#56a45e;stroke:#000000;stroke-linejoin:miter;stroke-width:0.1;"/>
    </g>
    <g id="patch_118">
     <path d="M 169.395513 98.305274 
C 169.395513 98.305274 169.395513 98.305274 169.395513 98.305274 
L 156.784941 98.305278 
L 169.395513 98.305274 
z
" style="fill:#7ac890;stroke:#000000;stroke-linejoin:miter;stroke-width:0.1;"/>
    </g>
    <g id="patch_119">
     <path d="M 169.395513 98.305274 
C 169.395513 98.305274 169.395513 98.305274 169.395513 98.305274 
L 156.784941 98.305278 
L 169.395513 98.305274 
z
" style="fill:#51a778;stroke:#000000;stroke-linejoin:miter;stroke-width:0.1;"/>
    </g>
    <g id="patch_120">
     <path d="M 169.395513 98.305274 
C 169.395513 98.305274 169.395513 98.305274 169.395513 98.305274 
L 156.784941 98.305278 
L 169.395513 98.305274 
z
" style="fill:#34be72;stroke:#000000;stroke-linejoin:miter;stroke-width:0.1;"/>
    </g>
    <g id="patch_121">
     <path d="M 169.395513 98.305274 
C 169.395513 98.305274 169.395513 98.305274 169.395513 98.305274 
L 156.784941 98.305278 
L 169.395513 98.305274 
z
" style="fill:#0ec460;stroke:#000000;stroke-linejoin:miter;stroke-width:0.1;"/>
    </g>
    <g id="patch_122">
     <path d="M 169.395513 98.305274 
C 169.395513 98.305274 169.395513 98.305274 169.395513 98.305274 
L 156.784941 98.305278 
L 169.395513 98.305274 
z
" style="fill:#069848;stroke:#000000;stroke-linejoin:miter;stroke-width:0.1;"/>
    </g>
    <g id="matplotlib.axis_9"/>
    <g id="matplotlib.axis_10"/>
   </g>
   <g id="axes_6">
    <g id="patch_123">
     <path d="M 169.395513 31.933845 
C 169.395513 31.933845 169.395513 31.933845 169.395513 31.933845 
L 156.784941 31.933845 
L 169.395513 31.933845 
z
" style="fill:#e0e3e1;stroke:#000000;stroke-linejoin:miter;stroke-width:0.1;"/>
    </g>
    <g id="patch_124">
     <path d="M 169.395513 31.933845 
C 169.395513 31.933845 169.395513 31.933845 169.395513 31.933845 
L 156.784941 31.933845 
L 169.395513 31.933845 
z
" style="fill:#e0e3e1;stroke:#000000;stroke-linejoin:miter;stroke-width:0.1;"/>
    </g>
    <g id="patch_125">
     <path d="M 169.395513 31.933845 
C 169.395513 30.235458 169.052407 28.554445 168.386829 26.991907 
C 167.721251 25.42937 166.746818 24.017276 165.522138 22.840554 
C 164.297457 21.663832 162.847583 20.746556 161.259718 20.143895 
C 159.671853 19.541234 157.978481 19.265517 156.281448 19.333328 
L 156.784941 31.933845 
L 169.395513 31.933845 
z
" style="fill:#44aaaa;stroke:#000000;stroke-linejoin:miter;stroke-width:0.1;"/>
    </g>
    <g id="patch_126">
     <path d="M 156.281448 19.333328 
C 154.112339 19.420001 152.00192 20.065324 150.155281 21.206583 
C 148.308643 22.347842 146.787607 23.94683 145.73999 25.848157 
L 156.784941 31.933845 
L 156.281448 19.333328 
z
" style="fill:#77aadd;stroke:#000000;stroke-linejoin:miter;stroke-width:0.1;"/>
    </g>
    <g id="patch_127">
     <path d="M 145.73999 25.848157 
C 144.921624 27.333415 144.411196 28.968599 144.239314 30.655657 
C 144.067431 32.342716 144.237599 34.047242 144.739614 35.667023 
L 156.784941 31.933845 
L 145.73999 25.848157 
z
" style="fill:#117777;stroke:#000000;stroke-linejoin:miter;stroke-width:0.1;"/>
    </g>
    <g id="patch_128">
     <path d="M 144.739614 35.667023 
C 144.739614 35.667023 144.739614 35.667023 144.739614 35.667023 
L 156.784941 31.933845 
L 144.739614 35.667023 
z
" style="fill:#525fb7;stroke:#000000;stroke-linejoin:miter;stroke-width:0.1;"/>
    </g>
    <g id="patch_129">
     <path d="M 144.739614 35.667023 
C 144.739614 35.667023 144.739614 35.667023 144.739614 35.667023 
L 156.784941 31.933845 
L 144.739614 35.667023 
z
" style="fill:#a3604b;stroke:#000000;stroke-linejoin:miter;stroke-width:0.1;"/>
    </g>
    <g id="patch_130">
     <path d="M 144.739614 35.667023 
C 144.875642 36.105928 145.035559 36.53707 145.218647 36.95852 
C 145.401735 37.37997 145.607721 37.791098 145.835684 38.190065 
L 156.784941 31.933845 
L 144.739614 35.667023 
z
" style="fill:#a3604b;stroke:#000000;stroke-linejoin:miter;stroke-width:0.1;"/>
    </g>
    <g id="patch_131">
     <path d="M 145.835684 38.190065 
C 145.835684 38.190065 145.835684 38.190065 145.835684 38.190065 
L 156.784941 31.933845 
L 145.835684 38.190065 
z
" style="fill:#f53f06;stroke:#000000;stroke-linejoin:miter;stroke-width:0.1;"/>
    </g>
    <g id="patch_132">
     <path d="M 145.835684 38.190065 
C 145.835684 38.190065 145.835684 38.190065 145.835684 38.190065 
L 156.784941 31.933845 
L 145.835684 38.190065 
z
" style="fill:#f53f06;stroke:#000000;stroke-linejoin:miter;stroke-width:0.1;"/>
    </g>
    <g id="patch_133">
     <path d="M 145.835684 38.190065 
C 145.991008 38.461905 146.156403 38.727867 146.331524 38.987397 
C 146.506644 39.246926 146.691369 39.499845 146.885314 39.745625 
L 156.784941 31.933845 
L 145.835684 38.190065 
z
" style="fill:#dd7790;stroke:#000000;stroke-linejoin:miter;stroke-width:0.1;"/>
    </g>
    <g id="patch_134">
     <path d="M 146.885314 39.745625 
C 147.954125 41.100097 149.289631 42.220915 150.808982 43.038548 
C 152.328332 43.856182 153.999445 44.353365 155.71865 44.499256 
L 156.784941 31.933845 
L 146.885314 39.745625 
z
" style="fill:#771124;stroke:#000000;stroke-linejoin:miter;stroke-width:0.1;"/>
    </g>
    <g id="patch_135">
     <path d="M 155.71865 44.499256 
C 157.91266 44.685438 160.117644 44.293779 162.113326 43.363405 
C 164.109009 42.433031 165.826643 40.995991 167.09464 39.195845 
L 156.784941 31.933845 
L 155.71865 44.499256 
z
" style="fill:#eeb29f;stroke:#000000;stroke-linejoin:miter;stroke-width:0.1;"/>
    </g>
    <g id="patch_136">
     <path d="M 167.09464 39.195845 
C 167.09464 39.195845 167.09464 39.195845 167.09464 39.195845 
L 156.784941 31.933845 
L 167.09464 39.195845 
z
" style="fill:#eeb29f;stroke:#000000;stroke-linejoin:miter;stroke-width:0.1;"/>
    </g>
    <g id="patch_137">
     <path d="M 167.09464 39.195845 
C 167.09464 39.195845 167.09464 39.195845 167.09464 39.195845 
L 156.784941 31.933845 
L 167.09464 39.195845 
z
" style="fill:#ff0240;stroke:#000000;stroke-linejoin:miter;stroke-width:0.1;"/>
    </g>
    <g id="patch_138">
     <path d="M 167.09464 39.195845 
C 167.09464 39.195845 167.09464 39.195845 167.09464 39.195845 
L 156.784941 31.933845 
L 167.09464 39.195845 
z
" style="fill:#d0d1df;stroke:#000000;stroke-linejoin:miter;stroke-width:0.1;"/>
    </g>
    <g id="patch_139">
     <path d="M 167.09464 39.195845 
C 167.09464 39.195845 167.09464 39.195845 167.09464 39.195845 
L 156.784941 31.933845 
L 167.09464 39.195845 
z
" style="fill:#6ef1c9;stroke:#000000;stroke-linejoin:miter;stroke-width:0.1;"/>
    </g>
    <g id="patch_140">
     <path d="M 167.09464 39.195845 
C 167.514911 38.599196 167.882595 37.967188 168.19355 37.306943 
C 168.504505 36.646697 168.757559 35.960702 168.94986 35.256687 
L 156.784941 31.933845 
L 167.09464 39.195845 
z
" style="fill:#6ef1c9;stroke:#000000;stroke-linejoin:miter;stroke-width:0.1;"/>
    </g>
    <g id="patch_141">
     <path d="M 168.94986 35.256687 
C 168.982207 35.138266 169.012822 35.01938 169.041697 34.900065 
C 169.070572 34.780751 169.097703 34.661021 169.123082 34.540914 
L 156.784941 31.933845 
L 168.94986 35.256687 
z
" style="fill:#6ef1c9;stroke:#000000;stroke-linejoin:miter;stroke-width:0.1;"/>
    </g>
    <g id="patch_142">
     <path d="M 169.123082 34.540914 
C 169.143818 34.442781 169.163382 34.344403 169.181771 34.245803 
C 169.200159 34.147202 169.217371 34.048386 169.233402 33.949375 
L 156.784941 31.933845 
L 169.123082 34.540914 
z
" style="fill:#689285;stroke:#000000;stroke-linejoin:miter;stroke-width:0.1;"/>
    </g>
    <g id="patch_143">
     <path d="M 169.233402 33.949375 
C 169.233402 33.949375 169.233402 33.949375 169.233402 33.949375 
L 156.784941 31.933845 
L 169.233402 33.949375 
z
" style="fill:#428317;stroke:#000000;stroke-linejoin:miter;stroke-width:0.1;"/>
    </g>
    <g id="patch_144">
     <path d="M 169.233402 33.949375 
C 169.28733 33.616298 169.327869 33.281191 169.35492 32.944863 
C 169.381972 32.608534 169.395514 32.271256 169.395513 31.933842 
L 156.784941 31.933845 
L 169.233402 33.949375 
z
" style="fill:#428317;stroke:#000000;stroke-linejoin:miter;stroke-width:0.1;"/>
    </g>
    <g id="patch_145">
     <path d="M 169.395513 31.933842 
C 169.395513 31.933842 169.395513 31.933842 169.395513 31.933842 
L 156.784941 31.933845 
L 169.395513 31.933842 
z
" style="fill:#106832;stroke:#000000;stroke-linejoin:miter;stroke-width:0.1;"/>
    </g>
    <g id="patch_146">
     <path d="M 169.395513 31.933842 
C 169.395513 31.933842 169.395513 31.933842 169.395513 31.933842 
L 156.784941 31.933845 
L 169.395513 31.933842 
z
" style="fill:#56a45e;stroke:#000000;stroke-linejoin:miter;stroke-width:0.1;"/>
    </g>
    <g id="patch_147">
     <path d="M 169.395513 31.933842 
C 169.395513 31.933842 169.395513 31.933842 169.395513 31.933842 
L 156.784941 31.933845 
L 169.395513 31.933842 
z
" style="fill:#7ac890;stroke:#000000;stroke-linejoin:miter;stroke-width:0.1;"/>
    </g>
    <g id="patch_148">
     <path d="M 169.395513 31.933842 
C 169.395513 31.933842 169.395513 31.933842 169.395513 31.933842 
L 156.784941 31.933845 
L 169.395513 31.933842 
z
" style="fill:#51a778;stroke:#000000;stroke-linejoin:miter;stroke-width:0.1;"/>
    </g>
    <g id="patch_149">
     <path d="M 169.395513 31.933842 
C 169.395513 31.933842 169.395513 31.933842 169.395513 31.933842 
L 156.784941 31.933845 
L 169.395513 31.933842 
z
" style="fill:#34be72;stroke:#000000;stroke-linejoin:miter;stroke-width:0.1;"/>
    </g>
    <g id="patch_150">
     <path d="M 169.395513 31.933842 
C 169.395513 31.933842 169.395513 31.933842 169.395513 31.933842 
L 156.784941 31.933845 
L 169.395513 31.933842 
z
" style="fill:#0ec460;stroke:#000000;stroke-linejoin:miter;stroke-width:0.1;"/>
    </g>
    <g id="patch_151">
     <path d="M 169.395513 31.933842 
C 169.395513 31.933842 169.395513 31.933842 169.395513 31.933842 
L 156.784941 31.933845 
L 169.395513 31.933842 
z
" style="fill:#069848;stroke:#000000;stroke-linejoin:miter;stroke-width:0.1;"/>
    </g>
    <g id="matplotlib.axis_11"/>
    <g id="matplotlib.axis_12"/>
   </g>
   <g id="axes_7">
    <g id="patch_152">
     <path d="M 99.823749 134.602155 
C 99.823749 134.595632 99.823744 134.589109 99.823734 134.582585 
C 99.823723 134.576062 99.823708 134.569538 99.823688 134.563015 
L 87.213176 134.602155 
L 99.823749 134.602155 
z
" style="fill:#e0e3e1;stroke:#000000;stroke-linejoin:miter;stroke-width:0.1;"/>
    </g>
    <g id="patch_153">
     <path d="M 99.823688 134.563015 
C 99.822518 134.186167 99.804457 133.809561 99.769558 133.43433 
C 99.734659 133.0591 99.682958 132.685622 99.61461 132.315023 
L 87.213176 134.602155 
L 99.823688 134.563015 
z
" style="fill:#e0e3e1;stroke:#000000;stroke-linejoin:miter;stroke-width:0.1;"/>
    </g>
    <g id="patch_154">
     <path d="M 99.61461 132.315023 
C 99.307966 130.652317 98.670043 129.068136 97.738869 127.656917 
C 96.807696 126.245699 95.602151 125.036056 94.194101 124.100097 
C 92.786052 123.164139 91.204045 122.520842 89.54239 122.208556 
C 87.880735 121.89627 86.17312 121.921326 84.521342 122.28223 
C 82.869565 122.643134 81.307113 123.332569 79.927131 124.309436 
C 78.547148 125.286303 77.377613 126.530796 76.488245 127.968727 
C 75.598877 129.406658 75.007707 131.008874 74.749978 132.67986 
C 74.492249 134.350847 74.573185 136.056727 74.987962 137.695806 
L 87.213176 134.602155 
L 99.61461 132.315023 
z
" style="fill:#44aaaa;stroke:#000000;stroke-linejoin:miter;stroke-width:0.1;"/>
    </g>
    <g id="patch_155">
     <path d="M 74.987962 137.695806 
C 74.990215 137.70471 74.992478 137.713611 74.994751 137.72251 
C 74.997024 137.731408 74.999306 137.740305 75.001598 137.749199 
L 87.213176 134.602155 
L 74.987962 137.695806 
z
" style="fill:#77aadd;stroke:#000000;stroke-linejoin:miter;stroke-width:0.1;"/>
    </g>
    <g id="patch_156">
     <path d="M 75.001598 137.749199 
C 75.127976 138.239587 75.283778 138.721918 75.468159 139.193571 
C 75.652539 139.665223 75.865163 140.125341 76.104875 140.571425 
L 87.213176 134.602155 
L 75.001598 137.749199 
z
" style="fill:#117777;stroke:#000000;stroke-linejoin:miter;stroke-width:0.1;"/>
    </g>
    <g id="patch_157">
     <path d="M 76.104875 140.571425 
C 76.139453 140.635771 76.174589 140.699815 76.210279 140.763551 
C 76.24597 140.827286 76.282214 140.89071 76.319006 140.953816 
L 87.213176 134.602155 
L 76.104875 140.571425 
z
" style="fill:#525fb7;stroke:#000000;stroke-linejoin:miter;stroke-width:0.1;"/>
    </g>
    <g id="patch_158">
     <path d="M 76.319006 140.953816 
C 76.522551 141.302929 76.742759 141.642056 76.978868 141.970023 
C 77.214978 142.29799 77.466716 142.614418 77.733211 142.918211 
L 87.213176 134.602155 
L 76.319006 140.953816 
z
" style="fill:#a3604b;stroke:#000000;stroke-linejoin:miter;stroke-width:0.1;"/>
    </g>
    <g id="patch_159">
     <path d="M 77.733211 142.918211 
C 77.825416 143.023322 77.919363 143.126891 78.015013 143.228877 
C 78.110663 143.330862 78.208002 143.43125 78.30699 143.529998 
L 87.213176 134.602155 
L 77.733211 142.918211 
z
" style="fill:#a3604b;stroke:#000000;stroke-linejoin:miter;stroke-width:0.1;"/>
    </g>
    <g id="patch_160">
     <path d="M 78.30699 143.529998 
C 78.609506 143.83178 78.927164 144.117991 79.258737 144.387523 
C 79.590309 144.657055 79.935366 144.909561 80.292574 145.144062 
L 87.213176 134.602155 
L 78.30699 143.529998 
z
" style="fill:#f53f06;stroke:#000000;stroke-linejoin:miter;stroke-width:0.1;"/>
    </g>
    <g id="patch_161">
     <path d="M 80.292574 145.144062 
C 80.292574 145.144062 80.292574 145.144062 80.292574 145.144062 
L 87.213176 134.602155 
L 80.292574 145.144062 
z
" style="fill:#f53f06;stroke:#000000;stroke-linejoin:miter;stroke-width:0.1;"/>
    </g>
    <g id="patch_162">
     <path d="M 80.292574 145.144062 
C 80.292574 145.144062 80.292574 145.144062 80.292574 145.144062 
L 87.213176 134.602155 
L 80.292574 145.144062 
z
" style="fill:#dd7790;stroke:#000000;stroke-linejoin:miter;stroke-width:0.1;"/>
    </g>
    <g id="patch_163">
     <path d="M 80.292574 145.144062 
C 81.912119 146.207269 83.755101 146.883099 85.678045 147.11894 
C 87.60099 147.354781 89.552668 147.14435 91.381144 146.504028 
L 87.213176 134.602155 
L 80.292574 145.144062 
z
" style="fill:#771124;stroke:#000000;stroke-linejoin:miter;stroke-width:0.1;"/>
    </g>
    <g id="patch_164">
     <path d="M 91.381144 146.504028 
C 92.44363 146.131952 93.451525 145.619272 94.37793 144.979671 
C 95.304336 144.34007 96.140938 143.579288 96.865411 142.717629 
L 87.213176 134.602155 
L 91.381144 146.504028 
z
" style="fill:#eeb29f;stroke:#000000;stroke-linejoin:miter;stroke-width:0.1;"/>
    </g>
    <g id="patch_165">
     <path d="M 96.865411 142.717629 
C 96.865411 142.717629 96.865411 142.717629 96.865411 142.717629 
L 87.213176 134.602155 
L 96.865411 142.717629 
z
" style="fill:#eeb29f;stroke:#000000;stroke-linejoin:miter;stroke-width:0.1;"/>
    </g>
    <g id="patch_166">
     <path d="M 96.865411 142.717629 
C 96.866446 142.716397 96.867481 142.715165 96.868516 142.713933 
C 96.869551 142.712701 96.870586 142.711469 96.871621 142.710237 
L 87.213176 134.602155 
L 96.865411 142.717629 
z
" style="fill:#ff0240;stroke:#000000;stroke-linejoin:miter;stroke-width:0.1;"/>
    </g>
    <g id="patch_167">
     <path d="M 96.871621 142.710237 
C 96.871621 142.710237 96.871621 142.710237 96.871621 142.710237 
L 87.213176 134.602155 
L 96.871621 142.710237 
z
" style="fill:#d0d1df;stroke:#000000;stroke-linejoin:miter;stroke-width:0.1;"/>
    </g>
    <g id="patch_168">
     <path d="M 96.871621 142.710237 
C 96.874626 142.706657 96.877629 142.703076 96.880629 142.699494 
C 96.88363 142.695911 96.886629 142.692326 96.889626 142.68874 
L 87.213176 134.602155 
L 96.871621 142.710237 
z
" style="fill:#6ef1c9;stroke:#000000;stroke-linejoin:miter;stroke-width:0.1;"/>
    </g>
    <g id="patch_169">
     <path d="M 96.889626 142.68874 
C 96.890047 142.688237 96.890467 142.687733 96.890888 142.68723 
C 96.891309 142.686727 96.891729 142.686223 96.89215 142.68572 
L 87.213176 134.602155 
L 96.889626 142.68874 
z
" style="fill:#6ef1c9;stroke:#000000;stroke-linejoin:miter;stroke-width:0.1;"/>
    </g>
    <g id="patch_170">
     <path d="M 96.89215 142.68572 
C 96.89215 142.68572 96.89215 142.68572 96.89215 142.68572 
L 87.213176 134.602155 
L 96.89215 142.68572 
z
" style="fill:#6ef1c9;stroke:#000000;stroke-linejoin:miter;stroke-width:0.1;"/>
    </g>
    <g id="patch_171">
     <path d="M 96.89215 142.68572 
C 97.002205 142.553944 97.109557 142.419934 97.21414 142.283774 
C 97.318723 142.147614 97.420514 142.009333 97.51945 141.869016 
L 87.213176 134.602155 
L 96.89215 142.68572 
z
" style="fill:#689285;stroke:#000000;stroke-linejoin:miter;stroke-width:0.1;"/>
    </g>
    <g id="patch_172">
     <path d="M 97.51945 141.869016 
C 97.554076 141.819908 97.58835 141.770552 97.622271 141.720954 
C 97.656191 141.671356 97.689756 141.621515 97.722964 141.571437 
L 87.213176 134.602155 
L 97.51945 141.869016 
z
" style="fill:#428317;stroke:#000000;stroke-linejoin:miter;stroke-width:0.1;"/>
    </g>
    <g id="patch_173">
     <path d="M 97.722964 141.571437 
C 97.922385 141.270709 98.108805 140.961559 98.281712 140.644842 
C 98.454618 140.328125 98.613851 140.004133 98.758971 139.67376 
L 87.213176 134.602155 
L 97.722964 141.571437 
z
" style="fill:#428317;stroke:#000000;stroke-linejoin:miter;stroke-width:0.1;"/>
    </g>
    <g id="patch_174">
     <path d="M 98.758971 139.67376 
C 98.761424 139.668175 98.763873 139.662589 98.766318 139.657001 
C 98.768762 139.651413 98.771203 139.645823 98.77364 139.640232 
L 87.213176 134.602155 
L 98.758971 139.67376 
z
" style="fill:#106832;stroke:#000000;stroke-linejoin:miter;stroke-width:0.1;"/>
    </g>
    <g id="patch_175">
     <path d="M 98.77364 139.640232 
C 98.77364 139.640232 98.77364 139.640232 98.77364 139.640232 
L 87.213176 134.602155 
L 98.77364 139.640232 
z
" style="fill:#56a45e;stroke:#000000;stroke-linejoin:miter;stroke-width:0.1;"/>
    </g>
    <g id="patch_176">
     <path d="M 98.77364 139.640232 
C 98.77364 139.640232 98.77364 139.640232 98.77364 139.640232 
L 87.213176 134.602155 
L 98.77364 139.640232 
z
" style="fill:#7ac890;stroke:#000000;stroke-linejoin:miter;stroke-width:0.1;"/>
    </g>
    <g id="patch_177">
     <path d="M 98.77364 139.640232 
C 99.117251 138.851776 99.3793 138.030233 99.555691 137.188439 
C 99.732083 136.346646 99.821894 135.489011 99.82372 134.628937 
L 87.213176 134.602155 
L 98.77364 139.640232 
z
" style="fill:#51a778;stroke:#000000;stroke-linejoin:miter;stroke-width:0.1;"/>
    </g>
    <g id="patch_178">
     <path d="M 99.82372 134.628937 
C 99.823729 134.624733 99.823736 134.620529 99.823741 134.616325 
C 99.823746 134.612121 99.823748 134.607916 99.823749 134.603712 
L 87.213176 134.602155 
L 99.82372 134.628937 
z
" style="fill:#34be72;stroke:#000000;stroke-linejoin:miter;stroke-width:0.1;"/>
    </g>
    <g id="patch_179">
     <path d="M 99.823749 134.603712 
C 99.823749 134.603712 99.823749 134.603712 99.823749 134.603712 
L 87.213176 134.602155 
L 99.823749 134.603712 
z
" style="fill:#0ec460;stroke:#000000;stroke-linejoin:miter;stroke-width:0.1;"/>
    </g>
    <g id="patch_180">
     <path d="M 99.823749 134.603712 
C 99.823749 134.603454 99.823749 134.603195 99.823749 134.602937 
C 99.823749 134.602679 99.823749 134.60242 99.823749 134.602162 
L 87.213176 134.602155 
L 99.823749 134.603712 
z
" style="fill:#069848;stroke:#000000;stroke-linejoin:miter;stroke-width:0.1;"/>
    </g>
    <g id="matplotlib.axis_13"/>
    <g id="matplotlib.axis_14"/>
   </g>
   <g id="axes_8">
    <g id="patch_181">
     <path d="M 215.77669 108.675814 
C 215.77669 108.595127 215.775916 108.514441 215.774367 108.433769 
C 215.772818 108.353096 215.770495 108.272441 215.767398 108.191813 
L 203.166118 108.675814 
L 215.77669 108.675814 
z
" style="fill:#e0e3e1;stroke:#000000;stroke-linejoin:miter;stroke-width:0.1;"/>
    </g>
    <g id="patch_182">
     <path d="M 215.767398 108.191813 
C 215.732369 107.279791 215.59843 106.374262 215.36794 105.491152 
C 215.137449 104.608042 214.811765 103.752559 214.396615 102.939748 
L 203.166118 108.675814 
L 215.767398 108.191813 
z
" style="fill:#e0e3e1;stroke:#000000;stroke-linejoin:miter;stroke-width:0.1;"/>
    </g>
    <g id="patch_183">
     <path d="M 214.396615 102.939748 
C 213.015567 100.235828 210.703406 98.119569 207.888098 96.982678 
C 205.07279 95.845786 201.939455 95.763018 199.068052 96.749692 
C 196.196649 97.736366 193.775987 99.727605 192.254113 102.354843 
C 190.732239 104.982081 190.209224 108.072565 190.781874 111.054268 
L 203.166118 108.675814 
L 214.396615 102.939748 
z
" style="fill:#44aaaa;stroke:#000000;stroke-linejoin:miter;stroke-width:0.1;"/>
    </g>
    <g id="patch_184">
     <path d="M 190.781874 111.054268 
C 190.788888 111.090787 190.796063 111.127274 190.803399 111.16373 
C 190.810735 111.200185 190.818233 111.236608 190.825892 111.272997 
L 203.166118 108.675814 
L 190.781874 111.054268 
z
" style="fill:#77aadd;stroke:#000000;stroke-linejoin:miter;stroke-width:0.1;"/>
    </g>
    <g id="patch_185">
     <path d="M 190.825892 111.272997 
C 190.855825 111.415223 190.888215 111.556921 190.923048 111.698027 
C 190.95788 111.839134 190.995149 111.979627 191.034838 112.119445 
L 203.166118 108.675814 
L 190.825892 111.272997 
z
" style="fill:#117777;stroke:#000000;stroke-linejoin:miter;stroke-width:0.1;"/>
    </g>
    <g id="patch_186">
     <path d="M 191.034838 112.119445 
C 191.035249 112.120892 191.03566 112.122339 191.036071 112.123786 
C 191.036483 112.125233 191.036894 112.12668 191.037306 112.128126 
L 203.166118 108.675814 
L 191.034838 112.119445 
z
" style="fill:#525fb7;stroke:#000000;stroke-linejoin:miter;stroke-width:0.1;"/>
    </g>
    <g id="patch_187">
     <path d="M 191.037306 112.128126 
C 191.118552 112.413562 191.209848 112.696042 191.311025 112.975036 
C 191.412202 113.254031 191.523195 113.529367 191.643799 113.80053 
L 203.166118 108.675814 
L 191.037306 112.128126 
z
" style="fill:#a3604b;stroke:#000000;stroke-linejoin:miter;stroke-width:0.1;"/>
    </g>
    <g id="patch_188">
     <path d="M 191.643799 113.80053 
C 191.720518 113.973023 191.8011 114.143771 191.885486 114.312646 
C 191.969871 114.481521 192.058038 114.648479 192.149919 114.813396 
L 203.166118 108.675814 
L 191.643799 113.80053 
z
" style="fill:#a3604b;stroke:#000000;stroke-linejoin:miter;stroke-width:0.1;"/>
    </g>
    <g id="patch_189">
     <path d="M 192.149919 114.813396 
C 192.80291 115.985433 193.638779 117.045786 194.625947 117.954393 
C 195.613115 118.863 196.738991 119.608272 197.961036 120.162052 
L 203.166118 108.675814 
L 192.149919 114.813396 
z
" style="fill:#f53f06;stroke:#000000;stroke-linejoin:miter;stroke-width:0.1;"/>
    </g>
    <g id="patch_190">
     <path d="M 197.961036 120.162052 
C 197.961036 120.162052 197.961036 120.162052 197.961036 120.162052 
L 203.166118 108.675814 
L 197.961036 120.162052 
z
" style="fill:#f53f06;stroke:#000000;stroke-linejoin:miter;stroke-width:0.1;"/>
    </g>
    <g id="patch_191">
     <path d="M 197.961036 120.162052 
C 197.961036 120.162052 197.961036 120.162052 197.961036 120.162052 
L 203.166118 108.675814 
L 197.961036 120.162052 
z
" style="fill:#dd7790;stroke:#000000;stroke-linejoin:miter;stroke-width:0.1;"/>
    </g>
    <g id="patch_192">
     <path d="M 197.961036 120.162052 
C 198.521579 120.416066 199.099964 120.628707 199.691554 120.79827 
C 200.283144 120.967833 200.886354 121.093863 201.496346 121.17535 
L 203.166118 108.675814 
L 197.961036 120.162052 
z
" style="fill:#771124;stroke:#000000;stroke-linejoin:miter;stroke-width:0.1;"/>
    </g>
    <g id="patch_193">
     <path d="M 201.496346 121.17535 
C 203.081343 121.387085 204.692244 121.295423 206.242992 120.905261 
C 207.79374 120.5151 209.256219 119.833513 210.552299 118.896913 
L 203.166118 108.675814 
L 201.496346 121.17535 
z
" style="fill:#eeb29f;stroke:#000000;stroke-linejoin:miter;stroke-width:0.1;"/>
    </g>
    <g id="patch_194">
     <path d="M 210.552299 118.896913 
C 210.552299 118.896913 210.552299 118.896913 210.552299 118.896913 
L 203.166118 108.675814 
L 210.552299 118.896913 
z
" style="fill:#eeb29f;stroke:#000000;stroke-linejoin:miter;stroke-width:0.1;"/>
    </g>
    <g id="patch_195">
     <path d="M 210.552299 118.896913 
C 210.561086 118.890563 210.569864 118.884203 210.578634 118.87783 
C 210.587404 118.871458 210.596166 118.865075 210.604919 118.85868 
L 203.166118 108.675814 
L 210.552299 118.896913 
z
" style="fill:#ff0240;stroke:#000000;stroke-linejoin:miter;stroke-width:0.1;"/>
    </g>
    <g id="patch_196">
     <path d="M 210.604919 118.85868 
C 210.604919 118.85868 210.604919 118.85868 210.604919 118.85868 
L 203.166118 108.675814 
L 210.604919 118.85868 
z
" style="fill:#d0d1df;stroke:#000000;stroke-linejoin:miter;stroke-width:0.1;"/>
    </g>
    <g id="patch_197">
     <path d="M 210.604919 118.85868 
C 210.675405 118.807189 210.745353 118.754968 210.814754 118.702025 
C 210.884155 118.649081 210.953004 118.595419 211.02129 118.541046 
L 203.166118 108.675814 
L 210.604919 118.85868 
z
" style="fill:#6ef1c9;stroke:#000000;stroke-linejoin:miter;stroke-width:0.1;"/>
    </g>
    <g id="patch_198">
     <path d="M 211.02129 118.541046 
C 211.35199 118.277727 211.66924 117.997946 211.971839 117.702763 
C 212.274438 117.407579 212.562004 117.097368 212.833446 116.773302 
L 203.166118 108.675814 
L 211.02129 118.541046 
z
" style="fill:#6ef1c9;stroke:#000000;stroke-linejoin:miter;stroke-width:0.1;"/>
    </g>
    <g id="patch_199">
     <path d="M 212.833446 116.773302 
C 212.833446 116.773302 212.833446 116.773302 212.833446 116.773302 
L 203.166118 108.675814 
L 212.833446 116.773302 
z
" style="fill:#6ef1c9;stroke:#000000;stroke-linejoin:miter;stroke-width:0.1;"/>
    </g>
    <g id="patch_200">
     <path d="M 212.833446 116.773302 
C 212.833674 116.773029 212.833903 116.772755 212.834132 116.772482 
C 212.834361 116.772209 212.83459 116.771935 212.834819 116.771662 
L 203.166118 108.675814 
L 212.833446 116.773302 
z
" style="fill:#689285;stroke:#000000;stroke-linejoin:miter;stroke-width:0.1;"/>
    </g>
    <g id="patch_201">
     <path d="M 212.834819 116.771662 
C 212.914805 116.676137 212.993371 116.579431 213.07049 116.481577 
C 213.14761 116.383723 213.223276 116.284732 213.297462 116.184636 
L 203.166118 108.675814 
L 212.834819 116.771662 
z
" style="fill:#428317;stroke:#000000;stroke-linejoin:miter;stroke-width:0.1;"/>
    </g>
    <g id="patch_202">
     <path d="M 213.297462 116.184636 
C 213.434423 115.99984 213.566302 115.811331 213.692952 115.619321 
C 213.819602 115.427312 213.940974 115.231873 214.056934 115.033224 
L 203.166118 108.675814 
L 213.297462 116.184636 
z
" style="fill:#428317;stroke:#000000;stroke-linejoin:miter;stroke-width:0.1;"/>
    </g>
    <g id="patch_203">
     <path d="M 214.056934 115.033224 
C 214.119579 114.925907 214.180635 114.81767 214.240081 114.708548 
C 214.299527 114.599426 214.357356 114.489432 214.413551 114.378601 
L 203.166118 108.675814 
L 214.056934 115.033224 
z
" style="fill:#106832;stroke:#000000;stroke-linejoin:miter;stroke-width:0.1;"/>
    </g>
    <g id="patch_204">
     <path d="M 214.413551 114.378601 
C 214.413737 114.378233 214.413924 114.377866 214.41411 114.377498 
C 214.414297 114.37713 214.414483 114.376762 214.414669 114.376395 
L 203.166118 108.675814 
L 214.413551 114.378601 
z
" style="fill:#56a45e;stroke:#000000;stroke-linejoin:miter;stroke-width:0.1;"/>
    </g>
    <g id="patch_205">
     <path d="M 214.414669 114.376395 
C 214.420493 114.364903 214.426299 114.353403 214.432088 114.341894 
C 214.437876 114.330384 214.443647 114.318866 214.4494 114.307339 
L 203.166118 108.675814 
L 214.414669 114.376395 
z
" style="fill:#7ac890;stroke:#000000;stroke-linejoin:miter;stroke-width:0.1;"/>
    </g>
    <g id="patch_206">
     <path d="M 214.4494 114.307339 
C 214.865911 113.472822 215.188557 112.594666 215.411413 111.688997 
C 215.63427 110.783329 215.755965 109.855725 215.774263 108.92322 
L 203.166118 108.675814 
L 214.4494 114.307339 
z
" style="fill:#51a778;stroke:#000000;stroke-linejoin:miter;stroke-width:0.1;"/>
    </g>
    <g id="patch_207">
     <path d="M 215.774263 108.92322 
C 215.774338 108.91938 215.774412 108.915539 215.774484 108.911699 
C 215.774555 108.907859 215.774626 108.904018 215.774694 108.900178 
L 203.166118 108.675814 
L 215.774263 108.92322 
z
" style="fill:#34be72;stroke:#000000;stroke-linejoin:miter;stroke-width:0.1;"/>
    </g>
    <g id="patch_208">
     <path d="M 215.774694 108.900178 
C 215.775341 108.8638 215.775831 108.82742 215.776164 108.791038 
C 215.776496 108.754657 215.776671 108.718273 215.776688 108.68189 
L 203.166118 108.675814 
L 215.774694 108.900178 
z
" style="fill:#0ec460;stroke:#000000;stroke-linejoin:miter;stroke-width:0.1;"/>
    </g>
    <g id="patch_209">
     <path d="M 215.776688 108.68189 
C 215.776689 108.680878 215.776689 108.679866 215.77669 108.678854 
C 215.77669 108.677842 215.77669 108.67683 215.77669 108.675818 
L 203.166118 108.675814 
L 215.776688 108.68189 
z
" style="fill:#069848;stroke:#000000;stroke-linejoin:miter;stroke-width:0.1;"/>
    </g>
    <g id="matplotlib.axis_15"/>
    <g id="matplotlib.axis_16"/>
   </g>
   <g id="axes_9">
    <g id="patch_210">
     <path d="M 215.77669 108.675814 
C 215.77669 108.508898 215.773376 108.341997 215.76675 108.175212 
C 215.760124 108.008427 215.750187 107.84179 215.736945 107.675399 
L 203.166118 108.675814 
L 215.77669 108.675814 
z
" style="fill:#e0e3e1;stroke:#000000;stroke-linejoin:miter;stroke-width:0.1;"/>
    </g>
    <g id="patch_211">
     <path d="M 215.736945 107.675399 
C 215.721345 107.479372 215.701162 107.283737 215.676412 107.088654 
C 215.651662 106.893571 215.622352 106.699093 215.588507 106.505381 
L 203.166118 108.675814 
L 215.736945 107.675399 
z
" style="fill:#e0e3e1;stroke:#000000;stroke-linejoin:miter;stroke-width:0.1;"/>
    </g>
    <g id="patch_212">
     <path d="M 215.588507 106.505381 
C 215.234781 104.480844 214.391436 102.57314 213.132148 100.948928 
C 211.87286 99.324715 210.235398 98.032709 208.36281 97.185779 
C 206.490223 96.338848 204.438676 95.962396 202.387392 96.089309 
C 200.336108 96.216221 198.346611 96.842693 196.592705 97.913994 
L 203.166118 108.675814 
L 215.588507 106.505381 
z
" style="fill:#44aaaa;stroke:#000000;stroke-linejoin:miter;stroke-width:0.1;"/>
    </g>
    <g id="patch_213">
     <path d="M 196.592705 97.913994 
C 196.588457 97.916588 196.584211 97.919186 196.579966 97.921785 
C 196.575721 97.924385 196.571478 97.926987 196.567236 97.929592 
L 203.166118 108.675814 
L 196.592705 97.913994 
z
" style="fill:#77aadd;stroke:#000000;stroke-linejoin:miter;stroke-width:0.1;"/>
    </g>
    <g id="patch_214">
     <path d="M 196.567236 97.929592 
C 196.23208 98.1354 195.906735 98.356774 195.592269 98.59299 
C 195.277803 98.829205 194.974559 99.080003 194.683533 99.34456 
L 203.166118 108.675814 
L 196.567236 97.929592 
z
" style="fill:#117777;stroke:#000000;stroke-linejoin:miter;stroke-width:0.1;"/>
    </g>
    <g id="patch_215">
     <path d="M 194.683533 99.34456 
C 194.209232 99.775725 193.768494 100.242425 193.365152 100.740601 
C 192.96181 101.238778 192.597038 101.766983 192.274008 102.320621 
L 203.166118 108.675814 
L 194.683533 99.34456 
z
" style="fill:#525fb7;stroke:#000000;stroke-linejoin:miter;stroke-width:0.1;"/>
    </g>
    <g id="patch_216">
     <path d="M 192.274008 102.320621 
C 192.202794 102.442673 192.133637 102.565914 192.066566 102.690291 
C 191.999495 102.814667 191.934519 102.940162 191.871666 103.066723 
L 203.166118 108.675814 
L 192.274008 102.320621 
z
" style="fill:#a3604b;stroke:#000000;stroke-linejoin:miter;stroke-width:0.1;"/>
    </g>
    <g id="patch_217">
     <path d="M 191.871666 103.066723 
C 191.807816 103.195293 191.746165 103.324944 191.686741 103.455619 
C 191.627317 103.586294 191.570129 103.717974 191.515201 103.850602 
L 203.166118 108.675814 
L 191.871666 103.066723 
z
" style="fill:#a3604b;stroke:#000000;stroke-linejoin:miter;stroke-width:0.1;"/>
    </g>
    <g id="patch_218">
     <path d="M 191.515201 103.850602 
C 191.225764 104.549475 190.999794 105.272976 190.840028 106.012349 
C 190.680262 106.751722 190.587345 107.503974 190.562403 108.26 
L 203.166118 108.675814 
L 191.515201 103.850602 
z
" style="fill:#f53f06;stroke:#000000;stroke-linejoin:miter;stroke-width:0.1;"/>
    </g>
    <g id="patch_219">
     <path d="M 190.562403 108.26 
C 190.562403 108.26 190.562403 108.26 190.562403 108.26 
L 203.166118 108.675814 
L 190.562403 108.26 
z
" style="fill:#f53f06;stroke:#000000;stroke-linejoin:miter;stroke-width:0.1;"/>
    </g>
    <g id="patch_220">
     <path d="M 190.562403 108.26 
C 190.562403 108.26 190.562403 108.26 190.562403 108.26 
L 203.166118 108.675814 
L 190.562403 108.26 
z
" style="fill:#dd7790;stroke:#000000;stroke-linejoin:miter;stroke-width:0.1;"/>
    </g>
    <g id="patch_221">
     <path d="M 190.562403 108.26 
C 190.518243 109.59853 190.687593 110.935589 191.064079 112.220839 
C 191.440565 113.50609 192.019402 114.723199 192.778797 115.826345 
L 203.166118 108.675814 
L 190.562403 108.26 
z
" style="fill:#771124;stroke:#000000;stroke-linejoin:miter;stroke-width:0.1;"/>
    </g>
    <g id="patch_222">
     <path d="M 192.778797 115.826345 
C 193.476911 116.840471 194.319792 117.746915 195.280578 118.516789 
C 196.241363 119.286663 197.309735 119.9117 198.451645 120.371979 
L 203.166118 108.675814 
L 192.778797 115.826345 
z
" style="fill:#eeb29f;stroke:#000000;stroke-linejoin:miter;stroke-width:0.1;"/>
    </g>
    <g id="patch_223">
     <path d="M 198.451645 120.371979 
C 198.451645 120.371979 198.451645 120.371979 198.451645 120.371979 
L 203.166118 108.675814 
L 198.451645 120.371979 
z
" style="fill:#eeb29f;stroke:#000000;stroke-linejoin:miter;stroke-width:0.1;"/>
    </g>
    <g id="patch_224">
     <path d="M 198.451645 120.371979 
C 198.451645 120.371979 198.451645 120.371979 198.451645 120.371979 
L 203.166118 108.675814 
L 198.451645 120.371979 
z
" style="fill:#ff0240;stroke:#000000;stroke-linejoin:miter;stroke-width:0.1;"/>
    </g>
    <g id="patch_225">
     <path d="M 198.451645 120.371979 
C 198.453571 120.372756 198.455498 120.373532 198.457426 120.374308 
C 198.459353 120.375084 198.46128 120.375859 198.463207 120.376633 
L 203.166118 108.675814 
L 198.451645 120.371979 
z
" style="fill:#d0d1df;stroke:#000000;stroke-linejoin:miter;stroke-width:0.1;"/>
    </g>
    <g id="patch_226">
     <path d="M 198.463207 120.376633 
C 198.467528 120.37837 198.47185 120.380104 198.476173 120.381836 
C 198.480496 120.383568 198.484819 120.385298 198.489144 120.387025 
L 203.166118 108.675814 
L 198.463207 120.376633 
z
" style="fill:#6ef1c9;stroke:#000000;stroke-linejoin:miter;stroke-width:0.1;"/>
    </g>
    <g id="patch_227">
     <path d="M 198.489144 120.387025 
C 199.411225 120.755266 200.373577 121.013321 201.356189 121.155826 
C 202.338801 121.29833 203.334814 121.324289 204.323515 121.233161 
L 203.166118 108.675814 
L 198.489144 120.387025 
z
" style="fill:#6ef1c9;stroke:#000000;stroke-linejoin:miter;stroke-width:0.1;"/>
    </g>
    <g id="patch_228">
     <path d="M 204.323515 121.233161 
C 205.476162 121.126923 206.608713 120.862485 207.689226 120.447306 
C 208.769739 120.032127 209.787961 119.470147 210.715175 118.777214 
L 203.166118 108.675814 
L 204.323515 121.233161 
z
" style="fill:#6ef1c9;stroke:#000000;stroke-linejoin:miter;stroke-width:0.1;"/>
    </g>
    <g id="patch_229">
     <path d="M 210.715175 118.777214 
C 210.811166 118.705477 210.906129 118.632376 211.000036 118.557932 
C 211.093943 118.483489 211.186784 118.407711 211.278531 118.330621 
L 203.166118 108.675814 
L 210.715175 118.777214 
z
" style="fill:#689285;stroke:#000000;stroke-linejoin:miter;stroke-width:0.1;"/>
    </g>
    <g id="patch_230">
     <path d="M 211.278531 118.330621 
C 212.37944 117.405586 213.314063 116.29903 214.041907 115.058896 
C 214.769751 113.818762 215.280149 112.463224 215.550986 111.051015 
L 203.166118 108.675814 
L 211.278531 118.330621 
z
" style="fill:#428317;stroke:#000000;stroke-linejoin:miter;stroke-width:0.1;"/>
    </g>
    <g id="patch_231">
     <path d="M 215.550986 111.051015 
C 215.598535 110.803083 215.638628 110.553778 215.671211 110.303439 
C 215.703795 110.0531 215.728854 109.801839 215.746354 109.549996 
L 203.166118 108.675814 
L 215.550986 111.051015 
z
" style="fill:#428317;stroke:#000000;stroke-linejoin:miter;stroke-width:0.1;"/>
    </g>
    <g id="patch_232">
     <path d="M 215.746354 109.549996 
C 215.747696 109.530674 215.748995 109.511348 215.750248 109.49202 
C 215.751502 109.472692 215.752711 109.45336 215.753876 109.434026 
L 203.166118 108.675814 
L 215.746354 109.549996 
z
" style="fill:#106832;stroke:#000000;stroke-linejoin:miter;stroke-width:0.1;"/>
    </g>
    <g id="patch_233">
     <path d="M 215.753876 109.434026 
C 215.753876 109.434026 215.753876 109.434026 215.753876 109.434026 
L 203.166118 108.675814 
L 215.753876 109.434026 
z
" style="fill:#56a45e;stroke:#000000;stroke-linejoin:miter;stroke-width:0.1;"/>
    </g>
    <g id="patch_234">
     <path d="M 215.753876 109.434026 
C 215.753876 109.434026 215.753876 109.434026 215.753876 109.434026 
L 203.166118 108.675814 
L 215.753876 109.434026 
z
" style="fill:#7ac890;stroke:#000000;stroke-linejoin:miter;stroke-width:0.1;"/>
    </g>
    <g id="patch_235">
     <path d="M 215.753876 109.434026 
C 215.761478 109.307807 215.767182 109.181481 215.770985 109.055091 
C 215.774788 108.928701 215.77669 108.80226 215.77669 108.675813 
L 203.166118 108.675814 
L 215.753876 109.434026 
z
" style="fill:#51a778;stroke:#000000;stroke-linejoin:miter;stroke-width:0.1;"/>
    </g>
    <g id="patch_236">
     <path d="M 215.77669 108.675813 
C 215.77669 108.675813 215.77669 108.675813 215.77669 108.675813 
L 203.166118 108.675814 
L 215.77669 108.675813 
z
" style="fill:#34be72;stroke:#000000;stroke-linejoin:miter;stroke-width:0.1;"/>
    </g>
    <g id="patch_237">
     <path d="M 215.77669 108.675813 
C 215.77669 108.675813 215.77669 108.675813 215.77669 108.675813 
L 203.166118 108.675814 
L 215.77669 108.675813 
z
" style="fill:#0ec460;stroke:#000000;stroke-linejoin:miter;stroke-width:0.1;"/>
    </g>
    <g id="patch_238">
     <path d="M 215.77669 108.675813 
C 215.77669 108.675813 215.77669 108.675813 215.77669 108.675813 
L 203.166118 108.675814 
L 215.77669 108.675813 
z
" style="fill:#069848;stroke:#000000;stroke-linejoin:miter;stroke-width:0.1;"/>
    </g>
    <g id="matplotlib.axis_17"/>
    <g id="matplotlib.axis_18"/>
   </g>
  </g>
 </g>
 <defs>
  <clipPath id="p7330d8ac14">
   <rect height="129.528" width="177.408" x="50.688" y="18.504"/>
  </clipPath>
 </defs>
</svg>
