<?xml version="1.0" encoding="utf-8" standalone="no"?>
<!DOCTYPE svg PUBLIC "-//W3C//DTD SVG 1.1//EN"
  "http://www.w3.org/Graphics/SVG/1.1/DTD/svg11.dtd">
<svg height="158.4pt" version="1.1" viewBox="0 0 253.44 158.4" width="253.44pt" xmlns="http://www.w3.org/2000/svg" xmlns:xlink="http://www.w3.org/1999/xlink">
 <metadata>
  <rdf:RDF xmlns:cc="http://creativecommons.org/ns#" xmlns:dc="http://purl.org/dc/elements/1.1/" xmlns:rdf="http://www.w3.org/1999/02/22-rdf-syntax-ns#">
   <cc:Work>
    <dc:type rdf:resource="http://purl.org/dc/dcmitype/StillImage"/>
    <dc:date>2021-07-27T16:49:28.078707</dc:date>
    <dc:format>image/svg+xml</dc:format>
    <dc:creator>
     <cc:Agent>
      <dc:title>Matplotlib v3.4.1, https://matplotlib.org/</dc:title>
     </cc:Agent>
    </dc:creator>
   </cc:Work>
  </rdf:RDF>
 </metadata>
 <defs>
  <style type="text/css">*{stroke-linecap:butt;stroke-linejoin:round;}</style>
 </defs>
 <g id="figure_1">
  <g id="patch_1">
   <path d="M 0 158.4 
L 253.44 158.4 
L 253.44 0 
L 0 0 
z
" style="fill:#ffffff;"/>
  </g>
  <g id="axes_1">
   <g id="line2d_1">
    <path clip-path="url(#p1641c2d4a5)" d="M 75.732427 38.813856 
L 67.386529 37.832313 
M 75.732427 38.813856 
L 72.430411 32.935788 
M 75.732427 38.813856 
L 84.398964 41.409793 
M 204.121905 22.46896 
L 202.936739 17.018182 
M 204.121905 22.46896 
L 211.488055 18.591962 
M 204.121905 22.46896 
L 202.747389 28.564643 
M 217.910234 51.903159 
L 227.914389 53.113135 
M 217.910234 51.903159 
L 225.685113 49.047309 
M 217.910234 51.903159 
L 208.213603 53.830638 
M 160.457235 130.116217 
L 166.086667 135.175867 
M 160.457235 130.116217 
L 158.248387 135.71365 
M 160.457235 130.116217 
L 160.372538 123.030231 
M 219.964035 59.359556 
L 229.535865 61.235462 
M 219.964035 59.359556 
L 229.349994 57.372159 
M 219.964035 59.359556 
L 209.921618 60.262416 
M 181.24712 125.123393 
L 187.604644 129.583807 
M 181.24712 125.123393 
L 181.229593 131.384152 
M 181.24712 125.123393 
L 179.345153 118.109253 
M 162.953106 87.516947 
L 171.871532 86.395886 
M 162.953106 87.516947 
L 164.674013 83.323178 
M 162.953106 87.516947 
L 155.538631 89.991017 
M 188.227762 120.072199 
L 196.807104 121.670117 
M 188.227762 120.072199 
L 193.43415 125.433145 
M 188.227762 120.072199 
L 179.345153 118.109253 
M 152.709061 120.848289 
L 152.975542 126.820673 
M 152.709061 120.848289 
L 147.62972 125.437399 
M 152.709061 120.848289 
L 158.399802 116.878059 
M 217.895008 35.531292 
L 221.445063 30.213397 
M 217.895008 35.531292 
L 226.730131 33.323273 
M 217.895008 35.531292 
L 212.871277 40.329809 
M 222.631231 40.821852 
L 232.101818 41.733786 
M 222.631231 40.821852 
L 230.769292 37.70198 
M 222.631231 40.821852 
L 212.871277 40.329809 
M 84.398964 41.409793 
L 82.438864 36.237571 
M 84.398964 41.409793 
L 93.693651 43.139293 
M 155.538631 89.991017 
L 161.502184 91.839421 
M 155.538631 89.991017 
L 149.874165 91.895771 
M 94.649541 36.671518 
L 95.976738 30.56969 
M 94.649541 36.671518 
L 89.79286 31.750207 
M 94.649541 36.671518 
L 93.693651 43.139293 
M 216.717014 64.096286 
L 223.671999 67.606148 
M 216.717014 64.096286 
L 226.9496 64.557012 
M 216.717014 64.096286 
L 209.921618 60.262416 
M 221.920838 113.512907 
L 230.42372 112.991475 
M 221.920838 113.512907 
L 226.866828 118.70726 
M 221.920838 113.512907 
L 212.927879 112.07789 
M 142.058224 42.721261 
L 140.611419 36.226047 
M 142.058224 42.721261 
L 146.225783 37.958284 
M 142.058224 42.721261 
L 137.399622 47.211286 
M 107.298813 49.723444 
L 98.885324 47.94535 
M 107.298813 49.723444 
L 106.239187 44.092378 
M 107.298813 49.723444 
L 109.038481 53.725209 
M 212.871277 40.329809 
L 203.263897 41.607357 
M 125.149589 42.60184 
L 119.039073 37.269739 
M 125.149589 42.60184 
L 124.646854 36.146791 
M 125.149589 42.60184 
L 126.854294 48.776964 
M 179.345153 118.109253 
L 170.638607 114.071404 
M 202.747389 28.564643 
L 210.413926 25.903892 
M 202.747389 28.564643 
L 201.487853 35.37079 
M 160.372538 123.030231 
L 165.298831 126.892458 
M 160.372538 123.030231 
L 158.399802 116.878059 
M 173.745551 32.969317 
L 172.378153 26.819371 
M 173.745551 32.969317 
L 178.809082 28.424274 
M 173.745551 32.969317 
L 169.35392 37.989229 
M 201.487853 35.37079 
L 205.86854 32.579534 
M 201.487853 35.37079 
L 203.263897 41.607357 
M 133.995473 41.326008 
L 134.966535 34.813618 
M 133.995473 41.326008 
L 129.293546 35.568917 
M 133.995473 41.326008 
L 137.399622 47.211286 
M 167.509057 49.471132 
L 162.601075 45.417019 
M 167.509057 49.471132 
L 168.660407 44.53301 
M 167.509057 49.471132 
L 171.836906 51.814254 
M 118.800483 46.316516 
L 114.624301 40.250832 
M 118.800483 46.316516 
L 110.876369 43.656289 
M 118.800483 46.316516 
L 126.854294 48.776964 
M 209.921618 60.262416 
L 201.706345 56.613082 
M 93.693651 43.139293 
L 99.476701 49.74678 
M 212.927879 112.07789 
L 215.261842 117.814381 
M 212.927879 112.07789 
L 203.403926 110.104782 
M 126.854294 48.776964 
L 134.027637 52.417212 
M 149.874165 91.895771 
L 147.028303 96.089702 
M 149.874165 91.895771 
L 146.680353 93.724985 
M 158.399802 116.878059 
L 162.245929 111.122976 
M 208.213603 53.830638 
L 213.727439 56.168481 
M 208.213603 53.830638 
L 201.706345 56.613082 
M 192.621151 93.54977 
L 200.997348 91.996306 
M 192.621151 93.54977 
L 201.468059 96.358741 
M 192.621151 93.54977 
L 182.632769 94.637607 
M 164.395552 32.518876 
L 159.542139 27.323504 
M 164.395552 32.518876 
L 165.41129 26.344914 
M 164.395552 32.518876 
L 169.35392 37.989229 
M 203.263897 41.607357 
L 197.640733 47.64314 
M 137.399622 47.211286 
L 134.027637 52.417212 
M 153.716999 106.107527 
L 154.92248 110.20296 
M 153.716999 106.107527 
L 148.622544 109.622262 
M 153.716999 106.107527 
L 158.653816 104.533592 
M 201.706345 56.613082 
L 193.320028 53.474011 
M 99.476701 49.74678 
L 91.711159 51.226293 
M 99.476701 49.74678 
L 109.038481 53.725209 
M 203.403926 110.104782 
L 204.929034 115.052328 
M 203.403926 110.104782 
L 194.39785 107.066432 
M 134.027637 52.417212 
L 136.158618 58.336509 
M 109.038481 53.725209 
L 118.630107 57.429396 
M 197.640733 47.64314 
L 194.980265 44.428805 
M 197.640733 47.64314 
L 193.320028 53.474011 
M 194.39785 107.066432 
L 201.95753 104.325183 
M 194.39785 107.066432 
L 183.969148 104.683247 
M 171.091784 118.44181 
L 170.976529 124.353057 
M 171.091784 118.44181 
L 177.951368 121.68492 
M 171.091784 118.44181 
L 170.638607 114.071404 
M 169.35392 37.989229 
L 171.73549 45.024202 
M 118.630107 57.429396 
L 112.892888 59.456072 
M 118.630107 57.429396 
L 128.42975 61.243524 
M 112.531372 126.827028 
L 109.772821 132.389399 
M 112.531372 126.827028 
L 104.640933 129.835997 
M 112.531372 126.827028 
L 120.498153 123.69115 
M 36.009995 124.078191 
L 28.620578 126.707666 
M 36.009995 124.078191 
L 35.575973 129.846868 
M 36.009995 124.078191 
L 38.271116 118.157764 
M 182.632769 94.637607 
L 188.758427 97.040943 
M 182.632769 94.637607 
L 172.727802 96.039553 
M 136.158618 58.336509 
L 141.612763 57.461942 
M 136.158618 58.336509 
L 137.239616 63.524522 
M 193.320028 53.474011 
L 183.235419 55.794129 
M 124.71431 136.149028 
L 119.316148 141.335701 
M 124.71431 136.149028 
L 127.824334 141.381818 
M 124.71431 136.149028 
L 123.386278 129.779183 
M 183.969148 104.683247 
L 190.225647 102.676966 
M 183.969148 104.683247 
L 173.491276 102.003909 
M 128.42975 61.243524 
L 123.817578 62.104932 
M 128.42975 61.243524 
L 137.239616 63.524522 
M 170.638607 114.071404 
L 162.245929 111.122976 
M 123.386278 129.779183 
L 118.331729 133.828972 
M 123.386278 129.779183 
L 120.498153 123.69115 
M 171.73549 45.024202 
L 177.659265 43.250494 
M 171.73549 45.024202 
L 171.836906 51.814254 
M 172.727802 96.039553 
L 176.021714 92.49686 
M 172.727802 96.039553 
L 165.643107 98.59 
M 137.239616 63.524522 
L 145.047485 67.965078 
M 141.885944 73.85986 
L 135.624711 73.300961 
M 141.885944 73.85986 
L 150.054415 74.319421 
M 141.885944 73.85986 
L 143.668171 75.544837 
M 173.491276 102.003909 
L 178.551371 100.709198 
M 173.491276 102.003909 
L 165.643107 98.59 
M 183.235419 55.794129 
L 186.20731 59.126713 
M 183.235419 55.794129 
L 172.946762 57.188633 
M 171.836906 51.814254 
L 172.946762 57.188633 
M 118.049376 111.913322 
L 114.97891 116.645219 
M 118.049376 111.913322 
L 110.009387 113.992854 
M 118.049376 111.913322 
L 125.128751 110.278906 
M 172.946762 57.188633 
L 164.134771 61.239342 
M 120.498153 123.69115 
L 123.833034 116.995054 
M 29.399303 116.035685 
L 21.338182 113.299448 
M 29.399303 116.035685 
L 21.775366 118.509433 
M 29.399303 116.035685 
L 38.271116 118.157764 
M 123.833034 116.995054 
L 128.854767 119.925425 
M 123.833034 116.995054 
L 125.128751 110.278906 
M 164.134771 61.239342 
L 168.67997 63.781201 
M 164.134771 61.239342 
L 155.092267 65.633731 
M 162.245929 111.122976 
L 158.653816 104.533592 
M 52.548056 105.238924 
L 44.588842 101.175623 
M 52.548056 105.238924 
L 44.122875 105.103941 
M 52.548056 105.238924 
L 61.102323 108.165016 
M 165.643107 98.59 
L 156.003706 98.605565 
M 80.322217 116.62708 
L 80.307563 122.358482 
M 80.322217 116.62708 
L 74.451312 120.947436 
M 80.322217 116.62708 
L 81.249323 110.3987 
M 99.804923 85.359996 
L 90.975751 85.303912 
M 99.804923 85.359996 
L 92.815227 81.190345 
M 99.804923 85.359996 
L 108.201589 88.197648 
M 103.910727 80.819552 
L 94.798075 78.689624 
M 103.910727 80.819552 
L 99.103377 76.128774 
M 103.910727 80.819552 
L 111.785317 84.689989 
M 155.092267 65.633731 
L 155.522896 63.224328 
M 155.092267 65.633731 
L 145.047485 67.965078 
M 158.653816 104.533592 
L 156.003706 98.605565 
M 145.047485 67.965078 
L 143.668171 75.544837 
M 63.866993 101.162392 
L 55.691649 100.208918 
M 63.866993 101.162392 
L 56.620337 96.916785 
M 63.866993 101.162392 
L 69.925419 105.014488 
M 156.003706 98.605565 
L 146.680353 93.724985 
M 125.128751 110.278906 
L 127.976731 103.728739 
M 143.668171 75.544837 
L 139.690659 82.248119 
M 38.271116 118.157764 
L 47.190176 116.206621 
M 74.656524 83.511739 
L 65.21437 81.463723 
M 74.656524 83.511739 
L 69.09707 78.730399 
M 74.656524 83.511739 
L 80.506699 88.603462 
M 139.690659 82.248119 
L 143.978512 81.880326 
M 139.690659 82.248119 
L 138.596465 89.127453 
M 47.190176 116.206621 
L 48.301952 121.778774 
M 47.190176 116.206621 
L 55.442199 113.044157 
M 81.249323 110.3987 
L 76.022723 112.936691 
M 81.249323 110.3987 
L 80.267425 104.806894 
M 146.680353 93.724985 
L 138.596465 89.127453 
M 71.73134 88.500282 
L 63.365153 84.978232 
M 71.73134 88.500282 
L 62.922965 88.962793 
M 71.73134 88.500282 
L 80.506699 88.603462 
M 108.201589 88.197648 
L 103.208759 91.133101 
M 108.201589 88.197648 
L 115.382711 88.953549 
M 138.596465 89.127453 
L 129.076794 91.980289 
M 55.442199 113.044157 
L 56.974189 118.056467 
M 55.442199 113.044157 
L 61.102323 108.165016 
M 61.102323 108.165016 
L 69.925419 105.014488 
M 127.976731 103.728739 
L 122.878322 104.387092 
M 127.976731 103.728739 
L 129.663779 97.446543 
M 108.025071 98.589975 
L 102.800982 101.596202 
M 108.025071 98.589975 
L 107.581666 103.437572 
M 108.025071 98.589975 
L 108.030306 94.86358 
M 111.785317 84.689989 
L 112.26694 80.813226 
M 111.785317 84.689989 
L 115.382711 88.953549 
M 69.925419 105.014488 
L 80.267425 104.806894 
M 115.382711 88.953549 
L 118.673439 92.608041 
M 129.663779 97.446543 
L 125.393546 97.27576 
M 129.663779 97.446543 
L 129.076794 91.980289 
M 80.267425 104.806894 
L 89.366812 101.248287 
M 129.076794 91.980289 
L 118.673439 92.608041 
M 89.366812 101.248287 
L 84.475875 99.600371 
M 89.366812 101.248287 
L 96.342206 96.288326 
M 118.673439 92.608041 
L 108.030306 94.86358 
M 108.030306 94.86358 
L 96.342206 96.288326 
M 80.506699 88.603462 
L 88.959796 92.349186 
M 96.342206 96.288326 
L 88.959796 92.349186 
L 88.959796 92.349186 
" style="fill:none;stroke:#000000;stroke-linecap:square;stroke-width:1.5;"/>
    <defs>
     <path d="M 0 1 
C 0.265203 1 0.51958 0.894634 0.707107 0.707107 
C 0.894634 0.51958 1 0.265203 1 0 
C 1 -0.265203 0.894634 -0.51958 0.707107 -0.707107 
C 0.51958 -0.894634 0.265203 -1 0 -1 
C -0.265203 -1 -0.51958 -0.894634 -0.707107 -0.707107 
C -0.894634 -0.51958 -1 -0.265203 -1 0 
C -1 0.265203 -0.894634 0.51958 -0.707107 0.707107 
C -0.51958 0.894634 -0.265203 1 0 1 
z
" id="m4aeae7a374" style="stroke:#000000;"/>
    </defs>
    <g clip-path="url(#p1641c2d4a5)">
     <use style="stroke:#000000;" x="75.732427" xlink:href="#m4aeae7a374" y="38.813856"/>
     <use style="stroke:#000000;" x="67.386529" xlink:href="#m4aeae7a374" y="37.832313"/>
     <use style="stroke:#000000;" x="75.732427" xlink:href="#m4aeae7a374" y="38.813856"/>
     <use style="stroke:#000000;" x="72.430411" xlink:href="#m4aeae7a374" y="32.935788"/>
     <use style="stroke:#000000;" x="75.732427" xlink:href="#m4aeae7a374" y="38.813856"/>
     <use style="stroke:#000000;" x="84.398964" xlink:href="#m4aeae7a374" y="41.409793"/>
     <use style="stroke:#000000;" x="204.121905" xlink:href="#m4aeae7a374" y="22.46896"/>
     <use style="stroke:#000000;" x="202.936739" xlink:href="#m4aeae7a374" y="17.018182"/>
     <use style="stroke:#000000;" x="204.121905" xlink:href="#m4aeae7a374" y="22.46896"/>
     <use style="stroke:#000000;" x="211.488055" xlink:href="#m4aeae7a374" y="18.591962"/>
     <use style="stroke:#000000;" x="204.121905" xlink:href="#m4aeae7a374" y="22.46896"/>
     <use style="stroke:#000000;" x="202.747389" xlink:href="#m4aeae7a374" y="28.564643"/>
     <use style="stroke:#000000;" x="217.910234" xlink:href="#m4aeae7a374" y="51.903159"/>
     <use style="stroke:#000000;" x="227.914389" xlink:href="#m4aeae7a374" y="53.113135"/>
     <use style="stroke:#000000;" x="217.910234" xlink:href="#m4aeae7a374" y="51.903159"/>
     <use style="stroke:#000000;" x="225.685113" xlink:href="#m4aeae7a374" y="49.047309"/>
     <use style="stroke:#000000;" x="217.910234" xlink:href="#m4aeae7a374" y="51.903159"/>
     <use style="stroke:#000000;" x="208.213603" xlink:href="#m4aeae7a374" y="53.830638"/>
     <use style="stroke:#000000;" x="160.457235" xlink:href="#m4aeae7a374" y="130.116217"/>
     <use style="stroke:#000000;" x="166.086667" xlink:href="#m4aeae7a374" y="135.175867"/>
     <use style="stroke:#000000;" x="160.457235" xlink:href="#m4aeae7a374" y="130.116217"/>
     <use style="stroke:#000000;" x="158.248387" xlink:href="#m4aeae7a374" y="135.71365"/>
     <use style="stroke:#000000;" x="160.457235" xlink:href="#m4aeae7a374" y="130.116217"/>
     <use style="stroke:#000000;" x="160.372538" xlink:href="#m4aeae7a374" y="123.030231"/>
     <use style="stroke:#000000;" x="219.964035" xlink:href="#m4aeae7a374" y="59.359556"/>
     <use style="stroke:#000000;" x="229.535865" xlink:href="#m4aeae7a374" y="61.235462"/>
     <use style="stroke:#000000;" x="219.964035" xlink:href="#m4aeae7a374" y="59.359556"/>
     <use style="stroke:#000000;" x="229.349994" xlink:href="#m4aeae7a374" y="57.372159"/>
     <use style="stroke:#000000;" x="219.964035" xlink:href="#m4aeae7a374" y="59.359556"/>
     <use style="stroke:#000000;" x="209.921618" xlink:href="#m4aeae7a374" y="60.262416"/>
     <use style="stroke:#000000;" x="181.24712" xlink:href="#m4aeae7a374" y="125.123393"/>
     <use style="stroke:#000000;" x="187.604644" xlink:href="#m4aeae7a374" y="129.583807"/>
     <use style="stroke:#000000;" x="181.24712" xlink:href="#m4aeae7a374" y="125.123393"/>
     <use style="stroke:#000000;" x="181.229593" xlink:href="#m4aeae7a374" y="131.384152"/>
     <use style="stroke:#000000;" x="181.24712" xlink:href="#m4aeae7a374" y="125.123393"/>
     <use style="stroke:#000000;" x="179.345153" xlink:href="#m4aeae7a374" y="118.109253"/>
     <use style="stroke:#000000;" x="162.953106" xlink:href="#m4aeae7a374" y="87.516947"/>
     <use style="stroke:#000000;" x="171.871532" xlink:href="#m4aeae7a374" y="86.395886"/>
     <use style="stroke:#000000;" x="162.953106" xlink:href="#m4aeae7a374" y="87.516947"/>
     <use style="stroke:#000000;" x="164.674013" xlink:href="#m4aeae7a374" y="83.323178"/>
     <use style="stroke:#000000;" x="162.953106" xlink:href="#m4aeae7a374" y="87.516947"/>
     <use style="stroke:#000000;" x="155.538631" xlink:href="#m4aeae7a374" y="89.991017"/>
     <use style="stroke:#000000;" x="188.227762" xlink:href="#m4aeae7a374" y="120.072199"/>
     <use style="stroke:#000000;" x="196.807104" xlink:href="#m4aeae7a374" y="121.670117"/>
     <use style="stroke:#000000;" x="188.227762" xlink:href="#m4aeae7a374" y="120.072199"/>
     <use style="stroke:#000000;" x="193.43415" xlink:href="#m4aeae7a374" y="125.433145"/>
     <use style="stroke:#000000;" x="188.227762" xlink:href="#m4aeae7a374" y="120.072199"/>
     <use style="stroke:#000000;" x="179.345153" xlink:href="#m4aeae7a374" y="118.109253"/>
     <use style="stroke:#000000;" x="152.709061" xlink:href="#m4aeae7a374" y="120.848289"/>
     <use style="stroke:#000000;" x="152.975542" xlink:href="#m4aeae7a374" y="126.820673"/>
     <use style="stroke:#000000;" x="152.709061" xlink:href="#m4aeae7a374" y="120.848289"/>
     <use style="stroke:#000000;" x="147.62972" xlink:href="#m4aeae7a374" y="125.437399"/>
     <use style="stroke:#000000;" x="152.709061" xlink:href="#m4aeae7a374" y="120.848289"/>
     <use style="stroke:#000000;" x="158.399802" xlink:href="#m4aeae7a374" y="116.878059"/>
     <use style="stroke:#000000;" x="217.895008" xlink:href="#m4aeae7a374" y="35.531292"/>
     <use style="stroke:#000000;" x="221.445063" xlink:href="#m4aeae7a374" y="30.213397"/>
     <use style="stroke:#000000;" x="217.895008" xlink:href="#m4aeae7a374" y="35.531292"/>
     <use style="stroke:#000000;" x="226.730131" xlink:href="#m4aeae7a374" y="33.323273"/>
     <use style="stroke:#000000;" x="217.895008" xlink:href="#m4aeae7a374" y="35.531292"/>
     <use style="stroke:#000000;" x="212.871277" xlink:href="#m4aeae7a374" y="40.329809"/>
     <use style="stroke:#000000;" x="222.631231" xlink:href="#m4aeae7a374" y="40.821852"/>
     <use style="stroke:#000000;" x="232.101818" xlink:href="#m4aeae7a374" y="41.733786"/>
     <use style="stroke:#000000;" x="222.631231" xlink:href="#m4aeae7a374" y="40.821852"/>
     <use style="stroke:#000000;" x="230.769292" xlink:href="#m4aeae7a374" y="37.70198"/>
     <use style="stroke:#000000;" x="222.631231" xlink:href="#m4aeae7a374" y="40.821852"/>
     <use style="stroke:#000000;" x="212.871277" xlink:href="#m4aeae7a374" y="40.329809"/>
     <use style="stroke:#000000;" x="84.398964" xlink:href="#m4aeae7a374" y="41.409793"/>
     <use style="stroke:#000000;" x="82.438864" xlink:href="#m4aeae7a374" y="36.237571"/>
     <use style="stroke:#000000;" x="84.398964" xlink:href="#m4aeae7a374" y="41.409793"/>
     <use style="stroke:#000000;" x="93.693651" xlink:href="#m4aeae7a374" y="43.139293"/>
     <use style="stroke:#000000;" x="155.538631" xlink:href="#m4aeae7a374" y="89.991017"/>
     <use style="stroke:#000000;" x="161.502184" xlink:href="#m4aeae7a374" y="91.839421"/>
     <use style="stroke:#000000;" x="155.538631" xlink:href="#m4aeae7a374" y="89.991017"/>
     <use style="stroke:#000000;" x="149.874165" xlink:href="#m4aeae7a374" y="91.895771"/>
     <use style="stroke:#000000;" x="94.649541" xlink:href="#m4aeae7a374" y="36.671518"/>
     <use style="stroke:#000000;" x="95.976738" xlink:href="#m4aeae7a374" y="30.56969"/>
     <use style="stroke:#000000;" x="94.649541" xlink:href="#m4aeae7a374" y="36.671518"/>
     <use style="stroke:#000000;" x="89.79286" xlink:href="#m4aeae7a374" y="31.750207"/>
     <use style="stroke:#000000;" x="94.649541" xlink:href="#m4aeae7a374" y="36.671518"/>
     <use style="stroke:#000000;" x="93.693651" xlink:href="#m4aeae7a374" y="43.139293"/>
     <use style="stroke:#000000;" x="216.717014" xlink:href="#m4aeae7a374" y="64.096286"/>
     <use style="stroke:#000000;" x="223.671999" xlink:href="#m4aeae7a374" y="67.606148"/>
     <use style="stroke:#000000;" x="216.717014" xlink:href="#m4aeae7a374" y="64.096286"/>
     <use style="stroke:#000000;" x="226.9496" xlink:href="#m4aeae7a374" y="64.557012"/>
     <use style="stroke:#000000;" x="216.717014" xlink:href="#m4aeae7a374" y="64.096286"/>
     <use style="stroke:#000000;" x="209.921618" xlink:href="#m4aeae7a374" y="60.262416"/>
     <use style="stroke:#000000;" x="221.920838" xlink:href="#m4aeae7a374" y="113.512907"/>
     <use style="stroke:#000000;" x="230.42372" xlink:href="#m4aeae7a374" y="112.991475"/>
     <use style="stroke:#000000;" x="221.920838" xlink:href="#m4aeae7a374" y="113.512907"/>
     <use style="stroke:#000000;" x="226.866828" xlink:href="#m4aeae7a374" y="118.70726"/>
     <use style="stroke:#000000;" x="221.920838" xlink:href="#m4aeae7a374" y="113.512907"/>
     <use style="stroke:#000000;" x="212.927879" xlink:href="#m4aeae7a374" y="112.07789"/>
     <use style="stroke:#000000;" x="142.058224" xlink:href="#m4aeae7a374" y="42.721261"/>
     <use style="stroke:#000000;" x="140.611419" xlink:href="#m4aeae7a374" y="36.226047"/>
     <use style="stroke:#000000;" x="142.058224" xlink:href="#m4aeae7a374" y="42.721261"/>
     <use style="stroke:#000000;" x="146.225783" xlink:href="#m4aeae7a374" y="37.958284"/>
     <use style="stroke:#000000;" x="142.058224" xlink:href="#m4aeae7a374" y="42.721261"/>
     <use style="stroke:#000000;" x="137.399622" xlink:href="#m4aeae7a374" y="47.211286"/>
     <use style="stroke:#000000;" x="107.298813" xlink:href="#m4aeae7a374" y="49.723444"/>
     <use style="stroke:#000000;" x="98.885324" xlink:href="#m4aeae7a374" y="47.94535"/>
     <use style="stroke:#000000;" x="107.298813" xlink:href="#m4aeae7a374" y="49.723444"/>
     <use style="stroke:#000000;" x="106.239187" xlink:href="#m4aeae7a374" y="44.092378"/>
     <use style="stroke:#000000;" x="107.298813" xlink:href="#m4aeae7a374" y="49.723444"/>
     <use style="stroke:#000000;" x="109.038481" xlink:href="#m4aeae7a374" y="53.725209"/>
     <use style="stroke:#000000;" x="212.871277" xlink:href="#m4aeae7a374" y="40.329809"/>
     <use style="stroke:#000000;" x="203.263897" xlink:href="#m4aeae7a374" y="41.607357"/>
     <use style="stroke:#000000;" x="125.149589" xlink:href="#m4aeae7a374" y="42.60184"/>
     <use style="stroke:#000000;" x="119.039073" xlink:href="#m4aeae7a374" y="37.269739"/>
     <use style="stroke:#000000;" x="125.149589" xlink:href="#m4aeae7a374" y="42.60184"/>
     <use style="stroke:#000000;" x="124.646854" xlink:href="#m4aeae7a374" y="36.146791"/>
     <use style="stroke:#000000;" x="125.149589" xlink:href="#m4aeae7a374" y="42.60184"/>
     <use style="stroke:#000000;" x="126.854294" xlink:href="#m4aeae7a374" y="48.776964"/>
     <use style="stroke:#000000;" x="179.345153" xlink:href="#m4aeae7a374" y="118.109253"/>
     <use style="stroke:#000000;" x="170.638607" xlink:href="#m4aeae7a374" y="114.071404"/>
     <use style="stroke:#000000;" x="202.747389" xlink:href="#m4aeae7a374" y="28.564643"/>
     <use style="stroke:#000000;" x="210.413926" xlink:href="#m4aeae7a374" y="25.903892"/>
     <use style="stroke:#000000;" x="202.747389" xlink:href="#m4aeae7a374" y="28.564643"/>
     <use style="stroke:#000000;" x="201.487853" xlink:href="#m4aeae7a374" y="35.37079"/>
     <use style="stroke:#000000;" x="160.372538" xlink:href="#m4aeae7a374" y="123.030231"/>
     <use style="stroke:#000000;" x="165.298831" xlink:href="#m4aeae7a374" y="126.892458"/>
     <use style="stroke:#000000;" x="160.372538" xlink:href="#m4aeae7a374" y="123.030231"/>
     <use style="stroke:#000000;" x="158.399802" xlink:href="#m4aeae7a374" y="116.878059"/>
     <use style="stroke:#000000;" x="173.745551" xlink:href="#m4aeae7a374" y="32.969317"/>
     <use style="stroke:#000000;" x="172.378153" xlink:href="#m4aeae7a374" y="26.819371"/>
     <use style="stroke:#000000;" x="173.745551" xlink:href="#m4aeae7a374" y="32.969317"/>
     <use style="stroke:#000000;" x="178.809082" xlink:href="#m4aeae7a374" y="28.424274"/>
     <use style="stroke:#000000;" x="173.745551" xlink:href="#m4aeae7a374" y="32.969317"/>
     <use style="stroke:#000000;" x="169.35392" xlink:href="#m4aeae7a374" y="37.989229"/>
     <use style="stroke:#000000;" x="201.487853" xlink:href="#m4aeae7a374" y="35.37079"/>
     <use style="stroke:#000000;" x="205.86854" xlink:href="#m4aeae7a374" y="32.579534"/>
     <use style="stroke:#000000;" x="201.487853" xlink:href="#m4aeae7a374" y="35.37079"/>
     <use style="stroke:#000000;" x="203.263897" xlink:href="#m4aeae7a374" y="41.607357"/>
     <use style="stroke:#000000;" x="133.995473" xlink:href="#m4aeae7a374" y="41.326008"/>
     <use style="stroke:#000000;" x="134.966535" xlink:href="#m4aeae7a374" y="34.813618"/>
     <use style="stroke:#000000;" x="133.995473" xlink:href="#m4aeae7a374" y="41.326008"/>
     <use style="stroke:#000000;" x="129.293546" xlink:href="#m4aeae7a374" y="35.568917"/>
     <use style="stroke:#000000;" x="133.995473" xlink:href="#m4aeae7a374" y="41.326008"/>
     <use style="stroke:#000000;" x="137.399622" xlink:href="#m4aeae7a374" y="47.211286"/>
     <use style="stroke:#000000;" x="167.509057" xlink:href="#m4aeae7a374" y="49.471132"/>
     <use style="stroke:#000000;" x="162.601075" xlink:href="#m4aeae7a374" y="45.417019"/>
     <use style="stroke:#000000;" x="167.509057" xlink:href="#m4aeae7a374" y="49.471132"/>
     <use style="stroke:#000000;" x="168.660407" xlink:href="#m4aeae7a374" y="44.53301"/>
     <use style="stroke:#000000;" x="167.509057" xlink:href="#m4aeae7a374" y="49.471132"/>
     <use style="stroke:#000000;" x="171.836906" xlink:href="#m4aeae7a374" y="51.814254"/>
     <use style="stroke:#000000;" x="118.800483" xlink:href="#m4aeae7a374" y="46.316516"/>
     <use style="stroke:#000000;" x="114.624301" xlink:href="#m4aeae7a374" y="40.250832"/>
     <use style="stroke:#000000;" x="118.800483" xlink:href="#m4aeae7a374" y="46.316516"/>
     <use style="stroke:#000000;" x="110.876369" xlink:href="#m4aeae7a374" y="43.656289"/>
     <use style="stroke:#000000;" x="118.800483" xlink:href="#m4aeae7a374" y="46.316516"/>
     <use style="stroke:#000000;" x="126.854294" xlink:href="#m4aeae7a374" y="48.776964"/>
     <use style="stroke:#000000;" x="209.921618" xlink:href="#m4aeae7a374" y="60.262416"/>
     <use style="stroke:#000000;" x="201.706345" xlink:href="#m4aeae7a374" y="56.613082"/>
     <use style="stroke:#000000;" x="93.693651" xlink:href="#m4aeae7a374" y="43.139293"/>
     <use style="stroke:#000000;" x="99.476701" xlink:href="#m4aeae7a374" y="49.74678"/>
     <use style="stroke:#000000;" x="212.927879" xlink:href="#m4aeae7a374" y="112.07789"/>
     <use style="stroke:#000000;" x="215.261842" xlink:href="#m4aeae7a374" y="117.814381"/>
     <use style="stroke:#000000;" x="212.927879" xlink:href="#m4aeae7a374" y="112.07789"/>
     <use style="stroke:#000000;" x="203.403926" xlink:href="#m4aeae7a374" y="110.104782"/>
     <use style="stroke:#000000;" x="126.854294" xlink:href="#m4aeae7a374" y="48.776964"/>
     <use style="stroke:#000000;" x="134.027637" xlink:href="#m4aeae7a374" y="52.417212"/>
     <use style="stroke:#000000;" x="149.874165" xlink:href="#m4aeae7a374" y="91.895771"/>
     <use style="stroke:#000000;" x="147.028303" xlink:href="#m4aeae7a374" y="96.089702"/>
     <use style="stroke:#000000;" x="149.874165" xlink:href="#m4aeae7a374" y="91.895771"/>
     <use style="stroke:#000000;" x="146.680353" xlink:href="#m4aeae7a374" y="93.724985"/>
     <use style="stroke:#000000;" x="158.399802" xlink:href="#m4aeae7a374" y="116.878059"/>
     <use style="stroke:#000000;" x="162.245929" xlink:href="#m4aeae7a374" y="111.122976"/>
     <use style="stroke:#000000;" x="208.213603" xlink:href="#m4aeae7a374" y="53.830638"/>
     <use style="stroke:#000000;" x="213.727439" xlink:href="#m4aeae7a374" y="56.168481"/>
     <use style="stroke:#000000;" x="208.213603" xlink:href="#m4aeae7a374" y="53.830638"/>
     <use style="stroke:#000000;" x="201.706345" xlink:href="#m4aeae7a374" y="56.613082"/>
     <use style="stroke:#000000;" x="192.621151" xlink:href="#m4aeae7a374" y="93.54977"/>
     <use style="stroke:#000000;" x="200.997348" xlink:href="#m4aeae7a374" y="91.996306"/>
     <use style="stroke:#000000;" x="192.621151" xlink:href="#m4aeae7a374" y="93.54977"/>
     <use style="stroke:#000000;" x="201.468059" xlink:href="#m4aeae7a374" y="96.358741"/>
     <use style="stroke:#000000;" x="192.621151" xlink:href="#m4aeae7a374" y="93.54977"/>
     <use style="stroke:#000000;" x="182.632769" xlink:href="#m4aeae7a374" y="94.637607"/>
     <use style="stroke:#000000;" x="164.395552" xlink:href="#m4aeae7a374" y="32.518876"/>
     <use style="stroke:#000000;" x="159.542139" xlink:href="#m4aeae7a374" y="27.323504"/>
     <use style="stroke:#000000;" x="164.395552" xlink:href="#m4aeae7a374" y="32.518876"/>
     <use style="stroke:#000000;" x="165.41129" xlink:href="#m4aeae7a374" y="26.344914"/>
     <use style="stroke:#000000;" x="164.395552" xlink:href="#m4aeae7a374" y="32.518876"/>
     <use style="stroke:#000000;" x="169.35392" xlink:href="#m4aeae7a374" y="37.989229"/>
     <use style="stroke:#000000;" x="203.263897" xlink:href="#m4aeae7a374" y="41.607357"/>
     <use style="stroke:#000000;" x="197.640733" xlink:href="#m4aeae7a374" y="47.64314"/>
     <use style="stroke:#000000;" x="137.399622" xlink:href="#m4aeae7a374" y="47.211286"/>
     <use style="stroke:#000000;" x="134.027637" xlink:href="#m4aeae7a374" y="52.417212"/>
     <use style="stroke:#000000;" x="153.716999" xlink:href="#m4aeae7a374" y="106.107527"/>
     <use style="stroke:#000000;" x="154.92248" xlink:href="#m4aeae7a374" y="110.20296"/>
     <use style="stroke:#000000;" x="153.716999" xlink:href="#m4aeae7a374" y="106.107527"/>
     <use style="stroke:#000000;" x="148.622544" xlink:href="#m4aeae7a374" y="109.622262"/>
     <use style="stroke:#000000;" x="153.716999" xlink:href="#m4aeae7a374" y="106.107527"/>
     <use style="stroke:#000000;" x="158.653816" xlink:href="#m4aeae7a374" y="104.533592"/>
     <use style="stroke:#000000;" x="201.706345" xlink:href="#m4aeae7a374" y="56.613082"/>
     <use style="stroke:#000000;" x="193.320028" xlink:href="#m4aeae7a374" y="53.474011"/>
     <use style="stroke:#000000;" x="99.476701" xlink:href="#m4aeae7a374" y="49.74678"/>
     <use style="stroke:#000000;" x="91.711159" xlink:href="#m4aeae7a374" y="51.226293"/>
     <use style="stroke:#000000;" x="99.476701" xlink:href="#m4aeae7a374" y="49.74678"/>
     <use style="stroke:#000000;" x="109.038481" xlink:href="#m4aeae7a374" y="53.725209"/>
     <use style="stroke:#000000;" x="203.403926" xlink:href="#m4aeae7a374" y="110.104782"/>
     <use style="stroke:#000000;" x="204.929034" xlink:href="#m4aeae7a374" y="115.052328"/>
     <use style="stroke:#000000;" x="203.403926" xlink:href="#m4aeae7a374" y="110.104782"/>
     <use style="stroke:#000000;" x="194.39785" xlink:href="#m4aeae7a374" y="107.066432"/>
     <use style="stroke:#000000;" x="134.027637" xlink:href="#m4aeae7a374" y="52.417212"/>
     <use style="stroke:#000000;" x="136.158618" xlink:href="#m4aeae7a374" y="58.336509"/>
     <use style="stroke:#000000;" x="109.038481" xlink:href="#m4aeae7a374" y="53.725209"/>
     <use style="stroke:#000000;" x="118.630107" xlink:href="#m4aeae7a374" y="57.429396"/>
     <use style="stroke:#000000;" x="197.640733" xlink:href="#m4aeae7a374" y="47.64314"/>
     <use style="stroke:#000000;" x="194.980265" xlink:href="#m4aeae7a374" y="44.428805"/>
     <use style="stroke:#000000;" x="197.640733" xlink:href="#m4aeae7a374" y="47.64314"/>
     <use style="stroke:#000000;" x="193.320028" xlink:href="#m4aeae7a374" y="53.474011"/>
     <use style="stroke:#000000;" x="194.39785" xlink:href="#m4aeae7a374" y="107.066432"/>
     <use style="stroke:#000000;" x="201.95753" xlink:href="#m4aeae7a374" y="104.325183"/>
     <use style="stroke:#000000;" x="194.39785" xlink:href="#m4aeae7a374" y="107.066432"/>
     <use style="stroke:#000000;" x="183.969148" xlink:href="#m4aeae7a374" y="104.683247"/>
     <use style="stroke:#000000;" x="171.091784" xlink:href="#m4aeae7a374" y="118.44181"/>
     <use style="stroke:#000000;" x="170.976529" xlink:href="#m4aeae7a374" y="124.353057"/>
     <use style="stroke:#000000;" x="171.091784" xlink:href="#m4aeae7a374" y="118.44181"/>
     <use style="stroke:#000000;" x="177.951368" xlink:href="#m4aeae7a374" y="121.68492"/>
     <use style="stroke:#000000;" x="171.091784" xlink:href="#m4aeae7a374" y="118.44181"/>
     <use style="stroke:#000000;" x="170.638607" xlink:href="#m4aeae7a374" y="114.071404"/>
     <use style="stroke:#000000;" x="169.35392" xlink:href="#m4aeae7a374" y="37.989229"/>
     <use style="stroke:#000000;" x="171.73549" xlink:href="#m4aeae7a374" y="45.024202"/>
     <use style="stroke:#000000;" x="118.630107" xlink:href="#m4aeae7a374" y="57.429396"/>
     <use style="stroke:#000000;" x="112.892888" xlink:href="#m4aeae7a374" y="59.456072"/>
     <use style="stroke:#000000;" x="118.630107" xlink:href="#m4aeae7a374" y="57.429396"/>
     <use style="stroke:#000000;" x="128.42975" xlink:href="#m4aeae7a374" y="61.243524"/>
     <use style="stroke:#000000;" x="112.531372" xlink:href="#m4aeae7a374" y="126.827028"/>
     <use style="stroke:#000000;" x="109.772821" xlink:href="#m4aeae7a374" y="132.389399"/>
     <use style="stroke:#000000;" x="112.531372" xlink:href="#m4aeae7a374" y="126.827028"/>
     <use style="stroke:#000000;" x="104.640933" xlink:href="#m4aeae7a374" y="129.835997"/>
     <use style="stroke:#000000;" x="112.531372" xlink:href="#m4aeae7a374" y="126.827028"/>
     <use style="stroke:#000000;" x="120.498153" xlink:href="#m4aeae7a374" y="123.69115"/>
     <use style="stroke:#000000;" x="36.009995" xlink:href="#m4aeae7a374" y="124.078191"/>
     <use style="stroke:#000000;" x="28.620578" xlink:href="#m4aeae7a374" y="126.707666"/>
     <use style="stroke:#000000;" x="36.009995" xlink:href="#m4aeae7a374" y="124.078191"/>
     <use style="stroke:#000000;" x="35.575973" xlink:href="#m4aeae7a374" y="129.846868"/>
     <use style="stroke:#000000;" x="36.009995" xlink:href="#m4aeae7a374" y="124.078191"/>
     <use style="stroke:#000000;" x="38.271116" xlink:href="#m4aeae7a374" y="118.157764"/>
     <use style="stroke:#000000;" x="182.632769" xlink:href="#m4aeae7a374" y="94.637607"/>
     <use style="stroke:#000000;" x="188.758427" xlink:href="#m4aeae7a374" y="97.040943"/>
     <use style="stroke:#000000;" x="182.632769" xlink:href="#m4aeae7a374" y="94.637607"/>
     <use style="stroke:#000000;" x="172.727802" xlink:href="#m4aeae7a374" y="96.039553"/>
     <use style="stroke:#000000;" x="136.158618" xlink:href="#m4aeae7a374" y="58.336509"/>
     <use style="stroke:#000000;" x="141.612763" xlink:href="#m4aeae7a374" y="57.461942"/>
     <use style="stroke:#000000;" x="136.158618" xlink:href="#m4aeae7a374" y="58.336509"/>
     <use style="stroke:#000000;" x="137.239616" xlink:href="#m4aeae7a374" y="63.524522"/>
     <use style="stroke:#000000;" x="193.320028" xlink:href="#m4aeae7a374" y="53.474011"/>
     <use style="stroke:#000000;" x="183.235419" xlink:href="#m4aeae7a374" y="55.794129"/>
     <use style="stroke:#000000;" x="124.71431" xlink:href="#m4aeae7a374" y="136.149028"/>
     <use style="stroke:#000000;" x="119.316148" xlink:href="#m4aeae7a374" y="141.335701"/>
     <use style="stroke:#000000;" x="124.71431" xlink:href="#m4aeae7a374" y="136.149028"/>
     <use style="stroke:#000000;" x="127.824334" xlink:href="#m4aeae7a374" y="141.381818"/>
     <use style="stroke:#000000;" x="124.71431" xlink:href="#m4aeae7a374" y="136.149028"/>
     <use style="stroke:#000000;" x="123.386278" xlink:href="#m4aeae7a374" y="129.779183"/>
     <use style="stroke:#000000;" x="183.969148" xlink:href="#m4aeae7a374" y="104.683247"/>
     <use style="stroke:#000000;" x="190.225647" xlink:href="#m4aeae7a374" y="102.676966"/>
     <use style="stroke:#000000;" x="183.969148" xlink:href="#m4aeae7a374" y="104.683247"/>
     <use style="stroke:#000000;" x="173.491276" xlink:href="#m4aeae7a374" y="102.003909"/>
     <use style="stroke:#000000;" x="128.42975" xlink:href="#m4aeae7a374" y="61.243524"/>
     <use style="stroke:#000000;" x="123.817578" xlink:href="#m4aeae7a374" y="62.104932"/>
     <use style="stroke:#000000;" x="128.42975" xlink:href="#m4aeae7a374" y="61.243524"/>
     <use style="stroke:#000000;" x="137.239616" xlink:href="#m4aeae7a374" y="63.524522"/>
     <use style="stroke:#000000;" x="170.638607" xlink:href="#m4aeae7a374" y="114.071404"/>
     <use style="stroke:#000000;" x="162.245929" xlink:href="#m4aeae7a374" y="111.122976"/>
     <use style="stroke:#000000;" x="123.386278" xlink:href="#m4aeae7a374" y="129.779183"/>
     <use style="stroke:#000000;" x="118.331729" xlink:href="#m4aeae7a374" y="133.828972"/>
     <use style="stroke:#000000;" x="123.386278" xlink:href="#m4aeae7a374" y="129.779183"/>
     <use style="stroke:#000000;" x="120.498153" xlink:href="#m4aeae7a374" y="123.69115"/>
     <use style="stroke:#000000;" x="171.73549" xlink:href="#m4aeae7a374" y="45.024202"/>
     <use style="stroke:#000000;" x="177.659265" xlink:href="#m4aeae7a374" y="43.250494"/>
     <use style="stroke:#000000;" x="171.73549" xlink:href="#m4aeae7a374" y="45.024202"/>
     <use style="stroke:#000000;" x="171.836906" xlink:href="#m4aeae7a374" y="51.814254"/>
     <use style="stroke:#000000;" x="172.727802" xlink:href="#m4aeae7a374" y="96.039553"/>
     <use style="stroke:#000000;" x="176.021714" xlink:href="#m4aeae7a374" y="92.49686"/>
     <use style="stroke:#000000;" x="172.727802" xlink:href="#m4aeae7a374" y="96.039553"/>
     <use style="stroke:#000000;" x="165.643107" xlink:href="#m4aeae7a374" y="98.59"/>
     <use style="stroke:#000000;" x="137.239616" xlink:href="#m4aeae7a374" y="63.524522"/>
     <use style="stroke:#000000;" x="145.047485" xlink:href="#m4aeae7a374" y="67.965078"/>
     <use style="stroke:#000000;" x="141.885944" xlink:href="#m4aeae7a374" y="73.85986"/>
     <use style="stroke:#000000;" x="135.624711" xlink:href="#m4aeae7a374" y="73.300961"/>
     <use style="stroke:#000000;" x="141.885944" xlink:href="#m4aeae7a374" y="73.85986"/>
     <use style="stroke:#000000;" x="150.054415" xlink:href="#m4aeae7a374" y="74.319421"/>
     <use style="stroke:#000000;" x="141.885944" xlink:href="#m4aeae7a374" y="73.85986"/>
     <use style="stroke:#000000;" x="143.668171" xlink:href="#m4aeae7a374" y="75.544837"/>
     <use style="stroke:#000000;" x="173.491276" xlink:href="#m4aeae7a374" y="102.003909"/>
     <use style="stroke:#000000;" x="178.551371" xlink:href="#m4aeae7a374" y="100.709198"/>
     <use style="stroke:#000000;" x="173.491276" xlink:href="#m4aeae7a374" y="102.003909"/>
     <use style="stroke:#000000;" x="165.643107" xlink:href="#m4aeae7a374" y="98.59"/>
     <use style="stroke:#000000;" x="183.235419" xlink:href="#m4aeae7a374" y="55.794129"/>
     <use style="stroke:#000000;" x="186.20731" xlink:href="#m4aeae7a374" y="59.126713"/>
     <use style="stroke:#000000;" x="183.235419" xlink:href="#m4aeae7a374" y="55.794129"/>
     <use style="stroke:#000000;" x="172.946762" xlink:href="#m4aeae7a374" y="57.188633"/>
     <use style="stroke:#000000;" x="171.836906" xlink:href="#m4aeae7a374" y="51.814254"/>
     <use style="stroke:#000000;" x="172.946762" xlink:href="#m4aeae7a374" y="57.188633"/>
     <use style="stroke:#000000;" x="118.049376" xlink:href="#m4aeae7a374" y="111.913322"/>
     <use style="stroke:#000000;" x="114.97891" xlink:href="#m4aeae7a374" y="116.645219"/>
     <use style="stroke:#000000;" x="118.049376" xlink:href="#m4aeae7a374" y="111.913322"/>
     <use style="stroke:#000000;" x="110.009387" xlink:href="#m4aeae7a374" y="113.992854"/>
     <use style="stroke:#000000;" x="118.049376" xlink:href="#m4aeae7a374" y="111.913322"/>
     <use style="stroke:#000000;" x="125.128751" xlink:href="#m4aeae7a374" y="110.278906"/>
     <use style="stroke:#000000;" x="172.946762" xlink:href="#m4aeae7a374" y="57.188633"/>
     <use style="stroke:#000000;" x="164.134771" xlink:href="#m4aeae7a374" y="61.239342"/>
     <use style="stroke:#000000;" x="120.498153" xlink:href="#m4aeae7a374" y="123.69115"/>
     <use style="stroke:#000000;" x="123.833034" xlink:href="#m4aeae7a374" y="116.995054"/>
     <use style="stroke:#000000;" x="29.399303" xlink:href="#m4aeae7a374" y="116.035685"/>
     <use style="stroke:#000000;" x="21.338182" xlink:href="#m4aeae7a374" y="113.299448"/>
     <use style="stroke:#000000;" x="29.399303" xlink:href="#m4aeae7a374" y="116.035685"/>
     <use style="stroke:#000000;" x="21.775366" xlink:href="#m4aeae7a374" y="118.509433"/>
     <use style="stroke:#000000;" x="29.399303" xlink:href="#m4aeae7a374" y="116.035685"/>
     <use style="stroke:#000000;" x="38.271116" xlink:href="#m4aeae7a374" y="118.157764"/>
     <use style="stroke:#000000;" x="123.833034" xlink:href="#m4aeae7a374" y="116.995054"/>
     <use style="stroke:#000000;" x="128.854767" xlink:href="#m4aeae7a374" y="119.925425"/>
     <use style="stroke:#000000;" x="123.833034" xlink:href="#m4aeae7a374" y="116.995054"/>
     <use style="stroke:#000000;" x="125.128751" xlink:href="#m4aeae7a374" y="110.278906"/>
     <use style="stroke:#000000;" x="164.134771" xlink:href="#m4aeae7a374" y="61.239342"/>
     <use style="stroke:#000000;" x="168.67997" xlink:href="#m4aeae7a374" y="63.781201"/>
     <use style="stroke:#000000;" x="164.134771" xlink:href="#m4aeae7a374" y="61.239342"/>
     <use style="stroke:#000000;" x="155.092267" xlink:href="#m4aeae7a374" y="65.633731"/>
     <use style="stroke:#000000;" x="162.245929" xlink:href="#m4aeae7a374" y="111.122976"/>
     <use style="stroke:#000000;" x="158.653816" xlink:href="#m4aeae7a374" y="104.533592"/>
     <use style="stroke:#000000;" x="52.548056" xlink:href="#m4aeae7a374" y="105.238924"/>
     <use style="stroke:#000000;" x="44.588842" xlink:href="#m4aeae7a374" y="101.175623"/>
     <use style="stroke:#000000;" x="52.548056" xlink:href="#m4aeae7a374" y="105.238924"/>
     <use style="stroke:#000000;" x="44.122875" xlink:href="#m4aeae7a374" y="105.103941"/>
     <use style="stroke:#000000;" x="52.548056" xlink:href="#m4aeae7a374" y="105.238924"/>
     <use style="stroke:#000000;" x="61.102323" xlink:href="#m4aeae7a374" y="108.165016"/>
     <use style="stroke:#000000;" x="165.643107" xlink:href="#m4aeae7a374" y="98.59"/>
     <use style="stroke:#000000;" x="156.003706" xlink:href="#m4aeae7a374" y="98.605565"/>
     <use style="stroke:#000000;" x="80.322217" xlink:href="#m4aeae7a374" y="116.62708"/>
     <use style="stroke:#000000;" x="80.307563" xlink:href="#m4aeae7a374" y="122.358482"/>
     <use style="stroke:#000000;" x="80.322217" xlink:href="#m4aeae7a374" y="116.62708"/>
     <use style="stroke:#000000;" x="74.451312" xlink:href="#m4aeae7a374" y="120.947436"/>
     <use style="stroke:#000000;" x="80.322217" xlink:href="#m4aeae7a374" y="116.62708"/>
     <use style="stroke:#000000;" x="81.249323" xlink:href="#m4aeae7a374" y="110.3987"/>
     <use style="stroke:#000000;" x="99.804923" xlink:href="#m4aeae7a374" y="85.359996"/>
     <use style="stroke:#000000;" x="90.975751" xlink:href="#m4aeae7a374" y="85.303912"/>
     <use style="stroke:#000000;" x="99.804923" xlink:href="#m4aeae7a374" y="85.359996"/>
     <use style="stroke:#000000;" x="92.815227" xlink:href="#m4aeae7a374" y="81.190345"/>
     <use style="stroke:#000000;" x="99.804923" xlink:href="#m4aeae7a374" y="85.359996"/>
     <use style="stroke:#000000;" x="108.201589" xlink:href="#m4aeae7a374" y="88.197648"/>
     <use style="stroke:#000000;" x="103.910727" xlink:href="#m4aeae7a374" y="80.819552"/>
     <use style="stroke:#000000;" x="94.798075" xlink:href="#m4aeae7a374" y="78.689624"/>
     <use style="stroke:#000000;" x="103.910727" xlink:href="#m4aeae7a374" y="80.819552"/>
     <use style="stroke:#000000;" x="99.103377" xlink:href="#m4aeae7a374" y="76.128774"/>
     <use style="stroke:#000000;" x="103.910727" xlink:href="#m4aeae7a374" y="80.819552"/>
     <use style="stroke:#000000;" x="111.785317" xlink:href="#m4aeae7a374" y="84.689989"/>
     <use style="stroke:#000000;" x="155.092267" xlink:href="#m4aeae7a374" y="65.633731"/>
     <use style="stroke:#000000;" x="155.522896" xlink:href="#m4aeae7a374" y="63.224328"/>
     <use style="stroke:#000000;" x="155.092267" xlink:href="#m4aeae7a374" y="65.633731"/>
     <use style="stroke:#000000;" x="145.047485" xlink:href="#m4aeae7a374" y="67.965078"/>
     <use style="stroke:#000000;" x="158.653816" xlink:href="#m4aeae7a374" y="104.533592"/>
     <use style="stroke:#000000;" x="156.003706" xlink:href="#m4aeae7a374" y="98.605565"/>
     <use style="stroke:#000000;" x="145.047485" xlink:href="#m4aeae7a374" y="67.965078"/>
     <use style="stroke:#000000;" x="143.668171" xlink:href="#m4aeae7a374" y="75.544837"/>
     <use style="stroke:#000000;" x="63.866993" xlink:href="#m4aeae7a374" y="101.162392"/>
     <use style="stroke:#000000;" x="55.691649" xlink:href="#m4aeae7a374" y="100.208918"/>
     <use style="stroke:#000000;" x="63.866993" xlink:href="#m4aeae7a374" y="101.162392"/>
     <use style="stroke:#000000;" x="56.620337" xlink:href="#m4aeae7a374" y="96.916785"/>
     <use style="stroke:#000000;" x="63.866993" xlink:href="#m4aeae7a374" y="101.162392"/>
     <use style="stroke:#000000;" x="69.925419" xlink:href="#m4aeae7a374" y="105.014488"/>
     <use style="stroke:#000000;" x="156.003706" xlink:href="#m4aeae7a374" y="98.605565"/>
     <use style="stroke:#000000;" x="146.680353" xlink:href="#m4aeae7a374" y="93.724985"/>
     <use style="stroke:#000000;" x="125.128751" xlink:href="#m4aeae7a374" y="110.278906"/>
     <use style="stroke:#000000;" x="127.976731" xlink:href="#m4aeae7a374" y="103.728739"/>
     <use style="stroke:#000000;" x="143.668171" xlink:href="#m4aeae7a374" y="75.544837"/>
     <use style="stroke:#000000;" x="139.690659" xlink:href="#m4aeae7a374" y="82.248119"/>
     <use style="stroke:#000000;" x="38.271116" xlink:href="#m4aeae7a374" y="118.157764"/>
     <use style="stroke:#000000;" x="47.190176" xlink:href="#m4aeae7a374" y="116.206621"/>
     <use style="stroke:#000000;" x="74.656524" xlink:href="#m4aeae7a374" y="83.511739"/>
     <use style="stroke:#000000;" x="65.21437" xlink:href="#m4aeae7a374" y="81.463723"/>
     <use style="stroke:#000000;" x="74.656524" xlink:href="#m4aeae7a374" y="83.511739"/>
     <use style="stroke:#000000;" x="69.09707" xlink:href="#m4aeae7a374" y="78.730399"/>
     <use style="stroke:#000000;" x="74.656524" xlink:href="#m4aeae7a374" y="83.511739"/>
     <use style="stroke:#000000;" x="80.506699" xlink:href="#m4aeae7a374" y="88.603462"/>
     <use style="stroke:#000000;" x="139.690659" xlink:href="#m4aeae7a374" y="82.248119"/>
     <use style="stroke:#000000;" x="143.978512" xlink:href="#m4aeae7a374" y="81.880326"/>
     <use style="stroke:#000000;" x="139.690659" xlink:href="#m4aeae7a374" y="82.248119"/>
     <use style="stroke:#000000;" x="138.596465" xlink:href="#m4aeae7a374" y="89.127453"/>
     <use style="stroke:#000000;" x="47.190176" xlink:href="#m4aeae7a374" y="116.206621"/>
     <use style="stroke:#000000;" x="48.301952" xlink:href="#m4aeae7a374" y="121.778774"/>
     <use style="stroke:#000000;" x="47.190176" xlink:href="#m4aeae7a374" y="116.206621"/>
     <use style="stroke:#000000;" x="55.442199" xlink:href="#m4aeae7a374" y="113.044157"/>
     <use style="stroke:#000000;" x="81.249323" xlink:href="#m4aeae7a374" y="110.3987"/>
     <use style="stroke:#000000;" x="76.022723" xlink:href="#m4aeae7a374" y="112.936691"/>
     <use style="stroke:#000000;" x="81.249323" xlink:href="#m4aeae7a374" y="110.3987"/>
     <use style="stroke:#000000;" x="80.267425" xlink:href="#m4aeae7a374" y="104.806894"/>
     <use style="stroke:#000000;" x="146.680353" xlink:href="#m4aeae7a374" y="93.724985"/>
     <use style="stroke:#000000;" x="138.596465" xlink:href="#m4aeae7a374" y="89.127453"/>
     <use style="stroke:#000000;" x="71.73134" xlink:href="#m4aeae7a374" y="88.500282"/>
     <use style="stroke:#000000;" x="63.365153" xlink:href="#m4aeae7a374" y="84.978232"/>
     <use style="stroke:#000000;" x="71.73134" xlink:href="#m4aeae7a374" y="88.500282"/>
     <use style="stroke:#000000;" x="62.922965" xlink:href="#m4aeae7a374" y="88.962793"/>
     <use style="stroke:#000000;" x="71.73134" xlink:href="#m4aeae7a374" y="88.500282"/>
     <use style="stroke:#000000;" x="80.506699" xlink:href="#m4aeae7a374" y="88.603462"/>
     <use style="stroke:#000000;" x="108.201589" xlink:href="#m4aeae7a374" y="88.197648"/>
     <use style="stroke:#000000;" x="103.208759" xlink:href="#m4aeae7a374" y="91.133101"/>
     <use style="stroke:#000000;" x="108.201589" xlink:href="#m4aeae7a374" y="88.197648"/>
     <use style="stroke:#000000;" x="115.382711" xlink:href="#m4aeae7a374" y="88.953549"/>
     <use style="stroke:#000000;" x="138.596465" xlink:href="#m4aeae7a374" y="89.127453"/>
     <use style="stroke:#000000;" x="129.076794" xlink:href="#m4aeae7a374" y="91.980289"/>
     <use style="stroke:#000000;" x="55.442199" xlink:href="#m4aeae7a374" y="113.044157"/>
     <use style="stroke:#000000;" x="56.974189" xlink:href="#m4aeae7a374" y="118.056467"/>
     <use style="stroke:#000000;" x="55.442199" xlink:href="#m4aeae7a374" y="113.044157"/>
     <use style="stroke:#000000;" x="61.102323" xlink:href="#m4aeae7a374" y="108.165016"/>
     <use style="stroke:#000000;" x="61.102323" xlink:href="#m4aeae7a374" y="108.165016"/>
     <use style="stroke:#000000;" x="69.925419" xlink:href="#m4aeae7a374" y="105.014488"/>
     <use style="stroke:#000000;" x="127.976731" xlink:href="#m4aeae7a374" y="103.728739"/>
     <use style="stroke:#000000;" x="122.878322" xlink:href="#m4aeae7a374" y="104.387092"/>
     <use style="stroke:#000000;" x="127.976731" xlink:href="#m4aeae7a374" y="103.728739"/>
     <use style="stroke:#000000;" x="129.663779" xlink:href="#m4aeae7a374" y="97.446543"/>
     <use style="stroke:#000000;" x="108.025071" xlink:href="#m4aeae7a374" y="98.589975"/>
     <use style="stroke:#000000;" x="102.800982" xlink:href="#m4aeae7a374" y="101.596202"/>
     <use style="stroke:#000000;" x="108.025071" xlink:href="#m4aeae7a374" y="98.589975"/>
     <use style="stroke:#000000;" x="107.581666" xlink:href="#m4aeae7a374" y="103.437572"/>
     <use style="stroke:#000000;" x="108.025071" xlink:href="#m4aeae7a374" y="98.589975"/>
     <use style="stroke:#000000;" x="108.030306" xlink:href="#m4aeae7a374" y="94.86358"/>
     <use style="stroke:#000000;" x="111.785317" xlink:href="#m4aeae7a374" y="84.689989"/>
     <use style="stroke:#000000;" x="112.26694" xlink:href="#m4aeae7a374" y="80.813226"/>
     <use style="stroke:#000000;" x="111.785317" xlink:href="#m4aeae7a374" y="84.689989"/>
     <use style="stroke:#000000;" x="115.382711" xlink:href="#m4aeae7a374" y="88.953549"/>
     <use style="stroke:#000000;" x="69.925419" xlink:href="#m4aeae7a374" y="105.014488"/>
     <use style="stroke:#000000;" x="80.267425" xlink:href="#m4aeae7a374" y="104.806894"/>
     <use style="stroke:#000000;" x="115.382711" xlink:href="#m4aeae7a374" y="88.953549"/>
     <use style="stroke:#000000;" x="118.673439" xlink:href="#m4aeae7a374" y="92.608041"/>
     <use style="stroke:#000000;" x="129.663779" xlink:href="#m4aeae7a374" y="97.446543"/>
     <use style="stroke:#000000;" x="125.393546" xlink:href="#m4aeae7a374" y="97.27576"/>
     <use style="stroke:#000000;" x="129.663779" xlink:href="#m4aeae7a374" y="97.446543"/>
     <use style="stroke:#000000;" x="129.076794" xlink:href="#m4aeae7a374" y="91.980289"/>
     <use style="stroke:#000000;" x="80.267425" xlink:href="#m4aeae7a374" y="104.806894"/>
     <use style="stroke:#000000;" x="89.366812" xlink:href="#m4aeae7a374" y="101.248287"/>
     <use style="stroke:#000000;" x="129.076794" xlink:href="#m4aeae7a374" y="91.980289"/>
     <use style="stroke:#000000;" x="118.673439" xlink:href="#m4aeae7a374" y="92.608041"/>
     <use style="stroke:#000000;" x="89.366812" xlink:href="#m4aeae7a374" y="101.248287"/>
     <use style="stroke:#000000;" x="84.475875" xlink:href="#m4aeae7a374" y="99.600371"/>
     <use style="stroke:#000000;" x="89.366812" xlink:href="#m4aeae7a374" y="101.248287"/>
     <use style="stroke:#000000;" x="96.342206" xlink:href="#m4aeae7a374" y="96.288326"/>
     <use style="stroke:#000000;" x="118.673439" xlink:href="#m4aeae7a374" y="92.608041"/>
     <use style="stroke:#000000;" x="108.030306" xlink:href="#m4aeae7a374" y="94.86358"/>
     <use style="stroke:#000000;" x="108.030306" xlink:href="#m4aeae7a374" y="94.86358"/>
     <use style="stroke:#000000;" x="96.342206" xlink:href="#m4aeae7a374" y="96.288326"/>
     <use style="stroke:#000000;" x="80.506699" xlink:href="#m4aeae7a374" y="88.603462"/>
     <use style="stroke:#000000;" x="88.959796" xlink:href="#m4aeae7a374" y="92.349186"/>
     <use style="stroke:#000000;" x="96.342206" xlink:href="#m4aeae7a374" y="96.288326"/>
     <use style="stroke:#000000;" x="88.959796" xlink:href="#m4aeae7a374" y="92.349186"/>
    </g>
   </g>
   <g id="PathCollection_1">
    <path clip-path="url(#p1641c2d4a5)" d="M 194.980265 47.428805 
C 195.775875 47.428805 196.539005 47.112706 197.101586 46.550126 
C 197.664166 45.987545 197.980265 45.224415 197.980265 44.428805 
C 197.980265 43.633196 197.664166 42.870066 197.101586 42.307485 
C 196.539005 41.744904 195.775875 41.428805 194.980265 41.428805 
C 194.184656 41.428805 193.421526 41.744904 192.858945 42.307485 
C 192.296364 42.870066 191.980265 43.633196 191.980265 44.428805 
C 191.980265 45.224415 192.296364 45.987545 192.858945 46.550126 
C 193.421526 47.112706 194.184656 47.428805 194.980265 47.428805 
z
" style="fill:none;stroke:#0000ff;stroke-opacity:0.5;"/>
   </g>
   <g id="PathCollection_2">
    <path clip-path="url(#p1641c2d4a5)" d="M 140.611419 39.226047 
C 141.407028 39.226047 142.170158 38.909948 142.732739 38.347367 
C 143.29532 37.784786 143.611419 37.021656 143.611419 36.226047 
C 143.611419 35.430437 143.29532 34.667307 142.732739 34.104726 
C 142.170158 33.542146 141.407028 33.226047 140.611419 33.226047 
C 139.81581 33.226047 139.052679 33.542146 138.490098 34.104726 
C 137.927518 34.667307 137.611419 35.430437 137.611419 36.226047 
C 137.611419 37.021656 137.927518 37.784786 138.490098 38.347367 
C 139.052679 38.909948 139.81581 39.226047 140.611419 39.226047 
z
" style="fill:none;stroke:#0000ff;stroke-opacity:0.5;"/>
   </g>
   <g id="PathCollection_3">
    <path clip-path="url(#p1641c2d4a5)" d="M 146.225783 40.958284 
C 147.021393 40.958284 147.784523 40.642186 148.347104 40.079605 
C 148.909684 39.517024 149.225783 38.753894 149.225783 37.958284 
C 149.225783 37.162675 148.909684 36.399545 148.347104 35.836964 
C 147.784523 35.274383 147.021393 34.958284 146.225783 34.958284 
C 145.430174 34.958284 144.667044 35.274383 144.104463 35.836964 
C 143.541882 36.399545 143.225783 37.162675 143.225783 37.958284 
C 143.225783 38.753894 143.541882 39.517024 144.104463 40.079605 
C 144.667044 40.642186 145.430174 40.958284 146.225783 40.958284 
z
" style="fill:none;stroke:#0000ff;stroke-opacity:0.5;"/>
   </g>
   <g id="PathCollection_4">
    <path clip-path="url(#p1641c2d4a5)" d="M 186.20731 62.126713 
C 187.002919 62.126713 187.76605 61.810614 188.32863 61.248034 
C 188.891211 60.685453 189.20731 59.922323 189.20731 59.126713 
C 189.20731 58.331104 188.891211 57.567974 188.32863 57.005393 
C 187.76605 56.442812 187.002919 56.126713 186.20731 56.126713 
C 185.411701 56.126713 184.64857 56.442812 184.08599 57.005393 
C 183.523409 57.567974 183.20731 58.331104 183.20731 59.126713 
C 183.20731 59.922323 183.523409 60.685453 184.08599 61.248034 
C 184.64857 61.810614 185.411701 62.126713 186.20731 62.126713 
z
" style="fill:none;stroke:#0000ff;stroke-opacity:0.5;"/>
   </g>
   <g id="PathCollection_5">
    <path clip-path="url(#p1641c2d4a5)" d="M 168.67997 66.781201 
C 169.475579 66.781201 170.23871 66.465102 170.80129 65.902521 
C 171.363871 65.33994 171.67997 64.57681 171.67997 63.781201 
C 171.67997 62.985591 171.363871 62.222461 170.80129 61.65988 
C 170.23871 61.0973 169.475579 60.781201 168.67997 60.781201 
C 167.884361 60.781201 167.12123 61.0973 166.55865 61.65988 
C 165.996069 62.222461 165.67997 62.985591 165.67997 63.781201 
C 165.67997 64.57681 165.996069 65.33994 166.55865 65.902521 
C 167.12123 66.465102 167.884361 66.781201 168.67997 66.781201 
z
" style="fill:none;stroke:#0000ff;stroke-opacity:0.5;"/>
   </g>
   <g id="PathCollection_6">
    <path clip-path="url(#p1641c2d4a5)" d="M 201.95753 107.325183 
C 202.75314 107.325183 203.51627 107.009084 204.078851 106.446503 
C 204.641431 105.883923 204.95753 105.120792 204.95753 104.325183 
C 204.95753 103.529574 204.641431 102.766443 204.078851 102.203863 
C 203.51627 101.641282 202.75314 101.325183 201.95753 101.325183 
C 201.161921 101.325183 200.398791 101.641282 199.83621 102.203863 
C 199.273629 102.766443 198.95753 103.529574 198.95753 104.325183 
C 198.95753 105.120792 199.273629 105.883923 199.83621 106.446503 
C 200.398791 107.009084 201.161921 107.325183 201.95753 107.325183 
z
" style="fill:none;stroke:#0000ff;stroke-opacity:0.5;"/>
   </g>
   <g id="PathCollection_7">
    <path clip-path="url(#p1641c2d4a5)" d="M 190.225647 105.676966 
C 191.021256 105.676966 191.784386 105.360867 192.346967 104.798287 
C 192.909548 104.235706 193.225647 103.472576 193.225647 102.676966 
C 193.225647 101.881357 192.909548 101.118227 192.346967 100.555646 
C 191.784386 99.993065 191.021256 99.676966 190.225647 99.676966 
C 189.430038 99.676966 188.666907 99.993065 188.104327 100.555646 
C 187.541746 101.118227 187.225647 101.881357 187.225647 102.676966 
C 187.225647 103.472576 187.541746 104.235706 188.104327 104.798287 
C 188.666907 105.360867 189.430038 105.676966 190.225647 105.676966 
z
" style="fill:none;stroke:#0000ff;stroke-opacity:0.5;"/>
   </g>
   <g id="PathCollection_8">
    <path clip-path="url(#p1641c2d4a5)" d="M 200.997348 94.996306 
C 201.792957 94.996306 202.556087 94.680207 203.118668 94.117627 
C 203.681249 93.555046 203.997348 92.791916 203.997348 91.996306 
C 203.997348 91.200697 203.681249 90.437567 203.118668 89.874986 
C 202.556087 89.312405 201.792957 88.996306 200.997348 88.996306 
C 200.201738 88.996306 199.438608 89.312405 198.876027 89.874986 
C 198.313447 90.437567 197.997348 91.200697 197.997348 91.996306 
C 197.997348 92.791916 198.313447 93.555046 198.876027 94.117627 
C 199.438608 94.680207 200.201738 94.996306 200.997348 94.996306 
z
" style="fill:none;stroke:#0000ff;stroke-opacity:0.5;"/>
   </g>
   <g id="patch_2">
    <path clip-path="url(#p1641c2d4a5)" d="M 194.980265 44.428805 
Q 194.980265 36.226047 140.611419 36.226047 
" style="fill:none;stroke:#2e2efe;stroke-linecap:round;stroke-width:2;"/>
   </g>
   <g id="patch_3">
    <path clip-path="url(#p1641c2d4a5)" d="M 140.611419 36.226047 
Q 140.611419 37.958284 146.225783 37.958284 
" style="fill:none;stroke:#2e2efe;stroke-linecap:round;stroke-width:2;"/>
   </g>
   <g id="patch_4">
    <path clip-path="url(#p1641c2d4a5)" d="M 146.225783 37.958284 
Q 146.225783 59.126713 186.20731 59.126713 
" style="fill:none;stroke:#2e2efe;stroke-linecap:round;stroke-width:2;"/>
   </g>
   <g id="patch_5">
    <path clip-path="url(#p1641c2d4a5)" d="M 186.20731 59.126713 
Q 186.20731 63.781201 168.67997 63.781201 
" style="fill:none;stroke:#2e2efe;stroke-linecap:round;stroke-width:2;"/>
   </g>
   <g id="patch_6">
    <path clip-path="url(#p1641c2d4a5)" d="M 168.67997 63.781201 
Q 168.67997 104.325183 201.95753 104.325183 
" style="fill:none;stroke:#2e2efe;stroke-linecap:round;stroke-width:2;"/>
   </g>
   <g id="patch_7">
    <path clip-path="url(#p1641c2d4a5)" d="M 201.95753 104.325183 
Q 201.95753 102.676966 190.225647 102.676966 
" style="fill:none;stroke:#2e2efe;stroke-linecap:round;stroke-width:2;"/>
   </g>
   <g id="patch_8">
    <path clip-path="url(#p1641c2d4a5)" d="M 190.225647 102.676966 
Q 190.225647 91.996306 200.997348 91.996306 
" style="fill:none;stroke:#2e2efe;stroke-linecap:round;stroke-width:2;"/>
   </g>
  </g>
 </g>
 <defs>
  <clipPath id="p1641c2d4a5">
   <rect height="136.8" width="231.84" x="10.8" y="10.8"/>
  </clipPath>
 </defs>
</svg>
