<?xml version="1.0" encoding="utf-8" standalone="no"?>
<!DOCTYPE svg PUBLIC "-//W3C//DTD SVG 1.1//EN"
  "http://www.w3.org/Graphics/SVG/1.1/DTD/svg11.dtd">
<svg height="14.173228pt" version="1.1" viewBox="0 0 42.519685 14.173228" width="42.519685pt" xmlns="http://www.w3.org/2000/svg" xmlns:xlink="http://www.w3.org/1999/xlink">
 <metadata>
  <rdf:RDF xmlns:cc="http://creativecommons.org/ns#" xmlns:dc="http://purl.org/dc/elements/1.1/" xmlns:rdf="http://www.w3.org/1999/02/22-rdf-syntax-ns#">
   <cc:Work>
    <dc:type rdf:resource="http://purl.org/dc/dcmitype/StillImage"/>
    <dc:date>2021-11-16T18:42:33.042854</dc:date>
    <dc:format>image/svg+xml</dc:format>
    <dc:creator>
     <cc:Agent>
      <dc:title>Matplotlib v3.4.2, https://matplotlib.org/</dc:title>
     </cc:Agent>
    </dc:creator>
   </cc:Work>
  </rdf:RDF>
 </metadata>
 <defs>
  <style type="text/css">*{stroke-linecap:butt;stroke-linejoin:round;}</style>
 </defs>
 <g id="figure_1">
  <g id="patch_1">
   <path d="M 0 14.173228 
L 42.519685 14.173228 
L 42.519685 0 
L 0 0 
z
" style="fill:#ffffff;"/>
  </g>
  <g id="axes_1">
   <g id="patch_2">
    <path d="M 5.314961 12.614173 
L 38.267717 12.614173 
L 38.267717 1.700787 
L 5.314961 1.700787 
z
" style="fill:#ffffff;"/>
   </g>
   <g id="matplotlib.axis_1">
    <g id="xtick_1">
     <g id="line2d_1">
      <defs>
       <path d="M 0 0 
L 0 2 
" id="m73058906d2" style="stroke:#000000;stroke-width:0.8;"/>
      </defs>
      <g>
       <use style="stroke:#000000;stroke-width:0.8;" x="16.292162" xlink:href="#m73058906d2" y="12.614173"/>
      </g>
     </g>
     <g id="text_1">
      <!-- 9500 -->
      <g transform="translate(12.474662 18.893704)scale(0.03 -0.03)">
       <defs>
        <path d="M 703 97 
L 703 672 
Q 941 559 1184 500 
Q 1428 441 1663 441 
Q 2288 441 2617 861 
Q 2947 1281 2994 2138 
Q 2813 1869 2534 1725 
Q 2256 1581 1919 1581 
Q 1219 1581 811 2004 
Q 403 2428 403 3163 
Q 403 3881 828 4315 
Q 1253 4750 1959 4750 
Q 2769 4750 3195 4129 
Q 3622 3509 3622 2328 
Q 3622 1225 3098 567 
Q 2575 -91 1691 -91 
Q 1453 -91 1209 -44 
Q 966 3 703 97 
z
M 1959 2075 
Q 2384 2075 2632 2365 
Q 2881 2656 2881 3163 
Q 2881 3666 2632 3958 
Q 2384 4250 1959 4250 
Q 1534 4250 1286 3958 
Q 1038 3666 1038 3163 
Q 1038 2656 1286 2365 
Q 1534 2075 1959 2075 
z
" id="DejaVuSans-39" transform="scale(0.015625)"/>
        <path d="M 691 4666 
L 3169 4666 
L 3169 4134 
L 1269 4134 
L 1269 2991 
Q 1406 3038 1543 3061 
Q 1681 3084 1819 3084 
Q 2600 3084 3056 2656 
Q 3513 2228 3513 1497 
Q 3513 744 3044 326 
Q 2575 -91 1722 -91 
Q 1428 -91 1123 -41 
Q 819 9 494 109 
L 494 744 
Q 775 591 1075 516 
Q 1375 441 1709 441 
Q 2250 441 2565 725 
Q 2881 1009 2881 1497 
Q 2881 1984 2565 2268 
Q 2250 2553 1709 2553 
Q 1456 2553 1204 2497 
Q 953 2441 691 2322 
L 691 4666 
z
" id="DejaVuSans-35" transform="scale(0.015625)"/>
        <path d="M 2034 4250 
Q 1547 4250 1301 3770 
Q 1056 3291 1056 2328 
Q 1056 1369 1301 889 
Q 1547 409 2034 409 
Q 2525 409 2770 889 
Q 3016 1369 3016 2328 
Q 3016 3291 2770 3770 
Q 2525 4250 2034 4250 
z
M 2034 4750 
Q 2819 4750 3233 4129 
Q 3647 3509 3647 2328 
Q 3647 1150 3233 529 
Q 2819 -91 2034 -91 
Q 1250 -91 836 529 
Q 422 1150 422 2328 
Q 422 3509 836 4129 
Q 1250 4750 2034 4750 
z
" id="DejaVuSans-30" transform="scale(0.015625)"/>
       </defs>
       <use xlink:href="#DejaVuSans-39"/>
       <use x="63.623047" xlink:href="#DejaVuSans-35"/>
       <use x="127.246094" xlink:href="#DejaVuSans-30"/>
       <use x="190.869141" xlink:href="#DejaVuSans-30"/>
      </g>
     </g>
    </g>
    <g id="xtick_2">
     <g id="line2d_2">
      <g>
       <use style="stroke:#000000;stroke-width:0.8;" x="29.110755" xlink:href="#m73058906d2" y="12.614173"/>
      </g>
     </g>
     <g id="text_2">
      <!-- 10000 -->
      <g transform="translate(24.33888 18.893704)scale(0.03 -0.03)">
       <defs>
        <path d="M 794 531 
L 1825 531 
L 1825 4091 
L 703 3866 
L 703 4441 
L 1819 4666 
L 2450 4666 
L 2450 531 
L 3481 531 
L 3481 0 
L 794 0 
L 794 531 
z
" id="DejaVuSans-31" transform="scale(0.015625)"/>
       </defs>
       <use xlink:href="#DejaVuSans-31"/>
       <use x="63.623047" xlink:href="#DejaVuSans-30"/>
       <use x="127.246094" xlink:href="#DejaVuSans-30"/>
       <use x="190.869141" xlink:href="#DejaVuSans-30"/>
       <use x="254.492188" xlink:href="#DejaVuSans-30"/>
      </g>
     </g>
    </g>
   </g>
   <g id="matplotlib.axis_2">
    <g id="ytick_1">
     <g id="line2d_3">
      <defs>
       <path d="M 0 0 
L -2 0 
" id="m0034457c4c" style="stroke:#000000;stroke-width:0.8;"/>
      </defs>
      <g>
       <use style="stroke:#000000;stroke-width:0.8;" x="5.314961" xlink:href="#m0034457c4c" y="9.215324"/>
      </g>
     </g>
     <g id="text_3">
      <!-- 0.8 -->
      <g transform="translate(-3.455977 10.35509)scale(0.03 -0.03)">
       <defs>
        <path d="M 684 794 
L 1344 794 
L 1344 0 
L 684 0 
L 684 794 
z
" id="DejaVuSans-2e" transform="scale(0.015625)"/>
        <path d="M 2034 2216 
Q 1584 2216 1326 1975 
Q 1069 1734 1069 1313 
Q 1069 891 1326 650 
Q 1584 409 2034 409 
Q 2484 409 2743 651 
Q 3003 894 3003 1313 
Q 3003 1734 2745 1975 
Q 2488 2216 2034 2216 
z
M 1403 2484 
Q 997 2584 770 2862 
Q 544 3141 544 3541 
Q 544 4100 942 4425 
Q 1341 4750 2034 4750 
Q 2731 4750 3128 4425 
Q 3525 4100 3525 3541 
Q 3525 3141 3298 2862 
Q 3072 2584 2669 2484 
Q 3125 2378 3379 2068 
Q 3634 1759 3634 1313 
Q 3634 634 3220 271 
Q 2806 -91 2034 -91 
Q 1263 -91 848 271 
Q 434 634 434 1313 
Q 434 1759 690 2068 
Q 947 2378 1403 2484 
z
M 1172 3481 
Q 1172 3119 1398 2916 
Q 1625 2713 2034 2713 
Q 2441 2713 2670 2916 
Q 2900 3119 2900 3481 
Q 2900 3844 2670 4047 
Q 2441 4250 2034 4250 
Q 1625 4250 1398 4047 
Q 1172 3844 1172 3481 
z
" id="DejaVuSans-38" transform="scale(0.015625)"/>
       </defs>
       <use xlink:href="#DejaVuSans-30"/>
       <use x="63.623047" xlink:href="#DejaVuSans-2e"/>
       <use x="95.410156" xlink:href="#DejaVuSans-38"/>
      </g>
     </g>
    </g>
    <g id="ytick_2">
     <g id="line2d_4">
      <g>
       <use style="stroke:#000000;stroke-width:0.8;" x="5.314961" xlink:href="#m0034457c4c" y="5.590182"/>
      </g>
     </g>
     <g id="text_4">
      <!-- 1.6 -->
      <g transform="translate(-3.455977 6.729948)scale(0.03 -0.03)">
       <defs>
        <path d="M 2113 2584 
Q 1688 2584 1439 2293 
Q 1191 2003 1191 1497 
Q 1191 994 1439 701 
Q 1688 409 2113 409 
Q 2538 409 2786 701 
Q 3034 994 3034 1497 
Q 3034 2003 2786 2293 
Q 2538 2584 2113 2584 
z
M 3366 4563 
L 3366 3988 
Q 3128 4100 2886 4159 
Q 2644 4219 2406 4219 
Q 1781 4219 1451 3797 
Q 1122 3375 1075 2522 
Q 1259 2794 1537 2939 
Q 1816 3084 2150 3084 
Q 2853 3084 3261 2657 
Q 3669 2231 3669 1497 
Q 3669 778 3244 343 
Q 2819 -91 2113 -91 
Q 1303 -91 875 529 
Q 447 1150 447 2328 
Q 447 3434 972 4092 
Q 1497 4750 2381 4750 
Q 2619 4750 2861 4703 
Q 3103 4656 3366 4563 
z
" id="DejaVuSans-36" transform="scale(0.015625)"/>
       </defs>
       <use xlink:href="#DejaVuSans-31"/>
       <use x="63.623047" xlink:href="#DejaVuSans-2e"/>
       <use x="95.410156" xlink:href="#DejaVuSans-36"/>
      </g>
     </g>
    </g>
    <g id="ytick_3">
     <g id="line2d_5">
      <g>
       <use style="stroke:#000000;stroke-width:0.8;" x="5.314961" xlink:href="#m0034457c4c" y="1.96504"/>
      </g>
     </g>
     <g id="text_5">
      <!-- 2.4 -->
      <g transform="translate(-3.455977 3.104806)scale(0.03 -0.03)">
       <defs>
        <path d="M 1228 531 
L 3431 531 
L 3431 0 
L 469 0 
L 469 531 
Q 828 903 1448 1529 
Q 2069 2156 2228 2338 
Q 2531 2678 2651 2914 
Q 2772 3150 2772 3378 
Q 2772 3750 2511 3984 
Q 2250 4219 1831 4219 
Q 1534 4219 1204 4116 
Q 875 4013 500 3803 
L 500 4441 
Q 881 4594 1212 4672 
Q 1544 4750 1819 4750 
Q 2544 4750 2975 4387 
Q 3406 4025 3406 3419 
Q 3406 3131 3298 2873 
Q 3191 2616 2906 2266 
Q 2828 2175 2409 1742 
Q 1991 1309 1228 531 
z
" id="DejaVuSans-32" transform="scale(0.015625)"/>
        <path d="M 2419 4116 
L 825 1625 
L 2419 1625 
L 2419 4116 
z
M 2253 4666 
L 3047 4666 
L 3047 1625 
L 3713 1625 
L 3713 1100 
L 3047 1100 
L 3047 0 
L 2419 0 
L 2419 1100 
L 313 1100 
L 313 1709 
L 2253 4666 
z
" id="DejaVuSans-34" transform="scale(0.015625)"/>
       </defs>
       <use xlink:href="#DejaVuSans-32"/>
       <use x="63.623047" xlink:href="#DejaVuSans-2e"/>
       <use x="95.410156" xlink:href="#DejaVuSans-34"/>
      </g>
     </g>
    </g>
   </g>
   <g id="line2d_6">
    <path clip-path="url(#p4f871d93c6)" d="M 6.812813 11.87839 
L 8.3895 11.363534 
L 9.966187 7.460973 
L 11.542874 7.259646 
L 13.119561 11.452921 
L 14.696248 11.689566 
L 16.272934 11.223993 
L 17.849621 11.268215 
L 19.426308 11.552209 
L 21.002995 3.163517 
L 22.579682 12.164142 
L 24.156369 11.920754 
L 27.309743 9.422216 
L 28.88643 8.30318 
L 30.463116 7.62811 
L 32.039803 11.079028 
L 33.61649 11.395023 
L 36.769864 10.630603 
" style="fill:none;stroke:#a3604b;stroke-linecap:square;stroke-width:0.5;"/>
    <defs>
     <path d="M 0 0.4 
C 0.106081 0.4 0.207832 0.357853 0.282843 0.282843 
C 0.357853 0.207832 0.4 0.106081 0.4 0 
C 0.4 -0.106081 0.357853 -0.207832 0.282843 -0.282843 
C 0.207832 -0.357853 0.106081 -0.4 0 -0.4 
C -0.106081 -0.4 -0.207832 -0.357853 -0.282843 -0.282843 
C -0.357853 -0.207832 -0.4 -0.106081 -0.4 0 
C -0.4 0.106081 -0.357853 0.207832 -0.282843 0.282843 
C -0.207832 0.357853 -0.106081 0.4 0 0.4 
z
" id="m1f53ef6e2f" style="stroke:#a3604b;"/>
    </defs>
    <g clip-path="url(#p4f871d93c6)">
     <use style="fill:#a3604b;stroke:#a3604b;" x="6.812813" xlink:href="#m1f53ef6e2f" y="11.87839"/>
     <use style="fill:#a3604b;stroke:#a3604b;" x="8.3895" xlink:href="#m1f53ef6e2f" y="11.363534"/>
     <use style="fill:#a3604b;stroke:#a3604b;" x="9.966187" xlink:href="#m1f53ef6e2f" y="7.460973"/>
     <use style="fill:#a3604b;stroke:#a3604b;" x="11.542874" xlink:href="#m1f53ef6e2f" y="7.259646"/>
     <use style="fill:#a3604b;stroke:#a3604b;" x="13.119561" xlink:href="#m1f53ef6e2f" y="11.452921"/>
     <use style="fill:#a3604b;stroke:#a3604b;" x="14.696248" xlink:href="#m1f53ef6e2f" y="11.689566"/>
     <use style="fill:#a3604b;stroke:#a3604b;" x="16.272934" xlink:href="#m1f53ef6e2f" y="11.223993"/>
     <use style="fill:#a3604b;stroke:#a3604b;" x="17.849621" xlink:href="#m1f53ef6e2f" y="11.268215"/>
     <use style="fill:#a3604b;stroke:#a3604b;" x="19.426308" xlink:href="#m1f53ef6e2f" y="11.552209"/>
     <use style="fill:#a3604b;stroke:#a3604b;" x="21.002995" xlink:href="#m1f53ef6e2f" y="3.163517"/>
     <use style="fill:#a3604b;stroke:#a3604b;" x="22.579682" xlink:href="#m1f53ef6e2f" y="12.164142"/>
     <use style="fill:#a3604b;stroke:#a3604b;" x="24.156369" xlink:href="#m1f53ef6e2f" y="11.920754"/>
     <use style="fill:#a3604b;stroke:#a3604b;" x="27.309743" xlink:href="#m1f53ef6e2f" y="9.422216"/>
     <use style="fill:#a3604b;stroke:#a3604b;" x="28.88643" xlink:href="#m1f53ef6e2f" y="8.30318"/>
     <use style="fill:#a3604b;stroke:#a3604b;" x="30.463116" xlink:href="#m1f53ef6e2f" y="7.62811"/>
     <use style="fill:#a3604b;stroke:#a3604b;" x="32.039803" xlink:href="#m1f53ef6e2f" y="11.079028"/>
     <use style="fill:#a3604b;stroke:#a3604b;" x="33.61649" xlink:href="#m1f53ef6e2f" y="11.395023"/>
     <use style="fill:#a3604b;stroke:#a3604b;" x="36.769864" xlink:href="#m1f53ef6e2f" y="10.630603"/>
    </g>
   </g>
   <g id="patch_3">
    <path d="M 5.314961 12.614173 
L 5.314961 1.700787 
" style="fill:none;stroke:#000000;stroke-linecap:square;stroke-linejoin:miter;stroke-width:0.8;"/>
   </g>
   <g id="patch_4">
    <path d="M 38.267717 12.614173 
L 38.267717 1.700787 
" style="fill:none;stroke:#000000;stroke-linecap:square;stroke-linejoin:miter;stroke-width:0.8;"/>
   </g>
   <g id="patch_5">
    <path d="M 5.314961 12.614173 
L 38.267717 12.614173 
" style="fill:none;stroke:#000000;stroke-linecap:square;stroke-linejoin:miter;stroke-width:0.8;"/>
   </g>
   <g id="patch_6">
    <path d="M 5.314961 1.700787 
L 38.267717 1.700787 
" style="fill:none;stroke:#000000;stroke-linecap:square;stroke-linejoin:miter;stroke-width:0.8;"/>
   </g>
  </g>
 </g>
 <defs>
  <clipPath id="p4f871d93c6">
   <rect height="10.913386" width="32.952756" x="5.314961" y="1.700787"/>
  </clipPath>
 </defs>
</svg>
