<?xml version="1.0" encoding="utf-8" standalone="no"?>
<!DOCTYPE svg PUBLIC "-//W3C//DTD SVG 1.1//EN"
  "http://www.w3.org/Graphics/SVG/1.1/DTD/svg11.dtd">
<svg height="158.4pt" version="1.1" viewBox="0 0 253.44 158.4" width="253.44pt" xmlns="http://www.w3.org/2000/svg" xmlns:xlink="http://www.w3.org/1999/xlink">
 <metadata>
  <rdf:RDF xmlns:cc="http://creativecommons.org/ns#" xmlns:dc="http://purl.org/dc/elements/1.1/" xmlns:rdf="http://www.w3.org/1999/02/22-rdf-syntax-ns#">
   <cc:Work>
    <dc:type rdf:resource="http://purl.org/dc/dcmitype/StillImage"/>
    <dc:date>2021-07-27T16:52:09.470605</dc:date>
    <dc:format>image/svg+xml</dc:format>
    <dc:creator>
     <cc:Agent>
      <dc:title>Matplotlib v3.4.1, https://matplotlib.org/</dc:title>
     </cc:Agent>
    </dc:creator>
   </cc:Work>
  </rdf:RDF>
 </metadata>
 <defs>
  <style type="text/css">*{stroke-linecap:butt;stroke-linejoin:round;}</style>
 </defs>
 <g id="figure_1">
  <g id="patch_1">
   <path d="M 0 158.4 
L 253.44 158.4 
L 253.44 0 
L 0 0 
z
" style="fill:#ffffff;"/>
  </g>
  <g id="axes_1">
   <g id="patch_2">
    <path d="M 50.688 126.72 
L 228.096 126.72 
L 228.096 15.84 
L 50.688 15.84 
z
" style="fill:#ffffff;"/>
   </g>
   <g id="PathCollection_1">
    <defs>
     <path d="M 0 3 
C 0.795609 3 1.55874 2.683901 2.12132 2.12132 
C 2.683901 1.55874 3 0.795609 3 0 
C 3 -0.795609 2.683901 -1.55874 2.12132 -2.12132 
C 1.55874 -2.683901 0.795609 -3 0 -3 
C -0.795609 -3 -1.55874 -2.683901 -2.12132 -2.12132 
C -2.683901 -1.55874 -3 -0.795609 -3 0 
C -3 0.795609 -2.683901 1.55874 -2.12132 2.12132 
C -1.55874 2.683901 -0.795609 3 0 3 
z
" id="m9c16a6d745" style="stroke:#1f77b4;stroke-opacity:0;"/>
    </defs>
    <g clip-path="url(#p833483fed3)">
     <use style="fill:#1f77b4;fill-opacity:0;stroke:#1f77b4;stroke-opacity:0;" x="110.403765" xlink:href="#m9c16a6d745" y="55.744371"/>
     <use style="fill:#1f77b4;fill-opacity:0;stroke:#1f77b4;stroke-opacity:0;" x="75.617882" xlink:href="#m9c16a6d745" y="84.152378"/>
     <use style="fill:#1f77b4;fill-opacity:0;stroke:#1f77b4;stroke-opacity:0;" x="75.617882" xlink:href="#m9c16a6d745" y="27.336365"/>
     <use style="fill:#1f77b4;fill-opacity:0;stroke:#1f77b4;stroke-opacity:0;" x="156.784941" xlink:href="#m9c16a6d745" y="84.152378"/>
     <use style="fill:#1f77b4;fill-opacity:0;stroke:#1f77b4;stroke-opacity:0;" x="156.784941" xlink:href="#m9c16a6d745" y="27.336365"/>
     <use style="fill:#1f77b4;fill-opacity:0;stroke:#1f77b4;stroke-opacity:0;" x="87.213176" xlink:href="#m9c16a6d745" y="115.223635"/>
     <use style="fill:#1f77b4;fill-opacity:0;stroke:#1f77b4;stroke-opacity:0;" x="203.166118" xlink:href="#m9c16a6d745" y="93.02988"/>
     <use style="fill:#1f77b4;fill-opacity:0;stroke:#1f77b4;stroke-opacity:0;" x="203.166118" xlink:href="#m9c16a6d745" y="93.02988"/>
    </g>
   </g>
   <g id="matplotlib.axis_1">
    <g id="xtick_1">
     <g id="line2d_1">
      <defs>
       <path d="M 0 0 
L 0 2 
" id="m7b9d572565" style="stroke:#000000;stroke-width:0.8;"/>
      </defs>
      <g>
       <use style="stroke:#000000;stroke-width:0.8;" x="64.022588" xlink:href="#m7b9d572565" y="126.72"/>
      </g>
     </g>
     <g id="text_1">
      <!-- 0 -->
      <g transform="translate(60.841338 139.818438)scale(0.1 -0.1)">
       <defs>
        <path d="M 2034 4250 
Q 1547 4250 1301 3770 
Q 1056 3291 1056 2328 
Q 1056 1369 1301 889 
Q 1547 409 2034 409 
Q 2525 409 2770 889 
Q 3016 1369 3016 2328 
Q 3016 3291 2770 3770 
Q 2525 4250 2034 4250 
z
M 2034 4750 
Q 2819 4750 3233 4129 
Q 3647 3509 3647 2328 
Q 3647 1150 3233 529 
Q 2819 -91 2034 -91 
Q 1250 -91 836 529 
Q 422 1150 422 2328 
Q 422 3509 836 4129 
Q 1250 4750 2034 4750 
z
" id="DejaVuSans-30" transform="scale(0.015625)"/>
       </defs>
       <use xlink:href="#DejaVuSans-30"/>
      </g>
     </g>
    </g>
    <g id="xtick_2">
     <g id="line2d_2">
      <g>
       <use style="stroke:#000000;stroke-width:0.8;" x="110.403765" xlink:href="#m7b9d572565" y="126.72"/>
      </g>
     </g>
     <g id="text_2">
      <!-- 10 -->
      <g transform="translate(104.041265 139.818438)scale(0.1 -0.1)">
       <defs>
        <path d="M 794 531 
L 1825 531 
L 1825 4091 
L 703 3866 
L 703 4441 
L 1819 4666 
L 2450 4666 
L 2450 531 
L 3481 531 
L 3481 0 
L 794 0 
L 794 531 
z
" id="DejaVuSans-31" transform="scale(0.015625)"/>
       </defs>
       <use xlink:href="#DejaVuSans-31"/>
       <use x="63.623047" xlink:href="#DejaVuSans-30"/>
      </g>
     </g>
    </g>
    <g id="xtick_3">
     <g id="line2d_3">
      <g>
       <use style="stroke:#000000;stroke-width:0.8;" x="156.784941" xlink:href="#m7b9d572565" y="126.72"/>
      </g>
     </g>
     <g id="text_3">
      <!-- 20 -->
      <g transform="translate(150.422441 139.818438)scale(0.1 -0.1)">
       <defs>
        <path d="M 1228 531 
L 3431 531 
L 3431 0 
L 469 0 
L 469 531 
Q 828 903 1448 1529 
Q 2069 2156 2228 2338 
Q 2531 2678 2651 2914 
Q 2772 3150 2772 3378 
Q 2772 3750 2511 3984 
Q 2250 4219 1831 4219 
Q 1534 4219 1204 4116 
Q 875 4013 500 3803 
L 500 4441 
Q 881 4594 1212 4672 
Q 1544 4750 1819 4750 
Q 2544 4750 2975 4387 
Q 3406 4025 3406 3419 
Q 3406 3131 3298 2873 
Q 3191 2616 2906 2266 
Q 2828 2175 2409 1742 
Q 1991 1309 1228 531 
z
" id="DejaVuSans-32" transform="scale(0.015625)"/>
       </defs>
       <use xlink:href="#DejaVuSans-32"/>
       <use x="63.623047" xlink:href="#DejaVuSans-30"/>
      </g>
     </g>
    </g>
    <g id="xtick_4">
     <g id="line2d_4">
      <g>
       <use style="stroke:#000000;stroke-width:0.8;" x="203.166118" xlink:href="#m7b9d572565" y="126.72"/>
      </g>
     </g>
     <g id="text_4">
      <!-- 30 -->
      <g transform="translate(196.803618 139.818438)scale(0.1 -0.1)">
       <defs>
        <path d="M 2597 2516 
Q 3050 2419 3304 2112 
Q 3559 1806 3559 1356 
Q 3559 666 3084 287 
Q 2609 -91 1734 -91 
Q 1441 -91 1130 -33 
Q 819 25 488 141 
L 488 750 
Q 750 597 1062 519 
Q 1375 441 1716 441 
Q 2309 441 2620 675 
Q 2931 909 2931 1356 
Q 2931 1769 2642 2001 
Q 2353 2234 1838 2234 
L 1294 2234 
L 1294 2753 
L 1863 2753 
Q 2328 2753 2575 2939 
Q 2822 3125 2822 3475 
Q 2822 3834 2567 4026 
Q 2313 4219 1838 4219 
Q 1578 4219 1281 4162 
Q 984 4106 628 3988 
L 628 4550 
Q 988 4650 1302 4700 
Q 1616 4750 1894 4750 
Q 2613 4750 3031 4423 
Q 3450 4097 3450 3541 
Q 3450 3153 3228 2886 
Q 3006 2619 2597 2516 
z
" id="DejaVuSans-33" transform="scale(0.015625)"/>
       </defs>
       <use xlink:href="#DejaVuSans-33"/>
       <use x="63.623047" xlink:href="#DejaVuSans-30"/>
      </g>
     </g>
    </g>
    <g id="text_5">
     <!-- [NaOH]/ mM -->
     <g transform="translate(108.531844 153.496563)scale(0.1 -0.1)">
      <defs>
       <path d="M 550 4863 
L 1875 4863 
L 1875 4416 
L 1125 4416 
L 1125 -397 
L 1875 -397 
L 1875 -844 
L 550 -844 
L 550 4863 
z
" id="DejaVuSans-5b" transform="scale(0.015625)"/>
       <path d="M 628 4666 
L 1478 4666 
L 3547 763 
L 3547 4666 
L 4159 4666 
L 4159 0 
L 3309 0 
L 1241 3903 
L 1241 0 
L 628 0 
L 628 4666 
z
" id="DejaVuSans-4e" transform="scale(0.015625)"/>
       <path d="M 2194 1759 
Q 1497 1759 1228 1600 
Q 959 1441 959 1056 
Q 959 750 1161 570 
Q 1363 391 1709 391 
Q 2188 391 2477 730 
Q 2766 1069 2766 1631 
L 2766 1759 
L 2194 1759 
z
M 3341 1997 
L 3341 0 
L 2766 0 
L 2766 531 
Q 2569 213 2275 61 
Q 1981 -91 1556 -91 
Q 1019 -91 701 211 
Q 384 513 384 1019 
Q 384 1609 779 1909 
Q 1175 2209 1959 2209 
L 2766 2209 
L 2766 2266 
Q 2766 2663 2505 2880 
Q 2244 3097 1772 3097 
Q 1472 3097 1187 3025 
Q 903 2953 641 2809 
L 641 3341 
Q 956 3463 1253 3523 
Q 1550 3584 1831 3584 
Q 2591 3584 2966 3190 
Q 3341 2797 3341 1997 
z
" id="DejaVuSans-61" transform="scale(0.015625)"/>
       <path d="M 2522 4238 
Q 1834 4238 1429 3725 
Q 1025 3213 1025 2328 
Q 1025 1447 1429 934 
Q 1834 422 2522 422 
Q 3209 422 3611 934 
Q 4013 1447 4013 2328 
Q 4013 3213 3611 3725 
Q 3209 4238 2522 4238 
z
M 2522 4750 
Q 3503 4750 4090 4092 
Q 4678 3434 4678 2328 
Q 4678 1225 4090 567 
Q 3503 -91 2522 -91 
Q 1538 -91 948 565 
Q 359 1222 359 2328 
Q 359 3434 948 4092 
Q 1538 4750 2522 4750 
z
" id="DejaVuSans-4f" transform="scale(0.015625)"/>
       <path d="M 628 4666 
L 1259 4666 
L 1259 2753 
L 3553 2753 
L 3553 4666 
L 4184 4666 
L 4184 0 
L 3553 0 
L 3553 2222 
L 1259 2222 
L 1259 0 
L 628 0 
L 628 4666 
z
" id="DejaVuSans-48" transform="scale(0.015625)"/>
       <path d="M 1947 4863 
L 1947 -844 
L 622 -844 
L 622 -397 
L 1369 -397 
L 1369 4416 
L 622 4416 
L 622 4863 
L 1947 4863 
z
" id="DejaVuSans-5d" transform="scale(0.015625)"/>
       <path d="M 1625 4666 
L 2156 4666 
L 531 -594 
L 0 -594 
L 1625 4666 
z
" id="DejaVuSans-2f" transform="scale(0.015625)"/>
       <path id="DejaVuSans-20" transform="scale(0.015625)"/>
       <path d="M 3328 2828 
Q 3544 3216 3844 3400 
Q 4144 3584 4550 3584 
Q 5097 3584 5394 3201 
Q 5691 2819 5691 2113 
L 5691 0 
L 5113 0 
L 5113 2094 
Q 5113 2597 4934 2840 
Q 4756 3084 4391 3084 
Q 3944 3084 3684 2787 
Q 3425 2491 3425 1978 
L 3425 0 
L 2847 0 
L 2847 2094 
Q 2847 2600 2669 2842 
Q 2491 3084 2119 3084 
Q 1678 3084 1418 2786 
Q 1159 2488 1159 1978 
L 1159 0 
L 581 0 
L 581 3500 
L 1159 3500 
L 1159 2956 
Q 1356 3278 1631 3431 
Q 1906 3584 2284 3584 
Q 2666 3584 2933 3390 
Q 3200 3197 3328 2828 
z
" id="DejaVuSans-6d" transform="scale(0.015625)"/>
       <path d="M 628 4666 
L 1569 4666 
L 2759 1491 
L 3956 4666 
L 4897 4666 
L 4897 0 
L 4281 0 
L 4281 4097 
L 3078 897 
L 2444 897 
L 1241 4097 
L 1241 0 
L 628 0 
L 628 4666 
z
" id="DejaVuSans-4d" transform="scale(0.015625)"/>
      </defs>
      <use xlink:href="#DejaVuSans-5b"/>
      <use x="39.013672" xlink:href="#DejaVuSans-4e"/>
      <use x="113.818359" xlink:href="#DejaVuSans-61"/>
      <use x="175.097656" xlink:href="#DejaVuSans-4f"/>
      <use x="253.808594" xlink:href="#DejaVuSans-48"/>
      <use x="329.003906" xlink:href="#DejaVuSans-5d"/>
      <use x="368.017578" xlink:href="#DejaVuSans-2f"/>
      <use x="401.708984" xlink:href="#DejaVuSans-20"/>
      <use x="433.496094" xlink:href="#DejaVuSans-6d"/>
      <use x="530.908203" xlink:href="#DejaVuSans-4d"/>
     </g>
    </g>
   </g>
   <g id="matplotlib.axis_2">
    <g id="ytick_1">
     <g id="line2d_5">
      <defs>
       <path d="M 0 0 
L -2 0 
" id="mb57e16d02a" style="stroke:#000000;stroke-width:0.8;"/>
      </defs>
      <g>
       <use style="stroke:#000000;stroke-width:0.8;" x="50.688" xlink:href="#mb57e16d02a" y="119.662386"/>
      </g>
     </g>
     <g id="text_6">
      <!-- 0 -->
      <g transform="translate(38.8255 123.461605)scale(0.1 -0.1)">
       <use xlink:href="#DejaVuSans-30"/>
      </g>
     </g>
    </g>
    <g id="ytick_2">
     <g id="line2d_6">
      <g>
       <use style="stroke:#000000;stroke-width:0.8;" x="50.688" xlink:href="#mb57e16d02a" y="84.152378"/>
      </g>
     </g>
     <g id="text_7">
      <!-- 20 -->
      <g transform="translate(32.463 87.951597)scale(0.1 -0.1)">
       <use xlink:href="#DejaVuSans-32"/>
       <use x="63.623047" xlink:href="#DejaVuSans-30"/>
      </g>
     </g>
    </g>
    <g id="ytick_3">
     <g id="line2d_7">
      <g>
       <use style="stroke:#000000;stroke-width:0.8;" x="50.688" xlink:href="#mb57e16d02a" y="48.64237"/>
      </g>
     </g>
     <g id="text_8">
      <!-- 40 -->
      <g transform="translate(32.463 52.441589)scale(0.1 -0.1)">
       <defs>
        <path d="M 2419 4116 
L 825 1625 
L 2419 1625 
L 2419 4116 
z
M 2253 4666 
L 3047 4666 
L 3047 1625 
L 3713 1625 
L 3713 1100 
L 3047 1100 
L 3047 0 
L 2419 0 
L 2419 1100 
L 313 1100 
L 313 1709 
L 2253 4666 
z
" id="DejaVuSans-34" transform="scale(0.015625)"/>
       </defs>
       <use xlink:href="#DejaVuSans-34"/>
       <use x="63.623047" xlink:href="#DejaVuSans-30"/>
      </g>
     </g>
    </g>
    <g id="text_9">
     <!-- [CaCl$_2$]/ mM -->
     <g transform="translate(26.383312 101.53)rotate(-90)scale(0.1 -0.1)">
      <defs>
       <path d="M 4122 4306 
L 4122 3641 
Q 3803 3938 3442 4084 
Q 3081 4231 2675 4231 
Q 1875 4231 1450 3742 
Q 1025 3253 1025 2328 
Q 1025 1406 1450 917 
Q 1875 428 2675 428 
Q 3081 428 3442 575 
Q 3803 722 4122 1019 
L 4122 359 
Q 3791 134 3420 21 
Q 3050 -91 2638 -91 
Q 1578 -91 968 557 
Q 359 1206 359 2328 
Q 359 3453 968 4101 
Q 1578 4750 2638 4750 
Q 3056 4750 3426 4639 
Q 3797 4528 4122 4306 
z
" id="DejaVuSans-43" transform="scale(0.015625)"/>
       <path d="M 603 4863 
L 1178 4863 
L 1178 0 
L 603 0 
L 603 4863 
z
" id="DejaVuSans-6c" transform="scale(0.015625)"/>
      </defs>
      <use transform="translate(0 0.015625)" xlink:href="#DejaVuSans-5b"/>
      <use transform="translate(39.013672 0.015625)" xlink:href="#DejaVuSans-43"/>
      <use transform="translate(108.837891 0.015625)" xlink:href="#DejaVuSans-61"/>
      <use transform="translate(170.117188 0.015625)" xlink:href="#DejaVuSans-43"/>
      <use transform="translate(239.941406 0.015625)" xlink:href="#DejaVuSans-6c"/>
      <use transform="translate(268.681641 -16.390625)scale(0.7)" xlink:href="#DejaVuSans-32"/>
      <use transform="translate(315.952148 0.015625)" xlink:href="#DejaVuSans-5d"/>
      <use transform="translate(354.96582 0.015625)" xlink:href="#DejaVuSans-2f"/>
      <use transform="translate(388.657227 0.015625)" xlink:href="#DejaVuSans-20"/>
      <use transform="translate(420.444336 0.015625)" xlink:href="#DejaVuSans-6d"/>
      <use transform="translate(517.856445 0.015625)" xlink:href="#DejaVuSans-4d"/>
     </g>
    </g>
   </g>
   <g id="line2d_8">
    <path clip-path="url(#p833483fed3)" d="M 64.950212 101.907382 
L 70.326685 -1 
" style="fill:none;stroke:#000000;stroke-dasharray:1.85,0.8;stroke-dashoffset:0;stroke-opacity:0.5;stroke-width:0.5;"/>
   </g>
   <g id="line2d_9">
    <path clip-path="url(#p833483fed3)" d="M 64.950212 117.886886 
L 75.617882 97.468631 
L 127.063559 -1 
" style="fill:none;stroke:#000000;stroke-dasharray:1.85,0.8;stroke-dashoffset:0;stroke-opacity:0.5;stroke-width:0.5;"/>
   </g>
   <g id="line2d_10">
    <path clip-path="url(#p833483fed3)" d="M 64.950212 118.952186 
L 75.617882 110.784884 
L 203.166118 13.132362 
" style="fill:none;stroke:#000000;stroke-dasharray:1.85,0.8;stroke-dashoffset:0;stroke-opacity:0.5;stroke-width:0.5;"/>
   </g>
   <g id="line2d_11">
    <path clip-path="url(#p833483fed3)" d="M 64.950212 119.484836 
L 75.617882 117.44301 
L 203.166118 93.02988 
" style="fill:none;stroke:#000000;stroke-dasharray:1.85,0.8;stroke-dashoffset:0;stroke-opacity:0.5;stroke-width:0.5;"/>
   </g>
   <g id="patch_3">
    <path d="M 50.688 126.72 
L 50.688 15.84 
" style="fill:none;stroke:#000000;stroke-linecap:square;stroke-linejoin:miter;stroke-width:0.8;"/>
   </g>
   <g id="patch_4">
    <path d="M 228.096 126.72 
L 228.096 15.84 
" style="fill:none;stroke:#000000;stroke-linecap:square;stroke-linejoin:miter;stroke-width:0.8;"/>
   </g>
   <g id="patch_5">
    <path d="M 50.688 126.72 
L 228.096 126.72 
" style="fill:none;stroke:#000000;stroke-linecap:square;stroke-linejoin:miter;stroke-width:0.8;"/>
   </g>
   <g id="patch_6">
    <path d="M 50.688 15.84 
L 228.096 15.84 
" style="fill:none;stroke:#000000;stroke-linecap:square;stroke-linejoin:miter;stroke-width:0.8;"/>
   </g>
   <g id="axes_2">
    <g id="patch_7">
     <path d="M 121.198807 55.744371 
C 121.198807 55.696836 121.198493 55.649302 121.197865 55.601771 
C 121.197237 55.55424 121.196295 55.506713 121.19504 55.459195 
L 110.403765 55.744371 
L 121.198807 55.744371 
z
" style="fill:#e0e3e1;stroke:#000000;stroke-linejoin:miter;stroke-width:0.1;"/>
    </g>
    <g id="patch_8">
     <path d="M 121.19504 55.459195 
C 121.189029 55.231747 121.175829 55.004545 121.155459 54.777931 
C 121.135089 54.551317 121.10756 54.325404 121.072913 54.10053 
L 110.403765 55.744371 
L 121.19504 55.459195 
z
" style="fill:#e0e3e1;stroke:#000000;stroke-linejoin:miter;stroke-width:0.1;"/>
    </g>
    <g id="patch_9">
     <path d="M 121.072913 54.10053 
C 120.815713 52.431208 120.170288 50.845316 119.18871 49.470801 
C 118.207131 48.096286 116.916526 46.971135 115.421018 46.186123 
C 113.92551 45.401111 112.26643 44.977933 110.57763 44.950729 
C 108.888829 44.923526 107.21698 45.293049 105.696965 46.029487 
L 110.403765 55.744371 
L 121.072913 54.10053 
z
" style="fill:#44aaaa;stroke:#000000;stroke-linejoin:miter;stroke-width:0.1;"/>
    </g>
    <g id="patch_10">
     <path d="M 105.696965 46.029487 
C 105.696965 46.029487 105.696965 46.029487 105.696965 46.029487 
L 110.403765 55.744371 
L 105.696965 46.029487 
z
" style="fill:#77aadd;stroke:#000000;stroke-linejoin:miter;stroke-width:0.1;"/>
    </g>
    <g id="patch_11">
     <path d="M 105.696965 46.029487 
C 103.372162 47.155839 101.527169 49.080111 100.499565 51.450217 
C 99.47196 53.820323 99.328488 56.482322 100.095401 58.949146 
L 110.403765 55.744371 
L 105.696965 46.029487 
z
" style="fill:#117777;stroke:#000000;stroke-linejoin:miter;stroke-width:0.1;"/>
    </g>
    <g id="patch_12">
     <path d="M 100.095401 58.949146 
C 100.095401 58.949146 100.095401 58.949146 100.095401 58.949146 
L 110.403765 55.744371 
L 100.095401 58.949146 
z
" style="fill:#525fb7;stroke:#000000;stroke-linejoin:miter;stroke-width:0.1;"/>
    </g>
    <g id="patch_13">
     <path d="M 100.095401 58.949146 
C 100.095401 58.949146 100.095401 58.949146 100.095401 58.949146 
L 110.403765 55.744371 
L 100.095401 58.949146 
z
" style="fill:#a3604b;stroke:#000000;stroke-linejoin:miter;stroke-width:0.1;"/>
    </g>
    <g id="patch_14">
     <path d="M 100.095401 58.949146 
C 100.300158 59.60776 100.567564 60.245237 100.893949 60.852831 
C 101.220335 61.460424 101.604201 62.035342 102.040279 62.569695 
L 110.403765 55.744371 
L 100.095401 58.949146 
z
" style="fill:#a3604b;stroke:#000000;stroke-linejoin:miter;stroke-width:0.1;"/>
    </g>
    <g id="patch_15">
     <path d="M 102.040279 62.569695 
C 102.049581 62.581094 102.058907 62.592474 102.068256 62.603835 
C 102.077605 62.615196 102.086978 62.626538 102.096373 62.63786 
L 110.403765 55.744371 
L 102.040279 62.569695 
z
" style="fill:#f53f06;stroke:#000000;stroke-linejoin:miter;stroke-width:0.1;"/>
    </g>
    <g id="patch_16">
     <path d="M 102.096373 62.63786 
C 102.096373 62.63786 102.096373 62.63786 102.096373 62.63786 
L 110.403765 55.744371 
L 102.096373 62.63786 
z
" style="fill:#f53f06;stroke:#000000;stroke-linejoin:miter;stroke-width:0.1;"/>
    </g>
    <g id="patch_17">
     <path d="M 102.096373 62.63786 
C 102.096373 62.63786 102.096373 62.63786 102.096373 62.63786 
L 110.403765 55.744371 
L 102.096373 62.63786 
z
" style="fill:#dd7790;stroke:#000000;stroke-linejoin:miter;stroke-width:0.1;"/>
    </g>
    <g id="patch_18">
     <path d="M 102.096373 62.63786 
C 103.452958 64.27269 105.26241 65.471262 107.296905 66.082668 
C 109.3314 66.694073 111.501812 66.691527 113.534867 66.075351 
L 110.403765 55.744371 
L 102.096373 62.63786 
z
" style="fill:#771124;stroke:#000000;stroke-linejoin:miter;stroke-width:0.1;"/>
    </g>
    <g id="patch_19">
     <path d="M 113.534867 66.075351 
C 113.534867 66.075351 113.534867 66.075351 113.534867 66.075351 
L 110.403765 55.744371 
L 113.534867 66.075351 
z
" style="fill:#eeb29f;stroke:#000000;stroke-linejoin:miter;stroke-width:0.1;"/>
    </g>
    <g id="patch_20">
     <path d="M 113.534867 66.075351 
C 114.013297 65.930349 114.481077 65.752288 114.934828 65.542453 
C 115.388578 65.332619 115.827206 65.091518 116.247541 64.820892 
L 110.403765 55.744371 
L 113.534867 66.075351 
z
" style="fill:#eeb29f;stroke:#000000;stroke-linejoin:miter;stroke-width:0.1;"/>
    </g>
    <g id="patch_21">
     <path d="M 116.247541 64.820892 
C 116.247541 64.820892 116.247541 64.820892 116.247541 64.820892 
L 110.403765 55.744371 
L 116.247541 64.820892 
z
" style="fill:#ff0240;stroke:#000000;stroke-linejoin:miter;stroke-width:0.1;"/>
    </g>
    <g id="patch_22">
     <path d="M 116.247541 64.820892 
C 116.247541 64.820892 116.247541 64.820892 116.247541 64.820892 
L 110.403765 55.744371 
L 116.247541 64.820892 
z
" style="fill:#d0d1df;stroke:#000000;stroke-linejoin:miter;stroke-width:0.1;"/>
    </g>
    <g id="patch_23">
     <path d="M 116.247541 64.820892 
C 116.247627 64.820836 116.247713 64.820781 116.247799 64.820726 
C 116.247885 64.82067 116.247971 64.820615 116.248057 64.82056 
L 110.403765 55.744371 
L 116.247541 64.820892 
z
" style="fill:#6ef1c9;stroke:#000000;stroke-linejoin:miter;stroke-width:0.1;"/>
    </g>
    <g id="patch_24">
     <path d="M 116.248057 64.82056 
C 116.55003 64.626115 116.84211 64.416721 117.123209 64.193159 
C 117.404308 63.969597 117.674074 63.732146 117.931502 63.481691 
L 110.403765 55.744371 
L 116.248057 64.82056 
z
" style="fill:#6ef1c9;stroke:#000000;stroke-linejoin:miter;stroke-width:0.1;"/>
    </g>
    <g id="patch_25">
     <path d="M 117.931502 63.481691 
C 118.141677 63.277209 118.343433 63.064249 118.536268 62.843339 
C 118.729102 62.622429 118.912856 62.393754 119.087072 62.157883 
L 110.403765 55.744371 
L 117.931502 63.481691 
z
" style="fill:#6ef1c9;stroke:#000000;stroke-linejoin:miter;stroke-width:0.1;"/>
    </g>
    <g id="patch_26">
     <path d="M 119.087072 62.157883 
C 119.345423 61.808098 119.582404 61.443022 119.796718 61.06465 
C 120.011032 60.686279 120.202288 60.295304 120.369439 59.893862 
L 110.403765 55.744371 
L 119.087072 62.157883 
z
" style="fill:#689285;stroke:#000000;stroke-linejoin:miter;stroke-width:0.1;"/>
    </g>
    <g id="patch_27">
     <path d="M 120.369439 59.893862 
C 120.369439 59.893862 120.369439 59.893862 120.369439 59.893862 
L 110.403765 55.744371 
L 120.369439 59.893862 
z
" style="fill:#428317;stroke:#000000;stroke-linejoin:miter;stroke-width:0.1;"/>
    </g>
    <g id="patch_28">
     <path d="M 120.369439 59.893862 
C 120.642521 59.238013 120.850193 58.556805 120.989435 57.860153 
C 121.128676 57.163501 121.198807 56.454802 121.198807 55.744372 
L 110.403765 55.744371 
L 120.369439 59.893862 
z
" style="fill:#428317;stroke:#000000;stroke-linejoin:miter;stroke-width:0.1;"/>
    </g>
    <g id="patch_29">
     <path d="M 121.198807 55.744372 
C 121.198807 55.744372 121.198807 55.744372 121.198807 55.744372 
L 110.403765 55.744371 
L 121.198807 55.744372 
z
" style="fill:#106832;stroke:#000000;stroke-linejoin:miter;stroke-width:0.1;"/>
    </g>
    <g id="patch_30">
     <path d="M 121.198807 55.744372 
C 121.198807 55.744372 121.198807 55.744372 121.198807 55.744372 
L 110.403765 55.744371 
L 121.198807 55.744372 
z
" style="fill:#56a45e;stroke:#000000;stroke-linejoin:miter;stroke-width:0.1;"/>
    </g>
    <g id="patch_31">
     <path d="M 121.198807 55.744372 
C 121.198807 55.744372 121.198807 55.744372 121.198807 55.744372 
L 110.403765 55.744371 
L 121.198807 55.744372 
z
" style="fill:#7ac890;stroke:#000000;stroke-linejoin:miter;stroke-width:0.1;"/>
    </g>
    <g id="patch_32">
     <path d="M 121.198807 55.744372 
C 121.198807 55.744372 121.198807 55.744372 121.198807 55.744372 
L 110.403765 55.744371 
L 121.198807 55.744372 
z
" style="fill:#51a778;stroke:#000000;stroke-linejoin:miter;stroke-width:0.1;"/>
    </g>
    <g id="patch_33">
     <path d="M 121.198807 55.744372 
C 121.198807 55.744372 121.198807 55.744372 121.198807 55.744372 
L 110.403765 55.744371 
L 121.198807 55.744372 
z
" style="fill:#34be72;stroke:#000000;stroke-linejoin:miter;stroke-width:0.1;"/>
    </g>
    <g id="patch_34">
     <path d="M 121.198807 55.744372 
C 121.198807 55.744372 121.198807 55.744372 121.198807 55.744372 
L 110.403765 55.744371 
L 121.198807 55.744372 
z
" style="fill:#0ec460;stroke:#000000;stroke-linejoin:miter;stroke-width:0.1;"/>
    </g>
    <g id="patch_35">
     <path d="M 121.198807 55.744372 
C 121.198807 55.744372 121.198807 55.744372 121.198807 55.744372 
L 110.403765 55.744371 
L 121.198807 55.744372 
z
" style="fill:#069848;stroke:#000000;stroke-linejoin:miter;stroke-width:0.1;"/>
    </g>
    <g id="matplotlib.axis_3"/>
    <g id="matplotlib.axis_4"/>
   </g>
   <g id="axes_3">
    <g id="patch_36">
     <path d="M 86.412925 84.152378 
C 86.412925 84.150706 86.412924 84.149035 86.412924 84.147364 
C 86.412923 84.145692 86.412922 84.144021 86.41292 84.142349 
L 75.617882 84.152378 
L 86.412925 84.152378 
z
" style="fill:#e0e3e1;stroke:#000000;stroke-linejoin:miter;stroke-width:0.1;"/>
    </g>
    <g id="patch_37">
     <path d="M 86.41292 84.142349 
C 86.412809 84.022895 86.410715 83.903451 86.40664 83.784067 
C 86.402564 83.664682 86.396507 83.545373 86.388472 83.42619 
L 75.617882 84.152378 
L 86.41292 84.142349 
z
" style="fill:#e0e3e1;stroke:#000000;stroke-linejoin:miter;stroke-width:0.1;"/>
    </g>
    <g id="patch_38">
     <path d="M 86.388472 83.42619 
C 86.26908 81.655407 85.714811 79.941095 84.77492 78.435595 
C 83.835029 76.930095 82.538206 75.679363 80.999693 74.794544 
L 75.617882 84.152378 
L 86.388472 83.42619 
z
" style="fill:#44aaaa;stroke:#000000;stroke-linejoin:miter;stroke-width:0.1;"/>
    </g>
    <g id="patch_39">
     <path d="M 80.999693 74.794544 
C 80.999108 74.794208 80.998523 74.793871 80.997938 74.793535 
C 80.997352 74.793198 80.996767 74.792862 80.996182 74.792526 
L 75.617882 84.152378 
L 80.999693 74.794544 
z
" style="fill:#77aadd;stroke:#000000;stroke-linejoin:miter;stroke-width:0.1;"/>
    </g>
    <g id="patch_40">
     <path d="M 80.996182 74.792526 
C 79.654005 74.021292 78.161508 73.547702 76.620217 73.40397 
C 75.078925 73.260238 73.524596 73.449699 72.06296 73.959465 
C 70.601325 74.469231 69.266293 75.287475 68.148678 76.358539 
C 67.031063 77.429602 66.156794 78.728635 65.585341 80.167273 
C 65.013888 81.605912 64.758509 83.150779 64.836576 84.696789 
C 64.914643 86.242798 65.324345 87.754082 66.037812 89.127837 
C 66.751279 90.501593 67.751959 91.705949 68.971782 92.658981 
C 70.191606 93.612013 71.602272 94.291611 73.107824 94.651547 
L 75.617882 84.152378 
L 80.996182 74.792526 
z
" style="fill:#117777;stroke:#000000;stroke-linejoin:miter;stroke-width:0.1;"/>
    </g>
    <g id="patch_41">
     <path d="M 73.107824 94.651547 
C 73.108789 94.651778 73.109754 94.652008 73.110719 94.652239 
C 73.111684 94.652469 73.11265 94.652699 73.113615 94.65293 
L 75.617882 84.152378 
L 73.107824 94.651547 
z
" style="fill:#525fb7;stroke:#000000;stroke-linejoin:miter;stroke-width:0.1;"/>
    </g>
    <g id="patch_42">
     <path d="M 73.113615 94.65293 
C 73.116396 94.653593 73.119178 94.654255 73.121959 94.654916 
C 73.124741 94.655577 73.127523 94.656237 73.130306 94.656896 
L 75.617882 84.152378 
L 73.113615 94.65293 
z
" style="fill:#a3604b;stroke:#000000;stroke-linejoin:miter;stroke-width:0.1;"/>
    </g>
    <g id="patch_43">
     <path d="M 73.130306 94.656896 
C 73.389182 94.718201 73.650236 94.769915 73.912933 94.811932 
C 74.17563 94.853949 74.439791 94.886241 74.704874 94.908741 
L 75.617882 84.152378 
L 73.130306 94.656896 
z
" style="fill:#a3604b;stroke:#000000;stroke-linejoin:miter;stroke-width:0.1;"/>
    </g>
    <g id="patch_44">
     <path d="M 74.704874 94.908741 
C 74.704874 94.908741 74.704874 94.908741 74.704874 94.908741 
L 75.617882 84.152378 
L 74.704874 94.908741 
z
" style="fill:#f53f06;stroke:#000000;stroke-linejoin:miter;stroke-width:0.1;"/>
    </g>
    <g id="patch_45">
     <path d="M 74.704874 94.908741 
C 76.092293 95.026507 77.489483 94.874731 78.819252 94.461799 
C 80.149022 94.048868 81.386425 93.382527 82.463097 92.499591 
L 75.617882 84.152378 
L 74.704874 94.908741 
z
" style="fill:#f53f06;stroke:#000000;stroke-linejoin:miter;stroke-width:0.1;"/>
    </g>
    <g id="patch_46">
     <path d="M 82.463097 92.499591 
C 82.463097 92.499591 82.463097 92.499591 82.463097 92.499591 
L 75.617882 84.152378 
L 82.463097 92.499591 
z
" style="fill:#dd7790;stroke:#000000;stroke-linejoin:miter;stroke-width:0.1;"/>
    </g>
    <g id="patch_47">
     <path d="M 82.463097 92.499591 
C 83.307727 91.806944 84.042355 90.990094 84.641849 90.076985 
C 85.241342 89.163877 85.698786 88.165044 85.99853 87.114656 
L 75.617882 84.152378 
L 82.463097 92.499591 
z
" style="fill:#771124;stroke:#000000;stroke-linejoin:miter;stroke-width:0.1;"/>
    </g>
    <g id="patch_48">
     <path d="M 85.99853 87.114656 
C 85.99853 87.114656 85.99853 87.114656 85.99853 87.114656 
L 75.617882 84.152378 
L 85.99853 87.114656 
z
" style="fill:#eeb29f;stroke:#000000;stroke-linejoin:miter;stroke-width:0.1;"/>
    </g>
    <g id="patch_49">
     <path d="M 85.99853 87.114656 
C 85.99853 87.114656 85.99853 87.114656 85.99853 87.114656 
L 75.617882 84.152378 
L 85.99853 87.114656 
z
" style="fill:#eeb29f;stroke:#000000;stroke-linejoin:miter;stroke-width:0.1;"/>
    </g>
    <g id="patch_50">
     <path d="M 85.99853 87.114656 
C 85.99853 87.114656 85.99853 87.114656 85.99853 87.114656 
L 75.617882 84.152378 
L 85.99853 87.114656 
z
" style="fill:#ff0240;stroke:#000000;stroke-linejoin:miter;stroke-width:0.1;"/>
    </g>
    <g id="patch_51">
     <path d="M 85.99853 87.114656 
C 85.99853 87.114656 85.99853 87.114656 85.99853 87.114656 
L 75.617882 84.152378 
L 85.99853 87.114656 
z
" style="fill:#d0d1df;stroke:#000000;stroke-linejoin:miter;stroke-width:0.1;"/>
    </g>
    <g id="patch_52">
     <path d="M 85.99853 87.114656 
C 85.998867 87.113476 85.999204 87.112295 85.99954 87.111114 
C 85.999877 87.109933 86.000213 87.108752 86.000549 87.107571 
L 75.617882 84.152378 
L 85.99853 87.114656 
z
" style="fill:#6ef1c9;stroke:#000000;stroke-linejoin:miter;stroke-width:0.1;"/>
    </g>
    <g id="patch_53">
     <path d="M 86.000549 87.107571 
C 86.016602 87.051172 86.032195 86.994644 86.047326 86.937991 
C 86.062458 86.881338 86.077127 86.824563 86.091334 86.767672 
L 75.617882 84.152378 
L 86.000549 87.107571 
z
" style="fill:#6ef1c9;stroke:#000000;stroke-linejoin:miter;stroke-width:0.1;"/>
    </g>
    <g id="patch_54">
     <path d="M 86.091334 86.767672 
C 86.094333 86.755659 86.097312 86.743642 86.10027 86.73162 
C 86.103228 86.719597 86.106166 86.70757 86.109083 86.695537 
L 75.617882 84.152378 
L 86.091334 86.767672 
z
" style="fill:#6ef1c9;stroke:#000000;stroke-linejoin:miter;stroke-width:0.1;"/>
    </g>
    <g id="patch_55">
     <path d="M 86.109083 86.695537 
C 86.118405 86.65708 86.127516 86.618572 86.136415 86.580015 
C 86.145314 86.541457 86.154 86.502851 86.162475 86.464198 
L 75.617882 84.152378 
L 86.109083 86.695537 
z
" style="fill:#689285;stroke:#000000;stroke-linejoin:miter;stroke-width:0.1;"/>
    </g>
    <g id="patch_56">
     <path d="M 86.162475 86.464198 
C 86.162475 86.464198 86.162475 86.464198 86.162475 86.464198 
L 75.617882 84.152378 
L 86.162475 86.464198 
z
" style="fill:#428317;stroke:#000000;stroke-linejoin:miter;stroke-width:0.1;"/>
    </g>
    <g id="patch_57">
     <path d="M 86.162475 86.464198 
C 86.245077 86.087435 86.307427 85.706515 86.349257 85.323078 
C 86.391087 84.939641 86.412336 84.554238 86.412913 84.168526 
L 75.617882 84.152378 
L 86.162475 86.464198 
z
" style="fill:#428317;stroke:#000000;stroke-linejoin:miter;stroke-width:0.1;"/>
    </g>
    <g id="patch_58">
     <path d="M 86.412913 84.168526 
C 86.412913 84.168526 86.412913 84.168526 86.412913 84.168526 
L 75.617882 84.152378 
L 86.412913 84.168526 
z
" style="fill:#106832;stroke:#000000;stroke-linejoin:miter;stroke-width:0.1;"/>
    </g>
    <g id="patch_59">
     <path d="M 86.412913 84.168526 
C 86.412913 84.168526 86.412913 84.168526 86.412913 84.168526 
L 75.617882 84.152378 
L 86.412913 84.168526 
z
" style="fill:#56a45e;stroke:#000000;stroke-linejoin:miter;stroke-width:0.1;"/>
    </g>
    <g id="patch_60">
     <path d="M 86.412913 84.168526 
C 86.412913 84.168526 86.412913 84.168526 86.412913 84.168526 
L 75.617882 84.152378 
L 86.412913 84.168526 
z
" style="fill:#7ac890;stroke:#000000;stroke-linejoin:miter;stroke-width:0.1;"/>
    </g>
    <g id="patch_61">
     <path d="M 86.412913 84.168526 
C 86.412914 84.167541 86.412916 84.166556 86.412917 84.16557 
C 86.412918 84.164585 86.412919 84.163599 86.41292 84.162614 
L 75.617882 84.152378 
L 86.412913 84.168526 
z
" style="fill:#51a778;stroke:#000000;stroke-linejoin:miter;stroke-width:0.1;"/>
    </g>
    <g id="patch_62">
     <path d="M 86.41292 84.162614 
C 86.412921 84.161909 86.412921 84.161204 86.412922 84.160499 
C 86.412922 84.159794 86.412923 84.159089 86.412923 84.158384 
L 75.617882 84.152378 
L 86.41292 84.162614 
z
" style="fill:#34be72;stroke:#000000;stroke-linejoin:miter;stroke-width:0.1;"/>
    </g>
    <g id="patch_63">
     <path d="M 86.412923 84.158384 
C 86.412924 84.157384 86.412924 84.156383 86.412924 84.155382 
C 86.412925 84.154382 86.412925 84.153381 86.412925 84.152381 
L 75.617882 84.152378 
L 86.412923 84.158384 
z
" style="fill:#0ec460;stroke:#000000;stroke-linejoin:miter;stroke-width:0.1;"/>
    </g>
    <g id="patch_64">
     <path d="M 86.412925 84.152381 
C 86.412925 84.152381 86.412925 84.152381 86.412925 84.152381 
L 75.617882 84.152378 
L 86.412925 84.152381 
z
" style="fill:#069848;stroke:#000000;stroke-linejoin:miter;stroke-width:0.1;"/>
    </g>
    <g id="matplotlib.axis_5"/>
    <g id="matplotlib.axis_6"/>
   </g>
   <g id="axes_4">
    <g id="patch_65">
     <path d="M 86.412925 27.336365 
C 86.412925 27.335188 86.412925 27.334012 86.412924 27.332835 
C 86.412924 27.331659 86.412923 27.330482 86.412922 27.329305 
L 75.617882 27.336365 
L 86.412925 27.336365 
z
" style="fill:#e0e3e1;stroke:#000000;stroke-linejoin:miter;stroke-width:0.1;"/>
    </g>
    <g id="patch_66">
     <path d="M 86.412922 27.329305 
C 86.412922 27.329305 86.412922 27.329305 86.412922 27.329305 
L 75.617882 27.336365 
L 86.412922 27.329305 
z
" style="fill:#e0e3e1;stroke:#000000;stroke-linejoin:miter;stroke-width:0.1;"/>
    </g>
    <g id="patch_67">
     <path d="M 86.412922 27.329305 
C 86.412254 26.307312 86.266457 25.290572 85.979903 24.309573 
C 85.693349 23.328574 85.268931 22.393221 84.719375 21.531559 
L 75.617882 27.336365 
L 86.412922 27.329305 
z
" style="fill:#44aaaa;stroke:#000000;stroke-linejoin:miter;stroke-width:0.1;"/>
    </g>
    <g id="patch_68">
     <path d="M 84.719375 21.531559 
C 84.719375 21.531559 84.719375 21.531559 84.719375 21.531559 
L 75.617882 27.336365 
L 84.719375 21.531559 
z
" style="fill:#77aadd;stroke:#000000;stroke-linejoin:miter;stroke-width:0.1;"/>
    </g>
    <g id="patch_69">
     <path d="M 84.719375 21.531559 
C 83.639882 19.838997 82.109355 18.480644 80.300556 17.609829 
C 78.491757 16.739014 76.475405 16.389783 74.479102 16.601556 
C 72.4828 16.81333 70.584596 17.577828 68.998756 18.808757 
C 67.412916 20.039685 66.201442 21.688918 65.501083 23.570292 
C 64.800724 25.451667 64.638861 27.491627 65.033766 29.459906 
C 65.428671 31.428185 66.364904 33.247829 67.736785 34.71344 
C 69.108665 36.179052 70.862557 37.233329 72.800484 37.757268 
C 74.738411 38.281206 76.784606 38.254321 78.708098 37.679648 
L 75.617882 27.336365 
L 84.719375 21.531559 
z
" style="fill:#117777;stroke:#000000;stroke-linejoin:miter;stroke-width:0.1;"/>
    </g>
    <g id="patch_70">
     <path d="M 78.708098 37.679648 
C 78.712821 37.678237 78.717543 37.676823 78.722264 37.675405 
C 78.726986 37.673988 78.731706 37.672567 78.736425 37.671143 
L 75.617882 27.336365 
L 78.708098 37.679648 
z
" style="fill:#525fb7;stroke:#000000;stroke-linejoin:miter;stroke-width:0.1;"/>
    </g>
    <g id="patch_71">
     <path d="M 78.736425 37.671143 
C 78.736425 37.671143 78.736425 37.671143 78.736425 37.671143 
L 75.617882 27.336365 
L 78.736425 37.671143 
z
" style="fill:#a3604b;stroke:#000000;stroke-linejoin:miter;stroke-width:0.1;"/>
    </g>
    <g id="patch_72">
     <path d="M 78.736425 37.671143 
C 78.793533 37.65391 78.850498 37.636205 78.907314 37.618028 
C 78.964129 37.599851 79.020793 37.581203 79.077299 37.562087 
L 75.617882 27.336365 
L 78.736425 37.671143 
z
" style="fill:#a3604b;stroke:#000000;stroke-linejoin:miter;stroke-width:0.1;"/>
    </g>
    <g id="patch_73">
     <path d="M 79.077299 37.562087 
C 79.077299 37.562087 79.077299 37.562087 79.077299 37.562087 
L 75.617882 27.336365 
L 79.077299 37.562087 
z
" style="fill:#f53f06;stroke:#000000;stroke-linejoin:miter;stroke-width:0.1;"/>
    </g>
    <g id="patch_74">
     <path d="M 79.077299 37.562087 
C 80.621936 37.039528 82.028282 36.173712 83.190414 35.02985 
C 84.352546 33.885988 85.240537 32.493537 85.787505 30.957374 
L 75.617882 27.336365 
L 79.077299 37.562087 
z
" style="fill:#f53f06;stroke:#000000;stroke-linejoin:miter;stroke-width:0.1;"/>
    </g>
    <g id="patch_75">
     <path d="M 85.787505 30.957374 
C 85.787505 30.957374 85.787505 30.957374 85.787505 30.957374 
L 75.617882 27.336365 
L 85.787505 30.957374 
z
" style="fill:#dd7790;stroke:#000000;stroke-linejoin:miter;stroke-width:0.1;"/>
    </g>
    <g id="patch_76">
     <path d="M 85.787505 30.957374 
C 85.994068 30.377243 86.150611 29.7805 86.255421 29.173677 
C 86.360231 28.566853 86.412925 27.952173 86.412925 27.336365 
L 75.617882 27.336365 
L 85.787505 30.957374 
z
" style="fill:#771124;stroke:#000000;stroke-linejoin:miter;stroke-width:0.1;"/>
    </g>
    <g id="patch_77">
     <path d="M 86.412925 27.336365 
C 86.412925 27.336365 86.412925 27.336365 86.412925 27.336365 
L 75.617882 27.336365 
L 86.412925 27.336365 
z
" style="fill:#eeb29f;stroke:#000000;stroke-linejoin:miter;stroke-width:0.1;"/>
    </g>
    <g id="patch_78">
     <path d="M 86.412925 27.336365 
C 86.412925 27.336365 86.412925 27.336365 86.412925 27.336365 
L 75.617882 27.336365 
L 86.412925 27.336365 
z
" style="fill:#eeb29f;stroke:#000000;stroke-linejoin:miter;stroke-width:0.1;"/>
    </g>
    <g id="patch_79">
     <path d="M 86.412925 27.336365 
C 86.412925 27.336365 86.412925 27.336365 86.412925 27.336365 
L 75.617882 27.336365 
L 86.412925 27.336365 
z
" style="fill:#ff0240;stroke:#000000;stroke-linejoin:miter;stroke-width:0.1;"/>
    </g>
    <g id="patch_80">
     <path d="M 86.412925 27.336365 
C 86.412925 27.336365 86.412925 27.336365 86.412925 27.336365 
L 75.617882 27.336365 
L 86.412925 27.336365 
z
" style="fill:#d0d1df;stroke:#000000;stroke-linejoin:miter;stroke-width:0.1;"/>
    </g>
    <g id="patch_81">
     <path d="M 86.412925 27.336365 
C 86.412925 27.336365 86.412925 27.336365 86.412925 27.336365 
L 75.617882 27.336365 
L 86.412925 27.336365 
z
" style="fill:#6ef1c9;stroke:#000000;stroke-linejoin:miter;stroke-width:0.1;"/>
    </g>
    <g id="patch_82">
     <path d="M 86.412925 27.336365 
C 86.412925 27.336365 86.412925 27.336365 86.412925 27.336365 
L 75.617882 27.336365 
L 86.412925 27.336365 
z
" style="fill:#6ef1c9;stroke:#000000;stroke-linejoin:miter;stroke-width:0.1;"/>
    </g>
    <g id="patch_83">
     <path d="M 86.412925 27.336365 
C 86.412925 27.336365 86.412925 27.336365 86.412925 27.336365 
L 75.617882 27.336365 
L 86.412925 27.336365 
z
" style="fill:#6ef1c9;stroke:#000000;stroke-linejoin:miter;stroke-width:0.1;"/>
    </g>
    <g id="patch_84">
     <path d="M 86.412925 27.336365 
C 86.412925 27.336365 86.412925 27.336365 86.412925 27.336365 
L 75.617882 27.336365 
L 86.412925 27.336365 
z
" style="fill:#689285;stroke:#000000;stroke-linejoin:miter;stroke-width:0.1;"/>
    </g>
    <g id="patch_85">
     <path d="M 86.412925 27.336365 
C 86.412925 27.336365 86.412925 27.336365 86.412925 27.336365 
L 75.617882 27.336365 
L 86.412925 27.336365 
z
" style="fill:#428317;stroke:#000000;stroke-linejoin:miter;stroke-width:0.1;"/>
    </g>
    <g id="patch_86">
     <path d="M 86.412925 27.336365 
C 86.412925 27.336365 86.412925 27.336365 86.412925 27.336365 
L 75.617882 27.336365 
L 86.412925 27.336365 
z
" style="fill:#428317;stroke:#000000;stroke-linejoin:miter;stroke-width:0.1;"/>
    </g>
    <g id="patch_87">
     <path d="M 86.412925 27.336365 
C 86.412925 27.336365 86.412925 27.336365 86.412925 27.336365 
L 75.617882 27.336365 
L 86.412925 27.336365 
z
" style="fill:#106832;stroke:#000000;stroke-linejoin:miter;stroke-width:0.1;"/>
    </g>
    <g id="patch_88">
     <path d="M 86.412925 27.336365 
C 86.412925 27.336365 86.412925 27.336365 86.412925 27.336365 
L 75.617882 27.336365 
L 86.412925 27.336365 
z
" style="fill:#56a45e;stroke:#000000;stroke-linejoin:miter;stroke-width:0.1;"/>
    </g>
    <g id="patch_89">
     <path d="M 86.412925 27.336365 
C 86.412925 27.336365 86.412925 27.336365 86.412925 27.336365 
L 75.617882 27.336365 
L 86.412925 27.336365 
z
" style="fill:#7ac890;stroke:#000000;stroke-linejoin:miter;stroke-width:0.1;"/>
    </g>
    <g id="patch_90">
     <path d="M 86.412925 27.336365 
C 86.412925 27.336365 86.412925 27.336365 86.412925 27.336365 
L 75.617882 27.336365 
L 86.412925 27.336365 
z
" style="fill:#51a778;stroke:#000000;stroke-linejoin:miter;stroke-width:0.1;"/>
    </g>
    <g id="patch_91">
     <path d="M 86.412925 27.336365 
C 86.412925 27.336365 86.412925 27.336365 86.412925 27.336365 
L 75.617882 27.336365 
L 86.412925 27.336365 
z
" style="fill:#34be72;stroke:#000000;stroke-linejoin:miter;stroke-width:0.1;"/>
    </g>
    <g id="patch_92">
     <path d="M 86.412925 27.336365 
C 86.412925 27.336365 86.412925 27.336365 86.412925 27.336365 
L 75.617882 27.336365 
L 86.412925 27.336365 
z
" style="fill:#0ec460;stroke:#000000;stroke-linejoin:miter;stroke-width:0.1;"/>
    </g>
    <g id="patch_93">
     <path d="M 86.412925 27.336365 
C 86.412925 27.336365 86.412925 27.336365 86.412925 27.336365 
L 75.617882 27.336365 
L 86.412925 27.336365 
z
" style="fill:#069848;stroke:#000000;stroke-linejoin:miter;stroke-width:0.1;"/>
    </g>
    <g id="matplotlib.axis_7"/>
    <g id="matplotlib.axis_8"/>
   </g>
   <g id="axes_5">
    <g id="patch_94">
     <path d="M 167.579984 84.152378 
C 167.579984 84.099785 167.579599 84.047193 167.578831 83.994605 
C 167.578062 83.942018 167.576909 83.889437 167.575372 83.836866 
L 156.784941 84.152378 
L 167.579984 84.152378 
z
" style="fill:#e0e3e1;stroke:#000000;stroke-linejoin:miter;stroke-width:0.1;"/>
    </g>
    <g id="patch_95">
     <path d="M 167.575372 83.836866 
C 167.573684 83.779132 167.571532 83.721411 167.568918 83.663711 
C 167.566303 83.606011 167.563225 83.548332 167.559685 83.490681 
L 156.784941 84.152378 
L 167.575372 83.836866 
z
" style="fill:#e0e3e1;stroke:#000000;stroke-linejoin:miter;stroke-width:0.1;"/>
    </g>
    <g id="patch_96">
     <path d="M 167.559685 83.490681 
C 167.459195 81.854351 166.987255 80.26221 166.179787 78.835441 
C 165.372318 77.408672 164.25034 76.184415 162.89925 75.255852 
C 161.548159 74.327289 160.003126 73.718591 158.381748 73.476089 
C 156.760369 73.233586 155.104852 73.363591 153.541201 73.856209 
L 156.784941 84.152378 
L 167.559685 83.490681 
z
" style="fill:#44aaaa;stroke:#000000;stroke-linejoin:miter;stroke-width:0.1;"/>
    </g>
    <g id="patch_97">
     <path d="M 153.541201 73.856209 
C 153.540068 73.856566 153.538935 73.856923 153.537802 73.857281 
C 153.536669 73.857638 153.535536 73.857996 153.534403 73.858353 
L 156.784941 84.152378 
L 153.541201 73.856209 
z
" style="fill:#77aadd;stroke:#000000;stroke-linejoin:miter;stroke-width:0.1;"/>
    </g>
    <g id="patch_98">
     <path d="M 153.534403 73.858353 
C 151.743081 74.423998 150.130048 75.447544 148.855389 76.827411 
C 147.58073 78.207277 146.688053 79.896256 146.265951 81.726725 
L 156.784941 84.152378 
L 153.534403 73.858353 
z
" style="fill:#117777;stroke:#000000;stroke-linejoin:miter;stroke-width:0.1;"/>
    </g>
    <g id="patch_99">
     <path d="M 146.265951 81.726725 
C 146.265708 81.72778 146.265465 81.728834 146.265222 81.729889 
C 146.264979 81.730943 146.264737 81.731998 146.264494 81.733052 
L 156.784941 84.152378 
L 146.265951 81.726725 
z
" style="fill:#525fb7;stroke:#000000;stroke-linejoin:miter;stroke-width:0.1;"/>
    </g>
    <g id="patch_100">
     <path d="M 146.264494 81.733052 
C 146.264494 81.733052 146.264494 81.733052 146.264494 81.733052 
L 156.784941 84.152378 
L 146.264494 81.733052 
z
" style="fill:#a3604b;stroke:#000000;stroke-linejoin:miter;stroke-width:0.1;"/>
    </g>
    <g id="patch_101">
     <path d="M 146.264494 81.733052 
C 146.05583 82.640429 145.96543 83.571001 145.995548 84.501574 
C 146.025666 85.432147 146.176049 86.354926 146.442949 87.246912 
L 156.784941 84.152378 
L 146.264494 81.733052 
z
" style="fill:#a3604b;stroke:#000000;stroke-linejoin:miter;stroke-width:0.1;"/>
    </g>
    <g id="patch_102">
     <path d="M 146.442949 87.246912 
C 146.487435 87.395584 146.535121 87.54328 146.585975 87.689897 
C 146.636829 87.836513 146.690839 87.982016 146.747967 88.126304 
L 156.784941 84.152378 
L 146.442949 87.246912 
z
" style="fill:#f53f06;stroke:#000000;stroke-linejoin:miter;stroke-width:0.1;"/>
    </g>
    <g id="patch_103">
     <path d="M 146.747967 88.126304 
C 147.337715 89.615836 148.251715 90.955575 149.423468 92.048051 
C 150.595221 93.140527 151.995606 93.958586 153.522737 94.442712 
L 156.784941 84.152378 
L 146.747967 88.126304 
z
" style="fill:#f53f06;stroke:#000000;stroke-linejoin:miter;stroke-width:0.1;"/>
    </g>
    <g id="patch_104">
     <path d="M 153.522737 94.442712 
C 153.522737 94.442712 153.522737 94.442712 153.522737 94.442712 
L 156.784941 84.152378 
L 153.522737 94.442712 
z
" style="fill:#dd7790;stroke:#000000;stroke-linejoin:miter;stroke-width:0.1;"/>
    </g>
    <g id="patch_105">
     <path d="M 153.522737 94.442712 
C 155.882641 95.19084 158.42956 95.104867 160.733643 94.199303 
C 163.037725 93.293739 164.96162 91.622566 166.180624 89.467834 
L 156.784941 84.152378 
L 153.522737 94.442712 
z
" style="fill:#771124;stroke:#000000;stroke-linejoin:miter;stroke-width:0.1;"/>
    </g>
    <g id="patch_106">
     <path d="M 166.180624 89.467834 
C 166.180624 89.467834 166.180624 89.467834 166.180624 89.467834 
L 156.784941 84.152378 
L 166.180624 89.467834 
z
" style="fill:#eeb29f;stroke:#000000;stroke-linejoin:miter;stroke-width:0.1;"/>
    </g>
    <g id="patch_107">
     <path d="M 166.180624 89.467834 
C 166.180624 89.467834 166.180624 89.467834 166.180624 89.467834 
L 156.784941 84.152378 
L 166.180624 89.467834 
z
" style="fill:#eeb29f;stroke:#000000;stroke-linejoin:miter;stroke-width:0.1;"/>
    </g>
    <g id="patch_108">
     <path d="M 166.180624 89.467834 
C 166.180844 89.467447 166.181063 89.467059 166.181282 89.466672 
C 166.181501 89.466284 166.181721 89.465896 166.18194 89.465509 
L 156.784941 84.152378 
L 166.180624 89.467834 
z
" style="fill:#ff0240;stroke:#000000;stroke-linejoin:miter;stroke-width:0.1;"/>
    </g>
    <g id="patch_109">
     <path d="M 166.18194 89.465509 
C 166.18194 89.465509 166.18194 89.465509 166.18194 89.465509 
L 156.784941 84.152378 
L 166.18194 89.465509 
z
" style="fill:#d0d1df;stroke:#000000;stroke-linejoin:miter;stroke-width:0.1;"/>
    </g>
    <g id="patch_110">
     <path d="M 166.18194 89.465509 
C 166.182019 89.465368 166.182099 89.465227 166.182179 89.465086 
C 166.182259 89.464945 166.182338 89.464804 166.182418 89.464663 
L 156.784941 84.152378 
L 166.18194 89.465509 
z
" style="fill:#6ef1c9;stroke:#000000;stroke-linejoin:miter;stroke-width:0.1;"/>
    </g>
    <g id="patch_111">
     <path d="M 166.182418 89.464663 
C 166.492422 88.916263 166.753828 88.341778 166.963642 87.74779 
C 167.173456 87.153801 167.330874 86.542584 167.434092 85.921142 
L 156.784941 84.152378 
L 166.182418 89.464663 
z
" style="fill:#6ef1c9;stroke:#000000;stroke-linejoin:miter;stroke-width:0.1;"/>
    </g>
    <g id="patch_112">
     <path d="M 167.434092 85.921142 
C 167.46032 85.763229 167.483033 85.604753 167.502213 85.445831 
C 167.521393 85.286908 167.537036 85.127579 167.54913 84.967961 
L 156.784941 84.152378 
L 167.434092 85.921142 
z
" style="fill:#6ef1c9;stroke:#000000;stroke-linejoin:miter;stroke-width:0.1;"/>
    </g>
    <g id="patch_113">
     <path d="M 167.54913 84.967961 
C 167.550929 84.944217 167.55265 84.920467 167.554292 84.896712 
C 167.555933 84.872957 167.557497 84.849197 167.558981 84.825431 
L 156.784941 84.152378 
L 167.54913 84.967961 
z
" style="fill:#689285;stroke:#000000;stroke-linejoin:miter;stroke-width:0.1;"/>
    </g>
    <g id="patch_114">
     <path d="M 167.558981 84.825431 
C 167.558981 84.825431 167.558981 84.825431 167.558981 84.825431 
L 156.784941 84.152378 
L 167.558981 84.825431 
z
" style="fill:#428317;stroke:#000000;stroke-linejoin:miter;stroke-width:0.1;"/>
    </g>
    <g id="patch_115">
     <path d="M 167.558981 84.825431 
C 167.56598 84.713398 167.571231 84.601263 167.574732 84.489067 
C 167.578233 84.37687 167.579984 84.264626 167.579984 84.152375 
L 156.784941 84.152378 
L 167.558981 84.825431 
z
" style="fill:#428317;stroke:#000000;stroke-linejoin:miter;stroke-width:0.1;"/>
    </g>
    <g id="patch_116">
     <path d="M 167.579984 84.152375 
C 167.579984 84.152375 167.579984 84.152375 167.579984 84.152375 
L 156.784941 84.152378 
L 167.579984 84.152375 
z
" style="fill:#106832;stroke:#000000;stroke-linejoin:miter;stroke-width:0.1;"/>
    </g>
    <g id="patch_117">
     <path d="M 167.579984 84.152375 
C 167.579984 84.152375 167.579984 84.152375 167.579984 84.152375 
L 156.784941 84.152378 
L 167.579984 84.152375 
z
" style="fill:#56a45e;stroke:#000000;stroke-linejoin:miter;stroke-width:0.1;"/>
    </g>
    <g id="patch_118">
     <path d="M 167.579984 84.152375 
C 167.579984 84.152375 167.579984 84.152375 167.579984 84.152375 
L 156.784941 84.152378 
L 167.579984 84.152375 
z
" style="fill:#7ac890;stroke:#000000;stroke-linejoin:miter;stroke-width:0.1;"/>
    </g>
    <g id="patch_119">
     <path d="M 167.579984 84.152375 
C 167.579984 84.152375 167.579984 84.152375 167.579984 84.152375 
L 156.784941 84.152378 
L 167.579984 84.152375 
z
" style="fill:#51a778;stroke:#000000;stroke-linejoin:miter;stroke-width:0.1;"/>
    </g>
    <g id="patch_120">
     <path d="M 167.579984 84.152375 
C 167.579984 84.152375 167.579984 84.152375 167.579984 84.152375 
L 156.784941 84.152378 
L 167.579984 84.152375 
z
" style="fill:#34be72;stroke:#000000;stroke-linejoin:miter;stroke-width:0.1;"/>
    </g>
    <g id="patch_121">
     <path d="M 167.579984 84.152375 
C 167.579984 84.152375 167.579984 84.152375 167.579984 84.152375 
L 156.784941 84.152378 
L 167.579984 84.152375 
z
" style="fill:#0ec460;stroke:#000000;stroke-linejoin:miter;stroke-width:0.1;"/>
    </g>
    <g id="patch_122">
     <path d="M 167.579984 84.152375 
C 167.579984 84.152375 167.579984 84.152375 167.579984 84.152375 
L 156.784941 84.152378 
L 167.579984 84.152375 
z
" style="fill:#069848;stroke:#000000;stroke-linejoin:miter;stroke-width:0.1;"/>
    </g>
    <g id="matplotlib.axis_9"/>
    <g id="matplotlib.axis_10"/>
   </g>
   <g id="axes_6">
    <g id="patch_123">
     <path d="M 167.579984 27.336365 
C 167.579984 27.336365 167.579984 27.336365 167.579984 27.336365 
L 156.784941 27.336365 
L 167.579984 27.336365 
z
" style="fill:#e0e3e1;stroke:#000000;stroke-linejoin:miter;stroke-width:0.1;"/>
    </g>
    <g id="patch_124">
     <path d="M 167.579984 27.336365 
C 167.579984 27.336365 167.579984 27.336365 167.579984 27.336365 
L 156.784941 27.336365 
L 167.579984 27.336365 
z
" style="fill:#e0e3e1;stroke:#000000;stroke-linejoin:miter;stroke-width:0.1;"/>
    </g>
    <g id="patch_125">
     <path d="M 167.579984 27.336365 
C 167.579984 25.882493 167.286273 24.443493 166.716518 23.105913 
C 166.146762 21.768332 165.312618 20.559536 164.264253 19.552225 
C 163.215889 18.544915 161.974752 17.759698 160.615489 17.243801 
C 159.256227 16.727905 157.806648 16.491883 156.353936 16.54993 
L 156.784941 27.336365 
L 167.579984 27.336365 
z
" style="fill:#44aaaa;stroke:#000000;stroke-linejoin:miter;stroke-width:0.1;"/>
    </g>
    <g id="patch_126">
     <path d="M 156.353936 16.54993 
C 154.497111 16.624126 152.690526 17.176542 151.109746 18.153495 
C 149.528966 19.130449 148.226912 20.499232 147.330119 22.126827 
L 156.784941 27.336365 
L 156.353936 16.54993 
z
" style="fill:#77aadd;stroke:#000000;stroke-linejoin:miter;stroke-width:0.1;"/>
    </g>
    <g id="patch_127">
     <path d="M 147.330119 22.126827 
C 146.629573 23.398254 146.19263 24.798022 146.045493 26.242197 
C 145.898356 27.686372 146.044026 29.145499 146.473766 30.532082 
L 156.784941 27.336365 
L 147.330119 22.126827 
z
" style="fill:#117777;stroke:#000000;stroke-linejoin:miter;stroke-width:0.1;"/>
    </g>
    <g id="patch_128">
     <path d="M 146.473766 30.532082 
C 146.473766 30.532082 146.473766 30.532082 146.473766 30.532082 
L 156.784941 27.336365 
L 146.473766 30.532082 
z
" style="fill:#525fb7;stroke:#000000;stroke-linejoin:miter;stroke-width:0.1;"/>
    </g>
    <g id="patch_129">
     <path d="M 146.473766 30.532082 
C 146.473766 30.532082 146.473766 30.532082 146.473766 30.532082 
L 156.784941 27.336365 
L 146.473766 30.532082 
z
" style="fill:#a3604b;stroke:#000000;stroke-linejoin:miter;stroke-width:0.1;"/>
    </g>
    <g id="patch_130">
     <path d="M 146.473766 30.532082 
C 146.590211 30.907798 146.727104 31.276869 146.883833 31.637644 
C 147.040562 31.998418 147.216893 32.350357 147.412036 32.691884 
L 156.784941 27.336365 
L 146.473766 30.532082 
z
" style="fill:#a3604b;stroke:#000000;stroke-linejoin:miter;stroke-width:0.1;"/>
    </g>
    <g id="patch_131">
     <path d="M 147.412036 32.691884 
C 147.412036 32.691884 147.412036 32.691884 147.412036 32.691884 
L 156.784941 27.336365 
L 147.412036 32.691884 
z
" style="fill:#f53f06;stroke:#000000;stroke-linejoin:miter;stroke-width:0.1;"/>
    </g>
    <g id="patch_132">
     <path d="M 147.412036 32.691884 
C 147.412036 32.691884 147.412036 32.691884 147.412036 32.691884 
L 156.784941 27.336365 
L 147.412036 32.691884 
z
" style="fill:#f53f06;stroke:#000000;stroke-linejoin:miter;stroke-width:0.1;"/>
    </g>
    <g id="patch_133">
     <path d="M 147.412036 32.691884 
C 147.544999 32.924588 147.686582 33.152259 147.83649 33.374425 
C 147.986399 33.596591 148.144529 33.813097 148.310552 34.023493 
L 156.784941 27.336365 
L 147.412036 32.691884 
z
" style="fill:#dd7790;stroke:#000000;stroke-linejoin:miter;stroke-width:0.1;"/>
    </g>
    <g id="patch_134">
     <path d="M 148.310552 34.023493 
C 149.225488 35.182962 150.368723 36.142417 151.669334 36.842337 
C 152.969945 37.542257 154.40047 37.967861 155.872163 38.092748 
L 156.784941 27.336365 
L 148.310552 34.023493 
z
" style="fill:#771124;stroke:#000000;stroke-linejoin:miter;stroke-width:0.1;"/>
    </g>
    <g id="patch_135">
     <path d="M 155.872163 38.092748 
C 157.750303 38.252126 159.637839 37.916853 161.346205 37.120424 
C 163.054571 36.323995 164.52492 35.093845 165.610364 33.552863 
L 156.784941 27.336365 
L 155.872163 38.092748 
z
" style="fill:#eeb29f;stroke:#000000;stroke-linejoin:miter;stroke-width:0.1;"/>
    </g>
    <g id="patch_136">
     <path d="M 165.610364 33.552863 
C 165.610364 33.552863 165.610364 33.552863 165.610364 33.552863 
L 156.784941 27.336365 
L 165.610364 33.552863 
z
" style="fill:#eeb29f;stroke:#000000;stroke-linejoin:miter;stroke-width:0.1;"/>
    </g>
    <g id="patch_137">
     <path d="M 165.610364 33.552863 
C 165.610364 33.552863 165.610364 33.552863 165.610364 33.552863 
L 156.784941 27.336365 
L 165.610364 33.552863 
z
" style="fill:#ff0240;stroke:#000000;stroke-linejoin:miter;stroke-width:0.1;"/>
    </g>
    <g id="patch_138">
     <path d="M 165.610364 33.552863 
C 165.610364 33.552863 165.610364 33.552863 165.610364 33.552863 
L 156.784941 27.336365 
L 165.610364 33.552863 
z
" style="fill:#d0d1df;stroke:#000000;stroke-linejoin:miter;stroke-width:0.1;"/>
    </g>
    <g id="patch_139">
     <path d="M 165.610364 33.552863 
C 165.610364 33.552863 165.610364 33.552863 165.610364 33.552863 
L 156.784941 27.336365 
L 165.610364 33.552863 
z
" style="fill:#6ef1c9;stroke:#000000;stroke-linejoin:miter;stroke-width:0.1;"/>
    </g>
    <g id="patch_140">
     <path d="M 165.610364 33.552863 
C 165.970129 33.042113 166.284878 32.501095 166.551065 31.935904 
C 166.817253 31.370713 167.033874 30.78348 167.19849 30.180822 
L 156.784941 27.336365 
L 165.610364 33.552863 
z
" style="fill:#6ef1c9;stroke:#000000;stroke-linejoin:miter;stroke-width:0.1;"/>
    </g>
    <g id="patch_141">
     <path d="M 167.19849 30.180822 
C 167.22618 30.07945 167.252388 29.977679 167.277106 29.875542 
C 167.301824 29.773405 167.325049 29.670913 167.346774 29.568098 
L 156.784941 27.336365 
L 167.19849 30.180822 
z
" style="fill:#6ef1c9;stroke:#000000;stroke-linejoin:miter;stroke-width:0.1;"/>
    </g>
    <g id="patch_142">
     <path d="M 167.346774 29.568098 
C 167.364524 29.484092 167.381272 29.399878 167.397013 29.315473 
C 167.412754 29.231068 167.427488 29.146478 167.441211 29.061721 
L 156.784941 27.336365 
L 167.346774 29.568098 
z
" style="fill:#689285;stroke:#000000;stroke-linejoin:miter;stroke-width:0.1;"/>
    </g>
    <g id="patch_143">
     <path d="M 167.441211 29.061721 
C 167.441211 29.061721 167.441211 29.061721 167.441211 29.061721 
L 156.784941 27.336365 
L 167.441211 29.061721 
z
" style="fill:#428317;stroke:#000000;stroke-linejoin:miter;stroke-width:0.1;"/>
    </g>
    <g id="patch_144">
     <path d="M 167.441211 29.061721 
C 167.487375 28.776597 167.522078 28.489735 167.545235 28.201828 
C 167.568391 27.91392 167.579984 27.6252 167.579984 27.336363 
L 156.784941 27.336365 
L 167.441211 29.061721 
z
" style="fill:#428317;stroke:#000000;stroke-linejoin:miter;stroke-width:0.1;"/>
    </g>
    <g id="patch_145">
     <path d="M 167.579984 27.336363 
C 167.579984 27.336363 167.579984 27.336363 167.579984 27.336363 
L 156.784941 27.336365 
L 167.579984 27.336363 
z
" style="fill:#106832;stroke:#000000;stroke-linejoin:miter;stroke-width:0.1;"/>
    </g>
    <g id="patch_146">
     <path d="M 167.579984 27.336363 
C 167.579984 27.336363 167.579984 27.336363 167.579984 27.336363 
L 156.784941 27.336365 
L 167.579984 27.336363 
z
" style="fill:#56a45e;stroke:#000000;stroke-linejoin:miter;stroke-width:0.1;"/>
    </g>
    <g id="patch_147">
     <path d="M 167.579984 27.336363 
C 167.579984 27.336363 167.579984 27.336363 167.579984 27.336363 
L 156.784941 27.336365 
L 167.579984 27.336363 
z
" style="fill:#7ac890;stroke:#000000;stroke-linejoin:miter;stroke-width:0.1;"/>
    </g>
    <g id="patch_148">
     <path d="M 167.579984 27.336363 
C 167.579984 27.336363 167.579984 27.336363 167.579984 27.336363 
L 156.784941 27.336365 
L 167.579984 27.336363 
z
" style="fill:#51a778;stroke:#000000;stroke-linejoin:miter;stroke-width:0.1;"/>
    </g>
    <g id="patch_149">
     <path d="M 167.579984 27.336363 
C 167.579984 27.336363 167.579984 27.336363 167.579984 27.336363 
L 156.784941 27.336365 
L 167.579984 27.336363 
z
" style="fill:#34be72;stroke:#000000;stroke-linejoin:miter;stroke-width:0.1;"/>
    </g>
    <g id="patch_150">
     <path d="M 167.579984 27.336363 
C 167.579984 27.336363 167.579984 27.336363 167.579984 27.336363 
L 156.784941 27.336365 
L 167.579984 27.336363 
z
" style="fill:#0ec460;stroke:#000000;stroke-linejoin:miter;stroke-width:0.1;"/>
    </g>
    <g id="patch_151">
     <path d="M 167.579984 27.336363 
C 167.579984 27.336363 167.579984 27.336363 167.579984 27.336363 
L 156.784941 27.336365 
L 167.579984 27.336363 
z
" style="fill:#069848;stroke:#000000;stroke-linejoin:miter;stroke-width:0.1;"/>
    </g>
    <g id="matplotlib.axis_11"/>
    <g id="matplotlib.axis_12"/>
   </g>
   <g id="axes_7">
    <g id="patch_152">
     <path d="M 98.008219 115.223635 
C 98.008219 115.218051 98.008215 115.212466 98.008206 115.206882 
C 98.008197 115.201298 98.008184 115.195714 98.008167 115.19013 
L 87.213176 115.223635 
L 98.008219 115.223635 
z
" style="fill:#e0e3e1;stroke:#000000;stroke-linejoin:miter;stroke-width:0.1;"/>
    </g>
    <g id="patch_153">
     <path d="M 98.008167 115.19013 
C 98.007166 114.867536 97.991704 114.545149 97.96183 114.22394 
C 97.931955 113.902732 97.887698 113.583023 97.82919 113.265778 
L 87.213176 115.223635 
L 98.008167 115.19013 
z
" style="fill:#e0e3e1;stroke:#000000;stroke-linejoin:miter;stroke-width:0.1;"/>
    </g>
    <g id="patch_154">
     <path d="M 97.82919 113.265778 
C 97.566693 111.84245 97.02061 110.486342 96.223497 109.278295 
C 95.426384 108.070248 94.3944 107.034756 93.189066 106.233546 
C 91.983731 105.432337 90.629484 104.881655 89.207056 104.614328 
C 87.784627 104.347002 86.322856 104.36845 84.908883 104.677395 
C 83.49491 104.98634 82.157402 105.576518 80.976094 106.412747 
C 79.794786 107.248975 78.793628 108.3143 78.032301 109.545214 
C 77.270974 110.776127 76.764915 112.147674 76.544291 113.57809 
C 76.323666 115.008507 76.392951 116.468793 76.748013 117.871896 
L 87.213176 115.223635 
L 97.82919 113.265778 
z
" style="fill:#44aaaa;stroke:#000000;stroke-linejoin:miter;stroke-width:0.1;"/>
    </g>
    <g id="patch_155">
     <path d="M 76.748013 117.871896 
C 76.749941 117.879518 76.751878 117.887138 76.753824 117.894755 
C 76.755769 117.902373 76.757723 117.909989 76.759685 117.917602 
L 87.213176 115.223635 
L 76.748013 117.871896 
z
" style="fill:#77aadd;stroke:#000000;stroke-linejoin:miter;stroke-width:0.1;"/>
    </g>
    <g id="patch_156">
     <path d="M 76.759685 117.917602 
C 76.867868 118.33739 77.00124 118.75028 77.159076 119.154029 
C 77.316911 119.557779 77.498924 119.951654 77.704125 120.333515 
L 87.213176 115.223635 
L 76.759685 117.917602 
z
" style="fill:#117777;stroke:#000000;stroke-linejoin:miter;stroke-width:0.1;"/>
    </g>
    <g id="patch_157">
     <path d="M 77.704125 120.333515 
C 77.733724 120.388598 77.763802 120.443422 77.794354 120.497981 
C 77.824906 120.552541 77.855932 120.606834 77.887428 120.660854 
L 87.213176 115.223635 
L 77.704125 120.333515 
z
" style="fill:#525fb7;stroke:#000000;stroke-linejoin:miter;stroke-width:0.1;"/>
    </g>
    <g id="patch_158">
     <path d="M 77.887428 120.660854 
C 78.061668 120.959705 78.250173 121.250009 78.45229 121.530759 
C 78.654407 121.811509 78.869903 122.082381 79.098031 122.342438 
L 87.213176 115.223635 
L 77.887428 120.660854 
z
" style="fill:#a3604b;stroke:#000000;stroke-linejoin:miter;stroke-width:0.1;"/>
    </g>
    <g id="patch_159">
     <path d="M 79.098031 122.342438 
C 79.176961 122.432415 79.257383 122.521074 79.339262 122.608377 
C 79.421141 122.69568 79.504467 122.781615 79.589204 122.866147 
L 87.213176 115.223635 
L 79.098031 122.342438 
z
" style="fill:#a3604b;stroke:#000000;stroke-linejoin:miter;stroke-width:0.1;"/>
    </g>
    <g id="patch_160">
     <path d="M 79.589204 122.866147 
C 79.848167 123.124481 80.120092 123.369486 80.403928 123.600214 
C 80.687765 123.830942 80.983145 124.047095 81.288925 124.247835 
L 87.213176 115.223635 
L 79.589204 122.866147 
z
" style="fill:#f53f06;stroke:#000000;stroke-linejoin:miter;stroke-width:0.1;"/>
    </g>
    <g id="patch_161">
     <path d="M 81.288925 124.247835 
C 81.288925 124.247835 81.288925 124.247835 81.288925 124.247835 
L 87.213176 115.223635 
L 81.288925 124.247835 
z
" style="fill:#f53f06;stroke:#000000;stroke-linejoin:miter;stroke-width:0.1;"/>
    </g>
    <g id="patch_162">
     <path d="M 81.288925 124.247835 
C 81.288925 124.247835 81.288925 124.247835 81.288925 124.247835 
L 87.213176 115.223635 
L 81.288925 124.247835 
z
" style="fill:#dd7790;stroke:#000000;stroke-linejoin:miter;stroke-width:0.1;"/>
    </g>
    <g id="patch_163">
     <path d="M 81.288925 124.247835 
C 82.675306 125.157973 84.252956 125.736505 85.899056 125.938392 
C 87.545157 126.14028 89.215854 125.960144 90.781086 125.412009 
L 87.213176 115.223635 
L 81.288925 124.247835 
z
" style="fill:#771124;stroke:#000000;stroke-linejoin:miter;stroke-width:0.1;"/>
    </g>
    <g id="patch_164">
     <path d="M 90.781086 125.412009 
C 91.690607 125.0935 92.553397 124.65463 93.346429 124.107112 
C 94.139461 123.559593 94.855619 122.90834 95.475789 122.170733 
L 87.213176 115.223635 
L 90.781086 125.412009 
z
" style="fill:#eeb29f;stroke:#000000;stroke-linejoin:miter;stroke-width:0.1;"/>
    </g>
    <g id="patch_165">
     <path d="M 95.475789 122.170733 
C 95.475789 122.170733 95.475789 122.170733 95.475789 122.170733 
L 87.213176 115.223635 
L 95.475789 122.170733 
z
" style="fill:#eeb29f;stroke:#000000;stroke-linejoin:miter;stroke-width:0.1;"/>
    </g>
    <g id="patch_166">
     <path d="M 95.475789 122.170733 
C 95.476676 122.169679 95.477562 122.168624 95.478448 122.16757 
C 95.479334 122.166515 95.48022 122.16546 95.481105 122.164405 
L 87.213176 115.223635 
L 95.475789 122.170733 
z
" style="fill:#ff0240;stroke:#000000;stroke-linejoin:miter;stroke-width:0.1;"/>
    </g>
    <g id="patch_167">
     <path d="M 95.481105 122.164405 
C 95.481105 122.164405 95.481105 122.164405 95.481105 122.164405 
L 87.213176 115.223635 
L 95.481105 122.164405 
z
" style="fill:#d0d1df;stroke:#000000;stroke-linejoin:miter;stroke-width:0.1;"/>
    </g>
    <g id="patch_168">
     <path d="M 95.481105 122.164405 
C 95.483678 122.161341 95.486248 122.158275 95.488817 122.155209 
C 95.491386 122.152142 95.493953 122.149073 95.496519 122.146003 
L 87.213176 115.223635 
L 95.481105 122.164405 
z
" style="fill:#6ef1c9;stroke:#000000;stroke-linejoin:miter;stroke-width:0.1;"/>
    </g>
    <g id="patch_169">
     <path d="M 95.496519 122.146003 
C 95.496879 122.145572 95.497239 122.145142 95.497599 122.144711 
C 95.497959 122.14428 95.498319 122.143849 95.498679 122.143418 
L 87.213176 115.223635 
L 95.496519 122.146003 
z
" style="fill:#6ef1c9;stroke:#000000;stroke-linejoin:miter;stroke-width:0.1;"/>
    </g>
    <g id="patch_170">
     <path d="M 95.498679 122.143418 
C 95.498679 122.143418 95.498679 122.143418 95.498679 122.143418 
L 87.213176 115.223635 
L 95.498679 122.143418 
z
" style="fill:#6ef1c9;stroke:#000000;stroke-linejoin:miter;stroke-width:0.1;"/>
    </g>
    <g id="patch_171">
     <path d="M 95.498679 122.143418 
C 95.592889 122.030613 95.684786 121.915897 95.774313 121.799339 
C 95.863839 121.682782 95.950975 121.564409 96.035667 121.444294 
L 87.213176 115.223635 
L 95.498679 122.143418 
z
" style="fill:#689285;stroke:#000000;stroke-linejoin:miter;stroke-width:0.1;"/>
    </g>
    <g id="patch_172">
     <path d="M 96.035667 121.444294 
C 96.065308 121.402255 96.094648 121.360006 96.123685 121.317548 
C 96.152722 121.27509 96.181455 121.232426 96.209882 121.189557 
L 87.213176 115.223635 
L 96.035667 121.444294 
z
" style="fill:#428317;stroke:#000000;stroke-linejoin:miter;stroke-width:0.1;"/>
    </g>
    <g id="patch_173">
     <path d="M 96.209882 121.189557 
C 96.380592 120.932124 96.540174 120.667482 96.688187 120.396363 
C 96.8362 120.125243 96.972509 119.847896 97.096736 119.565086 
L 87.213176 115.223635 
L 96.209882 121.189557 
z
" style="fill:#428317;stroke:#000000;stroke-linejoin:miter;stroke-width:0.1;"/>
    </g>
    <g id="patch_174">
     <path d="M 97.096736 119.565086 
C 97.098836 119.560306 97.100932 119.555524 97.103025 119.55074 
C 97.105118 119.545957 97.107207 119.541172 97.109293 119.536385 
L 87.213176 115.223635 
L 97.096736 119.565086 
z
" style="fill:#106832;stroke:#000000;stroke-linejoin:miter;stroke-width:0.1;"/>
    </g>
    <g id="patch_175">
     <path d="M 97.109293 119.536385 
C 97.109293 119.536385 97.109293 119.536385 97.109293 119.536385 
L 87.213176 115.223635 
L 97.109293 119.536385 
z
" style="fill:#56a45e;stroke:#000000;stroke-linejoin:miter;stroke-width:0.1;"/>
    </g>
    <g id="patch_176">
     <path d="M 97.109293 119.536385 
C 97.109293 119.536385 97.109293 119.536385 97.109293 119.536385 
L 87.213176 115.223635 
L 97.109293 119.536385 
z
" style="fill:#7ac890;stroke:#000000;stroke-linejoin:miter;stroke-width:0.1;"/>
    </g>
    <g id="patch_177">
     <path d="M 97.109293 119.536385 
C 97.403435 118.861443 97.627757 118.158176 97.778753 117.437574 
C 97.92975 116.716973 98.006631 115.982811 98.008195 115.246561 
L 87.213176 115.223635 
L 97.109293 119.536385 
z
" style="fill:#51a778;stroke:#000000;stroke-linejoin:miter;stroke-width:0.1;"/>
    </g>
    <g id="patch_178">
     <path d="M 98.008195 115.246561 
C 98.008202 115.242962 98.008208 115.239363 98.008212 115.235764 
C 98.008216 115.232165 98.008218 115.228566 98.008219 115.224968 
L 87.213176 115.223635 
L 98.008195 115.246561 
z
" style="fill:#34be72;stroke:#000000;stroke-linejoin:miter;stroke-width:0.1;"/>
    </g>
    <g id="patch_179">
     <path d="M 98.008219 115.224968 
C 98.008219 115.224968 98.008219 115.224968 98.008219 115.224968 
L 87.213176 115.223635 
L 98.008219 115.224968 
z
" style="fill:#0ec460;stroke:#000000;stroke-linejoin:miter;stroke-width:0.1;"/>
    </g>
    <g id="patch_180">
     <path d="M 98.008219 115.224968 
C 98.008219 115.224746 98.008219 115.224525 98.008219 115.224304 
C 98.008219 115.224083 98.008219 115.223862 98.008219 115.223641 
L 87.213176 115.223635 
L 98.008219 115.224968 
z
" style="fill:#069848;stroke:#000000;stroke-linejoin:miter;stroke-width:0.1;"/>
    </g>
    <g id="matplotlib.axis_13"/>
    <g id="matplotlib.axis_14"/>
   </g>
   <g id="axes_8">
    <g id="patch_181">
     <path d="M 213.96116 93.02988 
C 213.96116 92.960809 213.960497 92.89174 213.959171 92.822681 
C 213.957846 92.753623 213.955857 92.684579 213.953206 92.615559 
L 203.166118 93.02988 
L 213.96116 93.02988 
z
" style="fill:#e0e3e1;stroke:#000000;stroke-linejoin:miter;stroke-width:0.1;"/>
    </g>
    <g id="patch_182">
     <path d="M 213.953206 92.615559 
C 213.92322 91.834841 213.808564 91.05968 213.611257 90.30371 
C 213.41395 89.54774 213.135154 88.81542 212.779773 88.119629 
L 203.166118 93.02988 
L 213.953206 92.615559 
z
" style="fill:#e0e3e1;stroke:#000000;stroke-linejoin:miter;stroke-width:0.1;"/>
    </g>
    <g id="patch_183">
     <path d="M 212.779773 88.119629 
C 211.597553 85.804989 209.618271 83.993406 207.20828 83.020191 
C 204.798289 82.046977 202.116056 81.976124 199.658046 82.820748 
C 197.200036 83.665372 195.127873 85.369934 193.825102 87.618931 
C 192.52233 89.867929 192.074613 92.51348 192.56482 95.06591 
L 203.166118 93.02988 
L 212.779773 88.119629 
z
" style="fill:#44aaaa;stroke:#000000;stroke-linejoin:miter;stroke-width:0.1;"/>
    </g>
    <g id="patch_184">
     <path d="M 192.56482 95.06591 
C 192.570823 95.097171 192.576966 95.128406 192.583246 95.159613 
C 192.589526 95.19082 192.595944 95.221999 192.6025 95.253149 
L 203.166118 93.02988 
L 192.56482 95.06591 
z
" style="fill:#77aadd;stroke:#000000;stroke-linejoin:miter;stroke-width:0.1;"/>
    </g>
    <g id="patch_185">
     <path d="M 192.6025 95.253149 
C 192.628124 95.374899 192.655851 95.496197 192.685669 95.616988 
C 192.715486 95.73778 192.74739 95.858047 192.781365 95.977735 
L 203.166118 93.02988 
L 192.6025 95.253149 
z
" style="fill:#117777;stroke:#000000;stroke-linejoin:miter;stroke-width:0.1;"/>
    </g>
    <g id="patch_186">
     <path d="M 192.781365 95.977735 
C 192.781716 95.978974 192.782068 95.980212 192.78242 95.981451 
C 192.782772 95.98269 192.783125 95.983928 192.783477 95.985166 
L 203.166118 93.02988 
L 192.781365 95.977735 
z
" style="fill:#525fb7;stroke:#000000;stroke-linejoin:miter;stroke-width:0.1;"/>
    </g>
    <g id="patch_187">
     <path d="M 192.783477 95.985166 
C 192.853026 96.229509 192.931179 96.47132 193.017789 96.710148 
C 193.1044 96.948976 193.199414 97.184672 193.302654 97.416796 
L 203.166118 93.02988 
L 192.783477 95.985166 
z
" style="fill:#a3604b;stroke:#000000;stroke-linejoin:miter;stroke-width:0.1;"/>
    </g>
    <g id="patch_188">
     <path d="M 193.302654 97.416796 
C 193.368328 97.564455 193.437309 97.710621 193.509545 97.855183 
C 193.581782 97.999745 193.657255 98.142667 193.735909 98.283841 
L 203.166118 93.02988 
L 193.302654 97.416796 
z
" style="fill:#a3604b;stroke:#000000;stroke-linejoin:miter;stroke-width:0.1;"/>
    </g>
    <g id="patch_189">
     <path d="M 193.735909 98.283841 
C 194.294889 99.287141 195.010419 100.194836 195.855466 100.972632 
C 196.700512 101.750428 197.664297 102.388404 198.710406 102.862457 
L 203.166118 93.02988 
L 193.735909 98.283841 
z
" style="fill:#f53f06;stroke:#000000;stroke-linejoin:miter;stroke-width:0.1;"/>
    </g>
    <g id="patch_190">
     <path d="M 198.710406 102.862457 
C 198.710406 102.862457 198.710406 102.862457 198.710406 102.862457 
L 203.166118 93.02988 
L 198.710406 102.862457 
z
" style="fill:#f53f06;stroke:#000000;stroke-linejoin:miter;stroke-width:0.1;"/>
    </g>
    <g id="patch_191">
     <path d="M 198.710406 102.862457 
C 198.710406 102.862457 198.710406 102.862457 198.710406 102.862457 
L 203.166118 93.02988 
L 198.710406 102.862457 
z
" style="fill:#dd7790;stroke:#000000;stroke-linejoin:miter;stroke-width:0.1;"/>
    </g>
    <g id="patch_192">
     <path d="M 198.710406 102.862457 
C 199.190248 103.079901 199.685363 103.261929 200.191783 103.40708 
C 200.698203 103.552231 201.214569 103.660116 201.736741 103.729872 
L 203.166118 93.02988 
L 198.710406 102.862457 
z
" style="fill:#771124;stroke:#000000;stroke-linejoin:miter;stroke-width:0.1;"/>
    </g>
    <g id="patch_193">
     <path d="M 201.736741 103.729872 
C 203.093548 103.911123 204.472529 103.832658 205.800018 103.498667 
C 207.127506 103.164677 208.379434 102.581218 209.488919 101.779458 
L 203.166118 93.02988 
L 201.736741 103.729872 
z
" style="fill:#eeb29f;stroke:#000000;stroke-linejoin:miter;stroke-width:0.1;"/>
    </g>
    <g id="patch_194">
     <path d="M 209.488919 101.779458 
C 209.488919 101.779458 209.488919 101.779458 209.488919 101.779458 
L 203.166118 93.02988 
L 209.488919 101.779458 
z
" style="fill:#eeb29f;stroke:#000000;stroke-linejoin:miter;stroke-width:0.1;"/>
    </g>
    <g id="patch_195">
     <path d="M 209.488919 101.779458 
C 209.496441 101.774023 209.503955 101.768578 209.511462 101.763123 
C 209.51897 101.757669 209.52647 101.752204 209.533963 101.74673 
L 203.166118 93.02988 
L 209.488919 101.779458 
z
" style="fill:#ff0240;stroke:#000000;stroke-linejoin:miter;stroke-width:0.1;"/>
    </g>
    <g id="patch_196">
     <path d="M 209.533963 101.74673 
C 209.533963 101.74673 209.533963 101.74673 209.533963 101.74673 
L 203.166118 93.02988 
L 209.533963 101.74673 
z
" style="fill:#d0d1df;stroke:#000000;stroke-linejoin:miter;stroke-width:0.1;"/>
    </g>
    <g id="patch_197">
     <path d="M 209.533963 101.74673 
C 209.594301 101.702652 209.654179 101.657949 209.713588 101.612628 
C 209.772998 101.567307 209.831935 101.52137 209.89039 101.474825 
L 203.166118 93.02988 
L 209.533963 101.74673 
z
" style="fill:#6ef1c9;stroke:#000000;stroke-linejoin:miter;stroke-width:0.1;"/>
    </g>
    <g id="patch_198">
     <path d="M 209.89039 101.474825 
C 210.173479 101.249416 210.445055 101.009915 210.70409 100.757229 
C 210.963124 100.504543 211.209289 100.238992 211.441651 99.961581 
L 203.166118 93.02988 
L 209.89039 101.474825 
z
" style="fill:#6ef1c9;stroke:#000000;stroke-linejoin:miter;stroke-width:0.1;"/>
    </g>
    <g id="patch_199">
     <path d="M 211.441651 99.961581 
C 211.441651 99.961581 211.441651 99.961581 211.441651 99.961581 
L 203.166118 93.02988 
L 211.441651 99.961581 
z
" style="fill:#6ef1c9;stroke:#000000;stroke-linejoin:miter;stroke-width:0.1;"/>
    </g>
    <g id="patch_200">
     <path d="M 211.441651 99.961581 
C 211.441847 99.961347 211.442043 99.961113 211.442239 99.96088 
C 211.442435 99.960646 211.442631 99.960412 211.442827 99.960178 
L 203.166118 93.02988 
L 211.441651 99.961581 
z
" style="fill:#689285;stroke:#000000;stroke-linejoin:miter;stroke-width:0.1;"/>
    </g>
    <g id="patch_201">
     <path d="M 211.442827 99.960178 
C 211.511297 99.878405 211.578552 99.795622 211.644569 99.711856 
C 211.710586 99.62809 211.775358 99.54335 211.838864 99.457665 
L 203.166118 93.02988 
L 211.442827 99.960178 
z
" style="fill:#428317;stroke:#000000;stroke-linejoin:miter;stroke-width:0.1;"/>
    </g>
    <g id="patch_202">
     <path d="M 211.838864 99.457665 
C 211.956107 99.299474 212.069 99.138104 212.177416 98.973738 
C 212.285832 98.809372 212.38973 98.64207 212.488995 98.472021 
L 203.166118 93.02988 
L 211.838864 99.457665 
z
" style="fill:#428317;stroke:#000000;stroke-linejoin:miter;stroke-width:0.1;"/>
    </g>
    <g id="patch_203">
     <path d="M 212.488995 98.472021 
C 212.542622 98.380154 212.594887 98.2875 212.645775 98.194088 
C 212.696662 98.100676 212.746166 98.006518 212.794271 97.911643 
L 203.166118 93.02988 
L 212.488995 98.472021 
z
" style="fill:#106832;stroke:#000000;stroke-linejoin:miter;stroke-width:0.1;"/>
    </g>
    <g id="patch_204">
     <path d="M 212.794271 97.911643 
C 212.79443 97.911328 212.79459 97.911013 212.794749 97.910699 
C 212.794909 97.910384 212.795069 97.910069 212.795228 97.909754 
L 203.166118 93.02988 
L 212.794271 97.911643 
z
" style="fill:#56a45e;stroke:#000000;stroke-linejoin:miter;stroke-width:0.1;"/>
    </g>
    <g id="patch_205">
     <path d="M 212.795228 97.909754 
C 212.800213 97.899917 212.805184 97.890072 212.810139 97.88022 
C 212.815094 97.870368 212.820034 97.860508 212.824959 97.85064 
L 203.166118 93.02988 
L 212.795228 97.909754 
z
" style="fill:#7ac890;stroke:#000000;stroke-linejoin:miter;stroke-width:0.1;"/>
    </g>
    <g id="patch_206">
     <path d="M 212.824959 97.85064 
C 213.181505 97.136267 213.4577 96.384539 213.648472 95.609258 
C 213.839244 94.833978 213.943418 94.03992 213.959082 93.241667 
L 203.166118 93.02988 
L 212.824959 97.85064 
z
" style="fill:#51a778;stroke:#000000;stroke-linejoin:miter;stroke-width:0.1;"/>
    </g>
    <g id="patch_207">
     <path d="M 213.959082 93.241667 
C 213.959147 93.23838 213.95921 93.235092 213.959271 93.231805 
C 213.959333 93.228517 213.959393 93.22523 213.959451 93.221942 
L 203.166118 93.02988 
L 213.959082 93.241667 
z
" style="fill:#34be72;stroke:#000000;stroke-linejoin:miter;stroke-width:0.1;"/>
    </g>
    <g id="patch_208">
     <path d="M 213.959451 93.221942 
C 213.960006 93.190802 213.960425 93.159659 213.960709 93.128515 
C 213.960994 93.097371 213.961144 93.066226 213.961159 93.035081 
L 203.166118 93.02988 
L 213.959451 93.221942 
z
" style="fill:#0ec460;stroke:#000000;stroke-linejoin:miter;stroke-width:0.1;"/>
    </g>
    <g id="patch_209">
     <path d="M 213.961159 93.035081 
C 213.961159 93.034215 213.96116 93.033348 213.96116 93.032482 
C 213.96116 93.031616 213.96116 93.030749 213.96116 93.029883 
L 203.166118 93.02988 
L 213.961159 93.035081 
z
" style="fill:#069848;stroke:#000000;stroke-linejoin:miter;stroke-width:0.1;"/>
    </g>
    <g id="matplotlib.axis_15"/>
    <g id="matplotlib.axis_16"/>
   </g>
   <g id="axes_9">
    <g id="patch_210">
     <path d="M 213.96116 93.02988 
C 213.96116 92.886994 213.958323 92.744122 213.952651 92.601349 
C 213.946979 92.458576 213.938473 92.315929 213.927137 92.173494 
L 203.166118 93.02988 
L 213.96116 93.02988 
z
" style="fill:#e0e3e1;stroke:#000000;stroke-linejoin:miter;stroke-width:0.1;"/>
    </g>
    <g id="patch_211">
     <path d="M 213.927137 92.173494 
C 213.913783 92.005688 213.896505 91.838218 213.875319 91.671221 
C 213.854132 91.504224 213.829042 91.337745 213.800069 91.171922 
L 203.166118 93.02988 
L 213.927137 92.173494 
z
" style="fill:#e0e3e1;stroke:#000000;stroke-linejoin:miter;stroke-width:0.1;"/>
    </g>
    <g id="patch_212">
     <path d="M 213.800069 91.171922 
C 213.497269 89.438855 212.77534 87.805801 211.69735 86.415425 
C 210.61936 85.025048 209.217641 83.919051 207.614648 83.194052 
C 206.011656 82.469053 204.255467 82.146798 202.499504 82.255439 
C 200.743541 82.364081 199.04047 82.900359 197.539072 83.817427 
L 203.166118 93.02988 
L 213.800069 91.171922 
z
" style="fill:#44aaaa;stroke:#000000;stroke-linejoin:miter;stroke-width:0.1;"/>
    </g>
    <g id="patch_213">
     <path d="M 197.539072 83.817427 
C 197.535436 83.819648 197.5318 83.821871 197.528167 83.824096 
C 197.524533 83.826322 197.520901 83.828549 197.51727 83.830779 
L 203.166118 93.02988 
L 197.539072 83.817427 
z
" style="fill:#77aadd;stroke:#000000;stroke-linejoin:miter;stroke-width:0.1;"/>
    </g>
    <g id="patch_214">
     <path d="M 197.51727 83.830779 
C 197.230365 84.006957 196.95186 84.196461 196.682667 84.398668 
C 196.413474 84.600876 196.153889 84.815567 195.904761 85.042036 
L 203.166118 93.02988 
L 197.51727 83.830779 
z
" style="fill:#117777;stroke:#000000;stroke-linejoin:miter;stroke-width:0.1;"/>
    </g>
    <g id="patch_215">
     <path d="M 195.904761 85.042036 
C 195.498745 85.411126 195.121459 85.810636 194.776186 86.237091 
C 194.430913 86.663545 194.118657 87.115705 193.842133 87.589637 
L 203.166118 93.02988 
L 195.904761 85.042036 
z
" style="fill:#525fb7;stroke:#000000;stroke-linejoin:miter;stroke-width:0.1;"/>
    </g>
    <g id="patch_216">
     <path d="M 193.842133 87.589637 
C 193.781172 87.694117 193.721971 87.799615 193.664556 87.906085 
C 193.607141 88.012556 193.55152 88.119983 193.497716 88.228323 
L 203.166118 93.02988 
L 193.842133 87.589637 
z
" style="fill:#a3604b;stroke:#000000;stroke-linejoin:miter;stroke-width:0.1;"/>
    </g>
    <g id="patch_217">
     <path d="M 193.497716 88.228323 
C 193.443057 88.338383 193.390282 88.449368 193.339414 88.56123 
C 193.288545 88.673092 193.23959 88.785814 193.19257 88.899348 
L 203.166118 93.02988 
L 193.497716 88.228323 
z
" style="fill:#a3604b;stroke:#000000;stroke-linejoin:miter;stroke-width:0.1;"/>
    </g>
    <g id="patch_218">
     <path d="M 193.19257 88.899348 
C 192.944803 89.497605 192.751366 90.116944 192.614601 90.749871 
C 192.477836 91.382797 192.398297 92.026748 192.376945 92.67393 
L 203.166118 93.02988 
L 193.19257 88.899348 
z
" style="fill:#f53f06;stroke:#000000;stroke-linejoin:miter;stroke-width:0.1;"/>
    </g>
    <g id="patch_219">
     <path d="M 192.376945 92.67393 
C 192.376945 92.67393 192.376945 92.67393 192.376945 92.67393 
L 203.166118 93.02988 
L 192.376945 92.67393 
z
" style="fill:#f53f06;stroke:#000000;stroke-linejoin:miter;stroke-width:0.1;"/>
    </g>
    <g id="patch_220">
     <path d="M 192.376945 92.67393 
C 192.376945 92.67393 192.376945 92.67393 192.376945 92.67393 
L 203.166118 93.02988 
L 192.376945 92.67393 
z
" style="fill:#dd7790;stroke:#000000;stroke-linejoin:miter;stroke-width:0.1;"/>
    </g>
    <g id="patch_221">
     <path d="M 192.376945 92.67393 
C 192.339143 93.819753 192.484113 94.964317 192.806396 96.064532 
C 193.12868 97.164747 193.624182 98.20663 194.274247 99.150957 
L 203.166118 93.02988 
L 192.376945 92.67393 
z
" style="fill:#771124;stroke:#000000;stroke-linejoin:miter;stroke-width:0.1;"/>
    </g>
    <g id="patch_222">
     <path d="M 194.274247 99.150957 
C 194.871855 100.01908 195.593388 100.795025 196.41585 101.454061 
C 197.238312 102.113097 198.152872 102.648148 199.130382 103.042161 
L 203.166118 93.02988 
L 194.274247 99.150957 
z
" style="fill:#eeb29f;stroke:#000000;stroke-linejoin:miter;stroke-width:0.1;"/>
    </g>
    <g id="patch_223">
     <path d="M 199.130382 103.042161 
C 199.130382 103.042161 199.130382 103.042161 199.130382 103.042161 
L 203.166118 93.02988 
L 199.130382 103.042161 
z
" style="fill:#eeb29f;stroke:#000000;stroke-linejoin:miter;stroke-width:0.1;"/>
    </g>
    <g id="patch_224">
     <path d="M 199.130382 103.042161 
C 199.130382 103.042161 199.130382 103.042161 199.130382 103.042161 
L 203.166118 93.02988 
L 199.130382 103.042161 
z
" style="fill:#ff0240;stroke:#000000;stroke-linejoin:miter;stroke-width:0.1;"/>
    </g>
    <g id="patch_225">
     <path d="M 199.130382 103.042161 
C 199.132031 103.042826 199.133681 103.043491 199.135331 103.044155 
C 199.13698 103.044819 199.13863 103.045482 199.14028 103.046145 
L 203.166118 93.02988 
L 199.130382 103.042161 
z
" style="fill:#d0d1df;stroke:#000000;stroke-linejoin:miter;stroke-width:0.1;"/>
    </g>
    <g id="patch_226">
     <path d="M 199.14028 103.046145 
C 199.143979 103.047632 199.147678 103.049117 199.151379 103.050599 
C 199.155079 103.052082 199.158781 103.053562 199.162483 103.055041 
L 203.166118 93.02988 
L 199.14028 103.046145 
z
" style="fill:#6ef1c9;stroke:#000000;stroke-linejoin:miter;stroke-width:0.1;"/>
    </g>
    <g id="patch_227">
     <path d="M 199.162483 103.055041 
C 199.951812 103.370266 200.775616 103.59117 201.616762 103.713158 
C 202.457909 103.835147 203.310527 103.857368 204.156886 103.77936 
L 203.166118 93.02988 
L 199.162483 103.055041 
z
" style="fill:#6ef1c9;stroke:#000000;stroke-linejoin:miter;stroke-width:0.1;"/>
    </g>
    <g id="patch_228">
     <path d="M 204.156886 103.77936 
C 205.143588 103.688417 206.113086 103.46205 207.038039 103.106644 
C 207.962992 102.751237 208.834621 102.270164 209.628346 101.676992 
L 203.166118 93.02988 
L 204.156886 103.77936 
z
" style="fill:#6ef1c9;stroke:#000000;stroke-linejoin:miter;stroke-width:0.1;"/>
    </g>
    <g id="patch_229">
     <path d="M 209.628346 101.676992 
C 209.710517 101.615583 209.791808 101.553007 209.872196 101.489281 
C 209.952583 101.425555 210.032058 101.360686 210.110596 101.294695 
L 203.166118 93.02988 
L 209.628346 101.676992 
z
" style="fill:#689285;stroke:#000000;stroke-linejoin:miter;stroke-width:0.1;"/>
    </g>
    <g id="patch_230">
     <path d="M 210.110596 101.294695 
C 211.053008 100.502837 211.853075 99.55559 212.476132 98.493997 
C 213.099189 97.432404 213.536105 96.272021 213.76795 95.063126 
L 203.166118 93.02988 
L 210.110596 101.294695 
z
" style="fill:#428317;stroke:#000000;stroke-linejoin:miter;stroke-width:0.1;"/>
    </g>
    <g id="patch_231">
     <path d="M 213.76795 95.063126 
C 213.808654 94.850888 213.842975 94.637476 213.870867 94.423178 
C 213.89876 94.20888 213.920211 93.993793 213.935191 93.778207 
L 203.166118 93.02988 
L 213.76795 95.063126 
z
" style="fill:#428317;stroke:#000000;stroke-linejoin:miter;stroke-width:0.1;"/>
    </g>
    <g id="patch_232">
     <path d="M 213.935191 93.778207 
C 213.936341 93.761666 213.937452 93.745123 213.938525 93.728577 
C 213.939598 93.712032 213.940633 93.695484 213.94163 93.678933 
L 203.166118 93.02988 
L 213.935191 93.778207 
z
" style="fill:#106832;stroke:#000000;stroke-linejoin:miter;stroke-width:0.1;"/>
    </g>
    <g id="patch_233">
     <path d="M 213.94163 93.678933 
C 213.94163 93.678933 213.94163 93.678933 213.94163 93.678933 
L 203.166118 93.02988 
L 213.94163 93.678933 
z
" style="fill:#56a45e;stroke:#000000;stroke-linejoin:miter;stroke-width:0.1;"/>
    </g>
    <g id="patch_234">
     <path d="M 213.94163 93.678933 
C 213.94163 93.678933 213.94163 93.678933 213.94163 93.678933 
L 203.166118 93.02988 
L 213.94163 93.678933 
z
" style="fill:#7ac890;stroke:#000000;stroke-linejoin:miter;stroke-width:0.1;"/>
    </g>
    <g id="patch_235">
     <path d="M 213.94163 93.678933 
C 213.948138 93.570886 213.953021 93.462747 213.956277 93.354553 
C 213.959532 93.246358 213.96116 93.138122 213.96116 93.029878 
L 203.166118 93.02988 
L 213.94163 93.678933 
z
" style="fill:#51a778;stroke:#000000;stroke-linejoin:miter;stroke-width:0.1;"/>
    </g>
    <g id="patch_236">
     <path d="M 213.96116 93.029878 
C 213.96116 93.029878 213.96116 93.029878 213.96116 93.029878 
L 203.166118 93.02988 
L 213.96116 93.029878 
z
" style="fill:#34be72;stroke:#000000;stroke-linejoin:miter;stroke-width:0.1;"/>
    </g>
    <g id="patch_237">
     <path d="M 213.96116 93.029878 
C 213.96116 93.029878 213.96116 93.029878 213.96116 93.029878 
L 203.166118 93.02988 
L 213.96116 93.029878 
z
" style="fill:#0ec460;stroke:#000000;stroke-linejoin:miter;stroke-width:0.1;"/>
    </g>
    <g id="patch_238">
     <path d="M 213.96116 93.029878 
C 213.96116 93.029878 213.96116 93.029878 213.96116 93.029878 
L 203.166118 93.02988 
L 213.96116 93.029878 
z
" style="fill:#069848;stroke:#000000;stroke-linejoin:miter;stroke-width:0.1;"/>
    </g>
    <g id="matplotlib.axis_17"/>
    <g id="matplotlib.axis_18"/>
   </g>
  </g>
 </g>
 <defs>
  <clipPath id="p833483fed3">
   <rect height="110.88" width="177.408" x="50.688" y="15.84"/>
  </clipPath>
 </defs>
</svg>
