<?xml version="1.0" encoding="utf-8" standalone="no"?>
<!DOCTYPE svg PUBLIC "-//W3C//DTD SVG 1.1//EN"
  "http://www.w3.org/Graphics/SVG/1.1/DTD/svg11.dtd">
<!-- Created with matplotlib (https://matplotlib.org/) -->
<svg height="172.913386pt" version="1.1" viewBox="0 0 256.535433 172.913386" width="256.535433pt" xmlns="http://www.w3.org/2000/svg" xmlns:xlink="http://www.w3.org/1999/xlink">
 <metadata>
  <rdf:RDF xmlns:cc="http://creativecommons.org/ns#" xmlns:dc="http://purl.org/dc/elements/1.1/" xmlns:rdf="http://www.w3.org/1999/02/22-rdf-syntax-ns#">
   <cc:Work>
    <dc:type rdf:resource="http://purl.org/dc/dcmitype/StillImage"/>
    <dc:date>2021-10-13T14:51:36.187881</dc:date>
    <dc:format>image/svg+xml</dc:format>
    <dc:creator>
     <cc:Agent>
      <dc:title>Matplotlib v3.3.4, https://matplotlib.org/</dc:title>
     </cc:Agent>
    </dc:creator>
   </cc:Work>
  </rdf:RDF>
 </metadata>
 <defs>
  <style type="text/css">*{stroke-linecap:butt;stroke-linejoin:round;}</style>
 </defs>
 <g id="figure_1">
  <g id="patch_1">
   <path d="M 0 172.913386 
L 256.535433 172.913386 
L 256.535433 0 
L 0 0 
z
" style="fill:#ffffff;"/>
  </g>
  <g id="axes_1">
   <g id="patch_2">
    <path d="M 25.653543 146.976378 
L 248.83937 146.976378 
L 248.83937 8.645669 
L 25.653543 8.645669 
z
" style="fill:#ffffff;"/>
   </g>
   <g id="patch_3">
    <path clip-path="url(#pa63a580cfa)" d="M 50.241812 140.688618 
L 57.807434 140.688618 
L 57.807434 14.933429 
L 50.241812 14.933429 
z
" style="opacity:0.5;"/>
   </g>
   <g id="patch_4">
    <path clip-path="url(#pa63a580cfa)" d="M 25.653543 140.688618 
L 50.241812 140.688618 
L 50.241812 14.933429 
L 25.653543 14.933429 
z
" style="fill:#f09c08;opacity:0.5;"/>
   </g>
   <g id="patch_5">
    <path clip-path="url(#pa63a580cfa)" d="M 69.155865 140.688618 
L 93.744135 140.688618 
L 93.744135 14.933429 
L 69.155865 14.933429 
z
" style="fill:#2738e7;opacity:0.5;"/>
   </g>
   <g id="patch_6">
    <path clip-path="url(#pa63a580cfa)" d="M 103.201161 140.688618 
L 154.269104 140.688618 
L 154.269104 14.933429 
L 103.201161 14.933429 
z
" style="fill:#cb340b;opacity:0.5;"/>
   </g>
   <g id="patch_7">
    <path clip-path="url(#pa63a580cfa)" d="M 154.269104 140.688618 
L 267.753423 140.688618 
L 267.753423 14.933429 
L 154.269104 14.933429 
z
" style="fill:#30bd37;opacity:0.5;"/>
   </g>
   <g id="matplotlib.axis_1">
    <g id="xtick_1">
     <g id="line2d_1">
      <defs>
       <path d="M 0 0 
L 0 1.75 
" id="m0f9879b4b9" style="stroke:#000000;stroke-width:0.8;"/>
      </defs>
      <g>
       <use style="stroke:#000000;stroke-width:0.8;" x="40.784786" xlink:href="#m0f9879b4b9" y="146.976378"/>
      </g>
     </g>
     <g id="text_1">
      <!-- 6 -->
      <g transform="translate(38.557911 157.545284)scale(0.07 -0.07)">
       <defs>
        <path d="M 33.015625 40.375 
Q 26.375 40.375 22.484375 35.828125 
Q 18.609375 31.296875 18.609375 23.390625 
Q 18.609375 15.53125 22.484375 10.953125 
Q 26.375 6.390625 33.015625 6.390625 
Q 39.65625 6.390625 43.53125 10.953125 
Q 47.40625 15.53125 47.40625 23.390625 
Q 47.40625 31.296875 43.53125 35.828125 
Q 39.65625 40.375 33.015625 40.375 
z
M 52.59375 71.296875 
L 52.59375 62.3125 
Q 48.875 64.0625 45.09375 64.984375 
Q 41.3125 65.921875 37.59375 65.921875 
Q 27.828125 65.921875 22.671875 59.328125 
Q 17.53125 52.734375 16.796875 39.40625 
Q 19.671875 43.65625 24.015625 45.921875 
Q 28.375 48.1875 33.59375 48.1875 
Q 44.578125 48.1875 50.953125 41.515625 
Q 57.328125 34.859375 57.328125 23.390625 
Q 57.328125 12.15625 50.6875 5.359375 
Q 44.046875 -1.421875 33.015625 -1.421875 
Q 20.359375 -1.421875 13.671875 8.265625 
Q 6.984375 17.96875 6.984375 36.375 
Q 6.984375 53.65625 15.1875 63.9375 
Q 23.390625 74.21875 37.203125 74.21875 
Q 40.921875 74.21875 44.703125 73.484375 
Q 48.484375 72.75 52.59375 71.296875 
z
" id="DejaVuSans-54"/>
       </defs>
       <use xlink:href="#DejaVuSans-54"/>
      </g>
     </g>
    </g>
    <g id="xtick_2">
     <g id="line2d_2">
      <g>
       <use style="stroke:#000000;stroke-width:0.8;" x="78.612892" xlink:href="#m0f9879b4b9" y="146.976378"/>
      </g>
     </g>
     <g id="text_2">
      <!-- 8 -->
      <g transform="translate(76.386017 157.545284)scale(0.07 -0.07)">
       <defs>
        <path d="M 31.78125 34.625 
Q 24.75 34.625 20.71875 30.859375 
Q 16.703125 27.09375 16.703125 20.515625 
Q 16.703125 13.921875 20.71875 10.15625 
Q 24.75 6.390625 31.78125 6.390625 
Q 38.8125 6.390625 42.859375 10.171875 
Q 46.921875 13.96875 46.921875 20.515625 
Q 46.921875 27.09375 42.890625 30.859375 
Q 38.875 34.625 31.78125 34.625 
z
M 21.921875 38.8125 
Q 15.578125 40.375 12.03125 44.71875 
Q 8.5 49.078125 8.5 55.328125 
Q 8.5 64.0625 14.71875 69.140625 
Q 20.953125 74.21875 31.78125 74.21875 
Q 42.671875 74.21875 48.875 69.140625 
Q 55.078125 64.0625 55.078125 55.328125 
Q 55.078125 49.078125 51.53125 44.71875 
Q 48 40.375 41.703125 38.8125 
Q 48.828125 37.15625 52.796875 32.3125 
Q 56.78125 27.484375 56.78125 20.515625 
Q 56.78125 9.90625 50.3125 4.234375 
Q 43.84375 -1.421875 31.78125 -1.421875 
Q 19.734375 -1.421875 13.25 4.234375 
Q 6.78125 9.90625 6.78125 20.515625 
Q 6.78125 27.484375 10.78125 32.3125 
Q 14.796875 37.15625 21.921875 38.8125 
z
M 18.3125 54.390625 
Q 18.3125 48.734375 21.84375 45.5625 
Q 25.390625 42.390625 31.78125 42.390625 
Q 38.140625 42.390625 41.71875 45.5625 
Q 45.3125 48.734375 45.3125 54.390625 
Q 45.3125 60.0625 41.71875 63.234375 
Q 38.140625 66.40625 31.78125 66.40625 
Q 25.390625 66.40625 21.84375 63.234375 
Q 18.3125 60.0625 18.3125 54.390625 
z
" id="DejaVuSans-56"/>
       </defs>
       <use xlink:href="#DejaVuSans-56"/>
      </g>
     </g>
    </g>
    <g id="xtick_3">
     <g id="line2d_3">
      <g>
       <use style="stroke:#000000;stroke-width:0.8;" x="116.440998" xlink:href="#m0f9879b4b9" y="146.976378"/>
      </g>
     </g>
     <g id="text_3">
      <!-- 10 -->
      <g transform="translate(111.987248 157.545284)scale(0.07 -0.07)">
       <defs>
        <path d="M 12.40625 8.296875 
L 28.515625 8.296875 
L 28.515625 63.921875 
L 10.984375 60.40625 
L 10.984375 69.390625 
L 28.421875 72.90625 
L 38.28125 72.90625 
L 38.28125 8.296875 
L 54.390625 8.296875 
L 54.390625 0 
L 12.40625 0 
z
" id="DejaVuSans-49"/>
        <path d="M 31.78125 66.40625 
Q 24.171875 66.40625 20.328125 58.90625 
Q 16.5 51.421875 16.5 36.375 
Q 16.5 21.390625 20.328125 13.890625 
Q 24.171875 6.390625 31.78125 6.390625 
Q 39.453125 6.390625 43.28125 13.890625 
Q 47.125 21.390625 47.125 36.375 
Q 47.125 51.421875 43.28125 58.90625 
Q 39.453125 66.40625 31.78125 66.40625 
z
M 31.78125 74.21875 
Q 44.046875 74.21875 50.515625 64.515625 
Q 56.984375 54.828125 56.984375 36.375 
Q 56.984375 17.96875 50.515625 8.265625 
Q 44.046875 -1.421875 31.78125 -1.421875 
Q 19.53125 -1.421875 13.0625 8.265625 
Q 6.59375 17.96875 6.59375 36.375 
Q 6.59375 54.828125 13.0625 64.515625 
Q 19.53125 74.21875 31.78125 74.21875 
z
" id="DejaVuSans-48"/>
       </defs>
       <use xlink:href="#DejaVuSans-49"/>
       <use x="63.623047" xlink:href="#DejaVuSans-48"/>
      </g>
     </g>
    </g>
    <g id="xtick_4">
     <g id="line2d_4">
      <g>
       <use style="stroke:#000000;stroke-width:0.8;" x="154.269104" xlink:href="#m0f9879b4b9" y="146.976378"/>
      </g>
     </g>
     <g id="text_4">
      <!-- 12 -->
      <g transform="translate(149.815354 157.545284)scale(0.07 -0.07)">
       <defs>
        <path d="M 19.1875 8.296875 
L 53.609375 8.296875 
L 53.609375 0 
L 7.328125 0 
L 7.328125 8.296875 
Q 12.9375 14.109375 22.625 23.890625 
Q 32.328125 33.6875 34.8125 36.53125 
Q 39.546875 41.84375 41.421875 45.53125 
Q 43.3125 49.21875 43.3125 52.78125 
Q 43.3125 58.59375 39.234375 62.25 
Q 35.15625 65.921875 28.609375 65.921875 
Q 23.96875 65.921875 18.8125 64.3125 
Q 13.671875 62.703125 7.8125 59.421875 
L 7.8125 69.390625 
Q 13.765625 71.78125 18.9375 73 
Q 24.125 74.21875 28.421875 74.21875 
Q 39.75 74.21875 46.484375 68.546875 
Q 53.21875 62.890625 53.21875 53.421875 
Q 53.21875 48.921875 51.53125 44.890625 
Q 49.859375 40.875 45.40625 35.40625 
Q 44.1875 33.984375 37.640625 27.21875 
Q 31.109375 20.453125 19.1875 8.296875 
z
" id="DejaVuSans-50"/>
       </defs>
       <use xlink:href="#DejaVuSans-49"/>
       <use x="63.623047" xlink:href="#DejaVuSans-50"/>
      </g>
     </g>
    </g>
    <g id="xtick_5">
     <g id="line2d_5">
      <g>
       <use style="stroke:#000000;stroke-width:0.8;" x="192.097211" xlink:href="#m0f9879b4b9" y="146.976378"/>
      </g>
     </g>
     <g id="text_5">
      <!-- 14 -->
      <g transform="translate(187.643461 157.545284)scale(0.07 -0.07)">
       <defs>
        <path d="M 37.796875 64.3125 
L 12.890625 25.390625 
L 37.796875 25.390625 
z
M 35.203125 72.90625 
L 47.609375 72.90625 
L 47.609375 25.390625 
L 58.015625 25.390625 
L 58.015625 17.1875 
L 47.609375 17.1875 
L 47.609375 0 
L 37.796875 0 
L 37.796875 17.1875 
L 4.890625 17.1875 
L 4.890625 26.703125 
z
" id="DejaVuSans-52"/>
       </defs>
       <use xlink:href="#DejaVuSans-49"/>
       <use x="63.623047" xlink:href="#DejaVuSans-52"/>
      </g>
     </g>
    </g>
    <g id="xtick_6">
     <g id="line2d_6">
      <g>
       <use style="stroke:#000000;stroke-width:0.8;" x="229.925317" xlink:href="#m0f9879b4b9" y="146.976378"/>
      </g>
     </g>
     <g id="text_6">
      <!-- 16 -->
      <g transform="translate(225.471567 157.545284)scale(0.07 -0.07)">
       <use xlink:href="#DejaVuSans-49"/>
       <use x="63.623047" xlink:href="#DejaVuSans-54"/>
      </g>
     </g>
    </g>
    <g id="text_7">
     <!-- Retention time/ min. -->
     <g transform="translate(91.090519 169.839659)scale(0.09 -0.09)">
      <defs>
       <path d="M 44.390625 34.1875 
Q 47.5625 33.109375 50.5625 29.59375 
Q 53.5625 26.078125 56.59375 19.921875 
L 66.609375 0 
L 56 0 
L 46.6875 18.703125 
Q 43.0625 26.03125 39.671875 28.421875 
Q 36.28125 30.8125 30.421875 30.8125 
L 19.671875 30.8125 
L 19.671875 0 
L 9.8125 0 
L 9.8125 72.90625 
L 32.078125 72.90625 
Q 44.578125 72.90625 50.734375 67.671875 
Q 56.890625 62.453125 56.890625 51.90625 
Q 56.890625 45.015625 53.6875 40.46875 
Q 50.484375 35.9375 44.390625 34.1875 
z
M 19.671875 64.796875 
L 19.671875 38.921875 
L 32.078125 38.921875 
Q 39.203125 38.921875 42.84375 42.21875 
Q 46.484375 45.515625 46.484375 51.90625 
Q 46.484375 58.296875 42.84375 61.546875 
Q 39.203125 64.796875 32.078125 64.796875 
z
" id="DejaVuSans-82"/>
       <path d="M 56.203125 29.59375 
L 56.203125 25.203125 
L 14.890625 25.203125 
Q 15.484375 15.921875 20.484375 11.0625 
Q 25.484375 6.203125 34.421875 6.203125 
Q 39.59375 6.203125 44.453125 7.46875 
Q 49.3125 8.734375 54.109375 11.28125 
L 54.109375 2.78125 
Q 49.265625 0.734375 44.1875 -0.34375 
Q 39.109375 -1.421875 33.890625 -1.421875 
Q 20.796875 -1.421875 13.15625 6.1875 
Q 5.515625 13.8125 5.515625 26.8125 
Q 5.515625 40.234375 12.765625 48.109375 
Q 20.015625 56 32.328125 56 
Q 43.359375 56 49.78125 48.890625 
Q 56.203125 41.796875 56.203125 29.59375 
z
M 47.21875 32.234375 
Q 47.125 39.59375 43.09375 43.984375 
Q 39.0625 48.390625 32.421875 48.390625 
Q 24.90625 48.390625 20.390625 44.140625 
Q 15.875 39.890625 15.1875 32.171875 
z
" id="DejaVuSans-101"/>
       <path d="M 18.3125 70.21875 
L 18.3125 54.6875 
L 36.8125 54.6875 
L 36.8125 47.703125 
L 18.3125 47.703125 
L 18.3125 18.015625 
Q 18.3125 11.328125 20.140625 9.421875 
Q 21.96875 7.515625 27.59375 7.515625 
L 36.8125 7.515625 
L 36.8125 0 
L 27.59375 0 
Q 17.1875 0 13.234375 3.875 
Q 9.28125 7.765625 9.28125 18.015625 
L 9.28125 47.703125 
L 2.6875 47.703125 
L 2.6875 54.6875 
L 9.28125 54.6875 
L 9.28125 70.21875 
z
" id="DejaVuSans-116"/>
       <path d="M 54.890625 33.015625 
L 54.890625 0 
L 45.90625 0 
L 45.90625 32.71875 
Q 45.90625 40.484375 42.875 44.328125 
Q 39.84375 48.1875 33.796875 48.1875 
Q 26.515625 48.1875 22.3125 43.546875 
Q 18.109375 38.921875 18.109375 30.90625 
L 18.109375 0 
L 9.078125 0 
L 9.078125 54.6875 
L 18.109375 54.6875 
L 18.109375 46.1875 
Q 21.34375 51.125 25.703125 53.5625 
Q 30.078125 56 35.796875 56 
Q 45.21875 56 50.046875 50.171875 
Q 54.890625 44.34375 54.890625 33.015625 
z
" id="DejaVuSans-110"/>
       <path d="M 9.421875 54.6875 
L 18.40625 54.6875 
L 18.40625 0 
L 9.421875 0 
z
M 9.421875 75.984375 
L 18.40625 75.984375 
L 18.40625 64.59375 
L 9.421875 64.59375 
z
" id="DejaVuSans-105"/>
       <path d="M 30.609375 48.390625 
Q 23.390625 48.390625 19.1875 42.75 
Q 14.984375 37.109375 14.984375 27.296875 
Q 14.984375 17.484375 19.15625 11.84375 
Q 23.34375 6.203125 30.609375 6.203125 
Q 37.796875 6.203125 41.984375 11.859375 
Q 46.1875 17.53125 46.1875 27.296875 
Q 46.1875 37.015625 41.984375 42.703125 
Q 37.796875 48.390625 30.609375 48.390625 
z
M 30.609375 56 
Q 42.328125 56 49.015625 48.375 
Q 55.71875 40.765625 55.71875 27.296875 
Q 55.71875 13.875 49.015625 6.21875 
Q 42.328125 -1.421875 30.609375 -1.421875 
Q 18.84375 -1.421875 12.171875 6.21875 
Q 5.515625 13.875 5.515625 27.296875 
Q 5.515625 40.765625 12.171875 48.375 
Q 18.84375 56 30.609375 56 
z
" id="DejaVuSans-111"/>
       <path id="DejaVuSans-32"/>
       <path d="M 52 44.1875 
Q 55.375 50.25 60.0625 53.125 
Q 64.75 56 71.09375 56 
Q 79.640625 56 84.28125 50.015625 
Q 88.921875 44.046875 88.921875 33.015625 
L 88.921875 0 
L 79.890625 0 
L 79.890625 32.71875 
Q 79.890625 40.578125 77.09375 44.375 
Q 74.3125 48.1875 68.609375 48.1875 
Q 61.625 48.1875 57.5625 43.546875 
Q 53.515625 38.921875 53.515625 30.90625 
L 53.515625 0 
L 44.484375 0 
L 44.484375 32.71875 
Q 44.484375 40.625 41.703125 44.40625 
Q 38.921875 48.1875 33.109375 48.1875 
Q 26.21875 48.1875 22.15625 43.53125 
Q 18.109375 38.875 18.109375 30.90625 
L 18.109375 0 
L 9.078125 0 
L 9.078125 54.6875 
L 18.109375 54.6875 
L 18.109375 46.1875 
Q 21.1875 51.21875 25.484375 53.609375 
Q 29.78125 56 35.6875 56 
Q 41.65625 56 45.828125 52.96875 
Q 50 49.953125 52 44.1875 
z
" id="DejaVuSans-109"/>
       <path d="M 25.390625 72.90625 
L 33.6875 72.90625 
L 8.296875 -9.28125 
L 0 -9.28125 
z
" id="DejaVuSans-47"/>
       <path d="M 10.6875 12.40625 
L 21 12.40625 
L 21 0 
L 10.6875 0 
z
" id="DejaVuSans-46"/>
      </defs>
      <use xlink:href="#DejaVuSans-82"/>
      <use x="64.982422" xlink:href="#DejaVuSans-101"/>
      <use x="126.505859" xlink:href="#DejaVuSans-116"/>
      <use x="165.714844" xlink:href="#DejaVuSans-101"/>
      <use x="227.238281" xlink:href="#DejaVuSans-110"/>
      <use x="290.617188" xlink:href="#DejaVuSans-116"/>
      <use x="329.826172" xlink:href="#DejaVuSans-105"/>
      <use x="357.609375" xlink:href="#DejaVuSans-111"/>
      <use x="418.791016" xlink:href="#DejaVuSans-110"/>
      <use x="482.169922" xlink:href="#DejaVuSans-32"/>
      <use x="513.957031" xlink:href="#DejaVuSans-116"/>
      <use x="553.166016" xlink:href="#DejaVuSans-105"/>
      <use x="580.949219" xlink:href="#DejaVuSans-109"/>
      <use x="678.361328" xlink:href="#DejaVuSans-101"/>
      <use x="739.884766" xlink:href="#DejaVuSans-47"/>
      <use x="773.576172" xlink:href="#DejaVuSans-32"/>
      <use x="805.363281" xlink:href="#DejaVuSans-109"/>
      <use x="902.775391" xlink:href="#DejaVuSans-105"/>
      <use x="930.558594" xlink:href="#DejaVuSans-110"/>
      <use x="993.9375" xlink:href="#DejaVuSans-46"/>
     </g>
    </g>
   </g>
   <g id="matplotlib.axis_2">
    <g id="ytick_1">
     <g id="line2d_7">
      <defs>
       <path d="M 0 0 
L -1.75 0 
" id="mb2b89ea04e" style="stroke:#000000;stroke-width:0.8;"/>
      </defs>
      <g>
       <use style="stroke:#000000;stroke-width:0.8;" x="25.653543" xlink:href="#mb2b89ea04e" y="140.688618"/>
      </g>
     </g>
    </g>
    <g id="ytick_2">
     <g id="line2d_8">
      <g>
       <use style="stroke:#000000;stroke-width:0.8;" x="25.653543" xlink:href="#mb2b89ea04e" y="118.03195"/>
      </g>
     </g>
    </g>
    <g id="ytick_3">
     <g id="line2d_9">
      <g>
       <use style="stroke:#000000;stroke-width:0.8;" x="25.653543" xlink:href="#mb2b89ea04e" y="95.375281"/>
      </g>
     </g>
    </g>
    <g id="ytick_4">
     <g id="line2d_10">
      <g>
       <use style="stroke:#000000;stroke-width:0.8;" x="25.653543" xlink:href="#mb2b89ea04e" y="72.718612"/>
      </g>
     </g>
    </g>
    <g id="ytick_5">
     <g id="line2d_11">
      <g>
       <use style="stroke:#000000;stroke-width:0.8;" x="25.653543" xlink:href="#mb2b89ea04e" y="50.061943"/>
      </g>
     </g>
    </g>
    <g id="ytick_6">
     <g id="line2d_12">
      <g>
       <use style="stroke:#000000;stroke-width:0.8;" x="25.653543" xlink:href="#mb2b89ea04e" y="27.405274"/>
      </g>
     </g>
    </g>
    <g id="text_8">
     <!-- Total ion count -->
     <g transform="translate(14.531825 110.731336)rotate(-90)scale(0.09 -0.09)">
      <defs>
       <path d="M -0.296875 72.90625 
L 61.375 72.90625 
L 61.375 64.59375 
L 35.5 64.59375 
L 35.5 0 
L 25.59375 0 
L 25.59375 64.59375 
L -0.296875 64.59375 
z
" id="DejaVuSans-84"/>
       <path d="M 34.28125 27.484375 
Q 23.390625 27.484375 19.1875 25 
Q 14.984375 22.515625 14.984375 16.5 
Q 14.984375 11.71875 18.140625 8.90625 
Q 21.296875 6.109375 26.703125 6.109375 
Q 34.1875 6.109375 38.703125 11.40625 
Q 43.21875 16.703125 43.21875 25.484375 
L 43.21875 27.484375 
z
M 52.203125 31.203125 
L 52.203125 0 
L 43.21875 0 
L 43.21875 8.296875 
Q 40.140625 3.328125 35.546875 0.953125 
Q 30.953125 -1.421875 24.3125 -1.421875 
Q 15.921875 -1.421875 10.953125 3.296875 
Q 6 8.015625 6 15.921875 
Q 6 25.140625 12.171875 29.828125 
Q 18.359375 34.515625 30.609375 34.515625 
L 43.21875 34.515625 
L 43.21875 35.40625 
Q 43.21875 41.609375 39.140625 45 
Q 35.0625 48.390625 27.6875 48.390625 
Q 23 48.390625 18.546875 47.265625 
Q 14.109375 46.140625 10.015625 43.890625 
L 10.015625 52.203125 
Q 14.9375 54.109375 19.578125 55.046875 
Q 24.21875 56 28.609375 56 
Q 40.484375 56 46.34375 49.84375 
Q 52.203125 43.703125 52.203125 31.203125 
z
" id="DejaVuSans-97"/>
       <path d="M 9.421875 75.984375 
L 18.40625 75.984375 
L 18.40625 0 
L 9.421875 0 
z
" id="DejaVuSans-108"/>
       <path d="M 48.78125 52.59375 
L 48.78125 44.1875 
Q 44.96875 46.296875 41.140625 47.34375 
Q 37.3125 48.390625 33.40625 48.390625 
Q 24.65625 48.390625 19.8125 42.84375 
Q 14.984375 37.3125 14.984375 27.296875 
Q 14.984375 17.28125 19.8125 11.734375 
Q 24.65625 6.203125 33.40625 6.203125 
Q 37.3125 6.203125 41.140625 7.25 
Q 44.96875 8.296875 48.78125 10.40625 
L 48.78125 2.09375 
Q 45.015625 0.34375 40.984375 -0.53125 
Q 36.96875 -1.421875 32.421875 -1.421875 
Q 20.0625 -1.421875 12.78125 6.34375 
Q 5.515625 14.109375 5.515625 27.296875 
Q 5.515625 40.671875 12.859375 48.328125 
Q 20.21875 56 33.015625 56 
Q 37.15625 56 41.109375 55.140625 
Q 45.0625 54.296875 48.78125 52.59375 
z
" id="DejaVuSans-99"/>
       <path d="M 8.5 21.578125 
L 8.5 54.6875 
L 17.484375 54.6875 
L 17.484375 21.921875 
Q 17.484375 14.15625 20.5 10.265625 
Q 23.53125 6.390625 29.59375 6.390625 
Q 36.859375 6.390625 41.078125 11.03125 
Q 45.3125 15.671875 45.3125 23.6875 
L 45.3125 54.6875 
L 54.296875 54.6875 
L 54.296875 0 
L 45.3125 0 
L 45.3125 8.40625 
Q 42.046875 3.421875 37.71875 1 
Q 33.40625 -1.421875 27.6875 -1.421875 
Q 18.265625 -1.421875 13.375 4.4375 
Q 8.5 10.296875 8.5 21.578125 
z
M 31.109375 56 
z
" id="DejaVuSans-117"/>
      </defs>
      <use xlink:href="#DejaVuSans-84"/>
      <use x="44.083984" xlink:href="#DejaVuSans-111"/>
      <use x="105.265625" xlink:href="#DejaVuSans-116"/>
      <use x="144.474609" xlink:href="#DejaVuSans-97"/>
      <use x="205.753906" xlink:href="#DejaVuSans-108"/>
      <use x="233.537109" xlink:href="#DejaVuSans-32"/>
      <use x="265.324219" xlink:href="#DejaVuSans-105"/>
      <use x="293.107422" xlink:href="#DejaVuSans-111"/>
      <use x="354.289062" xlink:href="#DejaVuSans-110"/>
      <use x="417.667969" xlink:href="#DejaVuSans-32"/>
      <use x="449.455078" xlink:href="#DejaVuSans-99"/>
      <use x="504.435547" xlink:href="#DejaVuSans-111"/>
      <use x="565.617188" xlink:href="#DejaVuSans-117"/>
      <use x="628.996094" xlink:href="#DejaVuSans-110"/>
      <use x="692.375" xlink:href="#DejaVuSans-116"/>
     </g>
    </g>
   </g>
   <g id="line2d_13">
    <path clip-path="url(#pa63a580cfa)" d="M 25.647239 140.688618 
L 27.878309 140.602078 
L 28.004402 140.405246 
L 28.192755 138.812014 
L 28.318849 139.212139 
L 28.664818 140.596984 
L 29.073046 140.688618 
L 29.482063 140.688618 
L 29.512798 140.560516 
L 29.575845 140.688618 
L 29.921815 140.62202 
L 30.04712 140.564865 
L 30.14169 140.433378 
L 30.330043 140.417767 
L 30.456137 140.520281 
L 30.581442 140.688618 
L 30.832842 140.688618 
L 30.864365 140.558536 
L 30.958935 140.588137 
L 31.178811 140.390264 
L 31.33564 140.018637 
L 31.556304 140.688618 
L 31.618563 140.601514 
L 31.68161 140.415805 
L 31.901486 139.333152 
L 31.933009 139.493514 
L 32.372761 140.688618 
L 32.750254 140.688618 
L 32.876347 140.434962 
L 33.033176 140.437555 
L 33.190005 140.688618 
L 33.881944 140.593793 
L 34.00725 140.223117 
L 34.10182 140.11517 
L 34.133344 140.138546 
L 34.44779 140.688618 
L 34.792971 140.074179 
L 34.824495 140.101132 
L 35.107418 140.621482 
L 35.48491 140.688618 
L 38.188044 140.584854 
L 38.250303 140.419009 
L 38.40792 137.774339 
L 38.533225 136.238011 
L 38.564749 136.411625 
L 38.879195 140.028809 
L 38.910718 139.886196 
L 39.036024 139.696345 
L 39.099071 139.841895 
L 39.508087 140.688618 
L 40.293809 140.688618 
L 40.482161 140.123731 
L 40.607467 140.291154 
L 40.796607 140.688618 
L 43.153771 140.688618 
L 43.279077 139.739998 
L 43.468217 134.887334 
L 43.561999 136.095264 
L 43.844922 140.571351 
L 44.096321 140.627207 
L 44.568385 140.688618 
L 53.242842 140.688618 
L 53.274366 140.546747 
L 53.336624 140.688618 
L 54.028563 140.688618 
L 54.122346 139.265154 
L 54.216916 132.537379 
L 54.405268 95.421131 
L 54.499839 77.059512 
L 54.562885 83.247507 
L 54.908067 139.858775 
L 55.097207 140.688618 
L 55.160254 140.499624 
L 55.19099 140.688618 
L 56.197375 140.630073 
L 56.291157 140.173201 
L 56.480298 138.063185 
L 56.57408 138.575102 
L 56.888526 140.688618 
L 59.088861 140.613869 
L 59.182643 140.46515 
L 59.34026 140.688618 
L 63.551789 140.582416 
L 63.646359 140.540317 
L 63.677095 140.58884 
L 63.928494 140.688618 
L 70.183529 140.593195 
L 70.434928 140.298266 
L 70.654804 140.688618 
L 71.032297 140.595831 
L 71.094556 140.184478 
L 71.345955 136.00142 
L 71.440525 136.522154 
L 71.723448 140.394177 
L 71.786495 140.331622 
L 71.848754 140.241192 
L 71.911801 140.31806 
L 71.943324 140.267023 
L 71.974847 140.326267 
L 72.131676 140.448628 
L 72.226247 140.429801 
L 72.35234 140.688618 
L 72.540693 140.580948 
L 72.823616 140.569681 
L 73.075015 140.688618 
L 73.703907 140.593454 
L 73.797689 139.997906 
L 74.017565 136.437519 
L 74.112135 137.047199 
L 74.237441 139.313169 
L 74.426582 140.552299 
L 74.520364 140.520689 
L 74.583411 140.266482 
L 74.646457 138.848438 
L 74.741028 131.761711 
L 74.897857 92.865219 
L 75.086209 21.998797 
L 75.149256 23.046372 
L 75.212303 22.847226 
L 75.432179 14.933429 
L 75.463702 15.152284 
L 75.495226 21.165805 
L 75.715101 139.905523 
L 75.871931 140.568142 
L 76.280947 140.688618 
L 76.437776 140.590093 
L 77.129715 140.565071 
L 77.318067 140.50254 
L 77.50642 140.22347 
L 77.537943 140.297233 
L 77.632514 140.269256 
L 77.757819 139.318075 
L 77.977695 134.981162 
L 78.040742 135.384412 
L 78.292141 139.74093 
L 78.355188 139.603862 
L 78.512017 134.764007 
L 78.669634 129.085764 
L 78.701158 129.144297 
L 79.109386 140.539239 
L 79.172433 140.519836 
L 79.423832 139.672207 
L 79.486879 139.760068 
L 79.895107 140.688618 
L 79.926631 140.688618 
L 79.958154 140.551195 
L 80.052724 140.604893 
L 80.146507 140.267181 
L 80.241077 138.057675 
L 80.492476 126.986363 
L 80.555523 128.61211 
L 80.869181 139.857869 
L 81.121368 140.688618 
L 81.498073 140.587185 
L 81.686426 140.086257 
L 81.717949 140.098409 
L 81.749473 140.074092 
L 81.937825 140.568745 
L 82.220748 140.688618 
L 82.378365 140.595313 
L 82.723546 140.688618 
L 84.767052 140.596158 
L 84.986928 140.504637 
L 85.301374 140.688618 
L 87.500921 140.582465 
L 87.815367 139.979859 
L 88.19286 140.688618 
L 88.507306 140.588701 
L 88.695659 140.332878 
L 88.852488 140.054066 
L 89.010105 139.543396 
L 89.293027 140.541367 
L 89.512903 140.688618 
L 92.372866 140.583592 
L 92.687312 140.384484 
L 93.158587 140.688618 
L 98.910035 140.581037 
L 99.099176 140.347731 
L 99.130699 140.327637 
L 99.287528 140.586207 
L 99.758803 140.688618 
L 105.102023 140.688618 
L 105.133547 140.560812 
L 105.196594 140.688618 
L 113.430511 140.580193 
L 113.588129 140.422838 
L 113.682699 140.291666 
L 113.713434 140.328301 
L 113.934098 140.519818 
L 114.185497 140.688618 
L 116.605708 140.592286 
L 116.731014 140.219256 
L 116.919366 137.669241 
L 117.108507 135.814113 
L 117.548258 140.46505 
L 117.894228 140.688618 
L 118.490809 140.582572 
L 118.836778 140.360642 
L 118.993607 140.560043 
L 119.025131 140.507199 
L 119.056654 140.603637 
L 119.151224 140.688618 
L 119.182748 140.626114 
L 119.308053 140.688618 
L 120.439744 140.626939 
L 120.471268 140.526401 
L 120.565838 140.556594 
L 120.879496 140.607561 
L 121.00559 140.688618 
L 121.854358 140.590231 
L 121.94814 140.464403 
L 122.137281 138.171367 
L 122.29411 131.567987 
L 122.608556 116.376924 
L 122.640079 117.243585 
L 122.703126 119.019009 
L 123.174401 139.616694 
L 123.299707 139.588365 
L 123.519583 137.551608 
L 123.645676 134.125651 
L 123.960122 119.280187 
L 124.023169 119.905356 
L 124.116951 124.100291 
L 124.494444 139.991564 
L 124.651273 140.556886 
L 124.808891 140.568288 
L 125.248642 140.437114 
L 125.373948 140.598679 
L 125.405471 140.584223 
L 125.971317 140.688618 
L 126.09741 140.60085 
L 126.317286 140.312691 
L 126.505639 139.780005 
L 126.537162 139.799455 
L 126.568686 139.735808 
L 126.600209 139.865762 
L 126.631732 139.8391 
L 126.851608 140.424341 
L 127.008437 140.612301 
L 127.228313 140.464723 
L 127.479713 138.381465 
L 127.63733 135.278306 
L 128.140128 118.75045 
L 128.171652 119.209275 
L 128.611403 132.327045 
L 128.67445 132.030948 
L 128.800544 130.439039 
L 129.051943 124.297353 
L 129.082679 123.985897 
L 129.145725 124.28173 
L 129.271819 127.133581 
L 129.554742 138.815147 
L 129.806141 140.515566 
L 130.089064 140.580044 
L 130.214369 140.612136 
L 130.560339 140.688618 
L 130.623386 140.627779 
L 130.685645 140.688618 
L 131.911906 140.602023 
L 132.068735 140.246378 
L 132.194828 139.209222 
L 132.54001 134.04179 
L 132.603057 134.348949 
L 132.759886 136.63321 
L 133.042808 140.315913 
L 133.325731 140.582275 
L 133.986147 140.688618 
L 137.002938 140.590088 
L 137.411955 140.496005 
L 137.851706 140.688618 
L 141.372085 140.688618 
L 141.403608 140.558697 
L 141.466655 140.688618 
L 142.094759 140.688618 
L 142.126282 140.555722 
L 142.189329 140.688618 
L 153.378568 140.584168 
L 153.503873 140.438532 
L 153.661491 140.295816 
L 154.069719 140.60611 
L 155.075316 140.688618 
L 156.616023 140.580104 
L 156.741329 140.498119 
L 156.992728 140.034852 
L 157.024252 140.156496 
L 157.118822 140.083648 
L 157.212604 139.991549 
L 157.244127 140.034548 
L 157.62162 140.567298 
L 158.061372 140.688618 
L 161.361874 140.585556 
L 161.550227 140.424493 
L 161.989979 140.116374 
L 162.241378 140.507716 
L 162.272901 140.448054 
L 162.335948 140.528935 
L 162.492777 140.627862 
L 162.618871 140.688618 
L 164.190313 140.578769 
L 164.347142 140.469838 
L 164.630065 139.852459 
L 164.693112 139.817595 
L 164.756159 140.039557 
L 164.818418 140.032827 
L 165.070605 140.537951 
L 166.107726 140.688618 
L 166.452907 140.592417 
L 166.92497 140.425994 
L 166.955706 140.497358 
L 167.018752 140.368966 
L 167.050276 140.440147 
L 167.207105 140.461984 
L 167.333199 140.379717 
L 167.584598 140.11493 
L 167.616121 140.233979 
L 167.679168 140.190237 
L 167.899044 139.441285 
L 168.055873 138.97373 
L 168.087396 139.02518 
L 168.307272 139.536412 
L 168.370319 139.594421 
L 168.590195 140.252851 
L 168.621718 140.182695 
L 168.716289 140.229852 
L 168.810071 140.193009 
L 168.841594 140.286834 
L 168.904641 140.135942 
L 169.06147 140.054376 
L 169.282134 139.668764 
L 169.595792 139.350375 
L 170.161638 140.543487 
L 170.507607 140.688618 
L 173.304523 140.592677 
L 173.682016 140.249586 
L 174.247861 140.688618 
L 175.316505 140.583533 
L 175.504858 140.347713 
L 176.165273 135.457826 
L 176.196797 135.570281 
L 176.227532 135.586292 
L 176.636548 137.709372 
L 176.887948 138.126569 
L 176.919471 137.988782 
L 177.107824 136.903034 
L 177.233917 134.392696 
L 177.485317 120.907268 
L 177.798975 88.075487 
L 178.019639 70.898665 
L 178.051162 72.120186 
L 178.176468 78.238543 
L 178.773836 139.524457 
L 178.962189 140.548334 
L 179.119806 140.473273 
L 179.276635 139.76361 
L 179.559558 135.055324 
L 179.936263 128.545515 
L 180.125403 131.618874 
L 180.565155 140.017802 
L 180.753507 140.623457 
L 181.194047 140.688618 
L 181.570752 140.688618 
L 181.602276 140.553393 
L 181.665322 140.688618 
L 182.890795 140.614222 
L 183.110671 140.184718 
L 183.268288 138.529094 
L 183.425117 133.139885 
L 183.644993 115.523262 
L 184.085533 71.802199 
L 184.117056 72.333426 
L 184.305409 75.923079 
L 184.808208 136.667701 
L 184.871254 136.977126 
L 184.965037 136.916677 
L 185.028083 136.492803 
L 185.09113 136.755141 
L 185.499359 139.285314 
L 185.688499 140.256163 
L 185.720022 140.212722 
L 185.845328 140.431607 
L 185.876852 140.419332 
L 185.971422 140.410833 
L 186.033681 140.512374 
L 186.065204 140.390359 
L 186.411174 140.316932 
L 186.599526 140.086974 
L 186.72562 139.882057 
L 186.913972 139.519155 
L 187.070801 139.737515 
L 187.291465 140.151229 
L 187.353724 140.270955 
L 187.511341 140.565975 
L 188.170969 140.688618 
L 188.360109 140.484449 
L 188.453891 140.51326 
L 188.485415 140.410976 
L 188.548462 140.346517 
L 189.14583 137.989175 
L 189.208089 138.043573 
L 189.459488 139.013311 
L 189.648629 139.751436 
L 189.680152 139.734919 
L 189.836981 139.969693 
L 189.868505 139.961139 
L 190.088381 140.365923 
L 190.119904 140.330371 
L 190.276733 140.566139 
L 190.591179 140.688618 
L 193.985464 140.584743 
L 194.551309 139.127102 
L 194.582833 139.18115 
L 194.645879 139.259886 
L 194.677403 139.140371 
L 195.054108 140.246303 
L 195.305507 140.573751 
L 195.463124 140.599101 
L 195.494648 140.403051 
L 195.556906 140.589296 
L 195.683 140.588561 
L 195.714523 140.504179 
L 195.77757 140.576631 
L 196.217322 140.627956 
L 196.343416 140.688618 
L 199.423254 140.612839 
L 199.580083 140.464708 
L 199.706177 140.420883 
L 199.7377 140.277712 
L 199.831482 140.299032 
L 199.989099 140.409339 
L 200.051358 140.410821 
L 200.082882 140.467827 
L 200.240499 140.584549 
L 200.523421 140.617188 
L 200.554945 140.472442 
L 200.617204 140.617745 
L 200.711774 140.688618 
L 200.837868 140.619817 
L 200.994697 140.629966 
L 201.151526 140.688618 
L 202.063341 140.59329 
L 202.440045 140.450978 
L 203.005891 140.688618 
L 203.791612 140.688618 
L 203.823136 140.559131 
L 203.886182 140.688618 
L 221.770208 140.61999 
L 222.052342 140.221182 
L 222.335265 140.312069 
L 222.524406 140.468986 
L 222.649711 140.619557 
L 223.15251 140.688618 
L 226.516059 140.583366 
L 226.672888 139.738188 
L 226.892764 136.39934 
L 227.238733 123.24825 
L 227.584703 108.356532 
L 227.615438 108.502553 
L 227.866838 116.293733 
L 228.275854 137.290832 
L 228.49573 139.848623 
L 228.778652 140.599009 
L 229.752726 140.688618 
L 230.476189 140.688618 
L 230.507712 140.542112 
L 230.569971 140.688618 
L 243.110776 140.589386 
L 243.456746 140.325763 
L 243.613575 140.020264 
L 243.864974 140.182963 
L 243.896498 140.05552 
L 243.959544 140.138204 
L 244.116373 140.39406 
L 244.17942 140.458001 
L 244.367773 140.579584 
L 245.876168 140.688618 
L 245.907692 140.624002 
L 245.970739 140.688618 
L 248.862225 140.688618 
L 248.862225 140.688618 
" style="fill:none;stroke:#000000;stroke-linecap:square;stroke-width:0.5;"/>
   </g>
   <g id="patch_8">
    <path d="M 25.653543 146.976378 
L 25.653543 8.645669 
" style="fill:none;stroke:#000000;stroke-linecap:square;stroke-linejoin:miter;stroke-width:0.8;"/>
   </g>
   <g id="patch_9">
    <path d="M 248.83937 146.976378 
L 248.83937 8.645669 
" style="fill:none;stroke:#000000;stroke-linecap:square;stroke-linejoin:miter;stroke-width:0.8;"/>
   </g>
   <g id="patch_10">
    <path d="M 25.653543 146.976378 
L 248.83937 146.976378 
" style="fill:none;stroke:#000000;stroke-linecap:square;stroke-linejoin:miter;stroke-width:0.8;"/>
   </g>
   <g id="patch_11">
    <path d="M 25.653543 8.645669 
L 248.83937 8.645669 
" style="fill:none;stroke:#000000;stroke-linecap:square;stroke-linejoin:miter;stroke-width:0.8;"/>
   </g>
  </g>
 </g>
 <defs>
  <clipPath id="pa63a580cfa">
   <rect height="138.330709" width="223.185827" x="25.653543" y="8.645669"/>
  </clipPath>
 </defs>
</svg>
