<?xml version="1.0" encoding="utf-8" standalone="no"?>
<!DOCTYPE svg PUBLIC "-//W3C//DTD SVG 1.1//EN"
  "http://www.w3.org/Graphics/SVG/1.1/DTD/svg11.dtd">
<svg height="177.732283pt" version="1.1" viewBox="0 0 254.125984 177.732283" width="254.125984pt" xmlns="http://www.w3.org/2000/svg" xmlns:xlink="http://www.w3.org/1999/xlink">
 <metadata>
  <rdf:RDF xmlns:cc="http://creativecommons.org/ns#" xmlns:dc="http://purl.org/dc/elements/1.1/" xmlns:rdf="http://www.w3.org/1999/02/22-rdf-syntax-ns#">
   <cc:Work>
    <dc:type rdf:resource="http://purl.org/dc/dcmitype/StillImage"/>
    <dc:date>2021-10-13T15:33:25.468298</dc:date>
    <dc:format>image/svg+xml</dc:format>
    <dc:creator>
     <cc:Agent>
      <dc:title>Matplotlib v3.4.2, https://matplotlib.org/</dc:title>
     </cc:Agent>
    </dc:creator>
   </cc:Work>
  </rdf:RDF>
 </metadata>
 <defs>
  <style type="text/css">*{stroke-linecap:butt;stroke-linejoin:round;}</style>
 </defs>
 <g id="figure_1">
  <g id="patch_1">
   <path d="M 0 177.732283 
L 254.125984 177.732283 
L 254.125984 0 
L 0 0 
z
" style="fill:#ffffff;"/>
  </g>
  <g id="axes_1">
   <g id="patch_2">
    <path d="M 50.825197 142.185827 
L 228.713386 142.185827 
L 228.713386 17.773228 
L 50.825197 17.773228 
z
" style="fill:#ffffff;"/>
   </g>
   <g id="PathCollection_1">
    <defs>
     <path d="M 0 3 
C 0.795609 3 1.55874 2.683901 2.12132 2.12132 
C 2.683901 1.55874 3 0.795609 3 0 
C 3 -0.795609 2.683901 -1.55874 2.12132 -2.12132 
C 1.55874 -2.683901 0.795609 -3 0 -3 
C -0.795609 -3 -1.55874 -2.683901 -2.12132 -2.12132 
C -2.683901 -1.55874 -3 -0.795609 -3 0 
C -3 0.795609 -2.683901 1.55874 -2.12132 2.12132 
C -1.55874 2.683901 -0.795609 3 0 3 
z
" id="m260b22c67a" style="stroke:#1f77b4;stroke-opacity:0;"/>
    </defs>
    <g clip-path="url(#pc7948732aa)">
     <use style="fill:#1f77b4;fill-opacity:0;stroke:#1f77b4;stroke-opacity:0;" x="110.702594" xlink:href="#m260b22c67a" y="62.547818"/>
     <use style="fill:#1f77b4;fill-opacity:0;stroke:#1f77b4;stroke-opacity:0;" x="75.822557" xlink:href="#m260b22c67a" y="94.422944"/>
     <use style="fill:#1f77b4;fill-opacity:0;stroke:#1f77b4;stroke-opacity:0;" x="75.822557" xlink:href="#m260b22c67a" y="30.672693"/>
     <use style="fill:#1f77b4;fill-opacity:0;stroke:#1f77b4;stroke-opacity:0;" x="157.20931" xlink:href="#m260b22c67a" y="94.422944"/>
     <use style="fill:#1f77b4;fill-opacity:0;stroke:#1f77b4;stroke-opacity:0;" x="157.20931" xlink:href="#m260b22c67a" y="30.672693"/>
     <use style="fill:#1f77b4;fill-opacity:0;stroke:#1f77b4;stroke-opacity:0;" x="87.449236" xlink:href="#m260b22c67a" y="129.286362"/>
     <use style="fill:#1f77b4;fill-opacity:0;stroke:#1f77b4;stroke-opacity:0;" x="203.716026" xlink:href="#m260b22c67a" y="104.38392"/>
     <use style="fill:#1f77b4;fill-opacity:0;stroke:#1f77b4;stroke-opacity:0;" x="203.716026" xlink:href="#m260b22c67a" y="104.38392"/>
    </g>
   </g>
   <g id="matplotlib.axis_1">
    <g id="xtick_1">
     <g id="line2d_1">
      <defs>
       <path d="M 0 0 
L 0 2 
" id="me751539295" style="stroke:#000000;stroke-width:0.8;"/>
      </defs>
      <g>
       <use style="stroke:#000000;stroke-width:0.8;" x="64.195878" xlink:href="#me751539295" y="142.185827"/>
      </g>
     </g>
     <g id="text_1">
      <!-- 0 -->
      <g transform="translate(61.014628 155.284264)scale(0.1 -0.1)">
       <defs>
        <path d="M 2034 4250 
Q 1547 4250 1301 3770 
Q 1056 3291 1056 2328 
Q 1056 1369 1301 889 
Q 1547 409 2034 409 
Q 2525 409 2770 889 
Q 3016 1369 3016 2328 
Q 3016 3291 2770 3770 
Q 2525 4250 2034 4250 
z
M 2034 4750 
Q 2819 4750 3233 4129 
Q 3647 3509 3647 2328 
Q 3647 1150 3233 529 
Q 2819 -91 2034 -91 
Q 1250 -91 836 529 
Q 422 1150 422 2328 
Q 422 3509 836 4129 
Q 1250 4750 2034 4750 
z
" id="DejaVuSans-30" transform="scale(0.015625)"/>
       </defs>
       <use xlink:href="#DejaVuSans-30"/>
      </g>
     </g>
    </g>
    <g id="xtick_2">
     <g id="line2d_2">
      <g>
       <use style="stroke:#000000;stroke-width:0.8;" x="110.702594" xlink:href="#me751539295" y="142.185827"/>
      </g>
     </g>
     <g id="text_2">
      <!-- 10 -->
      <g transform="translate(104.340094 155.284264)scale(0.1 -0.1)">
       <defs>
        <path d="M 794 531 
L 1825 531 
L 1825 4091 
L 703 3866 
L 703 4441 
L 1819 4666 
L 2450 4666 
L 2450 531 
L 3481 531 
L 3481 0 
L 794 0 
L 794 531 
z
" id="DejaVuSans-31" transform="scale(0.015625)"/>
       </defs>
       <use xlink:href="#DejaVuSans-31"/>
       <use x="63.623047" xlink:href="#DejaVuSans-30"/>
      </g>
     </g>
    </g>
    <g id="xtick_3">
     <g id="line2d_3">
      <g>
       <use style="stroke:#000000;stroke-width:0.8;" x="157.20931" xlink:href="#me751539295" y="142.185827"/>
      </g>
     </g>
     <g id="text_3">
      <!-- 20 -->
      <g transform="translate(150.84681 155.284264)scale(0.1 -0.1)">
       <defs>
        <path d="M 1228 531 
L 3431 531 
L 3431 0 
L 469 0 
L 469 531 
Q 828 903 1448 1529 
Q 2069 2156 2228 2338 
Q 2531 2678 2651 2914 
Q 2772 3150 2772 3378 
Q 2772 3750 2511 3984 
Q 2250 4219 1831 4219 
Q 1534 4219 1204 4116 
Q 875 4013 500 3803 
L 500 4441 
Q 881 4594 1212 4672 
Q 1544 4750 1819 4750 
Q 2544 4750 2975 4387 
Q 3406 4025 3406 3419 
Q 3406 3131 3298 2873 
Q 3191 2616 2906 2266 
Q 2828 2175 2409 1742 
Q 1991 1309 1228 531 
z
" id="DejaVuSans-32" transform="scale(0.015625)"/>
       </defs>
       <use xlink:href="#DejaVuSans-32"/>
       <use x="63.623047" xlink:href="#DejaVuSans-30"/>
      </g>
     </g>
    </g>
    <g id="xtick_4">
     <g id="line2d_4">
      <g>
       <use style="stroke:#000000;stroke-width:0.8;" x="203.716026" xlink:href="#me751539295" y="142.185827"/>
      </g>
     </g>
     <g id="text_4">
      <!-- 30 -->
      <g transform="translate(197.353526 155.284264)scale(0.1 -0.1)">
       <defs>
        <path d="M 2597 2516 
Q 3050 2419 3304 2112 
Q 3559 1806 3559 1356 
Q 3559 666 3084 287 
Q 2609 -91 1734 -91 
Q 1441 -91 1130 -33 
Q 819 25 488 141 
L 488 750 
Q 750 597 1062 519 
Q 1375 441 1716 441 
Q 2309 441 2620 675 
Q 2931 909 2931 1356 
Q 2931 1769 2642 2001 
Q 2353 2234 1838 2234 
L 1294 2234 
L 1294 2753 
L 1863 2753 
Q 2328 2753 2575 2939 
Q 2822 3125 2822 3475 
Q 2822 3834 2567 4026 
Q 2313 4219 1838 4219 
Q 1578 4219 1281 4162 
Q 984 4106 628 3988 
L 628 4550 
Q 988 4650 1302 4700 
Q 1616 4750 1894 4750 
Q 2613 4750 3031 4423 
Q 3450 4097 3450 3541 
Q 3450 3153 3228 2886 
Q 3006 2619 2597 2516 
z
" id="DejaVuSans-33" transform="scale(0.015625)"/>
       </defs>
       <use xlink:href="#DejaVuSans-33"/>
       <use x="63.623047" xlink:href="#DejaVuSans-30"/>
      </g>
     </g>
    </g>
    <g id="text_5">
     <!-- [NaOH]/ mM -->
     <g transform="translate(108.909135 168.962389)scale(0.1 -0.1)">
      <defs>
       <path d="M 550 4863 
L 1875 4863 
L 1875 4416 
L 1125 4416 
L 1125 -397 
L 1875 -397 
L 1875 -844 
L 550 -844 
L 550 4863 
z
" id="DejaVuSans-5b" transform="scale(0.015625)"/>
       <path d="M 628 4666 
L 1478 4666 
L 3547 763 
L 3547 4666 
L 4159 4666 
L 4159 0 
L 3309 0 
L 1241 3903 
L 1241 0 
L 628 0 
L 628 4666 
z
" id="DejaVuSans-4e" transform="scale(0.015625)"/>
       <path d="M 2194 1759 
Q 1497 1759 1228 1600 
Q 959 1441 959 1056 
Q 959 750 1161 570 
Q 1363 391 1709 391 
Q 2188 391 2477 730 
Q 2766 1069 2766 1631 
L 2766 1759 
L 2194 1759 
z
M 3341 1997 
L 3341 0 
L 2766 0 
L 2766 531 
Q 2569 213 2275 61 
Q 1981 -91 1556 -91 
Q 1019 -91 701 211 
Q 384 513 384 1019 
Q 384 1609 779 1909 
Q 1175 2209 1959 2209 
L 2766 2209 
L 2766 2266 
Q 2766 2663 2505 2880 
Q 2244 3097 1772 3097 
Q 1472 3097 1187 3025 
Q 903 2953 641 2809 
L 641 3341 
Q 956 3463 1253 3523 
Q 1550 3584 1831 3584 
Q 2591 3584 2966 3190 
Q 3341 2797 3341 1997 
z
" id="DejaVuSans-61" transform="scale(0.015625)"/>
       <path d="M 2522 4238 
Q 1834 4238 1429 3725 
Q 1025 3213 1025 2328 
Q 1025 1447 1429 934 
Q 1834 422 2522 422 
Q 3209 422 3611 934 
Q 4013 1447 4013 2328 
Q 4013 3213 3611 3725 
Q 3209 4238 2522 4238 
z
M 2522 4750 
Q 3503 4750 4090 4092 
Q 4678 3434 4678 2328 
Q 4678 1225 4090 567 
Q 3503 -91 2522 -91 
Q 1538 -91 948 565 
Q 359 1222 359 2328 
Q 359 3434 948 4092 
Q 1538 4750 2522 4750 
z
" id="DejaVuSans-4f" transform="scale(0.015625)"/>
       <path d="M 628 4666 
L 1259 4666 
L 1259 2753 
L 3553 2753 
L 3553 4666 
L 4184 4666 
L 4184 0 
L 3553 0 
L 3553 2222 
L 1259 2222 
L 1259 0 
L 628 0 
L 628 4666 
z
" id="DejaVuSans-48" transform="scale(0.015625)"/>
       <path d="M 1947 4863 
L 1947 -844 
L 622 -844 
L 622 -397 
L 1369 -397 
L 1369 4416 
L 622 4416 
L 622 4863 
L 1947 4863 
z
" id="DejaVuSans-5d" transform="scale(0.015625)"/>
       <path d="M 1625 4666 
L 2156 4666 
L 531 -594 
L 0 -594 
L 1625 4666 
z
" id="DejaVuSans-2f" transform="scale(0.015625)"/>
       <path id="DejaVuSans-20" transform="scale(0.015625)"/>
       <path d="M 3328 2828 
Q 3544 3216 3844 3400 
Q 4144 3584 4550 3584 
Q 5097 3584 5394 3201 
Q 5691 2819 5691 2113 
L 5691 0 
L 5113 0 
L 5113 2094 
Q 5113 2597 4934 2840 
Q 4756 3084 4391 3084 
Q 3944 3084 3684 2787 
Q 3425 2491 3425 1978 
L 3425 0 
L 2847 0 
L 2847 2094 
Q 2847 2600 2669 2842 
Q 2491 3084 2119 3084 
Q 1678 3084 1418 2786 
Q 1159 2488 1159 1978 
L 1159 0 
L 581 0 
L 581 3500 
L 1159 3500 
L 1159 2956 
Q 1356 3278 1631 3431 
Q 1906 3584 2284 3584 
Q 2666 3584 2933 3390 
Q 3200 3197 3328 2828 
z
" id="DejaVuSans-6d" transform="scale(0.015625)"/>
       <path d="M 628 4666 
L 1569 4666 
L 2759 1491 
L 3956 4666 
L 4897 4666 
L 4897 0 
L 4281 0 
L 4281 4097 
L 3078 897 
L 2444 897 
L 1241 4097 
L 1241 0 
L 628 0 
L 628 4666 
z
" id="DejaVuSans-4d" transform="scale(0.015625)"/>
      </defs>
      <use xlink:href="#DejaVuSans-5b"/>
      <use x="39.013672" xlink:href="#DejaVuSans-4e"/>
      <use x="113.818359" xlink:href="#DejaVuSans-61"/>
      <use x="175.097656" xlink:href="#DejaVuSans-4f"/>
      <use x="253.808594" xlink:href="#DejaVuSans-48"/>
      <use x="329.003906" xlink:href="#DejaVuSans-5d"/>
      <use x="368.017578" xlink:href="#DejaVuSans-2f"/>
      <use x="401.708984" xlink:href="#DejaVuSans-20"/>
      <use x="433.496094" xlink:href="#DejaVuSans-6d"/>
      <use x="530.908203" xlink:href="#DejaVuSans-4d"/>
     </g>
    </g>
   </g>
   <g id="matplotlib.axis_2">
    <g id="ytick_1">
     <g id="line2d_5">
      <defs>
       <path d="M 0 0 
L -2 0 
" id="m800d152f7d" style="stroke:#000000;stroke-width:0.8;"/>
      </defs>
      <g>
       <use style="stroke:#000000;stroke-width:0.8;" x="50.825197" xlink:href="#m800d152f7d" y="134.26685"/>
      </g>
     </g>
     <g id="text_6">
      <!-- 0 -->
      <g transform="translate(38.962697 138.066069)scale(0.1 -0.1)">
       <use xlink:href="#DejaVuSans-30"/>
      </g>
     </g>
    </g>
    <g id="ytick_2">
     <g id="line2d_6">
      <g>
       <use style="stroke:#000000;stroke-width:0.8;" x="50.825197" xlink:href="#m800d152f7d" y="94.422944"/>
      </g>
     </g>
     <g id="text_7">
      <!-- 20 -->
      <g transform="translate(32.600197 98.222162)scale(0.1 -0.1)">
       <use xlink:href="#DejaVuSans-32"/>
       <use x="63.623047" xlink:href="#DejaVuSans-30"/>
      </g>
     </g>
    </g>
    <g id="ytick_3">
     <g id="line2d_7">
      <g>
       <use style="stroke:#000000;stroke-width:0.8;" x="50.825197" xlink:href="#m800d152f7d" y="54.579037"/>
      </g>
     </g>
     <g id="text_8">
      <!-- 40 -->
      <g transform="translate(32.600197 58.378256)scale(0.1 -0.1)">
       <defs>
        <path d="M 2419 4116 
L 825 1625 
L 2419 1625 
L 2419 4116 
z
M 2253 4666 
L 3047 4666 
L 3047 1625 
L 3713 1625 
L 3713 1100 
L 3047 1100 
L 3047 0 
L 2419 0 
L 2419 1100 
L 313 1100 
L 313 1709 
L 2253 4666 
z
" id="DejaVuSans-34" transform="scale(0.015625)"/>
       </defs>
       <use xlink:href="#DejaVuSans-34"/>
       <use x="63.623047" xlink:href="#DejaVuSans-30"/>
      </g>
     </g>
    </g>
    <g id="text_9">
     <!-- [CaCl$_2$]/ mM -->
     <g transform="translate(26.520509 110.229528)rotate(-90)scale(0.1 -0.1)">
      <defs>
       <path d="M 4122 4306 
L 4122 3641 
Q 3803 3938 3442 4084 
Q 3081 4231 2675 4231 
Q 1875 4231 1450 3742 
Q 1025 3253 1025 2328 
Q 1025 1406 1450 917 
Q 1875 428 2675 428 
Q 3081 428 3442 575 
Q 3803 722 4122 1019 
L 4122 359 
Q 3791 134 3420 21 
Q 3050 -91 2638 -91 
Q 1578 -91 968 557 
Q 359 1206 359 2328 
Q 359 3453 968 4101 
Q 1578 4750 2638 4750 
Q 3056 4750 3426 4639 
Q 3797 4528 4122 4306 
z
" id="DejaVuSans-43" transform="scale(0.015625)"/>
       <path d="M 603 4863 
L 1178 4863 
L 1178 0 
L 603 0 
L 603 4863 
z
" id="DejaVuSans-6c" transform="scale(0.015625)"/>
      </defs>
      <use transform="translate(0 0.015625)" xlink:href="#DejaVuSans-5b"/>
      <use transform="translate(39.013672 0.015625)" xlink:href="#DejaVuSans-43"/>
      <use transform="translate(108.837891 0.015625)" xlink:href="#DejaVuSans-61"/>
      <use transform="translate(170.117188 0.015625)" xlink:href="#DejaVuSans-43"/>
      <use transform="translate(239.941406 0.015625)" xlink:href="#DejaVuSans-6c"/>
      <use transform="translate(268.681641 -16.390625)scale(0.7)" xlink:href="#DejaVuSans-32"/>
      <use transform="translate(315.952148 0.015625)" xlink:href="#DejaVuSans-5d"/>
      <use transform="translate(354.96582 0.015625)" xlink:href="#DejaVuSans-2f"/>
      <use transform="translate(388.657227 0.015625)" xlink:href="#DejaVuSans-20"/>
      <use transform="translate(420.444336 0.015625)" xlink:href="#DejaVuSans-6d"/>
      <use transform="translate(517.856445 0.015625)" xlink:href="#DejaVuSans-4d"/>
     </g>
    </g>
   </g>
   <g id="line2d_8">
    <path clip-path="url(#pc7948732aa)" d="M 65.126012 114.344897 
L 70.51134 -1 
" style="fill:none;stroke:#000000;stroke-dasharray:1.85,0.8;stroke-dashoffset:0;stroke-opacity:0.5;stroke-width:0.5;"/>
   </g>
   <g id="line2d_9">
    <path clip-path="url(#pc7948732aa)" d="M 65.126012 132.274655 
L 75.822557 109.364409 
L 127.350498 -1 
" style="fill:none;stroke:#000000;stroke-dasharray:1.85,0.8;stroke-dashoffset:0;stroke-opacity:0.5;stroke-width:0.5;"/>
   </g>
   <g id="line2d_10">
    <path clip-path="url(#pc7948732aa)" d="M 65.126012 133.469972 
L 75.822557 124.305874 
L 203.716026 14.73513 
" style="fill:none;stroke:#000000;stroke-dasharray:1.85,0.8;stroke-dashoffset:0;stroke-opacity:0.5;stroke-width:0.5;"/>
   </g>
   <g id="line2d_11">
    <path clip-path="url(#pc7948732aa)" d="M 65.126012 134.067631 
L 75.822557 131.776606 
L 203.716026 104.38392 
" style="fill:none;stroke:#000000;stroke-dasharray:1.85,0.8;stroke-dashoffset:0;stroke-opacity:0.5;stroke-width:0.5;"/>
   </g>
   <g id="patch_3">
    <path d="M 50.825197 142.185827 
L 50.825197 17.773228 
" style="fill:none;stroke:#000000;stroke-linecap:square;stroke-linejoin:miter;stroke-width:0.8;"/>
   </g>
   <g id="patch_4">
    <path d="M 228.713386 142.185827 
L 228.713386 17.773228 
" style="fill:none;stroke:#000000;stroke-linecap:square;stroke-linejoin:miter;stroke-width:0.8;"/>
   </g>
   <g id="patch_5">
    <path d="M 50.825197 142.185827 
L 228.713386 142.185827 
" style="fill:none;stroke:#000000;stroke-linecap:square;stroke-linejoin:miter;stroke-width:0.8;"/>
   </g>
   <g id="patch_6">
    <path d="M 50.825197 17.773228 
L 228.713386 17.773228 
" style="fill:none;stroke:#000000;stroke-linecap:square;stroke-linejoin:miter;stroke-width:0.8;"/>
   </g>
   <g id="axes_2">
    <g id="patch_7">
     <path d="M 122.815141 62.547818 
C 122.815141 62.494482 122.814789 62.441146 122.814085 62.387814 
C 122.81338 62.334482 122.812323 62.281155 122.810914 62.227837 
L 110.702594 62.547818 
L 122.815141 62.547818 
z
" style="fill:#e0e3e1;stroke:#000000;stroke-linejoin:miter;stroke-width:0.1;"/>
    </g>
    <g id="patch_8">
     <path d="M 122.810914 62.227837 
C 122.80417 61.972629 122.789359 61.717698 122.766503 61.463427 
C 122.743647 61.209155 122.712758 60.95567 122.673882 60.70335 
L 110.702594 62.547818 
L 122.810914 62.227837 
z
" style="fill:#e0e3e1;stroke:#000000;stroke-linejoin:miter;stroke-width:0.1;"/>
    </g>
    <g id="patch_9">
     <path d="M 122.673882 60.70335 
C 122.385292 58.830292 121.661095 57.050846 120.559717 55.508576 
C 119.458339 53.966306 118.010219 52.703833 116.332189 51.823012 
C 114.654159 50.942192 112.792593 50.467365 110.897679 50.436842 
C 109.002765 50.406318 107.126871 50.820941 105.421342 51.647259 
L 110.702594 62.547818 
L 122.673882 60.70335 
z
" style="fill:#44aaaa;stroke:#000000;stroke-linejoin:miter;stroke-width:0.1;"/>
    </g>
    <g id="patch_10">
     <path d="M 105.421342 51.647259 
C 105.421342 51.647259 105.421342 51.647259 105.421342 51.647259 
L 110.702594 62.547818 
L 105.421342 51.647259 
z
" style="fill:#77aadd;stroke:#000000;stroke-linejoin:miter;stroke-width:0.1;"/>
    </g>
    <g id="patch_11">
     <path d="M 105.421342 51.647259 
C 102.812804 52.911079 100.742634 55.070203 99.589613 57.729574 
C 98.436592 60.388946 98.275611 63.375834 99.136123 66.143727 
L 110.702594 62.547818 
L 105.421342 51.647259 
z
" style="fill:#117777;stroke:#000000;stroke-linejoin:miter;stroke-width:0.1;"/>
    </g>
    <g id="patch_12">
     <path d="M 99.136123 66.143727 
C 99.136123 66.143727 99.136123 66.143727 99.136123 66.143727 
L 110.702594 62.547818 
L 99.136123 66.143727 
z
" style="fill:#525fb7;stroke:#000000;stroke-linejoin:miter;stroke-width:0.1;"/>
    </g>
    <g id="patch_13">
     <path d="M 99.136123 66.143727 
C 99.136123 66.143727 99.136123 66.143727 99.136123 66.143727 
L 110.702594 62.547818 
L 99.136123 66.143727 
z
" style="fill:#a3604b;stroke:#000000;stroke-linejoin:miter;stroke-width:0.1;"/>
    </g>
    <g id="patch_14">
     <path d="M 99.136123 66.143727 
C 99.36587 66.882723 99.665912 67.598002 100.032132 68.279751 
C 100.398352 68.961499 100.829067 69.606584 101.318367 70.206154 
L 110.702594 62.547818 
L 99.136123 66.143727 
z
" style="fill:#a3604b;stroke:#000000;stroke-linejoin:miter;stroke-width:0.1;"/>
    </g>
    <g id="patch_15">
     <path d="M 101.318367 70.206154 
C 101.328805 70.218944 101.339269 70.231713 101.34976 70.244461 
C 101.36025 70.257208 101.370766 70.269934 101.381308 70.282639 
L 110.702594 62.547818 
L 101.318367 70.206154 
z
" style="fill:#f53f06;stroke:#000000;stroke-linejoin:miter;stroke-width:0.1;"/>
    </g>
    <g id="patch_16">
     <path d="M 101.381308 70.282639 
C 101.381308 70.282639 101.381308 70.282639 101.381308 70.282639 
L 110.702594 62.547818 
L 101.381308 70.282639 
z
" style="fill:#f53f06;stroke:#000000;stroke-linejoin:miter;stroke-width:0.1;"/>
    </g>
    <g id="patch_17">
     <path d="M 101.381308 70.282639 
C 101.381308 70.282639 101.381308 70.282639 101.381308 70.282639 
L 110.702594 62.547818 
L 101.381308 70.282639 
z
" style="fill:#dd7790;stroke:#000000;stroke-linejoin:miter;stroke-width:0.1;"/>
    </g>
    <g id="patch_18">
     <path d="M 101.381308 70.282639 
C 102.90346 72.116994 104.933751 73.461849 107.216551 74.147875 
C 109.49935 74.833901 111.934655 74.831044 114.215839 74.139665 
L 110.702594 62.547818 
L 101.381308 70.282639 
z
" style="fill:#771124;stroke:#000000;stroke-linejoin:miter;stroke-width:0.1;"/>
    </g>
    <g id="patch_19">
     <path d="M 114.215839 74.139665 
C 114.215839 74.139665 114.215839 74.139665 114.215839 74.139665 
L 110.702594 62.547818 
L 114.215839 74.139665 
z
" style="fill:#eeb29f;stroke:#000000;stroke-linejoin:miter;stroke-width:0.1;"/>
    </g>
    <g id="patch_20">
     <path d="M 114.215839 74.139665 
C 114.75266 73.976966 115.27753 73.777173 115.78666 73.541729 
C 116.29579 73.306285 116.787951 73.035758 117.259587 72.732103 
L 110.702594 62.547818 
L 114.215839 74.139665 
z
" style="fill:#eeb29f;stroke:#000000;stroke-linejoin:miter;stroke-width:0.1;"/>
    </g>
    <g id="patch_21">
     <path d="M 117.259587 72.732103 
C 117.259587 72.732103 117.259587 72.732103 117.259587 72.732103 
L 110.702594 62.547818 
L 117.259587 72.732103 
z
" style="fill:#ff0240;stroke:#000000;stroke-linejoin:miter;stroke-width:0.1;"/>
    </g>
    <g id="patch_22">
     <path d="M 117.259587 72.732103 
C 117.259587 72.732103 117.259587 72.732103 117.259587 72.732103 
L 110.702594 62.547818 
L 117.259587 72.732103 
z
" style="fill:#d0d1df;stroke:#000000;stroke-linejoin:miter;stroke-width:0.1;"/>
    </g>
    <g id="patch_23">
     <path d="M 117.259587 72.732103 
C 117.259683 72.732041 117.25978 72.731979 117.259876 72.731917 
C 117.259973 72.731855 117.260069 72.731792 117.260166 72.73173 
L 110.702594 62.547818 
L 117.259587 72.732103 
z
" style="fill:#6ef1c9;stroke:#000000;stroke-linejoin:miter;stroke-width:0.1;"/>
    </g>
    <g id="patch_24">
     <path d="M 117.260166 72.73173 
C 117.598993 72.513554 117.926722 72.278604 118.242128 72.027757 
C 118.557534 71.77691 118.860224 71.510479 119.14907 71.229457 
L 110.702594 62.547818 
L 117.260166 72.73173 
z
" style="fill:#6ef1c9;stroke:#000000;stroke-linejoin:miter;stroke-width:0.1;"/>
    </g>
    <g id="patch_25">
     <path d="M 119.14907 71.229457 
C 119.384897 71.000018 119.611276 70.761066 119.827646 70.513195 
C 120.044016 70.265324 120.250196 70.00874 120.445674 69.744081 
L 110.702594 62.547818 
L 119.14907 71.229457 
z
" style="fill:#6ef1c9;stroke:#000000;stroke-linejoin:miter;stroke-width:0.1;"/>
    </g>
    <g id="patch_26">
     <path d="M 120.445674 69.744081 
C 120.735557 69.351606 121.001461 68.941973 121.241931 68.517423 
C 121.482402 68.092872 121.696999 67.654179 121.884551 67.203743 
L 110.702594 62.547818 
L 120.445674 69.744081 
z
" style="fill:#689285;stroke:#000000;stroke-linejoin:miter;stroke-width:0.1;"/>
    </g>
    <g id="patch_27">
     <path d="M 121.884551 67.203743 
C 121.884551 67.203743 121.884551 67.203743 121.884551 67.203743 
L 110.702594 62.547818 
L 121.884551 67.203743 
z
" style="fill:#428317;stroke:#000000;stroke-linejoin:miter;stroke-width:0.1;"/>
    </g>
    <g id="patch_28">
     <path d="M 121.884551 67.203743 
C 122.190962 66.467849 122.42398 65.703501 122.580216 64.921825 
C 122.736451 64.140149 122.815141 63.344955 122.815141 62.547819 
L 110.702594 62.547818 
L 121.884551 67.203743 
z
" style="fill:#428317;stroke:#000000;stroke-linejoin:miter;stroke-width:0.1;"/>
    </g>
    <g id="patch_29">
     <path d="M 122.815141 62.547819 
C 122.815141 62.547819 122.815141 62.547819 122.815141 62.547819 
L 110.702594 62.547818 
L 122.815141 62.547819 
z
" style="fill:#106832;stroke:#000000;stroke-linejoin:miter;stroke-width:0.1;"/>
    </g>
    <g id="patch_30">
     <path d="M 122.815141 62.547819 
C 122.815141 62.547819 122.815141 62.547819 122.815141 62.547819 
L 110.702594 62.547818 
L 122.815141 62.547819 
z
" style="fill:#56a45e;stroke:#000000;stroke-linejoin:miter;stroke-width:0.1;"/>
    </g>
    <g id="patch_31">
     <path d="M 122.815141 62.547819 
C 122.815141 62.547819 122.815141 62.547819 122.815141 62.547819 
L 110.702594 62.547818 
L 122.815141 62.547819 
z
" style="fill:#7ac890;stroke:#000000;stroke-linejoin:miter;stroke-width:0.1;"/>
    </g>
    <g id="patch_32">
     <path d="M 122.815141 62.547819 
C 122.815141 62.547819 122.815141 62.547819 122.815141 62.547819 
L 110.702594 62.547818 
L 122.815141 62.547819 
z
" style="fill:#51a778;stroke:#000000;stroke-linejoin:miter;stroke-width:0.1;"/>
    </g>
    <g id="patch_33">
     <path d="M 122.815141 62.547819 
C 122.815141 62.547819 122.815141 62.547819 122.815141 62.547819 
L 110.702594 62.547818 
L 122.815141 62.547819 
z
" style="fill:#34be72;stroke:#000000;stroke-linejoin:miter;stroke-width:0.1;"/>
    </g>
    <g id="patch_34">
     <path d="M 122.815141 62.547819 
C 122.815141 62.547819 122.815141 62.547819 122.815141 62.547819 
L 110.702594 62.547818 
L 122.815141 62.547819 
z
" style="fill:#0ec460;stroke:#000000;stroke-linejoin:miter;stroke-width:0.1;"/>
    </g>
    <g id="patch_35">
     <path d="M 122.815141 62.547819 
C 122.815141 62.547819 122.815141 62.547819 122.815141 62.547819 
L 110.702594 62.547818 
L 122.815141 62.547819 
z
" style="fill:#069848;stroke:#000000;stroke-linejoin:miter;stroke-width:0.1;"/>
    </g>
    <g id="matplotlib.axis_3"/>
    <g id="matplotlib.axis_4"/>
   </g>
   <g id="axes_3">
    <g id="patch_36">
     <path d="M 87.935104 94.422944 
C 87.935104 94.421068 87.935104 94.419193 87.935103 94.417317 
C 87.935102 94.415442 87.935101 94.413567 87.935099 94.411691 
L 75.822557 94.422944 
L 87.935104 94.422944 
z
" style="fill:#e0e3e1;stroke:#000000;stroke-linejoin:miter;stroke-width:0.1;"/>
    </g>
    <g id="patch_37">
     <path d="M 87.935099 94.411691 
C 87.934975 94.277658 87.932625 94.143636 87.928052 94.009681 
C 87.923479 93.875726 87.916683 93.741856 87.907667 93.608126 
L 75.822557 94.422944 
L 87.935099 94.411691 
z
" style="fill:#e0e3e1;stroke:#000000;stroke-linejoin:miter;stroke-width:0.1;"/>
    </g>
    <g id="patch_38">
     <path d="M 87.907667 93.608126 
C 87.773703 91.621224 87.151788 89.697685 86.097185 88.008443 
C 85.042583 86.319201 83.587487 84.91582 81.861203 83.923012 
L 75.822557 94.422944 
L 87.907667 93.608126 
z
" style="fill:#44aaaa;stroke:#000000;stroke-linejoin:miter;stroke-width:0.1;"/>
    </g>
    <g id="patch_39">
     <path d="M 81.861203 83.923012 
C 81.860546 83.922634 81.85989 83.922257 81.859233 83.921879 
C 81.858576 83.921502 81.85792 83.921125 81.857263 83.920747 
L 75.822557 94.422944 
L 81.861203 83.923012 
z
" style="fill:#77aadd;stroke:#000000;stroke-linejoin:miter;stroke-width:0.1;"/>
    </g>
    <g id="patch_40">
     <path d="M 81.857263 83.920747 
C 80.351277 83.055387 78.676625 82.523997 76.947223 82.362723 
C 75.217821 82.201448 73.47379 82.414033 71.833766 82.986014 
C 70.193742 83.557996 68.695774 84.476104 67.441757 85.677888 
C 66.18774 86.879671 65.206769 88.337248 64.565572 89.951468 
C 63.924374 91.565689 63.637827 93.299103 63.725422 95.033798 
C 63.813017 96.768494 64.272722 98.464226 65.073265 100.005644 
C 65.873809 101.547063 66.996619 102.898407 68.365319 103.967754 
C 69.734018 105.037102 71.316853 105.799643 73.006153 106.203507 
L 75.822557 94.422944 
L 81.857263 83.920747 
z
" style="fill:#117777;stroke:#000000;stroke-linejoin:miter;stroke-width:0.1;"/>
    </g>
    <g id="patch_41">
     <path d="M 73.006153 106.203507 
C 73.007236 106.203766 73.008318 106.204025 73.009401 106.204283 
C 73.010484 106.204542 73.011567 106.2048 73.01265 106.205059 
L 75.822557 94.422944 
L 73.006153 106.203507 
z
" style="fill:#525fb7;stroke:#000000;stroke-linejoin:miter;stroke-width:0.1;"/>
    </g>
    <g id="patch_42">
     <path d="M 73.01265 106.205059 
C 73.015771 106.205803 73.018892 106.206546 73.022013 106.207288 
C 73.025135 106.20803 73.028256 106.20877 73.031378 106.209509 
L 75.822557 94.422944 
L 73.01265 106.205059 
z
" style="fill:#a3604b;stroke:#000000;stroke-linejoin:miter;stroke-width:0.1;"/>
    </g>
    <g id="patch_43">
     <path d="M 73.031378 106.209509 
C 73.32185 106.278296 73.614765 106.336321 73.909523 106.383467 
C 74.204282 106.430612 74.500683 106.466845 74.798118 106.492092 
L 75.822557 94.422944 
L 73.031378 106.209509 
z
" style="fill:#a3604b;stroke:#000000;stroke-linejoin:miter;stroke-width:0.1;"/>
    </g>
    <g id="patch_44">
     <path d="M 74.798118 106.492092 
C 74.798118 106.492092 74.798118 106.492092 74.798118 106.492092 
L 75.822557 94.422944 
L 74.798118 106.492092 
z
" style="fill:#f53f06;stroke:#000000;stroke-linejoin:miter;stroke-width:0.1;"/>
    </g>
    <g id="patch_45">
     <path d="M 74.798118 106.492092 
C 76.354868 106.62423 77.922581 106.45393 79.414645 105.990602 
C 80.90671 105.527273 82.295134 104.779608 83.503211 103.788912 
L 75.822557 94.422944 
L 74.798118 106.492092 
z
" style="fill:#f53f06;stroke:#000000;stroke-linejoin:miter;stroke-width:0.1;"/>
    </g>
    <g id="patch_46">
     <path d="M 83.503211 103.788912 
C 83.503211 103.788912 83.503211 103.788912 83.503211 103.788912 
L 75.822557 94.422944 
L 83.503211 103.788912 
z
" style="fill:#dd7790;stroke:#000000;stroke-linejoin:miter;stroke-width:0.1;"/>
    </g>
    <g id="patch_47">
     <path d="M 83.503211 103.788912 
C 84.450926 103.011729 85.275213 102.095184 85.947873 101.070633 
C 86.620533 100.046082 87.133807 98.925344 87.470134 97.74676 
L 75.822557 94.422944 
L 83.503211 103.788912 
z
" style="fill:#771124;stroke:#000000;stroke-linejoin:miter;stroke-width:0.1;"/>
    </g>
    <g id="patch_48">
     <path d="M 87.470134 97.74676 
C 87.470134 97.74676 87.470134 97.74676 87.470134 97.74676 
L 75.822557 94.422944 
L 87.470134 97.74676 
z
" style="fill:#eeb29f;stroke:#000000;stroke-linejoin:miter;stroke-width:0.1;"/>
    </g>
    <g id="patch_49">
     <path d="M 87.470134 97.74676 
C 87.470134 97.74676 87.470134 97.74676 87.470134 97.74676 
L 75.822557 94.422944 
L 87.470134 97.74676 
z
" style="fill:#eeb29f;stroke:#000000;stroke-linejoin:miter;stroke-width:0.1;"/>
    </g>
    <g id="patch_50">
     <path d="M 87.470134 97.74676 
C 87.470134 97.74676 87.470134 97.74676 87.470134 97.74676 
L 75.822557 94.422944 
L 87.470134 97.74676 
z
" style="fill:#ff0240;stroke:#000000;stroke-linejoin:miter;stroke-width:0.1;"/>
    </g>
    <g id="patch_51">
     <path d="M 87.470134 97.74676 
C 87.470134 97.74676 87.470134 97.74676 87.470134 97.74676 
L 75.822557 94.422944 
L 87.470134 97.74676 
z
" style="fill:#d0d1df;stroke:#000000;stroke-linejoin:miter;stroke-width:0.1;"/>
    </g>
    <g id="patch_52">
     <path d="M 87.470134 97.74676 
C 87.470512 97.745435 87.47089 97.74411 87.471268 97.742785 
C 87.471645 97.74146 87.472023 97.740135 87.4724 97.73881 
L 75.822557 94.422944 
L 87.470134 97.74676 
z
" style="fill:#6ef1c9;stroke:#000000;stroke-linejoin:miter;stroke-width:0.1;"/>
    </g>
    <g id="patch_53">
     <path d="M 87.4724 97.73881 
C 87.490412 97.675528 87.507907 97.6121 87.524886 97.548533 
C 87.541864 97.484966 87.558324 97.421262 87.574264 97.357427 
L 75.822557 94.422944 
L 87.4724 97.73881 
z
" style="fill:#6ef1c9;stroke:#000000;stroke-linejoin:miter;stroke-width:0.1;"/>
    </g>
    <g id="patch_54">
     <path d="M 87.574264 97.357427 
C 87.577629 97.343949 87.580972 97.330465 87.584291 97.316975 
C 87.58761 97.303485 87.590906 97.28999 87.594179 97.276489 
L 75.822557 94.422944 
L 87.574264 97.357427 
z
" style="fill:#6ef1c9;stroke:#000000;stroke-linejoin:miter;stroke-width:0.1;"/>
    </g>
    <g id="patch_55">
     <path d="M 87.594179 97.276489 
C 87.604639 97.233338 87.614862 97.19013 87.624847 97.146867 
C 87.634832 97.103604 87.644579 97.060286 87.654088 97.016915 
L 75.822557 94.422944 
L 87.594179 97.276489 
z
" style="fill:#689285;stroke:#000000;stroke-linejoin:miter;stroke-width:0.1;"/>
    </g>
    <g id="patch_56">
     <path d="M 87.654088 97.016915 
C 87.654088 97.016915 87.654088 97.016915 87.654088 97.016915 
L 75.822557 94.422944 
L 87.654088 97.016915 
z
" style="fill:#428317;stroke:#000000;stroke-linejoin:miter;stroke-width:0.1;"/>
    </g>
    <g id="patch_57">
     <path d="M 87.654088 97.016915 
C 87.746771 96.594169 87.816731 96.166759 87.863666 95.736525 
C 87.910601 95.306291 87.934443 94.87385 87.935091 94.441063 
L 75.822557 94.422944 
L 87.654088 97.016915 
z
" style="fill:#428317;stroke:#000000;stroke-linejoin:miter;stroke-width:0.1;"/>
    </g>
    <g id="patch_58">
     <path d="M 87.935091 94.441063 
C 87.935091 94.441063 87.935091 94.441063 87.935091 94.441063 
L 75.822557 94.422944 
L 87.935091 94.441063 
z
" style="fill:#106832;stroke:#000000;stroke-linejoin:miter;stroke-width:0.1;"/>
    </g>
    <g id="patch_59">
     <path d="M 87.935091 94.441063 
C 87.935091 94.441063 87.935091 94.441063 87.935091 94.441063 
L 75.822557 94.422944 
L 87.935091 94.441063 
z
" style="fill:#56a45e;stroke:#000000;stroke-linejoin:miter;stroke-width:0.1;"/>
    </g>
    <g id="patch_60">
     <path d="M 87.935091 94.441063 
C 87.935091 94.441063 87.935091 94.441063 87.935091 94.441063 
L 75.822557 94.422944 
L 87.935091 94.441063 
z
" style="fill:#7ac890;stroke:#000000;stroke-linejoin:miter;stroke-width:0.1;"/>
    </g>
    <g id="patch_61">
     <path d="M 87.935091 94.441063 
C 87.935092 94.439957 87.935094 94.438852 87.935095 94.437746 
C 87.935097 94.43664 87.935098 94.435535 87.935099 94.434429 
L 75.822557 94.422944 
L 87.935091 94.441063 
z
" style="fill:#51a778;stroke:#000000;stroke-linejoin:miter;stroke-width:0.1;"/>
    </g>
    <g id="patch_62">
     <path d="M 87.935099 94.434429 
C 87.9351 94.433638 87.9351 94.432847 87.935101 94.432056 
C 87.935102 94.431265 87.935102 94.430474 87.935102 94.429683 
L 75.822557 94.422944 
L 87.935099 94.434429 
z
" style="fill:#34be72;stroke:#000000;stroke-linejoin:miter;stroke-width:0.1;"/>
    </g>
    <g id="patch_63">
     <path d="M 87.935102 94.429683 
C 87.935103 94.42856 87.935104 94.427438 87.935104 94.426315 
C 87.935104 94.425192 87.935104 94.424069 87.935104 94.422947 
L 75.822557 94.422944 
L 87.935102 94.429683 
z
" style="fill:#0ec460;stroke:#000000;stroke-linejoin:miter;stroke-width:0.1;"/>
    </g>
    <g id="patch_64">
     <path d="M 87.935104 94.422947 
C 87.935104 94.422947 87.935104 94.422947 87.935104 94.422947 
L 75.822557 94.422944 
L 87.935104 94.422947 
z
" style="fill:#069848;stroke:#000000;stroke-linejoin:miter;stroke-width:0.1;"/>
    </g>
    <g id="matplotlib.axis_5"/>
    <g id="matplotlib.axis_6"/>
   </g>
   <g id="axes_4">
    <g id="patch_65">
     <path d="M 87.935104 30.672693 
C 87.935104 30.671373 87.935104 30.670053 87.935104 30.668732 
C 87.935103 30.667412 87.935103 30.666092 87.935102 30.664772 
L 75.822557 30.672693 
L 87.935104 30.672693 
z
" style="fill:#e0e3e1;stroke:#000000;stroke-linejoin:miter;stroke-width:0.1;"/>
    </g>
    <g id="patch_66">
     <path d="M 87.935102 30.664772 
C 87.935102 30.664772 87.935102 30.664772 87.935102 30.664772 
L 75.822557 30.672693 
L 87.935102 30.664772 
z
" style="fill:#e0e3e1;stroke:#000000;stroke-linejoin:miter;stroke-width:0.1;"/>
    </g>
    <g id="patch_67">
     <path d="M 87.935102 30.664772 
C 87.934352 29.518046 87.770761 28.377216 87.449233 27.276489 
C 87.127706 26.175762 86.651489 25.126252 86.034862 24.159427 
L 75.822557 30.672693 
L 87.935102 30.664772 
z
" style="fill:#44aaaa;stroke:#000000;stroke-linejoin:miter;stroke-width:0.1;"/>
    </g>
    <g id="patch_68">
     <path d="M 86.034862 24.159427 
C 86.034862 24.159427 86.034862 24.159427 86.034862 24.159427 
L 75.822557 30.672693 
L 86.034862 24.159427 
z
" style="fill:#77aadd;stroke:#000000;stroke-linejoin:miter;stroke-width:0.1;"/>
    </g>
    <g id="patch_69">
     <path d="M 86.034862 24.159427 
C 84.82362 22.260292 83.106296 20.736155 81.076738 19.75906 
C 79.04718 18.781964 76.784738 18.39011 74.544792 18.62773 
C 72.304846 18.86535 70.174971 19.723154 68.395584 21.104314 
C 66.616197 22.485474 65.256866 24.33599 64.47103 26.446981 
C 63.685193 28.557972 63.503576 30.846904 63.946678 33.055406 
C 64.38978 35.263908 65.440278 37.305635 66.979593 38.95012 
C 68.518908 40.594605 70.486857 41.777554 72.661303 42.365438 
C 74.835748 42.953322 77.131676 42.923156 79.289925 42.278345 
L 75.822557 30.672693 
L 86.034862 24.159427 
z
" style="fill:#117777;stroke:#000000;stroke-linejoin:miter;stroke-width:0.1;"/>
    </g>
    <g id="patch_70">
     <path d="M 79.289925 42.278345 
C 79.295225 42.276762 79.300523 42.275175 79.30582 42.273585 
C 79.311117 42.271994 79.316414 42.2704 79.321709 42.268802 
L 75.822557 30.672693 
L 79.289925 42.278345 
z
" style="fill:#525fb7;stroke:#000000;stroke-linejoin:miter;stroke-width:0.1;"/>
    </g>
    <g id="patch_71">
     <path d="M 79.321709 42.268802 
C 79.321709 42.268802 79.321709 42.268802 79.321709 42.268802 
L 75.822557 30.672693 
L 79.321709 42.268802 
z
" style="fill:#a3604b;stroke:#000000;stroke-linejoin:miter;stroke-width:0.1;"/>
    </g>
    <g id="patch_72">
     <path d="M 79.321709 42.268802 
C 79.385787 42.249466 79.449705 42.2296 79.513454 42.209204 
C 79.577204 42.188809 79.640783 42.167885 79.704185 42.146436 
L 75.822557 30.672693 
L 79.321709 42.268802 
z
" style="fill:#a3604b;stroke:#000000;stroke-linejoin:miter;stroke-width:0.1;"/>
    </g>
    <g id="patch_73">
     <path d="M 79.704185 42.146436 
C 79.704185 42.146436 79.704185 42.146436 79.704185 42.146436 
L 75.822557 30.672693 
L 79.704185 42.146436 
z
" style="fill:#f53f06;stroke:#000000;stroke-linejoin:miter;stroke-width:0.1;"/>
    </g>
    <g id="patch_74">
     <path d="M 79.704185 42.146436 
C 81.437341 41.5601 83.015328 40.588613 84.319295 39.305146 
C 85.623262 38.021679 86.61963 36.459284 87.233354 34.735636 
L 75.822557 30.672693 
L 79.704185 42.146436 
z
" style="fill:#f53f06;stroke:#000000;stroke-linejoin:miter;stroke-width:0.1;"/>
    </g>
    <g id="patch_75">
     <path d="M 87.233354 34.735636 
C 87.233354 34.735636 87.233354 34.735636 87.233354 34.735636 
L 75.822557 30.672693 
L 87.233354 34.735636 
z
" style="fill:#dd7790;stroke:#000000;stroke-linejoin:miter;stroke-width:0.1;"/>
    </g>
    <g id="patch_76">
     <path d="M 87.233354 34.735636 
C 87.465127 34.084702 87.640776 33.415128 87.758378 32.734243 
C 87.87598 32.053359 87.935104 31.363659 87.935104 30.672693 
L 75.822557 30.672693 
L 87.233354 34.735636 
z
" style="fill:#771124;stroke:#000000;stroke-linejoin:miter;stroke-width:0.1;"/>
    </g>
    <g id="patch_77">
     <path d="M 87.935104 30.672693 
C 87.935104 30.672693 87.935104 30.672693 87.935104 30.672693 
L 75.822557 30.672693 
L 87.935104 30.672693 
z
" style="fill:#eeb29f;stroke:#000000;stroke-linejoin:miter;stroke-width:0.1;"/>
    </g>
    <g id="patch_78">
     <path d="M 87.935104 30.672693 
C 87.935104 30.672693 87.935104 30.672693 87.935104 30.672693 
L 75.822557 30.672693 
L 87.935104 30.672693 
z
" style="fill:#eeb29f;stroke:#000000;stroke-linejoin:miter;stroke-width:0.1;"/>
    </g>
    <g id="patch_79">
     <path d="M 87.935104 30.672693 
C 87.935104 30.672693 87.935104 30.672693 87.935104 30.672693 
L 75.822557 30.672693 
L 87.935104 30.672693 
z
" style="fill:#ff0240;stroke:#000000;stroke-linejoin:miter;stroke-width:0.1;"/>
    </g>
    <g id="patch_80">
     <path d="M 87.935104 30.672693 
C 87.935104 30.672693 87.935104 30.672693 87.935104 30.672693 
L 75.822557 30.672693 
L 87.935104 30.672693 
z
" style="fill:#d0d1df;stroke:#000000;stroke-linejoin:miter;stroke-width:0.1;"/>
    </g>
    <g id="patch_81">
     <path d="M 87.935104 30.672693 
C 87.935104 30.672693 87.935104 30.672693 87.935104 30.672693 
L 75.822557 30.672693 
L 87.935104 30.672693 
z
" style="fill:#6ef1c9;stroke:#000000;stroke-linejoin:miter;stroke-width:0.1;"/>
    </g>
    <g id="patch_82">
     <path d="M 87.935104 30.672693 
C 87.935104 30.672693 87.935104 30.672693 87.935104 30.672693 
L 75.822557 30.672693 
L 87.935104 30.672693 
z
" style="fill:#6ef1c9;stroke:#000000;stroke-linejoin:miter;stroke-width:0.1;"/>
    </g>
    <g id="patch_83">
     <path d="M 87.935104 30.672693 
C 87.935104 30.672693 87.935104 30.672693 87.935104 30.672693 
L 75.822557 30.672693 
L 87.935104 30.672693 
z
" style="fill:#6ef1c9;stroke:#000000;stroke-linejoin:miter;stroke-width:0.1;"/>
    </g>
    <g id="patch_84">
     <path d="M 87.935104 30.672693 
C 87.935104 30.672693 87.935104 30.672693 87.935104 30.672693 
L 75.822557 30.672693 
L 87.935104 30.672693 
z
" style="fill:#689285;stroke:#000000;stroke-linejoin:miter;stroke-width:0.1;"/>
    </g>
    <g id="patch_85">
     <path d="M 87.935104 30.672693 
C 87.935104 30.672693 87.935104 30.672693 87.935104 30.672693 
L 75.822557 30.672693 
L 87.935104 30.672693 
z
" style="fill:#428317;stroke:#000000;stroke-linejoin:miter;stroke-width:0.1;"/>
    </g>
    <g id="patch_86">
     <path d="M 87.935104 30.672693 
C 87.935104 30.672693 87.935104 30.672693 87.935104 30.672693 
L 75.822557 30.672693 
L 87.935104 30.672693 
z
" style="fill:#428317;stroke:#000000;stroke-linejoin:miter;stroke-width:0.1;"/>
    </g>
    <g id="patch_87">
     <path d="M 87.935104 30.672693 
C 87.935104 30.672693 87.935104 30.672693 87.935104 30.672693 
L 75.822557 30.672693 
L 87.935104 30.672693 
z
" style="fill:#106832;stroke:#000000;stroke-linejoin:miter;stroke-width:0.1;"/>
    </g>
    <g id="patch_88">
     <path d="M 87.935104 30.672693 
C 87.935104 30.672693 87.935104 30.672693 87.935104 30.672693 
L 75.822557 30.672693 
L 87.935104 30.672693 
z
" style="fill:#56a45e;stroke:#000000;stroke-linejoin:miter;stroke-width:0.1;"/>
    </g>
    <g id="patch_89">
     <path d="M 87.935104 30.672693 
C 87.935104 30.672693 87.935104 30.672693 87.935104 30.672693 
L 75.822557 30.672693 
L 87.935104 30.672693 
z
" style="fill:#7ac890;stroke:#000000;stroke-linejoin:miter;stroke-width:0.1;"/>
    </g>
    <g id="patch_90">
     <path d="M 87.935104 30.672693 
C 87.935104 30.672693 87.935104 30.672693 87.935104 30.672693 
L 75.822557 30.672693 
L 87.935104 30.672693 
z
" style="fill:#51a778;stroke:#000000;stroke-linejoin:miter;stroke-width:0.1;"/>
    </g>
    <g id="patch_91">
     <path d="M 87.935104 30.672693 
C 87.935104 30.672693 87.935104 30.672693 87.935104 30.672693 
L 75.822557 30.672693 
L 87.935104 30.672693 
z
" style="fill:#34be72;stroke:#000000;stroke-linejoin:miter;stroke-width:0.1;"/>
    </g>
    <g id="patch_92">
     <path d="M 87.935104 30.672693 
C 87.935104 30.672693 87.935104 30.672693 87.935104 30.672693 
L 75.822557 30.672693 
L 87.935104 30.672693 
z
" style="fill:#0ec460;stroke:#000000;stroke-linejoin:miter;stroke-width:0.1;"/>
    </g>
    <g id="patch_93">
     <path d="M 87.935104 30.672693 
C 87.935104 30.672693 87.935104 30.672693 87.935104 30.672693 
L 75.822557 30.672693 
L 87.935104 30.672693 
z
" style="fill:#069848;stroke:#000000;stroke-linejoin:miter;stroke-width:0.1;"/>
    </g>
    <g id="matplotlib.axis_7"/>
    <g id="matplotlib.axis_8"/>
   </g>
   <g id="axes_5">
    <g id="patch_94">
     <path d="M 169.321857 94.422944 
C 169.321857 94.363932 169.321426 94.304921 169.320564 94.245915 
C 169.319701 94.18691 169.318408 94.127911 169.316683 94.068925 
L 157.20931 94.422944 
L 169.321857 94.422944 
z
" style="fill:#e0e3e1;stroke:#000000;stroke-linejoin:miter;stroke-width:0.1;"/>
    </g>
    <g id="patch_95">
     <path d="M 169.316683 94.068925 
C 169.314789 94.004144 169.312375 93.939379 169.309441 93.874636 
C 169.306507 93.809894 169.303054 93.745176 169.299081 93.680489 
L 157.20931 94.422944 
L 169.316683 94.068925 
z
" style="fill:#e0e3e1;stroke:#000000;stroke-linejoin:miter;stroke-width:0.1;"/>
    </g>
    <g id="patch_96">
     <path d="M 169.299081 93.680489 
C 169.186327 91.844449 168.656788 90.057992 167.75077 88.457089 
C 166.844753 86.856187 165.58584 85.482513 164.069853 84.440621 
C 162.553865 83.39873 160.820265 82.715742 159.001002 82.443643 
C 157.181739 82.171544 155.32417 82.317415 153.569681 82.870156 
L 157.20931 94.422944 
L 169.299081 93.680489 
z
" style="fill:#44aaaa;stroke:#000000;stroke-linejoin:miter;stroke-width:0.1;"/>
    </g>
    <g id="patch_97">
     <path d="M 153.569681 82.870156 
C 153.568409 82.870556 153.567138 82.870957 153.565866 82.871358 
C 153.564595 82.871759 153.563323 82.87216 153.562052 82.872562 
L 157.20931 94.422944 
L 153.569681 82.870156 
z
" style="fill:#77aadd;stroke:#000000;stroke-linejoin:miter;stroke-width:0.1;"/>
    </g>
    <g id="patch_98">
     <path d="M 153.562052 82.872562 
C 151.552104 83.507242 149.742206 84.655709 148.311978 86.203984 
C 146.88175 87.75226 145.880124 89.647373 145.406506 91.701247 
L 157.20931 94.422944 
L 153.562052 82.872562 
z
" style="fill:#117777;stroke:#000000;stroke-linejoin:miter;stroke-width:0.1;"/>
    </g>
    <g id="patch_99">
     <path d="M 145.406506 91.701247 
C 145.406233 91.70243 145.405961 91.703613 145.405688 91.704796 
C 145.405416 91.705979 145.405143 91.707163 145.404871 91.708346 
L 157.20931 94.422944 
L 145.406506 91.701247 
z
" style="fill:#525fb7;stroke:#000000;stroke-linejoin:miter;stroke-width:0.1;"/>
    </g>
    <g id="patch_100">
     <path d="M 145.404871 91.708346 
C 145.404871 91.708346 145.404871 91.708346 145.404871 91.708346 
L 157.20931 94.422944 
L 145.404871 91.708346 
z
" style="fill:#a3604b;stroke:#000000;stroke-linejoin:miter;stroke-width:0.1;"/>
    </g>
    <g id="patch_101">
     <path d="M 145.404871 91.708346 
C 145.17074 92.726466 145.069308 93.770611 145.103101 94.814758 
C 145.136895 95.858906 145.305632 96.894307 145.605106 97.895157 
L 157.20931 94.422944 
L 145.404871 91.708346 
z
" style="fill:#a3604b;stroke:#000000;stroke-linejoin:miter;stroke-width:0.1;"/>
    </g>
    <g id="patch_102">
     <path d="M 145.605106 97.895157 
C 145.655021 98.061975 145.708528 98.227696 145.765589 98.392207 
C 145.822649 98.556718 145.883251 98.719979 145.94735 98.881876 
L 157.20931 94.422944 
L 145.605106 97.895157 
z
" style="fill:#f53f06;stroke:#000000;stroke-linejoin:miter;stroke-width:0.1;"/>
    </g>
    <g id="patch_103">
     <path d="M 145.94735 98.881876 
C 146.609076 100.553202 147.634627 102.056453 148.949389 103.282262 
C 150.264152 104.508071 151.835449 105.425972 153.548963 105.969184 
L 157.20931 94.422944 
L 145.94735 98.881876 
z
" style="fill:#f53f06;stroke:#000000;stroke-linejoin:miter;stroke-width:0.1;"/>
    </g>
    <g id="patch_104">
     <path d="M 153.548963 105.969184 
C 153.548963 105.969184 153.548963 105.969184 153.548963 105.969184 
L 157.20931 94.422944 
L 153.548963 105.969184 
z
" style="fill:#dd7790;stroke:#000000;stroke-linejoin:miter;stroke-width:0.1;"/>
    </g>
    <g id="patch_105">
     <path d="M 153.548963 105.969184 
C 156.196886 106.808619 159.05465 106.712154 161.639939 105.696068 
C 164.225228 104.679983 166.383929 102.804848 167.75171 100.387137 
L 157.20931 94.422944 
L 153.548963 105.969184 
z
" style="fill:#771124;stroke:#000000;stroke-linejoin:miter;stroke-width:0.1;"/>
    </g>
    <g id="patch_106">
     <path d="M 167.75171 100.387137 
C 167.75171 100.387137 167.75171 100.387137 167.75171 100.387137 
L 157.20931 94.422944 
L 167.75171 100.387137 
z
" style="fill:#eeb29f;stroke:#000000;stroke-linejoin:miter;stroke-width:0.1;"/>
    </g>
    <g id="patch_107">
     <path d="M 167.75171 100.387137 
C 167.75171 100.387137 167.75171 100.387137 167.75171 100.387137 
L 157.20931 94.422944 
L 167.75171 100.387137 
z
" style="fill:#eeb29f;stroke:#000000;stroke-linejoin:miter;stroke-width:0.1;"/>
    </g>
    <g id="patch_108">
     <path d="M 167.75171 100.387137 
C 167.751956 100.386702 167.752202 100.386267 167.752448 100.385832 
C 167.752694 100.385397 167.75294 100.384962 167.753186 100.384527 
L 157.20931 94.422944 
L 167.75171 100.387137 
z
" style="fill:#ff0240;stroke:#000000;stroke-linejoin:miter;stroke-width:0.1;"/>
    </g>
    <g id="patch_109">
     <path d="M 167.753186 100.384527 
C 167.753186 100.384527 167.753186 100.384527 167.753186 100.384527 
L 157.20931 94.422944 
L 167.753186 100.384527 
z
" style="fill:#d0d1df;stroke:#000000;stroke-linejoin:miter;stroke-width:0.1;"/>
    </g>
    <g id="patch_110">
     <path d="M 167.753186 100.384527 
C 167.753276 100.384369 167.753365 100.384211 167.753455 100.384053 
C 167.753544 100.383895 167.753633 100.383737 167.753723 100.383578 
L 157.20931 94.422944 
L 167.753186 100.384527 
z
" style="fill:#6ef1c9;stroke:#000000;stroke-linejoin:miter;stroke-width:0.1;"/>
    </g>
    <g id="patch_111">
     <path d="M 167.753723 100.383578 
C 168.101562 99.768248 168.394872 99.123649 168.630293 98.457165 
C 168.865715 97.790682 169.042345 97.104868 169.15816 96.40758 
L 157.20931 94.422944 
L 167.753723 100.383578 
z
" style="fill:#6ef1c9;stroke:#000000;stroke-linejoin:miter;stroke-width:0.1;"/>
    </g>
    <g id="patch_112">
     <path d="M 169.15816 96.40758 
C 169.18759 96.230395 169.213074 96.052577 169.234595 95.874259 
C 169.256116 95.69594 169.273668 95.517165 169.287239 95.338066 
L 157.20931 94.422944 
L 169.15816 96.40758 
z
" style="fill:#6ef1c9;stroke:#000000;stroke-linejoin:miter;stroke-width:0.1;"/>
    </g>
    <g id="patch_113">
     <path d="M 169.287239 95.338066 
C 169.289257 95.311425 169.291188 95.284776 169.29303 95.258122 
C 169.294872 95.231468 169.296626 95.204807 169.298292 95.178141 
L 157.20931 94.422944 
L 169.287239 95.338066 
z
" style="fill:#689285;stroke:#000000;stroke-linejoin:miter;stroke-width:0.1;"/>
    </g>
    <g id="patch_114">
     <path d="M 169.298292 95.178141 
C 169.298292 95.178141 169.298292 95.178141 169.298292 95.178141 
L 157.20931 94.422944 
L 169.298292 95.178141 
z
" style="fill:#428317;stroke:#000000;stroke-linejoin:miter;stroke-width:0.1;"/>
    </g>
    <g id="patch_115">
     <path d="M 169.298292 95.178141 
C 169.306145 95.052435 169.312036 94.926614 169.315965 94.800724 
C 169.319893 94.674835 169.321858 94.548891 169.321857 94.42294 
L 157.20931 94.422944 
L 169.298292 95.178141 
z
" style="fill:#428317;stroke:#000000;stroke-linejoin:miter;stroke-width:0.1;"/>
    </g>
    <g id="patch_116">
     <path d="M 169.321857 94.42294 
C 169.321857 94.42294 169.321857 94.42294 169.321857 94.42294 
L 157.20931 94.422944 
L 169.321857 94.42294 
z
" style="fill:#106832;stroke:#000000;stroke-linejoin:miter;stroke-width:0.1;"/>
    </g>
    <g id="patch_117">
     <path d="M 169.321857 94.42294 
C 169.321857 94.42294 169.321857 94.42294 169.321857 94.42294 
L 157.20931 94.422944 
L 169.321857 94.42294 
z
" style="fill:#56a45e;stroke:#000000;stroke-linejoin:miter;stroke-width:0.1;"/>
    </g>
    <g id="patch_118">
     <path d="M 169.321857 94.42294 
C 169.321857 94.42294 169.321857 94.42294 169.321857 94.42294 
L 157.20931 94.422944 
L 169.321857 94.42294 
z
" style="fill:#7ac890;stroke:#000000;stroke-linejoin:miter;stroke-width:0.1;"/>
    </g>
    <g id="patch_119">
     <path d="M 169.321857 94.42294 
C 169.321857 94.42294 169.321857 94.42294 169.321857 94.42294 
L 157.20931 94.422944 
L 169.321857 94.42294 
z
" style="fill:#51a778;stroke:#000000;stroke-linejoin:miter;stroke-width:0.1;"/>
    </g>
    <g id="patch_120">
     <path d="M 169.321857 94.42294 
C 169.321857 94.42294 169.321857 94.42294 169.321857 94.42294 
L 157.20931 94.422944 
L 169.321857 94.42294 
z
" style="fill:#34be72;stroke:#000000;stroke-linejoin:miter;stroke-width:0.1;"/>
    </g>
    <g id="patch_121">
     <path d="M 169.321857 94.42294 
C 169.321857 94.42294 169.321857 94.42294 169.321857 94.42294 
L 157.20931 94.422944 
L 169.321857 94.42294 
z
" style="fill:#0ec460;stroke:#000000;stroke-linejoin:miter;stroke-width:0.1;"/>
    </g>
    <g id="patch_122">
     <path d="M 169.321857 94.42294 
C 169.321857 94.42294 169.321857 94.42294 169.321857 94.42294 
L 157.20931 94.422944 
L 169.321857 94.42294 
z
" style="fill:#069848;stroke:#000000;stroke-linejoin:miter;stroke-width:0.1;"/>
    </g>
    <g id="matplotlib.axis_9"/>
    <g id="matplotlib.axis_10"/>
   </g>
   <g id="axes_6">
    <g id="patch_123">
     <path d="M 169.321857 30.672693 
C 169.321857 30.672693 169.321857 30.672693 169.321857 30.672693 
L 157.20931 30.672693 
L 169.321857 30.672693 
z
" style="fill:#e0e3e1;stroke:#000000;stroke-linejoin:miter;stroke-width:0.1;"/>
    </g>
    <g id="patch_124">
     <path d="M 169.321857 30.672693 
C 169.321857 30.672693 169.321857 30.672693 169.321857 30.672693 
L 157.20931 30.672693 
L 169.321857 30.672693 
z
" style="fill:#e0e3e1;stroke:#000000;stroke-linejoin:miter;stroke-width:0.1;"/>
    </g>
    <g id="patch_125">
     <path d="M 169.321857 30.672693 
C 169.321857 29.04138 168.992301 27.426755 168.353008 25.925926 
C 167.713716 24.425097 166.777766 23.068771 165.601451 21.938521 
C 164.425137 20.80827 163.032522 19.92722 161.507366 19.34836 
C 159.98221 18.7695 158.355713 18.504671 156.725701 18.569804 
L 157.20931 30.672693 
L 169.321857 30.672693 
z
" style="fill:#44aaaa;stroke:#000000;stroke-linejoin:miter;stroke-width:0.1;"/>
    </g>
    <g id="patch_126">
     <path d="M 156.725701 18.569804 
C 154.642256 18.653054 152.615182 19.272891 150.841473 20.369079 
C 149.067763 21.465267 147.606797 23.001107 146.600553 24.827346 
L 157.20931 30.672693 
L 156.725701 18.569804 
z
" style="fill:#77aadd;stroke:#000000;stroke-linejoin:miter;stroke-width:0.1;"/>
    </g>
    <g id="patch_127">
     <path d="M 146.600553 24.827346 
C 145.814507 26.253946 145.324237 27.824552 145.159142 29.444985 
C 144.994047 31.065417 145.157495 32.702626 145.639684 34.258439 
L 157.20931 30.672693 
L 146.600553 24.827346 
z
" style="fill:#117777;stroke:#000000;stroke-linejoin:miter;stroke-width:0.1;"/>
    </g>
    <g id="patch_128">
     <path d="M 145.639684 34.258439 
C 145.639684 34.258439 145.639684 34.258439 145.639684 34.258439 
L 157.20931 30.672693 
L 145.639684 34.258439 
z
" style="fill:#525fb7;stroke:#000000;stroke-linejoin:miter;stroke-width:0.1;"/>
    </g>
    <g id="patch_129">
     <path d="M 145.639684 34.258439 
C 145.639684 34.258439 145.639684 34.258439 145.639684 34.258439 
L 157.20931 30.672693 
L 145.639684 34.258439 
z
" style="fill:#a3604b;stroke:#000000;stroke-linejoin:miter;stroke-width:0.1;"/>
    </g>
    <g id="patch_130">
     <path d="M 145.639684 34.258439 
C 145.770341 34.68001 145.923941 35.094125 146.099799 35.498931 
C 146.275656 35.903737 146.473507 36.298628 146.692467 36.681839 
L 157.20931 30.672693 
L 145.639684 34.258439 
z
" style="fill:#a3604b;stroke:#000000;stroke-linejoin:miter;stroke-width:0.1;"/>
    </g>
    <g id="patch_131">
     <path d="M 146.692467 36.681839 
C 146.692467 36.681839 146.692467 36.681839 146.692467 36.681839 
L 157.20931 30.672693 
L 146.692467 36.681839 
z
" style="fill:#f53f06;stroke:#000000;stroke-linejoin:miter;stroke-width:0.1;"/>
    </g>
    <g id="patch_132">
     <path d="M 146.692467 36.681839 
C 146.692467 36.681839 146.692467 36.681839 146.692467 36.681839 
L 157.20931 30.672693 
L 146.692467 36.681839 
z
" style="fill:#f53f06;stroke:#000000;stroke-linejoin:miter;stroke-width:0.1;"/>
    </g>
    <g id="patch_133">
     <path d="M 146.692467 36.681839 
C 146.841658 36.942943 147.000521 37.198401 147.168725 37.447682 
C 147.33693 37.696962 147.514359 37.939892 147.700645 38.175966 
L 157.20931 30.672693 
L 146.692467 36.681839 
z
" style="fill:#dd7790;stroke:#000000;stroke-linejoin:miter;stroke-width:0.1;"/>
    </g>
    <g id="patch_134">
     <path d="M 147.700645 38.175966 
C 148.727246 39.476946 150.01001 40.5535 151.469357 41.338843 
C 152.928704 42.124186 154.53382 42.601734 156.185129 42.741863 
L 157.20931 30.672693 
L 147.700645 38.175966 
z
" style="fill:#771124;stroke:#000000;stroke-linejoin:miter;stroke-width:0.1;"/>
    </g>
    <g id="patch_135">
     <path d="M 156.185129 42.741863 
C 158.292492 42.920692 160.410396 42.544501 162.327263 41.65087 
C 164.244131 40.757239 165.893931 39.376952 167.111852 37.647898 
L 157.20931 30.672693 
L 156.185129 42.741863 
z
" style="fill:#eeb29f;stroke:#000000;stroke-linejoin:miter;stroke-width:0.1;"/>
    </g>
    <g id="patch_136">
     <path d="M 167.111852 37.647898 
C 167.111852 37.647898 167.111852 37.647898 167.111852 37.647898 
L 157.20931 30.672693 
L 167.111852 37.647898 
z
" style="fill:#eeb29f;stroke:#000000;stroke-linejoin:miter;stroke-width:0.1;"/>
    </g>
    <g id="patch_137">
     <path d="M 167.111852 37.647898 
C 167.111852 37.647898 167.111852 37.647898 167.111852 37.647898 
L 157.20931 30.672693 
L 167.111852 37.647898 
z
" style="fill:#ff0240;stroke:#000000;stroke-linejoin:miter;stroke-width:0.1;"/>
    </g>
    <g id="patch_138">
     <path d="M 167.111852 37.647898 
C 167.111852 37.647898 167.111852 37.647898 167.111852 37.647898 
L 157.20931 30.672693 
L 167.111852 37.647898 
z
" style="fill:#d0d1df;stroke:#000000;stroke-linejoin:miter;stroke-width:0.1;"/>
    </g>
    <g id="patch_139">
     <path d="M 167.111852 37.647898 
C 167.111852 37.647898 167.111852 37.647898 167.111852 37.647898 
L 157.20931 30.672693 
L 167.111852 37.647898 
z
" style="fill:#6ef1c9;stroke:#000000;stroke-linejoin:miter;stroke-width:0.1;"/>
    </g>
    <g id="patch_140">
     <path d="M 167.111852 37.647898 
C 167.515525 37.074812 167.868688 36.467764 168.167363 35.833593 
C 168.466037 35.199423 168.709097 34.540519 168.893804 33.864308 
L 157.20931 30.672693 
L 167.111852 37.647898 
z
" style="fill:#6ef1c9;stroke:#000000;stroke-linejoin:miter;stroke-width:0.1;"/>
    </g>
    <g id="patch_141">
     <path d="M 168.893804 33.864308 
C 168.924873 33.750564 168.95428 33.636372 168.982014 33.52177 
C 169.009749 33.407167 169.035809 33.292166 169.060185 33.176803 
L 157.20931 30.672693 
L 168.893804 33.864308 
z
" style="fill:#6ef1c9;stroke:#000000;stroke-linejoin:miter;stroke-width:0.1;"/>
    </g>
    <g id="patch_142">
     <path d="M 169.060185 33.176803 
C 169.080102 33.082545 169.098894 32.988052 169.116556 32.893346 
C 169.134218 32.798639 169.15075 32.703725 169.166148 32.608624 
L 157.20931 30.672693 
L 169.060185 33.176803 
z
" style="fill:#689285;stroke:#000000;stroke-linejoin:miter;stroke-width:0.1;"/>
    </g>
    <g id="patch_143">
     <path d="M 169.166148 32.608624 
C 169.166148 32.608624 169.166148 32.608624 169.166148 32.608624 
L 157.20931 30.672693 
L 169.166148 32.608624 
z
" style="fill:#428317;stroke:#000000;stroke-linejoin:miter;stroke-width:0.1;"/>
    </g>
    <g id="patch_144">
     <path d="M 169.166148 32.608624 
C 169.217947 32.288702 169.256885 31.966829 169.282867 31.643783 
C 169.30885 31.320738 169.321858 30.996779 169.321857 30.67269 
L 157.20931 30.672693 
L 169.166148 32.608624 
z
" style="fill:#428317;stroke:#000000;stroke-linejoin:miter;stroke-width:0.1;"/>
    </g>
    <g id="patch_145">
     <path d="M 169.321857 30.67269 
C 169.321857 30.67269 169.321857 30.67269 169.321857 30.67269 
L 157.20931 30.672693 
L 169.321857 30.67269 
z
" style="fill:#106832;stroke:#000000;stroke-linejoin:miter;stroke-width:0.1;"/>
    </g>
    <g id="patch_146">
     <path d="M 169.321857 30.67269 
C 169.321857 30.67269 169.321857 30.67269 169.321857 30.67269 
L 157.20931 30.672693 
L 169.321857 30.67269 
z
" style="fill:#56a45e;stroke:#000000;stroke-linejoin:miter;stroke-width:0.1;"/>
    </g>
    <g id="patch_147">
     <path d="M 169.321857 30.67269 
C 169.321857 30.67269 169.321857 30.67269 169.321857 30.67269 
L 157.20931 30.672693 
L 169.321857 30.67269 
z
" style="fill:#7ac890;stroke:#000000;stroke-linejoin:miter;stroke-width:0.1;"/>
    </g>
    <g id="patch_148">
     <path d="M 169.321857 30.67269 
C 169.321857 30.67269 169.321857 30.67269 169.321857 30.67269 
L 157.20931 30.672693 
L 169.321857 30.67269 
z
" style="fill:#51a778;stroke:#000000;stroke-linejoin:miter;stroke-width:0.1;"/>
    </g>
    <g id="patch_149">
     <path d="M 169.321857 30.67269 
C 169.321857 30.67269 169.321857 30.67269 169.321857 30.67269 
L 157.20931 30.672693 
L 169.321857 30.67269 
z
" style="fill:#34be72;stroke:#000000;stroke-linejoin:miter;stroke-width:0.1;"/>
    </g>
    <g id="patch_150">
     <path d="M 169.321857 30.67269 
C 169.321857 30.67269 169.321857 30.67269 169.321857 30.67269 
L 157.20931 30.672693 
L 169.321857 30.67269 
z
" style="fill:#0ec460;stroke:#000000;stroke-linejoin:miter;stroke-width:0.1;"/>
    </g>
    <g id="patch_151">
     <path d="M 169.321857 30.67269 
C 169.321857 30.67269 169.321857 30.67269 169.321857 30.67269 
L 157.20931 30.672693 
L 169.321857 30.67269 
z
" style="fill:#069848;stroke:#000000;stroke-linejoin:miter;stroke-width:0.1;"/>
    </g>
    <g id="matplotlib.axis_11"/>
    <g id="matplotlib.axis_12"/>
   </g>
   <g id="axes_7">
    <g id="patch_152">
     <path d="M 99.561783 129.286362 
C 99.561783 129.280096 99.561779 129.27383 99.561769 129.267565 
C 99.561759 129.261299 99.561744 129.255033 99.561725 129.248767 
L 87.449236 129.286362 
L 99.561783 129.286362 
z
" style="fill:#e0e3e1;stroke:#000000;stroke-linejoin:miter;stroke-width:0.1;"/>
    </g>
    <g id="patch_153">
     <path d="M 99.561725 129.248767 
C 99.560602 128.886802 99.543253 128.525069 99.509733 128.164658 
C 99.476212 127.804246 99.426553 127.445518 99.360904 127.089554 
L 87.449236 129.286362 
L 99.561725 129.248767 
z
" style="fill:#e0e3e1;stroke:#000000;stroke-linejoin:miter;stroke-width:0.1;"/>
    </g>
    <g id="patch_154">
     <path d="M 99.360904 127.089554 
C 99.06637 125.492513 98.45364 123.970895 97.559241 122.61541 
C 96.664842 121.259924 95.506907 120.098053 94.154466 119.199058 
C 92.802024 118.300063 91.282495 117.682172 89.686463 117.382219 
C 88.09043 117.082266 86.450254 117.106332 84.863709 117.452983 
C 83.277165 117.799634 81.776418 118.461842 80.450935 119.400129 
C 79.125452 120.338417 78.002104 121.533762 77.14786 122.914905 
C 76.293615 124.296048 75.725793 125.834988 75.478242 127.439983 
C 75.230691 129.044978 75.308431 130.683488 75.706828 132.257836 
L 87.449236 129.286362 
L 99.360904 127.089554 
z
" style="fill:#44aaaa;stroke:#000000;stroke-linejoin:miter;stroke-width:0.1;"/>
    </g>
    <g id="patch_155">
     <path d="M 75.706828 132.257836 
C 75.708992 132.266388 75.711165 132.274938 75.713348 132.283485 
C 75.715531 132.292033 75.717723 132.300578 75.719925 132.30912 
L 87.449236 129.286362 
L 75.706828 132.257836 
z
" style="fill:#77aadd;stroke:#000000;stroke-linejoin:miter;stroke-width:0.1;"/>
    </g>
    <g id="patch_156">
     <path d="M 75.719925 132.30912 
C 75.841311 132.780142 75.990961 133.243425 76.16806 133.69645 
C 76.345159 134.149476 76.549386 134.591423 76.779631 135.019889 
L 87.449236 129.286362 
L 75.719925 132.30912 
z
" style="fill:#117777;stroke:#000000;stroke-linejoin:miter;stroke-width:0.1;"/>
    </g>
    <g id="patch_157">
     <path d="M 76.779631 135.019889 
C 76.812843 135.081694 76.846591 135.143209 76.880872 135.204428 
C 76.915153 135.265646 76.949965 135.326565 76.985305 135.387179 
L 87.449236 129.286362 
L 76.779631 135.019889 
z
" style="fill:#525fb7;stroke:#000000;stroke-linejoin:miter;stroke-width:0.1;"/>
    </g>
    <g id="patch_158">
     <path d="M 76.985305 135.387179 
C 77.180811 135.722504 77.392322 136.048238 77.619107 136.363253 
C 77.845892 136.678268 78.087689 136.982199 78.343659 137.273995 
L 87.449236 129.286362 
L 76.985305 135.387179 
z
" style="fill:#a3604b;stroke:#000000;stroke-linejoin:miter;stroke-width:0.1;"/>
    </g>
    <g id="patch_159">
     <path d="M 78.343659 137.273995 
C 78.432223 137.374954 78.52246 137.474433 78.614332 137.572391 
C 78.706204 137.670349 78.799699 137.766773 78.894778 137.861621 
L 87.449236 129.286362 
L 78.343659 137.273995 
z
" style="fill:#a3604b;stroke:#000000;stroke-linejoin:miter;stroke-width:0.1;"/>
    </g>
    <g id="patch_160">
     <path d="M 78.894778 137.861621 
C 79.185347 138.151485 79.49046 138.426392 79.808938 138.68528 
C 80.127415 138.944167 80.458846 139.186701 80.801946 139.411941 
L 87.449236 129.286362 
L 78.894778 137.861621 
z
" style="fill:#f53f06;stroke:#000000;stroke-linejoin:miter;stroke-width:0.1;"/>
    </g>
    <g id="patch_161">
     <path d="M 80.801946 139.411941 
C 80.801946 139.411941 80.801946 139.411941 80.801946 139.411941 
L 87.449236 129.286362 
L 80.801946 139.411941 
z
" style="fill:#f53f06;stroke:#000000;stroke-linejoin:miter;stroke-width:0.1;"/>
    </g>
    <g id="patch_162">
     <path d="M 80.801946 139.411941 
C 80.801946 139.411941 80.801946 139.411941 80.801946 139.411941 
L 87.449236 129.286362 
L 80.801946 139.411941 
z
" style="fill:#dd7790;stroke:#000000;stroke-linejoin:miter;stroke-width:0.1;"/>
    </g>
    <g id="patch_163">
     <path d="M 80.801946 139.411941 
C 82.357531 140.433159 84.127729 141.082299 85.974731 141.308826 
C 87.821733 141.535353 89.696335 141.333232 91.452599 140.718199 
L 87.449236 129.286362 
L 80.801946 139.411941 
z
" style="fill:#771124;stroke:#000000;stroke-linejoin:miter;stroke-width:0.1;"/>
    </g>
    <g id="patch_164">
     <path d="M 91.452599 140.718199 
C 92.473125 140.360816 93.441215 139.868384 94.331035 139.254042 
C 95.220854 138.639701 96.024417 137.908965 96.720278 137.081334 
L 87.449236 129.286362 
L 91.452599 140.718199 
z
" style="fill:#eeb29f;stroke:#000000;stroke-linejoin:miter;stroke-width:0.1;"/>
    </g>
    <g id="patch_165">
     <path d="M 96.720278 137.081334 
C 96.720278 137.081334 96.720278 137.081334 96.720278 137.081334 
L 87.449236 129.286362 
L 96.720278 137.081334 
z
" style="fill:#eeb29f;stroke:#000000;stroke-linejoin:miter;stroke-width:0.1;"/>
    </g>
    <g id="patch_166">
     <path d="M 96.720278 137.081334 
C 96.721272 137.080151 96.722267 137.078968 96.723261 137.077785 
C 96.724255 137.076601 96.725249 137.075418 96.726243 137.074234 
L 87.449236 129.286362 
L 96.720278 137.081334 
z
" style="fill:#ff0240;stroke:#000000;stroke-linejoin:miter;stroke-width:0.1;"/>
    </g>
    <g id="patch_167">
     <path d="M 96.726243 137.074234 
C 96.726243 137.074234 96.726243 137.074234 96.726243 137.074234 
L 87.449236 129.286362 
L 96.726243 137.074234 
z
" style="fill:#d0d1df;stroke:#000000;stroke-linejoin:miter;stroke-width:0.1;"/>
    </g>
    <g id="patch_168">
     <path d="M 96.726243 137.074234 
C 96.729129 137.070796 96.732013 137.067356 96.734896 137.063915 
C 96.737778 137.060474 96.740658 137.057031 96.743537 137.053586 
L 87.449236 129.286362 
L 96.726243 137.074234 
z
" style="fill:#6ef1c9;stroke:#000000;stroke-linejoin:miter;stroke-width:0.1;"/>
    </g>
    <g id="patch_169">
     <path d="M 96.743537 137.053586 
C 96.743941 137.053103 96.744345 137.052619 96.744749 137.052136 
C 96.745153 137.051652 96.745557 137.051169 96.745961 137.050685 
L 87.449236 129.286362 
L 96.743537 137.053586 
z
" style="fill:#6ef1c9;stroke:#000000;stroke-linejoin:miter;stroke-width:0.1;"/>
    </g>
    <g id="patch_170">
     <path d="M 96.745961 137.050685 
C 96.745961 137.050685 96.745961 137.050685 96.745961 137.050685 
L 87.449236 129.286362 
L 96.745961 137.050685 
z
" style="fill:#6ef1c9;stroke:#000000;stroke-linejoin:miter;stroke-width:0.1;"/>
    </g>
    <g id="patch_171">
     <path d="M 96.745961 137.050685 
C 96.85167 136.924113 96.954782 136.795396 97.055235 136.664613 
C 97.155687 136.533831 97.253459 136.40101 97.348487 136.266235 
L 87.449236 129.286362 
L 96.745961 137.050685 
z
" style="fill:#689285;stroke:#000000;stroke-linejoin:miter;stroke-width:0.1;"/>
    </g>
    <g id="patch_172">
     <path d="M 97.348487 136.266235 
C 97.381746 136.219066 97.414667 136.17166 97.447247 136.124021 
C 97.479828 136.076381 97.512068 136.028509 97.543964 135.980409 
L 87.449236 129.286362 
L 97.348487 136.266235 
z
" style="fill:#428317;stroke:#000000;stroke-linejoin:miter;stroke-width:0.1;"/>
    </g>
    <g id="patch_173">
     <path d="M 97.543964 135.980409 
C 97.735509 135.691557 97.914567 135.394616 98.080645 135.090407 
C 98.246723 134.786198 98.399668 134.475001 98.539056 134.157675 
L 87.449236 129.286362 
L 97.543964 135.980409 
z
" style="fill:#428317;stroke:#000000;stroke-linejoin:miter;stroke-width:0.1;"/>
    </g>
    <g id="patch_174">
     <path d="M 98.539056 134.157675 
C 98.541412 134.152311 98.543765 134.146946 98.546113 134.141578 
C 98.548461 134.136211 98.550806 134.130842 98.553146 134.125471 
L 87.449236 129.286362 
L 98.539056 134.157675 
z
" style="fill:#106832;stroke:#000000;stroke-linejoin:miter;stroke-width:0.1;"/>
    </g>
    <g id="patch_175">
     <path d="M 98.553146 134.125471 
C 98.553146 134.125471 98.553146 134.125471 98.553146 134.125471 
L 87.449236 129.286362 
L 98.553146 134.125471 
z
" style="fill:#56a45e;stroke:#000000;stroke-linejoin:miter;stroke-width:0.1;"/>
    </g>
    <g id="patch_176">
     <path d="M 98.553146 134.125471 
C 98.553146 134.125471 98.553146 134.125471 98.553146 134.125471 
L 87.449236 129.286362 
L 98.553146 134.125471 
z
" style="fill:#7ac890;stroke:#000000;stroke-linejoin:miter;stroke-width:0.1;"/>
    </g>
    <g id="patch_177">
     <path d="M 98.553146 134.125471 
C 98.883187 133.368154 99.134887 132.579055 99.304312 131.770507 
C 99.473738 130.961958 99.560002 130.138193 99.561756 129.312086 
L 87.449236 129.286362 
L 98.553146 134.125471 
z
" style="fill:#51a778;stroke:#000000;stroke-linejoin:miter;stroke-width:0.1;"/>
    </g>
    <g id="patch_178">
     <path d="M 99.561756 129.312086 
C 99.561765 129.308048 99.561771 129.30401 99.561776 129.299972 
C 99.56178 129.295934 99.561783 129.291895 99.561783 129.287857 
L 87.449236 129.286362 
L 99.561756 129.312086 
z
" style="fill:#34be72;stroke:#000000;stroke-linejoin:miter;stroke-width:0.1;"/>
    </g>
    <g id="patch_179">
     <path d="M 99.561783 129.287857 
C 99.561783 129.287857 99.561783 129.287857 99.561783 129.287857 
L 87.449236 129.286362 
L 99.561783 129.287857 
z
" style="fill:#0ec460;stroke:#000000;stroke-linejoin:miter;stroke-width:0.1;"/>
    </g>
    <g id="patch_180">
     <path d="M 99.561783 129.287857 
C 99.561783 129.287609 99.561783 129.287361 99.561783 129.287113 
C 99.561783 129.286865 99.561783 129.286617 99.561783 129.286368 
L 87.449236 129.286362 
L 99.561783 129.287857 
z
" style="fill:#069848;stroke:#000000;stroke-linejoin:miter;stroke-width:0.1;"/>
    </g>
    <g id="matplotlib.axis_13"/>
    <g id="matplotlib.axis_14"/>
   </g>
   <g id="axes_8">
    <g id="patch_181">
     <path d="M 215.828574 104.38392 
C 215.828574 104.30642 215.82783 104.228921 215.826342 104.151434 
C 215.824855 104.073947 215.822623 103.996477 215.819649 103.919033 
L 203.716026 104.38392 
L 215.828574 104.38392 
z
" style="fill:#e0e3e1;stroke:#000000;stroke-linejoin:miter;stroke-width:0.1;"/>
    </g>
    <g id="patch_182">
     <path d="M 215.819649 103.919033 
C 215.786003 103.04303 215.657354 102.173263 215.435966 101.325029 
C 215.214578 100.476795 214.901756 99.655097 214.503002 98.874387 
L 203.716026 104.38392 
L 215.819649 103.919033 
z
" style="fill:#e0e3e1;stroke:#000000;stroke-linejoin:miter;stroke-width:0.1;"/>
    </g>
    <g id="patch_183">
     <path d="M 214.503002 98.874387 
C 213.176494 96.277251 210.955647 94.244569 208.251523 93.152577 
C 205.547399 92.060584 202.537808 91.981084 199.779804 92.928792 
C 197.0218 93.8765 194.696736 95.789099 193.234965 98.31258 
C 191.773194 100.836062 191.270834 103.804495 191.820869 106.668442 
L 203.716026 104.38392 
L 214.503002 98.874387 
z
" style="fill:#44aaaa;stroke:#000000;stroke-linejoin:miter;stroke-width:0.1;"/>
    </g>
    <g id="patch_184">
     <path d="M 191.820869 106.668442 
C 191.827605 106.703519 191.834497 106.738566 191.841544 106.773581 
C 191.84859 106.808597 191.855792 106.843581 191.863148 106.878533 
L 203.716026 104.38392 
L 191.820869 106.668442 
z
" style="fill:#77aadd;stroke:#000000;stroke-linejoin:miter;stroke-width:0.1;"/>
    </g>
    <g id="patch_185">
     <path d="M 191.863148 106.878533 
C 191.891899 107.015142 191.92301 107.151244 191.956467 107.286778 
C 191.989924 107.422312 192.025721 107.557257 192.063843 107.691553 
L 203.716026 104.38392 
L 191.863148 106.878533 
z
" style="fill:#117777;stroke:#000000;stroke-linejoin:miter;stroke-width:0.1;"/>
    </g>
    <g id="patch_186">
     <path d="M 192.063843 107.691553 
C 192.064237 107.692943 192.064632 107.694333 192.065027 107.695723 
C 192.065422 107.697112 192.065817 107.698502 192.066213 107.699891 
L 203.716026 104.38392 
L 192.063843 107.691553 
z
" style="fill:#525fb7;stroke:#000000;stroke-linejoin:miter;stroke-width:0.1;"/>
    </g>
    <g id="patch_187">
     <path d="M 192.066213 107.699891 
C 192.14425 107.974055 192.231941 108.245378 192.329122 108.513355 
C 192.426303 108.781331 192.532913 109.045793 192.648754 109.306247 
L 203.716026 104.38392 
L 192.066213 107.699891 
z
" style="fill:#a3604b;stroke:#000000;stroke-linejoin:miter;stroke-width:0.1;"/>
    </g>
    <g id="patch_188">
     <path d="M 192.648754 109.306247 
C 192.722443 109.471928 192.799843 109.635933 192.880896 109.798139 
C 192.961948 109.960344 193.046633 110.120709 193.134886 110.279112 
L 203.716026 104.38392 
L 192.648754 109.306247 
z
" style="fill:#a3604b;stroke:#000000;stroke-linejoin:miter;stroke-width:0.1;"/>
    </g>
    <g id="patch_189">
     <path d="M 193.134886 110.279112 
C 193.762088 111.404863 194.564947 112.42334 195.513129 113.296064 
C 196.461311 114.168787 197.542723 114.884627 198.716507 115.416537 
L 203.716026 104.38392 
L 193.134886 110.279112 
z
" style="fill:#f53f06;stroke:#000000;stroke-linejoin:miter;stroke-width:0.1;"/>
    </g>
    <g id="patch_190">
     <path d="M 198.716507 115.416537 
C 198.716507 115.416537 198.716507 115.416537 198.716507 115.416537 
L 203.716026 104.38392 
L 198.716507 115.416537 
z
" style="fill:#f53f06;stroke:#000000;stroke-linejoin:miter;stroke-width:0.1;"/>
    </g>
    <g id="patch_191">
     <path d="M 198.716507 115.416537 
C 198.716507 115.416537 198.716507 115.416537 198.716507 115.416537 
L 203.716026 104.38392 
L 198.716507 115.416537 
z
" style="fill:#dd7790;stroke:#000000;stroke-linejoin:miter;stroke-width:0.1;"/>
    </g>
    <g id="patch_192">
     <path d="M 198.716507 115.416537 
C 199.254912 115.660519 199.810455 115.864762 200.378682 116.027629 
C 200.946909 116.190495 201.526296 116.311548 202.112198 116.389817 
L 203.716026 104.38392 
L 198.716507 115.416537 
z
" style="fill:#771124;stroke:#000000;stroke-linejoin:miter;stroke-width:0.1;"/>
    </g>
    <g id="patch_193">
     <path d="M 202.112198 116.389817 
C 203.634599 116.593189 205.181882 116.505147 206.671387 116.130394 
C 208.160891 115.755642 209.565613 115.100972 210.810508 114.201361 
L 203.716026 104.38392 
L 202.112198 116.389817 
z
" style="fill:#eeb29f;stroke:#000000;stroke-linejoin:miter;stroke-width:0.1;"/>
    </g>
    <g id="patch_194">
     <path d="M 210.810508 114.201361 
C 210.810508 114.201361 210.810508 114.201361 210.810508 114.201361 
L 203.716026 104.38392 
L 210.810508 114.201361 
z
" style="fill:#eeb29f;stroke:#000000;stroke-linejoin:miter;stroke-width:0.1;"/>
    </g>
    <g id="patch_195">
     <path d="M 210.810508 114.201361 
C 210.818947 114.195262 210.827379 114.189153 210.835803 114.183032 
C 210.844226 114.176912 210.852642 114.17078 210.86105 114.164638 
L 203.716026 104.38392 
L 210.810508 114.201361 
z
" style="fill:#ff0240;stroke:#000000;stroke-linejoin:miter;stroke-width:0.1;"/>
    </g>
    <g id="patch_196">
     <path d="M 210.86105 114.164638 
C 210.86105 114.164638 210.86105 114.164638 210.86105 114.164638 
L 203.716026 104.38392 
L 210.86105 114.164638 
z
" style="fill:#d0d1df;stroke:#000000;stroke-linejoin:miter;stroke-width:0.1;"/>
    </g>
    <g id="patch_197">
     <path d="M 210.86105 114.164638 
C 210.928751 114.115181 210.995937 114.065022 211.062597 114.014169 
C 211.129257 113.963317 211.195388 113.911774 211.260977 113.859548 
L 203.716026 104.38392 
L 210.86105 114.164638 
z
" style="fill:#6ef1c9;stroke:#000000;stroke-linejoin:miter;stroke-width:0.1;"/>
    </g>
    <g id="patch_198">
     <path d="M 211.260977 113.859548 
C 211.578617 113.606628 211.883338 113.337896 212.173987 113.054371 
C 212.464635 112.770845 212.740844 112.472884 213.001566 112.161617 
L 203.716026 104.38392 
L 211.260977 113.859548 
z
" style="fill:#6ef1c9;stroke:#000000;stroke-linejoin:miter;stroke-width:0.1;"/>
    </g>
    <g id="patch_199">
     <path d="M 213.001566 112.161617 
C 213.001566 112.161617 213.001566 112.161617 213.001566 112.161617 
L 203.716026 104.38392 
L 213.001566 112.161617 
z
" style="fill:#6ef1c9;stroke:#000000;stroke-linejoin:miter;stroke-width:0.1;"/>
    </g>
    <g id="patch_200">
     <path d="M 213.001566 112.161617 
C 213.001785 112.161354 213.002005 112.161092 213.002225 112.160829 
C 213.002445 112.160567 213.002665 112.160304 213.002885 112.160042 
L 203.716026 104.38392 
L 213.001566 112.161617 
z
" style="fill:#689285;stroke:#000000;stroke-linejoin:miter;stroke-width:0.1;"/>
    </g>
    <g id="patch_201">
     <path d="M 213.002885 112.160042 
C 213.079712 112.068289 213.155175 111.975402 213.229249 111.881413 
C 213.303323 111.787424 213.376 111.692342 213.447257 111.596199 
L 203.716026 104.38392 
L 213.002885 112.160042 
z
" style="fill:#428317;stroke:#000000;stroke-linejoin:miter;stroke-width:0.1;"/>
    </g>
    <g id="patch_202">
     <path d="M 213.447257 111.596199 
C 213.578809 111.418701 213.70548 111.237637 213.827128 111.05321 
C 213.948776 110.868783 214.065355 110.681063 214.176735 110.490259 
L 203.716026 104.38392 
L 213.447257 111.596199 
z
" style="fill:#428317;stroke:#000000;stroke-linejoin:miter;stroke-width:0.1;"/>
    </g>
    <g id="patch_203">
     <path d="M 214.176735 110.490259 
C 214.236906 110.387181 214.295551 110.283218 214.352649 110.178406 
C 214.409747 110.073594 214.465293 109.967943 214.519269 109.861489 
L 203.716026 104.38392 
L 214.176735 110.490259 
z
" style="fill:#106832;stroke:#000000;stroke-linejoin:miter;stroke-width:0.1;"/>
    </g>
    <g id="patch_204">
     <path d="M 214.519269 109.861489 
C 214.519448 109.861136 214.519627 109.860783 214.519806 109.860429 
C 214.519985 109.860076 214.520164 109.859723 214.520343 109.85937 
L 203.716026 104.38392 
L 214.519269 109.861489 
z
" style="fill:#56a45e;stroke:#000000;stroke-linejoin:miter;stroke-width:0.1;"/>
    </g>
    <g id="patch_205">
     <path d="M 214.520343 109.85937 
C 214.525936 109.848332 214.531513 109.837286 214.537073 109.826231 
C 214.542633 109.815176 214.548176 109.804113 214.553702 109.793041 
L 203.716026 104.38392 
L 214.520343 109.85937 
z
" style="fill:#7ac890;stroke:#000000;stroke-linejoin:miter;stroke-width:0.1;"/>
    </g>
    <g id="patch_206">
     <path d="M 214.553702 109.793041 
C 214.953763 108.991481 215.263667 108.148006 215.477723 107.278105 
C 215.691778 106.408203 215.808667 105.517233 215.826242 104.621555 
L 203.716026 104.38392 
L 214.553702 109.793041 
z
" style="fill:#51a778;stroke:#000000;stroke-linejoin:miter;stroke-width:0.1;"/>
    </g>
    <g id="patch_207">
     <path d="M 215.826242 104.621555 
C 215.826315 104.617867 215.826385 104.614178 215.826454 104.61049 
C 215.826523 104.606801 215.826591 104.603112 215.826656 104.599423 
L 203.716026 104.38392 
L 215.826242 104.621555 
z
" style="fill:#34be72;stroke:#000000;stroke-linejoin:miter;stroke-width:0.1;"/>
    </g>
    <g id="patch_208">
     <path d="M 215.826656 104.599423 
C 215.827278 104.564483 215.827749 104.529539 215.828068 104.494594 
C 215.828387 104.459649 215.828555 104.424703 215.828572 104.389756 
L 203.716026 104.38392 
L 215.826656 104.599423 
z
" style="fill:#0ec460;stroke:#000000;stroke-linejoin:miter;stroke-width:0.1;"/>
    </g>
    <g id="patch_209">
     <path d="M 215.828572 104.389756 
C 215.828573 104.388784 215.828573 104.387812 215.828573 104.38684 
C 215.828573 104.385868 215.828574 104.384896 215.828574 104.383924 
L 203.716026 104.38392 
L 215.828572 104.389756 
z
" style="fill:#069848;stroke:#000000;stroke-linejoin:miter;stroke-width:0.1;"/>
    </g>
    <g id="matplotlib.axis_15"/>
    <g id="matplotlib.axis_16"/>
   </g>
   <g id="axes_9">
    <g id="patch_210">
     <path d="M 215.828574 104.38392 
C 215.828574 104.223596 215.82539 104.063287 215.819026 103.903088 
C 215.812662 103.74289 215.803117 103.582834 215.790398 103.423014 
L 203.716026 104.38392 
L 215.828574 104.38392 
z
" style="fill:#e0e3e1;stroke:#000000;stroke-linejoin:miter;stroke-width:0.1;"/>
    </g>
    <g id="patch_211">
     <path d="M 215.790398 103.423014 
C 215.775414 103.234729 215.756028 103.04682 215.732255 102.859441 
C 215.708483 102.672062 215.680331 102.485265 215.647822 102.299203 
L 203.716026 104.38392 
L 215.790398 103.423014 
z
" style="fill:#e0e3e1;stroke:#000000;stroke-linejoin:miter;stroke-width:0.1;"/>
    </g>
    <g id="patch_212">
     <path d="M 215.647822 102.299203 
C 215.308066 100.35462 214.498027 98.522257 213.288471 96.962189 
C 212.078916 95.402121 210.506121 94.161139 208.707488 93.347657 
C 206.908854 92.534174 204.938328 92.172589 202.968054 92.294489 
C 200.997781 92.41639 199.086855 93.01812 197.402215 94.047112 
L 203.716026 104.38392 
L 215.647822 102.299203 
z
" style="fill:#44aaaa;stroke:#000000;stroke-linejoin:miter;stroke-width:0.1;"/>
    </g>
    <g id="patch_213">
     <path d="M 197.402215 94.047112 
C 197.398135 94.049605 197.394056 94.052099 197.389979 94.054596 
C 197.385901 94.057093 197.381826 94.059593 197.377751 94.062095 
L 203.716026 104.38392 
L 197.402215 94.047112 
z
" style="fill:#77aadd;stroke:#000000;stroke-linejoin:miter;stroke-width:0.1;"/>
    </g>
    <g id="patch_214">
     <path d="M 197.377751 94.062095 
C 197.055831 94.259775 196.743335 94.472407 196.441288 94.699293 
C 196.139241 94.92618 195.847974 95.167073 195.568441 95.421182 
L 203.716026 104.38392 
L 197.377751 94.062095 
z
" style="fill:#117777;stroke:#000000;stroke-linejoin:miter;stroke-width:0.1;"/>
    </g>
    <g id="patch_215">
     <path d="M 195.568441 95.421182 
C 195.112871 95.835319 194.689539 96.283587 194.302126 96.76209 
C 193.914714 97.240592 193.564347 97.747937 193.254074 98.279711 
L 203.716026 104.38392 
L 195.568441 95.421182 
z
" style="fill:#525fb7;stroke:#000000;stroke-linejoin:miter;stroke-width:0.1;"/>
    </g>
    <g id="patch_216">
     <path d="M 193.254074 98.279711 
C 193.185673 98.396943 193.119247 98.515316 193.054825 98.634781 
C 192.990403 98.754245 192.927993 98.874785 192.867622 98.996347 
L 203.716026 104.38392 
L 193.254074 98.279711 
z
" style="fill:#a3604b;stroke:#000000;stroke-linejoin:miter;stroke-width:0.1;"/>
    </g>
    <g id="patch_217">
     <path d="M 192.867622 98.996347 
C 192.806293 99.119839 192.747077 99.24437 192.69 99.369884 
C 192.632923 99.495398 192.577993 99.621878 192.525235 99.749268 
L 203.716026 104.38392 
L 192.867622 98.996347 
z
" style="fill:#a3604b;stroke:#000000;stroke-linejoin:miter;stroke-width:0.1;"/>
    </g>
    <g id="patch_218">
     <path d="M 192.525235 99.749268 
C 192.247228 100.420541 192.030183 101.115469 191.876726 101.825642 
C 191.723269 102.535816 191.634022 103.258359 191.610065 103.984528 
L 203.716026 104.38392 
L 192.525235 99.749268 
z
" style="fill:#f53f06;stroke:#000000;stroke-linejoin:miter;stroke-width:0.1;"/>
    </g>
    <g id="patch_219">
     <path d="M 191.610065 103.984528 
C 191.610065 103.984528 191.610065 103.984528 191.610065 103.984528 
L 203.716026 104.38392 
L 191.610065 103.984528 
z
" style="fill:#f53f06;stroke:#000000;stroke-linejoin:miter;stroke-width:0.1;"/>
    </g>
    <g id="patch_220">
     <path d="M 191.610065 103.984528 
C 191.610065 103.984528 191.610065 103.984528 191.610065 103.984528 
L 203.716026 104.38392 
L 191.610065 103.984528 
z
" style="fill:#dd7790;stroke:#000000;stroke-linejoin:miter;stroke-width:0.1;"/>
    </g>
    <g id="patch_221">
     <path d="M 191.610065 103.984528 
C 191.567649 105.270195 191.730312 106.55445 192.091929 107.788943 
C 192.453547 109.023436 193.009523 110.192478 193.738928 111.252058 
L 203.716026 104.38392 
L 191.610065 103.984528 
z
" style="fill:#771124;stroke:#000000;stroke-linejoin:miter;stroke-width:0.1;"/>
    </g>
    <g id="patch_222">
     <path d="M 193.738928 111.252058 
C 194.409471 112.226133 195.219065 113.09678 196.141907 113.836249 
C 197.064748 114.575719 198.090927 115.176072 199.18774 115.618173 
L 203.716026 104.38392 
L 193.738928 111.252058 
z
" style="fill:#eeb29f;stroke:#000000;stroke-linejoin:miter;stroke-width:0.1;"/>
    </g>
    <g id="patch_223">
     <path d="M 199.18774 115.618173 
C 199.18774 115.618173 199.18774 115.618173 199.18774 115.618173 
L 203.716026 104.38392 
L 199.18774 115.618173 
z
" style="fill:#eeb29f;stroke:#000000;stroke-linejoin:miter;stroke-width:0.1;"/>
    </g>
    <g id="patch_224">
     <path d="M 199.18774 115.618173 
C 199.18774 115.618173 199.18774 115.618173 199.18774 115.618173 
L 203.716026 104.38392 
L 199.18774 115.618173 
z
" style="fill:#ff0240;stroke:#000000;stroke-linejoin:miter;stroke-width:0.1;"/>
    </g>
    <g id="patch_225">
     <path d="M 199.18774 115.618173 
C 199.189591 115.618919 199.191441 115.619665 199.193292 115.62041 
C 199.195143 115.621155 199.196995 115.621899 199.198846 115.622643 
L 203.716026 104.38392 
L 199.18774 115.618173 
z
" style="fill:#d0d1df;stroke:#000000;stroke-linejoin:miter;stroke-width:0.1;"/>
    </g>
    <g id="patch_226">
     <path d="M 199.198846 115.622643 
C 199.202996 115.624311 199.207147 115.625977 199.211299 115.627641 
C 199.215451 115.629304 199.219604 115.630965 199.223758 115.632624 
L 203.716026 104.38392 
L 199.198846 115.622643 
z
" style="fill:#6ef1c9;stroke:#000000;stroke-linejoin:miter;stroke-width:0.1;"/>
    </g>
    <g id="patch_227">
     <path d="M 199.223758 115.632624 
C 200.109423 115.986322 201.03377 116.234187 201.977576 116.371064 
C 202.921382 116.50794 203.87806 116.532873 204.827715 116.445345 
L 203.716026 104.38392 
L 199.223758 115.632624 
z
" style="fill:#6ef1c9;stroke:#000000;stroke-linejoin:miter;stroke-width:0.1;"/>
    </g>
    <g id="patch_228">
     <path d="M 204.827715 116.445345 
C 205.934841 116.343302 207.022664 116.089308 208.060505 115.690525 
C 209.098345 115.291743 210.076355 114.751956 210.966951 114.086389 
L 203.716026 104.38392 
L 204.827715 116.445345 
z
" style="fill:#6ef1c9;stroke:#000000;stroke-linejoin:miter;stroke-width:0.1;"/>
    </g>
    <g id="patch_229">
     <path d="M 210.966951 114.086389 
C 211.059151 114.017485 211.150364 113.947271 211.240562 113.875768 
C 211.33076 113.804264 211.419935 113.731479 211.508059 113.657433 
L 203.716026 104.38392 
L 210.966951 114.086389 
z
" style="fill:#689285;stroke:#000000;stroke-linejoin:miter;stroke-width:0.1;"/>
    </g>
    <g id="patch_230">
     <path d="M 211.508059 113.657433 
C 212.565489 112.768931 213.463203 111.706075 214.162302 110.514918 
C 214.861401 109.32376 215.351642 108.021756 215.611783 106.665318 
L 203.716026 104.38392 
L 211.508059 113.657433 
z
" style="fill:#428317;stroke:#000000;stroke-linejoin:miter;stroke-width:0.1;"/>
    </g>
    <g id="patch_231">
     <path d="M 215.611783 106.665318 
C 215.657454 106.427177 215.695964 106.187719 215.727261 105.947266 
C 215.758557 105.706814 215.782626 105.465476 215.799435 105.223579 
L 203.716026 104.38392 
L 215.611783 106.665318 
z
" style="fill:#428317;stroke:#000000;stroke-linejoin:miter;stroke-width:0.1;"/>
    </g>
    <g id="patch_232">
     <path d="M 215.799435 105.223579 
C 215.800725 105.205019 215.801972 105.186457 215.803176 105.167892 
C 215.80438 105.149327 215.805542 105.130759 215.80666 105.112189 
L 203.716026 104.38392 
L 215.799435 105.223579 
z
" style="fill:#106832;stroke:#000000;stroke-linejoin:miter;stroke-width:0.1;"/>
    </g>
    <g id="patch_233">
     <path d="M 215.80666 105.112189 
C 215.80666 105.112189 215.80666 105.112189 215.80666 105.112189 
L 203.716026 104.38392 
L 215.80666 105.112189 
z
" style="fill:#56a45e;stroke:#000000;stroke-linejoin:miter;stroke-width:0.1;"/>
    </g>
    <g id="patch_234">
     <path d="M 215.80666 105.112189 
C 215.80666 105.112189 215.80666 105.112189 215.80666 105.112189 
L 203.716026 104.38392 
L 215.80666 105.112189 
z
" style="fill:#7ac890;stroke:#000000;stroke-linejoin:miter;stroke-width:0.1;"/>
    </g>
    <g id="patch_235">
     <path d="M 215.80666 105.112189 
C 215.813963 104.990955 215.819441 104.869617 215.823094 104.748218 
C 215.826747 104.62682 215.828574 104.505373 215.828574 104.383919 
L 203.716026 104.38392 
L 215.80666 105.112189 
z
" style="fill:#51a778;stroke:#000000;stroke-linejoin:miter;stroke-width:0.1;"/>
    </g>
    <g id="patch_236">
     <path d="M 215.828574 104.383919 
C 215.828574 104.383919 215.828574 104.383919 215.828574 104.383919 
L 203.716026 104.38392 
L 215.828574 104.383919 
z
" style="fill:#34be72;stroke:#000000;stroke-linejoin:miter;stroke-width:0.1;"/>
    </g>
    <g id="patch_237">
     <path d="M 215.828574 104.383919 
C 215.828574 104.383919 215.828574 104.383919 215.828574 104.383919 
L 203.716026 104.38392 
L 215.828574 104.383919 
z
" style="fill:#0ec460;stroke:#000000;stroke-linejoin:miter;stroke-width:0.1;"/>
    </g>
    <g id="patch_238">
     <path d="M 215.828574 104.383919 
C 215.828574 104.383919 215.828574 104.383919 215.828574 104.383919 
L 203.716026 104.38392 
L 215.828574 104.383919 
z
" style="fill:#069848;stroke:#000000;stroke-linejoin:miter;stroke-width:0.1;"/>
    </g>
    <g id="matplotlib.axis_17"/>
    <g id="matplotlib.axis_18"/>
   </g>
  </g>
 </g>
 <defs>
  <clipPath id="pc7948732aa">
   <rect height="124.412598" width="177.888189" x="50.825197" y="17.773228"/>
  </clipPath>
 </defs>
</svg>
