<?xml version="1.0" encoding="utf-8" standalone="no"?>
<!DOCTYPE svg PUBLIC "-//W3C//DTD SVG 1.1//EN"
  "http://www.w3.org/Graphics/SVG/1.1/DTD/svg11.dtd">
<!-- Created with matplotlib (https://matplotlib.org/) -->
<svg height="283.464567pt" version="1.1" viewBox="0 0 425.19685 283.464567" width="425.19685pt" xmlns="http://www.w3.org/2000/svg" xmlns:xlink="http://www.w3.org/1999/xlink">
 <metadata>
  <rdf:RDF xmlns:cc="http://creativecommons.org/ns#" xmlns:dc="http://purl.org/dc/elements/1.1/" xmlns:rdf="http://www.w3.org/1999/02/22-rdf-syntax-ns#">
   <cc:Work>
    <dc:type rdf:resource="http://purl.org/dc/dcmitype/StillImage"/>
    <dc:date>2021-11-15T17:03:13.571556</dc:date>
    <dc:format>image/svg+xml</dc:format>
    <dc:creator>
     <cc:Agent>
      <dc:title>Matplotlib v3.3.4, https://matplotlib.org/</dc:title>
     </cc:Agent>
    </dc:creator>
   </cc:Work>
  </rdf:RDF>
 </metadata>
 <defs>
  <style type="text/css">*{stroke-linecap:butt;stroke-linejoin:round;}</style>
 </defs>
 <g id="figure_1">
  <g id="patch_1">
   <path d="M 0 283.464567 
L 425.19685 283.464567 
L 425.19685 0 
L 0 0 
z
" style="fill:#ffffff;"/>
  </g>
  <g id="axes_1">
   <g id="patch_2">
    <path d="M 53.149606 133.228346 
L 382.677165 133.228346 
L 382.677165 34.015748 
L 53.149606 34.015748 
z
" style="fill:#ffffff;"/>
   </g>
   <g id="matplotlib.axis_1">
    <g id="xtick_1">
     <g id="line2d_1">
      <defs>
       <path d="M 0 0 
L 0 3.5 
" id="me559afd6b2" style="stroke:#000000;stroke-width:0.8;"/>
      </defs>
      <g>
       <use style="stroke:#000000;stroke-width:0.8;" x="67.878173" xlink:href="#me559afd6b2" y="133.228346"/>
      </g>
     </g>
     <g id="text_1">
      <!-- 2 -->
      <g transform="translate(65.333173 146.307096)scale(0.08 -0.08)">
       <defs>
        <path d="M 19.1875 8.296875 
L 53.609375 8.296875 
L 53.609375 0 
L 7.328125 0 
L 7.328125 8.296875 
Q 12.9375 14.109375 22.625 23.890625 
Q 32.328125 33.6875 34.8125 36.53125 
Q 39.546875 41.84375 41.421875 45.53125 
Q 43.3125 49.21875 43.3125 52.78125 
Q 43.3125 58.59375 39.234375 62.25 
Q 35.15625 65.921875 28.609375 65.921875 
Q 23.96875 65.921875 18.8125 64.3125 
Q 13.671875 62.703125 7.8125 59.421875 
L 7.8125 69.390625 
Q 13.765625 71.78125 18.9375 73 
Q 24.125 74.21875 28.421875 74.21875 
Q 39.75 74.21875 46.484375 68.546875 
Q 53.21875 62.890625 53.21875 53.421875 
Q 53.21875 48.921875 51.53125 44.890625 
Q 49.859375 40.875 45.40625 35.40625 
Q 44.1875 33.984375 37.640625 27.21875 
Q 31.109375 20.453125 19.1875 8.296875 
z
" id="DejaVuSans-50"/>
       </defs>
       <use xlink:href="#DejaVuSans-50"/>
      </g>
     </g>
    </g>
    <g id="xtick_2">
     <g id="line2d_2">
      <g>
       <use style="stroke:#000000;stroke-width:0.8;" x="127.892258" xlink:href="#me559afd6b2" y="133.228346"/>
      </g>
     </g>
     <g id="text_2">
      <!-- 4 -->
      <g transform="translate(125.347258 146.307096)scale(0.08 -0.08)">
       <defs>
        <path d="M 37.796875 64.3125 
L 12.890625 25.390625 
L 37.796875 25.390625 
z
M 35.203125 72.90625 
L 47.609375 72.90625 
L 47.609375 25.390625 
L 58.015625 25.390625 
L 58.015625 17.1875 
L 47.609375 17.1875 
L 47.609375 0 
L 37.796875 0 
L 37.796875 17.1875 
L 4.890625 17.1875 
L 4.890625 26.703125 
z
" id="DejaVuSans-52"/>
       </defs>
       <use xlink:href="#DejaVuSans-52"/>
      </g>
     </g>
    </g>
    <g id="xtick_3">
     <g id="line2d_3">
      <g>
       <use style="stroke:#000000;stroke-width:0.8;" x="187.906343" xlink:href="#me559afd6b2" y="133.228346"/>
      </g>
     </g>
     <g id="text_3">
      <!-- 6 -->
      <g transform="translate(185.361343 146.307096)scale(0.08 -0.08)">
       <defs>
        <path d="M 33.015625 40.375 
Q 26.375 40.375 22.484375 35.828125 
Q 18.609375 31.296875 18.609375 23.390625 
Q 18.609375 15.53125 22.484375 10.953125 
Q 26.375 6.390625 33.015625 6.390625 
Q 39.65625 6.390625 43.53125 10.953125 
Q 47.40625 15.53125 47.40625 23.390625 
Q 47.40625 31.296875 43.53125 35.828125 
Q 39.65625 40.375 33.015625 40.375 
z
M 52.59375 71.296875 
L 52.59375 62.3125 
Q 48.875 64.0625 45.09375 64.984375 
Q 41.3125 65.921875 37.59375 65.921875 
Q 27.828125 65.921875 22.671875 59.328125 
Q 17.53125 52.734375 16.796875 39.40625 
Q 19.671875 43.65625 24.015625 45.921875 
Q 28.375 48.1875 33.59375 48.1875 
Q 44.578125 48.1875 50.953125 41.515625 
Q 57.328125 34.859375 57.328125 23.390625 
Q 57.328125 12.15625 50.6875 5.359375 
Q 44.046875 -1.421875 33.015625 -1.421875 
Q 20.359375 -1.421875 13.671875 8.265625 
Q 6.984375 17.96875 6.984375 36.375 
Q 6.984375 53.65625 15.1875 63.9375 
Q 23.390625 74.21875 37.203125 74.21875 
Q 40.921875 74.21875 44.703125 73.484375 
Q 48.484375 72.75 52.59375 71.296875 
z
" id="DejaVuSans-54"/>
       </defs>
       <use xlink:href="#DejaVuSans-54"/>
      </g>
     </g>
    </g>
    <g id="xtick_4">
     <g id="line2d_4">
      <g>
       <use style="stroke:#000000;stroke-width:0.8;" x="247.920428" xlink:href="#me559afd6b2" y="133.228346"/>
      </g>
     </g>
     <g id="text_4">
      <!-- 8 -->
      <g transform="translate(245.375428 146.307096)scale(0.08 -0.08)">
       <defs>
        <path d="M 31.78125 34.625 
Q 24.75 34.625 20.71875 30.859375 
Q 16.703125 27.09375 16.703125 20.515625 
Q 16.703125 13.921875 20.71875 10.15625 
Q 24.75 6.390625 31.78125 6.390625 
Q 38.8125 6.390625 42.859375 10.171875 
Q 46.921875 13.96875 46.921875 20.515625 
Q 46.921875 27.09375 42.890625 30.859375 
Q 38.875 34.625 31.78125 34.625 
z
M 21.921875 38.8125 
Q 15.578125 40.375 12.03125 44.71875 
Q 8.5 49.078125 8.5 55.328125 
Q 8.5 64.0625 14.71875 69.140625 
Q 20.953125 74.21875 31.78125 74.21875 
Q 42.671875 74.21875 48.875 69.140625 
Q 55.078125 64.0625 55.078125 55.328125 
Q 55.078125 49.078125 51.53125 44.71875 
Q 48 40.375 41.703125 38.8125 
Q 48.828125 37.15625 52.796875 32.3125 
Q 56.78125 27.484375 56.78125 20.515625 
Q 56.78125 9.90625 50.3125 4.234375 
Q 43.84375 -1.421875 31.78125 -1.421875 
Q 19.734375 -1.421875 13.25 4.234375 
Q 6.78125 9.90625 6.78125 20.515625 
Q 6.78125 27.484375 10.78125 32.3125 
Q 14.796875 37.15625 21.921875 38.8125 
z
M 18.3125 54.390625 
Q 18.3125 48.734375 21.84375 45.5625 
Q 25.390625 42.390625 31.78125 42.390625 
Q 38.140625 42.390625 41.71875 45.5625 
Q 45.3125 48.734375 45.3125 54.390625 
Q 45.3125 60.0625 41.71875 63.234375 
Q 38.140625 66.40625 31.78125 66.40625 
Q 25.390625 66.40625 21.84375 63.234375 
Q 18.3125 60.0625 18.3125 54.390625 
z
" id="DejaVuSans-56"/>
       </defs>
       <use xlink:href="#DejaVuSans-56"/>
      </g>
     </g>
    </g>
    <g id="xtick_5">
     <g id="line2d_5">
      <g>
       <use style="stroke:#000000;stroke-width:0.8;" x="307.934513" xlink:href="#me559afd6b2" y="133.228346"/>
      </g>
     </g>
     <g id="text_5">
      <!-- 10 -->
      <g transform="translate(302.844513 146.307096)scale(0.08 -0.08)">
       <defs>
        <path d="M 12.40625 8.296875 
L 28.515625 8.296875 
L 28.515625 63.921875 
L 10.984375 60.40625 
L 10.984375 69.390625 
L 28.421875 72.90625 
L 38.28125 72.90625 
L 38.28125 8.296875 
L 54.390625 8.296875 
L 54.390625 0 
L 12.40625 0 
z
" id="DejaVuSans-49"/>
        <path d="M 31.78125 66.40625 
Q 24.171875 66.40625 20.328125 58.90625 
Q 16.5 51.421875 16.5 36.375 
Q 16.5 21.390625 20.328125 13.890625 
Q 24.171875 6.390625 31.78125 6.390625 
Q 39.453125 6.390625 43.28125 13.890625 
Q 47.125 21.390625 47.125 36.375 
Q 47.125 51.421875 43.28125 58.90625 
Q 39.453125 66.40625 31.78125 66.40625 
z
M 31.78125 74.21875 
Q 44.046875 74.21875 50.515625 64.515625 
Q 56.984375 54.828125 56.984375 36.375 
Q 56.984375 17.96875 50.515625 8.265625 
Q 44.046875 -1.421875 31.78125 -1.421875 
Q 19.53125 -1.421875 13.0625 8.265625 
Q 6.59375 17.96875 6.59375 36.375 
Q 6.59375 54.828125 13.0625 64.515625 
Q 19.53125 74.21875 31.78125 74.21875 
z
" id="DejaVuSans-48"/>
       </defs>
       <use xlink:href="#DejaVuSans-49"/>
       <use x="63.623047" xlink:href="#DejaVuSans-48"/>
      </g>
     </g>
    </g>
    <g id="xtick_6">
     <g id="line2d_6">
      <g>
       <use style="stroke:#000000;stroke-width:0.8;" x="367.948599" xlink:href="#me559afd6b2" y="133.228346"/>
      </g>
     </g>
     <g id="text_6">
      <!-- 12 -->
      <g transform="translate(362.858599 146.307096)scale(0.08 -0.08)">
       <use xlink:href="#DejaVuSans-49"/>
       <use x="63.623047" xlink:href="#DejaVuSans-50"/>
      </g>
     </g>
    </g>
   </g>
   <g id="matplotlib.axis_2">
    <g id="ytick_1">
     <g id="line2d_7">
      <defs>
       <path d="M 0 0 
L -3.5 0 
" id="m6d2a0eb94e" style="stroke:#000000;stroke-width:0.8;"/>
      </defs>
      <g>
       <use style="stroke:#000000;stroke-width:0.8;" x="53.149606" xlink:href="#m6d2a0eb94e" y="128.503937"/>
      </g>
     </g>
     <g id="text_7">
      <!-- 0.00 -->
      <g transform="translate(28.337106 131.543312)scale(0.08 -0.08)">
       <defs>
        <path d="M 10.6875 12.40625 
L 21 12.40625 
L 21 0 
L 10.6875 0 
z
" id="DejaVuSans-46"/>
       </defs>
       <use xlink:href="#DejaVuSans-48"/>
       <use x="63.623047" xlink:href="#DejaVuSans-46"/>
       <use x="95.410156" xlink:href="#DejaVuSans-48"/>
       <use x="159.033203" xlink:href="#DejaVuSans-48"/>
      </g>
     </g>
    </g>
    <g id="ytick_2">
     <g id="line2d_8">
      <g>
       <use style="stroke:#000000;stroke-width:0.8;" x="53.149606" xlink:href="#m6d2a0eb94e" y="104.88189"/>
      </g>
     </g>
     <g id="text_8">
      <!-- 0.05 -->
      <g transform="translate(28.337106 107.921265)scale(0.08 -0.08)">
       <defs>
        <path d="M 10.796875 72.90625 
L 49.515625 72.90625 
L 49.515625 64.59375 
L 19.828125 64.59375 
L 19.828125 46.734375 
Q 21.96875 47.46875 24.109375 47.828125 
Q 26.265625 48.1875 28.421875 48.1875 
Q 40.625 48.1875 47.75 41.5 
Q 54.890625 34.8125 54.890625 23.390625 
Q 54.890625 11.625 47.5625 5.09375 
Q 40.234375 -1.421875 26.90625 -1.421875 
Q 22.3125 -1.421875 17.546875 -0.640625 
Q 12.796875 0.140625 7.71875 1.703125 
L 7.71875 11.625 
Q 12.109375 9.234375 16.796875 8.0625 
Q 21.484375 6.890625 26.703125 6.890625 
Q 35.15625 6.890625 40.078125 11.328125 
Q 45.015625 15.765625 45.015625 23.390625 
Q 45.015625 31 40.078125 35.4375 
Q 35.15625 39.890625 26.703125 39.890625 
Q 22.75 39.890625 18.8125 39.015625 
Q 14.890625 38.140625 10.796875 36.28125 
z
" id="DejaVuSans-53"/>
       </defs>
       <use xlink:href="#DejaVuSans-48"/>
       <use x="63.623047" xlink:href="#DejaVuSans-46"/>
       <use x="95.410156" xlink:href="#DejaVuSans-48"/>
       <use x="159.033203" xlink:href="#DejaVuSans-53"/>
      </g>
     </g>
    </g>
    <g id="ytick_3">
     <g id="line2d_9">
      <g>
       <use style="stroke:#000000;stroke-width:0.8;" x="53.149606" xlink:href="#m6d2a0eb94e" y="81.259843"/>
      </g>
     </g>
     <g id="text_9">
      <!-- 0.10 -->
      <g transform="translate(28.337106 84.299218)scale(0.08 -0.08)">
       <use xlink:href="#DejaVuSans-48"/>
       <use x="63.623047" xlink:href="#DejaVuSans-46"/>
       <use x="95.410156" xlink:href="#DejaVuSans-49"/>
       <use x="159.033203" xlink:href="#DejaVuSans-48"/>
      </g>
     </g>
    </g>
    <g id="ytick_4">
     <g id="line2d_10">
      <g>
       <use style="stroke:#000000;stroke-width:0.8;" x="53.149606" xlink:href="#m6d2a0eb94e" y="57.637795"/>
      </g>
     </g>
     <g id="text_10">
      <!-- 0.15 -->
      <g transform="translate(28.337106 60.67717)scale(0.08 -0.08)">
       <use xlink:href="#DejaVuSans-48"/>
       <use x="63.623047" xlink:href="#DejaVuSans-46"/>
       <use x="95.410156" xlink:href="#DejaVuSans-49"/>
       <use x="159.033203" xlink:href="#DejaVuSans-53"/>
      </g>
     </g>
    </g>
    <g id="ytick_5">
     <g id="line2d_11">
      <g>
       <use style="stroke:#000000;stroke-width:0.8;" x="53.149606" xlink:href="#m6d2a0eb94e" y="34.015748"/>
      </g>
     </g>
     <g id="text_11">
      <!-- 0.20 -->
      <g transform="translate(28.337106 37.055123)scale(0.08 -0.08)">
       <use xlink:href="#DejaVuSans-48"/>
       <use x="63.623047" xlink:href="#DejaVuSans-46"/>
       <use x="95.410156" xlink:href="#DejaVuSans-50"/>
       <use x="159.033203" xlink:href="#DejaVuSans-48"/>
      </g>
     </g>
    </g>
    <g id="text_12">
     <!-- Intensity (360 nm)/ kV -->
     <g transform="translate(22.257419 139.63611)rotate(-90)scale(0.1 -0.1)">
      <defs>
       <path d="M 9.8125 72.90625 
L 19.671875 72.90625 
L 19.671875 0 
L 9.8125 0 
z
" id="DejaVuSans-73"/>
       <path d="M 54.890625 33.015625 
L 54.890625 0 
L 45.90625 0 
L 45.90625 32.71875 
Q 45.90625 40.484375 42.875 44.328125 
Q 39.84375 48.1875 33.796875 48.1875 
Q 26.515625 48.1875 22.3125 43.546875 
Q 18.109375 38.921875 18.109375 30.90625 
L 18.109375 0 
L 9.078125 0 
L 9.078125 54.6875 
L 18.109375 54.6875 
L 18.109375 46.1875 
Q 21.34375 51.125 25.703125 53.5625 
Q 30.078125 56 35.796875 56 
Q 45.21875 56 50.046875 50.171875 
Q 54.890625 44.34375 54.890625 33.015625 
z
" id="DejaVuSans-110"/>
       <path d="M 18.3125 70.21875 
L 18.3125 54.6875 
L 36.8125 54.6875 
L 36.8125 47.703125 
L 18.3125 47.703125 
L 18.3125 18.015625 
Q 18.3125 11.328125 20.140625 9.421875 
Q 21.96875 7.515625 27.59375 7.515625 
L 36.8125 7.515625 
L 36.8125 0 
L 27.59375 0 
Q 17.1875 0 13.234375 3.875 
Q 9.28125 7.765625 9.28125 18.015625 
L 9.28125 47.703125 
L 2.6875 47.703125 
L 2.6875 54.6875 
L 9.28125 54.6875 
L 9.28125 70.21875 
z
" id="DejaVuSans-116"/>
       <path d="M 56.203125 29.59375 
L 56.203125 25.203125 
L 14.890625 25.203125 
Q 15.484375 15.921875 20.484375 11.0625 
Q 25.484375 6.203125 34.421875 6.203125 
Q 39.59375 6.203125 44.453125 7.46875 
Q 49.3125 8.734375 54.109375 11.28125 
L 54.109375 2.78125 
Q 49.265625 0.734375 44.1875 -0.34375 
Q 39.109375 -1.421875 33.890625 -1.421875 
Q 20.796875 -1.421875 13.15625 6.1875 
Q 5.515625 13.8125 5.515625 26.8125 
Q 5.515625 40.234375 12.765625 48.109375 
Q 20.015625 56 32.328125 56 
Q 43.359375 56 49.78125 48.890625 
Q 56.203125 41.796875 56.203125 29.59375 
z
M 47.21875 32.234375 
Q 47.125 39.59375 43.09375 43.984375 
Q 39.0625 48.390625 32.421875 48.390625 
Q 24.90625 48.390625 20.390625 44.140625 
Q 15.875 39.890625 15.1875 32.171875 
z
" id="DejaVuSans-101"/>
       <path d="M 44.28125 53.078125 
L 44.28125 44.578125 
Q 40.484375 46.53125 36.375 47.5 
Q 32.28125 48.484375 27.875 48.484375 
Q 21.1875 48.484375 17.84375 46.4375 
Q 14.5 44.390625 14.5 40.28125 
Q 14.5 37.15625 16.890625 35.375 
Q 19.28125 33.59375 26.515625 31.984375 
L 29.59375 31.296875 
Q 39.15625 29.25 43.1875 25.515625 
Q 47.21875 21.78125 47.21875 15.09375 
Q 47.21875 7.46875 41.1875 3.015625 
Q 35.15625 -1.421875 24.609375 -1.421875 
Q 20.21875 -1.421875 15.453125 -0.5625 
Q 10.6875 0.296875 5.421875 2 
L 5.421875 11.28125 
Q 10.40625 8.6875 15.234375 7.390625 
Q 20.0625 6.109375 24.8125 6.109375 
Q 31.15625 6.109375 34.5625 8.28125 
Q 37.984375 10.453125 37.984375 14.40625 
Q 37.984375 18.0625 35.515625 20.015625 
Q 33.0625 21.96875 24.703125 23.78125 
L 21.578125 24.515625 
Q 13.234375 26.265625 9.515625 29.90625 
Q 5.8125 33.546875 5.8125 39.890625 
Q 5.8125 47.609375 11.28125 51.796875 
Q 16.75 56 26.8125 56 
Q 31.78125 56 36.171875 55.265625 
Q 40.578125 54.546875 44.28125 53.078125 
z
" id="DejaVuSans-115"/>
       <path d="M 9.421875 54.6875 
L 18.40625 54.6875 
L 18.40625 0 
L 9.421875 0 
z
M 9.421875 75.984375 
L 18.40625 75.984375 
L 18.40625 64.59375 
L 9.421875 64.59375 
z
" id="DejaVuSans-105"/>
       <path d="M 32.171875 -5.078125 
Q 28.375 -14.84375 24.75 -17.8125 
Q 21.140625 -20.796875 15.09375 -20.796875 
L 7.90625 -20.796875 
L 7.90625 -13.28125 
L 13.1875 -13.28125 
Q 16.890625 -13.28125 18.9375 -11.515625 
Q 21 -9.765625 23.484375 -3.21875 
L 25.09375 0.875 
L 2.984375 54.6875 
L 12.5 54.6875 
L 29.59375 11.921875 
L 46.6875 54.6875 
L 56.203125 54.6875 
z
" id="DejaVuSans-121"/>
       <path id="DejaVuSans-32"/>
       <path d="M 31 75.875 
Q 24.46875 64.65625 21.28125 53.65625 
Q 18.109375 42.671875 18.109375 31.390625 
Q 18.109375 20.125 21.3125 9.0625 
Q 24.515625 -2 31 -13.1875 
L 23.1875 -13.1875 
Q 15.875 -1.703125 12.234375 9.375 
Q 8.59375 20.453125 8.59375 31.390625 
Q 8.59375 42.28125 12.203125 53.3125 
Q 15.828125 64.359375 23.1875 75.875 
z
" id="DejaVuSans-40"/>
       <path d="M 40.578125 39.3125 
Q 47.65625 37.796875 51.625 33 
Q 55.609375 28.21875 55.609375 21.1875 
Q 55.609375 10.40625 48.1875 4.484375 
Q 40.765625 -1.421875 27.09375 -1.421875 
Q 22.515625 -1.421875 17.65625 -0.515625 
Q 12.796875 0.390625 7.625 2.203125 
L 7.625 11.71875 
Q 11.71875 9.328125 16.59375 8.109375 
Q 21.484375 6.890625 26.8125 6.890625 
Q 36.078125 6.890625 40.9375 10.546875 
Q 45.796875 14.203125 45.796875 21.1875 
Q 45.796875 27.640625 41.28125 31.265625 
Q 36.765625 34.90625 28.71875 34.90625 
L 20.21875 34.90625 
L 20.21875 43.015625 
L 29.109375 43.015625 
Q 36.375 43.015625 40.234375 45.921875 
Q 44.09375 48.828125 44.09375 54.296875 
Q 44.09375 59.90625 40.109375 62.90625 
Q 36.140625 65.921875 28.71875 65.921875 
Q 24.65625 65.921875 20.015625 65.03125 
Q 15.375 64.15625 9.8125 62.3125 
L 9.8125 71.09375 
Q 15.4375 72.65625 20.34375 73.4375 
Q 25.25 74.21875 29.59375 74.21875 
Q 40.828125 74.21875 47.359375 69.109375 
Q 53.90625 64.015625 53.90625 55.328125 
Q 53.90625 49.265625 50.4375 45.09375 
Q 46.96875 40.921875 40.578125 39.3125 
z
" id="DejaVuSans-51"/>
       <path d="M 52 44.1875 
Q 55.375 50.25 60.0625 53.125 
Q 64.75 56 71.09375 56 
Q 79.640625 56 84.28125 50.015625 
Q 88.921875 44.046875 88.921875 33.015625 
L 88.921875 0 
L 79.890625 0 
L 79.890625 32.71875 
Q 79.890625 40.578125 77.09375 44.375 
Q 74.3125 48.1875 68.609375 48.1875 
Q 61.625 48.1875 57.5625 43.546875 
Q 53.515625 38.921875 53.515625 30.90625 
L 53.515625 0 
L 44.484375 0 
L 44.484375 32.71875 
Q 44.484375 40.625 41.703125 44.40625 
Q 38.921875 48.1875 33.109375 48.1875 
Q 26.21875 48.1875 22.15625 43.53125 
Q 18.109375 38.875 18.109375 30.90625 
L 18.109375 0 
L 9.078125 0 
L 9.078125 54.6875 
L 18.109375 54.6875 
L 18.109375 46.1875 
Q 21.1875 51.21875 25.484375 53.609375 
Q 29.78125 56 35.6875 56 
Q 41.65625 56 45.828125 52.96875 
Q 50 49.953125 52 44.1875 
z
" id="DejaVuSans-109"/>
       <path d="M 8.015625 75.875 
L 15.828125 75.875 
Q 23.140625 64.359375 26.78125 53.3125 
Q 30.421875 42.28125 30.421875 31.390625 
Q 30.421875 20.453125 26.78125 9.375 
Q 23.140625 -1.703125 15.828125 -13.1875 
L 8.015625 -13.1875 
Q 14.5 -2 17.703125 9.0625 
Q 20.90625 20.125 20.90625 31.390625 
Q 20.90625 42.671875 17.703125 53.65625 
Q 14.5 64.65625 8.015625 75.875 
z
" id="DejaVuSans-41"/>
       <path d="M 25.390625 72.90625 
L 33.6875 72.90625 
L 8.296875 -9.28125 
L 0 -9.28125 
z
" id="DejaVuSans-47"/>
       <path d="M 9.078125 75.984375 
L 18.109375 75.984375 
L 18.109375 31.109375 
L 44.921875 54.6875 
L 56.390625 54.6875 
L 27.390625 29.109375 
L 57.625 0 
L 45.90625 0 
L 18.109375 26.703125 
L 18.109375 0 
L 9.078125 0 
z
" id="DejaVuSans-107"/>
       <path d="M 28.609375 0 
L 0.78125 72.90625 
L 11.078125 72.90625 
L 34.1875 11.53125 
L 57.328125 72.90625 
L 67.578125 72.90625 
L 39.796875 0 
z
" id="DejaVuSans-86"/>
      </defs>
      <use xlink:href="#DejaVuSans-73"/>
      <use x="29.492188" xlink:href="#DejaVuSans-110"/>
      <use x="92.871094" xlink:href="#DejaVuSans-116"/>
      <use x="132.080078" xlink:href="#DejaVuSans-101"/>
      <use x="193.603516" xlink:href="#DejaVuSans-110"/>
      <use x="256.982422" xlink:href="#DejaVuSans-115"/>
      <use x="309.082031" xlink:href="#DejaVuSans-105"/>
      <use x="336.865234" xlink:href="#DejaVuSans-116"/>
      <use x="376.074219" xlink:href="#DejaVuSans-121"/>
      <use x="435.253906" xlink:href="#DejaVuSans-32"/>
      <use x="467.041016" xlink:href="#DejaVuSans-40"/>
      <use x="506.054688" xlink:href="#DejaVuSans-51"/>
      <use x="569.677734" xlink:href="#DejaVuSans-54"/>
      <use x="633.300781" xlink:href="#DejaVuSans-48"/>
      <use x="696.923828" xlink:href="#DejaVuSans-32"/>
      <use x="728.710938" xlink:href="#DejaVuSans-110"/>
      <use x="792.089844" xlink:href="#DejaVuSans-109"/>
      <use x="889.501953" xlink:href="#DejaVuSans-41"/>
      <use x="928.515625" xlink:href="#DejaVuSans-47"/>
      <use x="962.207031" xlink:href="#DejaVuSans-32"/>
      <use x="993.994141" xlink:href="#DejaVuSans-107"/>
      <use x="1051.904297" xlink:href="#DejaVuSans-86"/>
     </g>
    </g>
   </g>
   <g id="line2d_12">
    <path clip-path="url(#p695d93483e)" d="M 68.128132 122.471811 
L 68.878308 122.741102 
L 69.878743 123.40063 
L 71.629053 125.019685 
L 73.379364 126.567402 
L 74.629758 127.377638 
L 75.880151 127.92189 
L 77.130244 128.230394 
L 79.130814 128.456693 
L 82.381477 128.525669 
L 98.88535 128.418425 
L 100.88592 128.110394 
L 102.386272 128.128346 
L 103.136448 127.919528 
L 103.886624 127.372913 
L 104.6368 126.801732 
L 105.636935 126.363307 
L 106.137152 125.781732 
L 107.137287 124.355906 
L 107.637504 124.145669 
L 108.38768 124.156535 
L 108.887898 123.789921 
L 110.38825 121.989449 
L 110.888167 121.708819 
L 111.138426 121.764567 
L 111.388385 122.031496 
L 111.888602 123.069449 
L 112.888737 125.673071 
L 113.388954 126.289134 
L 113.638913 126.355748 
L 113.888872 126.264567 
L 114.13913 126.02126 
L 114.639048 124.971969 
L 115.139265 122.840787 
L 116.1394 117.694961 
L 116.389659 117.298583 
L 116.639617 117.546614 
L 117.139835 119.633858 
L 118.139969 125.068819 
L 118.640187 126.686457 
L 119.140104 127.577953 
L 119.640321 128.024409 
L 120.390498 128.292756 
L 121.640891 128.390079 
L 123.891419 128.360787 
L 124.391337 128.125039 
L 124.641595 127.815591 
L 124.891554 127.273228 
L 125.391771 125.087244 
L 125.891689 121.197165 
L 126.641865 114.343937 
L 126.892123 113.104252 
L 127.142082 112.631811 
L 127.392041 112.957795 
L 127.642299 114.114331 
L 129.142652 124.825039 
L 129.642569 126.716693 
L 130.142786 127.598268 
L 130.643004 127.950236 
L 131.142921 127.985669 
L 134.393884 127.395591 
L 135.14406 127.611024 
L 136.644412 128.188819 
L 138.144764 128.377323 
L 140.89521 128.445827 
L 153.648203 128.45622 
L 154.398379 128.294646 
L 154.648638 128.094803 
L 154.898596 127.690394 
L 155.148555 126.937323 
L 155.398814 125.673071 
L 155.648773 123.597165 
L 156.14899 116.154803 
L 156.648907 103.389449 
L 157.649342 74.045197 
L 157.899301 70.062047 
L 158.149259 68.841732 
L 158.399518 70.167874 
L 158.649477 73.770236 
L 159.399653 93.015118 
L 160.149829 111.393071 
L 160.650046 119.101417 
L 161.149964 123.545197 
L 161.650181 125.822835 
L 162.150398 126.897638 
L 162.650316 127.385669 
L 163.400492 127.667244 
L 164.900844 127.812283 
L 168.901983 127.880315 
L 180.154624 127.876063 
L 182.405152 127.770709 
L 182.655111 127.640315 
L 182.905069 127.367717 
L 183.155328 126.756378 
L 183.405287 125.567717 
L 183.655246 123.278268 
L 183.905504 119.02063 
L 184.155463 111.820157 
L 184.405422 99.825354 
L 184.65568 80.914488 
L 185.155598 14.16 
L 185.228652 -1 
M 190.124978 -1 
L 190.40683 37.728189 
L 190.907048 81.854173 
L 191.407265 104.955591 
L 191.907182 116.27622 
L 192.4074 121.646929 
L 192.907617 124.215591 
L 193.407534 125.511496 
L 193.907752 126.221575 
L 194.657928 126.805984 
L 195.658063 127.217953 
L 197.158415 127.533543 
L 199.659202 127.816535 
L 203.909999 128.037638 
L 206.410786 127.994646 
L 207.410921 127.754646 
L 208.911273 127.302992 
L 209.661449 127.302047 
L 210.911843 127.610551 
L 212.412195 127.971969 
L 214.162506 128.142992 
L 218.413603 128.189291 
L 227.915633 128.203937 
L 234.667218 128.160472 
L 240.918885 128.157165 
L 250.921133 128.254961 
L 268.425141 128.298898 
L 285.429232 128.316378 
L 311.185176 128.152913 
L 311.685394 127.932756 
L 312.185611 127.482047 
L 312.685529 126.627874 
L 313.185746 125.123622 
L 313.685963 122.673071 
L 314.185881 118.988976 
L 314.686098 113.85685 
L 315.436274 103.448031 
L 316.936626 80.086299 
L 317.436844 75.032598 
L 317.686802 73.568976 
L 317.936761 72.85748 
L 318.18702 72.926457 
L 318.436978 73.828346 
L 318.937196 77.702835 
L 319.687372 87.505984 
L 321.437683 112.529764 
L 322.187859 119.501102 
L 322.938035 123.815906 
L 323.438252 125.572441 
L 323.93817 126.692126 
L 324.438387 127.379528 
L 325.188563 127.930866 
L 325.938739 128.18126 
L 327.189132 128.337638 
L 330.439795 128.412283 
L 335.441069 128.34189 
L 338.441773 128.379685 
L 344.192923 128.469449 
L 361.697231 128.480787 
L 367.69864 128.477008 
L 367.69864 128.477008 
" style="fill:none;stroke:#000000;stroke-linecap:square;stroke-width:1.5;"/>
   </g>
   <g id="patch_3">
    <path d="M 53.149606 133.228346 
L 53.149606 34.015748 
" style="fill:none;stroke:#000000;stroke-linecap:square;stroke-linejoin:miter;stroke-width:0.8;"/>
   </g>
   <g id="patch_4">
    <path d="M 382.677165 133.228346 
L 382.677165 34.015748 
" style="fill:none;stroke:#000000;stroke-linecap:square;stroke-linejoin:miter;stroke-width:0.8;"/>
   </g>
   <g id="patch_5">
    <path d="M 53.149606 133.228346 
L 382.677165 133.228346 
" style="fill:none;stroke:#000000;stroke-linecap:square;stroke-linejoin:miter;stroke-width:0.8;"/>
   </g>
   <g id="patch_6">
    <path d="M 53.149606 34.015748 
L 382.677165 34.015748 
" style="fill:none;stroke:#000000;stroke-linecap:square;stroke-linejoin:miter;stroke-width:0.8;"/>
   </g>
  </g>
  <g id="axes_2">
   <g id="patch_7">
    <path d="M 53.149606 252.283465 
L 382.677165 252.283465 
L 382.677165 153.070866 
L 53.149606 153.070866 
z
" style="fill:#ffffff;"/>
   </g>
   <g id="matplotlib.axis_3">
    <g id="xtick_7">
     <g id="line2d_13">
      <g>
       <use style="stroke:#000000;stroke-width:0.8;" x="68.112244" xlink:href="#me559afd6b2" y="252.283465"/>
      </g>
     </g>
     <g id="text_13">
      <!-- 6 -->
      <g transform="translate(65.567244 265.362215)scale(0.08 -0.08)">
       <use xlink:href="#DejaVuSans-54"/>
      </g>
     </g>
    </g>
    <g id="xtick_8">
     <g id="line2d_14">
      <g>
       <use style="stroke:#000000;stroke-width:0.8;" x="122.584974" xlink:href="#me559afd6b2" y="252.283465"/>
      </g>
     </g>
     <g id="text_14">
      <!-- 8 -->
      <g transform="translate(120.039974 265.362215)scale(0.08 -0.08)">
       <use xlink:href="#DejaVuSans-56"/>
      </g>
     </g>
    </g>
    <g id="xtick_9">
     <g id="line2d_15">
      <g>
       <use style="stroke:#000000;stroke-width:0.8;" x="177.057704" xlink:href="#me559afd6b2" y="252.283465"/>
      </g>
     </g>
     <g id="text_15">
      <!-- 10 -->
      <g transform="translate(171.967704 265.362215)scale(0.08 -0.08)">
       <use xlink:href="#DejaVuSans-49"/>
       <use x="63.623047" xlink:href="#DejaVuSans-48"/>
      </g>
     </g>
    </g>
    <g id="xtick_10">
     <g id="line2d_16">
      <g>
       <use style="stroke:#000000;stroke-width:0.8;" x="231.530433" xlink:href="#me559afd6b2" y="252.283465"/>
      </g>
     </g>
     <g id="text_16">
      <!-- 12 -->
      <g transform="translate(226.440433 265.362215)scale(0.08 -0.08)">
       <use xlink:href="#DejaVuSans-49"/>
       <use x="63.623047" xlink:href="#DejaVuSans-50"/>
      </g>
     </g>
    </g>
    <g id="xtick_11">
     <g id="line2d_17">
      <g>
       <use style="stroke:#000000;stroke-width:0.8;" x="286.003163" xlink:href="#me559afd6b2" y="252.283465"/>
      </g>
     </g>
     <g id="text_17">
      <!-- 14 -->
      <g transform="translate(280.913163 265.362215)scale(0.08 -0.08)">
       <use xlink:href="#DejaVuSans-49"/>
       <use x="63.623047" xlink:href="#DejaVuSans-52"/>
      </g>
     </g>
    </g>
    <g id="xtick_12">
     <g id="line2d_18">
      <g>
       <use style="stroke:#000000;stroke-width:0.8;" x="340.475893" xlink:href="#me559afd6b2" y="252.283465"/>
      </g>
     </g>
     <g id="text_18">
      <!-- 16 -->
      <g transform="translate(335.385893 265.362215)scale(0.08 -0.08)">
       <use xlink:href="#DejaVuSans-49"/>
       <use x="63.623047" xlink:href="#DejaVuSans-54"/>
      </g>
     </g>
    </g>
    <g id="text_19">
     <!-- residence time/ min. -->
     <g transform="translate(166.479011 278.624402)scale(0.1 -0.1)">
      <defs>
       <path d="M 41.109375 46.296875 
Q 39.59375 47.171875 37.8125 47.578125 
Q 36.03125 48 33.890625 48 
Q 26.265625 48 22.1875 43.046875 
Q 18.109375 38.09375 18.109375 28.8125 
L 18.109375 0 
L 9.078125 0 
L 9.078125 54.6875 
L 18.109375 54.6875 
L 18.109375 46.1875 
Q 20.953125 51.171875 25.484375 53.578125 
Q 30.03125 56 36.53125 56 
Q 37.453125 56 38.578125 55.875 
Q 39.703125 55.765625 41.0625 55.515625 
z
" id="DejaVuSans-114"/>
       <path d="M 45.40625 46.390625 
L 45.40625 75.984375 
L 54.390625 75.984375 
L 54.390625 0 
L 45.40625 0 
L 45.40625 8.203125 
Q 42.578125 3.328125 38.25 0.953125 
Q 33.9375 -1.421875 27.875 -1.421875 
Q 17.96875 -1.421875 11.734375 6.484375 
Q 5.515625 14.40625 5.515625 27.296875 
Q 5.515625 40.1875 11.734375 48.09375 
Q 17.96875 56 27.875 56 
Q 33.9375 56 38.25 53.625 
Q 42.578125 51.265625 45.40625 46.390625 
z
M 14.796875 27.296875 
Q 14.796875 17.390625 18.875 11.75 
Q 22.953125 6.109375 30.078125 6.109375 
Q 37.203125 6.109375 41.296875 11.75 
Q 45.40625 17.390625 45.40625 27.296875 
Q 45.40625 37.203125 41.296875 42.84375 
Q 37.203125 48.484375 30.078125 48.484375 
Q 22.953125 48.484375 18.875 42.84375 
Q 14.796875 37.203125 14.796875 27.296875 
z
" id="DejaVuSans-100"/>
       <path d="M 48.78125 52.59375 
L 48.78125 44.1875 
Q 44.96875 46.296875 41.140625 47.34375 
Q 37.3125 48.390625 33.40625 48.390625 
Q 24.65625 48.390625 19.8125 42.84375 
Q 14.984375 37.3125 14.984375 27.296875 
Q 14.984375 17.28125 19.8125 11.734375 
Q 24.65625 6.203125 33.40625 6.203125 
Q 37.3125 6.203125 41.140625 7.25 
Q 44.96875 8.296875 48.78125 10.40625 
L 48.78125 2.09375 
Q 45.015625 0.34375 40.984375 -0.53125 
Q 36.96875 -1.421875 32.421875 -1.421875 
Q 20.0625 -1.421875 12.78125 6.34375 
Q 5.515625 14.109375 5.515625 27.296875 
Q 5.515625 40.671875 12.859375 48.328125 
Q 20.21875 56 33.015625 56 
Q 37.15625 56 41.109375 55.140625 
Q 45.0625 54.296875 48.78125 52.59375 
z
" id="DejaVuSans-99"/>
      </defs>
      <use xlink:href="#DejaVuSans-114"/>
      <use x="38.863281" xlink:href="#DejaVuSans-101"/>
      <use x="100.386719" xlink:href="#DejaVuSans-115"/>
      <use x="152.486328" xlink:href="#DejaVuSans-105"/>
      <use x="180.269531" xlink:href="#DejaVuSans-100"/>
      <use x="243.746094" xlink:href="#DejaVuSans-101"/>
      <use x="305.269531" xlink:href="#DejaVuSans-110"/>
      <use x="368.648438" xlink:href="#DejaVuSans-99"/>
      <use x="423.628906" xlink:href="#DejaVuSans-101"/>
      <use x="485.152344" xlink:href="#DejaVuSans-32"/>
      <use x="516.939453" xlink:href="#DejaVuSans-116"/>
      <use x="556.148438" xlink:href="#DejaVuSans-105"/>
      <use x="583.931641" xlink:href="#DejaVuSans-109"/>
      <use x="681.34375" xlink:href="#DejaVuSans-101"/>
      <use x="742.867188" xlink:href="#DejaVuSans-47"/>
      <use x="776.558594" xlink:href="#DejaVuSans-32"/>
      <use x="808.345703" xlink:href="#DejaVuSans-109"/>
      <use x="905.757812" xlink:href="#DejaVuSans-105"/>
      <use x="933.541016" xlink:href="#DejaVuSans-110"/>
      <use x="996.919922" xlink:href="#DejaVuSans-46"/>
     </g>
    </g>
   </g>
   <g id="matplotlib.axis_4">
    <g id="ytick_6">
     <g id="line2d_19">
      <g>
       <use style="stroke:#000000;stroke-width:0.8;" x="53.149606" xlink:href="#m6d2a0eb94e" y="247.773801"/>
      </g>
     </g>
     <g id="text_20">
      <!-- 0.0 -->
      <g transform="translate(33.427106 250.813176)scale(0.08 -0.08)">
       <use xlink:href="#DejaVuSans-48"/>
       <use x="63.623047" xlink:href="#DejaVuSans-46"/>
       <use x="95.410156" xlink:href="#DejaVuSans-48"/>
      </g>
     </g>
    </g>
    <g id="ytick_7">
     <g id="line2d_20">
      <g>
       <use style="stroke:#000000;stroke-width:0.8;" x="53.149606" xlink:href="#m6d2a0eb94e" y="231.222979"/>
      </g>
     </g>
     <g id="text_21">
      <!-- 0.2 -->
      <g transform="translate(33.427106 234.262354)scale(0.08 -0.08)">
       <use xlink:href="#DejaVuSans-48"/>
       <use x="63.623047" xlink:href="#DejaVuSans-46"/>
       <use x="95.410156" xlink:href="#DejaVuSans-50"/>
      </g>
     </g>
    </g>
    <g id="ytick_8">
     <g id="line2d_21">
      <g>
       <use style="stroke:#000000;stroke-width:0.8;" x="53.149606" xlink:href="#m6d2a0eb94e" y="214.672157"/>
      </g>
     </g>
     <g id="text_22">
      <!-- 0.4 -->
      <g transform="translate(33.427106 217.711532)scale(0.08 -0.08)">
       <use xlink:href="#DejaVuSans-48"/>
       <use x="63.623047" xlink:href="#DejaVuSans-46"/>
       <use x="95.410156" xlink:href="#DejaVuSans-52"/>
      </g>
     </g>
    </g>
    <g id="ytick_9">
     <g id="line2d_22">
      <g>
       <use style="stroke:#000000;stroke-width:0.8;" x="53.149606" xlink:href="#m6d2a0eb94e" y="198.121335"/>
      </g>
     </g>
     <g id="text_23">
      <!-- 0.6 -->
      <g transform="translate(33.427106 201.16071)scale(0.08 -0.08)">
       <use xlink:href="#DejaVuSans-48"/>
       <use x="63.623047" xlink:href="#DejaVuSans-46"/>
       <use x="95.410156" xlink:href="#DejaVuSans-54"/>
      </g>
     </g>
    </g>
    <g id="ytick_10">
     <g id="line2d_23">
      <g>
       <use style="stroke:#000000;stroke-width:0.8;" x="53.149606" xlink:href="#m6d2a0eb94e" y="181.570514"/>
      </g>
     </g>
     <g id="text_24">
      <!-- 0.8 -->
      <g transform="translate(33.427106 184.609889)scale(0.08 -0.08)">
       <use xlink:href="#DejaVuSans-48"/>
       <use x="63.623047" xlink:href="#DejaVuSans-46"/>
       <use x="95.410156" xlink:href="#DejaVuSans-56"/>
      </g>
     </g>
    </g>
    <g id="ytick_11">
     <g id="line2d_24">
      <g>
       <use style="stroke:#000000;stroke-width:0.8;" x="53.149606" xlink:href="#m6d2a0eb94e" y="165.019692"/>
      </g>
     </g>
     <g id="text_25">
      <!-- 1.0 -->
      <g transform="translate(33.427106 168.059067)scale(0.08 -0.08)">
       <use xlink:href="#DejaVuSans-49"/>
       <use x="63.623047" xlink:href="#DejaVuSans-46"/>
       <use x="95.410156" xlink:href="#DejaVuSans-48"/>
      </g>
     </g>
    </g>
    <g id="text_26">
     <!-- Total ion counts/ 10$^6$ -->
     <g transform="translate(27.347419 254.777165)rotate(-90)scale(0.1 -0.1)">
      <defs>
       <path d="M -0.296875 72.90625 
L 61.375 72.90625 
L 61.375 64.59375 
L 35.5 64.59375 
L 35.5 0 
L 25.59375 0 
L 25.59375 64.59375 
L -0.296875 64.59375 
z
" id="DejaVuSans-84"/>
       <path d="M 30.609375 48.390625 
Q 23.390625 48.390625 19.1875 42.75 
Q 14.984375 37.109375 14.984375 27.296875 
Q 14.984375 17.484375 19.15625 11.84375 
Q 23.34375 6.203125 30.609375 6.203125 
Q 37.796875 6.203125 41.984375 11.859375 
Q 46.1875 17.53125 46.1875 27.296875 
Q 46.1875 37.015625 41.984375 42.703125 
Q 37.796875 48.390625 30.609375 48.390625 
z
M 30.609375 56 
Q 42.328125 56 49.015625 48.375 
Q 55.71875 40.765625 55.71875 27.296875 
Q 55.71875 13.875 49.015625 6.21875 
Q 42.328125 -1.421875 30.609375 -1.421875 
Q 18.84375 -1.421875 12.171875 6.21875 
Q 5.515625 13.875 5.515625 27.296875 
Q 5.515625 40.765625 12.171875 48.375 
Q 18.84375 56 30.609375 56 
z
" id="DejaVuSans-111"/>
       <path d="M 34.28125 27.484375 
Q 23.390625 27.484375 19.1875 25 
Q 14.984375 22.515625 14.984375 16.5 
Q 14.984375 11.71875 18.140625 8.90625 
Q 21.296875 6.109375 26.703125 6.109375 
Q 34.1875 6.109375 38.703125 11.40625 
Q 43.21875 16.703125 43.21875 25.484375 
L 43.21875 27.484375 
z
M 52.203125 31.203125 
L 52.203125 0 
L 43.21875 0 
L 43.21875 8.296875 
Q 40.140625 3.328125 35.546875 0.953125 
Q 30.953125 -1.421875 24.3125 -1.421875 
Q 15.921875 -1.421875 10.953125 3.296875 
Q 6 8.015625 6 15.921875 
Q 6 25.140625 12.171875 29.828125 
Q 18.359375 34.515625 30.609375 34.515625 
L 43.21875 34.515625 
L 43.21875 35.40625 
Q 43.21875 41.609375 39.140625 45 
Q 35.0625 48.390625 27.6875 48.390625 
Q 23 48.390625 18.546875 47.265625 
Q 14.109375 46.140625 10.015625 43.890625 
L 10.015625 52.203125 
Q 14.9375 54.109375 19.578125 55.046875 
Q 24.21875 56 28.609375 56 
Q 40.484375 56 46.34375 49.84375 
Q 52.203125 43.703125 52.203125 31.203125 
z
" id="DejaVuSans-97"/>
       <path d="M 9.421875 75.984375 
L 18.40625 75.984375 
L 18.40625 0 
L 9.421875 0 
z
" id="DejaVuSans-108"/>
       <path d="M 8.5 21.578125 
L 8.5 54.6875 
L 17.484375 54.6875 
L 17.484375 21.921875 
Q 17.484375 14.15625 20.5 10.265625 
Q 23.53125 6.390625 29.59375 6.390625 
Q 36.859375 6.390625 41.078125 11.03125 
Q 45.3125 15.671875 45.3125 23.6875 
L 45.3125 54.6875 
L 54.296875 54.6875 
L 54.296875 0 
L 45.3125 0 
L 45.3125 8.40625 
Q 42.046875 3.421875 37.71875 1 
Q 33.40625 -1.421875 27.6875 -1.421875 
Q 18.265625 -1.421875 13.375 4.4375 
Q 8.5 10.296875 8.5 21.578125 
z
M 31.109375 56 
z
" id="DejaVuSans-117"/>
      </defs>
      <use transform="translate(0 0.765625)" xlink:href="#DejaVuSans-84"/>
      <use transform="translate(61.083984 0.765625)" xlink:href="#DejaVuSans-111"/>
      <use transform="translate(122.265625 0.765625)" xlink:href="#DejaVuSans-116"/>
      <use transform="translate(161.474609 0.765625)" xlink:href="#DejaVuSans-97"/>
      <use transform="translate(222.753906 0.765625)" xlink:href="#DejaVuSans-108"/>
      <use transform="translate(250.537109 0.765625)" xlink:href="#DejaVuSans-32"/>
      <use transform="translate(282.324219 0.765625)" xlink:href="#DejaVuSans-105"/>
      <use transform="translate(310.107422 0.765625)" xlink:href="#DejaVuSans-111"/>
      <use transform="translate(371.289062 0.765625)" xlink:href="#DejaVuSans-110"/>
      <use transform="translate(434.667969 0.765625)" xlink:href="#DejaVuSans-32"/>
      <use transform="translate(466.455078 0.765625)" xlink:href="#DejaVuSans-99"/>
      <use transform="translate(521.435547 0.765625)" xlink:href="#DejaVuSans-111"/>
      <use transform="translate(582.617188 0.765625)" xlink:href="#DejaVuSans-117"/>
      <use transform="translate(645.996094 0.765625)" xlink:href="#DejaVuSans-110"/>
      <use transform="translate(709.375 0.765625)" xlink:href="#DejaVuSans-116"/>
      <use transform="translate(748.583984 0.765625)" xlink:href="#DejaVuSans-115"/>
      <use transform="translate(800.683594 0.765625)" xlink:href="#DejaVuSans-47"/>
      <use transform="translate(834.375 0.765625)" xlink:href="#DejaVuSans-32"/>
      <use transform="translate(866.162109 0.765625)" xlink:href="#DejaVuSans-49"/>
      <use transform="translate(929.785156 0.765625)" xlink:href="#DejaVuSans-48"/>
      <use transform="translate(994.365234 39.046875)scale(0.7)" xlink:href="#DejaVuSans-54"/>
     </g>
    </g>
   </g>
   <g id="line2d_25">
    <path clip-path="url(#p5ce6d127f4)" d="M 68.128132 247.773801 
L 71.658646 247.687185 
L 71.749433 247.276603 
L 72.066056 243.858738 
L 72.11145 243.867221 
L 72.608514 247.727439 
L 72.79009 247.773801 
L 87.273027 247.773801 
L 87.408074 246.518103 
L 87.544255 241.136717 
L 87.725831 225.072869 
L 87.951666 202.373961 
L 87.99706 203.528709 
L 88.132107 219.708612 
L 88.359077 244.441034 
L 88.539518 247.297648 
L 88.857275 247.773801 
L 90.531177 247.688314 
L 90.80354 246.969218 
L 90.847799 246.916573 
L 90.893193 246.972261 
L 91.209816 247.773801 
L 91.345998 247.773801 
L 111.713125 247.701425 
L 111.803913 247.315262 
L 111.984354 245.452629 
L 112.255582 242.679933 
L 112.300976 242.680627 
L 112.799175 247.714691 
L 113.206585 247.729047 
L 113.43242 247.578059 
L 114.11106 247.773801 
L 114.156454 247.676161 
L 114.201848 247.773801 
L 115.649914 247.702544 
L 115.83149 247.25194 
L 116.057325 246.283069 
L 116.193507 246.433739 
L 116.419342 247.427349 
L 116.691705 247.705802 
L 116.826752 247.603828 
L 116.91754 247.058106 
L 117.008328 245.041969 
L 117.143375 237.310747 
L 117.324951 209.984169 
L 117.59618 161.180652 
L 117.641573 160.933382 
L 117.686967 161.06 
L 117.732361 161.705636 
L 117.958196 158.439163 
L 118.00359 157.58053 
L 118.048984 160.928962 
L 118.411001 247.187682 
L 118.592577 247.681878 
L 118.999987 247.773801 
L 121.217481 247.681519 
L 121.352528 247.319933 
L 121.48871 246.536764 
L 121.714545 244.953743 
L 122.303531 247.632919 
L 122.439713 247.440119 
L 122.710942 246.853099 
L 122.756336 246.977495 
L 123.118353 247.660303 
L 123.434975 247.773801 
L 123.842386 247.453689 
L 124.566419 247.773801 
L 124.928436 247.694842 
L 125.064618 247.528516 
L 125.290453 246.984981 
L 125.426634 246.963001 
L 125.652469 247.307964 
L 125.834045 247.437665 
L 125.879439 247.436973 
L 126.05988 247.773801 
L 126.738519 247.715976 
L 127.100536 247.197296 
L 127.14593 247.250143 
L 127.598735 247.773801 
L 127.915357 247.773801 
L 128.006145 247.671877 
L 128.051539 247.718595 
L 131.129248 247.773801 
L 131.174642 247.691888 
L 131.220036 247.773801 
L 135.971647 247.773801 
L 136.017041 247.652507 
L 136.062435 247.773801 
L 137.148485 247.673907 
L 137.510502 247.484038 
L 137.555896 247.398266 
L 137.60129 247.483336 
L 137.736337 247.559851 
L 138.505764 247.773801 
L 151.857257 247.670793 
L 152.175015 247.361775 
L 152.944442 247.773801 
L 158.601662 247.773801 
L 158.647056 247.654891 
L 158.69245 247.773801 
L 162.720027 247.773801 
L 162.765421 247.66187 
L 162.856209 247.723268 
L 167.562426 247.68122 
L 167.698608 247.773801 
L 172.857629 247.664264 
L 173.084599 247.530867 
L 173.219646 247.484943 
L 173.989073 247.773801 
L 174.034467 247.659134 
L 174.079861 247.773801 
L 177.428799 247.666706 
L 177.655769 247.093565 
L 178.017785 245.142518 
L 178.152832 245.239714 
L 178.832607 247.695621 
L 179.284276 247.773801 
L 180.189886 247.67612 
L 180.461114 247.585774 
L 180.64269 247.658397 
L 180.733478 247.630577 
L 180.913919 247.723498 
L 182.769396 247.710117 
L 183.403777 247.547805 
L 183.629611 247.712394 
L 184.580615 247.773801 
L 184.942631 247.674099 
L 185.032284 247.541871 
L 185.21386 246.965368 
L 185.304648 246.343646 
L 185.530483 242.087543 
L 185.983287 231.369628 
L 186.028681 231.346335 
L 186.209122 235.460105 
L 186.707321 247.041896 
L 186.933156 247.400516 
L 187.160125 247.161763 
L 187.657189 244.600384 
L 187.929553 243.28 
L 187.974947 243.29617 
L 188.155387 244.670839 
L 188.517404 247.21331 
L 188.69898 247.647448 
L 188.970209 247.720028 
L 189.965471 247.676602 
L 190.87108 247.773801 
L 191.096915 247.655093 
L 191.187703 247.541501 
L 191.549719 246.715748 
L 191.640507 246.680409 
L 191.776689 246.646261 
L 192.273753 247.690669 
L 192.635769 247.716651 
L 192.817345 247.57057 
L 193.04318 246.87174 
L 193.405197 243.429284 
L 193.948789 235.458909 
L 193.994183 235.923593 
L 194.084971 236.754092 
L 194.220018 238.791547 
L 194.627429 244.532219 
L 194.854398 245.254517 
L 194.898657 245.184918 
L 194.944051 245.270655 
L 194.989445 245.281326 
L 195.125627 245.538619 
L 195.260674 245.558982 
L 196.030101 247.645782 
L 196.166283 247.67576 
L 196.799529 247.71298 
L 198.157942 247.773801 
L 198.7004 247.773801 
L 198.745794 247.637489 
L 198.791188 247.773801 
L 199.651403 247.682955 
L 200.375437 247.264265 
L 200.737453 247.56475 
L 200.873635 247.683792 
L 201.054076 247.714531 
L 201.190258 247.727128 
L 201.914291 247.773801 
L 201.959685 247.657645 
L 202.005079 247.773801 
L 219.656513 247.773801 
L 219.700772 247.660202 
L 219.746166 247.773801 
L 229.703327 247.773801 
L 229.748721 247.626937 
L 229.794115 247.773801 
L 230.472755 247.6758 
L 230.65433 247.584491 
L 231.016347 247.615534 
L 231.196788 247.714555 
L 232.41902 247.773801 
L 234.998531 247.680891 
L 235.2255 247.504176 
L 235.360547 247.450613 
L 235.496729 247.310267 
L 235.542123 247.388278 
L 235.587517 247.281642 
L 235.949534 247.321091 
L 236.266156 247.638272 
L 236.402338 247.690076 
L 237.578041 247.773801 
L 241.96877 247.684445 
L 242.239999 247.439614 
L 242.285393 247.533434 
L 242.330787 247.464111 
L 242.783592 247.367431 
L 243.100214 247.647348 
L 243.191002 247.679995 
L 243.778854 247.773801 
L 245.815907 247.670299 
L 246.041742 247.50123 
L 246.449152 246.501257 
L 246.53994 246.518729 
L 246.585334 246.415128 
L 246.630728 246.473271 
L 246.856563 246.891917 
L 247.173186 247.599062 
L 247.62599 247.773801 
L 249.436074 247.711439 
L 249.572256 247.636409 
L 249.708437 247.682277 
L 250.658306 247.532975 
L 250.794487 247.291818 
L 250.839881 247.348018 
L 250.885275 247.288043 
L 251.065716 246.988958 
L 251.11111 246.917063 
L 251.156504 246.432834 
L 251.247292 246.59895 
L 251.292686 246.662404 
L 251.382339 246.490689 
L 251.427733 246.51789 
L 252.151766 247.477021 
L 252.604571 247.56857 
L 252.740753 247.456919 
L 252.921194 247.423583 
L 253.102769 247.283628 
L 253.28321 247.243495 
L 253.373998 247.094087 
L 253.419392 247.108878 
L 253.600968 247.047279 
L 253.781409 247.061073 
L 253.917591 247.294176 
L 254.007244 247.342941 
L 254.279607 247.63178 
L 254.732412 247.716453 
L 254.776671 247.622835 
L 254.822065 247.723482 
L 255.320263 247.773801 
L 258.985824 247.676786 
L 259.258188 247.496318 
L 259.438629 247.425238 
L 259.800645 247.559018 
L 259.982221 247.676848 
L 260.660861 247.773801 
L 261.97388 247.694392 
L 262.154321 247.393235 
L 262.335897 246.959651 
L 263.05993 243.883136 
L 263.105324 243.838702 
L 263.149583 243.924414 
L 263.240371 243.946703 
L 263.285765 244.006995 
L 263.512735 244.814285 
L 263.556994 244.817805 
L 263.73857 245.486995 
L 264.100587 245.810346 
L 264.236768 245.739631 
L 264.417209 245.391628 
L 264.553391 244.646501 
L 264.82462 240.614467 
L 265.095849 233.767921 
L 265.775623 212.570972 
L 265.956064 218.757631 
L 266.680097 246.701917 
L 266.952461 247.67156 
L 267.314478 247.684722 
L 267.676494 246.642804 
L 267.947723 244.037188 
L 268.355134 239.15344 
L 268.535575 238.483293 
L 268.807938 241.511396 
L 269.39579 247.148876 
L 269.667019 247.70109 
L 270.165217 247.773801 
L 272.926304 247.664961 
L 273.017091 247.569492 
L 273.242926 246.895889 
L 273.424502 245.072995 
L 273.695731 238.603278 
L 274.057748 220.998798 
L 274.465158 203.362056 
L 274.510552 203.508201 
L 274.645599 207.023126 
L 275.007616 230.689298 
L 275.279979 242.77265 
L 275.46042 244.484492 
L 275.505814 244.372858 
L 275.551208 244.405904 
L 275.958619 243.44244 
L 276.004013 243.483339 
L 276.591864 246.701589 
L 276.953881 247.540214 
L 276.999275 247.327138 
L 277.044669 247.569078 
L 277.85949 247.543919 
L 278.085325 247.3489 
L 278.447342 247.044875 
L 278.583524 247.035212 
L 278.763964 247.066935 
L 278.94554 247.199255 
L 279.171375 247.524686 
L 279.669574 247.773801 
L 280.755624 247.670015 
L 281.027987 247.503899 
L 281.299216 247.186166 
L 281.570445 246.755475 
L 281.841674 246.640106 
L 282.159431 246.986768 
L 282.294478 247.065154 
L 282.656495 247.456751 
L 282.792677 247.43545 
L 282.973118 247.559451 
L 283.425922 247.713431 
L 283.924121 247.773801 
L 288.76652 247.663221 
L 289.17393 246.83121 
L 289.490553 246.138083 
L 289.535947 246.165141 
L 289.672129 246.06948 
L 290.758179 247.686164 
L 291.708047 247.773801 
L 291.798835 247.727859 
L 291.844229 247.773801 
L 296.868203 247.684222 
L 296.913597 247.574778 
L 296.958991 247.627148 
L 297.139432 247.678136 
L 297.23022 247.568824 
L 297.366402 247.682769 
L 297.501449 247.694352 
L 300.48837 247.657169 
L 300.669946 247.578528 
L 300.806128 247.551578 
L 301.393979 247.676637 
L 302.344982 247.773801 
L 303.023622 247.773801 
L 303.069016 247.565437 
L 303.113275 247.773801 
L 304.833705 247.773801 
L 304.879099 247.627129 
L 304.924493 247.728038 
L 305.104934 247.773801 
L 328.775605 247.689987 
L 329.092227 247.446547 
L 329.770867 247.532567 
L 329.907049 247.631193 
L 330.178278 247.773801 
L 335.564269 247.720181 
L 335.791238 247.242487 
L 336.062467 245.406157 
L 336.37909 239.97012 
L 337.330093 220.07607 
L 337.46514 223.664778 
L 337.827157 237.368536 
L 338.144914 244.735741 
L 338.416143 246.968841 
L 338.687372 247.614348 
L 338.732766 247.563869 
L 338.77816 247.635074 
L 339.003995 247.712173 
L 339.411405 247.773801 
L 339.456799 247.688908 
L 339.502193 247.773801 
L 359.189546 247.687468 
L 359.86932 246.66466 
L 360.140549 245.693343 
L 360.366384 245.399558 
L 360.411777 245.480389 
L 360.457171 245.772732 
L 360.547959 245.737295 
L 361.452434 247.636494 
L 361.950632 247.773801 
L 367.69864 247.773801 
L 367.69864 247.773801 
" style="fill:none;stroke:#000000;stroke-linecap:square;stroke-width:1.5;"/>
   </g>
   <g id="patch_8">
    <path d="M 53.149606 252.283465 
L 53.149606 153.070866 
" style="fill:none;stroke:#000000;stroke-linecap:square;stroke-linejoin:miter;stroke-width:0.8;"/>
   </g>
   <g id="patch_9">
    <path d="M 382.677165 252.283465 
L 382.677165 153.070866 
" style="fill:none;stroke:#000000;stroke-linecap:square;stroke-linejoin:miter;stroke-width:0.8;"/>
   </g>
   <g id="patch_10">
    <path d="M 53.149606 252.283465 
L 382.677165 252.283465 
" style="fill:none;stroke:#000000;stroke-linecap:square;stroke-linejoin:miter;stroke-width:0.8;"/>
   </g>
   <g id="patch_11">
    <path d="M 53.149606 153.070866 
L 382.677165 153.070866 
" style="fill:none;stroke:#000000;stroke-linecap:square;stroke-linejoin:miter;stroke-width:0.8;"/>
   </g>
  </g>
 </g>
 <defs>
  <clipPath id="p695d93483e">
   <rect height="99.212598" width="329.527559" x="53.149606" y="34.015748"/>
  </clipPath>
  <clipPath id="p5ce6d127f4">
   <rect height="99.212598" width="329.527559" x="53.149606" y="153.070866"/>
  </clipPath>
 </defs>
</svg>
