<?xml version="1.0" encoding="utf-8" standalone="no"?>
<!DOCTYPE svg PUBLIC "-//W3C//DTD SVG 1.1//EN"
  "http://www.w3.org/Graphics/SVG/1.1/DTD/svg11.dtd">
<!-- Created with matplotlib (https://matplotlib.org/) -->
<svg height="282.96pt" version="1.1" viewBox="0 0 424.8 282.96" width="424.8pt" xmlns="http://www.w3.org/2000/svg" xmlns:xlink="http://www.w3.org/1999/xlink">
 <metadata>
  <rdf:RDF xmlns:cc="http://creativecommons.org/ns#" xmlns:dc="http://purl.org/dc/elements/1.1/" xmlns:rdf="http://www.w3.org/1999/02/22-rdf-syntax-ns#">
   <cc:Work>
    <dc:type rdf:resource="http://purl.org/dc/dcmitype/StillImage"/>
    <dc:date>2021-11-19T16:56:47.904913</dc:date>
    <dc:format>image/svg+xml</dc:format>
    <dc:creator>
     <cc:Agent>
      <dc:title>Matplotlib v3.3.4, https://matplotlib.org/</dc:title>
     </cc:Agent>
    </dc:creator>
   </cc:Work>
  </rdf:RDF>
 </metadata>
 <defs>
  <style type="text/css">*{stroke-linecap:butt;stroke-linejoin:round;}</style>
 </defs>
 <g id="figure_1">
  <g id="patch_1">
   <path d="M 0 282.96 
L 424.8 282.96 
L 424.8 0 
L 0 0 
z
" style="fill:#ffffff;"/>
  </g>
  <g id="axes_1">
   <g id="patch_2">
    <path d="M 53.1 132.9912 
L 382.32 132.9912 
L 382.32 33.9552 
L 53.1 33.9552 
z
" style="fill:#ffffff;"/>
   </g>
   <g id="matplotlib.axis_1">
    <g id="xtick_1">
     <g id="line2d_1">
      <defs>
       <path d="M 0 0 
L 0 3.5 
" id="m6dc4b5673b" style="stroke:#000000;stroke-width:0.8;"/>
      </defs>
      <g>
       <use style="stroke:#000000;stroke-width:0.8;" x="67.81482" xlink:href="#m6dc4b5673b" y="132.9912"/>
      </g>
     </g>
     <g id="text_1">
      <!-- 2 -->
      <g transform="translate(65.26982 146.06995)scale(0.08 -0.08)">
       <defs>
        <path d="M 19.1875 8.296875 
L 53.609375 8.296875 
L 53.609375 0 
L 7.328125 0 
L 7.328125 8.296875 
Q 12.9375 14.109375 22.625 23.890625 
Q 32.328125 33.6875 34.8125 36.53125 
Q 39.546875 41.84375 41.421875 45.53125 
Q 43.3125 49.21875 43.3125 52.78125 
Q 43.3125 58.59375 39.234375 62.25 
Q 35.15625 65.921875 28.609375 65.921875 
Q 23.96875 65.921875 18.8125 64.3125 
Q 13.671875 62.703125 7.8125 59.421875 
L 7.8125 69.390625 
Q 13.765625 71.78125 18.9375 73 
Q 24.125 74.21875 28.421875 74.21875 
Q 39.75 74.21875 46.484375 68.546875 
Q 53.21875 62.890625 53.21875 53.421875 
Q 53.21875 48.921875 51.53125 44.890625 
Q 49.859375 40.875 45.40625 35.40625 
Q 44.1875 33.984375 37.640625 27.21875 
Q 31.109375 20.453125 19.1875 8.296875 
z
" id="DejaVuSans-50"/>
       </defs>
       <use xlink:href="#DejaVuSans-50"/>
      </g>
     </g>
    </g>
    <g id="xtick_2">
     <g id="line2d_2">
      <g>
       <use style="stroke:#000000;stroke-width:0.8;" x="127.772892" xlink:href="#m6dc4b5673b" y="132.9912"/>
      </g>
     </g>
     <g id="text_2">
      <!-- 4 -->
      <g transform="translate(125.227892 146.06995)scale(0.08 -0.08)">
       <defs>
        <path d="M 37.796875 64.3125 
L 12.890625 25.390625 
L 37.796875 25.390625 
z
M 35.203125 72.90625 
L 47.609375 72.90625 
L 47.609375 25.390625 
L 58.015625 25.390625 
L 58.015625 17.1875 
L 47.609375 17.1875 
L 47.609375 0 
L 37.796875 0 
L 37.796875 17.1875 
L 4.890625 17.1875 
L 4.890625 26.703125 
z
" id="DejaVuSans-52"/>
       </defs>
       <use xlink:href="#DejaVuSans-52"/>
      </g>
     </g>
    </g>
    <g id="xtick_3">
     <g id="line2d_3">
      <g>
       <use style="stroke:#000000;stroke-width:0.8;" x="187.730964" xlink:href="#m6dc4b5673b" y="132.9912"/>
      </g>
     </g>
     <g id="text_3">
      <!-- 6 -->
      <g transform="translate(185.185964 146.06995)scale(0.08 -0.08)">
       <defs>
        <path d="M 33.015625 40.375 
Q 26.375 40.375 22.484375 35.828125 
Q 18.609375 31.296875 18.609375 23.390625 
Q 18.609375 15.53125 22.484375 10.953125 
Q 26.375 6.390625 33.015625 6.390625 
Q 39.65625 6.390625 43.53125 10.953125 
Q 47.40625 15.53125 47.40625 23.390625 
Q 47.40625 31.296875 43.53125 35.828125 
Q 39.65625 40.375 33.015625 40.375 
z
M 52.59375 71.296875 
L 52.59375 62.3125 
Q 48.875 64.0625 45.09375 64.984375 
Q 41.3125 65.921875 37.59375 65.921875 
Q 27.828125 65.921875 22.671875 59.328125 
Q 17.53125 52.734375 16.796875 39.40625 
Q 19.671875 43.65625 24.015625 45.921875 
Q 28.375 48.1875 33.59375 48.1875 
Q 44.578125 48.1875 50.953125 41.515625 
Q 57.328125 34.859375 57.328125 23.390625 
Q 57.328125 12.15625 50.6875 5.359375 
Q 44.046875 -1.421875 33.015625 -1.421875 
Q 20.359375 -1.421875 13.671875 8.265625 
Q 6.984375 17.96875 6.984375 36.375 
Q 6.984375 53.65625 15.1875 63.9375 
Q 23.390625 74.21875 37.203125 74.21875 
Q 40.921875 74.21875 44.703125 73.484375 
Q 48.484375 72.75 52.59375 71.296875 
z
" id="DejaVuSans-54"/>
       </defs>
       <use xlink:href="#DejaVuSans-54"/>
      </g>
     </g>
    </g>
    <g id="xtick_4">
     <g id="line2d_4">
      <g>
       <use style="stroke:#000000;stroke-width:0.8;" x="247.689036" xlink:href="#m6dc4b5673b" y="132.9912"/>
      </g>
     </g>
     <g id="text_4">
      <!-- 8 -->
      <g transform="translate(245.144036 146.06995)scale(0.08 -0.08)">
       <defs>
        <path d="M 31.78125 34.625 
Q 24.75 34.625 20.71875 30.859375 
Q 16.703125 27.09375 16.703125 20.515625 
Q 16.703125 13.921875 20.71875 10.15625 
Q 24.75 6.390625 31.78125 6.390625 
Q 38.8125 6.390625 42.859375 10.171875 
Q 46.921875 13.96875 46.921875 20.515625 
Q 46.921875 27.09375 42.890625 30.859375 
Q 38.875 34.625 31.78125 34.625 
z
M 21.921875 38.8125 
Q 15.578125 40.375 12.03125 44.71875 
Q 8.5 49.078125 8.5 55.328125 
Q 8.5 64.0625 14.71875 69.140625 
Q 20.953125 74.21875 31.78125 74.21875 
Q 42.671875 74.21875 48.875 69.140625 
Q 55.078125 64.0625 55.078125 55.328125 
Q 55.078125 49.078125 51.53125 44.71875 
Q 48 40.375 41.703125 38.8125 
Q 48.828125 37.15625 52.796875 32.3125 
Q 56.78125 27.484375 56.78125 20.515625 
Q 56.78125 9.90625 50.3125 4.234375 
Q 43.84375 -1.421875 31.78125 -1.421875 
Q 19.734375 -1.421875 13.25 4.234375 
Q 6.78125 9.90625 6.78125 20.515625 
Q 6.78125 27.484375 10.78125 32.3125 
Q 14.796875 37.15625 21.921875 38.8125 
z
M 18.3125 54.390625 
Q 18.3125 48.734375 21.84375 45.5625 
Q 25.390625 42.390625 31.78125 42.390625 
Q 38.140625 42.390625 41.71875 45.5625 
Q 45.3125 48.734375 45.3125 54.390625 
Q 45.3125 60.0625 41.71875 63.234375 
Q 38.140625 66.40625 31.78125 66.40625 
Q 25.390625 66.40625 21.84375 63.234375 
Q 18.3125 60.0625 18.3125 54.390625 
z
" id="DejaVuSans-56"/>
       </defs>
       <use xlink:href="#DejaVuSans-56"/>
      </g>
     </g>
    </g>
    <g id="xtick_5">
     <g id="line2d_5">
      <g>
       <use style="stroke:#000000;stroke-width:0.8;" x="307.647108" xlink:href="#m6dc4b5673b" y="132.9912"/>
      </g>
     </g>
     <g id="text_5">
      <!-- 10 -->
      <g transform="translate(302.557108 146.06995)scale(0.08 -0.08)">
       <defs>
        <path d="M 12.40625 8.296875 
L 28.515625 8.296875 
L 28.515625 63.921875 
L 10.984375 60.40625 
L 10.984375 69.390625 
L 28.421875 72.90625 
L 38.28125 72.90625 
L 38.28125 8.296875 
L 54.390625 8.296875 
L 54.390625 0 
L 12.40625 0 
z
" id="DejaVuSans-49"/>
        <path d="M 31.78125 66.40625 
Q 24.171875 66.40625 20.328125 58.90625 
Q 16.5 51.421875 16.5 36.375 
Q 16.5 21.390625 20.328125 13.890625 
Q 24.171875 6.390625 31.78125 6.390625 
Q 39.453125 6.390625 43.28125 13.890625 
Q 47.125 21.390625 47.125 36.375 
Q 47.125 51.421875 43.28125 58.90625 
Q 39.453125 66.40625 31.78125 66.40625 
z
M 31.78125 74.21875 
Q 44.046875 74.21875 50.515625 64.515625 
Q 56.984375 54.828125 56.984375 36.375 
Q 56.984375 17.96875 50.515625 8.265625 
Q 44.046875 -1.421875 31.78125 -1.421875 
Q 19.53125 -1.421875 13.0625 8.265625 
Q 6.59375 17.96875 6.59375 36.375 
Q 6.59375 54.828125 13.0625 64.515625 
Q 19.53125 74.21875 31.78125 74.21875 
z
" id="DejaVuSans-48"/>
       </defs>
       <use xlink:href="#DejaVuSans-49"/>
       <use x="63.623047" xlink:href="#DejaVuSans-48"/>
      </g>
     </g>
    </g>
    <g id="xtick_6">
     <g id="line2d_6">
      <g>
       <use style="stroke:#000000;stroke-width:0.8;" x="367.60518" xlink:href="#m6dc4b5673b" y="132.9912"/>
      </g>
     </g>
     <g id="text_6">
      <!-- 12 -->
      <g transform="translate(362.51518 146.06995)scale(0.08 -0.08)">
       <use xlink:href="#DejaVuSans-49"/>
       <use x="63.623047" xlink:href="#DejaVuSans-50"/>
      </g>
     </g>
    </g>
   </g>
   <g id="matplotlib.axis_2">
    <g id="ytick_1">
     <g id="line2d_7">
      <defs>
       <path d="M 0 0 
L -3.5 0 
" id="m162924614d" style="stroke:#000000;stroke-width:0.8;"/>
      </defs>
      <g>
       <use style="stroke:#000000;stroke-width:0.8;" x="53.1" xlink:href="#m162924614d" y="128.2752"/>
      </g>
     </g>
     <g id="text_7">
      <!-- 0.00 -->
      <g transform="translate(28.2875 131.314575)scale(0.08 -0.08)">
       <defs>
        <path d="M 10.6875 12.40625 
L 21 12.40625 
L 21 0 
L 10.6875 0 
z
" id="DejaVuSans-46"/>
       </defs>
       <use xlink:href="#DejaVuSans-48"/>
       <use x="63.623047" xlink:href="#DejaVuSans-46"/>
       <use x="95.410156" xlink:href="#DejaVuSans-48"/>
       <use x="159.033203" xlink:href="#DejaVuSans-48"/>
      </g>
     </g>
    </g>
    <g id="ytick_2">
     <g id="line2d_8">
      <g>
       <use style="stroke:#000000;stroke-width:0.8;" x="53.1" xlink:href="#m162924614d" y="104.6952"/>
      </g>
     </g>
     <g id="text_8">
      <!-- 0.05 -->
      <g transform="translate(28.2875 107.734575)scale(0.08 -0.08)">
       <defs>
        <path d="M 10.796875 72.90625 
L 49.515625 72.90625 
L 49.515625 64.59375 
L 19.828125 64.59375 
L 19.828125 46.734375 
Q 21.96875 47.46875 24.109375 47.828125 
Q 26.265625 48.1875 28.421875 48.1875 
Q 40.625 48.1875 47.75 41.5 
Q 54.890625 34.8125 54.890625 23.390625 
Q 54.890625 11.625 47.5625 5.09375 
Q 40.234375 -1.421875 26.90625 -1.421875 
Q 22.3125 -1.421875 17.546875 -0.640625 
Q 12.796875 0.140625 7.71875 1.703125 
L 7.71875 11.625 
Q 12.109375 9.234375 16.796875 8.0625 
Q 21.484375 6.890625 26.703125 6.890625 
Q 35.15625 6.890625 40.078125 11.328125 
Q 45.015625 15.765625 45.015625 23.390625 
Q 45.015625 31 40.078125 35.4375 
Q 35.15625 39.890625 26.703125 39.890625 
Q 22.75 39.890625 18.8125 39.015625 
Q 14.890625 38.140625 10.796875 36.28125 
z
" id="DejaVuSans-53"/>
       </defs>
       <use xlink:href="#DejaVuSans-48"/>
       <use x="63.623047" xlink:href="#DejaVuSans-46"/>
       <use x="95.410156" xlink:href="#DejaVuSans-48"/>
       <use x="159.033203" xlink:href="#DejaVuSans-53"/>
      </g>
     </g>
    </g>
    <g id="ytick_3">
     <g id="line2d_9">
      <g>
       <use style="stroke:#000000;stroke-width:0.8;" x="53.1" xlink:href="#m162924614d" y="81.1152"/>
      </g>
     </g>
     <g id="text_9">
      <!-- 0.10 -->
      <g transform="translate(28.2875 84.154575)scale(0.08 -0.08)">
       <use xlink:href="#DejaVuSans-48"/>
       <use x="63.623047" xlink:href="#DejaVuSans-46"/>
       <use x="95.410156" xlink:href="#DejaVuSans-49"/>
       <use x="159.033203" xlink:href="#DejaVuSans-48"/>
      </g>
     </g>
    </g>
    <g id="ytick_4">
     <g id="line2d_10">
      <g>
       <use style="stroke:#000000;stroke-width:0.8;" x="53.1" xlink:href="#m162924614d" y="57.5352"/>
      </g>
     </g>
     <g id="text_10">
      <!-- 0.15 -->
      <g transform="translate(28.2875 60.574575)scale(0.08 -0.08)">
       <use xlink:href="#DejaVuSans-48"/>
       <use x="63.623047" xlink:href="#DejaVuSans-46"/>
       <use x="95.410156" xlink:href="#DejaVuSans-49"/>
       <use x="159.033203" xlink:href="#DejaVuSans-53"/>
      </g>
     </g>
    </g>
    <g id="ytick_5">
     <g id="line2d_11">
      <g>
       <use style="stroke:#000000;stroke-width:0.8;" x="53.1" xlink:href="#m162924614d" y="33.9552"/>
      </g>
     </g>
     <g id="text_11">
      <!-- 0.20 -->
      <g transform="translate(28.2875 36.994575)scale(0.08 -0.08)">
       <use xlink:href="#DejaVuSans-48"/>
       <use x="63.623047" xlink:href="#DejaVuSans-46"/>
       <use x="95.410156" xlink:href="#DejaVuSans-50"/>
       <use x="159.033203" xlink:href="#DejaVuSans-48"/>
      </g>
     </g>
    </g>
    <g id="text_12">
     <!-- Intensity (364 nm)/ kV -->
     <g transform="translate(22.207812 139.487263)rotate(-90)scale(0.1 -0.1)">
      <defs>
       <path d="M 9.8125 72.90625 
L 19.671875 72.90625 
L 19.671875 0 
L 9.8125 0 
z
" id="DejaVuSans-73"/>
       <path d="M 54.890625 33.015625 
L 54.890625 0 
L 45.90625 0 
L 45.90625 32.71875 
Q 45.90625 40.484375 42.875 44.328125 
Q 39.84375 48.1875 33.796875 48.1875 
Q 26.515625 48.1875 22.3125 43.546875 
Q 18.109375 38.921875 18.109375 30.90625 
L 18.109375 0 
L 9.078125 0 
L 9.078125 54.6875 
L 18.109375 54.6875 
L 18.109375 46.1875 
Q 21.34375 51.125 25.703125 53.5625 
Q 30.078125 56 35.796875 56 
Q 45.21875 56 50.046875 50.171875 
Q 54.890625 44.34375 54.890625 33.015625 
z
" id="DejaVuSans-110"/>
       <path d="M 18.3125 70.21875 
L 18.3125 54.6875 
L 36.8125 54.6875 
L 36.8125 47.703125 
L 18.3125 47.703125 
L 18.3125 18.015625 
Q 18.3125 11.328125 20.140625 9.421875 
Q 21.96875 7.515625 27.59375 7.515625 
L 36.8125 7.515625 
L 36.8125 0 
L 27.59375 0 
Q 17.1875 0 13.234375 3.875 
Q 9.28125 7.765625 9.28125 18.015625 
L 9.28125 47.703125 
L 2.6875 47.703125 
L 2.6875 54.6875 
L 9.28125 54.6875 
L 9.28125 70.21875 
z
" id="DejaVuSans-116"/>
       <path d="M 56.203125 29.59375 
L 56.203125 25.203125 
L 14.890625 25.203125 
Q 15.484375 15.921875 20.484375 11.0625 
Q 25.484375 6.203125 34.421875 6.203125 
Q 39.59375 6.203125 44.453125 7.46875 
Q 49.3125 8.734375 54.109375 11.28125 
L 54.109375 2.78125 
Q 49.265625 0.734375 44.1875 -0.34375 
Q 39.109375 -1.421875 33.890625 -1.421875 
Q 20.796875 -1.421875 13.15625 6.1875 
Q 5.515625 13.8125 5.515625 26.8125 
Q 5.515625 40.234375 12.765625 48.109375 
Q 20.015625 56 32.328125 56 
Q 43.359375 56 49.78125 48.890625 
Q 56.203125 41.796875 56.203125 29.59375 
z
M 47.21875 32.234375 
Q 47.125 39.59375 43.09375 43.984375 
Q 39.0625 48.390625 32.421875 48.390625 
Q 24.90625 48.390625 20.390625 44.140625 
Q 15.875 39.890625 15.1875 32.171875 
z
" id="DejaVuSans-101"/>
       <path d="M 44.28125 53.078125 
L 44.28125 44.578125 
Q 40.484375 46.53125 36.375 47.5 
Q 32.28125 48.484375 27.875 48.484375 
Q 21.1875 48.484375 17.84375 46.4375 
Q 14.5 44.390625 14.5 40.28125 
Q 14.5 37.15625 16.890625 35.375 
Q 19.28125 33.59375 26.515625 31.984375 
L 29.59375 31.296875 
Q 39.15625 29.25 43.1875 25.515625 
Q 47.21875 21.78125 47.21875 15.09375 
Q 47.21875 7.46875 41.1875 3.015625 
Q 35.15625 -1.421875 24.609375 -1.421875 
Q 20.21875 -1.421875 15.453125 -0.5625 
Q 10.6875 0.296875 5.421875 2 
L 5.421875 11.28125 
Q 10.40625 8.6875 15.234375 7.390625 
Q 20.0625 6.109375 24.8125 6.109375 
Q 31.15625 6.109375 34.5625 8.28125 
Q 37.984375 10.453125 37.984375 14.40625 
Q 37.984375 18.0625 35.515625 20.015625 
Q 33.0625 21.96875 24.703125 23.78125 
L 21.578125 24.515625 
Q 13.234375 26.265625 9.515625 29.90625 
Q 5.8125 33.546875 5.8125 39.890625 
Q 5.8125 47.609375 11.28125 51.796875 
Q 16.75 56 26.8125 56 
Q 31.78125 56 36.171875 55.265625 
Q 40.578125 54.546875 44.28125 53.078125 
z
" id="DejaVuSans-115"/>
       <path d="M 9.421875 54.6875 
L 18.40625 54.6875 
L 18.40625 0 
L 9.421875 0 
z
M 9.421875 75.984375 
L 18.40625 75.984375 
L 18.40625 64.59375 
L 9.421875 64.59375 
z
" id="DejaVuSans-105"/>
       <path d="M 32.171875 -5.078125 
Q 28.375 -14.84375 24.75 -17.8125 
Q 21.140625 -20.796875 15.09375 -20.796875 
L 7.90625 -20.796875 
L 7.90625 -13.28125 
L 13.1875 -13.28125 
Q 16.890625 -13.28125 18.9375 -11.515625 
Q 21 -9.765625 23.484375 -3.21875 
L 25.09375 0.875 
L 2.984375 54.6875 
L 12.5 54.6875 
L 29.59375 11.921875 
L 46.6875 54.6875 
L 56.203125 54.6875 
z
" id="DejaVuSans-121"/>
       <path id="DejaVuSans-32"/>
       <path d="M 31 75.875 
Q 24.46875 64.65625 21.28125 53.65625 
Q 18.109375 42.671875 18.109375 31.390625 
Q 18.109375 20.125 21.3125 9.0625 
Q 24.515625 -2 31 -13.1875 
L 23.1875 -13.1875 
Q 15.875 -1.703125 12.234375 9.375 
Q 8.59375 20.453125 8.59375 31.390625 
Q 8.59375 42.28125 12.203125 53.3125 
Q 15.828125 64.359375 23.1875 75.875 
z
" id="DejaVuSans-40"/>
       <path d="M 40.578125 39.3125 
Q 47.65625 37.796875 51.625 33 
Q 55.609375 28.21875 55.609375 21.1875 
Q 55.609375 10.40625 48.1875 4.484375 
Q 40.765625 -1.421875 27.09375 -1.421875 
Q 22.515625 -1.421875 17.65625 -0.515625 
Q 12.796875 0.390625 7.625 2.203125 
L 7.625 11.71875 
Q 11.71875 9.328125 16.59375 8.109375 
Q 21.484375 6.890625 26.8125 6.890625 
Q 36.078125 6.890625 40.9375 10.546875 
Q 45.796875 14.203125 45.796875 21.1875 
Q 45.796875 27.640625 41.28125 31.265625 
Q 36.765625 34.90625 28.71875 34.90625 
L 20.21875 34.90625 
L 20.21875 43.015625 
L 29.109375 43.015625 
Q 36.375 43.015625 40.234375 45.921875 
Q 44.09375 48.828125 44.09375 54.296875 
Q 44.09375 59.90625 40.109375 62.90625 
Q 36.140625 65.921875 28.71875 65.921875 
Q 24.65625 65.921875 20.015625 65.03125 
Q 15.375 64.15625 9.8125 62.3125 
L 9.8125 71.09375 
Q 15.4375 72.65625 20.34375 73.4375 
Q 25.25 74.21875 29.59375 74.21875 
Q 40.828125 74.21875 47.359375 69.109375 
Q 53.90625 64.015625 53.90625 55.328125 
Q 53.90625 49.265625 50.4375 45.09375 
Q 46.96875 40.921875 40.578125 39.3125 
z
" id="DejaVuSans-51"/>
       <path d="M 52 44.1875 
Q 55.375 50.25 60.0625 53.125 
Q 64.75 56 71.09375 56 
Q 79.640625 56 84.28125 50.015625 
Q 88.921875 44.046875 88.921875 33.015625 
L 88.921875 0 
L 79.890625 0 
L 79.890625 32.71875 
Q 79.890625 40.578125 77.09375 44.375 
Q 74.3125 48.1875 68.609375 48.1875 
Q 61.625 48.1875 57.5625 43.546875 
Q 53.515625 38.921875 53.515625 30.90625 
L 53.515625 0 
L 44.484375 0 
L 44.484375 32.71875 
Q 44.484375 40.625 41.703125 44.40625 
Q 38.921875 48.1875 33.109375 48.1875 
Q 26.21875 48.1875 22.15625 43.53125 
Q 18.109375 38.875 18.109375 30.90625 
L 18.109375 0 
L 9.078125 0 
L 9.078125 54.6875 
L 18.109375 54.6875 
L 18.109375 46.1875 
Q 21.1875 51.21875 25.484375 53.609375 
Q 29.78125 56 35.6875 56 
Q 41.65625 56 45.828125 52.96875 
Q 50 49.953125 52 44.1875 
z
" id="DejaVuSans-109"/>
       <path d="M 8.015625 75.875 
L 15.828125 75.875 
Q 23.140625 64.359375 26.78125 53.3125 
Q 30.421875 42.28125 30.421875 31.390625 
Q 30.421875 20.453125 26.78125 9.375 
Q 23.140625 -1.703125 15.828125 -13.1875 
L 8.015625 -13.1875 
Q 14.5 -2 17.703125 9.0625 
Q 20.90625 20.125 20.90625 31.390625 
Q 20.90625 42.671875 17.703125 53.65625 
Q 14.5 64.65625 8.015625 75.875 
z
" id="DejaVuSans-41"/>
       <path d="M 25.390625 72.90625 
L 33.6875 72.90625 
L 8.296875 -9.28125 
L 0 -9.28125 
z
" id="DejaVuSans-47"/>
       <path d="M 9.078125 75.984375 
L 18.109375 75.984375 
L 18.109375 31.109375 
L 44.921875 54.6875 
L 56.390625 54.6875 
L 27.390625 29.109375 
L 57.625 0 
L 45.90625 0 
L 18.109375 26.703125 
L 18.109375 0 
L 9.078125 0 
z
" id="DejaVuSans-107"/>
       <path d="M 28.609375 0 
L 0.78125 72.90625 
L 11.078125 72.90625 
L 34.1875 11.53125 
L 57.328125 72.90625 
L 67.578125 72.90625 
L 39.796875 0 
z
" id="DejaVuSans-86"/>
      </defs>
      <use xlink:href="#DejaVuSans-73"/>
      <use x="29.492188" xlink:href="#DejaVuSans-110"/>
      <use x="92.871094" xlink:href="#DejaVuSans-116"/>
      <use x="132.080078" xlink:href="#DejaVuSans-101"/>
      <use x="193.603516" xlink:href="#DejaVuSans-110"/>
      <use x="256.982422" xlink:href="#DejaVuSans-115"/>
      <use x="309.082031" xlink:href="#DejaVuSans-105"/>
      <use x="336.865234" xlink:href="#DejaVuSans-116"/>
      <use x="376.074219" xlink:href="#DejaVuSans-121"/>
      <use x="435.253906" xlink:href="#DejaVuSans-32"/>
      <use x="467.041016" xlink:href="#DejaVuSans-40"/>
      <use x="506.054688" xlink:href="#DejaVuSans-51"/>
      <use x="569.677734" xlink:href="#DejaVuSans-54"/>
      <use x="633.300781" xlink:href="#DejaVuSans-52"/>
      <use x="696.923828" xlink:href="#DejaVuSans-32"/>
      <use x="728.710938" xlink:href="#DejaVuSans-110"/>
      <use x="792.089844" xlink:href="#DejaVuSans-109"/>
      <use x="889.501953" xlink:href="#DejaVuSans-41"/>
      <use x="928.515625" xlink:href="#DejaVuSans-47"/>
      <use x="962.207031" xlink:href="#DejaVuSans-32"/>
      <use x="993.994141" xlink:href="#DejaVuSans-107"/>
      <use x="1051.904297" xlink:href="#DejaVuSans-86"/>
     </g>
    </g>
   </g>
   <g id="line2d_12">
    <path clip-path="url(#p8a6a690136)" d="M 68.064545 122.253811 
L 68.814021 122.522623 
L 69.813522 123.180977 
L 71.5622 124.79715 
L 73.310877 126.342112 
L 74.560103 127.150906 
L 75.80933 127.694189 
L 77.058256 128.002144 
L 79.056959 128.22804 
L 82.304588 128.296894 
L 98.793057 128.18984 
L 100.79176 127.882357 
L 102.290711 127.900278 
L 103.040187 127.691831 
L 103.789663 127.14619 
L 104.539139 126.576025 
L 105.53834 126.13838 
L 106.038091 125.557841 
L 107.037292 124.134552 
L 107.537043 123.92469 
L 108.286519 123.935537 
L 108.786269 123.569575 
L 110.285221 121.772308 
L 110.784672 121.492177 
L 111.034697 121.547826 
L 111.284422 121.81428 
L 111.784173 122.850385 
L 112.783374 125.449373 
L 113.283125 126.064339 
L 113.53285 126.130835 
L 113.782575 126.039816 
L 114.0326 125.796942 
L 114.532051 124.749518 
L 115.031802 122.622131 
L 116.031003 117.485464 
L 116.281028 117.089791 
L 116.530754 117.337381 
L 117.030504 119.42091 
L 118.029705 124.846196 
L 118.529456 126.460955 
L 119.028907 127.350864 
L 119.528657 127.796526 
L 120.278133 128.064395 
L 121.527359 128.161544 
L 123.775787 128.132305 
L 124.275238 127.896977 
L 124.525263 127.588079 
L 124.774988 127.046682 
L 125.274739 124.864589 
L 125.77419 120.981434 
L 126.523666 114.140405 
L 126.773691 112.902926 
L 127.023416 112.431326 
L 127.273142 112.75673 
L 127.523167 113.911207 
L 129.022118 124.602851 
L 129.521569 126.491137 
L 130.02132 127.371143 
L 130.52107 127.722485 
L 131.020521 127.757855 
L 134.26845 127.168826 
L 135.017926 127.383876 
L 136.516877 127.960643 
L 138.015829 128.148811 
L 140.763708 128.217193 
L 153.504798 128.227568 
L 154.254274 128.066281 
L 154.504299 127.866794 
L 154.754024 127.463105 
L 155.00375 126.711374 
L 155.253775 125.449373 
L 155.5035 123.377162 
L 156.003251 115.948048 
L 156.502702 103.205416 
L 157.502203 73.913396 
L 157.751928 69.937337 
L 158.001653 68.719194 
L 158.251679 70.042975 
L 158.501404 73.638925 
L 159.25088 92.849551 
L 160.000356 111.194791 
L 160.500106 118.889417 
L 160.999557 123.325286 
L 161.499308 125.59887 
L 161.999058 126.67176 
L 162.498509 127.158923 
L 163.247985 127.439996 
L 164.746936 127.584778 
L 168.744341 127.652688 
L 179.98648 127.648444 
L 182.234907 127.543277 
L 182.484633 127.413115 
L 182.734358 127.141002 
L 182.984383 126.530752 
L 183.234109 125.344206 
L 183.483834 123.058832 
L 183.733859 118.808773 
L 183.983585 111.621118 
L 184.23331 99.647665 
L 184.483335 80.77046 
L 184.982786 14.134795 
L 185.055781 -1 
M 189.947518 -1 
L 190.229117 37.661033 
L 190.728868 81.708473 
L 191.228618 104.76877 
L 191.728069 116.069249 
L 192.227819 121.430398 
L 192.72757 123.994487 
L 193.227021 125.288086 
L 193.726771 125.9969 
L 194.476247 126.58027 
L 195.475448 126.991505 
L 196.9744 127.306534 
L 199.472853 127.589022 
L 203.719683 127.809731 
L 206.218136 127.766815 
L 207.217337 127.527242 
L 208.716289 127.076393 
L 209.465765 127.07545 
L 210.714992 127.383404 
L 212.213943 127.744178 
L 213.962621 127.914898 
L 218.209751 127.961114 
L 227.702912 127.975734 
L 234.448195 127.932347 
L 240.694028 127.929046 
L 250.68694 128.026667 
L 268.174611 128.070526 
L 285.162831 128.087975 
L 310.894737 127.924801 
L 311.394487 127.705036 
L 311.894238 127.255129 
L 312.393689 126.402476 
L 312.893439 124.900902 
L 313.39319 122.454713 
L 313.892641 118.777176 
L 314.392391 113.654185 
L 315.141867 103.263894 
L 316.640819 79.943746 
L 317.140569 74.89904 
L 317.390295 73.438024 
L 317.64002 72.727794 
L 317.890045 72.796648 
L 318.139771 73.696932 
L 318.639521 77.564524 
L 319.388997 87.350224 
L 321.137674 112.329461 
L 321.88715 119.28839 
L 322.636626 123.595513 
L 323.136376 125.348922 
L 323.635827 126.466614 
L 324.135578 127.152792 
L 324.885054 127.703149 
L 325.63453 127.953097 
L 326.883756 128.109197 
L 330.131385 128.18371 
L 335.127991 128.113441 
L 338.125894 128.151169 
L 343.871676 128.240773 
L 361.359647 128.252092 
L 367.355455 128.248319 
L 367.355455 128.248319 
" style="fill:none;stroke:#000000;stroke-linecap:square;stroke-width:1.5;"/>
   </g>
   <g id="patch_3">
    <path d="M 53.1 132.9912 
L 53.1 33.9552 
" style="fill:none;stroke:#000000;stroke-linecap:square;stroke-linejoin:miter;stroke-width:0.8;"/>
   </g>
   <g id="patch_4">
    <path d="M 382.32 132.9912 
L 382.32 33.9552 
" style="fill:none;stroke:#000000;stroke-linecap:square;stroke-linejoin:miter;stroke-width:0.8;"/>
   </g>
   <g id="patch_5">
    <path d="M 53.1 132.9912 
L 382.32 132.9912 
" style="fill:none;stroke:#000000;stroke-linecap:square;stroke-linejoin:miter;stroke-width:0.8;"/>
   </g>
   <g id="patch_6">
    <path d="M 53.1 33.9552 
L 382.32 33.9552 
" style="fill:none;stroke:#000000;stroke-linecap:square;stroke-linejoin:miter;stroke-width:0.8;"/>
   </g>
  </g>
  <g id="axes_2">
   <g id="patch_7">
    <path d="M 53.1 251.8344 
L 382.32 251.8344 
L 382.32 152.7984 
L 53.1 152.7984 
z
" style="fill:#ffffff;"/>
   </g>
   <g id="matplotlib.axis_3">
    <g id="xtick_7">
     <g id="line2d_13">
      <g>
       <use style="stroke:#000000;stroke-width:0.8;" x="68.048672" xlink:href="#m6dc4b5673b" y="251.8344"/>
      </g>
     </g>
     <g id="text_13">
      <!-- 6 -->
      <g transform="translate(65.503672 264.91315)scale(0.08 -0.08)">
       <use xlink:href="#DejaVuSans-54"/>
      </g>
     </g>
    </g>
    <g id="xtick_8">
     <g id="line2d_14">
      <g>
       <use style="stroke:#000000;stroke-width:0.8;" x="122.470561" xlink:href="#m6dc4b5673b" y="251.8344"/>
      </g>
     </g>
     <g id="text_14">
      <!-- 8 -->
      <g transform="translate(119.925561 264.91315)scale(0.08 -0.08)">
       <use xlink:href="#DejaVuSans-56"/>
      </g>
     </g>
    </g>
    <g id="xtick_9">
     <g id="line2d_15">
      <g>
       <use style="stroke:#000000;stroke-width:0.8;" x="176.89245" xlink:href="#m6dc4b5673b" y="251.8344"/>
      </g>
     </g>
     <g id="text_15">
      <!-- 10 -->
      <g transform="translate(171.80245 264.91315)scale(0.08 -0.08)">
       <use xlink:href="#DejaVuSans-49"/>
       <use x="63.623047" xlink:href="#DejaVuSans-48"/>
      </g>
     </g>
    </g>
    <g id="xtick_10">
     <g id="line2d_16">
      <g>
       <use style="stroke:#000000;stroke-width:0.8;" x="231.314338" xlink:href="#m6dc4b5673b" y="251.8344"/>
      </g>
     </g>
     <g id="text_16">
      <!-- 12 -->
      <g transform="translate(226.224338 264.91315)scale(0.08 -0.08)">
       <use xlink:href="#DejaVuSans-49"/>
       <use x="63.623047" xlink:href="#DejaVuSans-50"/>
      </g>
     </g>
    </g>
    <g id="xtick_11">
     <g id="line2d_17">
      <g>
       <use style="stroke:#000000;stroke-width:0.8;" x="285.736227" xlink:href="#m6dc4b5673b" y="251.8344"/>
      </g>
     </g>
     <g id="text_17">
      <!-- 14 -->
      <g transform="translate(280.646227 264.91315)scale(0.08 -0.08)">
       <use xlink:href="#DejaVuSans-49"/>
       <use x="63.623047" xlink:href="#DejaVuSans-52"/>
      </g>
     </g>
    </g>
    <g id="xtick_12">
     <g id="line2d_18">
      <g>
       <use style="stroke:#000000;stroke-width:0.8;" x="340.158116" xlink:href="#m6dc4b5673b" y="251.8344"/>
      </g>
     </g>
     <g id="text_18">
      <!-- 16 -->
      <g transform="translate(335.068116 264.91315)scale(0.08 -0.08)">
       <use xlink:href="#DejaVuSans-49"/>
       <use x="63.623047" xlink:href="#DejaVuSans-54"/>
      </g>
     </g>
    </g>
    <g id="text_19">
     <!-- residence time/ min. -->
     <g transform="translate(166.275625 278.175338)scale(0.1 -0.1)">
      <defs>
       <path d="M 41.109375 46.296875 
Q 39.59375 47.171875 37.8125 47.578125 
Q 36.03125 48 33.890625 48 
Q 26.265625 48 22.1875 43.046875 
Q 18.109375 38.09375 18.109375 28.8125 
L 18.109375 0 
L 9.078125 0 
L 9.078125 54.6875 
L 18.109375 54.6875 
L 18.109375 46.1875 
Q 20.953125 51.171875 25.484375 53.578125 
Q 30.03125 56 36.53125 56 
Q 37.453125 56 38.578125 55.875 
Q 39.703125 55.765625 41.0625 55.515625 
z
" id="DejaVuSans-114"/>
       <path d="M 45.40625 46.390625 
L 45.40625 75.984375 
L 54.390625 75.984375 
L 54.390625 0 
L 45.40625 0 
L 45.40625 8.203125 
Q 42.578125 3.328125 38.25 0.953125 
Q 33.9375 -1.421875 27.875 -1.421875 
Q 17.96875 -1.421875 11.734375 6.484375 
Q 5.515625 14.40625 5.515625 27.296875 
Q 5.515625 40.1875 11.734375 48.09375 
Q 17.96875 56 27.875 56 
Q 33.9375 56 38.25 53.625 
Q 42.578125 51.265625 45.40625 46.390625 
z
M 14.796875 27.296875 
Q 14.796875 17.390625 18.875 11.75 
Q 22.953125 6.109375 30.078125 6.109375 
Q 37.203125 6.109375 41.296875 11.75 
Q 45.40625 17.390625 45.40625 27.296875 
Q 45.40625 37.203125 41.296875 42.84375 
Q 37.203125 48.484375 30.078125 48.484375 
Q 22.953125 48.484375 18.875 42.84375 
Q 14.796875 37.203125 14.796875 27.296875 
z
" id="DejaVuSans-100"/>
       <path d="M 48.78125 52.59375 
L 48.78125 44.1875 
Q 44.96875 46.296875 41.140625 47.34375 
Q 37.3125 48.390625 33.40625 48.390625 
Q 24.65625 48.390625 19.8125 42.84375 
Q 14.984375 37.3125 14.984375 27.296875 
Q 14.984375 17.28125 19.8125 11.734375 
Q 24.65625 6.203125 33.40625 6.203125 
Q 37.3125 6.203125 41.140625 7.25 
Q 44.96875 8.296875 48.78125 10.40625 
L 48.78125 2.09375 
Q 45.015625 0.34375 40.984375 -0.53125 
Q 36.96875 -1.421875 32.421875 -1.421875 
Q 20.0625 -1.421875 12.78125 6.34375 
Q 5.515625 14.109375 5.515625 27.296875 
Q 5.515625 40.671875 12.859375 48.328125 
Q 20.21875 56 33.015625 56 
Q 37.15625 56 41.109375 55.140625 
Q 45.0625 54.296875 48.78125 52.59375 
z
" id="DejaVuSans-99"/>
      </defs>
      <use xlink:href="#DejaVuSans-114"/>
      <use x="38.863281" xlink:href="#DejaVuSans-101"/>
      <use x="100.386719" xlink:href="#DejaVuSans-115"/>
      <use x="152.486328" xlink:href="#DejaVuSans-105"/>
      <use x="180.269531" xlink:href="#DejaVuSans-100"/>
      <use x="243.746094" xlink:href="#DejaVuSans-101"/>
      <use x="305.269531" xlink:href="#DejaVuSans-110"/>
      <use x="368.648438" xlink:href="#DejaVuSans-99"/>
      <use x="423.628906" xlink:href="#DejaVuSans-101"/>
      <use x="485.152344" xlink:href="#DejaVuSans-32"/>
      <use x="516.939453" xlink:href="#DejaVuSans-116"/>
      <use x="556.148438" xlink:href="#DejaVuSans-105"/>
      <use x="583.931641" xlink:href="#DejaVuSans-109"/>
      <use x="681.34375" xlink:href="#DejaVuSans-101"/>
      <use x="742.867188" xlink:href="#DejaVuSans-47"/>
      <use x="776.558594" xlink:href="#DejaVuSans-32"/>
      <use x="808.345703" xlink:href="#DejaVuSans-109"/>
      <use x="905.757812" xlink:href="#DejaVuSans-105"/>
      <use x="933.541016" xlink:href="#DejaVuSans-110"/>
      <use x="996.919922" xlink:href="#DejaVuSans-46"/>
     </g>
    </g>
   </g>
   <g id="matplotlib.axis_4">
    <g id="ytick_6">
     <g id="line2d_19">
      <g>
       <use style="stroke:#000000;stroke-width:0.8;" x="53.1" xlink:href="#m162924614d" y="247.332764"/>
      </g>
     </g>
     <g id="text_20">
      <!-- 0.0 -->
      <g transform="translate(33.3775 250.372139)scale(0.08 -0.08)">
       <use xlink:href="#DejaVuSans-48"/>
       <use x="63.623047" xlink:href="#DejaVuSans-46"/>
       <use x="95.410156" xlink:href="#DejaVuSans-48"/>
      </g>
     </g>
    </g>
    <g id="ytick_7">
     <g id="line2d_20">
      <g>
       <use style="stroke:#000000;stroke-width:0.8;" x="53.1" xlink:href="#m162924614d" y="230.811402"/>
      </g>
     </g>
     <g id="text_21">
      <!-- 0.2 -->
      <g transform="translate(33.3775 233.850777)scale(0.08 -0.08)">
       <use xlink:href="#DejaVuSans-48"/>
       <use x="63.623047" xlink:href="#DejaVuSans-46"/>
       <use x="95.410156" xlink:href="#DejaVuSans-50"/>
      </g>
     </g>
    </g>
    <g id="ytick_8">
     <g id="line2d_21">
      <g>
       <use style="stroke:#000000;stroke-width:0.8;" x="53.1" xlink:href="#m162924614d" y="214.290041"/>
      </g>
     </g>
     <g id="text_22">
      <!-- 0.4 -->
      <g transform="translate(33.3775 217.329416)scale(0.08 -0.08)">
       <use xlink:href="#DejaVuSans-48"/>
       <use x="63.623047" xlink:href="#DejaVuSans-46"/>
       <use x="95.410156" xlink:href="#DejaVuSans-52"/>
      </g>
     </g>
    </g>
    <g id="ytick_9">
     <g id="line2d_22">
      <g>
       <use style="stroke:#000000;stroke-width:0.8;" x="53.1" xlink:href="#m162924614d" y="197.768679"/>
      </g>
     </g>
     <g id="text_23">
      <!-- 0.6 -->
      <g transform="translate(33.3775 200.808054)scale(0.08 -0.08)">
       <use xlink:href="#DejaVuSans-48"/>
       <use x="63.623047" xlink:href="#DejaVuSans-46"/>
       <use x="95.410156" xlink:href="#DejaVuSans-54"/>
      </g>
     </g>
    </g>
    <g id="ytick_10">
     <g id="line2d_23">
      <g>
       <use style="stroke:#000000;stroke-width:0.8;" x="53.1" xlink:href="#m162924614d" y="181.247318"/>
      </g>
     </g>
     <g id="text_24">
      <!-- 0.8 -->
      <g transform="translate(33.3775 184.286693)scale(0.08 -0.08)">
       <use xlink:href="#DejaVuSans-48"/>
       <use x="63.623047" xlink:href="#DejaVuSans-46"/>
       <use x="95.410156" xlink:href="#DejaVuSans-56"/>
      </g>
     </g>
    </g>
    <g id="ytick_11">
     <g id="line2d_24">
      <g>
       <use style="stroke:#000000;stroke-width:0.8;" x="53.1" xlink:href="#m162924614d" y="164.725957"/>
      </g>
     </g>
     <g id="text_25">
      <!-- 1.0 -->
      <g transform="translate(33.3775 167.765332)scale(0.08 -0.08)">
       <use xlink:href="#DejaVuSans-49"/>
       <use x="63.623047" xlink:href="#DejaVuSans-46"/>
       <use x="95.410156" xlink:href="#DejaVuSans-48"/>
      </g>
     </g>
    </g>
    <g id="text_26">
     <!-- Total ion counts/ 10$^6$ -->
     <g transform="translate(27.297812 254.4164)rotate(-90)scale(0.1 -0.1)">
      <defs>
       <path d="M -0.296875 72.90625 
L 61.375 72.90625 
L 61.375 64.59375 
L 35.5 64.59375 
L 35.5 0 
L 25.59375 0 
L 25.59375 64.59375 
L -0.296875 64.59375 
z
" id="DejaVuSans-84"/>
       <path d="M 30.609375 48.390625 
Q 23.390625 48.390625 19.1875 42.75 
Q 14.984375 37.109375 14.984375 27.296875 
Q 14.984375 17.484375 19.15625 11.84375 
Q 23.34375 6.203125 30.609375 6.203125 
Q 37.796875 6.203125 41.984375 11.859375 
Q 46.1875 17.53125 46.1875 27.296875 
Q 46.1875 37.015625 41.984375 42.703125 
Q 37.796875 48.390625 30.609375 48.390625 
z
M 30.609375 56 
Q 42.328125 56 49.015625 48.375 
Q 55.71875 40.765625 55.71875 27.296875 
Q 55.71875 13.875 49.015625 6.21875 
Q 42.328125 -1.421875 30.609375 -1.421875 
Q 18.84375 -1.421875 12.171875 6.21875 
Q 5.515625 13.875 5.515625 27.296875 
Q 5.515625 40.765625 12.171875 48.375 
Q 18.84375 56 30.609375 56 
z
" id="DejaVuSans-111"/>
       <path d="M 34.28125 27.484375 
Q 23.390625 27.484375 19.1875 25 
Q 14.984375 22.515625 14.984375 16.5 
Q 14.984375 11.71875 18.140625 8.90625 
Q 21.296875 6.109375 26.703125 6.109375 
Q 34.1875 6.109375 38.703125 11.40625 
Q 43.21875 16.703125 43.21875 25.484375 
L 43.21875 27.484375 
z
M 52.203125 31.203125 
L 52.203125 0 
L 43.21875 0 
L 43.21875 8.296875 
Q 40.140625 3.328125 35.546875 0.953125 
Q 30.953125 -1.421875 24.3125 -1.421875 
Q 15.921875 -1.421875 10.953125 3.296875 
Q 6 8.015625 6 15.921875 
Q 6 25.140625 12.171875 29.828125 
Q 18.359375 34.515625 30.609375 34.515625 
L 43.21875 34.515625 
L 43.21875 35.40625 
Q 43.21875 41.609375 39.140625 45 
Q 35.0625 48.390625 27.6875 48.390625 
Q 23 48.390625 18.546875 47.265625 
Q 14.109375 46.140625 10.015625 43.890625 
L 10.015625 52.203125 
Q 14.9375 54.109375 19.578125 55.046875 
Q 24.21875 56 28.609375 56 
Q 40.484375 56 46.34375 49.84375 
Q 52.203125 43.703125 52.203125 31.203125 
z
" id="DejaVuSans-97"/>
       <path d="M 9.421875 75.984375 
L 18.40625 75.984375 
L 18.40625 0 
L 9.421875 0 
z
" id="DejaVuSans-108"/>
       <path d="M 8.5 21.578125 
L 8.5 54.6875 
L 17.484375 54.6875 
L 17.484375 21.921875 
Q 17.484375 14.15625 20.5 10.265625 
Q 23.53125 6.390625 29.59375 6.390625 
Q 36.859375 6.390625 41.078125 11.03125 
Q 45.3125 15.671875 45.3125 23.6875 
L 45.3125 54.6875 
L 54.296875 54.6875 
L 54.296875 0 
L 45.3125 0 
L 45.3125 8.40625 
Q 42.046875 3.421875 37.71875 1 
Q 33.40625 -1.421875 27.6875 -1.421875 
Q 18.265625 -1.421875 13.375 4.4375 
Q 8.5 10.296875 8.5 21.578125 
z
M 31.109375 56 
z
" id="DejaVuSans-117"/>
      </defs>
      <use transform="translate(0 0.765625)" xlink:href="#DejaVuSans-84"/>
      <use transform="translate(61.083984 0.765625)" xlink:href="#DejaVuSans-111"/>
      <use transform="translate(122.265625 0.765625)" xlink:href="#DejaVuSans-116"/>
      <use transform="translate(161.474609 0.765625)" xlink:href="#DejaVuSans-97"/>
      <use transform="translate(222.753906 0.765625)" xlink:href="#DejaVuSans-108"/>
      <use transform="translate(250.537109 0.765625)" xlink:href="#DejaVuSans-32"/>
      <use transform="translate(282.324219 0.765625)" xlink:href="#DejaVuSans-105"/>
      <use transform="translate(310.107422 0.765625)" xlink:href="#DejaVuSans-111"/>
      <use transform="translate(371.289062 0.765625)" xlink:href="#DejaVuSans-110"/>
      <use transform="translate(434.667969 0.765625)" xlink:href="#DejaVuSans-32"/>
      <use transform="translate(466.455078 0.765625)" xlink:href="#DejaVuSans-99"/>
      <use transform="translate(521.435547 0.765625)" xlink:href="#DejaVuSans-111"/>
      <use transform="translate(582.617188 0.765625)" xlink:href="#DejaVuSans-117"/>
      <use transform="translate(645.996094 0.765625)" xlink:href="#DejaVuSans-110"/>
      <use transform="translate(709.375 0.765625)" xlink:href="#DejaVuSans-116"/>
      <use transform="translate(748.583984 0.765625)" xlink:href="#DejaVuSans-115"/>
      <use transform="translate(800.683594 0.765625)" xlink:href="#DejaVuSans-47"/>
      <use transform="translate(834.375 0.765625)" xlink:href="#DejaVuSans-32"/>
      <use transform="translate(866.162109 0.765625)" xlink:href="#DejaVuSans-49"/>
      <use transform="translate(929.785156 0.765625)" xlink:href="#DejaVuSans-48"/>
      <use transform="translate(994.365234 39.046875)scale(0.7)" xlink:href="#DejaVuSans-54"/>
     </g>
    </g>
   </g>
   <g id="line2d_25">
    <path clip-path="url(#p3f2bdafc05)" d="M 68.064545 247.332764 
L 71.591764 247.246301 
L 71.682467 246.836451 
L 71.998794 243.424669 
L 72.044146 243.433137 
L 72.540746 247.286484 
L 72.722152 247.332764 
L 87.191572 247.332764 
L 87.326493 246.079301 
L 87.462547 240.707494 
L 87.643954 224.672239 
L 87.869578 202.013736 
L 87.914929 203.166428 
L 88.04985 219.317531 
L 88.276608 244.005929 
L 88.456881 246.857458 
L 88.774342 247.332764 
L 90.446681 247.247428 
L 90.71879 246.529613 
L 90.763008 246.477061 
L 90.80836 246.53265 
L 91.124687 247.332764 
L 91.260742 247.332764 
L 111.608859 247.260516 
L 111.699562 246.875041 
L 111.879835 245.015723 
L 112.15081 242.247963 
L 112.196162 242.248655 
L 112.693896 247.273759 
L 113.100926 247.28809 
L 113.32655 247.13737 
L 114.004556 247.332764 
L 114.049908 247.235298 
L 114.095259 247.332764 
L 115.541974 247.261633 
L 115.723381 246.811832 
L 115.949005 245.844685 
L 116.085059 245.995087 
L 116.310684 246.986928 
L 116.582793 247.264886 
L 116.717714 247.163093 
L 116.808417 246.618343 
L 116.89912 244.605794 
L 117.034041 236.888334 
L 117.215447 209.610397 
L 117.486423 160.89375 
L 117.531775 160.646921 
L 117.577126 160.773313 
L 117.622478 161.4178 
L 117.848102 158.157141 
L 117.893453 157.300036 
L 117.938805 160.642508 
L 118.300484 246.747688 
L 118.48189 247.241004 
L 118.888921 247.332764 
L 121.104345 247.240646 
L 121.239266 246.879704 
L 121.375321 246.097928 
L 121.600945 244.517725 
L 122.189381 247.192132 
L 122.325436 246.999675 
L 122.596412 246.4137 
L 122.641763 246.537875 
L 123.003442 247.219467 
L 123.319769 247.332764 
L 123.7268 247.013221 
L 124.450157 247.332764 
L 124.811836 247.253946 
L 124.947891 247.087915 
L 125.173515 246.545348 
L 125.30957 246.523407 
L 125.535194 246.867756 
L 125.7166 246.997226 
L 125.761952 246.996535 
L 125.942224 247.332764 
L 126.62023 247.275042 
L 126.981909 246.757285 
L 127.02726 246.810037 
L 127.479642 247.332764 
L 127.79597 247.332764 
L 127.886673 247.231021 
L 127.932024 247.277656 
L 131.006861 247.332764 
L 131.052213 247.250996 
L 131.097564 247.332764 
L 135.84474 247.332764 
L 135.890092 247.211685 
L 135.935443 247.332764 
L 137.02048 247.233047 
L 137.382159 247.043517 
L 137.42751 246.957897 
L 137.472862 247.042816 
L 137.607783 247.119195 
L 138.376492 247.332764 
L 151.715523 247.229939 
L 152.032984 246.921471 
L 152.801694 247.332764 
L 158.453634 247.332764 
L 158.498985 247.214065 
L 158.544337 247.332764 
L 162.568155 247.332764 
L 162.613507 247.221031 
L 162.70421 247.28232 
L 167.406034 247.240348 
L 167.542089 247.332764 
L 172.696295 247.223421 
L 172.923053 247.090262 
L 173.057974 247.04442 
L 173.826683 247.332764 
L 173.872035 247.218301 
L 173.917386 247.332764 
L 177.263199 247.225859 
L 177.489957 246.653738 
L 177.851636 244.706165 
L 177.986556 244.803187 
L 178.665696 247.254723 
L 179.116944 247.332764 
L 180.021708 247.235256 
L 180.292684 247.145071 
L 180.47409 247.217565 
L 180.564793 247.189795 
L 180.745066 247.282551 
L 182.598812 247.269193 
L 183.2326 247.10717 
L 183.458224 247.271466 
L 184.408339 247.332764 
L 184.770018 247.233239 
L 184.859587 247.101246 
L 185.040994 246.52577 
L 185.131697 245.905154 
L 185.357321 241.656627 
L 185.809703 230.95779 
L 185.855055 230.934539 
L 186.035327 235.040986 
L 186.533061 246.602161 
L 186.758685 246.960143 
L 186.985442 246.721816 
L 187.482042 244.164996 
L 187.754152 242.846962 
L 187.799503 242.863103 
L 187.979776 244.235325 
L 188.341455 246.773271 
L 188.522861 247.206636 
L 188.793836 247.279086 
L 189.78817 247.235737 
L 190.692934 247.332764 
L 190.918558 247.214267 
L 191.009261 247.100878 
L 191.37094 246.276594 
L 191.461643 246.241318 
L 191.597698 246.207231 
L 192.094297 247.24978 
L 192.455976 247.275716 
L 192.637382 247.129895 
L 192.863006 246.432309 
L 193.224685 242.99598 
L 193.76777 235.039792 
L 193.813122 235.503649 
L 193.903825 236.33267 
L 194.038746 238.366498 
L 194.445776 244.096952 
L 194.672534 244.817964 
L 194.716752 244.748488 
L 194.762104 244.834073 
L 194.807455 244.844725 
L 194.94351 245.10156 
L 195.078431 245.121887 
L 195.84714 247.204973 
L 195.983195 247.234897 
L 196.615849 247.272051 
L 197.972995 247.332764 
L 198.514946 247.332764 
L 198.560298 247.196694 
L 198.60565 247.332764 
L 199.465062 247.24208 
L 200.188419 246.824134 
L 200.550098 247.124085 
L 200.686153 247.242915 
L 200.866425 247.273599 
L 201.00248 247.286173 
L 201.725838 247.332764 
L 201.771189 247.216814 
L 201.816541 247.332764 
L 219.4515 247.332764 
L 219.495718 247.219367 
L 219.54107 247.332764 
L 229.488938 247.332764 
L 229.534289 247.186161 
L 229.579641 247.332764 
L 230.257647 247.234937 
L 230.439053 247.14379 
L 230.800732 247.174778 
L 230.981004 247.273623 
L 232.202095 247.332764 
L 234.779199 247.240019 
L 235.005956 247.063618 
L 235.140877 247.010151 
L 235.276932 246.870054 
L 235.322284 246.947927 
L 235.367635 246.841481 
L 235.729314 246.88086 
L 236.045641 247.197476 
L 236.181696 247.249187 
L 237.356302 247.332764 
L 241.742933 247.243566 
L 242.013908 246.999171 
L 242.05926 247.092825 
L 242.104612 247.023625 
L 242.556994 246.927117 
L 242.873321 247.206536 
L 242.964024 247.239125 
L 243.551327 247.332764 
L 245.586479 247.229446 
L 245.812103 247.060678 
L 246.219133 246.062485 
L 246.309836 246.079926 
L 246.355188 245.976509 
L 246.400539 246.034549 
L 246.626164 246.45245 
L 246.942491 247.158336 
L 247.394873 247.332764 
L 249.203267 247.270512 
L 249.339321 247.195616 
L 249.475376 247.241403 
L 250.424358 247.092367 
L 250.560413 246.851639 
L 250.605764 246.907738 
L 250.651116 246.84787 
L 250.831388 246.549318 
L 250.87674 246.477551 
L 250.922091 245.994183 
L 251.012794 246.160004 
L 251.058146 246.223345 
L 251.147715 246.051936 
L 251.193067 246.079088 
L 251.916425 247.036512 
L 252.368807 247.127898 
L 252.504861 247.016446 
L 252.685134 246.983169 
L 252.86654 246.843463 
L 253.046813 246.803402 
L 253.137516 246.65426 
L 253.182867 246.669025 
L 253.364274 246.607535 
L 253.544546 246.621304 
L 253.680601 246.853993 
L 253.77017 246.902671 
L 254.04228 247.190996 
L 254.494662 247.275518 
L 254.538879 247.182066 
L 254.584231 247.282535 
L 255.081964 247.332764 
L 258.789456 247.221739 
L 259.061565 246.991757 
L 259.196486 246.984821 
L 259.558165 247.118363 
L 259.739571 247.235983 
L 260.417577 247.332764 
L 261.729371 247.253496 
L 261.909644 246.952875 
L 262.09105 246.520063 
L 262.814408 243.449024 
L 262.859759 243.404669 
L 262.903977 243.490228 
L 262.99468 243.512478 
L 263.040032 243.572662 
L 263.26679 244.378515 
L 263.311008 244.38203 
L 263.492414 245.050028 
L 263.854093 245.372803 
L 263.990147 245.302214 
L 264.17042 244.954831 
L 264.306475 244.211031 
L 264.57745 240.186173 
L 264.848426 233.351814 
L 265.527566 212.192596 
L 265.707838 218.368242 
L 266.431196 246.262788 
L 266.703305 247.230705 
L 267.064984 247.243843 
L 267.426663 246.203779 
L 267.697639 243.602802 
L 268.104669 238.727746 
L 268.284941 238.058793 
L 268.557051 241.081506 
L 269.144354 246.708951 
L 269.415329 247.260182 
L 269.913063 247.332764 
L 272.671572 247.224117 
L 272.762276 247.128819 
L 272.9879 246.456415 
L 273.169306 244.636765 
L 273.440282 238.178565 
L 273.80196 220.605421 
L 274.208991 203.000072 
L 274.254342 203.145956 
L 274.389263 206.654625 
L 274.750942 230.278671 
L 275.023051 242.340514 
L 275.203324 244.049309 
L 275.248676 243.937874 
L 275.294027 243.970862 
L 275.701058 243.009113 
L 275.746409 243.049939 
L 276.333712 246.26246 
L 276.695391 247.099593 
L 276.740742 246.886896 
L 276.786094 247.128405 
L 277.600155 247.103291 
L 277.825779 246.908619 
L 278.187458 246.605135 
L 278.323512 246.59549 
L 278.503785 246.627156 
L 278.685191 246.75924 
L 278.910815 247.084092 
L 279.408549 247.332764 
L 280.493585 247.229162 
L 280.765695 247.063342 
L 281.03667 246.746175 
L 281.307646 246.31625 
L 281.578621 246.201086 
L 281.896083 246.547131 
L 282.031003 246.625378 
L 282.392682 247.016278 
L 282.528737 246.995015 
L 282.709009 247.118795 
L 283.252095 247.286712 
L 283.432367 247.332764 
L 288.497004 247.22238 
L 288.904034 246.39185 
L 289.220362 245.699957 
L 289.265713 245.726967 
L 289.401768 245.631476 
L 290.486804 247.245283 
L 291.435786 247.332764 
L 291.526489 247.286904 
L 291.571841 247.332764 
L 296.591126 247.243344 
L 296.636478 247.134095 
L 296.681829 247.186372 
L 296.862102 247.237269 
L 296.952805 247.128151 
L 297.08886 247.241893 
L 297.223781 247.253456 
L 300.207914 247.216339 
L 300.389321 247.137838 
L 300.525375 247.110936 
L 301.112678 247.235773 
L 302.062794 247.332764 
L 302.7408 247.332764 
L 302.786151 247.12477 
L 302.830369 247.332764 
L 304.549194 247.332764 
L 304.594545 247.186352 
L 304.639897 247.287083 
L 304.820169 247.332764 
L 328.468748 247.249098 
L 328.785075 247.006092 
L 329.463081 247.091959 
L 329.599136 247.19041 
L 329.870111 247.332764 
L 335.251075 247.279239 
L 335.477833 246.802395 
L 335.748809 244.969334 
L 336.065136 239.542973 
L 337.015252 219.684335 
L 337.150173 223.266654 
L 337.511851 236.94602 
L 337.829312 244.300111 
L 338.100288 246.529236 
L 338.371264 247.173594 
L 338.416615 247.123206 
L 338.461967 247.194284 
L 338.687591 247.271245 
L 339.094621 247.332764 
L 339.139973 247.248022 
L 339.185324 247.332764 
L 358.854302 247.246585 
L 359.533442 246.225596 
L 359.804417 245.256008 
L 360.030042 244.962747 
L 360.075393 245.043434 
L 360.120745 245.335256 
L 360.211448 245.299883 
L 361.115078 247.195701 
L 361.612812 247.332764 
L 367.355455 247.332764 
L 367.355455 247.332764 
" style="fill:none;stroke:#000000;stroke-linecap:square;stroke-width:1.5;"/>
   </g>
   <g id="patch_8">
    <path d="M 53.1 251.8344 
L 53.1 152.7984 
" style="fill:none;stroke:#000000;stroke-linecap:square;stroke-linejoin:miter;stroke-width:0.8;"/>
   </g>
   <g id="patch_9">
    <path d="M 382.32 251.8344 
L 382.32 152.7984 
" style="fill:none;stroke:#000000;stroke-linecap:square;stroke-linejoin:miter;stroke-width:0.8;"/>
   </g>
   <g id="patch_10">
    <path d="M 53.1 251.8344 
L 382.32 251.8344 
" style="fill:none;stroke:#000000;stroke-linecap:square;stroke-linejoin:miter;stroke-width:0.8;"/>
   </g>
   <g id="patch_11">
    <path d="M 53.1 152.7984 
L 382.32 152.7984 
" style="fill:none;stroke:#000000;stroke-linecap:square;stroke-linejoin:miter;stroke-width:0.8;"/>
   </g>
  </g>
 </g>
 <defs>
  <clipPath id="p8a6a690136">
   <rect height="99.036" width="329.22" x="53.1" y="33.9552"/>
  </clipPath>
  <clipPath id="p3f2bdafc05">
   <rect height="99.036" width="329.22" x="53.1" y="152.7984"/>
  </clipPath>
 </defs>
</svg>
