<?xml version="1.0" encoding="utf-8" standalone="no"?>
<!DOCTYPE svg PUBLIC "-//W3C//DTD SVG 1.1//EN"
  "http://www.w3.org/Graphics/SVG/1.1/DTD/svg11.dtd">
<svg height="198pt" version="1.1" viewBox="0 0 282.96 198" width="282.96pt" xmlns="http://www.w3.org/2000/svg" xmlns:xlink="http://www.w3.org/1999/xlink">
 <metadata>
  <rdf:RDF xmlns:cc="http://creativecommons.org/ns#" xmlns:dc="http://purl.org/dc/elements/1.1/" xmlns:rdf="http://www.w3.org/1999/02/22-rdf-syntax-ns#">
   <cc:Work>
    <dc:type rdf:resource="http://purl.org/dc/dcmitype/StillImage"/>
    <dc:date>2021-11-14T21:17:07.291500</dc:date>
    <dc:format>image/svg+xml</dc:format>
    <dc:creator>
     <cc:Agent>
      <dc:title>Matplotlib v3.4.1, https://matplotlib.org/</dc:title>
     </cc:Agent>
    </dc:creator>
   </cc:Work>
  </rdf:RDF>
 </metadata>
 <defs>
  <style type="text/css">*{stroke-linecap:butt;stroke-linejoin:round;}</style>
 </defs>
 <g id="figure_1">
  <g id="patch_1">
   <path d="M 0 198 
L 282.96 198 
L 282.96 0 
L 0 0 
z
" style="fill:#ffffff;"/>
  </g>
  <g id="axes_1">
   <g id="patch_2">
    <path d="M 56.592 158.4 
L 254.664 158.4 
L 254.664 19.8 
L 56.592 19.8 
z
" style="fill:#ffffff;"/>
   </g>
   <g id="matplotlib.axis_1">
    <g id="xtick_1">
     <g id="line2d_1">
      <defs>
       <path d="M 0 0 
L 0 2 
" id="m64d834836b" style="stroke:#000000;stroke-width:0.8;"/>
      </defs>
      <g>
       <use style="stroke:#000000;stroke-width:0.8;" x="82.744364" xlink:href="#m64d834836b" y="158.4"/>
      </g>
     </g>
     <g id="text_1">
      <!-- 100 -->
      <g transform="translate(73.200614 171.498437)scale(0.1 -0.1)">
       <defs>
        <path d="M 794 531 
L 1825 531 
L 1825 4091 
L 703 3866 
L 703 4441 
L 1819 4666 
L 2450 4666 
L 2450 531 
L 3481 531 
L 3481 0 
L 794 0 
L 794 531 
z
" id="DejaVuSans-31" transform="scale(0.015625)"/>
        <path d="M 2034 4250 
Q 1547 4250 1301 3770 
Q 1056 3291 1056 2328 
Q 1056 1369 1301 889 
Q 1547 409 2034 409 
Q 2525 409 2770 889 
Q 3016 1369 3016 2328 
Q 3016 3291 2770 3770 
Q 2525 4250 2034 4250 
z
M 2034 4750 
Q 2819 4750 3233 4129 
Q 3647 3509 3647 2328 
Q 3647 1150 3233 529 
Q 2819 -91 2034 -91 
Q 1250 -91 836 529 
Q 422 1150 422 2328 
Q 422 3509 836 4129 
Q 1250 4750 2034 4750 
z
" id="DejaVuSans-30" transform="scale(0.015625)"/>
       </defs>
       <use xlink:href="#DejaVuSans-31"/>
       <use x="63.623047" xlink:href="#DejaVuSans-30"/>
       <use x="127.246094" xlink:href="#DejaVuSans-30"/>
      </g>
     </g>
    </g>
    <g id="xtick_2">
     <g id="line2d_2">
      <g>
       <use style="stroke:#000000;stroke-width:0.8;" x="125.617091" xlink:href="#m64d834836b" y="158.4"/>
      </g>
     </g>
     <g id="text_2">
      <!-- 200 -->
      <g transform="translate(116.073341 171.498437)scale(0.1 -0.1)">
       <defs>
        <path d="M 1228 531 
L 3431 531 
L 3431 0 
L 469 0 
L 469 531 
Q 828 903 1448 1529 
Q 2069 2156 2228 2338 
Q 2531 2678 2651 2914 
Q 2772 3150 2772 3378 
Q 2772 3750 2511 3984 
Q 2250 4219 1831 4219 
Q 1534 4219 1204 4116 
Q 875 4013 500 3803 
L 500 4441 
Q 881 4594 1212 4672 
Q 1544 4750 1819 4750 
Q 2544 4750 2975 4387 
Q 3406 4025 3406 3419 
Q 3406 3131 3298 2873 
Q 3191 2616 2906 2266 
Q 2828 2175 2409 1742 
Q 1991 1309 1228 531 
z
" id="DejaVuSans-32" transform="scale(0.015625)"/>
       </defs>
       <use xlink:href="#DejaVuSans-32"/>
       <use x="63.623047" xlink:href="#DejaVuSans-30"/>
       <use x="127.246094" xlink:href="#DejaVuSans-30"/>
      </g>
     </g>
    </g>
    <g id="xtick_3">
     <g id="line2d_3">
      <g>
       <use style="stroke:#000000;stroke-width:0.8;" x="168.489818" xlink:href="#m64d834836b" y="158.4"/>
      </g>
     </g>
     <g id="text_3">
      <!-- 300 -->
      <g transform="translate(158.946068 171.498437)scale(0.1 -0.1)">
       <defs>
        <path d="M 2597 2516 
Q 3050 2419 3304 2112 
Q 3559 1806 3559 1356 
Q 3559 666 3084 287 
Q 2609 -91 1734 -91 
Q 1441 -91 1130 -33 
Q 819 25 488 141 
L 488 750 
Q 750 597 1062 519 
Q 1375 441 1716 441 
Q 2309 441 2620 675 
Q 2931 909 2931 1356 
Q 2931 1769 2642 2001 
Q 2353 2234 1838 2234 
L 1294 2234 
L 1294 2753 
L 1863 2753 
Q 2328 2753 2575 2939 
Q 2822 3125 2822 3475 
Q 2822 3834 2567 4026 
Q 2313 4219 1838 4219 
Q 1578 4219 1281 4162 
Q 984 4106 628 3988 
L 628 4550 
Q 988 4650 1302 4700 
Q 1616 4750 1894 4750 
Q 2613 4750 3031 4423 
Q 3450 4097 3450 3541 
Q 3450 3153 3228 2886 
Q 3006 2619 2597 2516 
z
" id="DejaVuSans-33" transform="scale(0.015625)"/>
       </defs>
       <use xlink:href="#DejaVuSans-33"/>
       <use x="63.623047" xlink:href="#DejaVuSans-30"/>
       <use x="127.246094" xlink:href="#DejaVuSans-30"/>
      </g>
     </g>
    </g>
    <g id="xtick_4">
     <g id="line2d_4">
      <g>
       <use style="stroke:#000000;stroke-width:0.8;" x="211.362545" xlink:href="#m64d834836b" y="158.4"/>
      </g>
     </g>
     <g id="text_4">
      <!-- 400 -->
      <g transform="translate(201.818795 171.498437)scale(0.1 -0.1)">
       <defs>
        <path d="M 2419 4116 
L 825 1625 
L 2419 1625 
L 2419 4116 
z
M 2253 4666 
L 3047 4666 
L 3047 1625 
L 3713 1625 
L 3713 1100 
L 3047 1100 
L 3047 0 
L 2419 0 
L 2419 1100 
L 313 1100 
L 313 1709 
L 2253 4666 
z
" id="DejaVuSans-34" transform="scale(0.015625)"/>
       </defs>
       <use xlink:href="#DejaVuSans-34"/>
       <use x="63.623047" xlink:href="#DejaVuSans-30"/>
       <use x="127.246094" xlink:href="#DejaVuSans-30"/>
      </g>
     </g>
    </g>
    <g id="xtick_5">
     <g id="line2d_5">
      <g>
       <use style="stroke:#000000;stroke-width:0.8;" x="254.235273" xlink:href="#m64d834836b" y="158.4"/>
      </g>
     </g>
     <g id="text_5">
      <!-- 500 -->
      <g transform="translate(244.691523 171.498437)scale(0.1 -0.1)">
       <defs>
        <path d="M 691 4666 
L 3169 4666 
L 3169 4134 
L 1269 4134 
L 1269 2991 
Q 1406 3038 1543 3061 
Q 1681 3084 1819 3084 
Q 2600 3084 3056 2656 
Q 3513 2228 3513 1497 
Q 3513 744 3044 326 
Q 2575 -91 1722 -91 
Q 1428 -91 1123 -41 
Q 819 9 494 109 
L 494 744 
Q 775 591 1075 516 
Q 1375 441 1709 441 
Q 2250 441 2565 725 
Q 2881 1009 2881 1497 
Q 2881 1984 2565 2268 
Q 2250 2553 1709 2553 
Q 1456 2553 1204 2497 
Q 953 2441 691 2322 
L 691 4666 
z
" id="DejaVuSans-35" transform="scale(0.015625)"/>
       </defs>
       <use xlink:href="#DejaVuSans-35"/>
       <use x="63.623047" xlink:href="#DejaVuSans-30"/>
       <use x="127.246094" xlink:href="#DejaVuSans-30"/>
      </g>
     </g>
    </g>
    <g id="text_6">
     <!-- Residence time/ s -->
     <g transform="translate(111.299875 185.176562)scale(0.1 -0.1)">
      <defs>
       <path d="M 2841 2188 
Q 3044 2119 3236 1894 
Q 3428 1669 3622 1275 
L 4263 0 
L 3584 0 
L 2988 1197 
Q 2756 1666 2539 1819 
Q 2322 1972 1947 1972 
L 1259 1972 
L 1259 0 
L 628 0 
L 628 4666 
L 2053 4666 
Q 2853 4666 3247 4331 
Q 3641 3997 3641 3322 
Q 3641 2881 3436 2590 
Q 3231 2300 2841 2188 
z
M 1259 4147 
L 1259 2491 
L 2053 2491 
Q 2509 2491 2742 2702 
Q 2975 2913 2975 3322 
Q 2975 3731 2742 3939 
Q 2509 4147 2053 4147 
L 1259 4147 
z
" id="DejaVuSans-52" transform="scale(0.015625)"/>
       <path d="M 3597 1894 
L 3597 1613 
L 953 1613 
Q 991 1019 1311 708 
Q 1631 397 2203 397 
Q 2534 397 2845 478 
Q 3156 559 3463 722 
L 3463 178 
Q 3153 47 2828 -22 
Q 2503 -91 2169 -91 
Q 1331 -91 842 396 
Q 353 884 353 1716 
Q 353 2575 817 3079 
Q 1281 3584 2069 3584 
Q 2775 3584 3186 3129 
Q 3597 2675 3597 1894 
z
M 3022 2063 
Q 3016 2534 2758 2815 
Q 2500 3097 2075 3097 
Q 1594 3097 1305 2825 
Q 1016 2553 972 2059 
L 3022 2063 
z
" id="DejaVuSans-65" transform="scale(0.015625)"/>
       <path d="M 2834 3397 
L 2834 2853 
Q 2591 2978 2328 3040 
Q 2066 3103 1784 3103 
Q 1356 3103 1142 2972 
Q 928 2841 928 2578 
Q 928 2378 1081 2264 
Q 1234 2150 1697 2047 
L 1894 2003 
Q 2506 1872 2764 1633 
Q 3022 1394 3022 966 
Q 3022 478 2636 193 
Q 2250 -91 1575 -91 
Q 1294 -91 989 -36 
Q 684 19 347 128 
L 347 722 
Q 666 556 975 473 
Q 1284 391 1588 391 
Q 1994 391 2212 530 
Q 2431 669 2431 922 
Q 2431 1156 2273 1281 
Q 2116 1406 1581 1522 
L 1381 1569 
Q 847 1681 609 1914 
Q 372 2147 372 2553 
Q 372 3047 722 3315 
Q 1072 3584 1716 3584 
Q 2034 3584 2315 3537 
Q 2597 3491 2834 3397 
z
" id="DejaVuSans-73" transform="scale(0.015625)"/>
       <path d="M 603 3500 
L 1178 3500 
L 1178 0 
L 603 0 
L 603 3500 
z
M 603 4863 
L 1178 4863 
L 1178 4134 
L 603 4134 
L 603 4863 
z
" id="DejaVuSans-69" transform="scale(0.015625)"/>
       <path d="M 2906 2969 
L 2906 4863 
L 3481 4863 
L 3481 0 
L 2906 0 
L 2906 525 
Q 2725 213 2448 61 
Q 2172 -91 1784 -91 
Q 1150 -91 751 415 
Q 353 922 353 1747 
Q 353 2572 751 3078 
Q 1150 3584 1784 3584 
Q 2172 3584 2448 3432 
Q 2725 3281 2906 2969 
z
M 947 1747 
Q 947 1113 1208 752 
Q 1469 391 1925 391 
Q 2381 391 2643 752 
Q 2906 1113 2906 1747 
Q 2906 2381 2643 2742 
Q 2381 3103 1925 3103 
Q 1469 3103 1208 2742 
Q 947 2381 947 1747 
z
" id="DejaVuSans-64" transform="scale(0.015625)"/>
       <path d="M 3513 2113 
L 3513 0 
L 2938 0 
L 2938 2094 
Q 2938 2591 2744 2837 
Q 2550 3084 2163 3084 
Q 1697 3084 1428 2787 
Q 1159 2491 1159 1978 
L 1159 0 
L 581 0 
L 581 3500 
L 1159 3500 
L 1159 2956 
Q 1366 3272 1645 3428 
Q 1925 3584 2291 3584 
Q 2894 3584 3203 3211 
Q 3513 2838 3513 2113 
z
" id="DejaVuSans-6e" transform="scale(0.015625)"/>
       <path d="M 3122 3366 
L 3122 2828 
Q 2878 2963 2633 3030 
Q 2388 3097 2138 3097 
Q 1578 3097 1268 2742 
Q 959 2388 959 1747 
Q 959 1106 1268 751 
Q 1578 397 2138 397 
Q 2388 397 2633 464 
Q 2878 531 3122 666 
L 3122 134 
Q 2881 22 2623 -34 
Q 2366 -91 2075 -91 
Q 1284 -91 818 406 
Q 353 903 353 1747 
Q 353 2603 823 3093 
Q 1294 3584 2113 3584 
Q 2378 3584 2631 3529 
Q 2884 3475 3122 3366 
z
" id="DejaVuSans-63" transform="scale(0.015625)"/>
       <path id="DejaVuSans-20" transform="scale(0.015625)"/>
       <path d="M 1172 4494 
L 1172 3500 
L 2356 3500 
L 2356 3053 
L 1172 3053 
L 1172 1153 
Q 1172 725 1289 603 
Q 1406 481 1766 481 
L 2356 481 
L 2356 0 
L 1766 0 
Q 1100 0 847 248 
Q 594 497 594 1153 
L 594 3053 
L 172 3053 
L 172 3500 
L 594 3500 
L 594 4494 
L 1172 4494 
z
" id="DejaVuSans-74" transform="scale(0.015625)"/>
       <path d="M 3328 2828 
Q 3544 3216 3844 3400 
Q 4144 3584 4550 3584 
Q 5097 3584 5394 3201 
Q 5691 2819 5691 2113 
L 5691 0 
L 5113 0 
L 5113 2094 
Q 5113 2597 4934 2840 
Q 4756 3084 4391 3084 
Q 3944 3084 3684 2787 
Q 3425 2491 3425 1978 
L 3425 0 
L 2847 0 
L 2847 2094 
Q 2847 2600 2669 2842 
Q 2491 3084 2119 3084 
Q 1678 3084 1418 2786 
Q 1159 2488 1159 1978 
L 1159 0 
L 581 0 
L 581 3500 
L 1159 3500 
L 1159 2956 
Q 1356 3278 1631 3431 
Q 1906 3584 2284 3584 
Q 2666 3584 2933 3390 
Q 3200 3197 3328 2828 
z
" id="DejaVuSans-6d" transform="scale(0.015625)"/>
       <path d="M 1625 4666 
L 2156 4666 
L 531 -594 
L 0 -594 
L 1625 4666 
z
" id="DejaVuSans-2f" transform="scale(0.015625)"/>
      </defs>
      <use xlink:href="#DejaVuSans-52"/>
      <use x="64.982422" xlink:href="#DejaVuSans-65"/>
      <use x="126.505859" xlink:href="#DejaVuSans-73"/>
      <use x="178.605469" xlink:href="#DejaVuSans-69"/>
      <use x="206.388672" xlink:href="#DejaVuSans-64"/>
      <use x="269.865234" xlink:href="#DejaVuSans-65"/>
      <use x="331.388672" xlink:href="#DejaVuSans-6e"/>
      <use x="394.767578" xlink:href="#DejaVuSans-63"/>
      <use x="449.748047" xlink:href="#DejaVuSans-65"/>
      <use x="511.271484" xlink:href="#DejaVuSans-20"/>
      <use x="543.058594" xlink:href="#DejaVuSans-74"/>
      <use x="582.267578" xlink:href="#DejaVuSans-69"/>
      <use x="610.050781" xlink:href="#DejaVuSans-6d"/>
      <use x="707.462891" xlink:href="#DejaVuSans-65"/>
      <use x="768.986328" xlink:href="#DejaVuSans-2f"/>
      <use x="802.677734" xlink:href="#DejaVuSans-20"/>
      <use x="834.464844" xlink:href="#DejaVuSans-73"/>
     </g>
    </g>
   </g>
   <g id="matplotlib.axis_2">
    <g id="ytick_1">
     <g id="line2d_6">
      <defs>
       <path d="M 0 0 
L -2 0 
" id="m9349e7a4d9" style="stroke:#000000;stroke-width:0.8;"/>
      </defs>
      <g>
       <use style="stroke:#000000;stroke-width:0.8;" x="56.592" xlink:href="#m9349e7a4d9" y="152.1"/>
      </g>
     </g>
     <g id="text_7">
      <!-- 0 -->
      <g transform="translate(44.7295 155.899219)scale(0.1 -0.1)">
       <use xlink:href="#DejaVuSans-30"/>
      </g>
     </g>
    </g>
    <g id="ytick_2">
     <g id="line2d_7">
      <g>
       <use style="stroke:#000000;stroke-width:0.8;" x="56.592" xlink:href="#m9349e7a4d9" y="128.164441"/>
      </g>
     </g>
     <g id="text_8">
      <!-- 5 -->
      <g transform="translate(44.7295 131.96366)scale(0.1 -0.1)">
       <use xlink:href="#DejaVuSans-35"/>
      </g>
     </g>
    </g>
    <g id="ytick_3">
     <g id="line2d_8">
      <g>
       <use style="stroke:#000000;stroke-width:0.8;" x="56.592" xlink:href="#m9349e7a4d9" y="104.228883"/>
      </g>
     </g>
     <g id="text_9">
      <!-- 10 -->
      <g transform="translate(38.367 108.028101)scale(0.1 -0.1)">
       <use xlink:href="#DejaVuSans-31"/>
       <use x="63.623047" xlink:href="#DejaVuSans-30"/>
      </g>
     </g>
    </g>
    <g id="ytick_4">
     <g id="line2d_9">
      <g>
       <use style="stroke:#000000;stroke-width:0.8;" x="56.592" xlink:href="#m9349e7a4d9" y="80.293324"/>
      </g>
     </g>
     <g id="text_10">
      <!-- 15 -->
      <g transform="translate(38.367 84.092543)scale(0.1 -0.1)">
       <use xlink:href="#DejaVuSans-31"/>
       <use x="63.623047" xlink:href="#DejaVuSans-35"/>
      </g>
     </g>
    </g>
    <g id="ytick_5">
     <g id="line2d_10">
      <g>
       <use style="stroke:#000000;stroke-width:0.8;" x="56.592" xlink:href="#m9349e7a4d9" y="56.357765"/>
      </g>
     </g>
     <g id="text_11">
      <!-- 20 -->
      <g transform="translate(38.367 60.156984)scale(0.1 -0.1)">
       <use xlink:href="#DejaVuSans-32"/>
       <use x="63.623047" xlink:href="#DejaVuSans-30"/>
      </g>
     </g>
    </g>
    <g id="ytick_6">
     <g id="line2d_11">
      <g>
       <use style="stroke:#000000;stroke-width:0.8;" x="56.592" xlink:href="#m9349e7a4d9" y="32.422206"/>
      </g>
     </g>
     <g id="text_12">
      <!-- 25 -->
      <g transform="translate(38.367 36.221425)scale(0.1 -0.1)">
       <use xlink:href="#DejaVuSans-32"/>
       <use x="63.623047" xlink:href="#DejaVuSans-35"/>
      </g>
     </g>
    </g>
    <g id="text_13">
     <!-- Concentration/ mM -->
     <g transform="translate(32.287313 136.928906)rotate(-90)scale(0.1 -0.1)">
      <defs>
       <path d="M 4122 4306 
L 4122 3641 
Q 3803 3938 3442 4084 
Q 3081 4231 2675 4231 
Q 1875 4231 1450 3742 
Q 1025 3253 1025 2328 
Q 1025 1406 1450 917 
Q 1875 428 2675 428 
Q 3081 428 3442 575 
Q 3803 722 4122 1019 
L 4122 359 
Q 3791 134 3420 21 
Q 3050 -91 2638 -91 
Q 1578 -91 968 557 
Q 359 1206 359 2328 
Q 359 3453 968 4101 
Q 1578 4750 2638 4750 
Q 3056 4750 3426 4639 
Q 3797 4528 4122 4306 
z
" id="DejaVuSans-43" transform="scale(0.015625)"/>
       <path d="M 1959 3097 
Q 1497 3097 1228 2736 
Q 959 2375 959 1747 
Q 959 1119 1226 758 
Q 1494 397 1959 397 
Q 2419 397 2687 759 
Q 2956 1122 2956 1747 
Q 2956 2369 2687 2733 
Q 2419 3097 1959 3097 
z
M 1959 3584 
Q 2709 3584 3137 3096 
Q 3566 2609 3566 1747 
Q 3566 888 3137 398 
Q 2709 -91 1959 -91 
Q 1206 -91 779 398 
Q 353 888 353 1747 
Q 353 2609 779 3096 
Q 1206 3584 1959 3584 
z
" id="DejaVuSans-6f" transform="scale(0.015625)"/>
       <path d="M 2631 2963 
Q 2534 3019 2420 3045 
Q 2306 3072 2169 3072 
Q 1681 3072 1420 2755 
Q 1159 2438 1159 1844 
L 1159 0 
L 581 0 
L 581 3500 
L 1159 3500 
L 1159 2956 
Q 1341 3275 1631 3429 
Q 1922 3584 2338 3584 
Q 2397 3584 2469 3576 
Q 2541 3569 2628 3553 
L 2631 2963 
z
" id="DejaVuSans-72" transform="scale(0.015625)"/>
       <path d="M 2194 1759 
Q 1497 1759 1228 1600 
Q 959 1441 959 1056 
Q 959 750 1161 570 
Q 1363 391 1709 391 
Q 2188 391 2477 730 
Q 2766 1069 2766 1631 
L 2766 1759 
L 2194 1759 
z
M 3341 1997 
L 3341 0 
L 2766 0 
L 2766 531 
Q 2569 213 2275 61 
Q 1981 -91 1556 -91 
Q 1019 -91 701 211 
Q 384 513 384 1019 
Q 384 1609 779 1909 
Q 1175 2209 1959 2209 
L 2766 2209 
L 2766 2266 
Q 2766 2663 2505 2880 
Q 2244 3097 1772 3097 
Q 1472 3097 1187 3025 
Q 903 2953 641 2809 
L 641 3341 
Q 956 3463 1253 3523 
Q 1550 3584 1831 3584 
Q 2591 3584 2966 3190 
Q 3341 2797 3341 1997 
z
" id="DejaVuSans-61" transform="scale(0.015625)"/>
       <path d="M 628 4666 
L 1569 4666 
L 2759 1491 
L 3956 4666 
L 4897 4666 
L 4897 0 
L 4281 0 
L 4281 4097 
L 3078 897 
L 2444 897 
L 1241 4097 
L 1241 0 
L 628 0 
L 628 4666 
z
" id="DejaVuSans-4d" transform="scale(0.015625)"/>
      </defs>
      <use xlink:href="#DejaVuSans-43"/>
      <use x="69.824219" xlink:href="#DejaVuSans-6f"/>
      <use x="131.005859" xlink:href="#DejaVuSans-6e"/>
      <use x="194.384766" xlink:href="#DejaVuSans-63"/>
      <use x="249.365234" xlink:href="#DejaVuSans-65"/>
      <use x="310.888672" xlink:href="#DejaVuSans-6e"/>
      <use x="374.267578" xlink:href="#DejaVuSans-74"/>
      <use x="413.476562" xlink:href="#DejaVuSans-72"/>
      <use x="454.589844" xlink:href="#DejaVuSans-61"/>
      <use x="515.869141" xlink:href="#DejaVuSans-74"/>
      <use x="555.078125" xlink:href="#DejaVuSans-69"/>
      <use x="582.861328" xlink:href="#DejaVuSans-6f"/>
      <use x="644.042969" xlink:href="#DejaVuSans-6e"/>
      <use x="707.421875" xlink:href="#DejaVuSans-2f"/>
      <use x="741.113281" xlink:href="#DejaVuSans-20"/>
      <use x="772.900391" xlink:href="#DejaVuSans-6d"/>
      <use x="870.3125" xlink:href="#DejaVuSans-4d"/>
     </g>
    </g>
   </g>
   <g id="patch_3">
    <path d="M 56.592 158.4 
L 56.592 19.8 
" style="fill:none;stroke:#000000;stroke-linecap:square;stroke-linejoin:miter;stroke-width:0.8;"/>
   </g>
   <g id="patch_4">
    <path d="M 254.664 158.4 
L 254.664 19.8 
" style="fill:none;stroke:#000000;stroke-linecap:square;stroke-linejoin:miter;stroke-width:0.8;"/>
   </g>
   <g id="patch_5">
    <path d="M 56.592 158.4 
L 254.664 158.4 
" style="fill:none;stroke:#000000;stroke-linecap:square;stroke-linejoin:miter;stroke-width:0.8;"/>
   </g>
   <g id="patch_6">
    <path d="M 56.592 19.8 
L 254.664 19.8 
" style="fill:none;stroke:#000000;stroke-linecap:square;stroke-linejoin:miter;stroke-width:0.8;"/>
   </g>
   <g id="line2d_12">
    <path clip-path="url(#p4b239bd75f)" d="M 65.595273 152.1 
L 91.318909 152.004284 
L 142.766182 149.341693 
L 245.660727 151.728282 
" style="fill:none;stroke:#6ef1c9;stroke-linecap:square;stroke-width:1.5;"/>
    <defs>
     <path d="M 0 2.5 
C 0.663008 2.5 1.29895 2.236584 1.767767 1.767767 
C 2.236584 1.29895 2.5 0.663008 2.5 0 
C 2.5 -0.663008 2.236584 -1.29895 1.767767 -1.767767 
C 1.29895 -2.236584 0.663008 -2.5 0 -2.5 
C -0.663008 -2.5 -1.29895 -2.236584 -1.767767 -1.767767 
C -2.236584 -1.29895 -2.5 -0.663008 -2.5 0 
C -2.5 0.663008 -2.236584 1.29895 -1.767767 1.767767 
C -1.29895 2.236584 -0.663008 2.5 0 2.5 
z
" id="m6a522a4c54" style="stroke:#6ef1c9;"/>
    </defs>
    <g clip-path="url(#p4b239bd75f)">
     <use style="fill:#6ef1c9;stroke:#6ef1c9;" x="65.595273" xlink:href="#m6a522a4c54" y="152.1"/>
     <use style="fill:#6ef1c9;stroke:#6ef1c9;" x="91.318909" xlink:href="#m6a522a4c54" y="152.004284"/>
     <use style="fill:#6ef1c9;stroke:#6ef1c9;" x="142.766182" xlink:href="#m6a522a4c54" y="149.341693"/>
     <use style="fill:#6ef1c9;stroke:#6ef1c9;" x="245.660727" xlink:href="#m6a522a4c54" y="151.728282"/>
    </g>
   </g>
   <g id="line2d_13">
    <path clip-path="url(#p4b239bd75f)" d="M 65.595273 151.900862 
L 91.318909 131.715684 
L 142.766182 148.372384 
L 245.660727 149.316689 
" style="fill:none;stroke:#6ef1c9;stroke-linecap:square;stroke-width:1.5;"/>
    <g clip-path="url(#p4b239bd75f)">
     <use style="fill:#6ef1c9;stroke:#6ef1c9;" x="65.595273" xlink:href="#m6a522a4c54" y="151.900862"/>
     <use style="fill:#6ef1c9;stroke:#6ef1c9;" x="91.318909" xlink:href="#m6a522a4c54" y="131.715684"/>
     <use style="fill:#6ef1c9;stroke:#6ef1c9;" x="142.766182" xlink:href="#m6a522a4c54" y="148.372384"/>
     <use style="fill:#6ef1c9;stroke:#6ef1c9;" x="245.660727" xlink:href="#m6a522a4c54" y="149.316689"/>
    </g>
   </g>
   <g id="line2d_14">
    <path clip-path="url(#p4b239bd75f)" d="M 65.595273 146.607311 
L 91.318909 128.345381 
L 142.766182 129.534554 
L 245.660727 138.523403 
" style="fill:none;stroke:#6ef1c9;stroke-linecap:square;stroke-width:1.5;"/>
    <g clip-path="url(#p4b239bd75f)">
     <use style="fill:#6ef1c9;stroke:#6ef1c9;" x="65.595273" xlink:href="#m6a522a4c54" y="146.607311"/>
     <use style="fill:#6ef1c9;stroke:#6ef1c9;" x="91.318909" xlink:href="#m6a522a4c54" y="128.345381"/>
     <use style="fill:#6ef1c9;stroke:#6ef1c9;" x="142.766182" xlink:href="#m6a522a4c54" y="129.534554"/>
     <use style="fill:#6ef1c9;stroke:#6ef1c9;" x="245.660727" xlink:href="#m6a522a4c54" y="138.523403"/>
    </g>
   </g>
   <g id="line2d_15">
    <path clip-path="url(#p4b239bd75f)" d="M 65.595273 148.490947 
L 91.318909 149.636956 
L 142.766182 142.430782 
L 245.660727 147.213773 
" style="fill:none;stroke:#428317;stroke-linecap:square;stroke-width:1.5;"/>
    <defs>
     <path d="M 0 2.5 
C 0.663008 2.5 1.29895 2.236584 1.767767 1.767767 
C 2.236584 1.29895 2.5 0.663008 2.5 0 
C 2.5 -0.663008 2.236584 -1.29895 1.767767 -1.767767 
C 1.29895 -2.236584 0.663008 -2.5 0 -2.5 
C -0.663008 -2.5 -1.29895 -2.236584 -1.767767 -1.767767 
C -2.236584 -1.29895 -2.5 -0.663008 -2.5 0 
C -2.5 0.663008 -2.236584 1.29895 -1.767767 1.767767 
C -1.29895 2.236584 -0.663008 2.5 0 2.5 
z
" id="m36ab38f849" style="stroke:#428317;"/>
    </defs>
    <g clip-path="url(#p4b239bd75f)">
     <use style="fill:#428317;stroke:#428317;" x="65.595273" xlink:href="#m36ab38f849" y="148.490947"/>
     <use style="fill:#428317;stroke:#428317;" x="91.318909" xlink:href="#m36ab38f849" y="149.636956"/>
     <use style="fill:#428317;stroke:#428317;" x="142.766182" xlink:href="#m36ab38f849" y="142.430782"/>
     <use style="fill:#428317;stroke:#428317;" x="245.660727" xlink:href="#m36ab38f849" y="147.213773"/>
    </g>
   </g>
   <g id="line2d_16">
    <path clip-path="url(#p4b239bd75f)" d="M 65.595273 151.216125 
L 91.318909 122.615765 
L 142.766182 150.654875 
L 245.660727 140.290426 
" style="fill:none;stroke:#428317;stroke-linecap:square;stroke-width:1.5;"/>
    <g clip-path="url(#p4b239bd75f)">
     <use style="fill:#428317;stroke:#428317;" x="65.595273" xlink:href="#m36ab38f849" y="151.216125"/>
     <use style="fill:#428317;stroke:#428317;" x="91.318909" xlink:href="#m36ab38f849" y="122.615765"/>
     <use style="fill:#428317;stroke:#428317;" x="142.766182" xlink:href="#m36ab38f849" y="150.654875"/>
     <use style="fill:#428317;stroke:#428317;" x="245.660727" xlink:href="#m36ab38f849" y="140.290426"/>
    </g>
   </g>
   <g id="line2d_17">
    <path clip-path="url(#p4b239bd75f)" d="M 65.595273 146.579284 
L 91.318909 146.911513 
L 142.766182 148.985231 
L 245.660727 146.7987 
" style="fill:none;stroke:#428317;stroke-linecap:square;stroke-width:1.5;"/>
    <g clip-path="url(#p4b239bd75f)">
     <use style="fill:#428317;stroke:#428317;" x="65.595273" xlink:href="#m36ab38f849" y="146.579284"/>
     <use style="fill:#428317;stroke:#428317;" x="91.318909" xlink:href="#m36ab38f849" y="146.911513"/>
     <use style="fill:#428317;stroke:#428317;" x="142.766182" xlink:href="#m36ab38f849" y="148.985231"/>
     <use style="fill:#428317;stroke:#428317;" x="245.660727" xlink:href="#m36ab38f849" y="146.7987"/>
    </g>
   </g>
   <g id="line2d_18">
    <path clip-path="url(#p4b239bd75f)" d="M 65.595273 151.258291 
L 91.318909 151.701889 
L 142.766182 151.398709 
L 245.660727 150.002411 
" style="fill:none;stroke:#106832;stroke-linecap:square;stroke-width:1.5;"/>
    <defs>
     <path d="M 0 2.5 
C 0.663008 2.5 1.29895 2.236584 1.767767 1.767767 
C 2.236584 1.29895 2.5 0.663008 2.5 0 
C 2.5 -0.663008 2.236584 -1.29895 1.767767 -1.767767 
C 1.29895 -2.236584 0.663008 -2.5 0 -2.5 
C -0.663008 -2.5 -1.29895 -2.236584 -1.767767 -1.767767 
C -2.236584 -1.29895 -2.5 -0.663008 -2.5 0 
C -2.5 0.663008 -2.236584 1.29895 -1.767767 1.767767 
C -1.29895 2.236584 -0.663008 2.5 0 2.5 
z
" id="mcb90f32a7e" style="stroke:#106832;"/>
    </defs>
    <g clip-path="url(#p4b239bd75f)">
     <use style="fill:#106832;stroke:#106832;" x="65.595273" xlink:href="#mcb90f32a7e" y="151.258291"/>
     <use style="fill:#106832;stroke:#106832;" x="91.318909" xlink:href="#mcb90f32a7e" y="151.701889"/>
     <use style="fill:#106832;stroke:#106832;" x="142.766182" xlink:href="#mcb90f32a7e" y="151.398709"/>
     <use style="fill:#106832;stroke:#106832;" x="245.660727" xlink:href="#mcb90f32a7e" y="150.002411"/>
    </g>
   </g>
   <g id="line2d_19">
    <path clip-path="url(#p4b239bd75f)" d="M 65.595273 147.572451 
L 91.318909 149.501041 
L 142.766182 148.070118 
L 245.660727 140.818861 
" style="fill:none;stroke:#51a778;stroke-linecap:square;stroke-width:1.5;"/>
    <defs>
     <path d="M 0 2.5 
C 0.663008 2.5 1.29895 2.236584 1.767767 1.767767 
C 2.236584 1.29895 2.5 0.663008 2.5 0 
C 2.5 -0.663008 2.236584 -1.29895 1.767767 -1.767767 
C 1.29895 -2.236584 0.663008 -2.5 0 -2.5 
C -0.663008 -2.5 -1.29895 -2.236584 -1.767767 -1.767767 
C -2.236584 -1.29895 -2.5 -0.663008 -2.5 0 
C -2.5 0.663008 -2.236584 1.29895 -1.767767 1.767767 
C -1.29895 2.236584 -0.663008 2.5 0 2.5 
z
" id="m20b0da3a67" style="stroke:#51a778;"/>
    </defs>
    <g clip-path="url(#p4b239bd75f)">
     <use style="fill:#51a778;stroke:#51a778;" x="65.595273" xlink:href="#m20b0da3a67" y="147.572451"/>
     <use style="fill:#51a778;stroke:#51a778;" x="91.318909" xlink:href="#m20b0da3a67" y="149.501041"/>
     <use style="fill:#51a778;stroke:#51a778;" x="142.766182" xlink:href="#m20b0da3a67" y="148.070118"/>
     <use style="fill:#51a778;stroke:#51a778;" x="245.660727" xlink:href="#m20b0da3a67" y="140.818861"/>
    </g>
   </g>
   <g id="line2d_20">
    <path clip-path="url(#p4b239bd75f)" d="M 65.595273 152.1 
L 91.318909 152.1 
L 142.766182 152.1 
L 245.660727 152.082192 
" style="fill:none;stroke:#0ec460;stroke-linecap:square;stroke-width:1.5;"/>
    <defs>
     <path d="M 0 2.5 
C 0.663008 2.5 1.29895 2.236584 1.767767 1.767767 
C 2.236584 1.29895 2.5 0.663008 2.5 0 
C 2.5 -0.663008 2.236584 -1.29895 1.767767 -1.767767 
C 1.29895 -2.236584 0.663008 -2.5 0 -2.5 
C -0.663008 -2.5 -1.29895 -2.236584 -1.767767 -1.767767 
C -2.236584 -1.29895 -2.5 -0.663008 -2.5 0 
C -2.5 0.663008 -2.236584 1.29895 -1.767767 1.767767 
C -1.29895 2.236584 -0.663008 2.5 0 2.5 
z
" id="m64019ccc4a" style="stroke:#0ec460;"/>
    </defs>
    <g clip-path="url(#p4b239bd75f)">
     <use style="fill:#0ec460;stroke:#0ec460;" x="65.595273" xlink:href="#m64019ccc4a" y="152.1"/>
     <use style="fill:#0ec460;stroke:#0ec460;" x="91.318909" xlink:href="#m64019ccc4a" y="152.1"/>
     <use style="fill:#0ec460;stroke:#0ec460;" x="142.766182" xlink:href="#m64019ccc4a" y="152.1"/>
     <use style="fill:#0ec460;stroke:#0ec460;" x="245.660727" xlink:href="#m64019ccc4a" y="152.082192"/>
    </g>
   </g>
   <g id="line2d_21">
    <path clip-path="url(#p4b239bd75f)" d="M 65.595273 144.420582 
L 91.318909 149.19561 
L 142.766182 150.089517 
L 245.660727 145.278749 
" style="fill:none;stroke:#a3604b;stroke-linecap:square;stroke-width:1.5;"/>
    <defs>
     <path d="M 0 2.5 
C 0.663008 2.5 1.29895 2.236584 1.767767 1.767767 
C 2.236584 1.29895 2.5 0.663008 2.5 0 
C 2.5 -0.663008 2.236584 -1.29895 1.767767 -1.767767 
C 1.29895 -2.236584 0.663008 -2.5 0 -2.5 
C -0.663008 -2.5 -1.29895 -2.236584 -1.767767 -1.767767 
C -2.236584 -1.29895 -2.5 -0.663008 -2.5 0 
C -2.5 0.663008 -2.236584 1.29895 -1.767767 1.767767 
C -1.29895 2.236584 -0.663008 2.5 0 2.5 
z
" id="m4652528044" style="stroke:#a3604b;"/>
    </defs>
    <g clip-path="url(#p4b239bd75f)">
     <use style="fill:#a3604b;stroke:#a3604b;" x="65.595273" xlink:href="#m4652528044" y="144.420582"/>
     <use style="fill:#a3604b;stroke:#a3604b;" x="91.318909" xlink:href="#m4652528044" y="149.19561"/>
     <use style="fill:#a3604b;stroke:#a3604b;" x="142.766182" xlink:href="#m4652528044" y="150.089517"/>
     <use style="fill:#a3604b;stroke:#a3604b;" x="245.660727" xlink:href="#m4652528044" y="145.278749"/>
    </g>
   </g>
   <g id="line2d_22">
    <path clip-path="url(#p4b239bd75f)" d="M 65.595273 148.775298 
L 91.318909 149.149501 
L 142.766182 149.580589 
L 245.660727 150.681347 
" style="fill:none;stroke:#a3604b;stroke-linecap:square;stroke-width:1.5;"/>
    <g clip-path="url(#p4b239bd75f)">
     <use style="fill:#a3604b;stroke:#a3604b;" x="65.595273" xlink:href="#m4652528044" y="148.775298"/>
     <use style="fill:#a3604b;stroke:#a3604b;" x="91.318909" xlink:href="#m4652528044" y="149.149501"/>
     <use style="fill:#a3604b;stroke:#a3604b;" x="142.766182" xlink:href="#m4652528044" y="149.580589"/>
     <use style="fill:#a3604b;stroke:#a3604b;" x="245.660727" xlink:href="#m4652528044" y="150.681347"/>
    </g>
   </g>
   <g id="line2d_23">
    <path clip-path="url(#p4b239bd75f)" d="M 65.595273 142.831618 
L 91.318909 136.562616 
L 142.766182 122.728968 
L 245.660727 132.233073 
" style="fill:none;stroke:#f53f06;stroke-linecap:square;stroke-width:1.5;"/>
    <defs>
     <path d="M 0 2.5 
C 0.663008 2.5 1.29895 2.236584 1.767767 1.767767 
C 2.236584 1.29895 2.5 0.663008 2.5 0 
C 2.5 -0.663008 2.236584 -1.29895 1.767767 -1.767767 
C 1.29895 -2.236584 0.663008 -2.5 0 -2.5 
C -0.663008 -2.5 -1.29895 -2.236584 -1.767767 -1.767767 
C -2.236584 -1.29895 -2.5 -0.663008 -2.5 0 
C -2.5 0.663008 -2.236584 1.29895 -1.767767 1.767767 
C -1.29895 2.236584 -0.663008 2.5 0 2.5 
z
" id="m14fe8ef997" style="stroke:#f53f06;"/>
    </defs>
    <g clip-path="url(#p4b239bd75f)">
     <use style="fill:#f53f06;stroke:#f53f06;" x="65.595273" xlink:href="#m14fe8ef997" y="142.831618"/>
     <use style="fill:#f53f06;stroke:#f53f06;" x="91.318909" xlink:href="#m14fe8ef997" y="136.562616"/>
     <use style="fill:#f53f06;stroke:#f53f06;" x="142.766182" xlink:href="#m14fe8ef997" y="122.728968"/>
     <use style="fill:#f53f06;stroke:#f53f06;" x="245.660727" xlink:href="#m14fe8ef997" y="132.233073"/>
    </g>
   </g>
   <g id="line2d_24">
    <path clip-path="url(#p4b239bd75f)" d="M 65.595273 129.739758 
L 91.318909 124.630574 
L 142.766182 147.538048 
L 245.660727 140.780725 
" style="fill:none;stroke:#771124;stroke-linecap:square;stroke-width:1.5;"/>
    <defs>
     <path d="M 0 2.5 
C 0.663008 2.5 1.29895 2.236584 1.767767 1.767767 
C 2.236584 1.29895 2.5 0.663008 2.5 0 
C 2.5 -0.663008 2.236584 -1.29895 1.767767 -1.767767 
C 1.29895 -2.236584 0.663008 -2.5 0 -2.5 
C -0.663008 -2.5 -1.29895 -2.236584 -1.767767 -1.767767 
C -2.236584 -1.29895 -2.5 -0.663008 -2.5 0 
C -2.5 0.663008 -2.236584 1.29895 -1.767767 1.767767 
C -1.29895 2.236584 -0.663008 2.5 0 2.5 
z
" id="me76400986a" style="stroke:#771124;"/>
    </defs>
    <g clip-path="url(#p4b239bd75f)">
     <use style="fill:#771124;stroke:#771124;" x="65.595273" xlink:href="#me76400986a" y="129.739758"/>
     <use style="fill:#771124;stroke:#771124;" x="91.318909" xlink:href="#me76400986a" y="124.630574"/>
     <use style="fill:#771124;stroke:#771124;" x="142.766182" xlink:href="#me76400986a" y="147.538048"/>
     <use style="fill:#771124;stroke:#771124;" x="245.660727" xlink:href="#me76400986a" y="140.780725"/>
    </g>
   </g>
   <g id="line2d_25">
    <path clip-path="url(#p4b239bd75f)" d="M 65.595273 132.117837 
L 91.318909 126.839106 
L 142.766182 122.472241 
L 245.660727 125.786061 
" style="fill:none;stroke:#eeb29f;stroke-linecap:square;stroke-width:1.5;"/>
    <defs>
     <path d="M 0 2.5 
C 0.663008 2.5 1.29895 2.236584 1.767767 1.767767 
C 2.236584 1.29895 2.5 0.663008 2.5 0 
C 2.5 -0.663008 2.236584 -1.29895 1.767767 -1.767767 
C 1.29895 -2.236584 0.663008 -2.5 0 -2.5 
C -0.663008 -2.5 -1.29895 -2.236584 -1.767767 -1.767767 
C -2.236584 -1.29895 -2.5 -0.663008 -2.5 0 
C -2.5 0.663008 -2.236584 1.29895 -1.767767 1.767767 
C -1.29895 2.236584 -0.663008 2.5 0 2.5 
z
" id="mfa636bc8d0" style="stroke:#eeb29f;"/>
    </defs>
    <g clip-path="url(#p4b239bd75f)">
     <use style="fill:#eeb29f;stroke:#eeb29f;" x="65.595273" xlink:href="#mfa636bc8d0" y="132.117837"/>
     <use style="fill:#eeb29f;stroke:#eeb29f;" x="91.318909" xlink:href="#mfa636bc8d0" y="126.839106"/>
     <use style="fill:#eeb29f;stroke:#eeb29f;" x="142.766182" xlink:href="#mfa636bc8d0" y="122.472241"/>
     <use style="fill:#eeb29f;stroke:#eeb29f;" x="245.660727" xlink:href="#mfa636bc8d0" y="125.786061"/>
    </g>
   </g>
   <g id="line2d_26">
    <path clip-path="url(#p4b239bd75f)" d="M 65.595273 143.360461 
L 91.318909 152.1 
L 142.766182 152.1 
L 245.660727 151.404985 
" style="fill:none;stroke:#eeb29f;stroke-linecap:square;stroke-width:1.5;"/>
    <g clip-path="url(#p4b239bd75f)">
     <use style="fill:#eeb29f;stroke:#eeb29f;" x="65.595273" xlink:href="#mfa636bc8d0" y="143.360461"/>
     <use style="fill:#eeb29f;stroke:#eeb29f;" x="91.318909" xlink:href="#mfa636bc8d0" y="152.1"/>
     <use style="fill:#eeb29f;stroke:#eeb29f;" x="142.766182" xlink:href="#mfa636bc8d0" y="152.1"/>
     <use style="fill:#eeb29f;stroke:#eeb29f;" x="245.660727" xlink:href="#mfa636bc8d0" y="151.404985"/>
    </g>
   </g>
   <g id="line2d_27">
    <path clip-path="url(#p4b239bd75f)" d="M 65.595273 152.061199 
L 91.318909 152.057302 
L 142.766182 152.013504 
L 245.660727 152.025405 
" style="fill:none;stroke:#d0d1df;stroke-linecap:square;stroke-width:1.5;"/>
    <defs>
     <path d="M 0 2.5 
C 0.663008 2.5 1.29895 2.236584 1.767767 1.767767 
C 2.236584 1.29895 2.5 0.663008 2.5 0 
C 2.5 -0.663008 2.236584 -1.29895 1.767767 -1.767767 
C 1.29895 -2.236584 0.663008 -2.5 0 -2.5 
C -0.663008 -2.5 -1.29895 -2.236584 -1.767767 -1.767767 
C -2.236584 -1.29895 -2.5 -0.663008 -2.5 0 
C -2.5 0.663008 -2.236584 1.29895 -1.767767 1.767767 
C -1.29895 2.236584 -0.663008 2.5 0 2.5 
z
" id="md70671486e" style="stroke:#d0d1df;"/>
    </defs>
    <g clip-path="url(#p4b239bd75f)">
     <use style="fill:#d0d1df;stroke:#d0d1df;" x="65.595273" xlink:href="#md70671486e" y="152.061199"/>
     <use style="fill:#d0d1df;stroke:#d0d1df;" x="91.318909" xlink:href="#md70671486e" y="152.057302"/>
     <use style="fill:#d0d1df;stroke:#d0d1df;" x="142.766182" xlink:href="#md70671486e" y="152.013504"/>
     <use style="fill:#d0d1df;stroke:#d0d1df;" x="245.660727" xlink:href="#md70671486e" y="152.025405"/>
    </g>
   </g>
   <g id="line2d_28">
    <path clip-path="url(#p4b239bd75f)" d="M 65.595273 149.071148 
L 91.318909 148.669302 
L 142.766182 150.912983 
L 245.660727 150.185596 
" style="fill:none;stroke:#e0e3e1;stroke-linecap:square;stroke-width:1.5;"/>
    <defs>
     <path d="M 0 2.5 
C 0.663008 2.5 1.29895 2.236584 1.767767 1.767767 
C 2.236584 1.29895 2.5 0.663008 2.5 0 
C 2.5 -0.663008 2.236584 -1.29895 1.767767 -1.767767 
C 1.29895 -2.236584 0.663008 -2.5 0 -2.5 
C -0.663008 -2.5 -1.29895 -2.236584 -1.767767 -1.767767 
C -2.236584 -1.29895 -2.5 -0.663008 -2.5 0 
C -2.5 0.663008 -2.236584 1.29895 -1.767767 1.767767 
C -1.29895 2.236584 -0.663008 2.5 0 2.5 
z
" id="m97e314f865" style="stroke:#e0e3e1;"/>
    </defs>
    <g clip-path="url(#p4b239bd75f)">
     <use style="fill:#e0e3e1;stroke:#e0e3e1;" x="65.595273" xlink:href="#m97e314f865" y="149.071148"/>
     <use style="fill:#e0e3e1;stroke:#e0e3e1;" x="91.318909" xlink:href="#m97e314f865" y="148.669302"/>
     <use style="fill:#e0e3e1;stroke:#e0e3e1;" x="142.766182" xlink:href="#m97e314f865" y="150.912983"/>
     <use style="fill:#e0e3e1;stroke:#e0e3e1;" x="245.660727" xlink:href="#m97e314f865" y="150.185596"/>
    </g>
   </g>
   <g id="line2d_29">
    <path clip-path="url(#p4b239bd75f)" d="M 65.595273 143.385842 
L 91.318909 148.0583 
L 142.766182 135.796022 
L 245.660727 137.8457 
" style="fill:none;stroke:#e0e3e1;stroke-linecap:square;stroke-width:1.5;"/>
    <g clip-path="url(#p4b239bd75f)">
     <use style="fill:#e0e3e1;stroke:#e0e3e1;" x="65.595273" xlink:href="#m97e314f865" y="143.385842"/>
     <use style="fill:#e0e3e1;stroke:#e0e3e1;" x="91.318909" xlink:href="#m97e314f865" y="148.0583"/>
     <use style="fill:#e0e3e1;stroke:#e0e3e1;" x="142.766182" xlink:href="#m97e314f865" y="135.796022"/>
     <use style="fill:#e0e3e1;stroke:#e0e3e1;" x="245.660727" xlink:href="#m97e314f865" y="137.8457"/>
    </g>
   </g>
   <g id="line2d_30">
    <path clip-path="url(#p4b239bd75f)" d="M 65.595273 34.318653 
L 91.318909 68.026857 
L 142.766182 41.579441 
L 245.660727 26.1 
" style="fill:none;stroke:#44aaaa;stroke-linecap:square;stroke-width:1.5;"/>
    <defs>
     <path d="M 0 2.5 
C 0.663008 2.5 1.29895 2.236584 1.767767 1.767767 
C 2.236584 1.29895 2.5 0.663008 2.5 0 
C 2.5 -0.663008 2.236584 -1.29895 1.767767 -1.767767 
C 1.29895 -2.236584 0.663008 -2.5 0 -2.5 
C -0.663008 -2.5 -1.29895 -2.236584 -1.767767 -1.767767 
C -2.236584 -1.29895 -2.5 -0.663008 -2.5 0 
C -2.5 0.663008 -2.236584 1.29895 -1.767767 1.767767 
C -1.29895 2.236584 -0.663008 2.5 0 2.5 
z
" id="m24b26c8f09" style="stroke:#44aaaa;"/>
    </defs>
    <g clip-path="url(#p4b239bd75f)">
     <use style="fill:#44aaaa;stroke:#44aaaa;" x="65.595273" xlink:href="#m24b26c8f09" y="34.318653"/>
     <use style="fill:#44aaaa;stroke:#44aaaa;" x="91.318909" xlink:href="#m24b26c8f09" y="68.026857"/>
     <use style="fill:#44aaaa;stroke:#44aaaa;" x="142.766182" xlink:href="#m24b26c8f09" y="41.579441"/>
     <use style="fill:#44aaaa;stroke:#44aaaa;" x="245.660727" xlink:href="#m24b26c8f09" y="26.1"/>
    </g>
   </g>
   <g id="line2d_31">
    <path clip-path="url(#p4b239bd75f)" d="M 65.595273 151.746283 
L 91.318909 151.997689 
L 142.766182 151.977828 
L 245.660727 151.786157 
" style="fill:none;stroke:#77aadd;stroke-linecap:square;stroke-width:1.5;"/>
    <defs>
     <path d="M 0 2.5 
C 0.663008 2.5 1.29895 2.236584 1.767767 1.767767 
C 2.236584 1.29895 2.5 0.663008 2.5 0 
C 2.5 -0.663008 2.236584 -1.29895 1.767767 -1.767767 
C 1.29895 -2.236584 0.663008 -2.5 0 -2.5 
C -0.663008 -2.5 -1.29895 -2.236584 -1.767767 -1.767767 
C -2.236584 -1.29895 -2.5 -0.663008 -2.5 0 
C -2.5 0.663008 -2.236584 1.29895 -1.767767 1.767767 
C -1.29895 2.236584 -0.663008 2.5 0 2.5 
z
" id="m272f1d508e" style="stroke:#77aadd;"/>
    </defs>
    <g clip-path="url(#p4b239bd75f)">
     <use style="fill:#77aadd;stroke:#77aadd;" x="65.595273" xlink:href="#m272f1d508e" y="151.746283"/>
     <use style="fill:#77aadd;stroke:#77aadd;" x="91.318909" xlink:href="#m272f1d508e" y="151.997689"/>
     <use style="fill:#77aadd;stroke:#77aadd;" x="142.766182" xlink:href="#m272f1d508e" y="151.977828"/>
     <use style="fill:#77aadd;stroke:#77aadd;" x="245.660727" xlink:href="#m272f1d508e" y="151.786157"/>
    </g>
   </g>
   <g id="line2d_32">
    <path clip-path="url(#p4b239bd75f)" d="M 65.595273 146.780274 
L 91.318909 144.017526 
L 142.766182 151.088086 
L 245.660727 150.113558 
" style="fill:none;stroke:#117777;stroke-linecap:square;stroke-width:1.5;"/>
    <defs>
     <path d="M 0 2.5 
C 0.663008 2.5 1.29895 2.236584 1.767767 1.767767 
C 2.236584 1.29895 2.5 0.663008 2.5 0 
C 2.5 -0.663008 2.236584 -1.29895 1.767767 -1.767767 
C 1.29895 -2.236584 0.663008 -2.5 0 -2.5 
C -0.663008 -2.5 -1.29895 -2.236584 -1.767767 -1.767767 
C -2.236584 -1.29895 -2.5 -0.663008 -2.5 0 
C -2.5 0.663008 -2.236584 1.29895 -1.767767 1.767767 
C -1.29895 2.236584 -0.663008 2.5 0 2.5 
z
" id="maa5a43db5e" style="stroke:#117777;"/>
    </defs>
    <g clip-path="url(#p4b239bd75f)">
     <use style="fill:#117777;stroke:#117777;" x="65.595273" xlink:href="#maa5a43db5e" y="146.780274"/>
     <use style="fill:#117777;stroke:#117777;" x="91.318909" xlink:href="#maa5a43db5e" y="144.017526"/>
     <use style="fill:#117777;stroke:#117777;" x="142.766182" xlink:href="#maa5a43db5e" y="151.088086"/>
     <use style="fill:#117777;stroke:#117777;" x="245.660727" xlink:href="#maa5a43db5e" y="150.113558"/>
    </g>
   </g>
   <g id="line2d_33">
    <path clip-path="url(#p4b239bd75f)" d="M 65.595273 152.1 
L 91.318909 138.931502 
L 142.766182 152.1 
L 245.660727 152.1 
" style="fill:none;stroke:#525fb7;stroke-linecap:square;stroke-width:1.5;"/>
    <defs>
     <path d="M 0 2.5 
C 0.663008 2.5 1.29895 2.236584 1.767767 1.767767 
C 2.236584 1.29895 2.5 0.663008 2.5 0 
C 2.5 -0.663008 2.236584 -1.29895 1.767767 -1.767767 
C 1.29895 -2.236584 0.663008 -2.5 0 -2.5 
C -0.663008 -2.5 -1.29895 -2.236584 -1.767767 -1.767767 
C -2.236584 -1.29895 -2.5 -0.663008 -2.5 0 
C -2.5 0.663008 -2.236584 1.29895 -1.767767 1.767767 
C -1.29895 2.236584 -0.663008 2.5 0 2.5 
z
" id="m387895cfbd" style="stroke:#525fb7;"/>
    </defs>
    <g clip-path="url(#p4b239bd75f)">
     <use style="fill:#525fb7;stroke:#525fb7;" x="65.595273" xlink:href="#m387895cfbd" y="152.1"/>
     <use style="fill:#525fb7;stroke:#525fb7;" x="91.318909" xlink:href="#m387895cfbd" y="138.931502"/>
     <use style="fill:#525fb7;stroke:#525fb7;" x="142.766182" xlink:href="#m387895cfbd" y="152.1"/>
     <use style="fill:#525fb7;stroke:#525fb7;" x="245.660727" xlink:href="#m387895cfbd" y="152.1"/>
    </g>
   </g>
  </g>
 </g>
 <defs>
  <clipPath id="p4b239bd75f">
   <rect height="138.6" width="198.072" x="56.592" y="19.8"/>
  </clipPath>
 </defs>
</svg>
