<?xml version="1.0" encoding="utf-8" standalone="no"?>
<!DOCTYPE svg PUBLIC "-//W3C//DTD SVG 1.1//EN"
  "http://www.w3.org/Graphics/SVG/1.1/DTD/svg11.dtd">
<svg height="198.425197pt" version="1.1" viewBox="0 0 283.464567 198.425197" width="283.464567pt" xmlns="http://www.w3.org/2000/svg" xmlns:xlink="http://www.w3.org/1999/xlink">
 <metadata>
  <rdf:RDF xmlns:cc="http://creativecommons.org/ns#" xmlns:dc="http://purl.org/dc/elements/1.1/" xmlns:rdf="http://www.w3.org/1999/02/22-rdf-syntax-ns#">
   <cc:Work>
    <dc:type rdf:resource="http://purl.org/dc/dcmitype/StillImage"/>
    <dc:date>2021-11-17T17:52:56.943578</dc:date>
    <dc:format>image/svg+xml</dc:format>
    <dc:creator>
     <cc:Agent>
      <dc:title>Matplotlib v3.4.2, https://matplotlib.org/</dc:title>
     </cc:Agent>
    </dc:creator>
   </cc:Work>
  </rdf:RDF>
 </metadata>
 <defs>
  <style type="text/css">*{stroke-linecap:butt;stroke-linejoin:round;}</style>
 </defs>
 <g id="figure_1">
  <g id="patch_1">
   <path d="M 0 198.425197 
L 283.464567 198.425197 
L 283.464567 0 
L 0 0 
z
" style="fill:#ffffff;"/>
  </g>
  <g id="axes_1">
   <g id="patch_2">
    <path d="M 56.692913 158.740157 
L 255.11811 158.740157 
L 255.11811 19.84252 
L 56.692913 19.84252 
z
" style="fill:#ffffff;"/>
   </g>
   <g id="matplotlib.axis_1">
    <g id="xtick_1">
     <g id="line2d_1">
      <defs>
       <path d="M 0 0 
L 0 2 
" id="m3d32da064c" style="stroke:#000000;stroke-width:0.8;"/>
      </defs>
      <g>
       <use style="stroke:#000000;stroke-width:0.8;" x="65.712241" xlink:href="#m3d32da064c" y="158.740157"/>
      </g>
     </g>
     <g id="text_1">
      <!-- 10 -->
      <g transform="translate(59.349741 171.838595)scale(0.1 -0.1)">
       <defs>
        <path d="M 794 531 
L 1825 531 
L 1825 4091 
L 703 3866 
L 703 4441 
L 1819 4666 
L 2450 4666 
L 2450 531 
L 3481 531 
L 3481 0 
L 794 0 
L 794 531 
z
" id="DejaVuSans-31" transform="scale(0.015625)"/>
        <path d="M 2034 4250 
Q 1547 4250 1301 3770 
Q 1056 3291 1056 2328 
Q 1056 1369 1301 889 
Q 1547 409 2034 409 
Q 2525 409 2770 889 
Q 3016 1369 3016 2328 
Q 3016 3291 2770 3770 
Q 2525 4250 2034 4250 
z
M 2034 4750 
Q 2819 4750 3233 4129 
Q 3647 3509 3647 2328 
Q 3647 1150 3233 529 
Q 2819 -91 2034 -91 
Q 1250 -91 836 529 
Q 422 1150 422 2328 
Q 422 3509 836 4129 
Q 1250 4750 2034 4750 
z
" id="DejaVuSans-30" transform="scale(0.015625)"/>
       </defs>
       <use xlink:href="#DejaVuSans-31"/>
       <use x="63.623047" xlink:href="#DejaVuSans-30"/>
      </g>
     </g>
    </g>
    <g id="xtick_2">
     <g id="line2d_2">
      <g>
       <use style="stroke:#000000;stroke-width:0.8;" x="125.841088" xlink:href="#m3d32da064c" y="158.740157"/>
      </g>
     </g>
     <g id="text_2">
      <!-- 20 -->
      <g transform="translate(119.478588 171.838595)scale(0.1 -0.1)">
       <defs>
        <path d="M 1228 531 
L 3431 531 
L 3431 0 
L 469 0 
L 469 531 
Q 828 903 1448 1529 
Q 2069 2156 2228 2338 
Q 2531 2678 2651 2914 
Q 2772 3150 2772 3378 
Q 2772 3750 2511 3984 
Q 2250 4219 1831 4219 
Q 1534 4219 1204 4116 
Q 875 4013 500 3803 
L 500 4441 
Q 881 4594 1212 4672 
Q 1544 4750 1819 4750 
Q 2544 4750 2975 4387 
Q 3406 4025 3406 3419 
Q 3406 3131 3298 2873 
Q 3191 2616 2906 2266 
Q 2828 2175 2409 1742 
Q 1991 1309 1228 531 
z
" id="DejaVuSans-32" transform="scale(0.015625)"/>
       </defs>
       <use xlink:href="#DejaVuSans-32"/>
       <use x="63.623047" xlink:href="#DejaVuSans-30"/>
      </g>
     </g>
    </g>
    <g id="xtick_3">
     <g id="line2d_3">
      <g>
       <use style="stroke:#000000;stroke-width:0.8;" x="185.969936" xlink:href="#m3d32da064c" y="158.740157"/>
      </g>
     </g>
     <g id="text_3">
      <!-- 30 -->
      <g transform="translate(179.607436 171.838595)scale(0.1 -0.1)">
       <defs>
        <path d="M 2597 2516 
Q 3050 2419 3304 2112 
Q 3559 1806 3559 1356 
Q 3559 666 3084 287 
Q 2609 -91 1734 -91 
Q 1441 -91 1130 -33 
Q 819 25 488 141 
L 488 750 
Q 750 597 1062 519 
Q 1375 441 1716 441 
Q 2309 441 2620 675 
Q 2931 909 2931 1356 
Q 2931 1769 2642 2001 
Q 2353 2234 1838 2234 
L 1294 2234 
L 1294 2753 
L 1863 2753 
Q 2328 2753 2575 2939 
Q 2822 3125 2822 3475 
Q 2822 3834 2567 4026 
Q 2313 4219 1838 4219 
Q 1578 4219 1281 4162 
Q 984 4106 628 3988 
L 628 4550 
Q 988 4650 1302 4700 
Q 1616 4750 1894 4750 
Q 2613 4750 3031 4423 
Q 3450 4097 3450 3541 
Q 3450 3153 3228 2886 
Q 3006 2619 2597 2516 
z
" id="DejaVuSans-33" transform="scale(0.015625)"/>
       </defs>
       <use xlink:href="#DejaVuSans-33"/>
       <use x="63.623047" xlink:href="#DejaVuSans-30"/>
      </g>
     </g>
    </g>
    <g id="xtick_4">
     <g id="line2d_4">
      <g>
       <use style="stroke:#000000;stroke-width:0.8;" x="246.098783" xlink:href="#m3d32da064c" y="158.740157"/>
      </g>
     </g>
     <g id="text_4">
      <!-- 40 -->
      <g transform="translate(239.736283 171.838595)scale(0.1 -0.1)">
       <defs>
        <path d="M 2419 4116 
L 825 1625 
L 2419 1625 
L 2419 4116 
z
M 2253 4666 
L 3047 4666 
L 3047 1625 
L 3713 1625 
L 3713 1100 
L 3047 1100 
L 3047 0 
L 2419 0 
L 2419 1100 
L 313 1100 
L 313 1709 
L 2253 4666 
z
" id="DejaVuSans-34" transform="scale(0.015625)"/>
       </defs>
       <use xlink:href="#DejaVuSans-34"/>
       <use x="63.623047" xlink:href="#DejaVuSans-30"/>
      </g>
     </g>
    </g>
    <g id="text_5">
     <!-- Temperature/ °C -->
     <g transform="translate(114.971137 185.51672)scale(0.1 -0.1)">
      <defs>
       <path d="M -19 4666 
L 3928 4666 
L 3928 4134 
L 2272 4134 
L 2272 0 
L 1638 0 
L 1638 4134 
L -19 4134 
L -19 4666 
z
" id="DejaVuSans-54" transform="scale(0.015625)"/>
       <path d="M 3597 1894 
L 3597 1613 
L 953 1613 
Q 991 1019 1311 708 
Q 1631 397 2203 397 
Q 2534 397 2845 478 
Q 3156 559 3463 722 
L 3463 178 
Q 3153 47 2828 -22 
Q 2503 -91 2169 -91 
Q 1331 -91 842 396 
Q 353 884 353 1716 
Q 353 2575 817 3079 
Q 1281 3584 2069 3584 
Q 2775 3584 3186 3129 
Q 3597 2675 3597 1894 
z
M 3022 2063 
Q 3016 2534 2758 2815 
Q 2500 3097 2075 3097 
Q 1594 3097 1305 2825 
Q 1016 2553 972 2059 
L 3022 2063 
z
" id="DejaVuSans-65" transform="scale(0.015625)"/>
       <path d="M 3328 2828 
Q 3544 3216 3844 3400 
Q 4144 3584 4550 3584 
Q 5097 3584 5394 3201 
Q 5691 2819 5691 2113 
L 5691 0 
L 5113 0 
L 5113 2094 
Q 5113 2597 4934 2840 
Q 4756 3084 4391 3084 
Q 3944 3084 3684 2787 
Q 3425 2491 3425 1978 
L 3425 0 
L 2847 0 
L 2847 2094 
Q 2847 2600 2669 2842 
Q 2491 3084 2119 3084 
Q 1678 3084 1418 2786 
Q 1159 2488 1159 1978 
L 1159 0 
L 581 0 
L 581 3500 
L 1159 3500 
L 1159 2956 
Q 1356 3278 1631 3431 
Q 1906 3584 2284 3584 
Q 2666 3584 2933 3390 
Q 3200 3197 3328 2828 
z
" id="DejaVuSans-6d" transform="scale(0.015625)"/>
       <path d="M 1159 525 
L 1159 -1331 
L 581 -1331 
L 581 3500 
L 1159 3500 
L 1159 2969 
Q 1341 3281 1617 3432 
Q 1894 3584 2278 3584 
Q 2916 3584 3314 3078 
Q 3713 2572 3713 1747 
Q 3713 922 3314 415 
Q 2916 -91 2278 -91 
Q 1894 -91 1617 61 
Q 1341 213 1159 525 
z
M 3116 1747 
Q 3116 2381 2855 2742 
Q 2594 3103 2138 3103 
Q 1681 3103 1420 2742 
Q 1159 2381 1159 1747 
Q 1159 1113 1420 752 
Q 1681 391 2138 391 
Q 2594 391 2855 752 
Q 3116 1113 3116 1747 
z
" id="DejaVuSans-70" transform="scale(0.015625)"/>
       <path d="M 2631 2963 
Q 2534 3019 2420 3045 
Q 2306 3072 2169 3072 
Q 1681 3072 1420 2755 
Q 1159 2438 1159 1844 
L 1159 0 
L 581 0 
L 581 3500 
L 1159 3500 
L 1159 2956 
Q 1341 3275 1631 3429 
Q 1922 3584 2338 3584 
Q 2397 3584 2469 3576 
Q 2541 3569 2628 3553 
L 2631 2963 
z
" id="DejaVuSans-72" transform="scale(0.015625)"/>
       <path d="M 2194 1759 
Q 1497 1759 1228 1600 
Q 959 1441 959 1056 
Q 959 750 1161 570 
Q 1363 391 1709 391 
Q 2188 391 2477 730 
Q 2766 1069 2766 1631 
L 2766 1759 
L 2194 1759 
z
M 3341 1997 
L 3341 0 
L 2766 0 
L 2766 531 
Q 2569 213 2275 61 
Q 1981 -91 1556 -91 
Q 1019 -91 701 211 
Q 384 513 384 1019 
Q 384 1609 779 1909 
Q 1175 2209 1959 2209 
L 2766 2209 
L 2766 2266 
Q 2766 2663 2505 2880 
Q 2244 3097 1772 3097 
Q 1472 3097 1187 3025 
Q 903 2953 641 2809 
L 641 3341 
Q 956 3463 1253 3523 
Q 1550 3584 1831 3584 
Q 2591 3584 2966 3190 
Q 3341 2797 3341 1997 
z
" id="DejaVuSans-61" transform="scale(0.015625)"/>
       <path d="M 1172 4494 
L 1172 3500 
L 2356 3500 
L 2356 3053 
L 1172 3053 
L 1172 1153 
Q 1172 725 1289 603 
Q 1406 481 1766 481 
L 2356 481 
L 2356 0 
L 1766 0 
Q 1100 0 847 248 
Q 594 497 594 1153 
L 594 3053 
L 172 3053 
L 172 3500 
L 594 3500 
L 594 4494 
L 1172 4494 
z
" id="DejaVuSans-74" transform="scale(0.015625)"/>
       <path d="M 544 1381 
L 544 3500 
L 1119 3500 
L 1119 1403 
Q 1119 906 1312 657 
Q 1506 409 1894 409 
Q 2359 409 2629 706 
Q 2900 1003 2900 1516 
L 2900 3500 
L 3475 3500 
L 3475 0 
L 2900 0 
L 2900 538 
Q 2691 219 2414 64 
Q 2138 -91 1772 -91 
Q 1169 -91 856 284 
Q 544 659 544 1381 
z
M 1991 3584 
L 1991 3584 
z
" id="DejaVuSans-75" transform="scale(0.015625)"/>
       <path d="M 1625 4666 
L 2156 4666 
L 531 -594 
L 0 -594 
L 1625 4666 
z
" id="DejaVuSans-2f" transform="scale(0.015625)"/>
       <path id="DejaVuSans-20" transform="scale(0.015625)"/>
       <path d="M 1600 4347 
Q 1350 4347 1178 4173 
Q 1006 4000 1006 3750 
Q 1006 3503 1178 3333 
Q 1350 3163 1600 3163 
Q 1850 3163 2022 3333 
Q 2194 3503 2194 3750 
Q 2194 3997 2020 4172 
Q 1847 4347 1600 4347 
z
M 1600 4750 
Q 1800 4750 1984 4673 
Q 2169 4597 2303 4453 
Q 2447 4313 2519 4134 
Q 2591 3956 2591 3750 
Q 2591 3338 2302 3052 
Q 2013 2766 1594 2766 
Q 1172 2766 890 3047 
Q 609 3328 609 3750 
Q 609 4169 896 4459 
Q 1184 4750 1600 4750 
z
" id="DejaVuSans-b0" transform="scale(0.015625)"/>
       <path d="M 4122 4306 
L 4122 3641 
Q 3803 3938 3442 4084 
Q 3081 4231 2675 4231 
Q 1875 4231 1450 3742 
Q 1025 3253 1025 2328 
Q 1025 1406 1450 917 
Q 1875 428 2675 428 
Q 3081 428 3442 575 
Q 3803 722 4122 1019 
L 4122 359 
Q 3791 134 3420 21 
Q 3050 -91 2638 -91 
Q 1578 -91 968 557 
Q 359 1206 359 2328 
Q 359 3453 968 4101 
Q 1578 4750 2638 4750 
Q 3056 4750 3426 4639 
Q 3797 4528 4122 4306 
z
" id="DejaVuSans-43" transform="scale(0.015625)"/>
      </defs>
      <use xlink:href="#DejaVuSans-54"/>
      <use x="44.083984" xlink:href="#DejaVuSans-65"/>
      <use x="105.607422" xlink:href="#DejaVuSans-6d"/>
      <use x="203.019531" xlink:href="#DejaVuSans-70"/>
      <use x="266.496094" xlink:href="#DejaVuSans-65"/>
      <use x="328.019531" xlink:href="#DejaVuSans-72"/>
      <use x="369.132812" xlink:href="#DejaVuSans-61"/>
      <use x="430.412109" xlink:href="#DejaVuSans-74"/>
      <use x="469.621094" xlink:href="#DejaVuSans-75"/>
      <use x="533" xlink:href="#DejaVuSans-72"/>
      <use x="571.863281" xlink:href="#DejaVuSans-65"/>
      <use x="633.386719" xlink:href="#DejaVuSans-2f"/>
      <use x="667.078125" xlink:href="#DejaVuSans-20"/>
      <use x="698.865234" xlink:href="#DejaVuSans-b0"/>
      <use x="748.865234" xlink:href="#DejaVuSans-43"/>
     </g>
    </g>
   </g>
   <g id="matplotlib.axis_2">
    <g id="ytick_1">
     <g id="line2d_5">
      <defs>
       <path d="M 0 0 
L -2 0 
" id="m2e4cdad537" style="stroke:#000000;stroke-width:0.8;"/>
      </defs>
      <g>
       <use style="stroke:#000000;stroke-width:0.8;" x="56.692913" xlink:href="#m2e4cdad537" y="152.426628"/>
      </g>
     </g>
     <g id="text_6">
      <!-- 0 -->
      <g transform="translate(44.830413 156.225847)scale(0.1 -0.1)">
       <use xlink:href="#DejaVuSans-30"/>
      </g>
     </g>
    </g>
    <g id="ytick_2">
     <g id="line2d_6">
      <g>
       <use style="stroke:#000000;stroke-width:0.8;" x="56.692913" xlink:href="#m2e4cdad537" y="108.23458"/>
      </g>
     </g>
     <g id="text_7">
      <!-- 10 -->
      <g transform="translate(38.467913 112.033799)scale(0.1 -0.1)">
       <use xlink:href="#DejaVuSans-31"/>
       <use x="63.623047" xlink:href="#DejaVuSans-30"/>
      </g>
     </g>
    </g>
    <g id="ytick_3">
     <g id="line2d_7">
      <g>
       <use style="stroke:#000000;stroke-width:0.8;" x="56.692913" xlink:href="#m2e4cdad537" y="64.042532"/>
      </g>
     </g>
     <g id="text_8">
      <!-- 20 -->
      <g transform="translate(38.467913 67.841751)scale(0.1 -0.1)">
       <use xlink:href="#DejaVuSans-32"/>
       <use x="63.623047" xlink:href="#DejaVuSans-30"/>
      </g>
     </g>
    </g>
    <g id="ytick_4">
     <g id="line2d_8">
      <g>
       <use style="stroke:#000000;stroke-width:0.8;" x="56.692913" xlink:href="#m2e4cdad537" y="19.850484"/>
      </g>
     </g>
     <g id="text_9">
      <!-- 30 -->
      <g transform="translate(38.467913 23.649703)scale(0.1 -0.1)">
       <use xlink:href="#DejaVuSans-33"/>
       <use x="63.623047" xlink:href="#DejaVuSans-30"/>
      </g>
     </g>
    </g>
    <g id="text_10">
     <!-- Concentration/ mM -->
     <g transform="translate(32.388226 137.120245)rotate(-90)scale(0.1 -0.1)">
      <defs>
       <path d="M 1959 3097 
Q 1497 3097 1228 2736 
Q 959 2375 959 1747 
Q 959 1119 1226 758 
Q 1494 397 1959 397 
Q 2419 397 2687 759 
Q 2956 1122 2956 1747 
Q 2956 2369 2687 2733 
Q 2419 3097 1959 3097 
z
M 1959 3584 
Q 2709 3584 3137 3096 
Q 3566 2609 3566 1747 
Q 3566 888 3137 398 
Q 2709 -91 1959 -91 
Q 1206 -91 779 398 
Q 353 888 353 1747 
Q 353 2609 779 3096 
Q 1206 3584 1959 3584 
z
" id="DejaVuSans-6f" transform="scale(0.015625)"/>
       <path d="M 3513 2113 
L 3513 0 
L 2938 0 
L 2938 2094 
Q 2938 2591 2744 2837 
Q 2550 3084 2163 3084 
Q 1697 3084 1428 2787 
Q 1159 2491 1159 1978 
L 1159 0 
L 581 0 
L 581 3500 
L 1159 3500 
L 1159 2956 
Q 1366 3272 1645 3428 
Q 1925 3584 2291 3584 
Q 2894 3584 3203 3211 
Q 3513 2838 3513 2113 
z
" id="DejaVuSans-6e" transform="scale(0.015625)"/>
       <path d="M 3122 3366 
L 3122 2828 
Q 2878 2963 2633 3030 
Q 2388 3097 2138 3097 
Q 1578 3097 1268 2742 
Q 959 2388 959 1747 
Q 959 1106 1268 751 
Q 1578 397 2138 397 
Q 2388 397 2633 464 
Q 2878 531 3122 666 
L 3122 134 
Q 2881 22 2623 -34 
Q 2366 -91 2075 -91 
Q 1284 -91 818 406 
Q 353 903 353 1747 
Q 353 2603 823 3093 
Q 1294 3584 2113 3584 
Q 2378 3584 2631 3529 
Q 2884 3475 3122 3366 
z
" id="DejaVuSans-63" transform="scale(0.015625)"/>
       <path d="M 603 3500 
L 1178 3500 
L 1178 0 
L 603 0 
L 603 3500 
z
M 603 4863 
L 1178 4863 
L 1178 4134 
L 603 4134 
L 603 4863 
z
" id="DejaVuSans-69" transform="scale(0.015625)"/>
       <path d="M 628 4666 
L 1569 4666 
L 2759 1491 
L 3956 4666 
L 4897 4666 
L 4897 0 
L 4281 0 
L 4281 4097 
L 3078 897 
L 2444 897 
L 1241 4097 
L 1241 0 
L 628 0 
L 628 4666 
z
" id="DejaVuSans-4d" transform="scale(0.015625)"/>
      </defs>
      <use xlink:href="#DejaVuSans-43"/>
      <use x="69.824219" xlink:href="#DejaVuSans-6f"/>
      <use x="131.005859" xlink:href="#DejaVuSans-6e"/>
      <use x="194.384766" xlink:href="#DejaVuSans-63"/>
      <use x="249.365234" xlink:href="#DejaVuSans-65"/>
      <use x="310.888672" xlink:href="#DejaVuSans-6e"/>
      <use x="374.267578" xlink:href="#DejaVuSans-74"/>
      <use x="413.476562" xlink:href="#DejaVuSans-72"/>
      <use x="454.589844" xlink:href="#DejaVuSans-61"/>
      <use x="515.869141" xlink:href="#DejaVuSans-74"/>
      <use x="555.078125" xlink:href="#DejaVuSans-69"/>
      <use x="582.861328" xlink:href="#DejaVuSans-6f"/>
      <use x="644.042969" xlink:href="#DejaVuSans-6e"/>
      <use x="707.421875" xlink:href="#DejaVuSans-2f"/>
      <use x="741.113281" xlink:href="#DejaVuSans-20"/>
      <use x="772.900391" xlink:href="#DejaVuSans-6d"/>
      <use x="870.3125" xlink:href="#DejaVuSans-4d"/>
     </g>
    </g>
   </g>
   <g id="patch_3">
    <path d="M 56.692913 158.740157 
L 56.692913 19.84252 
" style="fill:none;stroke:#000000;stroke-linecap:square;stroke-linejoin:miter;stroke-width:0.8;"/>
   </g>
   <g id="patch_4">
    <path d="M 255.11811 158.740157 
L 255.11811 19.84252 
" style="fill:none;stroke:#000000;stroke-linecap:square;stroke-linejoin:miter;stroke-width:0.8;"/>
   </g>
   <g id="patch_5">
    <path d="M 56.692913 158.740157 
L 255.11811 158.740157 
" style="fill:none;stroke:#000000;stroke-linecap:square;stroke-linejoin:miter;stroke-width:0.8;"/>
   </g>
   <g id="patch_6">
    <path d="M 56.692913 19.84252 
L 255.11811 19.84252 
" style="fill:none;stroke:#000000;stroke-linecap:square;stroke-linejoin:miter;stroke-width:0.8;"/>
   </g>
   <g id="legend_1">
    <g id="patch_7">
     <path d="M 203.39311 526.89877 
L 248.11811 526.89877 
Q 250.11811 526.89877 250.11811 524.89877 
L 250.11811 26.84252 
Q 250.11811 24.84252 248.11811 24.84252 
L 203.39311 24.84252 
Q 201.39311 24.84252 201.39311 26.84252 
L 201.39311 524.89877 
Q 201.39311 526.89877 203.39311 526.89877 
z
" style="fill:#ffffff;opacity:0.8;stroke:#cccccc;stroke-linejoin:miter;"/>
    </g>
    <g id="line2d_9">
     <path d="M 205.39311 32.940957 
L 225.39311 32.940957 
" style="fill:none;stroke:#e0e3e1;stroke-linecap:square;stroke-width:1.5;"/>
    </g>
    <g id="line2d_10">
     <defs>
      <path d="M 0 2.5 
C 0.663008 2.5 1.29895 2.236584 1.767767 1.767767 
C 2.236584 1.29895 2.5 0.663008 2.5 0 
C 2.5 -0.663008 2.236584 -1.29895 1.767767 -1.767767 
C 1.29895 -2.236584 0.663008 -2.5 0 -2.5 
C -0.663008 -2.5 -1.29895 -2.236584 -1.767767 -1.767767 
C -2.236584 -1.29895 -2.5 -0.663008 -2.5 0 
C -2.5 0.663008 -2.236584 1.29895 -1.767767 1.767767 
C -1.29895 2.236584 -0.663008 2.5 0 2.5 
z
" id="m484ebdd81a" style="stroke:#e0e3e1;"/>
     </defs>
     <g>
      <use style="fill:#e0e3e1;stroke:#e0e3e1;" x="215.39311" xlink:href="#m484ebdd81a" y="32.940957"/>
     </g>
    </g>
    <g id="text_11">
     <!-- 5 -->
     <g transform="translate(233.39311 36.440957)scale(0.1 -0.1)">
      <defs>
       <path d="M 691 4666 
L 3169 4666 
L 3169 4134 
L 1269 4134 
L 1269 2991 
Q 1406 3038 1543 3061 
Q 1681 3084 1819 3084 
Q 2600 3084 3056 2656 
Q 3513 2228 3513 1497 
Q 3513 744 3044 326 
Q 2575 -91 1722 -91 
Q 1428 -91 1123 -41 
Q 819 9 494 109 
L 494 744 
Q 775 591 1075 516 
Q 1375 441 1709 441 
Q 2250 441 2565 725 
Q 2881 1009 2881 1497 
Q 2881 1984 2565 2268 
Q 2250 2553 1709 2553 
Q 1456 2553 1204 2497 
Q 953 2441 691 2322 
L 691 4666 
z
" id="DejaVuSans-35" transform="scale(0.015625)"/>
      </defs>
      <use xlink:href="#DejaVuSans-35"/>
     </g>
    </g>
    <g id="line2d_11">
     <path d="M 205.39311 47.619082 
L 225.39311 47.619082 
" style="fill:none;stroke:#e0e3e1;stroke-linecap:square;stroke-width:1.5;"/>
    </g>
    <g id="line2d_12">
     <g>
      <use style="fill:#e0e3e1;stroke:#e0e3e1;" x="215.39311" xlink:href="#m484ebdd81a" y="47.619082"/>
     </g>
    </g>
    <g id="text_12">
     <!-- 6 -->
     <g transform="translate(233.39311 51.119082)scale(0.1 -0.1)">
      <defs>
       <path d="M 2113 2584 
Q 1688 2584 1439 2293 
Q 1191 2003 1191 1497 
Q 1191 994 1439 701 
Q 1688 409 2113 409 
Q 2538 409 2786 701 
Q 3034 994 3034 1497 
Q 3034 2003 2786 2293 
Q 2538 2584 2113 2584 
z
M 3366 4563 
L 3366 3988 
Q 3128 4100 2886 4159 
Q 2644 4219 2406 4219 
Q 1781 4219 1451 3797 
Q 1122 3375 1075 2522 
Q 1259 2794 1537 2939 
Q 1816 3084 2150 3084 
Q 2853 3084 3261 2657 
Q 3669 2231 3669 1497 
Q 3669 778 3244 343 
Q 2819 -91 2113 -91 
Q 1303 -91 875 529 
Q 447 1150 447 2328 
Q 447 3434 972 4092 
Q 1497 4750 2381 4750 
Q 2619 4750 2861 4703 
Q 3103 4656 3366 4563 
z
" id="DejaVuSans-36" transform="scale(0.015625)"/>
      </defs>
      <use xlink:href="#DejaVuSans-36"/>
     </g>
    </g>
    <g id="line2d_13">
     <path d="M 205.39311 62.297207 
L 225.39311 62.297207 
" style="fill:none;stroke:#44aaaa;stroke-linecap:square;stroke-width:1.5;"/>
    </g>
    <g id="line2d_14">
     <defs>
      <path d="M 0 2.5 
C 0.663008 2.5 1.29895 2.236584 1.767767 1.767767 
C 2.236584 1.29895 2.5 0.663008 2.5 0 
C 2.5 -0.663008 2.236584 -1.29895 1.767767 -1.767767 
C 1.29895 -2.236584 0.663008 -2.5 0 -2.5 
C -0.663008 -2.5 -1.29895 -2.236584 -1.767767 -1.767767 
C -2.236584 -1.29895 -2.5 -0.663008 -2.5 0 
C -2.5 0.663008 -2.236584 1.29895 -1.767767 1.767767 
C -1.29895 2.236584 -0.663008 2.5 0 2.5 
z
" id="mbdde7f126c" style="stroke:#44aaaa;"/>
     </defs>
     <g>
      <use style="fill:#44aaaa;stroke:#44aaaa;" x="215.39311" xlink:href="#mbdde7f126c" y="62.297207"/>
     </g>
    </g>
    <g id="text_13">
     <!-- 7 -->
     <g transform="translate(233.39311 65.797207)scale(0.1 -0.1)">
      <defs>
       <path d="M 525 4666 
L 3525 4666 
L 3525 4397 
L 1831 0 
L 1172 0 
L 2766 4134 
L 525 4134 
L 525 4666 
z
" id="DejaVuSans-37" transform="scale(0.015625)"/>
      </defs>
      <use xlink:href="#DejaVuSans-37"/>
     </g>
    </g>
    <g id="line2d_15">
     <path d="M 205.39311 76.975332 
L 225.39311 76.975332 
" style="fill:none;stroke:#77aadd;stroke-linecap:square;stroke-width:1.5;"/>
    </g>
    <g id="line2d_16">
     <defs>
      <path d="M 0 2.5 
C 0.663008 2.5 1.29895 2.236584 1.767767 1.767767 
C 2.236584 1.29895 2.5 0.663008 2.5 0 
C 2.5 -0.663008 2.236584 -1.29895 1.767767 -1.767767 
C 1.29895 -2.236584 0.663008 -2.5 0 -2.5 
C -0.663008 -2.5 -1.29895 -2.236584 -1.767767 -1.767767 
C -2.236584 -1.29895 -2.5 -0.663008 -2.5 0 
C -2.5 0.663008 -2.236584 1.29895 -1.767767 1.767767 
C -1.29895 2.236584 -0.663008 2.5 0 2.5 
z
" id="m88a74bfecd" style="stroke:#77aadd;"/>
     </defs>
     <g>
      <use style="fill:#77aadd;stroke:#77aadd;" x="215.39311" xlink:href="#m88a74bfecd" y="76.975332"/>
     </g>
    </g>
    <g id="text_14">
     <!-- 8 -->
     <g transform="translate(233.39311 80.475332)scale(0.1 -0.1)">
      <defs>
       <path d="M 2034 2216 
Q 1584 2216 1326 1975 
Q 1069 1734 1069 1313 
Q 1069 891 1326 650 
Q 1584 409 2034 409 
Q 2484 409 2743 651 
Q 3003 894 3003 1313 
Q 3003 1734 2745 1975 
Q 2488 2216 2034 2216 
z
M 1403 2484 
Q 997 2584 770 2862 
Q 544 3141 544 3541 
Q 544 4100 942 4425 
Q 1341 4750 2034 4750 
Q 2731 4750 3128 4425 
Q 3525 4100 3525 3541 
Q 3525 3141 3298 2862 
Q 3072 2584 2669 2484 
Q 3125 2378 3379 2068 
Q 3634 1759 3634 1313 
Q 3634 634 3220 271 
Q 2806 -91 2034 -91 
Q 1263 -91 848 271 
Q 434 634 434 1313 
Q 434 1759 690 2068 
Q 947 2378 1403 2484 
z
M 1172 3481 
Q 1172 3119 1398 2916 
Q 1625 2713 2034 2713 
Q 2441 2713 2670 2916 
Q 2900 3119 2900 3481 
Q 2900 3844 2670 4047 
Q 2441 4250 2034 4250 
Q 1625 4250 1398 4047 
Q 1172 3844 1172 3481 
z
" id="DejaVuSans-38" transform="scale(0.015625)"/>
      </defs>
      <use xlink:href="#DejaVuSans-38"/>
     </g>
    </g>
    <g id="line2d_17">
     <path d="M 205.39311 91.653457 
L 225.39311 91.653457 
" style="fill:none;stroke:#117777;stroke-linecap:square;stroke-width:1.5;"/>
    </g>
    <g id="line2d_18">
     <defs>
      <path d="M 0 2.5 
C 0.663008 2.5 1.29895 2.236584 1.767767 1.767767 
C 2.236584 1.29895 2.5 0.663008 2.5 0 
C 2.5 -0.663008 2.236584 -1.29895 1.767767 -1.767767 
C 1.29895 -2.236584 0.663008 -2.5 0 -2.5 
C -0.663008 -2.5 -1.29895 -2.236584 -1.767767 -1.767767 
C -2.236584 -1.29895 -2.5 -0.663008 -2.5 0 
C -2.5 0.663008 -2.236584 1.29895 -1.767767 1.767767 
C -1.29895 2.236584 -0.663008 2.5 0 2.5 
z
" id="m54262c82c2" style="stroke:#117777;"/>
     </defs>
     <g>
      <use style="fill:#117777;stroke:#117777;" x="215.39311" xlink:href="#m54262c82c2" y="91.653457"/>
     </g>
    </g>
    <g id="text_15">
     <!-- 9 -->
     <g transform="translate(233.39311 95.153457)scale(0.1 -0.1)">
      <defs>
       <path d="M 703 97 
L 703 672 
Q 941 559 1184 500 
Q 1428 441 1663 441 
Q 2288 441 2617 861 
Q 2947 1281 2994 2138 
Q 2813 1869 2534 1725 
Q 2256 1581 1919 1581 
Q 1219 1581 811 2004 
Q 403 2428 403 3163 
Q 403 3881 828 4315 
Q 1253 4750 1959 4750 
Q 2769 4750 3195 4129 
Q 3622 3509 3622 2328 
Q 3622 1225 3098 567 
Q 2575 -91 1691 -91 
Q 1453 -91 1209 -44 
Q 966 3 703 97 
z
M 1959 2075 
Q 2384 2075 2632 2365 
Q 2881 2656 2881 3163 
Q 2881 3666 2632 3958 
Q 2384 4250 1959 4250 
Q 1534 4250 1286 3958 
Q 1038 3666 1038 3163 
Q 1038 2656 1286 2365 
Q 1534 2075 1959 2075 
z
" id="DejaVuSans-39" transform="scale(0.015625)"/>
      </defs>
      <use xlink:href="#DejaVuSans-39"/>
     </g>
    </g>
    <g id="line2d_19">
     <path d="M 205.39311 106.331582 
L 225.39311 106.331582 
" style="fill:none;stroke:#525fb7;stroke-linecap:square;stroke-width:1.5;"/>
    </g>
    <g id="line2d_20">
     <defs>
      <path d="M 0 2.5 
C 0.663008 2.5 1.29895 2.236584 1.767767 1.767767 
C 2.236584 1.29895 2.5 0.663008 2.5 0 
C 2.5 -0.663008 2.236584 -1.29895 1.767767 -1.767767 
C 1.29895 -2.236584 0.663008 -2.5 0 -2.5 
C -0.663008 -2.5 -1.29895 -2.236584 -1.767767 -1.767767 
C -2.236584 -1.29895 -2.5 -0.663008 -2.5 0 
C -2.5 0.663008 -2.236584 1.29895 -1.767767 1.767767 
C -1.29895 2.236584 -0.663008 2.5 0 2.5 
z
" id="mbec433e74a" style="stroke:#525fb7;"/>
     </defs>
     <g>
      <use style="fill:#525fb7;stroke:#525fb7;" x="215.39311" xlink:href="#mbec433e74a" y="106.331582"/>
     </g>
    </g>
    <g id="text_16">
     <!-- 10 -->
     <g transform="translate(233.39311 109.831582)scale(0.1 -0.1)">
      <use xlink:href="#DejaVuSans-31"/>
      <use x="63.623047" xlink:href="#DejaVuSans-30"/>
     </g>
    </g>
    <g id="line2d_21">
     <path d="M 205.39311 121.009707 
L 225.39311 121.009707 
" style="fill:none;stroke:#a3604b;stroke-linecap:square;stroke-width:1.5;"/>
    </g>
    <g id="line2d_22">
     <defs>
      <path d="M 0 2.5 
C 0.663008 2.5 1.29895 2.236584 1.767767 1.767767 
C 2.236584 1.29895 2.5 0.663008 2.5 0 
C 2.5 -0.663008 2.236584 -1.29895 1.767767 -1.767767 
C 1.29895 -2.236584 0.663008 -2.5 0 -2.5 
C -0.663008 -2.5 -1.29895 -2.236584 -1.767767 -1.767767 
C -2.236584 -1.29895 -2.5 -0.663008 -2.5 0 
C -2.5 0.663008 -2.236584 1.29895 -1.767767 1.767767 
C -1.29895 2.236584 -0.663008 2.5 0 2.5 
z
" id="m90b0147e45" style="stroke:#a3604b;"/>
     </defs>
     <g>
      <use style="fill:#a3604b;stroke:#a3604b;" x="215.39311" xlink:href="#m90b0147e45" y="121.009707"/>
     </g>
    </g>
    <g id="text_17">
     <!-- 12 -->
     <g transform="translate(233.39311 124.509707)scale(0.1 -0.1)">
      <use xlink:href="#DejaVuSans-31"/>
      <use x="63.623047" xlink:href="#DejaVuSans-32"/>
     </g>
    </g>
    <g id="line2d_23">
     <path d="M 205.39311 135.687832 
L 225.39311 135.687832 
" style="fill:none;stroke:#a3604b;stroke-linecap:square;stroke-width:1.5;"/>
    </g>
    <g id="line2d_24">
     <g>
      <use style="fill:#a3604b;stroke:#a3604b;" x="215.39311" xlink:href="#m90b0147e45" y="135.687832"/>
     </g>
    </g>
    <g id="text_18">
     <!-- 13 -->
     <g transform="translate(233.39311 139.187832)scale(0.1 -0.1)">
      <use xlink:href="#DejaVuSans-31"/>
      <use x="63.623047" xlink:href="#DejaVuSans-33"/>
     </g>
    </g>
    <g id="line2d_25">
     <path d="M 205.39311 150.365957 
L 225.39311 150.365957 
" style="fill:none;stroke:#f53f06;stroke-linecap:square;stroke-width:1.5;"/>
    </g>
    <g id="line2d_26">
     <defs>
      <path d="M 0 2.5 
C 0.663008 2.5 1.29895 2.236584 1.767767 1.767767 
C 2.236584 1.29895 2.5 0.663008 2.5 0 
C 2.5 -0.663008 2.236584 -1.29895 1.767767 -1.767767 
C 1.29895 -2.236584 0.663008 -2.5 0 -2.5 
C -0.663008 -2.5 -1.29895 -2.236584 -1.767767 -1.767767 
C -2.236584 -1.29895 -2.5 -0.663008 -2.5 0 
C -2.5 0.663008 -2.236584 1.29895 -1.767767 1.767767 
C -1.29895 2.236584 -0.663008 2.5 0 2.5 
z
" id="m5c5edf137d" style="stroke:#f53f06;"/>
     </defs>
     <g>
      <use style="fill:#f53f06;stroke:#f53f06;" x="215.39311" xlink:href="#m5c5edf137d" y="150.365957"/>
     </g>
    </g>
    <g id="text_19">
     <!-- 14 -->
     <g transform="translate(233.39311 153.865957)scale(0.1 -0.1)">
      <use xlink:href="#DejaVuSans-31"/>
      <use x="63.623047" xlink:href="#DejaVuSans-34"/>
     </g>
    </g>
    <g id="line2d_27">
     <path d="M 205.39311 165.044082 
L 225.39311 165.044082 
" style="fill:none;stroke:#771124;stroke-linecap:square;stroke-width:1.5;"/>
    </g>
    <g id="line2d_28">
     <defs>
      <path d="M 0 2.5 
C 0.663008 2.5 1.29895 2.236584 1.767767 1.767767 
C 2.236584 1.29895 2.5 0.663008 2.5 0 
C 2.5 -0.663008 2.236584 -1.29895 1.767767 -1.767767 
C 1.29895 -2.236584 0.663008 -2.5 0 -2.5 
C -0.663008 -2.5 -1.29895 -2.236584 -1.767767 -1.767767 
C -2.236584 -1.29895 -2.5 -0.663008 -2.5 0 
C -2.5 0.663008 -2.236584 1.29895 -1.767767 1.767767 
C -1.29895 2.236584 -0.663008 2.5 0 2.5 
z
" id="mf6dbd9781f" style="stroke:#771124;"/>
     </defs>
     <g>
      <use style="fill:#771124;stroke:#771124;" x="215.39311" xlink:href="#mf6dbd9781f" y="165.044082"/>
     </g>
    </g>
    <g id="text_20">
     <!-- 18 -->
     <g transform="translate(233.39311 168.544082)scale(0.1 -0.1)">
      <use xlink:href="#DejaVuSans-31"/>
      <use x="63.623047" xlink:href="#DejaVuSans-38"/>
     </g>
    </g>
    <g id="line2d_29">
     <path d="M 205.39311 179.722207 
L 225.39311 179.722207 
" style="fill:none;stroke:#eeb29f;stroke-linecap:square;stroke-width:1.5;"/>
    </g>
    <g id="line2d_30">
     <defs>
      <path d="M 0 2.5 
C 0.663008 2.5 1.29895 2.236584 1.767767 1.767767 
C 2.236584 1.29895 2.5 0.663008 2.5 0 
C 2.5 -0.663008 2.236584 -1.29895 1.767767 -1.767767 
C 1.29895 -2.236584 0.663008 -2.5 0 -2.5 
C -0.663008 -2.5 -1.29895 -2.236584 -1.767767 -1.767767 
C -2.236584 -1.29895 -2.5 -0.663008 -2.5 0 
C -2.5 0.663008 -2.236584 1.29895 -1.767767 1.767767 
C -1.29895 2.236584 -0.663008 2.5 0 2.5 
z
" id="m7b134c3c24" style="stroke:#eeb29f;"/>
     </defs>
     <g>
      <use style="fill:#eeb29f;stroke:#eeb29f;" x="215.39311" xlink:href="#m7b134c3c24" y="179.722207"/>
     </g>
    </g>
    <g id="text_21">
     <!-- 20 -->
     <g transform="translate(233.39311 183.222207)scale(0.1 -0.1)">
      <use xlink:href="#DejaVuSans-32"/>
      <use x="63.623047" xlink:href="#DejaVuSans-30"/>
     </g>
    </g>
    <g id="line2d_31">
     <path d="M 205.39311 194.400332 
L 225.39311 194.400332 
" style="fill:none;stroke:#ff0240;stroke-linecap:square;stroke-width:1.5;"/>
    </g>
    <g id="line2d_32">
     <defs>
      <path d="M 0 2.5 
C 0.663008 2.5 1.29895 2.236584 1.767767 1.767767 
C 2.236584 1.29895 2.5 0.663008 2.5 0 
C 2.5 -0.663008 2.236584 -1.29895 1.767767 -1.767767 
C 1.29895 -2.236584 0.663008 -2.5 0 -2.5 
C -0.663008 -2.5 -1.29895 -2.236584 -1.767767 -1.767767 
C -2.236584 -1.29895 -2.5 -0.663008 -2.5 0 
C -2.5 0.663008 -2.236584 1.29895 -1.767767 1.767767 
C -1.29895 2.236584 -0.663008 2.5 0 2.5 
z
" id="m90017759d1" style="stroke:#ff0240;"/>
     </defs>
     <g>
      <use style="fill:#ff0240;stroke:#ff0240;" x="215.39311" xlink:href="#m90017759d1" y="194.400332"/>
     </g>
    </g>
    <g id="text_22">
     <!-- 24 -->
     <g transform="translate(233.39311 197.900332)scale(0.1 -0.1)">
      <use xlink:href="#DejaVuSans-32"/>
      <use x="63.623047" xlink:href="#DejaVuSans-34"/>
     </g>
    </g>
    <g id="line2d_33">
     <path style="fill:none;stroke:#d0d1df;stroke-linecap:square;stroke-width:1.5;"/>
    </g>
    <g id="line2d_34">
     <defs>
      <path d="M 0 2.5 
C 0.663008 2.5 1.29895 2.236584 1.767767 1.767767 
C 2.236584 1.29895 2.5 0.663008 2.5 0 
C 2.5 -0.663008 2.236584 -1.29895 1.767767 -1.767767 
C 1.29895 -2.236584 0.663008 -2.5 0 -2.5 
C -0.663008 -2.5 -1.29895 -2.236584 -1.767767 -1.767767 
C -2.236584 -1.29895 -2.5 -0.663008 -2.5 0 
C -2.5 0.663008 -2.236584 1.29895 -1.767767 1.767767 
C -1.29895 2.236584 -0.663008 2.5 0 2.5 
z
" id="mfcb54d5eb9" style="stroke:#d0d1df;"/>
     </defs>
     <g>
      <use style="fill:#d0d1df;stroke:#d0d1df;" x="215.39311" xlink:href="#mfcb54d5eb9" y="209.078457"/>
     </g>
    </g>
    <g id="text_23">
     <!-- 25 -->
     <g transform="translate(233.39311 212.578457)scale(0.1 -0.1)">
      <use xlink:href="#DejaVuSans-32"/>
      <use x="63.623047" xlink:href="#DejaVuSans-35"/>
     </g>
    </g>
    <g id="line2d_35">
     <path style="fill:none;stroke:#6ef1c9;stroke-linecap:square;stroke-width:1.5;"/>
    </g>
    <g id="line2d_36">
     <defs>
      <path d="M 0 2.5 
C 0.663008 2.5 1.29895 2.236584 1.767767 1.767767 
C 2.236584 1.29895 2.5 0.663008 2.5 0 
C 2.5 -0.663008 2.236584 -1.29895 1.767767 -1.767767 
C 1.29895 -2.236584 0.663008 -2.5 0 -2.5 
C -0.663008 -2.5 -1.29895 -2.236584 -1.767767 -1.767767 
C -2.236584 -1.29895 -2.5 -0.663008 -2.5 0 
C -2.5 0.663008 -2.236584 1.29895 -1.767767 1.767767 
C -1.29895 2.236584 -0.663008 2.5 0 2.5 
z
" id="mcd9c20331e" style="stroke:#6ef1c9;"/>
     </defs>
     <g>
      <use style="fill:#6ef1c9;stroke:#6ef1c9;" x="215.39311" xlink:href="#mcd9c20331e" y="223.756582"/>
     </g>
    </g>
    <g id="text_24">
     <!-- 26 -->
     <g transform="translate(233.39311 227.256582)scale(0.1 -0.1)">
      <use xlink:href="#DejaVuSans-32"/>
      <use x="63.623047" xlink:href="#DejaVuSans-36"/>
     </g>
    </g>
    <g id="line2d_37">
     <path style="fill:none;stroke:#6ef1c9;stroke-linecap:square;stroke-width:1.5;"/>
    </g>
    <g id="line2d_38">
     <g>
      <use style="fill:#6ef1c9;stroke:#6ef1c9;" x="215.39311" xlink:href="#mcd9c20331e" y="238.434707"/>
     </g>
    </g>
    <g id="text_25">
     <!-- 27 -->
     <g transform="translate(233.39311 241.934707)scale(0.1 -0.1)">
      <use xlink:href="#DejaVuSans-32"/>
      <use x="63.623047" xlink:href="#DejaVuSans-37"/>
     </g>
    </g>
    <g id="line2d_39">
     <path style="fill:none;stroke:#6ef1c9;stroke-linecap:square;stroke-width:1.5;"/>
    </g>
    <g id="line2d_40">
     <g>
      <use style="fill:#6ef1c9;stroke:#6ef1c9;" x="215.39311" xlink:href="#mcd9c20331e" y="253.112832"/>
     </g>
    </g>
    <g id="text_26">
     <!-- 29 -->
     <g transform="translate(233.39311 256.612832)scale(0.1 -0.1)">
      <use xlink:href="#DejaVuSans-32"/>
      <use x="63.623047" xlink:href="#DejaVuSans-39"/>
     </g>
    </g>
    <g id="line2d_41">
     <path style="fill:none;stroke:#6ef1c9;stroke-linecap:square;stroke-width:1.5;"/>
    </g>
    <g id="line2d_42">
     <g>
      <use style="fill:#6ef1c9;stroke:#6ef1c9;" x="215.39311" xlink:href="#mcd9c20331e" y="267.790957"/>
     </g>
    </g>
    <g id="text_27">
     <!-- 30 -->
     <g transform="translate(233.39311 271.290957)scale(0.1 -0.1)">
      <use xlink:href="#DejaVuSans-33"/>
      <use x="63.623047" xlink:href="#DejaVuSans-30"/>
     </g>
    </g>
    <g id="line2d_43">
     <path style="fill:none;stroke:#428317;stroke-linecap:square;stroke-width:1.5;"/>
    </g>
    <g id="line2d_44">
     <defs>
      <path d="M 0 2.5 
C 0.663008 2.5 1.29895 2.236584 1.767767 1.767767 
C 2.236584 1.29895 2.5 0.663008 2.5 0 
C 2.5 -0.663008 2.236584 -1.29895 1.767767 -1.767767 
C 1.29895 -2.236584 0.663008 -2.5 0 -2.5 
C -0.663008 -2.5 -1.29895 -2.236584 -1.767767 -1.767767 
C -2.236584 -1.29895 -2.5 -0.663008 -2.5 0 
C -2.5 0.663008 -2.236584 1.29895 -1.767767 1.767767 
C -1.29895 2.236584 -0.663008 2.5 0 2.5 
z
" id="md7cb4782ab" style="stroke:#428317;"/>
     </defs>
     <g>
      <use style="fill:#428317;stroke:#428317;" x="215.39311" xlink:href="#md7cb4782ab" y="282.469082"/>
     </g>
    </g>
    <g id="text_28">
     <!-- 32 -->
     <g transform="translate(233.39311 285.969082)scale(0.1 -0.1)">
      <use xlink:href="#DejaVuSans-33"/>
      <use x="63.623047" xlink:href="#DejaVuSans-32"/>
     </g>
    </g>
    <g id="line2d_45">
     <path style="fill:none;stroke:#428317;stroke-linecap:square;stroke-width:1.5;"/>
    </g>
    <g id="line2d_46">
     <g>
      <use style="fill:#428317;stroke:#428317;" x="215.39311" xlink:href="#md7cb4782ab" y="297.147207"/>
     </g>
    </g>
    <g id="text_29">
     <!-- 34 -->
     <g transform="translate(233.39311 300.647207)scale(0.1 -0.1)">
      <use xlink:href="#DejaVuSans-33"/>
      <use x="63.623047" xlink:href="#DejaVuSans-34"/>
     </g>
    </g>
    <g id="line2d_47">
     <path style="fill:none;stroke:#428317;stroke-linecap:square;stroke-width:1.5;"/>
    </g>
    <g id="line2d_48">
     <g>
      <use style="fill:#428317;stroke:#428317;" x="215.39311" xlink:href="#md7cb4782ab" y="311.825332"/>
     </g>
    </g>
    <g id="text_30">
     <!-- 35 -->
     <g transform="translate(233.39311 315.325332)scale(0.1 -0.1)">
      <use xlink:href="#DejaVuSans-33"/>
      <use x="63.623047" xlink:href="#DejaVuSans-35"/>
     </g>
    </g>
    <g id="line2d_49">
     <path style="fill:none;stroke:#06986a;stroke-linecap:square;stroke-width:1.5;"/>
    </g>
    <g id="line2d_50">
     <defs>
      <path d="M 0 2.5 
C 0.663008 2.5 1.29895 2.236584 1.767767 1.767767 
C 2.236584 1.29895 2.5 0.663008 2.5 0 
C 2.5 -0.663008 2.236584 -1.29895 1.767767 -1.767767 
C 1.29895 -2.236584 0.663008 -2.5 0 -2.5 
C -0.663008 -2.5 -1.29895 -2.236584 -1.767767 -1.767767 
C -2.236584 -1.29895 -2.5 -0.663008 -2.5 0 
C -2.5 0.663008 -2.236584 1.29895 -1.767767 1.767767 
C -1.29895 2.236584 -0.663008 2.5 0 2.5 
z
" id="m5900e13fe2" style="stroke:#06986a;"/>
     </defs>
     <g>
      <use style="fill:#06986a;stroke:#06986a;" x="215.39311" xlink:href="#m5900e13fe2" y="326.503457"/>
     </g>
    </g>
    <g id="text_31">
     <!-- 36 -->
     <g transform="translate(233.39311 330.003457)scale(0.1 -0.1)">
      <use xlink:href="#DejaVuSans-33"/>
      <use x="63.623047" xlink:href="#DejaVuSans-36"/>
     </g>
    </g>
    <g id="line2d_51">
     <path style="fill:none;stroke:#428317;stroke-linecap:square;stroke-width:1.5;"/>
    </g>
    <g id="line2d_52">
     <g>
      <use style="fill:#428317;stroke:#428317;" x="215.39311" xlink:href="#md7cb4782ab" y="341.181582"/>
     </g>
    </g>
    <g id="text_32">
     <!-- 37 -->
     <g transform="translate(233.39311 344.681582)scale(0.1 -0.1)">
      <use xlink:href="#DejaVuSans-33"/>
      <use x="63.623047" xlink:href="#DejaVuSans-37"/>
     </g>
    </g>
    <g id="line2d_53">
     <path style="fill:none;stroke:#106832;stroke-linecap:square;stroke-width:1.5;"/>
    </g>
    <g id="line2d_54">
     <defs>
      <path d="M 0 2.5 
C 0.663008 2.5 1.29895 2.236584 1.767767 1.767767 
C 2.236584 1.29895 2.5 0.663008 2.5 0 
C 2.5 -0.663008 2.236584 -1.29895 1.767767 -1.767767 
C 1.29895 -2.236584 0.663008 -2.5 0 -2.5 
C -0.663008 -2.5 -1.29895 -2.236584 -1.767767 -1.767767 
C -2.236584 -1.29895 -2.5 -0.663008 -2.5 0 
C -2.5 0.663008 -2.236584 1.29895 -1.767767 1.767767 
C -1.29895 2.236584 -0.663008 2.5 0 2.5 
z
" id="md561af5dd5" style="stroke:#106832;"/>
     </defs>
     <g>
      <use style="fill:#106832;stroke:#106832;" x="215.39311" xlink:href="#md561af5dd5" y="355.859707"/>
     </g>
    </g>
    <g id="text_33">
     <!-- 38 -->
     <g transform="translate(233.39311 359.359707)scale(0.1 -0.1)">
      <use xlink:href="#DejaVuSans-33"/>
      <use x="63.623047" xlink:href="#DejaVuSans-38"/>
     </g>
    </g>
    <g id="line2d_55">
     <path style="fill:none;stroke:#2b8536;stroke-linecap:square;stroke-width:1.5;"/>
    </g>
    <g id="line2d_56">
     <defs>
      <path d="M 0 2.5 
C 0.663008 2.5 1.29895 2.236584 1.767767 1.767767 
C 2.236584 1.29895 2.5 0.663008 2.5 0 
C 2.5 -0.663008 2.236584 -1.29895 1.767767 -1.767767 
C 1.29895 -2.236584 0.663008 -2.5 0 -2.5 
C -0.663008 -2.5 -1.29895 -2.236584 -1.767767 -1.767767 
C -2.236584 -1.29895 -2.5 -0.663008 -2.5 0 
C -2.5 0.663008 -2.236584 1.29895 -1.767767 1.767767 
C -1.29895 2.236584 -0.663008 2.5 0 2.5 
z
" id="mcc0197aed9" style="stroke:#2b8536;"/>
     </defs>
     <g>
      <use style="fill:#2b8536;stroke:#2b8536;" x="215.39311" xlink:href="#mcc0197aed9" y="370.537832"/>
     </g>
    </g>
    <g id="text_34">
     <!-- 39 -->
     <g transform="translate(233.39311 374.037832)scale(0.1 -0.1)">
      <use xlink:href="#DejaVuSans-33"/>
      <use x="63.623047" xlink:href="#DejaVuSans-39"/>
     </g>
    </g>
    <g id="line2d_57">
     <path style="fill:none;stroke:#56a45e;stroke-linecap:square;stroke-width:1.5;"/>
    </g>
    <g id="line2d_58">
     <defs>
      <path d="M 0 2.5 
C 0.663008 2.5 1.29895 2.236584 1.767767 1.767767 
C 2.236584 1.29895 2.5 0.663008 2.5 0 
C 2.5 -0.663008 2.236584 -1.29895 1.767767 -1.767767 
C 1.29895 -2.236584 0.663008 -2.5 0 -2.5 
C -0.663008 -2.5 -1.29895 -2.236584 -1.767767 -1.767767 
C -2.236584 -1.29895 -2.5 -0.663008 -2.5 0 
C -2.5 0.663008 -2.236584 1.29895 -1.767767 1.767767 
C -1.29895 2.236584 -0.663008 2.5 0 2.5 
z
" id="mb7f0a84eb8" style="stroke:#56a45e;"/>
     </defs>
     <g>
      <use style="fill:#56a45e;stroke:#56a45e;" x="215.39311" xlink:href="#mb7f0a84eb8" y="385.215957"/>
     </g>
    </g>
    <g id="text_35">
     <!-- 40 -->
     <g transform="translate(233.39311 388.715957)scale(0.1 -0.1)">
      <use xlink:href="#DejaVuSans-34"/>
      <use x="63.623047" xlink:href="#DejaVuSans-30"/>
     </g>
    </g>
    <g id="line2d_59">
     <path style="fill:none;stroke:#3aa302;stroke-linecap:square;stroke-width:1.5;"/>
    </g>
    <g id="line2d_60">
     <defs>
      <path d="M 0 2.5 
C 0.663008 2.5 1.29895 2.236584 1.767767 1.767767 
C 2.236584 1.29895 2.5 0.663008 2.5 0 
C 2.5 -0.663008 2.236584 -1.29895 1.767767 -1.767767 
C 1.29895 -2.236584 0.663008 -2.5 0 -2.5 
C -0.663008 -2.5 -1.29895 -2.236584 -1.767767 -1.767767 
C -2.236584 -1.29895 -2.5 -0.663008 -2.5 0 
C -2.5 0.663008 -2.236584 1.29895 -1.767767 1.767767 
C -1.29895 2.236584 -0.663008 2.5 0 2.5 
z
" id="mec84111701" style="stroke:#3aa302;"/>
     </defs>
     <g>
      <use style="fill:#3aa302;stroke:#3aa302;" x="215.39311" xlink:href="#mec84111701" y="399.894082"/>
     </g>
    </g>
    <g id="text_36">
     <!-- 41 -->
     <g transform="translate(233.39311 403.394082)scale(0.1 -0.1)">
      <use xlink:href="#DejaVuSans-34"/>
      <use x="63.623047" xlink:href="#DejaVuSans-31"/>
     </g>
    </g>
    <g id="line2d_61">
     <path style="fill:none;stroke:#04b978;stroke-linecap:square;stroke-width:1.5;"/>
    </g>
    <g id="line2d_62">
     <defs>
      <path d="M 0 2.5 
C 0.663008 2.5 1.29895 2.236584 1.767767 1.767767 
C 2.236584 1.29895 2.5 0.663008 2.5 0 
C 2.5 -0.663008 2.236584 -1.29895 1.767767 -1.767767 
C 1.29895 -2.236584 0.663008 -2.5 0 -2.5 
C -0.663008 -2.5 -1.29895 -2.236584 -1.767767 -1.767767 
C -2.236584 -1.29895 -2.5 -0.663008 -2.5 0 
C -2.5 0.663008 -2.236584 1.29895 -1.767767 1.767767 
C -1.29895 2.236584 -0.663008 2.5 0 2.5 
z
" id="mce11f14881" style="stroke:#04b978;"/>
     </defs>
     <g>
      <use style="fill:#04b978;stroke:#04b978;" x="215.39311" xlink:href="#mce11f14881" y="414.572207"/>
     </g>
    </g>
    <g id="text_37">
     <!-- 43 -->
     <g transform="translate(233.39311 418.072207)scale(0.1 -0.1)">
      <use xlink:href="#DejaVuSans-34"/>
      <use x="63.623047" xlink:href="#DejaVuSans-33"/>
     </g>
    </g>
    <g id="line2d_63">
     <path style="fill:none;stroke:#36bf44;stroke-linecap:square;stroke-width:1.5;"/>
    </g>
    <g id="line2d_64">
     <defs>
      <path d="M 0 2.5 
C 0.663008 2.5 1.29895 2.236584 1.767767 1.767767 
C 2.236584 1.29895 2.5 0.663008 2.5 0 
C 2.5 -0.663008 2.236584 -1.29895 1.767767 -1.767767 
C 1.29895 -2.236584 0.663008 -2.5 0 -2.5 
C -0.663008 -2.5 -1.29895 -2.236584 -1.767767 -1.767767 
C -2.236584 -1.29895 -2.5 -0.663008 -2.5 0 
C -2.5 0.663008 -2.236584 1.29895 -1.767767 1.767767 
C -1.29895 2.236584 -0.663008 2.5 0 2.5 
z
" id="m61bc820cbd" style="stroke:#36bf44;"/>
     </defs>
     <g>
      <use style="fill:#36bf44;stroke:#36bf44;" x="215.39311" xlink:href="#m61bc820cbd" y="429.250332"/>
     </g>
    </g>
    <g id="text_38">
     <!-- 44 -->
     <g transform="translate(233.39311 432.750332)scale(0.1 -0.1)">
      <use xlink:href="#DejaVuSans-34"/>
      <use x="63.623047" xlink:href="#DejaVuSans-34"/>
     </g>
    </g>
    <g id="line2d_65">
     <path style="fill:none;stroke:#8ac08f;stroke-linecap:square;stroke-width:1.5;"/>
    </g>
    <g id="line2d_66">
     <defs>
      <path d="M 0 2.5 
C 0.663008 2.5 1.29895 2.236584 1.767767 1.767767 
C 2.236584 1.29895 2.5 0.663008 2.5 0 
C 2.5 -0.663008 2.236584 -1.29895 1.767767 -1.767767 
C 1.29895 -2.236584 0.663008 -2.5 0 -2.5 
C -0.663008 -2.5 -1.29895 -2.236584 -1.767767 -1.767767 
C -2.236584 -1.29895 -2.5 -0.663008 -2.5 0 
C -2.5 0.663008 -2.236584 1.29895 -1.767767 1.767767 
C -1.29895 2.236584 -0.663008 2.5 0 2.5 
z
" id="m440462b075" style="stroke:#8ac08f;"/>
     </defs>
     <g>
      <use style="fill:#8ac08f;stroke:#8ac08f;" x="215.39311" xlink:href="#m440462b075" y="443.928457"/>
     </g>
    </g>
    <g id="text_39">
     <!-- 45 -->
     <g transform="translate(233.39311 447.428457)scale(0.1 -0.1)">
      <use xlink:href="#DejaVuSans-34"/>
      <use x="63.623047" xlink:href="#DejaVuSans-35"/>
     </g>
    </g>
    <g id="line2d_67">
     <path style="fill:none;stroke:#51a778;stroke-linecap:square;stroke-width:1.5;"/>
    </g>
    <g id="line2d_68">
     <defs>
      <path d="M 0 2.5 
C 0.663008 2.5 1.29895 2.236584 1.767767 1.767767 
C 2.236584 1.29895 2.5 0.663008 2.5 0 
C 2.5 -0.663008 2.236584 -1.29895 1.767767 -1.767767 
C 1.29895 -2.236584 0.663008 -2.5 0 -2.5 
C -0.663008 -2.5 -1.29895 -2.236584 -1.767767 -1.767767 
C -2.236584 -1.29895 -2.5 -0.663008 -2.5 0 
C -2.5 0.663008 -2.236584 1.29895 -1.767767 1.767767 
C -1.29895 2.236584 -0.663008 2.5 0 2.5 
z
" id="m58ad55302d" style="stroke:#51a778;"/>
     </defs>
     <g>
      <use style="fill:#51a778;stroke:#51a778;" x="215.39311" xlink:href="#m58ad55302d" y="458.606582"/>
     </g>
    </g>
    <g id="text_40">
     <!-- 46 -->
     <g transform="translate(233.39311 462.106582)scale(0.1 -0.1)">
      <use xlink:href="#DejaVuSans-34"/>
      <use x="63.623047" xlink:href="#DejaVuSans-36"/>
     </g>
    </g>
    <g id="line2d_69">
     <path style="fill:none;stroke:#34be72;stroke-linecap:square;stroke-width:1.5;"/>
    </g>
    <g id="line2d_70">
     <defs>
      <path d="M 0 2.5 
C 0.663008 2.5 1.29895 2.236584 1.767767 1.767767 
C 2.236584 1.29895 2.5 0.663008 2.5 0 
C 2.5 -0.663008 2.236584 -1.29895 1.767767 -1.767767 
C 1.29895 -2.236584 0.663008 -2.5 0 -2.5 
C -0.663008 -2.5 -1.29895 -2.236584 -1.767767 -1.767767 
C -2.236584 -1.29895 -2.5 -0.663008 -2.5 0 
C -2.5 0.663008 -2.236584 1.29895 -1.767767 1.767767 
C -1.29895 2.236584 -0.663008 2.5 0 2.5 
z
" id="mb73967af32" style="stroke:#34be72;"/>
     </defs>
     <g>
      <use style="fill:#34be72;stroke:#34be72;" x="215.39311" xlink:href="#mb73967af32" y="473.284707"/>
     </g>
    </g>
    <g id="text_41">
     <!-- 47 -->
     <g transform="translate(233.39311 476.784707)scale(0.1 -0.1)">
      <use xlink:href="#DejaVuSans-34"/>
      <use x="63.623047" xlink:href="#DejaVuSans-37"/>
     </g>
    </g>
    <g id="line2d_71">
     <path style="fill:none;stroke:#0ec460;stroke-linecap:square;stroke-width:1.5;"/>
    </g>
    <g id="line2d_72">
     <defs>
      <path d="M 0 2.5 
C 0.663008 2.5 1.29895 2.236584 1.767767 1.767767 
C 2.236584 1.29895 2.5 0.663008 2.5 0 
C 2.5 -0.663008 2.236584 -1.29895 1.767767 -1.767767 
C 1.29895 -2.236584 0.663008 -2.5 0 -2.5 
C -0.663008 -2.5 -1.29895 -2.236584 -1.767767 -1.767767 
C -2.236584 -1.29895 -2.5 -0.663008 -2.5 0 
C -2.5 0.663008 -2.236584 1.29895 -1.767767 1.767767 
C -1.29895 2.236584 -0.663008 2.5 0 2.5 
z
" id="mff6f052321" style="stroke:#0ec460;"/>
     </defs>
     <g>
      <use style="fill:#0ec460;stroke:#0ec460;" x="215.39311" xlink:href="#mff6f052321" y="487.962832"/>
     </g>
    </g>
    <g id="text_42">
     <!-- 48 -->
     <g transform="translate(233.39311 491.462832)scale(0.1 -0.1)">
      <use xlink:href="#DejaVuSans-34"/>
      <use x="63.623047" xlink:href="#DejaVuSans-38"/>
     </g>
    </g>
    <g id="line2d_73">
     <path style="fill:none;stroke:#069848;stroke-linecap:square;stroke-width:1.5;"/>
    </g>
    <g id="line2d_74">
     <defs>
      <path d="M 0 2.5 
C 0.663008 2.5 1.29895 2.236584 1.767767 1.767767 
C 2.236584 1.29895 2.5 0.663008 2.5 0 
C 2.5 -0.663008 2.236584 -1.29895 1.767767 -1.767767 
C 1.29895 -2.236584 0.663008 -2.5 0 -2.5 
C -0.663008 -2.5 -1.29895 -2.236584 -1.767767 -1.767767 
C -2.236584 -1.29895 -2.5 -0.663008 -2.5 0 
C -2.5 0.663008 -2.236584 1.29895 -1.767767 1.767767 
C -1.29895 2.236584 -0.663008 2.5 0 2.5 
z
" id="m33f743b4d0" style="stroke:#069848;"/>
     </defs>
     <g>
      <use style="fill:#069848;stroke:#069848;" x="215.39311" xlink:href="#m33f743b4d0" y="502.640957"/>
     </g>
    </g>
    <g id="text_43">
     <!-- 49 -->
     <g transform="translate(233.39311 506.140957)scale(0.1 -0.1)">
      <use xlink:href="#DejaVuSans-34"/>
      <use x="63.623047" xlink:href="#DejaVuSans-39"/>
     </g>
    </g>
    <g id="line2d_75">
     <path style="fill:none;stroke:#e0e3e2;stroke-linecap:square;stroke-width:1.5;"/>
    </g>
    <g id="line2d_76">
     <defs>
      <path d="M 0 2.5 
C 0.663008 2.5 1.29895 2.236584 1.767767 1.767767 
C 2.236584 1.29895 2.5 0.663008 2.5 0 
C 2.5 -0.663008 2.236584 -1.29895 1.767767 -1.767767 
C 1.29895 -2.236584 0.663008 -2.5 0 -2.5 
C -0.663008 -2.5 -1.29895 -2.236584 -1.767767 -1.767767 
C -2.236584 -1.29895 -2.5 -0.663008 -2.5 0 
C -2.5 0.663008 -2.236584 1.29895 -1.767767 1.767767 
C -1.29895 2.236584 -0.663008 2.5 0 2.5 
z
" id="m42b6825407" style="stroke:#e0e3e2;"/>
     </defs>
     <g>
      <use style="fill:#e0e3e2;stroke:#e0e3e2;" x="215.39311" xlink:href="#m42b6825407" y="517.319082"/>
     </g>
    </g>
    <g id="text_44">
     <!-- 50 -->
     <g transform="translate(233.39311 520.819082)scale(0.1 -0.1)">
      <use xlink:href="#DejaVuSans-35"/>
      <use x="63.623047" xlink:href="#DejaVuSans-30"/>
     </g>
    </g>
   </g>
   <g id="line2d_77">
    <path clip-path="url(#pb02d8264fb)" d="M 65.712241 152.415326 
L 95.776664 152.194952 
L 131.853973 152.338269 
L 185.969936 152.210795 
L 246.098783 152.124266 
" style="fill:none;stroke:#6ef1c9;stroke-linecap:square;stroke-width:1.5;"/>
    <g clip-path="url(#pb02d8264fb)">
     <use style="fill:#6ef1c9;stroke:#6ef1c9;" x="65.712241" xlink:href="#mcd9c20331e" y="152.415326"/>
     <use style="fill:#6ef1c9;stroke:#6ef1c9;" x="95.776664" xlink:href="#mcd9c20331e" y="152.194952"/>
     <use style="fill:#6ef1c9;stroke:#6ef1c9;" x="131.853973" xlink:href="#mcd9c20331e" y="152.338269"/>
     <use style="fill:#6ef1c9;stroke:#6ef1c9;" x="185.969936" xlink:href="#mcd9c20331e" y="152.210795"/>
     <use style="fill:#6ef1c9;stroke:#6ef1c9;" x="246.098783" xlink:href="#mcd9c20331e" y="152.124266"/>
    </g>
   </g>
   <g id="line2d_78">
    <path clip-path="url(#pb02d8264fb)" d="M 65.712241 152.426628 
L 95.776664 152.351612 
L 131.853973 152.426628 
L 185.969936 152.426628 
L 246.098783 152.426628 
" style="fill:none;stroke:#6ef1c9;stroke-linecap:square;stroke-width:1.5;"/>
    <g clip-path="url(#pb02d8264fb)">
     <use style="fill:#6ef1c9;stroke:#6ef1c9;" x="65.712241" xlink:href="#mcd9c20331e" y="152.426628"/>
     <use style="fill:#6ef1c9;stroke:#6ef1c9;" x="95.776664" xlink:href="#mcd9c20331e" y="152.351612"/>
     <use style="fill:#6ef1c9;stroke:#6ef1c9;" x="131.853973" xlink:href="#mcd9c20331e" y="152.426628"/>
     <use style="fill:#6ef1c9;stroke:#6ef1c9;" x="185.969936" xlink:href="#mcd9c20331e" y="152.426628"/>
     <use style="fill:#6ef1c9;stroke:#6ef1c9;" x="246.098783" xlink:href="#mcd9c20331e" y="152.426628"/>
    </g>
   </g>
   <g id="line2d_79">
    <path clip-path="url(#pb02d8264fb)" d="M 65.712241 147.818006 
L 95.776664 145.397161 
L 131.853973 133.608921 
L 185.969936 145.553772 
L 246.098783 143.638904 
" style="fill:none;stroke:#6ef1c9;stroke-linecap:square;stroke-width:1.5;"/>
    <g clip-path="url(#pb02d8264fb)">
     <use style="fill:#6ef1c9;stroke:#6ef1c9;" x="65.712241" xlink:href="#mcd9c20331e" y="147.818006"/>
     <use style="fill:#6ef1c9;stroke:#6ef1c9;" x="95.776664" xlink:href="#mcd9c20331e" y="145.397161"/>
     <use style="fill:#6ef1c9;stroke:#6ef1c9;" x="131.853973" xlink:href="#mcd9c20331e" y="133.608921"/>
     <use style="fill:#6ef1c9;stroke:#6ef1c9;" x="185.969936" xlink:href="#mcd9c20331e" y="145.553772"/>
     <use style="fill:#6ef1c9;stroke:#6ef1c9;" x="246.098783" xlink:href="#mcd9c20331e" y="143.638904"/>
    </g>
   </g>
   <g id="line2d_80">
    <path clip-path="url(#pb02d8264fb)" d="M 65.712241 151.415213 
L 95.776664 151.167314 
L 131.853973 130.497638 
L 185.969936 150.824543 
L 246.098783 150.149547 
" style="fill:none;stroke:#6ef1c9;stroke-linecap:square;stroke-width:1.5;"/>
    <g clip-path="url(#pb02d8264fb)">
     <use style="fill:#6ef1c9;stroke:#6ef1c9;" x="65.712241" xlink:href="#mcd9c20331e" y="151.415213"/>
     <use style="fill:#6ef1c9;stroke:#6ef1c9;" x="95.776664" xlink:href="#mcd9c20331e" y="151.167314"/>
     <use style="fill:#6ef1c9;stroke:#6ef1c9;" x="131.853973" xlink:href="#mcd9c20331e" y="130.497638"/>
     <use style="fill:#6ef1c9;stroke:#6ef1c9;" x="185.969936" xlink:href="#mcd9c20331e" y="150.824543"/>
     <use style="fill:#6ef1c9;stroke:#6ef1c9;" x="246.098783" xlink:href="#mcd9c20331e" y="150.149547"/>
    </g>
   </g>
   <g id="line2d_81">
    <path clip-path="url(#pb02d8264fb)" d="M 65.712241 151.577167 
L 95.776664 151.134002 
L 131.853973 150.152879 
L 185.969936 151.346888 
L 246.098783 151.361418 
" style="fill:none;stroke:#428317;stroke-linecap:square;stroke-width:1.5;"/>
    <g clip-path="url(#pb02d8264fb)">
     <use style="fill:#428317;stroke:#428317;" x="65.712241" xlink:href="#md7cb4782ab" y="151.577167"/>
     <use style="fill:#428317;stroke:#428317;" x="95.776664" xlink:href="#md7cb4782ab" y="151.134002"/>
     <use style="fill:#428317;stroke:#428317;" x="131.853973" xlink:href="#md7cb4782ab" y="150.152879"/>
     <use style="fill:#428317;stroke:#428317;" x="185.969936" xlink:href="#md7cb4782ab" y="151.346888"/>
     <use style="fill:#428317;stroke:#428317;" x="246.098783" xlink:href="#md7cb4782ab" y="151.361418"/>
    </g>
   </g>
   <g id="line2d_82">
    <path clip-path="url(#pb02d8264fb)" d="M 65.712241 147.729382 
L 95.776664 140.840023 
L 131.853973 125.208364 
L 185.969936 145.053558 
L 246.098783 143.560347 
" style="fill:none;stroke:#428317;stroke-linecap:square;stroke-width:1.5;"/>
    <g clip-path="url(#pb02d8264fb)">
     <use style="fill:#428317;stroke:#428317;" x="65.712241" xlink:href="#md7cb4782ab" y="147.729382"/>
     <use style="fill:#428317;stroke:#428317;" x="95.776664" xlink:href="#md7cb4782ab" y="140.840023"/>
     <use style="fill:#428317;stroke:#428317;" x="131.853973" xlink:href="#md7cb4782ab" y="125.208364"/>
     <use style="fill:#428317;stroke:#428317;" x="185.969936" xlink:href="#md7cb4782ab" y="145.053558"/>
     <use style="fill:#428317;stroke:#428317;" x="246.098783" xlink:href="#md7cb4782ab" y="143.560347"/>
    </g>
   </g>
   <g id="line2d_83">
    <path clip-path="url(#pb02d8264fb)" d="M 65.712241 152.403439 
L 95.776664 152.426628 
L 131.853973 152.426628 
L 185.969936 152.426628 
L 246.098783 152.426628 
" style="fill:none;stroke:#428317;stroke-linecap:square;stroke-width:1.5;"/>
    <g clip-path="url(#pb02d8264fb)">
     <use style="fill:#428317;stroke:#428317;" x="65.712241" xlink:href="#md7cb4782ab" y="152.403439"/>
     <use style="fill:#428317;stroke:#428317;" x="95.776664" xlink:href="#md7cb4782ab" y="152.426628"/>
     <use style="fill:#428317;stroke:#428317;" x="131.853973" xlink:href="#md7cb4782ab" y="152.426628"/>
     <use style="fill:#428317;stroke:#428317;" x="185.969936" xlink:href="#md7cb4782ab" y="152.426628"/>
     <use style="fill:#428317;stroke:#428317;" x="246.098783" xlink:href="#md7cb4782ab" y="152.426628"/>
    </g>
   </g>
   <g id="line2d_84">
    <path clip-path="url(#pb02d8264fb)" d="M 65.712241 152.425868 
L 95.776664 152.426628 
L 131.853973 152.426628 
L 185.969936 152.426628 
L 246.098783 152.426628 
" style="fill:none;stroke:#06986a;stroke-linecap:square;stroke-width:1.5;"/>
    <g clip-path="url(#pb02d8264fb)">
     <use style="fill:#06986a;stroke:#06986a;" x="65.712241" xlink:href="#m5900e13fe2" y="152.425868"/>
     <use style="fill:#06986a;stroke:#06986a;" x="95.776664" xlink:href="#m5900e13fe2" y="152.426628"/>
     <use style="fill:#06986a;stroke:#06986a;" x="131.853973" xlink:href="#m5900e13fe2" y="152.426628"/>
     <use style="fill:#06986a;stroke:#06986a;" x="185.969936" xlink:href="#m5900e13fe2" y="152.426628"/>
     <use style="fill:#06986a;stroke:#06986a;" x="246.098783" xlink:href="#m5900e13fe2" y="152.426628"/>
    </g>
   </g>
   <g id="line2d_85">
    <path clip-path="url(#pb02d8264fb)" d="M 65.712241 149.225868 
L 95.776664 147.999545 
L 131.853973 147.636896 
L 185.969936 148.874029 
L 246.098783 148.833854 
" style="fill:none;stroke:#428317;stroke-linecap:square;stroke-width:1.5;"/>
    <g clip-path="url(#pb02d8264fb)">
     <use style="fill:#428317;stroke:#428317;" x="65.712241" xlink:href="#md7cb4782ab" y="149.225868"/>
     <use style="fill:#428317;stroke:#428317;" x="95.776664" xlink:href="#md7cb4782ab" y="147.999545"/>
     <use style="fill:#428317;stroke:#428317;" x="131.853973" xlink:href="#md7cb4782ab" y="147.636896"/>
     <use style="fill:#428317;stroke:#428317;" x="185.969936" xlink:href="#md7cb4782ab" y="148.874029"/>
     <use style="fill:#428317;stroke:#428317;" x="246.098783" xlink:href="#md7cb4782ab" y="148.833854"/>
    </g>
   </g>
   <g id="line2d_86">
    <path clip-path="url(#pb02d8264fb)" d="M 65.712241 152.135765 
L 95.776664 151.787789 
L 131.853973 152.059114 
L 185.969936 151.960635 
L 246.098783 151.876233 
" style="fill:none;stroke:#106832;stroke-linecap:square;stroke-width:1.5;"/>
    <g clip-path="url(#pb02d8264fb)">
     <use style="fill:#106832;stroke:#106832;" x="65.712241" xlink:href="#md561af5dd5" y="152.135765"/>
     <use style="fill:#106832;stroke:#106832;" x="95.776664" xlink:href="#md561af5dd5" y="151.787789"/>
     <use style="fill:#106832;stroke:#106832;" x="131.853973" xlink:href="#md561af5dd5" y="152.059114"/>
     <use style="fill:#106832;stroke:#106832;" x="185.969936" xlink:href="#md561af5dd5" y="151.960635"/>
     <use style="fill:#106832;stroke:#106832;" x="246.098783" xlink:href="#md561af5dd5" y="151.876233"/>
    </g>
   </g>
   <g id="line2d_87">
    <path clip-path="url(#pb02d8264fb)" d="M 65.712241 152.426628 
L 95.776664 152.294273 
L 131.853973 152.426628 
L 185.969936 152.426628 
L 246.098783 152.426628 
" style="fill:none;stroke:#2b8536;stroke-linecap:square;stroke-width:1.5;"/>
    <g clip-path="url(#pb02d8264fb)">
     <use style="fill:#2b8536;stroke:#2b8536;" x="65.712241" xlink:href="#mcc0197aed9" y="152.426628"/>
     <use style="fill:#2b8536;stroke:#2b8536;" x="95.776664" xlink:href="#mcc0197aed9" y="152.294273"/>
     <use style="fill:#2b8536;stroke:#2b8536;" x="131.853973" xlink:href="#mcc0197aed9" y="152.426628"/>
     <use style="fill:#2b8536;stroke:#2b8536;" x="185.969936" xlink:href="#mcc0197aed9" y="152.426628"/>
     <use style="fill:#2b8536;stroke:#2b8536;" x="246.098783" xlink:href="#mcc0197aed9" y="152.426628"/>
    </g>
   </g>
   <g id="line2d_88">
    <path clip-path="url(#pb02d8264fb)" d="M 65.712241 152.417017 
L 95.776664 152.36656 
L 131.853973 152.426628 
L 185.969936 152.42061 
L 246.098783 152.426628 
" style="fill:none;stroke:#56a45e;stroke-linecap:square;stroke-width:1.5;"/>
    <g clip-path="url(#pb02d8264fb)">
     <use style="fill:#56a45e;stroke:#56a45e;" x="65.712241" xlink:href="#mb7f0a84eb8" y="152.417017"/>
     <use style="fill:#56a45e;stroke:#56a45e;" x="95.776664" xlink:href="#mb7f0a84eb8" y="152.36656"/>
     <use style="fill:#56a45e;stroke:#56a45e;" x="131.853973" xlink:href="#mb7f0a84eb8" y="152.426628"/>
     <use style="fill:#56a45e;stroke:#56a45e;" x="185.969936" xlink:href="#mb7f0a84eb8" y="152.42061"/>
     <use style="fill:#56a45e;stroke:#56a45e;" x="246.098783" xlink:href="#mb7f0a84eb8" y="152.426628"/>
    </g>
   </g>
   <g id="line2d_89">
    <path clip-path="url(#pb02d8264fb)" d="M 65.712241 152.414564 
L 95.776664 152.398567 
L 131.853973 152.426628 
L 185.969936 152.426628 
L 246.098783 152.426628 
" style="fill:none;stroke:#3aa302;stroke-linecap:square;stroke-width:1.5;"/>
    <g clip-path="url(#pb02d8264fb)">
     <use style="fill:#3aa302;stroke:#3aa302;" x="65.712241" xlink:href="#mec84111701" y="152.414564"/>
     <use style="fill:#3aa302;stroke:#3aa302;" x="95.776664" xlink:href="#mec84111701" y="152.398567"/>
     <use style="fill:#3aa302;stroke:#3aa302;" x="131.853973" xlink:href="#mec84111701" y="152.426628"/>
     <use style="fill:#3aa302;stroke:#3aa302;" x="185.969936" xlink:href="#mec84111701" y="152.426628"/>
     <use style="fill:#3aa302;stroke:#3aa302;" x="246.098783" xlink:href="#mec84111701" y="152.426628"/>
    </g>
   </g>
   <g id="line2d_90">
    <path clip-path="url(#pb02d8264fb)" d="M 65.712241 152.415989 
L 95.776664 152.426628 
L 131.853973 152.426628 
L 185.969936 152.426628 
L 246.098783 152.426628 
" style="fill:none;stroke:#04b978;stroke-linecap:square;stroke-width:1.5;"/>
    <g clip-path="url(#pb02d8264fb)">
     <use style="fill:#04b978;stroke:#04b978;" x="65.712241" xlink:href="#mce11f14881" y="152.415989"/>
     <use style="fill:#04b978;stroke:#04b978;" x="95.776664" xlink:href="#mce11f14881" y="152.426628"/>
     <use style="fill:#04b978;stroke:#04b978;" x="131.853973" xlink:href="#mce11f14881" y="152.426628"/>
     <use style="fill:#04b978;stroke:#04b978;" x="185.969936" xlink:href="#mce11f14881" y="152.426628"/>
     <use style="fill:#04b978;stroke:#04b978;" x="246.098783" xlink:href="#mce11f14881" y="152.426628"/>
    </g>
   </g>
   <g id="line2d_91">
    <path clip-path="url(#pb02d8264fb)" d="M 65.712241 152.426628 
L 95.776664 152.426628 
L 131.853973 152.426628 
L 185.969936 152.424728 
L 246.098783 152.424737 
" style="fill:none;stroke:#36bf44;stroke-linecap:square;stroke-width:1.5;"/>
    <g clip-path="url(#pb02d8264fb)">
     <use style="fill:#36bf44;stroke:#36bf44;" x="65.712241" xlink:href="#m61bc820cbd" y="152.426628"/>
     <use style="fill:#36bf44;stroke:#36bf44;" x="95.776664" xlink:href="#m61bc820cbd" y="152.426628"/>
     <use style="fill:#36bf44;stroke:#36bf44;" x="131.853973" xlink:href="#m61bc820cbd" y="152.426628"/>
     <use style="fill:#36bf44;stroke:#36bf44;" x="185.969936" xlink:href="#m61bc820cbd" y="152.424728"/>
     <use style="fill:#36bf44;stroke:#36bf44;" x="246.098783" xlink:href="#m61bc820cbd" y="152.424737"/>
    </g>
   </g>
   <g id="line2d_92">
    <path clip-path="url(#pb02d8264fb)" d="M 65.712241 152.426628 
L 95.776664 152.395584 
L 131.853973 152.426628 
L 185.969936 152.426628 
L 246.098783 152.426628 
" style="fill:none;stroke:#8ac08f;stroke-linecap:square;stroke-width:1.5;"/>
    <g clip-path="url(#pb02d8264fb)">
     <use style="fill:#8ac08f;stroke:#8ac08f;" x="65.712241" xlink:href="#m440462b075" y="152.426628"/>
     <use style="fill:#8ac08f;stroke:#8ac08f;" x="95.776664" xlink:href="#m440462b075" y="152.395584"/>
     <use style="fill:#8ac08f;stroke:#8ac08f;" x="131.853973" xlink:href="#m440462b075" y="152.426628"/>
     <use style="fill:#8ac08f;stroke:#8ac08f;" x="185.969936" xlink:href="#m440462b075" y="152.426628"/>
     <use style="fill:#8ac08f;stroke:#8ac08f;" x="246.098783" xlink:href="#m440462b075" y="152.426628"/>
    </g>
   </g>
   <g id="line2d_93">
    <path clip-path="url(#pb02d8264fb)" d="M 65.712241 150.980903 
L 95.776664 149.422539 
L 131.853973 150.027409 
L 185.969936 149.513777 
L 246.098783 149.187575 
" style="fill:none;stroke:#51a778;stroke-linecap:square;stroke-width:1.5;"/>
    <g clip-path="url(#pb02d8264fb)">
     <use style="fill:#51a778;stroke:#51a778;" x="65.712241" xlink:href="#m58ad55302d" y="150.980903"/>
     <use style="fill:#51a778;stroke:#51a778;" x="95.776664" xlink:href="#m58ad55302d" y="149.422539"/>
     <use style="fill:#51a778;stroke:#51a778;" x="131.853973" xlink:href="#m58ad55302d" y="150.027409"/>
     <use style="fill:#51a778;stroke:#51a778;" x="185.969936" xlink:href="#m58ad55302d" y="149.513777"/>
     <use style="fill:#51a778;stroke:#51a778;" x="246.098783" xlink:href="#m58ad55302d" y="149.187575"/>
    </g>
   </g>
   <g id="line2d_94">
    <path clip-path="url(#pb02d8264fb)" d="M 65.712241 152.363312 
L 95.776664 152.290848 
L 131.853973 152.426628 
L 185.969936 152.366103 
L 246.098783 152.35433 
" style="fill:none;stroke:#34be72;stroke-linecap:square;stroke-width:1.5;"/>
    <g clip-path="url(#pb02d8264fb)">
     <use style="fill:#34be72;stroke:#34be72;" x="65.712241" xlink:href="#mb73967af32" y="152.363312"/>
     <use style="fill:#34be72;stroke:#34be72;" x="95.776664" xlink:href="#mb73967af32" y="152.290848"/>
     <use style="fill:#34be72;stroke:#34be72;" x="131.853973" xlink:href="#mb73967af32" y="152.426628"/>
     <use style="fill:#34be72;stroke:#34be72;" x="185.969936" xlink:href="#mb73967af32" y="152.366103"/>
     <use style="fill:#34be72;stroke:#34be72;" x="246.098783" xlink:href="#mb73967af32" y="152.35433"/>
    </g>
   </g>
   <g id="line2d_95">
    <path clip-path="url(#pb02d8264fb)" d="M 65.712241 152.010114 
L 95.776664 152.399716 
L 131.853973 152.426628 
L 185.969936 152.37678 
L 246.098783 152.40683 
" style="fill:none;stroke:#0ec460;stroke-linecap:square;stroke-width:1.5;"/>
    <g clip-path="url(#pb02d8264fb)">
     <use style="fill:#0ec460;stroke:#0ec460;" x="65.712241" xlink:href="#mff6f052321" y="152.010114"/>
     <use style="fill:#0ec460;stroke:#0ec460;" x="95.776664" xlink:href="#mff6f052321" y="152.399716"/>
     <use style="fill:#0ec460;stroke:#0ec460;" x="131.853973" xlink:href="#mff6f052321" y="152.426628"/>
     <use style="fill:#0ec460;stroke:#0ec460;" x="185.969936" xlink:href="#mff6f052321" y="152.37678"/>
     <use style="fill:#0ec460;stroke:#0ec460;" x="246.098783" xlink:href="#mff6f052321" y="152.40683"/>
    </g>
   </g>
   <g id="line2d_96">
    <path clip-path="url(#pb02d8264fb)" d="M 65.712241 152.412211 
L 95.776664 152.403538 
L 131.853973 152.426628 
L 185.969936 152.426628 
L 246.098783 152.426628 
" style="fill:none;stroke:#069848;stroke-linecap:square;stroke-width:1.5;"/>
    <g clip-path="url(#pb02d8264fb)">
     <use style="fill:#069848;stroke:#069848;" x="65.712241" xlink:href="#m33f743b4d0" y="152.412211"/>
     <use style="fill:#069848;stroke:#069848;" x="95.776664" xlink:href="#m33f743b4d0" y="152.403538"/>
     <use style="fill:#069848;stroke:#069848;" x="131.853973" xlink:href="#m33f743b4d0" y="152.426628"/>
     <use style="fill:#069848;stroke:#069848;" x="185.969936" xlink:href="#m33f743b4d0" y="152.426628"/>
     <use style="fill:#069848;stroke:#069848;" x="246.098783" xlink:href="#m33f743b4d0" y="152.426628"/>
    </g>
   </g>
   <g id="line2d_97">
    <path clip-path="url(#pb02d8264fb)" d="M 65.712241 152.426628 
L 95.776664 152.426628 
L 131.853973 152.426628 
L 185.969936 152.230946 
L 246.098783 152.426628 
" style="fill:none;stroke:#e0e3e2;stroke-linecap:square;stroke-width:1.5;"/>
    <g clip-path="url(#pb02d8264fb)">
     <use style="fill:#e0e3e2;stroke:#e0e3e2;" x="65.712241" xlink:href="#m42b6825407" y="152.426628"/>
     <use style="fill:#e0e3e2;stroke:#e0e3e2;" x="95.776664" xlink:href="#m42b6825407" y="152.426628"/>
     <use style="fill:#e0e3e2;stroke:#e0e3e2;" x="131.853973" xlink:href="#m42b6825407" y="152.426628"/>
     <use style="fill:#e0e3e2;stroke:#e0e3e2;" x="185.969936" xlink:href="#m42b6825407" y="152.230946"/>
     <use style="fill:#e0e3e2;stroke:#e0e3e2;" x="246.098783" xlink:href="#m42b6825407" y="152.426628"/>
    </g>
   </g>
   <g id="line2d_98">
    <path clip-path="url(#pb02d8264fb)" d="M 65.712241 140.344526 
L 95.776664 136.867513 
L 131.853973 149.745451 
L 185.969936 139.247066 
L 246.098783 140.100571 
" style="fill:none;stroke:#a3604b;stroke-linecap:square;stroke-width:1.5;"/>
    <g clip-path="url(#pb02d8264fb)">
     <use style="fill:#a3604b;stroke:#a3604b;" x="65.712241" xlink:href="#m90b0147e45" y="140.344526"/>
     <use style="fill:#a3604b;stroke:#a3604b;" x="95.776664" xlink:href="#m90b0147e45" y="136.867513"/>
     <use style="fill:#a3604b;stroke:#a3604b;" x="131.853973" xlink:href="#m90b0147e45" y="149.745451"/>
     <use style="fill:#a3604b;stroke:#a3604b;" x="185.969936" xlink:href="#m90b0147e45" y="139.247066"/>
     <use style="fill:#a3604b;stroke:#a3604b;" x="246.098783" xlink:href="#m90b0147e45" y="140.100571"/>
    </g>
   </g>
   <g id="line2d_99">
    <path clip-path="url(#pb02d8264fb)" d="M 65.712241 146.410189 
L 95.776664 146.950845 
L 131.853973 149.702886 
L 185.969936 145.884635 
L 246.098783 147.268884 
" style="fill:none;stroke:#a3604b;stroke-linecap:square;stroke-width:1.5;"/>
    <g clip-path="url(#pb02d8264fb)">
     <use style="fill:#a3604b;stroke:#a3604b;" x="65.712241" xlink:href="#m90b0147e45" y="146.410189"/>
     <use style="fill:#a3604b;stroke:#a3604b;" x="95.776664" xlink:href="#m90b0147e45" y="146.950845"/>
     <use style="fill:#a3604b;stroke:#a3604b;" x="131.853973" xlink:href="#m90b0147e45" y="149.702886"/>
     <use style="fill:#a3604b;stroke:#a3604b;" x="185.969936" xlink:href="#m90b0147e45" y="145.884635"/>
     <use style="fill:#a3604b;stroke:#a3604b;" x="246.098783" xlink:href="#m90b0147e45" y="147.268884"/>
    </g>
   </g>
   <g id="line2d_100">
    <path clip-path="url(#pb02d8264fb)" d="M 65.712241 139.088065 
L 95.776664 133.699845 
L 131.853973 138.083349 
L 185.969936 134.776092 
L 246.098783 133.060289 
" style="fill:none;stroke:#f53f06;stroke-linecap:square;stroke-width:1.5;"/>
    <g clip-path="url(#pb02d8264fb)">
     <use style="fill:#f53f06;stroke:#f53f06;" x="65.712241" xlink:href="#m5c5edf137d" y="139.088065"/>
     <use style="fill:#f53f06;stroke:#f53f06;" x="95.776664" xlink:href="#m5c5edf137d" y="133.699845"/>
     <use style="fill:#f53f06;stroke:#f53f06;" x="131.853973" xlink:href="#m5c5edf137d" y="138.083349"/>
     <use style="fill:#f53f06;stroke:#f53f06;" x="185.969936" xlink:href="#m5c5edf137d" y="134.776092"/>
     <use style="fill:#f53f06;stroke:#f53f06;" x="246.098783" xlink:href="#m5c5edf137d" y="133.060289"/>
    </g>
   </g>
   <g id="line2d_101">
    <path clip-path="url(#pb02d8264fb)" d="M 65.712241 124.352227 
L 95.776664 122.974445 
L 131.853973 127.068327 
L 185.969936 125.64665 
L 246.098783 129.213723 
" style="fill:none;stroke:#771124;stroke-linecap:square;stroke-width:1.5;"/>
    <g clip-path="url(#pb02d8264fb)">
     <use style="fill:#771124;stroke:#771124;" x="65.712241" xlink:href="#mf6dbd9781f" y="124.352227"/>
     <use style="fill:#771124;stroke:#771124;" x="95.776664" xlink:href="#mf6dbd9781f" y="122.974445"/>
     <use style="fill:#771124;stroke:#771124;" x="131.853973" xlink:href="#mf6dbd9781f" y="127.068327"/>
     <use style="fill:#771124;stroke:#771124;" x="185.969936" xlink:href="#mf6dbd9781f" y="125.64665"/>
     <use style="fill:#771124;stroke:#771124;" x="246.098783" xlink:href="#mf6dbd9781f" y="129.213723"/>
    </g>
   </g>
   <g id="line2d_102">
    <path clip-path="url(#pb02d8264fb)" d="M 65.712241 128.139664 
L 95.776664 123.743892 
L 131.853973 129.107126 
L 185.969936 124.380553 
L 246.098783 122.730478 
" style="fill:none;stroke:#eeb29f;stroke-linecap:square;stroke-width:1.5;"/>
    <g clip-path="url(#pb02d8264fb)">
     <use style="fill:#eeb29f;stroke:#eeb29f;" x="65.712241" xlink:href="#m7b134c3c24" y="128.139664"/>
     <use style="fill:#eeb29f;stroke:#eeb29f;" x="95.776664" xlink:href="#m7b134c3c24" y="123.743892"/>
     <use style="fill:#eeb29f;stroke:#eeb29f;" x="131.853973" xlink:href="#m7b134c3c24" y="129.107126"/>
     <use style="fill:#eeb29f;stroke:#eeb29f;" x="185.969936" xlink:href="#m7b134c3c24" y="124.380553"/>
     <use style="fill:#eeb29f;stroke:#eeb29f;" x="246.098783" xlink:href="#m7b134c3c24" y="122.730478"/>
    </g>
   </g>
   <g id="line2d_103">
    <path clip-path="url(#pb02d8264fb)" d="M 65.712241 152.380735 
L 95.776664 152.331174 
L 131.853973 152.426628 
L 185.969936 152.372962 
L 246.098783 152.367791 
" style="fill:none;stroke:#ff0240;stroke-linecap:square;stroke-width:1.5;"/>
    <g clip-path="url(#pb02d8264fb)">
     <use style="fill:#ff0240;stroke:#ff0240;" x="65.712241" xlink:href="#m90017759d1" y="152.380735"/>
     <use style="fill:#ff0240;stroke:#ff0240;" x="95.776664" xlink:href="#m90017759d1" y="152.331174"/>
     <use style="fill:#ff0240;stroke:#ff0240;" x="131.853973" xlink:href="#m90017759d1" y="152.426628"/>
     <use style="fill:#ff0240;stroke:#ff0240;" x="185.969936" xlink:href="#m90017759d1" y="152.372962"/>
     <use style="fill:#ff0240;stroke:#ff0240;" x="246.098783" xlink:href="#m90017759d1" y="152.367791"/>
    </g>
   </g>
   <g id="line2d_104">
    <path clip-path="url(#pb02d8264fb)" d="M 65.712241 152.426628 
L 95.776664 152.426628 
L 131.853973 152.387212 
L 185.969936 152.426628 
L 246.098783 152.426628 
" style="fill:none;stroke:#d0d1df;stroke-linecap:square;stroke-width:1.5;"/>
    <g clip-path="url(#pb02d8264fb)">
     <use style="fill:#d0d1df;stroke:#d0d1df;" x="65.712241" xlink:href="#mfcb54d5eb9" y="152.426628"/>
     <use style="fill:#d0d1df;stroke:#d0d1df;" x="95.776664" xlink:href="#mfcb54d5eb9" y="152.426628"/>
     <use style="fill:#d0d1df;stroke:#d0d1df;" x="131.853973" xlink:href="#mfcb54d5eb9" y="152.387212"/>
     <use style="fill:#d0d1df;stroke:#d0d1df;" x="185.969936" xlink:href="#mfcb54d5eb9" y="152.426628"/>
     <use style="fill:#d0d1df;stroke:#d0d1df;" x="246.098783" xlink:href="#mfcb54d5eb9" y="152.426628"/>
    </g>
   </g>
   <g id="line2d_105">
    <path clip-path="url(#pb02d8264fb)" d="M 65.712241 149.107334 
L 95.776664 148.96771 
L 131.853973 149.259592 
L 185.969936 148.869952 
L 246.098783 148.973457 
" style="fill:none;stroke:#e0e3e1;stroke-linecap:square;stroke-width:1.5;"/>
    <g clip-path="url(#pb02d8264fb)">
     <use style="fill:#e0e3e1;stroke:#e0e3e1;" x="65.712241" xlink:href="#m484ebdd81a" y="149.107334"/>
     <use style="fill:#e0e3e1;stroke:#e0e3e1;" x="95.776664" xlink:href="#m484ebdd81a" y="148.96771"/>
     <use style="fill:#e0e3e1;stroke:#e0e3e1;" x="131.853973" xlink:href="#m484ebdd81a" y="149.259592"/>
     <use style="fill:#e0e3e1;stroke:#e0e3e1;" x="185.969936" xlink:href="#m484ebdd81a" y="148.869952"/>
     <use style="fill:#e0e3e1;stroke:#e0e3e1;" x="246.098783" xlink:href="#m484ebdd81a" y="148.973457"/>
    </g>
   </g>
   <g id="line2d_106">
    <path clip-path="url(#pb02d8264fb)" d="M 65.712241 152.426628 
L 95.776664 139.172607 
L 131.853973 148.695548 
L 185.969936 140.402234 
L 246.098783 139.202285 
" style="fill:none;stroke:#e0e3e1;stroke-linecap:square;stroke-width:1.5;"/>
    <g clip-path="url(#pb02d8264fb)">
     <use style="fill:#e0e3e1;stroke:#e0e3e1;" x="65.712241" xlink:href="#m484ebdd81a" y="152.426628"/>
     <use style="fill:#e0e3e1;stroke:#e0e3e1;" x="95.776664" xlink:href="#m484ebdd81a" y="139.172607"/>
     <use style="fill:#e0e3e1;stroke:#e0e3e1;" x="131.853973" xlink:href="#m484ebdd81a" y="148.695548"/>
     <use style="fill:#e0e3e1;stroke:#e0e3e1;" x="185.969936" xlink:href="#m484ebdd81a" y="140.402234"/>
     <use style="fill:#e0e3e1;stroke:#e0e3e1;" x="246.098783" xlink:href="#m484ebdd81a" y="139.202285"/>
    </g>
   </g>
   <g id="line2d_107">
    <path clip-path="url(#pb02d8264fb)" d="M 65.712241 38.388456 
L 95.776664 26.156049 
L 131.853973 74.814812 
L 185.969936 34.019536 
L 246.098783 37.691576 
" style="fill:none;stroke:#44aaaa;stroke-linecap:square;stroke-width:1.5;"/>
    <g clip-path="url(#pb02d8264fb)">
     <use style="fill:#44aaaa;stroke:#44aaaa;" x="65.712241" xlink:href="#mbdde7f126c" y="38.388456"/>
     <use style="fill:#44aaaa;stroke:#44aaaa;" x="95.776664" xlink:href="#mbdde7f126c" y="26.156049"/>
     <use style="fill:#44aaaa;stroke:#44aaaa;" x="131.853973" xlink:href="#mbdde7f126c" y="74.814812"/>
     <use style="fill:#44aaaa;stroke:#44aaaa;" x="185.969936" xlink:href="#mbdde7f126c" y="34.019536"/>
     <use style="fill:#44aaaa;stroke:#44aaaa;" x="246.098783" xlink:href="#mbdde7f126c" y="37.691576"/>
    </g>
   </g>
   <g id="line2d_108">
    <path clip-path="url(#pb02d8264fb)" d="M 65.712241 151.836545 
L 95.776664 151.404757 
L 131.853973 152.33218 
L 185.969936 151.768068 
L 246.098783 151.864881 
" style="fill:none;stroke:#77aadd;stroke-linecap:square;stroke-width:1.5;"/>
    <g clip-path="url(#pb02d8264fb)">
     <use style="fill:#77aadd;stroke:#77aadd;" x="65.712241" xlink:href="#m88a74bfecd" y="151.836545"/>
     <use style="fill:#77aadd;stroke:#77aadd;" x="95.776664" xlink:href="#m88a74bfecd" y="151.404757"/>
     <use style="fill:#77aadd;stroke:#77aadd;" x="131.853973" xlink:href="#m88a74bfecd" y="152.33218"/>
     <use style="fill:#77aadd;stroke:#77aadd;" x="185.969936" xlink:href="#m88a74bfecd" y="151.768068"/>
     <use style="fill:#77aadd;stroke:#77aadd;" x="246.098783" xlink:href="#m88a74bfecd" y="151.864881"/>
    </g>
   </g>
   <g id="line2d_109">
    <path clip-path="url(#pb02d8264fb)" d="M 65.712241 143.847108 
L 95.776664 141.34582 
L 131.853973 144.965322 
L 185.969936 143.188915 
L 246.098783 144.166246 
" style="fill:none;stroke:#117777;stroke-linecap:square;stroke-width:1.5;"/>
    <g clip-path="url(#pb02d8264fb)">
     <use style="fill:#117777;stroke:#117777;" x="65.712241" xlink:href="#m54262c82c2" y="143.847108"/>
     <use style="fill:#117777;stroke:#117777;" x="95.776664" xlink:href="#m54262c82c2" y="141.34582"/>
     <use style="fill:#117777;stroke:#117777;" x="131.853973" xlink:href="#m54262c82c2" y="144.965322"/>
     <use style="fill:#117777;stroke:#117777;" x="185.969936" xlink:href="#m54262c82c2" y="143.188915"/>
     <use style="fill:#117777;stroke:#117777;" x="246.098783" xlink:href="#m54262c82c2" y="144.166246"/>
    </g>
   </g>
   <g id="line2d_110">
    <path clip-path="url(#pb02d8264fb)" d="M 65.712241 151.985636 
L 95.776664 138.881737 
L 131.853973 140.270178 
L 185.969936 143.575677 
L 246.098783 143.870152 
" style="fill:none;stroke:#525fb7;stroke-linecap:square;stroke-width:1.5;"/>
    <g clip-path="url(#pb02d8264fb)">
     <use style="fill:#525fb7;stroke:#525fb7;" x="65.712241" xlink:href="#mbec433e74a" y="151.985636"/>
     <use style="fill:#525fb7;stroke:#525fb7;" x="95.776664" xlink:href="#mbec433e74a" y="138.881737"/>
     <use style="fill:#525fb7;stroke:#525fb7;" x="131.853973" xlink:href="#mbec433e74a" y="140.270178"/>
     <use style="fill:#525fb7;stroke:#525fb7;" x="185.969936" xlink:href="#mbec433e74a" y="143.575677"/>
     <use style="fill:#525fb7;stroke:#525fb7;" x="246.098783" xlink:href="#mbec433e74a" y="143.870152"/>
    </g>
   </g>
  </g>
 </g>
 <defs>
  <clipPath id="pb02d8264fb">
   <rect height="138.897638" width="198.425197" x="56.692913" y="19.84252"/>
  </clipPath>
 </defs>
</svg>
